<?xml version="1.0" encoding="UTF-8"?>
<svg id="Layer_2" data-name="Layer 2" xmlns="http://www.w3.org/2000/svg" viewBox="0 0 358.45 277.95">
  <defs>
    <style>
      .cls-1 {
        fill: #5c5c5d;
      }

      .cls-2 {
        fill: #1b1a19;
      }

      .cls-3 {
        fill: #646263;
      }

      .cls-4 {
        fill: #111011;
      }

      .cls-5 {
        fill: #585757;
      }

      .cls-6 {
        fill: #747271;
      }

      .cls-7 {
        fill: #323232;
      }

      .cls-8 {
        fill: #403f40;
      }

      .cls-9 {
        fill: #2b2b2b;
      }

      .cls-10 {
        fill: #444445;
      }

      .cls-11 {
        fill: #6f6e6e;
      }

      .cls-12 {
        fill: #444;
      }

      .cls-13 {
        fill: #4b4b4c;
      }

      .cls-14 {
        fill: #0a0a0c;
      }

      .cls-15 {
        fill: #636263;
      }

      .cls-16 {
        fill: #110f0e;
      }

      .cls-17 {
        fill: #1e2020;
      }

      .cls-18 {
        fill: #838484;
      }

      .cls-19 {
        fill: #595959;
      }

      .cls-20 {
        fill: #181919;
      }

      .cls-21 {
        fill: #6c6c6d;
      }

      .cls-22 {
        fill: #232323;
      }

      .cls-23 {
        fill: #292929;
      }

      .cls-24 {
        fill: #383737;
      }

      .cls-25 {
        fill: #545454;
      }

      .cls-26 {
        fill: #444343;
      }

      .cls-27 {
        fill: #232221;
      }

      .cls-28 {
        fill: #575656;
      }

      .cls-29 {
        fill: #707070;
      }

      .cls-30 {
        fill: none;
        stroke: #fff;
        stroke-miterlimit: 10;
        stroke-width: 13px;
      }

      .cls-31 {
        fill: #515051;
      }

      .cls-32 {
        fill: #4d4c4c;
      }

      .cls-33 {
        fill: #555454;
      }

      .cls-34 {
        fill: #a1a0a1;
      }

      .cls-35 {
        fill: #3a3838;
      }

      .cls-36 {
        fill: #4d4c4d;
      }

      .cls-37 {
        fill: #424141;
      }

      .cls-38 {
        fill: #3c3a3a;
      }

      .cls-39 {
        fill: #292a2c;
      }

      .cls-40 {
        fill: #9c9c9b;
      }

      .cls-41 {
        fill: #747475;
      }

      .cls-42 {
        fill: #595858;
      }

      .cls-43 {
        fill: #868686;
      }

      .cls-44 {
        fill: #2c2c2c;
      }

      .cls-45 {
        fill: #444342;
      }

      .cls-46 {
        fill: #61605f;
      }

      .cls-47 {
        fill: #7a7a79;
      }

      .cls-48 {
        fill: #616060;
      }

      .cls-49 {
        fill: #222323;
      }

      .cls-50 {
        fill: #141313;
      }

      .cls-51 {
        fill: #1d1d1d;
      }

      .cls-52 {
        fill: #807f7e;
      }

      .cls-53 {
        fill: #555455;
      }

      .cls-54 {
        fill: #676666;
      }

      .cls-55 {
        fill: #686767;
      }

      .cls-56 {
        fill: #555554;
      }

      .cls-57 {
        fill: #212121;
      }

      .cls-58 {
        fill: #3f3e3e;
      }

      .cls-59 {
        fill: #70706f;
      }

      .cls-60 {
        fill: #8e8f8f;
      }

      .cls-61 {
        fill: #686768;
      }

      .cls-62 {
        fill: #444344;
      }

      .cls-63 {
        fill: #313030;
      }

      .cls-64 {
        fill: #3a3a3a;
      }

      .cls-65 {
        fill: #696969;
      }

      .cls-66 {
        fill: #2d2c2c;
      }

      .cls-67 {
        fill: #9f9fa0;
      }

      .cls-68 {
        fill: #484747;
      }

      .cls-69 {
        fill: #5d5d5d;
      }

      .cls-70 {
        fill: #303030;
      }

      .cls-71 {
        fill: #4f4e4e;
      }

      .cls-72 {
        fill: #656565;
      }

      .cls-73 {
        fill: #222121;
      }

      .cls-74 {
        fill: #7b7a7b;
      }

      .cls-75 {
        fill: #797979;
      }

      .cls-76 {
        fill: #0f0e0e;
      }

      .cls-77 {
        fill: #4e4e4e;
      }

      .cls-78 {
        fill: #505050;
      }

      .cls-79 {
        fill: #060606;
      }

      .cls-80 {
        fill: #282727;
      }

      .cls-81 {
        fill: #615f60;
      }

      .cls-82 {
        fill: #727373;
      }

      .cls-83 {
        fill: #656567;
      }

      .cls-84 {
        fill: #838384;
      }

      .cls-85 {
        fill: #262525;
      }

      .cls-86 {
        fill: #181717;
      }

      .cls-87 {
        fill: #5b5b5c;
      }

      .cls-88 {
        fill: #3d3c3d;
      }

      .cls-89 {
        fill: #626162;
      }

      .cls-90 {
        fill: #6f6f6f;
      }

      .cls-91 {
        fill: #626362;
      }

      .cls-92 {
        fill: #141413;
      }

      .cls-93 {
        fill: #fff;
      }

      .cls-94 {
        fill: #121212;
      }

      .cls-95 {
        fill: #515151;
      }

      .cls-96 {
        fill: #696868;
      }

      .cls-97 {
        fill: #252424;
      }

      .cls-98 {
        fill: #747473;
      }

      .cls-99 {
        fill: #353333;
      }

      .cls-100 {
        fill: #808081;
      }

      .cls-101 {
        fill: #646464;
      }

      .cls-102 {
        fill: #343434;
      }

      .cls-103 {
        fill: #686968;
      }

      .cls-104 {
        fill: #535354;
      }

      .cls-105 {
        fill: #403e40;
      }

      .cls-106 {
        fill: #242424;
      }

      .cls-107 {
        fill: #2e2d2e;
      }

      .cls-108 {
        fill: #585856;
      }

      .cls-109 {
        fill: #363536;
      }

      .cls-110 {
        fill: #706f6f;
      }

      .cls-111 {
        fill: #6d6d6e;
      }

      .cls-112 {
        fill: #565656;
      }

      .cls-113 {
        fill: #666667;
      }

      .cls-114 {
        fill: #5d5d5e;
      }

      .cls-115 {
        fill: #777677;
      }

      .cls-116 {
        fill: #080808;
      }

      .cls-117 {
        fill: #818181;
      }

      .cls-118 {
        fill: #3d3d3c;
      }

      .cls-119 {
        fill: #7e7e7e;
      }

      .cls-120 {
        fill: #7f7e7f;
      }

      .cls-121 {
        fill: #727273;
      }

      .cls-122 {
        fill: #292828;
      }

      .cls-123 {
        fill: #504f4f;
      }

      .cls-124 {
        fill: #4a4949;
      }

      .cls-125 {
        fill: #676665;
      }

      .cls-126 {
        fill: #676667;
      }

      .cls-127 {
        fill: #6b6a6b;
      }

      .cls-128 {
        fill: #4a4a4a;
      }

      .cls-129 {
        fill: #232322;
      }

      .cls-130 {
        fill: #747474;
      }

      .cls-131 {
        fill: #4e4d4d;
      }

      .cls-132 {
        fill: #616062;
      }

      .cls-133 {
        fill: #4b4b4a;
      }

      .cls-134 {
        fill: #646465;
      }

      .cls-135 {
        fill: #6d6c6c;
      }

      .cls-136 {
        fill: #717070;
      }

      .cls-137 {
        fill: #5a595a;
      }

      .cls-138 {
        fill: #2a2a2a;
      }

      .cls-139 {
        fill: #5b5a5a;
      }

      .cls-140 {
        fill: #626262;
      }

      .cls-141 {
        fill: #666566;
      }

      .cls-142 {
        fill: #454446;
      }

      .cls-143 {
        fill: #585859;
      }

      .cls-144 {
        fill: #5b5a59;
      }

      .cls-145 {
        fill: #646364;
      }

      .cls-146 {
        fill: #202021;
      }

      .cls-147 {
        fill: #5b5a5b;
      }

      .cls-148 {
        fill: #252525;
      }

      .cls-149 {
        fill: #525050;
      }

      .cls-150 {
        fill: #383738;
      }

      .cls-151 {
        fill: #9a9a9b;
      }

      .cls-152 {
        fill: #494949;
      }

      .cls-153 {
        fill: #939293;
      }

      .cls-154 {
        fill: #515252;
      }

      .cls-155 {
        fill: #5f5d5d;
      }

      .cls-156 {
        fill: #595859;
      }

      .cls-157 {
        fill: #6e6e6e;
      }

      .cls-158 {
        fill: #484847;
      }

      .cls-159 {
        fill: #323132;
      }

      .cls-160 {
        fill: #787878;
      }

      .cls-161 {
        fill: #2b2a2a;
      }

      .cls-162 {
        fill: #535353;
      }

      .cls-163 {
        fill: #545353;
      }

      .cls-164 {
        fill: #777778;
      }

      .cls-165 {
        fill: #484848;
      }

      .cls-166 {
        fill: #323131;
      }

      .cls-167 {
        fill: #888;
      }

      .cls-168 {
        fill: #646362;
      }

      .cls-169 {
        fill: #0f0f0f;
      }

      .cls-170 {
        fill: #5e5d5c;
      }

      .cls-171 {
        fill: #262627;
      }

      .cls-172 {
        fill: #222;
      }

      .cls-173 {
        fill: #2c2b2b;
      }

      .cls-174 {
        fill: #333334;
      }

      .cls-175 {
        fill: #5e5d5e;
      }

      .cls-176 {
        fill: #0e0e0f;
      }

      .cls-177 {
        fill: #6b6b6c;
      }
    </style>
  </defs>
  <g id="Layer_1-2" data-name="Layer 1">
    <path class="cls-30" d="M61.37,155.95s-93.63,36.91,17.01,68"/>
    <path class="cls-93" d="M128.98,67.6s59.36-39.87,143.01,3.16c0,0,96.44,106.26-18.67,182.29,0,0-119.54,65.98-182.34-74.3,0,0-8.8-80.6,57.99-111.15Z"/>
    <path class="cls-22" d="M303.89,181.96c-1.1-.09-.3-2.96-.53-4.02l-.99,3.5-1-.51c-6.54,38.72-40.39,71.15-76.77,82.73-48.67,15.49-118.18-5.19-143.23-51.73-2.9-.7-6.88,1.79-9,2,1.32,3.8,3.81,6.74,6,10,.65.97,1.33,2.08,2,3,59.04,81.83,208.53,63.57,228-43-1.76-5.03-1.52-1.74-4.48-1.98Z"/>
    <path class="cls-93" d="M55.18,105.14c-.94-.68-3.12.66-2.8-1.19,3.17-.18,3.33-5.28,6.99-5.01l-1.99-1.01c-.4-1.66,1.9-.6,2.99-1.99-2.22.12-6.05.61-5.95-2.51.08-2.55,10.02-2.06,6.95-5.49-1.68.66-5.31,2.07-7.01,1.49,2.09-4.97,5.1-9.43,7.01-14.49-.56-1.53-.92-6.63-2.51-6.99-2.06-.47-2.91,4.21-5.49,1.99-.37.54-1.47.85-2.2,2.25-1.9,3.63-2.33,8.6-5.3,11.73-1.61-.02-7.45-23.58-15.82-18.05-6.84,4.51,8.3,23.19,7.31,24.07-6.38-.11-11.78-2.5-18.24-1.73-4.1.49-10.62,1.97-9.81,7.21,1.14,7.3,22.45,3.5,28.05,3.54-4.29,5.44-19.3,16.15-14.08,24.32,4.9,7.67,17.68-13.72,21.07-16.33-1.38,4.67,1.38,26.7,9.4,20.93,5.41-3.9,1.2-14.62-.02-19.81-.68-2.89-.55-2.41,1.63-1.12-.11-.1.38-1.39-.19-1.8Z"/>
    <path class="cls-146" d="M19.37,189.94c-.89,4.69-1.48.06,0-4,6.14-16.88,26.23-24.7,41.99-30-.33,1.86.5,10.41-.04,10.95-.17.17-3.42.33-4.74.75-3.56,1.13-6.97,2.46-10.22,4.29.32,1.07,1.02,1.65,1.96,1.88.35.03.7.07,1.04.12,1.61-.81,11.27-4.73,11.99-4.01.43,1.57.91,12.02,2.01,12.01.07,0-.14-1.17.99-1-.1,1.56.67,4.14-.99,5,.25,5.54,2.44,9.89,4,15,4.83.31,4.69-1.57,8-3-5.74-18.32-6.39-40.32-2.51-59.01,1.04-5.01,4.03-11.6,4.51-15.99.06-.59-.72-7.72-1.01-8-2.28-2.12-2.84,6.2-4.99,1-4.74,11.79-8.78,24.24-9.43,37.07-15.49,2.9-44.01,13.55-46.48,31.52-1.34,9.76.6,15.25,6.91,22.41l1-7c-1.57-2.49-3.45-7.18-4-10Z"/>
    <path class="cls-146" d="M301.37,180.94l.73-.76c.05-5.63,6.96-.61,6.27,3.76.49-2.71,5.03-34.09,1-34-.07,0,.14,1.17-.99,1,.17-1.83-.82-4.81.99-6-3.67-32.7-24.61-63.72-52-81l-4,4c35.37,22.67,54.95,71.84,48,113Z"/>
    <path class="cls-146" d="M302.11,180.18l-.73.76,1,.51.99-3.5c.23,1.06-.57,3.93.53,4.02,2.97.24,2.72-3.05,4.48,1.98.69-4.37-6.22-9.4-6.27-3.76Z"/>
    <path class="cls-93" d="M339.42,32.39c-2.22-2.5-11.77-3.41-15.73-5.27-4.47-2.1-10.69-10.17-13.23-10.74-1.14-.26-2.76.44-3.1,1.56,1.67,5.73,1.68,14.19,0,20,.26,1.37,1.94,2.7,2,3,4.23.59.64-6.45,2.49-7.99,6.84,4.31,14.24,9.35,22.46,10.03,0,1.95.23,4.02.04,5.96l2,1c1.59-5.16,7.58-12.45,3.05-17.55Z"/>
    <path class="cls-93" d="M105.74,5.08c-2.2-.69-5.67.94-7.37-1.13-4.08.28-24.23,4.05-26.1,6.42-.72.91-1.07,1.78-.87,2.95l3.97,19.63c0-1.66-.87-6.44.99-6.99v11.99s2.01,10,2.01,10c.53-.76.7-1.13,1-2-1.3-5.63-2.27-12.68-1.91-18.41.05-.78.88-1.35.91-1.59.29-1.94-.82-5.16.98-6.53,3.51-.42,23.64-6.75,25-5.45l2.03,9.97c0-3.88,2.94-17.74-.63-18.87Z"/>
    <path class="cls-106" d="M73.17,114.24c6.67-4.48,5.82,4.47,4.2,8.7,3.9-7.5,7.27-15.36,12.19-22.31,4.92-6.96,15.23-18.47,21.81-23.69-2.07-.77-2.16-3.23-3-5-13.45,10.14-26.46,24.06-35,38-.13.2-1.81,3.58-2,4-.04.09.63.42,0,2,1.39.56,1.99-.01,1.8-1.7Z"/>
    <path class="cls-106" d="M76.36,114.94c.3.27,1.08,7.41,1.01,8,1.62-4.24,2.47-13.18-4.2-8.7.19,1.69-.41,2.26-1.8,1.7,2.15,5.2,2.71-3.11,4.99-1Z"/>
    <path class="cls-57" d="M111.37,76.94c15.16-12.01,40.86-22.42,60-25l-3.98-2.5c-.04-.98,6.34-2.24,7.98-2.5v-1c-.33.02-.67-.02-1,0-.64.05-3.38.78-5,1-21.58,2.93-41.19,9.99-58.97,22.58-1.09.77-1.58,2.08-2.03,2.42,2.8-.41,3.65,2.76,3,5ZM161.37,49.95c-.31,2-3.11-.06-.99,2.98l-6,1c-.23-4.52,2.97-3.02,6.99-3.98Z"/>
    <path class="cls-57" d="M111.37,76.94c.65-2.24-.2-5.41-3-5,.84,1.77.93,4.23,3,5Z"/>
    <path class="cls-93" d="M94.81,43.89c-3.62,11.2,16.88,11.26,18.52.48,1.22-8.03-4.81-22.82-4.95-32.43-.03-2.33.02-4.67,0-7-.14-.18-.93-.98-1-1-1.59-.35-5.08-.05-7,0-.66.02-1.34-.05-2,0,2.6.49,5.27.68,8.01.57,1.85,1.35,2.07,15.12,1.85,18.38-.04.57-1.09.88-1.86,1.06,0,4.17,1.81,8.56.99,13-4.13-2.14-11.29,3.04-12.56,6.95Z"/>
    <path class="cls-93" d="M108.23,22.88c.22-3.26,0-17.03-1.85-18.38-2.74.11-5.41-.08-8.01-.57,1.7,2.08,5.16.44,7.37,1.13,3.58,1.13.64,14.99.63,18.87.77-.18,1.82-.49,1.86-1.06Z"/>
    <path class="cls-148" d="M175.69,46.91c-.1,0-.21.02-.32.03.37,1.73-.78,2.65-3.46,2.75l-.54,2.25c15.35-2.07,33.93-1.7,49,2l6.99-2.01v-1.99c-16.09-4.64-32.77-6.36-49.56-5.05-.94.07-2.33-.19-2.43,1.05l6.01.5c0,.97-4.09.4-5.69.47Z"/>
    <path class="cls-148" d="M175.37,46.94c-1.64.26-8.02,1.52-7.98,2.5l3.98,2.5.54-2.25c2.68-.1,3.84-1.02,3.46-2.75Z"/>
    <path class="cls-93" d="M304.37,47.94c-5.37,1.02-14.05-4.07-17.25,3.25-4.43,10.14,11.93,16.48,18.25,7.75l-.76-.59c1.4-3.67-.48-6.71-.24-10.41Z"/>
    <path class="cls-93" d="M333.37,58.94c-.64,3.67-2.19,7.36-3.01,11-4.81-3.01-9.59-5.68-11.99,1,1.61.95,1.64,4.99,0,6,3.85,9.96,18.41,5.54,19-3.99h-5c3.35-4.26,1.38-9.32,2-14.01h-1Z"/>
    <path class="cls-93" d="M75.72,38.64c-.17-.28-.24-.67-.35-.7-15.42-4.09-21.48,15.42-6.5,15.08,4.63-.1,6.95-1.38,9.5-5.08-2.94.49-4.26-6.71-2.65-9.3Z"/>
    <path class="cls-93" d="M75.88,38.84c-.06-.05-.11-.12-.16-.2-1.61,2.59-.29,9.79,2.65,9.3l-2-10-.49.9Z"/>
    <path class="cls-93" d="M73.37,109.94c-1.49-4.88-9.3-10.66-14-11-1.61,2.59-2.49,5.09-2.63,7.51l-1.37.49c4.22,3.63,10.23,7.49,16,7-2.56-1.47-.74-4.79,2-4Z"/>
    <path class="cls-93" d="M59.37,98.94c-3.66-.27-3.82,4.83-6.99,5.01-.32,1.85,1.86.51,2.8,1.19.57.41.08,1.71.19,1.8l1.37-.49c.14-2.42,1.02-4.92,2.63-7.51Z"/>
    <path class="cls-51" d="M71.37,113.94c.19-.42,1.87-3.8,2-4-2.74-.79-4.56,2.53-2,4Z"/>
    <path class="cls-93" d="M337.01,207.81c-2.27-1.29-4.45-6.26-6.12-5.86-2.43,1.7-2.15,7.22-3.74,8.77-2.17,2.11-20.53,3.25-2.77,8.23-.02-1.09,1-.93,1-1,0-.6-1.4-1.71-1-1.99h4c1.48-2.18,3.19-4.19,3.01-7.01,3.42.25,5.2,3.81,8.99,3.01l-3,3.02c2.52,5.89,10.27-2.21,7.97-4.99-.28-.33-6.25-.98-8.34-2.17Z"/>
    <path class="cls-27" d="M220.37,53.94c7.26,1.78,17.37,5.59,24,9,2.85-.28,4.35-1.15,5-4-7.6-4.1-13.72-6.61-22-9,5.22,4.38-3.28,4.44-7,4Z"/>
    <path class="cls-27" d="M220.37,53.94c3.72.44,12.22.38,7-4v1.99s-7,2.01-7,2.01Z"/>
    <path class="cls-93" d="M56.6,93.89c1.97-.19,3.23.5,3.77,2.05,4.27-.23,19.41-3.08,14.09-9.6-3.48-4.27-9.89.34-13.09,1.6,6.2.89-.77,5.5-4.77,5.95Z"/>
    <path class="cls-93" d="M54.42,93.43c-.1,3.12,3.73,2.63,5.95,2.51-.54-1.55-1.8-2.23-3.77-2.05,4-.45,10.97-5.06,4.77-5.95,3.07,3.43-6.87,2.94-6.95,5.49Z"/>
    <path class="cls-93" d="M309.49,227.56c-3.24,5.52-4.2,9.57-9.09,14.91-5.11,5.58-10.67,8.01-16.03,12.47l1,1c9.86-4.63,23.4-13.88,26.54-24.96.93-3.3-.42-6.84-2.42-3.42Z"/>
    <path class="cls-49" d="M285.37,255.94c-.11.05-.3.2-.53.4.16-.1.34-.23.53-.4Z"/>
    <path class="cls-138" d="M39.37,214.94c-.14-.05-1.31,1.26-2.93.52-2.11-.96-4.36-5-7.46-4.47l-.61.95c13.95,10.87,20.45,10.69,37,13v-1c-10.18-1.81-17.13-6.02-26-9Z"/>
    <path class="cls-171" d="M254.34,19.34c-1.6.17-6.64,9.05-6.55,9.64.21,1.38,3.83,6.64,5.23,6.88,2.99.5,3.87-4.91,4.64-5.64,1.18-1.12,4.3.19,3.58-3.57-.33-1.73-5.24-7.7-6.9-7.31ZM250.6,28.45l3.27-4.5c6.26,3.51,1.04,10.55-3.27,4.5Z"/>
    <path class="cls-93" d="M307.37,37.94c-.32-1.65.09-4.13,0-6l-3,16c2.62,2.27,2.95,5.94,1,11,2.63-3.64,4.91-13.63,4-18-2.61,1.86-3.28-.94-2-3Z"/>
    <path class="cls-93" d="M309.37,40.94c-.06-.3-1.74-1.63-2-3-1.28,2.06-.61,4.86,2,3Z"/>
    <path class="cls-93" d="M304.37,47.94c-.24,3.7,1.64,6.75.24,10.41l.76.59c1.95-5.06,1.62-8.73-1-11Z"/>
    <path class="cls-9" d="M30.22,209.31c2.9,2.69,5.95,4.57,9.16,5.63-5.09-4.32-12.39-9.27-16-15,2.09,4,1.76,6.33-1,7,2.33,2.64,3.51,3.06,6,5-2.3-1.89-.76-3.14,1.84-2.63Z"/>
    <path class="cls-9" d="M23.37,199.94l-1,7c2.76-.67,3.09-3,1-7Z"/>
    <path class="cls-9" d="M36.44,215.46c1.62.74,2.79-.57,2.93-.52-3.2-1.06-6.26-2.94-9.16-5.63-2.6-.5-4.14.74-1.84,2.63l.61-.95c3.1-.53,5.35,3.51,7.46,4.47Z"/>
    <path class="cls-22" d="M334.37,114.94c-1.45-.1-3.46-2.86-3,1l1.76-.8c-1.45.51,1.04,1.95,1.24-.2Z"/>
    <path class="cls-138" d="M22.37,144.94c-1.58-.66-1.58-4.34,0-5-.27-.57.15-1.41-1-2-.57.62-1.66,1.29-2,2-.35.73.65,2.58-.51,3.01-2.7.99-2.8-.78-2.49-3.01-1.09-.06-2.51.31-3-1-7.01,5.55,5.29,12.86,9,6Z"/>
    <path class="cls-7" d="M153.37,24.94c-.67-.57-.74-1.8-1.5-2.01-1.15.26.31,2.53-1.49,2l-1.01-1.99c-.23.37-1.7.74-1.99,1.51-.87,2.34,1.68.97,2.72,1.69,1.12.78.81,4.86,3.74,4.84,3.34-.03,9.51-6.16,5.53-10.03-.67.24-1.36.83-2,1,2.87,3.08-1.59,5.06-4,3Z"/>
    <path class="cls-80" d="M244.37,62.94c1.97,1.01,7.36,3.95,9,5-2.39-1.8,1.63-5.69,4-4-2.82-1.78-4.88-3.32-8-5,3.35,3.46-1.01,5.9-5,4Z"/>
    <path class="cls-80" d="M253.37,67.94l4-4c-2.37-1.69-6.39,2.2-4,4Z"/>
    <path class="cls-80" d="M244.37,62.94c3.99,1.9,8.35-.54,5-4-.65,2.85-2.15,3.72-5,4Z"/>
    <path class="cls-93" d="M61.37,74.94c1.16-3.08,4.83-11.31-2.12-10.53-4.39.49-4.32,3.28-5.88,5.53,5.75-5.38,9.64-5.36,8,5Z"/>
    <path class="cls-93" d="M58.86,67.95c1.6.36,1.96,5.47,2.51,6.99,1.64-10.36-2.25-10.38-8-5,2.58,2.21,3.42-2.46,5.49-1.99Z"/>
    <path class="cls-107" d="M315.25,240.32c-.64,1.13-8.14,6.97-4.35,7.63,1.03.18,6.48-3.89,6.97-5.01.25-.58,1.81-8.65,1.5-8.99-2.09-2.25-3.71,5.64-4.12,6.37Z"/>
    <path class="cls-66" d="M63.39,238.5c-.76,2.68,6.26,6.51,7.49,6.41,1.31-.11,2.06-3.45,1.29-4.8-.69-1.2-7.58-5.28-8.78-1.61Z"/>
    <path class="cls-128" d="M347.98,176.03c-1.11.39-5.78,7.25-1.08,7.97,7.33,1.13,7.26-10.15,1.08-7.97ZM351.37,179.94h-2.99v-1.99h2.99v1.99Z"/>
    <path class="cls-93" d="M342.38,72.94l6.99-5-1-3c-6.99-2.36-5.49,2.88-5.99,8Z"/>
    <path class="cls-93" d="M80.46,41.47l-2.09-15.53c.15,6.67.49,13.33,1,20,.45-1.29,1.74-2.46,1.09-4.47Z"/>
    <path class="cls-93" d="M79.37,45.94c-.51-6.67-.85-13.33-1-20-.04.24-.87.81-.91,1.59-.36,5.73.62,12.78,1.91,18.41Z"/>
    <path class="cls-109" d="M149.37,22.94c3.16-1.74,4.48-2.12,4.3.19.65-1.27,2.23-.8,3.7-1.19-.62-1.88.44-1.86,2-1-4.46-4.34-7.45-2.05-10,2Z"/>
    <path class="cls-109" d="M157.37,21.94c.64-.17,1.33-.76,2-1-1.56-.86-2.62-.88-2,1Z"/>
    <path class="cls-109" d="M151.87,22.93c.76.21.83,1.44,1.5,2.01-.02-.84.1-1.41.3-1.81.18-2.31-1.14-1.92-4.3-.19l1.01,1.99c1.79.53.33-1.74,1.49-2Z"/>
    <path class="cls-23" d="M78.37,223.94c-3.03,1.9-9.37.65-13,0,.87.28.86.62,0,1,2.15.3,4.43,1.73,8,2,.66-1.58,4.34-1.58,5,0h2c-1.54-.53-3.48-1.75-2-3Z"/>
    <path class="cls-23" d="M80.37,226.94c-.67-.92-1.35-2.03-2-3-1.48,1.25.46,2.47,2,3Z"/>
    <path class="cls-23" d="M65.37,223.94v1c.86-.38.87-.72,0-1Z"/>
    <path class="cls-13" d="M290.23,12.8c1.87-1.18.55-6.27-2.23-5.8-4.2.72-2.19,8.59,2.23,5.8Z"/>
    <path class="cls-124" d="M211,23.01c-2.27.37-3.86,5.2-1.11,5.93,4.95,1.32,5.4-6.64,1.11-5.93Z"/>
    <path class="cls-37" d="M330.88,170.95c-1.66.51-1.68,3.51-1.51,4.98,6.6,1.65,6.06-6.37,1.51-4.98Z"/>
    <path class="cls-24" d="M311.36,93.94c-.14-.15-3.84-.13-3.99,0-1.48,1.42,4.45,6.86,4.99,6.99-.24-2.12-.12-2.24,2-2-1.08-.77-2.67-.99-2.82-1.17-.72-.83.16-3.46-.19-3.83Z"/>
    <path class="cls-93" d="M334.37,58.94c.38-2.89,1.13-6.18,2-9-1.11,2.29-1.77,1.96-2-1-.25,2.55-.69,8.23-1,10,.28-.87.62-.86,1,0Z"/>
    <path class="cls-93" d="M336.37,49.94l-2-1c.23,2.96.89,3.29,2,1Z"/>
    <path class="cls-93" d="M333.37,58.94h1c-.38-.86-.72-.87-1,0Z"/>
    <path class="cls-93" d="M307.37,17.94c-.57,1.9-.14,11.2,0,14,.23.73.33,1.53.36,2.39.39-5.46.06-10.94-.36-16.39Z"/>
    <path class="cls-93" d="M307.74,34.33c.04,1.1-.07,2.3-.36,3.61,1.68-5.81,1.67-14.27,0-20,.42,5.45.75,10.93.36,16.39Z"/>
    <path class="cls-93" d="M307.37,37.94c.17-1.2.28-2.4.36-3.61-.03-.86-.14-1.66-.36-2.39.09,1.87-.32,4.35,0,6Z"/>
    <path class="cls-93" d="M307.74,34.33c-.09,1.2-.2,2.41-.36,3.61.29-1.31.4-2.51.36-3.61Z"/>
    <path class="cls-71" d="M40.38,46.43c.77,2.85,6.96.63,4.93-2.42-.88-1.31-6-1.53-4.93,2.42Z"/>
    <path class="cls-8" d="M82.38,71.94c2.28,2.29,6.31-4.12,2.48-4.99-2.45-.55-3.13,4.34-2.48,4.99Z"/>
    <path class="cls-4" d="M16.37,139.94c1,.05,2-.03,3,0-1.58-1.79.02-2.07,2-2-2.44-1.24-5.83-.72-8,1,1.67-.4,2.67-.07,3,1Z"/>
    <path class="cls-4" d="M19.37,139.94c.34-.71,1.43-1.38,2-2-1.98-.07-3.58.21-2,2Z"/>
    <path class="cls-4" d="M16.37,139.94c-.33-1.07-1.33-1.4-3-1,.49,1.31,1.91.94,3,1Z"/>
    <path class="cls-93" d="M75.37,32.94v5h1c-.53-6.75-.87-8.42-1-5Z"/>
    <path class="cls-93" d="M76.37,37.94v-11.99c-1.87.55-1,5.34-1,6.99.13-3.42.47-1.75,1,5Z"/>
    <path class="cls-93" d="M76.37,37.94h-1c.11.03.18.42.35.7.18-.29.39-.54.65-.7Z"/>
    <path class="cls-93" d="M75.72,38.64c.05.08.09.15.16.2l.49-.9c-.26.16-.47.41-.65.7Z"/>
    <path class="cls-88" d="M16.37,60.95c-2-2-6.71,3.21,0,3.99-.14-.97.25-3.74,0-3.99Z"/>
    <path class="cls-64" d="M356.86,87.95h-1.48s0,3.99,0,3.99h2.99c.23-1.84.06-2.94-1.51-3.99Z"/>
    <path class="cls-50" d="M23.49,142.45c-.02-1.54-.75-1.75-1.11-2.51v5c.42-.78,1.13-.86,1.11-2.49Z"/>
    <path class="cls-50" d="M22.37,144.94v-5c-1.58.66-1.58,4.34,0,5Z"/>
    <path class="cls-93" d="M317.41,74.37c.05,1.12.63,1.73.96,2.57v-6c-.44,1.22-1.03,1.81-.96,3.43Z"/>
    <path class="cls-93" d="M318.37,70.94v6c1.64-1.01,1.61-5.05,0-6Z"/>
    <path class="cls-62" d="M44.37,140.95c-1.59-1.59-4.58,1.4-2.99,2.99,1.59,1.59,4.58-1.4,2.99-2.99Z"/>
    <path class="cls-114" d="M.38,121.94c.67.62,3.96-.47,3.98-1.49.03-2.98-5.88-.28-3.98,1.49Z"/>
    <path class="cls-17" d="M131.38,8.94c.97,1.05,4.57-1.88,1.48-2.99-2.11-.76-1.82,2.62-1.48,2.99Z"/>
    <path class="cls-93" d="M108.37,11.94c1.82-1.63,1.49-5.19,0-7,.77,2.3.89,4.72,0,7Z"/>
    <path class="cls-93" d="M108.37,11.94c.89-2.28.77-4.7,0-7,.02,2.33-.03,4.67,0,7Z"/>
    <path class="cls-116" d="M309.37,149.94c-.13-1.64.18-3.37,0-5-.41,1.01-1.28,6.05,0,5Z"/>
    <path class="cls-116" d="M308.38,150.94c1.13.17.92-1,.99-1-1.28,1.05-.41-3.99,0-5-1.81,1.19-.82,4.17-.99,6Z"/>
    <path class="cls-93" d="M349.37,67.94c3.1-3.36.67-2.43-1-3,1.63.6,1.79,1.49,1,3Z"/>
    <path class="cls-93" d="M348.37,64.94l1,3c.79-1.51.63-2.4-1-3Z"/>
    <rect class="cls-20" x="317.38" y="97.95" width="2.99" height="1.99"/>
    <path class="cls-2" d="M73.37,226.94c1.64.13,3.35,0,5,0-1.58-.78-3.41-.74-5,0Z"/>
    <path class="cls-2" d="M73.37,226.94c1.59-.74,3.42-.78,5,0-.66-1.58-4.34-1.58-5,0Z"/>
    <path class="cls-93" d="M341.37,222.94v-5c-1.14-.16-.86.79-1,1l.97,3.87s.03.09.03.13Z"/>
    <path class="cls-93" d="M341.34,222.81l-.97-3.87c-.74,1.47.72,3.16.97,3.87Z"/>
    <path class="cls-148" d="M169.37,46.94c1.55-.73,3.22-1.06,5-1-1.6.06-4.15-.62-5,1Z"/>
    <path class="cls-148" d="M169.37,46.94c1.62-.22,4.36-.95,5-1-1.78-.06-3.45.27-5,1Z"/>
    <path class="cls-123" d="M284.37,254.94c-1.1.92-2.5.93-1.99,3,.28.36,1.63-.92,2.46-1.6-.98.61-1.27.04-.47-1.4Z"/>
    <path class="cls-123" d="M284.84,256.34c.23-.19.42-.34.53-.4l-1-1c-.8,1.43-.51,2.01.47,1.4Z"/>
    <path class="cls-122" d="M312.37,100.94c1.23.31,1.74-.14,2.51-1,1.1-1.02-.23-.8-.51-1-.41.81-1.08,1.47-2,2Z"/>
    <path class="cls-122" d="M312.37,100.94c.92-.53,1.59-1.19,2-2-2.12-.24-2.24-.12-2,2Z"/>
    <path class="cls-39" d="M4.38,161.94v2.99s1.98,0,1.98,0c.31-1.38-.54-2.66-1.98-2.99Z"/>
    <path class="cls-138" d="M78.69,210.22c-2.23-2.4-4.02-6.77-3.96-9.86-1.65,2.42-5.91,3.62-7.36.58.5,1.62,3.41,10.44,2.99,11-2.48-1.4-5.34-1.36-7.99-2l-3,1c3.63.26,7.21.91,10.73,1.93.92-1.63,1.56-.67,2.27,1.07.25-2.45,3.66-4.11,6.31-3.72Z"/>
    <path class="cls-138" d="M78.69,210.22c-2.66-.4-6.06,1.27-6.31,3.72,2.12-.21,6.1-2.7,9-2-.91-.15-1.83-.79-2.69-1.72Z"/>
    <path class="cls-138" d="M74.73,200.36c.02-.97.22-1.81.64-2.42-3.31,1.43-3.17,3.31-8,3,1.44,3.04,5.71,1.84,7.36-.58Z"/>
    <path class="cls-138" d="M74.73,200.36c-.06,3.09,1.72,7.46,3.96,9.86,1.13.17,2.13.7,2.69,1.72-1.7-3.16-4.95-10.64-6-14,.12.86-.15,1.69-.64,2.42Z"/>
    <path class="cls-138" d="M78.69,210.22c.86.92,1.78,1.57,2.69,1.72-.56-1.02-1.55-1.55-2.69-1.72Z"/>
    <path class="cls-138" d="M75.37,197.94c-.42.61-.62,1.45-.64,2.42.49-.72.76-1.55.64-2.42Z"/>
    <path class="cls-138" d="M70.1,212.87c-3.52-1.03-7.1-1.67-10.73-1.93,2.51,1.7,10,3.3,13,3-.71-1.74-1.35-2.7-2.27-1.07Z"/>
    <path class="cls-38" d="M44.57,175.13c-.72.31-1.53.31-2.2-.19l2,2c-.12-.76-.03-1.35.2-1.81Z"/>
    <path class="cls-38" d="M45.89,174.05c.7-.25,1.56-.29,2.44-.23-.94-.23-1.63-.81-1.96-1.88.17.76-.06,1.5-.48,2.1Z"/>
    <path class="cls-38" d="M44.57,175.13c.21-.41.53-.71.94-.92-.1-.42.15-1.14.87-2.27-2.13,1.2-2.47,1.83-4,3,.67.5,1.48.5,2.2.19Z"/>
    <path class="cls-38" d="M45.51,174.21c.12-.06.25-.12.39-.17.43-.6.65-1.35.48-2.1-.72,1.13-.96,1.85-.87,2.27Z"/>
    <path class="cls-38" d="M45.59,174.41c-.29.31-.64.56-1.02.72-.23.46-.31,1.04-.2,1.81.87-.64,4-2.5,5-3-1.88.69-3.38,1.05-3.78.47Z"/>
    <path class="cls-38" d="M45.89,174.05c-.09.13-.19.25-.3.37.4.58,1.9.22,3.78-.47-.37,0-.72-.04-1.04-.12-.88-.07-1.74-.02-2.44.23Z"/>
    <path class="cls-38" d="M45.59,174.41c-.04-.06-.07-.13-.08-.2-.41.21-.73.51-.94.92.38-.16.73-.41,1.02-.72Z"/>
    <path class="cls-38" d="M45.89,174.05c-.14.05-.26.1-.39.17.02.08.05.14.08.2.11-.11.21-.24.3-.37Z"/>
    <path class="cls-79" d="M19.08,187.25c-.2,1.22-.1,2.12.29,2.69-.37-.71-.46-1.61-.29-2.69Z"/>
    <path class="cls-79" d="M19.08,187.25c.06-.41.15-.84.29-1.31-1.48,4.06-.89,8.69,0,4-.4-.58-.49-1.48-.29-2.69Z"/>
    <path class="cls-79" d="M19.37,185.94c-.13.47-.23.91-.29,1.31-.17,1.08-.07,1.99.29,2.69-.23-1.16.16-2.74,0-4Z"/>
    <path class="cls-79" d="M19.37,185.94c-.14.46-.23.9-.29,1.31.07-.4.16-.84.29-1.31Z"/>
    <path class="cls-14" d="M63.37,181.94c.44.54.59,1.18.57,1.83.08-.79-.04-1.5-.57-1.83Z"/>
    <path class="cls-14" d="M63.95,183.77c-.02.74-.25,1.51-.57,2.17,1.66-.86.89-3.44.99-5-1.13-.17-.92,1-.99,1,.54.33.65,1.05.57,1.83Z"/>
    <path class="cls-14" d="M63.37,185.94c.24-.6.5-1.41.57-2.17.02-.65-.14-1.29-.57-1.83.04,1.33-.06,2.67,0,4Z"/>
    <path class="cls-14" d="M63.95,183.77c-.08.75-.33,1.57-.57,2.17.32-.66.56-1.42.57-2.17Z"/>
    <path class="cls-148" d="M160.38,52.93c-2.12-3.04.68-.98.99-2.98-4.02.96-7.23-.54-6.99,3.98l6-1Z"/>
    <path class="cls-92" d="M175.37,46.94c.09-.01.2-.02.32-.03,2.4-.21,2.29-.54-.32-.97.87.28.86.62,0,1Z"/>
    <path class="cls-92" d="M175.37,45.94v1c.86-.38.87-.72,0-1Z"/>
    <path class="cls-92" d="M175.69,46.91c1.6-.07,5.69.5,5.69-.47l-6.01-.5c2.61.43,2.72.76.32.97Z"/>
    <path class="cls-47" d="M16.37,139.94c-.3,2.22-.21,3.99,2.49,3.01,1.16-.42.16-2.27.51-3.01-.6,2.23-2.42,2.27-3,0Z"/>
    <path class="cls-47" d="M16.37,139.94c1.02,1.05,1.92,1.04,3,0-1-.03-2,.05-3,0Z"/>
    <path class="cls-47" d="M16.37,139.94c.58,2.27,2.4,2.23,3,0-1.08,1.04-1.98,1.05-3,0Z"/>
    <path class="cls-40" d="M153.37,24.94c2.41,2.06,6.87.08,4-3-.61,1.55-1.94,2.55-4,3Z"/>
    <path class="cls-40" d="M157.37,21.94c-1.47.39-3.05-.08-3.7,1.19-.04.48-.14,1.08-.3,1.81,1.97-.51,3.3-1.51,4-3Z"/>
    <path class="cls-40" d="M153.37,24.94c2.06-.45,3.39-1.45,4-3-.7,1.49-2.03,2.49-4,3Z"/>
    <path class="cls-40" d="M153.68,23.13c-.21.4-.32.98-.3,1.81.17-.73.26-1.33.3-1.81Z"/>
    <rect class="cls-108" x="348.38" y="177.95" width="2.99" height="1.99"/>
    <path class="cls-172" d="M139.37,142.94c-.09,2.99.08,6.01-.01,8.99l-1.49-4.01-.5,5.01c1.13,5.63,2.62,9.32,6,14,2.51-.77-.79-3.52-.98-4.53-.08-.45,1.73-1,1.98-1.47.24-.47-.45-2.37.1-2.87.47-.42,11.57-2.21,12.38-2.13,3.01.29,4.53,5.89,12.51,7,1.24-1.37,2.72-1.38,4,0,6.32-1.12,9.4-3.55,12.2-9.3.88-1.8.96-5.38,2.03-6.48.34-.35,7.31-2.87,8.39-3.12,1.9-.44,1.22.02,1.38,1.38,2.04,17.27-10.84,30.72-28,30.52l-1,1c.11,0,1.19.78,2,1,1.37-2.1,4.3-.19,6.52-.01.16,0,.32,0,.48.01,8.95-2.23,13-3.88,19.03-11.47,4.06-5.11,4.01-6.48,4.97-12.53-1.71-2.54-1.66-8.66,0-11-1.14-9.35-4.48-16.55-12-23l-1,1c2.93,2.74,9.98,16.31,7.01,19.51-3.66,3.95-32.27,11.21-38.78,12.22-4.86.75-12.65,3.25-15.23-1.73-2.22-4.29-.97-10.49,0-15,1.41-6.57,4.15-12.29,10-16l-2-2c-5.04,3.9-10,9.87-12,16h3c-1.56,2.89-.9,5.94-1,9ZM198.37,151.45c-.1-2.16.06-4.35,0-6.51,1.75-.23.93,2.26.99,3.48.1,2.16-.06,4.35,0,6.51-1.75.23-.93-2.26-.99-3.48Z"/>
    <path class="cls-73" d="M261.37,157.94l-6-1c-11.06,3.8-22.76-1.03-29.44-10.06-1.06-1.43-4.55-6.28-2.6-7.47.43-.26,9.58-1.76,9.98-1.46,1.59,1.22.54,5.46,8.05,7.99h6c.08-.05.15-.09.23-.14l-5.22-.87,6-.99c-.7-3.49-.58-6.51-.59-9.96,0-2.1.45-.94,2.07-1.03l-2.49-1c-2.77.69-7.09,1.49-10,2-1.46.26-2.53.81-5,1-1.75.13-10.25.28-10.87-.13-.72-.48-1.11-5.59-2.13-6.87-.02.18-.96,1.01-1.06,2.42-.16,2.11,2.89,5.24-.93,4.58l-2-14c-3.29,26.18,19.41,51.08,46,37Z"/>
    <path class="cls-57" d="M213.37,193.94c1.86-1.68,7.14-1.68,9,0,1.81-.37,3.52-.32,5.32-1.22,1.12-.56,1.3-1.5,1.68-1.78-1.92-1.93,2.08-5.92,4-4,.67-.96,1.52-2.85,2-4l-1.25-.75-1.73,2.75c-.87-4.23-6.37-5.24-10.01-5.01l1.86-1.13c.03-.47-.89-.8-.86-.86-4.89.89-10.61,1.57-15.55,1.05-3.8-.4-12.95-5.37-9.92,2.9,2,5.47,9.88,10.76,15.47,12.04ZM216.37,179.95c-.88,2.27-6.01.43-7.99.98.88-2.27,6.01-.43,7.99-.98Z"/>
    <path class="cls-22" d="M266.4,125.47c-1.74,1.64-15.78,5.66-19.03,6.47l2.38.03c1.32,7.57.6,12.16-2.15,13.83l.77.13h-1c-1.47.78-3.46.79-6,.01,7.06,2.38,12.79-.63,16.17-7.32.91-1.8,1.45-5.71,2.06-6.44.29-.34,7.84-3.23,8.28-3.19,3.24.27.93,13.75-.33,16.64-1.82,4.2-7.97,9.86-12.19,11.31,3.87-1.46,5.87-1.13,6,1,15.31-8.1,14.86-28.4,7-42l-2,2c.71,1.89,1.55,6.09.03,7.53Z"/>
    <path class="cls-22" d="M247.37,145.93h-6c2.54.79,4.53.77,6,0Z"/>
    <path class="cls-22" d="M249.75,131.97l-2.38-.03,2.49,1c-1.62.09-2.07-1.07-2.07,1.03,0,3.46-.11,6.48.59,9.96l-6,.99,5.22.87c2.75-1.67,3.48-6.26,2.15-13.83Z"/>
    <path class="cls-22" d="M255.37,156.94l6,1c-.13-2.13-2.13-2.46-6-1Z"/>
    <path class="cls-22" d="M217.88,127.04l1.49.9c1.02-9.85-.15-16.74,9.66-22.84,13.19-8.2,31.92-1.51,37.34,12.84-.82-2.73-.15-3.4,2-2-13.46-23.28-49.15-25.59-53,5,2.23.33,3.07,2.37,2.51,6.1Z"/>
    <path class="cls-22" d="M218.31,130.36c.11-1.42,1.05-2.24,1.06-2.42l-1.49-.9c.56-3.73-.28-5.77-2.51-6.1l2,14c3.82.66.77-2.47.93-4.58Z"/>
    <path class="cls-22" d="M266.37,117.94l2-2c-2.15-1.4-2.82-.73-2,2Z"/>
    <path class="cls-159" d="M149.07,237.96c7.21,1.85,9.27-1.34,7.17-7.9-7.38,1.64-14.73-5.35-20.87-6.12-.32.62-1.96,1.7-2,2-.17,1.18,1.85,3.93,0,5.99,3.32.21,10.42,1.78,13.32,3.22,1.44.72,1.46,2.57,2.38,2.81Z"/>
    <path class="cls-148" d="M232.19,180.75c2.37-.42,3.9-.31,3.18,2.19,1.08-2.6,4.34-12.85.47-13.99-1.2-.36-12.15,8.29-12.47,8.99,2.54-.81,6.31.97,8.82,2.81Z"/>
    <path class="cls-148" d="M224.23,178.8l-1.86,1.13c3.65-.23,9.14.78,10.01,5.01l1.73-2.75,1.25.75c.71-2.5-.81-2.61-3.18-2.19-2.51-1.84-6.28-3.62-8.82-2.81-.03.06.89.39.86.86Z"/>
    <path class="cls-122" d="M169.37,175.94c-11.61-.13-18.51-6.25-25-15,2.08,5.24,1.75,7.24-1,6,4.66,6.45,10.16,10.24,18,12,1.68-1.36,4.92-2.06,7-2-.62-.48-.29-.81,1-1Z"/>
    <path class="cls-122" d="M168.37,176.94l1-1c-1.29.19-1.62.52-1,1Z"/>
    <path class="cls-122" d="M144.37,160.94c-.24.48-2.06,1.02-1.98,1.47.18,1.01,3.49,3.76.98,4.53,2.75,1.24,3.08-.76,1-6Z"/>
    <path class="cls-150" d="M275.37,205.95c-1.53-1.68-15.03,12.04-18.03,12.53.01,5.94,6.51,2.29,10.04,1.46,2.36-6.47,9.41-6.13,7.99-14Z"/>
    <path class="cls-58" d="M90.89,129.96c.63-.67,5.36-16.1,5.44-17.6.45-8.17-6.31,2.62-7.45,5.6-.78,2.03-3.12,11.88-1.49,12.99.79.54,2.64-.07,3.5-.98Z"/>
    <path class="cls-166" d="M148.96,190.91c2.89.38,4.67-.08,6.39-2.47-1.57-2.95-6.46-1.84-8.04-2.95-1.2-.85-.75-3.35-.96-3.55-.34-.33-2.23.93-3.3.71-1.27-.25-6-3.31-7.68-1.7-2.87,2.77,11.24,9.66,13.59,9.97Z"/>
    <path class="cls-26" d="M130.37,219.94c.89-.82-4.91-15.74-8.95-12.95-.31.21-2.81,6.66-2.62,6.98.89,1.46,9.57,7.82,11.57,5.98Z"/>
    <path class="cls-173" d="M156.09,77.17c2.05-.71,7.92-4.59,9.96-6.05,1.24-.89,2.77-1.05,2.32-3.17-2.96-.33-5.26.38-7.89,1.6-3.72,1.72-12.23,10.35-4.39,7.62Z"/>
    <path class="cls-85" d="M151.37,119.94c3.79-2.41,10.49-4.64,15-5-1.79-1.84-4.59-2.01-7-2-5.09,1.5-5.71,1.68-10,5,2.29-1.73,3.36-.43,2,2Z"/>
    <path class="cls-85" d="M149.37,117.94l2,2c1.36-2.43.29-3.73-2-2Z"/>
    <path class="cls-97" d="M164.36,112.44c2.14,1.03,5.13.38,7.53.5,2.45.12,3.27-.73,1.48,2,4.3.45,11.85,3.05,15,6-1.33-1.41-.77-1.92,1-1-4.06-3.49-10.65-7.26-16-8-1.33-.18-9.01-.25-9.01.5Z"/>
    <path class="cls-97" d="M188.37,120.94l1-1c-1.77-.92-2.33-.41-1,1Z"/>
    <path class="cls-95" d="M82.89,142.94c4.12-.55,3.82-8.34,1.32-9.79-4.41-2.55-5.11,7.6-1.32,9.79Z"/>
    <path class="cls-63" d="M181.37,73.95c-5.02-.6-9.74.97-13.99,3.49,1.63,3.89,16.66-1.28,13.99-3.49Z"/>
    <path class="cls-99" d="M252.37,82.93c-1.47-2.62-3.47-7.34-6.71-7.83-8.14-1.22,2.13,9.38,6.71,7.83Z"/>
    <path class="cls-46" d="M165.87,248.92c1.44-1.77,7.95-7.93,3.98-8.98-.63-.15-1.21,0-1.81.15-3.22.85-6.88,6.74-2.17,8.83Z"/>
    <path class="cls-162" d="M91.37,187.94l-1.71-1.42-.28.42-1.01-1.5,1.29,1.08,1.71-2.58c-1.23-1.92-4.94-3.04-6-2-1.87,1.83,1.8,14.49,6,6Z"/>
    <path class="cls-159" d="M281.87,165.92c1.31-.05,5.87-6.36,6.5-7.98l-3-2c-.51,1.08-7.66,10.13-3.5,9.98Z"/>
    <path class="cls-174" d="M172.38,68.94c4.47.02,8.64.41,12.99-.99l-1-2c-1.02-.04-15.91-.17-11.99,2.99Z"/>
    <path class="cls-45" d="M110.87,230.96c-4.92,3.59-1.67,7.62,3.49,6.98.61-3.33-1.15-5.04-3.49-6.98Z"/>
    <path class="cls-12" d="M81.43,170.39c-.03-.43-1.98-4.17-2.19-4.29-4.08-2.3-6.4,7.06-.49,6.87.19,0,2.7-2.39,2.69-2.58Z"/>
    <path class="cls-125" d="M91.37,207.94c2.35-5.93-6.89-6.87-7.99-3.99,2.67-.47,2.04.63,2,3,1.93.62,3.94,1.12,5.99.99Z"/>
    <path class="cls-139" d="M127.06,243.06c-5.19,1.39-1.18,6.85,2.75,5.86,2.92-.73.68-6.78-2.75-5.86Z"/>
    <path class="cls-25" d="M213.97,243.9c-1.51-6.47-7.64.56-6.59,2.02,1.9,2.62,7.27.92,6.59-2.02Z"/>
    <path class="cls-85" d="M136.37,147.94c.11-1.52,1.25-6.34,3-5l-1.32-.94c.78-3.1.55-5.78-.68-8.06-.17.51.14,1.39,0,2-.06,1.6.62,4.15-1,5-.11,2.32.07,4.67,0,7Z"/>
    <path class="cls-85" d="M138.05,142l1.32.94c.09-3.06-.56-6.11,1-8.99h-3c1.23,2.26,1.45,4.95.68,8.05Z"/>
    <path class="cls-89" d="M83.37,182.94c.4-3.16,1.84-9.32-2.99-8,.93,2.09-.89,10.12.99,11v-4s2,1,2,1Z"/>
    <path class="cls-152" d="M91.37,198.94c-1.58-.66-1.58-4.34,0-5-1-1.3-2-1.39-3.41-.93-3.96,1.32-.09,9.53,3.41,5.93Z"/>
    <path class="cls-163" d="M158.98,248.03c-3.88,1.2-.49,7.18,3.43,4.44,2.61-1.83.29-5.58-3.43-4.44Z"/>
    <path class="cls-44" d="M279.37,160.95c-.89-1.12-5.59,4.69-6.52,4.98-1.1,6.9,8.61-2.33,6.52-4.98Z"/>
    <path class="cls-140" d="M87.37,169.95v-6s-4.96,1.05-4.96,1.05c.02,4,.72,5.75,4.96,4.95Z"/>
    <path class="cls-78" d="M153.37,251.94c3.05-3.04-5.17-7.8-5.99-3.48-.48,2.54,4.99,4.48,5.99,3.48Z"/>
    <path class="cls-112" d="M95.42,190.97c-1.22,1.11-.49,6.62,2.43,5.96.82-.18,2.7-3.56,2.53-4.47-.26-1.44-4.32-2.08-4.96-1.49Z"/>
    <path class="cls-104" d="M194.01,249.02c-5.27.89-.42,8.03,2.36,5.92,1.5-1.14.58-6.42-2.36-5.92Z"/>
    <path class="cls-133" d="M278.88,209.93c4.34,1.29,3.59-5.22,2.47-5.98-3.24-2.21-5.95,4.95-2.47,5.98Z"/>
    <path class="cls-86" d="M170.37,177.94c-1.13,1.36-2.61.86-2-1-1,1.49-3.34,2.16-7,2,5.85,1.31,6.52.78,12,0-.52-1.43-2.07-.75-3-1Z"/>
    <path class="cls-86" d="M170.37,177.94c-.81-.22-1.89-1-2-1-.61,1.86.87,2.36,2,1Z"/>
    <path class="cls-86" d="M168.37,176.94c-2.08-.06-5.32.64-7,2,3.66.16,6-.51,7-2Z"/>
    <path class="cls-28" d="M217.85,246.17c-2.09.17-3.71,4.99-.97,5.76,4.16,1.16,5.81-6.14.97-5.76Z"/>
    <path class="cls-23" d="M164.23,112.76c-.55-1.06,3.38-2.24,9.15-.82-4.03-2.69-9.73-.26-14,1,1.57-.36,3.43-.6,4.85-.18Z"/>
    <path class="cls-23" d="M173.37,114.94l-.94-1.03c-3.37.15-5.58-.05-6.87-.41.38.36.66.82.81,1.44,2.02-.16,5.02-.21,7,0Z"/>
    <path class="cls-23" d="M165.56,113.5c-.76-.21-1.19-.47-1.33-.74-1.43-.42-3.29-.19-4.85.18,2.41,0,5.21.16,7,2-.15-.62-.43-1.08-.81-1.44Z"/>
    <path class="cls-23" d="M164.23,112.76c.51.15.97.39,1.33.74,1.28.35,3.5.56,6.87.41l.94,1.03c1.79-2.73.96-1.88-1.48-2-2.4-.12-5.39.53-7.53-.5,0-.75,7.68-.68,9.01-.5-5.77-1.42-9.7-.24-9.15.82Z"/>
    <path class="cls-23" d="M165.56,113.5c-.37-.35-.82-.59-1.33-.74.14.27.57.53,1.33.74Z"/>
    <path class="cls-33" d="M123.91,236.83c-3.84-3.45-5.75,7.06,1.46,5.11.18-1.94.12-3.69-1.46-5.11Z"/>
    <path class="cls-149" d="M205.87,247.96c-1.46,0-4.08,5.16-.98,5.98,1.53.4,4.48-1.72,4.47-2.5,0-.25-3.24-3.48-3.48-3.48Z"/>
    <path class="cls-168" d="M139.84,244.94c-3.21-.74-3.54,4.54-1.34,5.85,4.24,2.52,4.53-5.11,1.34-5.85Z"/>
    <path class="cls-48" d="M164.89,253.94c-2.09.52-1.09,4.48-.41,4.9,5.3,3.28,6.32-6.36.41-4.9Z"/>
    <path class="cls-36" d="M213.39,237.44l4.97,2.5c1.94-5.69-1.49-7.66-4.97-2.5Z"/>
    <path class="cls-144" d="M182.86,254.94c3.76-.82,2.02-6.63-.97-5.99-2.43.52-1.99,6.64.97,5.99Z"/>
    <path class="cls-156" d="M96.89,200.95c-4.75.95-1.48,8.12,1.48,6,.81-.58,1.85-6.66-1.48-6Z"/>
    <path class="cls-82" d="M104.86,216.95c-4.7-1.41-2.96,4.9-1.47,5.98,2.35,1.71,4.71-5.01,1.47-5.98Z"/>
    <path class="cls-28" d="M153.88,252.95c-2.01.56-2.01,4.42,0,4.98,4.6,1.29,4.6-6.27,0-4.98Z"/>
    <path class="cls-32" d="M204.89,235.94l-2.43,3.36,3.91,2.63c.62-2.48,2.33-5.42-1.48-5.99Z"/>
    <path class="cls-75" d="M79.38,187.95c-.71,1.71.75,6.99,2.49,6.98,2.75-.03,1.53-7.86-2.49-6.98Z"/>
    <path class="cls-76" d="M201.37,153.94c.89-5.64.67-5.5,0-11-.55,3.63-.44,7.36,0,11Z"/>
    <path class="cls-76" d="M201.37,153.94c-.44-3.64-.55-7.37,0-11-1.66,2.34-1.71,8.46,0,11Z"/>
    <path class="cls-81" d="M144.01,251.03c-4.02.73-1.73,5.84,1.84,4.91,3.03-.79.39-5.32-1.84-4.91Z"/>
    <path class="cls-143" d="M198.89,242.95c-1.28,1.04-1.85,1.55-1.36,3.32,1.56,5.62,8.63-1.16,1.36-3.32Z"/>
    <path class="cls-158" d="M189.01,255.02c-1.97.34-3.84,4.21-1.12,4.91,4.62,1.2,5.17-5.61,1.12-4.91Z"/>
    <path class="cls-141" d="M85.38,172.95l1.01,4.99c3.91,1.34,4.81-3.64,2.82-4.84-.9-.54-2.67,0-3.83-.15Z"/>
    <path class="cls-140" d="M109.2,225.1c-.9-.54-2.66-.01-3.82-.15l2.51,4.99c2.88.58,2.6-4.06,1.32-4.84Z"/>
    <path class="cls-6" d="M225.29,241.58c-.5-1.09-2.86-3.46-3.91-2.63-2.68,2.11,1.76,9.74,3.91,2.63Z"/>
    <path class="cls-134" d="M116.88,229.95c-3.36.85,1.39,6.85,3.48,4.99.67-.6.23-5.93-3.48-4.99Z"/>
    <path class="cls-54" d="M239.37,239.94v3.99c3.28.37,5.6-.21,5-3.99h-5Z"/>
    <path class="cls-77" d="M97.37,219.94c-5.54-3.74-8.02-.42-4,2,1.74.17,3.48-.16,4-2Z"/>
    <path class="cls-77" d="M78.37,163.94c1.49-1.47-.68-8.02-3.99-5-.71,2.16,1.86,7.12,3.99,5Z"/>
    <path class="cls-155" d="M176.86,254.95c-3.04-.67-2.29,4.42-1.48,4.99,3.13,2.19,5.71-4.05,1.48-4.99Z"/>
    <path class="cls-61" d="M127.38,236.93c.57.81,5.66,1.56,4.99-1.48-.94-4.24-7.18-1.65-4.99,1.48Z"/>
    <path class="cls-127" d="M226.37,246.93c1.47.3,6.67.24,5.99-2.48-.91-3.64-6.12-.18-5.99,2.48Z"/>
    <path class="cls-35" d="M252.35,86.44l-5.97-2.49c-.79,4.15,3.41,5.59,5.97,2.49Z"/>
    <path class="cls-53" d="M81.37,150.46c-.74-3.53-7.12-.35-4.99,2.48,1.13,1.5,5.5-.04,4.99-2.48Z"/>
    <path class="cls-130" d="M180.36,245.44c-.71-1.8-3.94-2.8-4.96-1.47-2.08,2.71,1.95,7.38,4.96,1.47Z"/>
    <path class="cls-169" d="M218.94,195.05c2.01-.08,2.67-.95,3.43-1.11h-9c1.97.45,3.03,1.21,5.57,1.11Z"/>
    <path class="cls-169" d="M213.37,193.94h9c-1.86-1.68-7.14-1.68-9,0Z"/>
    <path class="cls-145" d="M174.37,252.43c.55-2.45-4.34-3.13-4.99-2.48-2.29,2.28,4.12,6.31,4.99,2.48Z"/>
    <path class="cls-70" d="M102.26,227.04c-1.22-.93-5.02-.64-3.88,2.39,1.46,3.87,7.01-.02,3.88-2.39Z"/>
    <path class="cls-68" d="M163.37,186.95c-2.67-.16-6.23-.51-5.99,2.99,2.67.16,6.23.51,5.99-2.99Z"/>
    <path class="cls-96" d="M212.89,252.95c-2.45.55-1.74,5.6.97,4.99,2.45-.55,1.74-5.6-.97-4.99Z"/>
    <path class="cls-147" d="M132.38,239.95c-.21.19.83,3.87,1,3.99,3.1,2.11,7.08-5.09-1-3.99Z"/>
    <path class="cls-55" d="M169.38,262.43c.51,2.35,7.33,2.42,4.9-1.38-.72-1.12-5.53-1.54-4.9,1.38Z"/>
    <polygon class="cls-135" points="198.38 258.94 203.35 256.44 200.87 253.96 198.38 258.94"/>
    <path class="cls-11" d="M248.37,232.95c-1.11-1.15-5.88,1.82-4.99,3.99,2.75,1.28,6.77-2.15,4.99-3.99Z"/>
    <path class="cls-110" d="M171.89,234.95c-3.75,1.85,1.28,5.98,2.48,4.99,1.48-1.23-.02-5.42-2.48-4.99Z"/>
    <path class="cls-142" d="M282.37,194.94c1.46,2.08,1.77,3.46-1,3,.84,8.73,8.82-4.16,1-3Z"/>
    <path class="cls-56" d="M113.38,200.94c1.62,1.62,5.61-2.39,3.99-3.99-2.11-2.08-6.06,1.91-3.99,3.99Z"/>
    <path class="cls-143" d="M190.37,243.95c-2.11-2.08-6.06,1.91-3.99,3.99,1.62,1.62,5.61-2.39,3.99-3.99Z"/>
    <path class="cls-119" d="M231.38,239.43c1.18,2.92,6.64.27,4.99-1.47-.67-.7-6.59-2.49-4.99,1.47Z"/>
    <path class="cls-90" d="M145.76,241.01c-1-.19-2.2,1.19-3.39.94,4.45,8.06,6.84-.3,3.39-.94Z"/>
    <path class="cls-170" d="M118.37,243.94v-1.48c-5.06-6.39-7.31,2.87,0,1.48Z"/>
    <path class="cls-84" d="M114.37,215.95c-2.47-.61-4.49-2.04-4.99,1.47,2.6,2.9,4.1,1.94,4.99-1.47Z"/>
    <path class="cls-19" d="M108.37,198.95c-.58-.59-3.5.18-3.99,1.5-1.93,5.31,6.63,1.16,3.99-1.5Z"/>
    <path class="cls-160" d="M251.38,237.43c1.43,3.85,5.63-.84,3.98-2.48-.43-.43-5.27-.96-3.98,2.48Z"/>
    <path class="cls-98" d="M98.38,212.94h3.99c.35-.31-.93-3.79-1.1-3.89-2.89-1.78-3.43,1.29-2.89,3.89Z"/>
    <path class="cls-15" d="M223.38,251.45c-1.93,5.31,6.63,1.16,3.99-1.5-.58-.59-3.5.18-3.99,1.5Z"/>
    <path class="cls-147" d="M133.37,100.95c-.73-.73-4.45.37-3.99,2.48.81,3.7,5.92-.55,3.99-2.48Z"/>
    <path class="cls-131" d="M112.37,93.43c.6-2.66-3.42-2.28-3.99-1.49-1.96,2.71,3.09,5.52,3.99,1.49Z"/>
    <path class="cls-115" d="M158.38,258.95c-1.93,1.93,3.18,6.18,3.99,2.48.46-2.11-3.26-3.21-3.99-2.48Z"/>
    <path class="cls-165" d="M93.37,214.94c-1.56-2.24-1.32-2.84,1-4-3.95-3.83-5.97,4.98-1,4Z"/>
    <path class="cls-118" d="M140.37,177.94c.75-.72-1.69-3.81-2.51-3.99-3.76-.83-1.78,5.08,2.51,3.99Z"/>
    <path class="cls-137" d="M261.38,230.94c.73.73,4.45-.37,3.99-2.48-.81-3.7-5.92.55-3.99,2.48Z"/>
    <path class="cls-101" d="M132.89,249.95c-2.36.52-1.48,4.53.97,3.99,2.36-.52,1.48-4.53-.97-3.99Z"/>
    <path class="cls-177" d="M164.37,237.94c.98-.91-2.78-5.83-3.99-2.48-1.14,3.17,1.39,2.62,3.99,2.48Z"/>
    <path class="cls-41" d="M133.89,216.94c2.72.61,2.2-3.47,1.47-3.99-3.15-2.24-4.29,3.36-1.47,3.99Z"/>
    <path class="cls-123" d="M288.37,157.94c.47-1.21,1.65-2.08.99-4-5.19-.57-3.2.32-3.99,2,1.12-2.06,4.1-.45,3,2Z"/>
    <path class="cls-123" d="M285.37,155.94l3,2c1.1-2.45-1.88-4.06-3-2Z"/>
    <path class="cls-21" d="M166.37,233.45c2.63,1.89,2.5-1.94,3-2.51l-1-1c-.91.71-4.97.53-2,3.51Z"/>
    <rect class="cls-130" x="84.38" y="145.95" width="3.99" height="2.99"/>
    <path class="cls-74" d="M147.37,219.93c1.44-1.81-3.31-4.57-3.99-1.48-.57,2.62,3.32,2.32,3.99,1.48Z"/>
    <path class="cls-110" d="M129.89,209.93h1.48s0-3.99,0-3.99h-2.99c-.23,1.84-.06,2.94,1.51,3.99Z"/>
    <path class="cls-148" d="M229.37,190.94c1.94-1.44,2.59-1.97,4-4-2.24.74-3.29,1.73-4,4Z"/>
    <path class="cls-148" d="M229.37,190.94c.71-2.27,1.76-3.26,4-4-1.92-1.92-5.92,2.07-4,4Z"/>
    <path class="cls-3" d="M181.39,262.44c0,1.03,3.36,2.11,3.97,1.49,2.59-2.59-3.97-5.37-3.97-1.49Z"/>
    <path class="cls-107" d="M91.37,183.94v4c.83-1.69,1.12-2.25,0-4Z"/>
    <polygon class="cls-107" points="91.37 187.94 91.37 183.94 89.66 186.52 91.37 187.94"/>
    <polygon class="cls-107" points="89.38 186.94 89.66 186.52 88.37 185.44 89.38 186.94"/>
    <path class="cls-105" d="M84.37,160.94c0-.99.06-2.01,0-3-2.26,1.68-1.65.87-3-1-1.88,1.81.04,5.06,3,4Z"/>
    <path class="cls-117" d="M95.37,171.95h-2.99s0,3.99,0,3.99h1.48c1.57-1.06,1.74-2.15,1.51-3.99Z"/>
    <path class="cls-67" d="M182.87,233.95l-1.49,5.99c3.45.52,3.14-4.5,1.49-5.99Z"/>
    <path class="cls-77" d="M97.37,219.94c2.45,2.73-1.63,2.77-4,2,2.47,1.49,4.12,1.1,7,.99-.34-1.45-1.87-2.23-3-2.99Z"/>
    <path class="cls-77" d="M97.37,219.94c-.52,1.84-2.26,2.17-4,2,2.37.77,6.45.73,4-2Z"/>
    <path class="cls-136" d="M255.88,230.93c2.95,1.06,3.23-2.23,2.48-2.98-1.31-1.32-5.93,1.74-2.48,2.98Z"/>
    <path class="cls-65" d="M274.38,214.45c-1.06,2.95,2.23,3.23,2.98,2.48,1.32-1.31-1.74-5.93-2.98-2.48Z"/>
    <path class="cls-157" d="M192.38,240.43c1.24,3.45,4.3-1.17,2.98-2.48-.75-.75-4.05-.46-2.98,2.48Z"/>
    <path class="cls-36" d="M115.37,226.94c1.32-1.31-1.74-5.93-2.98-2.48-1.06,2.95,2.23,3.23,2.98,2.48Z"/>
    <path class="cls-87" d="M182.37,194.95c-1.31-1.32-5.93,1.74-2.48,2.98,2.95,1.06,3.23-2.23,2.48-2.98Z"/>
    <path class="cls-120" d="M269.37,222.94l1-3c-1.52-.88-1.5-.35-3,0-1.07,2.93-1.8,3.6,2,3Z"/>
    <path class="cls-10" d="M248.38,229.94c1.59,1.59,4.58-1.4,2.99-2.99-1.59-1.59-4.58,1.4-2.99,2.99Z"/>
    <path class="cls-5" d="M93.37,214.94c2.56-.5,3.43-1.65,1-4,.28,1.31-.06,2.64-1,4Z"/>
    <path class="cls-5" d="M93.37,214.94c.94-1.36,1.28-2.69,1-4-2.32,1.16-2.56,1.76-1,4Z"/>
    <path class="cls-60" d="M142.37,209.95c-1.59-1.59-4.58,1.4-2.99,2.99,1.59,1.59,4.58-1.4,2.99-2.99Z"/>
    <path class="cls-100" d="M110.35,209.44c.03-2.98-5.88-.28-3.98,1.49.67.62,3.96-.47,3.98-1.49Z"/>
    <path class="cls-161" d="M91.37,193.94v5c1.49-1.53,1.3-3.31,0-5Z"/>
    <path class="cls-161" d="M91.37,198.94v-5c-1.58.66-1.58,4.34,0,5Z"/>
    <path class="cls-71" d="M151.37,223.95c-1.34-1.44-3.66,1.83-1.98,3.99,1.7-.02,2.65-3.27,1.98-3.99Z"/>
    <path class="cls-31" d="M161.87,227.92c1.7.02,1.77-3.94,0-3.96-1.7-.02-1.77,3.94,0,3.96Z"/>
    <path class="cls-1" d="M97.37,185.93c.65-.56,1.05-3.97-.49-3.97-2.09,0-2.04,6.17.49,3.97Z"/>
    <path class="cls-29" d="M194.87,259.96c-1.7-.02-1.77,3.94,0,3.96,1.7.02,1.77-3.94,0-3.96Z"/>
    <rect class="cls-19" x="123.38" y="226.95" width="1.99" height="3.99"/>
    <path class="cls-34" d="M169.37,230.94c1.06-1.19,3.61-1.62,2.99-3.99-2.45-.54-1.82,1.28-3.99,2.99,1.41-1.33,1.92-.77,1,1Z"/>
    <path class="cls-34" d="M168.37,229.94l1,1c.92-1.77.41-2.33-1-1Z"/>
    <path class="cls-21" d="M79.37,143.95c-1.69-1.5-4.5,1.28-2.99,2.99.94,1.07,4.06-2.03,2.99-2.99Z"/>
    <path class="cls-151" d="M230.89,228.95c-2.14.48-1.15,3.47.97,2.99,2.14-.48,1.15-3.47-.97-2.99Z"/>
    <path class="cls-43" d="M124.37,198.94c-.16,1.64.1,3.36.01,5,2.7-.7,1.54-4.06.99-6-.47.1-.96.55-1,1Z"/>
    <path class="cls-122" d="M173.33,177.87c.17.24.21.58.05,1.07,1.99-.28,2.55-.64,4-1-.15,0-.32,0-.48-.01-1.21-.05-2.4-.07-3.57-.06Z"/>
    <path class="cls-122" d="M173.33,177.87c1.17,0,2.36.01,3.57.06-2.22-.18-5.15-2.08-6.52.01,1.07-.51,2.5-.72,2.95-.07Z"/>
    <path class="cls-122" d="M173.33,177.87c-1,0-1.98.02-2.95.07.93.25,2.48-.43,3,1,.16-.49.12-.84-.05-1.07Z"/>
    <path class="cls-122" d="M170.37,177.94c.97-.05,1.96-.07,2.95-.07-.45-.65-1.89-.44-2.95.07Z"/>
    <path class="cls-132" d="M240.37,231.95c-1.69-1.5-4.5,1.28-2.99,2.99.94,1.07,4.06-2.03,2.99-2.99Z"/>
    <path class="cls-83" d="M92.87,166.92c1.7.02,1.77-3.94,0-3.96-1.7-.02-1.77,3.94,0,3.96Z"/>
    <path class="cls-113" d="M117.37,205.95c-1-1.02-4.01,1.95-2.99,2.99,1,1.02,4.01-1.95,2.99-2.99Z"/>
    <path class="cls-153" d="M226.89,237.93c2.11.76,1.82-2.62,1.48-2.99-.97-1.05-4.57,1.88-1.48,2.99Z"/>
    <path class="cls-175" d="M235.37,202.94c1.05-.97-1.88-4.57-2.99-1.48-.76,2.11,2.62,1.82,2.99,1.48Z"/>
    <path class="cls-91" d="M154.37,243.94c-.5,4.11,5.2,3.31,1-1-.72.21-.87-.04-1,1Z"/>
    <path class="cls-154" d="M259.38,236.95c-1.02,1.04,1.99,4.01,2.99,2.99,1.02-1.04-1.99-4.01-2.99-2.99Z"/>
    <path class="cls-87" d="M124.37,198.94c-1.55-1.49-.93-2.11,1-1-.16-.55.21-1.84,0-2-2.13-1.53-5.11,1.37-1,3Z"/>
    <path class="cls-87" d="M124.37,198.94c.04-.45.53-.9,1-1-1.93-1.11-2.55-.49-1,1Z"/>
    <path class="cls-167" d="M89.38,156.43c1.11,3.09,4.03-.51,2.99-1.48-.37-.34-3.74-.63-2.99,1.48Z"/>
    <path class="cls-84" d="M135.37,223.94c-1.93-.24-3.57-.38-5,1l1,1c.17-.18,1.44.12,2,0-1-1-.34-1.67,2-2Z"/>
    <path class="cls-84" d="M135.37,223.94c-2.34.33-3,1-2,2,.04-.3,1.68-1.38,2-2Z"/>
    <path class="cls-8" d="M81.37,185.94c2.63,1.22,1.81-1.46,2-3-.68,1.13-1.34,2.13-2,3Z"/>
    <path class="cls-8" d="M81.38,181.94v4c.65-.87,1.31-1.87,1.99-3l-1.99-1Z"/>
    <path class="cls-121" d="M241.38,225.43c1.11,3.09,4.03-.51,2.99-1.48-.37-.34-3.74-.63-2.99,1.48Z"/>
    <rect class="cls-45" x="136.38" y="220.95" width="2.99" height="1.99"/>
    <path class="cls-164" d="M130.37,224.94c-2.41,2.32-.31,4.09,1,2.99.25-.21-.21-1.77,0-1.99-1.26,1.26-1.64.7-1-1Z"/>
    <path class="cls-164" d="M131.37,225.94l-1-1c-.64,1.7-.26,2.26,1,1Z"/>
    <rect class="cls-126" x="111.38" y="141.95" width="2.99" height="1.99"/>
    <path class="cls-42" d="M83.37,203.94c-1.36,3.52.83,2.62,2,3-1.02-.52-1.69-1.52-2-3Z"/>
    <path class="cls-42" d="M83.37,203.94c.31,1.48.98,2.48,2,3,.04-2.37.67-3.47-2-3Z"/>
    <rect class="cls-72" x="76.38" y="176.95" width="1.99" height="2.99"/>
    <path class="cls-111" d="M139.38,238.94c.95.95,3.98-1.76,2.98-2.99-.16-.2-4.53,1.47-2.98,2.99Z"/>
    <path class="cls-162" d="M185.37,67.94c1.18-.38,2.82-.29,3-1.99-1.33-.06-2.67.04-4-.01,1.73.45,2.7.75,1,2Z"/>
    <path class="cls-162" d="M184.37,65.94l1,2c1.7-1.25.73-1.55-1-2Z"/>
    <rect class="cls-127" x="248.38" y="241.95" width="2.99" height="1.99"/>
    <path class="cls-59" d="M84.37,157.94c-.04-.66.04-1.33,0-1.99-2.09-.41-2.1.14-3,.99,1.05-.42,2.05-.09,3,1Z"/>
    <path class="cls-59" d="M84.37,157.94c-.95-1.09-1.95-1.42-3-1,1.35,1.87.74,2.68,3,1Z"/>
    <path class="cls-103" d="M269.37,222.94c3.22-.5,3.83-1.36,1-3,1.36,1.25.52,2.27-1,3Z"/>
    <path class="cls-103" d="M270.37,219.94l-1,3c1.52-.73,2.36-1.75,1-3Z"/>
    <path class="cls-52" d="M281.37,197.94l1-3c-1.41.21-1.13,1.62-1,3Z"/>
    <path class="cls-52" d="M282.37,194.94l-1,3c2.77.46,2.46-.92,1-3Z"/>
    <path class="cls-140" d="M148.38,257.95v1.99s2.99,0,2.99,0c-.34-1.45-1.61-2.29-2.99-1.98Z"/>
    <path class="cls-166" d="M136.37,140.94l1-5c-.4,1.78-.88,2.31-1,5Z"/>
    <path class="cls-166" d="M137.37,135.94l-1,5c1.62-.85.94-3.4,1-5Z"/>
    <path class="cls-166" d="M137.62,146.67c-.38.5-.79.93-1.25,1.28-.2,2.87.66,3.3,1,5-.48-2.18-.35-4.29.25-6.28Z"/>
    <path class="cls-166" d="M139.36,151.94c.09-2.99-.08-6.01.01-8.99-.44,1.53-1.02,2.76-1.75,3.72-.6,1.98-.72,4.09-.25,6.28l.5-5.01,1.49,4.01Z"/>
    <path class="cls-166" d="M137.62,146.67c.39-1.3.98-2.55,1.75-3.72-1.75-1.34-2.89,3.48-3,5,.46-.35.87-.78,1.25-1.28Z"/>
    <path class="cls-166" d="M139.37,142.94c-.77,1.18-1.36,2.42-1.75,3.72.73-.96,1.31-2.2,1.75-3.72Z"/>
    <path class="cls-18" d="M122.37,150.95l1.01,2.99c3-1.02,1.78-3.1-1.01-2.99Z"/>
    <path class="cls-129" d="M38.13,181.01c.06-.1.13-.19.2-.28-.07.09-.13.19-.2.28Z"/>
    <path class="cls-129" d="M38.64,197.14c.5.61,1.05,1.21,1.68,1.79l.05,2.01,1-3c-1.06.18-1.96-.15-2.73-.81Z"/>
    <path class="cls-129" d="M41.82,177.07c-.49.4-.95.82-1.39,1.24.47-.41.96-.75,1.46-.99-.03-.08-.05-.16-.07-.25Z"/>
    <path class="cls-129" d="M35.63,187.18c.22-1.74,1.15-4.1,2.47-6.12-2.67,3.85-3.41,8.29-1.64,12.5-.76-2.18-1.04-4.69-.83-6.38Z"/>
    <path class="cls-129" d="M38.64,197.14c-.95-.81-1.68-2.12-2.19-3.58-1.77-4.21-1.03-8.65,1.64-12.5.01-.02.02-.03.03-.05.07-.09.13-.19.2-.28.63-.92,1.34-1.76,2.1-2.41.44-.43.9-.84,1.39-1.24-.09-.52.07-1.26.56-2.13-7.64,5.86-11.88,11.18-6.55,21.05,1.57,2.9,2.66,3.07,4.55,4.95l-.05-2.01c-.62-.58-1.18-1.18-1.68-1.79Z"/>
    <path class="cls-129" d="M41.89,177.32c-.5.25-.99.58-1.46.99-.79.77-1.49,1.58-2.1,2.41-.07.09-.13.19-.2.28-.01.02-.02.03-.03.05-1.32,2.02-2.25,4.38-2.47,6.12-.21,1.69.07,4.2.83,6.38.51,1.22,1.24,2.42,2.19,3.58.77.65,1.68.99,2.73.81-6.75-6.63-4.04-15.83,3-21-1.29,1.11-2.2,1.07-2.49.38Z"/>
    <path class="cls-129" d="M38.33,180.73c.61-.84,1.31-1.65,2.1-2.41-.76.66-1.47,1.49-2.1,2.41Z"/>
    <path class="cls-129" d="M38.1,181.06s.02-.03.03-.05c-.01.02-.02.03-.03.05Z"/>
    <path class="cls-129" d="M38.64,197.14c-.95-1.16-1.67-2.36-2.19-3.58.51,1.46,1.24,2.77,2.19,3.58Z"/>
    <path class="cls-129" d="M41.82,177.07c.02.09.04.17.07.25.82-.41,1.66-.57,2.49-.38l-2-2,.26,1.48c-.28.21-.55.43-.82.64Z"/>
    <path class="cls-129" d="M41.82,177.07c.27-.22.54-.43.82-.64l-.26-1.48c-.49.86-.65,1.61-.56,2.13Z"/>
    <path class="cls-129" d="M41.89,177.32c.29.69,1.2.73,2.49-.38-.83-.2-1.67-.03-2.49.38Z"/>
    <path class="cls-138" d="M49.23,206.02c-1.09-.93-1.81-1.99-1.85-3.08l-2,2,1.21-.8c.85.69,1.74,1.31,2.65,1.88Z"/>
    <path class="cls-138" d="M54.88,208.77c1.15.43,2.31.82,3.49,1.17v-1c-.95.22-2.19.13-3.49-.17Z"/>
    <path class="cls-138" d="M49.23,206.02c-.91-.57-1.79-1.19-2.65-1.88l-1.21.8c4.15,2.73,7.23,5.79,13,5-1.18-.35-2.34-.74-3.49-1.17-2.01-.47-4.17-1.48-5.66-2.75Z"/>
    <path class="cls-138" d="M49.23,206.02c1.8,1.12,3.7,2.01,5.66,2.75,1.3.3,2.54.39,3.49.17-4.71-1.55-7.13-3.09-11-6,.04,1.09.77,2.15,1.85,3.08Z"/>
    <path class="cls-138" d="M54.88,208.77c-1.96-.74-3.86-1.63-5.66-2.75,1.49,1.27,3.64,2.27,5.66,2.75Z"/>
    <path class="cls-161" d="M41.82,200.83c.23.04.46.11.68.2-.09-.11-.17-.22-.25-.34-.11.06-.26.1-.43.14Z"/>
    <path class="cls-161" d="M44.59,202.77c-.76-.41-1.51-1.03-2.1-1.74-.23-.09-.46-.15-.68-.2-.35.07-.82.11-1.44.11,2.23,2.21,2.42,2.3,5,4-1.02-.89-1.16-1.71-.78-2.17Z"/>
    <path class="cls-161" d="M42.24,200.7c.08.11.16.23.25.34.83.33,1.62.94,2.17,1.65.47-.44,1.51-.46,2.71.26-1.22-.92-5.01-4.03-6-5,1.07,1.5,1.63,2.37.87,2.76Z"/>
    <path class="cls-161" d="M44.67,202.69c-.55-.72-1.34-1.33-2.17-1.65.59.71,1.33,1.33,2.1,1.74.02-.03.05-.06.07-.09Z"/>
    <path class="cls-161" d="M41.82,200.83c.17-.04.32-.08.43-.14-.67-.92-1.06-1.92-.87-2.76l-1,3c.44-.19.93-.2,1.44-.11Z"/>
    <path class="cls-161" d="M40.37,200.94c.63,0,1.09-.03,1.44-.11-.51-.1-1.01-.08-1.44.11Z"/>
    <path class="cls-161" d="M42.24,200.7c.76-.39.2-1.26-.87-2.76-.19.83.2,1.84.87,2.76Z"/>
    <path class="cls-161" d="M44.82,202.89c.45.65.68,1.38.55,2.05l2-2c-.68.5-1.62.39-2.55-.05Z"/>
    <path class="cls-161" d="M44.82,202.89c-.08-.04-.15-.08-.23-.12-.38.46-.24,1.28.78,2.17.13-.67-.11-1.4-.55-2.05Z"/>
    <path class="cls-161" d="M44.67,202.69c.05.07.11.14.16.21.93.44,1.87.55,2.55.05-1.2-.72-2.23-.69-2.71-.26Z"/>
    <path class="cls-161" d="M44.59,202.77c.08.04.15.08.23.12-.05-.07-.1-.14-.16-.21-.03.03-.05.06-.07.09Z"/>
    <path class="cls-152" d="M36.37,208.93l-3.99-3.99c-.1.81.2,1.66.72,2.36.47.41.94.82,1.42,1.22.57.3,1.2.47,1.85.41Z"/>
    <path class="cls-152" d="M34.52,208.52c-.48-.4-.95-.8-1.42-1.22.37.5.86.92,1.42,1.22Z"/>
    <path class="cls-69" d="M42.37,168.95c-1-1.02-4.01,1.95-2.99,2.99,1,1.02,4.01-1.95,2.99-2.99Z"/>
    <path class="cls-102" d="M59.37,210.29c.07-.11.18-.19.34-.26-.3-.09-.57-.24-.8-.43-.1.11-.28.22-.54.34.58-.13.9,0,1,.35Z"/>
    <path class="cls-102" d="M59.37,210.29c-.1-.35-.42-.48-1-.35.22.45.59.72,1,1-.12-.27-.11-.48,0-.65Z"/>
    <path class="cls-102" d="M59.71,210.03c-.16.07-.27.15-.34.26.05.17.06.37,0,.65l3-1c-1.09.28-1.97.3-2.66.09Z"/>
    <path class="cls-102" d="M59.37,210.29c-.11.17-.12.38,0,.65.06-.28.05-.48,0-.65Z"/>
    <path class="cls-102" d="M58.91,209.6c.23.19.49.33.8.43.48-.21,1.36-.24,2.66-.09-1.05-.26-3.29-.77-4-1,.61.2.78.42.54.66Z"/>
    <path class="cls-102" d="M59.71,210.03c.69.21,1.57.19,2.66-.09-1.3-.15-2.18-.12-2.66.09Z"/>
    <path class="cls-102" d="M58.91,209.6c-.21-.18-.4-.4-.54-.66v1c.26-.12.44-.23.54-.34Z"/>
    <path class="cls-102" d="M58.91,209.6c.23-.24.06-.47-.54-.66.14.27.33.48.54.66Z"/>
    <path class="cls-166" d="M141.37,135.94c-.97,4.51-2.22,10.71,0,15-.81-4.96-.81-9.96,0-15Z"/>
    <path class="cls-166" d="M141.37,150.94v-15c-.8,5.03-.8,10.03,0,15Z"/>
    <path class="cls-166" d="M141.37,135.94c-.81,5.04-.81,10.04,0,15-.8-4.97-.8-9.97,0-15Z"/>
    <path class="cls-94" d="M199.36,154.94c-.05-2.15.11-4.35,0-6.51-.06-1.22.76-3.71-.99-3.48.05,2.15-.11,4.35,0,6.51.06,1.22-.76,3.71.99,3.48Z"/>
    <path class="cls-16" d="M173.37,162.94c-1.28-1.38-2.76-1.37-4,0,1.27-.55,2.73-.52,4,0Z"/>
    <path class="cls-16" d="M173.37,162.94c-1.33-.44-2.66-.49-4,0,2.05.29,1.71.41,4,0Z"/>
    <path class="cls-16" d="M173.37,162.94c-1.27-.52-2.73-.55-4,0,1.34-.49,2.67-.44,4,0Z"/>
    <path class="cls-22" d="M237.37,133.94l-5,1c2.47-.19,3.54-.74,5-1Z"/>
    <path class="cls-22" d="M232.37,134.94l5-1c-1.6.06-4.14-.62-5,1Z"/>
    <path class="cls-176" d="M216.37,179.95c-1.98.55-7.11-1.29-7.99.98,1.98-.55,7.11,1.29,7.99-.98Z"/>
    <g>
      <path class="cls-57" d="M60.88,104.1c-.94-.68-3.12.66-2.8-1.19,3.17-.18,3.33-5.28,6.99-5.01l-1.99-1.01c-.4-1.66,1.9-.6,2.99-1.99-2.22.12-6.05.61-5.95-2.51.08-2.55,10.02-2.06,6.95-5.49-1.68.66-5.31,2.07-7.01,1.49,2.09-4.97,5.1-9.43,7.01-14.49-.56-1.53-.92-6.63-2.51-6.99-2.06-.47-2.91,4.21-5.49,1.99-.37.54-1.47.85-2.2,2.25-1.9,3.63-2.33,8.6-5.3,11.73-1.61-.02-7.45-23.58-15.82-18.05-6.84,4.51,8.3,23.19,7.31,24.07-6.38-.11-11.78-2.5-18.24-1.73-4.1.49-10.62,1.97-9.81,7.21,1.14,7.3,22.45,3.5,28.05,3.54-4.29,5.44-19.3,16.15-14.08,24.32,4.9,7.67,17.68-13.72,21.07-16.33-1.38,4.67,1.38,26.7,9.4,20.93,5.41-3.9,1.2-14.62-.02-19.81-.68-2.89-.55-2.41,1.63-1.12-.11-.1.38-1.39-.19-1.8Z"/>
      <path class="cls-57" d="M79.07,108.91c-1.49-4.88-9.3-10.66-14-11-1.61,2.59-2.49,5.09-2.63,7.51l-1.37.49c4.22,3.63,10.23,7.49,16,7-2.56-1.47-.74-4.79,2-4Z"/>
      <path class="cls-57" d="M65.07,97.91c-3.66-.27-3.82,4.83-6.99,5.01-.32,1.85,1.86.51,2.8,1.19.57.41.08,1.71.19,1.8l1.37-.49c.14-2.42,1.02-4.92,2.63-7.51Z"/>
      <path class="cls-57" d="M77.07,112.91c.19-.42,1.87-3.8,2-4-2.74-.79-4.56,2.53-2,4Z"/>
      <path class="cls-57" d="M62.3,92.86c1.97-.19,3.23.5,3.77,2.05,4.27-.23,19.41-3.08,14.09-9.6-3.48-4.27-9.89.34-13.09,1.6,6.2.89-.77,5.5-4.77,5.95Z"/>
      <path class="cls-57" d="M60.12,92.39c-.1,3.12,3.73,2.63,5.95,2.51-.54-1.55-1.8-2.23-3.77-2.05,4-.45,10.97-5.06,4.77-5.95,3.07,3.43-6.87,2.94-6.95,5.49Z"/>
    </g>
    <g>
      <path class="cls-57" d="M107.12,2.38c-2.2-.69-5.67.94-7.37-1.13-4.08.28-24.23,4.05-26.1,6.42-.72.91-1.07,1.78-.87,2.95l3.97,19.63c0-1.66-.87-6.44.99-6.99v11.99s2.01,10,2.01,10c.53-.76.7-1.13,1-2-1.3-5.63-2.27-12.68-1.91-18.41.05-.78.88-1.35.91-1.59.29-1.94-.82-5.16.98-6.53,3.51-.42,23.64-6.75,25-5.45l2.03,9.97c0-3.88,2.94-17.74-.63-18.87Z"/>
      <path class="cls-57" d="M96.19,41.19c-3.62,11.2,16.88,11.26,18.52.48,1.22-8.03-4.81-22.82-4.95-32.43-.03-2.33.02-4.67,0-7-.14-.18-.93-.98-1-1-1.59-.35-5.08-.05-7,0-.66.02-1.34-.05-2,0,2.6.49,5.27.68,8.01.57,1.85,1.35,2.07,15.12,1.85,18.38-.04.57-1.09.88-1.86,1.06,0,4.17,1.81,8.56.99,13-4.13-2.14-11.29,3.04-12.56,6.95Z"/>
      <path class="cls-57" d="M109.61,20.18c.22-3.26,0-17.03-1.85-18.38-2.74.11-5.41-.08-8.01-.57,1.7,2.08,5.16.44,7.37,1.13,3.58,1.13.64,14.99.63,18.87.77-.18,1.82-.49,1.86-1.06Z"/>
      <path class="cls-57" d="M77.11,35.94c-.17-.28-.24-.67-.35-.7-15.42-4.09-21.48,15.42-6.5,15.08,4.63-.1,6.95-1.38,9.5-5.08-2.94.49-4.26-6.71-2.65-9.3Z"/>
      <path class="cls-57" d="M77.26,36.14c-.06-.05-.11-.12-.16-.2-1.61,2.59-.29,9.79,2.65,9.3l-2-10-.49.9Z"/>
      <path class="cls-57" d="M81.84,38.77l-2.09-15.53c.15,6.67.49,13.33,1,20,.45-1.29,1.74-2.46,1.09-4.47Z"/>
      <path class="cls-57" d="M80.76,43.24c-.51-6.67-.85-13.33-1-20-.04.24-.87.81-.91,1.59-.36,5.73.62,12.78,1.91,18.41Z"/>
      <path class="cls-57" d="M41.77,43.73c.77,2.85,6.96.63,4.93-2.42-.88-1.31-6-1.53-4.93,2.42Z"/>
      <path class="cls-57" d="M76.76,30.24v5h1c-.53-6.75-.87-8.42-1-5Z"/>
      <path class="cls-57" d="M77.76,35.24v-11.99c-1.87.55-1,5.34-1,6.99.13-3.42.47-1.75,1,5Z"/>
      <path class="cls-57" d="M77.76,35.24h-1c.11.03.18.42.35.7.18-.29.39-.54.65-.7Z"/>
      <path class="cls-57" d="M77.11,35.94c.05.08.09.15.16.2l.49-.9c-.26.16-.47.41-.65.7Z"/>
      <path class="cls-57" d="M109.76,9.24c1.82-1.63,1.49-5.19,0-7,.77,2.3.89,4.72,0,7Z"/>
      <path class="cls-57" d="M109.76,9.24c.89-2.28.77-4.7,0-7,.02,2.33-.03,4.67,0,7Z"/>
      <path class="cls-57" d="M108.76,1.24c-1.26-1.65-5.74-1.65-7,0,2.22-.9,4.82-1.02,7,0Z"/>
      <path class="cls-57" d="M108.76,1.24c-2.18-1.02-4.78-.9-7,0,1.92-.05,5.41-.35,7,0Z"/>
    </g>
    <g>
      <path class="cls-57" d="M344.24,30.08c-2.22-2.5-11.77-3.41-15.73-5.27-4.47-2.1-10.69-10.17-13.23-10.74-1.14-.26-2.76.44-3.1,1.56,1.67,5.73,1.68,14.19,0,20,.26,1.37,1.94,2.7,2,3,4.23.59.64-6.45,2.49-7.99,6.84,4.31,14.24,9.35,22.46,10.03,0,1.95.23,4.02.04,5.96l2,1c1.59-5.16,7.58-12.45,3.05-17.55Z"/>
      <path class="cls-57" d="M309.19,45.63c-5.37,1.02-14.05-4.07-17.25,3.25-4.43,10.14,11.93,16.48,18.25,7.75l-.76-.59c1.4-3.67-.48-6.71-.24-10.41Z"/>
      <path class="cls-57" d="M338.19,56.63c-.64,3.67-2.19,7.36-3.01,11-4.81-3.01-9.59-5.68-11.99,1,1.61.95,1.64,4.99,0,6,3.85,9.96,18.41,5.54,19-3.99h-5c3.35-4.26,1.38-9.32,2-14.01h-1Z"/>
      <path class="cls-57" d="M312.19,35.63c-.32-1.65.09-4.13,0-6l-3,16c2.62,2.27,2.95,5.94,1,11,2.63-3.64,4.91-13.63,4-18-2.61,1.86-3.28-.94-2-3Z"/>
      <path class="cls-57" d="M314.19,38.63c-.06-.3-1.74-1.63-2-3-1.28,2.06-.61,4.86,2,3Z"/>
      <path class="cls-57" d="M309.19,45.63c-.24,3.7,1.64,6.75.24,10.41l.76.59c1.95-5.06,1.62-8.73-1-11Z"/>
      <path class="cls-57" d="M347.19,70.63l6.99-5-1-3c-6.99-2.36-5.49,2.88-5.99,8Z"/>
      <path class="cls-57" d="M339.19,56.63c.38-2.89,1.13-6.18,2-9-1.11,2.29-1.77,1.96-2-1-.25,2.55-.69,8.23-1,10,.28-.87.62-.86,1,0Z"/>
      <path class="cls-57" d="M341.19,47.63l-2-1c.23,2.96.89,3.29,2,1Z"/>
      <path class="cls-57" d="M338.19,56.63h1c-.38-.86-.72-.87-1,0Z"/>
      <path class="cls-57" d="M312.19,15.63c-.57,1.9-.14,11.2,0,14,.23.73.33,1.53.36,2.39.39-5.46.06-10.94-.36-16.39Z"/>
      <path class="cls-57" d="M312.55,32.02c.04,1.1-.07,2.3-.36,3.61,1.68-5.81,1.67-14.27,0-20,.42,5.45.75,10.93.36,16.39Z"/>
      <path class="cls-57" d="M312.19,35.63c.17-1.2.28-2.4.36-3.61-.03-.86-.14-1.66-.36-2.39.09,1.87-.32,4.35,0,6Z"/>
      <path class="cls-57" d="M312.55,32.02c-.09,1.2-.2,2.41-.36,3.61.29-1.31.4-2.51.36-3.61Z"/>
      <path class="cls-57" d="M322.23,72.06c.05,1.12.63,1.73.96,2.57v-6c-.44,1.22-1.03,1.81-.96,3.43Z"/>
      <path class="cls-57" d="M323.19,68.63v6c1.64-1.01,1.61-5.05,0-6Z"/>
      <path class="cls-57" d="M354.19,65.63c3.1-3.36.67-2.43-1-3,1.63.6,1.79,1.49,1,3Z"/>
      <path class="cls-57" d="M353.19,62.63l1,3c.79-1.51.63-2.4-1-3Z"/>
    </g>
  </g>
</svg>