<?xml version="1.0" encoding="UTF-8"?>
<svg id="Layer_2" data-name="Layer 2" xmlns="http://www.w3.org/2000/svg" viewBox="0 0 551.18 198.78">
  <defs>
    <style>
      .cls-1 {
        fill: #3d3e3e;
      }

      .cls-2 {
        fill: #3f3f3f;
      }

      .cls-3 {
        fill: #414041;
      }

      .cls-4 {
        fill: #3c3c3d;
      }

      .cls-5 {
        fill: #a4a5a5;
      }

      .cls-6 {
        fill: #323232;
      }

      .cls-7 {
        fill: #232324;
      }

      .cls-8 {
        fill: #404141;
      }

      .cls-9 {
        fill: #403f40;
      }

      .cls-10 {
        fill: #111;
      }

      .cls-11 {
        fill: #2c2c2d;
      }

      .cls-12 {
        fill: #2b2b2b;
      }

      .cls-13 {
        fill: #1b1c1b;
      }

      .cls-14 {
        fill: #424142;
      }

      .cls-15 {
        fill: #605e60;
      }

      .cls-16 {
        fill: #4b4b4c;
      }

      .cls-17 {
        fill: #2b2b2c;
      }

      .cls-18 {
        fill: #303031;
      }

      .cls-19 {
        fill: #050505;
      }

      .cls-20 {
        fill: #010101;
      }

      .cls-21 {
        fill: #151515;
      }

      .cls-22 {
        fill: #545455;
      }

      .cls-23 {
        fill: #363635;
      }

      .cls-24 {
        fill: #525351;
      }

      .cls-25 {
        fill: #2f2f2f;
      }

      .cls-26 {
        fill: #232323;
      }

      .cls-27 {
        fill: #292929;
      }

      .cls-28 {
        fill: #414141;
      }

      .cls-29 {
        fill: #2c2d2d;
      }

      .cls-30 {
        fill: #414040;
      }

      .cls-31 {
        fill: #545454;
      }

      .cls-32 {
        fill: #363636;
      }

      .cls-33 {
        fill: #2a2a2b;
      }

      .cls-34 {
        fill: #5b5b5b;
      }

      .cls-35 {
        fill: #464546;
      }

      .cls-36 {
        fill: #615f5c;
      }

      .cls-37 {
        fill: #1c1c1d;
      }

      .cls-38 {
        fill: #383839;
      }

      .cls-39 {
        fill: #4d4d4e;
      }

      .cls-40 {
        fill: #191819;
      }

      .cls-41 {
        fill: #373637;
      }

      .cls-42 {
        fill: #1f201f;
      }

      .cls-43 {
        fill: #232222;
      }

      .cls-44 {
        fill: #1b191a;
      }

      .cls-45 {
        fill: #232424;
      }

      .cls-46 {
        fill: #4d4c4d;
      }

      .cls-47 {
        fill: #090707;
      }

      .cls-48 {
        fill: #1c1c1c;
      }

      .cls-49 {
        fill: #4c4c4b;
      }

      .cls-50 {
        fill: #7b7c7c;
      }

      .cls-51 {
        fill: #313132;
      }

      .cls-52 {
        fill: #454546;
      }

      .cls-53 {
        fill: #2f3030;
      }

      .cls-54 {
        fill: #464746;
      }

      .cls-55 {
        fill: #1a1a19;
      }

      .cls-56 {
        fill: #171717;
      }

      .cls-57 {
        fill: #3e3f40;
      }

      .cls-58 {
        fill: #171616;
      }

      .cls-59 {
        fill: #373837;
      }

      .cls-60 {
        fill: #262526;
      }

      .cls-61 {
        fill: #a5a5a7;
      }

      .cls-62 {
        fill: #090808;
      }

      .cls-63 {
        fill: #3b3b3b;
      }

      .cls-64 {
        fill: #1e1e1e;
      }

      .cls-65 {
        fill: #434243;
      }

      .cls-66 {
        fill: #1d1d1d;
      }

      .cls-67 {
        fill: #2c2b2c;
      }

      .cls-68 {
        fill: #292927;
      }

      .cls-69 {
        fill: #3e3e3e;
      }

      .cls-70 {
        fill: #212222;
      }

      .cls-71 {
        fill: #181819;
      }

      .cls-72 {
        fill: #444344;
      }

      .cls-73 {
        fill: #3a3a3a;
      }

      .cls-74 {
        fill: #353434;
      }

      .cls-75 {
        fill: #3c3c3e;
      }

      .cls-76 {
        fill: #080706;
      }

      .cls-77 {
        fill: #2d2c2c;
      }

      .cls-78 {
        fill: #575758;
      }

      .cls-79 {
        fill: #4e4c4d;
      }

      .cls-80 {
        fill: #272727;
      }

      .cls-81 {
        fill: #020101;
      }

      .cls-82 {
        fill: #303030;
      }

      .cls-83 {
        fill: #222121;
      }

      .cls-84 {
        fill: #282926;
      }

      .cls-85 {
        fill: #242324;
      }

      .cls-86 {
        fill: #2c2d2b;
      }

      .cls-87 {
        fill: #4e4e4e;
      }

      .cls-88 {
        fill: #060606;
      }

      .cls-89 {
        fill: #5a5a5b;
      }

      .cls-90 {
        fill: #1e1d1e;
      }

      .cls-91 {
        fill: #828184;
      }

      .cls-92 {
        fill: #262525;
      }

      .cls-93 {
        fill: #181717;
      }

      .cls-94 {
        fill: #333233;
      }

      .cls-95 {
        fill: #020102;
      }

      .cls-96 {
        fill: #343435;
      }

      .cls-97 {
        fill: #292a2a;
      }

      .cls-98 {
        fill: #515152;
      }

      .cls-99 {
        fill: #252425;
      }

      .cls-100 {
        fill: #1d1d1e;
      }

      .cls-101 {
        fill: #0b0b0b;
      }

      .cls-102 {
        fill: #262626;
      }

      .cls-103 {
        fill: #404041;
      }

      .cls-104 {
        fill: #363535;
      }

      .cls-105 {
        fill: #959998;
      }

      .cls-106 {
        fill: #414242;
      }

      .cls-107 {
        fill: #787778;
      }

      .cls-108 {
        fill: #343434;
      }

      .cls-109 {
        fill: #1d1d1c;
      }

      .cls-110 {
        fill: #484749;
      }

      .cls-111 {
        fill: #565758;
      }

      .cls-112 {
        fill: #363537;
      }

      .cls-113 {
        fill: #525455;
      }

      .cls-114 {
        fill: #242424;
      }

      .cls-115 {
        fill: #2e2d2e;
      }

      .cls-116 {
        fill: #302f30;
      }

      .cls-117 {
        fill: #040404;
      }

      .cls-118 {
        fill: #363536;
      }

      .cls-119 {
        fill: #2b2a2b;
      }

      .cls-120 {
        fill: #69686a;
      }

      .cls-121 {
        fill: #2a2929;
      }

      .cls-122 {
        fill: #565656;
      }

      .cls-123 {
        fill: #666667;
      }

      .cls-124 {
        fill: #2f2f30;
      }

      .cls-125 {
        fill: #565657;
      }

      .cls-126 {
        fill: #696869;
      }

      .cls-127 {
        fill: #433646;
      }

      .cls-128 {
        fill: #30302f;
      }

      .cls-129 {
        fill: #363735;
      }

      .cls-130 {
        fill: #080808;
      }

      .cls-131 {
        fill: #5c5a5b;
      }

      .cls-132 {
        fill: #272626;
      }

      .cls-133 {
        fill: #3c3d3d;
      }

      .cls-134 {
        fill: #0b090b;
      }

      .cls-135 {
        fill: #1f1f1e;
      }

      .cls-136 {
        fill: #2c2a2b;
      }

      .cls-137 {
        fill: #2e2f2e;
      }

      .cls-138 {
        fill: #9fa0a1;
      }

      .cls-139 {
        fill: #282829;
      }

      .cls-140 {
        fill: #1d1c1d;
      }

      .cls-141 {
        fill: #242425;
      }

      .cls-142 {
        fill: #7b7a7c;
      }

      .cls-143 {
        fill: #0c0c0c;
      }

      .cls-144 {
        fill: #4a494a;
      }

      .cls-145 {
        fill: #333133;
      }

      .cls-146 {
        fill: #434344;
      }

      .cls-147 {
        fill: #1f1f1f;
      }

      .cls-148 {
        fill: #232423;
      }

      .cls-149 {
        fill: #868587;
      }

      .cls-150 {
        fill: #454342;
      }

      .cls-151 {
        fill: #080807;
      }

      .cls-152 {
        fill: #383838;
      }

      .cls-153 {
        fill: #2a2a2a;
      }

      .cls-154 {
        fill: #424242;
      }

      .cls-155 {
        fill: #373736;
      }

      .cls-156 {
        fill: #070607;
      }

      .cls-157 {
        fill: #3e3e3f;
      }

      .cls-158 {
        fill: #201f20;
      }

      .cls-159 {
        fill: #474848;
      }

      .cls-160 {
        fill: #585858;
      }

      .cls-161 {
        fill: #494849;
      }

      .cls-162 {
        fill: #2d2d2e;
      }

      .cls-163 {
        fill: #202020;
      }

      .cls-164 {
        fill: #333434;
      }

      .cls-165 {
        fill: #252525;
      }

      .cls-166 {
        fill: #383738;
      }

      .cls-167 {
        fill: #9a9a9b;
      }

      .cls-168 {
        fill: #272728;
      }

      .cls-169 {
        fill: #201f1f;
      }

      .cls-170 {
        fill: #494949;
      }

      .cls-171 {
        fill: #303130;
      }

      .cls-172 {
        fill: #2d2d2d;
      }

      .cls-173 {
        fill: #373636;
      }

      .cls-174 {
        fill: #2b2a29;
      }

      .cls-175 {
        fill: #595859;
      }

      .cls-176 {
        fill: #474646;
      }

      .cls-177 {
        fill: #454445;
      }

      .cls-178 {
        fill: #2e2f2f;
      }

      .cls-179 {
        fill: #666464;
      }

      .cls-180 {
        fill: #313331;
      }

      .cls-181 {
        fill: #555556;
      }

      .cls-182 {
        fill: #313131;
      }

      .cls-183 {
        fill: #353535;
      }

      .cls-184 {
        fill: #323132;
      }

      .cls-185 {
        fill: #2f2e2f;
      }

      .cls-186 {
        fill: #4b4b4b;
      }

      .cls-187 {
        fill: #252524;
      }

      .cls-188 {
        fill: #212021;
      }

      .cls-189 {
        fill: #222221;
      }

      .cls-190 {
        fill: #242323;
      }

      .cls-191 {
        fill: #1c1b1a;
      }

      .cls-192 {
        fill: #a8a9aa;
      }

      .cls-193 {
        fill: #060505;
      }

      .cls-194 {
        fill: #1e1d1d;
      }

      .cls-195 {
        fill: #302f2f;
      }

      .cls-196 {
        fill: #4c4c4d;
      }

      .cls-197 {
        fill: #3c3b3b;
      }

      .cls-198 {
        fill: #2f2e30;
      }

      .cls-199 {
        fill: #181818;
      }

      .cls-200 {
        fill: #4c4c4c;
      }

      .cls-201 {
        fill: #4a4a4b;
      }

      .cls-202 {
        fill: #1b1b1b;
      }

      .cls-203 {
        fill: #222;
      }

      .cls-204 {
        fill: #1b1a1a;
      }

      .cls-205 {
        fill: #232524;
      }

      .cls-206 {
        fill: #414142;
      }

      .cls-207 {
        fill: #050405;
      }
    </style>
  </defs>
  <g id="Layer_1-2" data-name="Layer 1">
    <path class="cls-28" d="M550.96,153.79c1.05-.97-1.88-4.57-2.99-1.48-.76,2.11,2.62,1.82,2.99,1.48Z"/>
    <rect class="cls-123" x="548.97" y="113.8" width="1.99" height="2.99"/>
    <path class="cls-20" d="M100.8,177.71c1.39.04,2.78.07,4.17.09-2.19-.15-3.28-.31-4.17-.09Z"/>
    <path class="cls-20" d="M515.97,138.33c-.06.75-.06,1.57,0,2.47.05-.24.09-.47.14-.69.06-.6,0-1.2-.14-1.78Z"/>
    <path class="cls-20" d="M6.77,155.5c11.22,19.24,46.34,20.37,66.2,21.3.66.03,1.34-.03,2,0,3.31.15,6.68-.11,10,0,7.17.25,12.97-.51,20,1,8.56,1.84,13.88.21,21.53.91,20.79,1.9,45.35,2.13,67.47,2.09.33,0,.67,0,1,0,.67,0,1.33,0,2,0,3.75-1.82,9.61-1.03,14-1,5.67.04,11.21.01,17,0,.33,0,.67,0,1,0,9.32-.02,18.68-.08,28,0,1.33.01,2.67-.02,4,0,2.66.03,5.34-.09,8,0,.67.02,1.33-.02,2,0,2.2.07,5.48-.47,7.34.16,1.62.54,2.32,3.72,3.16,3.82,2.43.29.5-2.83.5-2.98-.02-1.74,9.5-.9,12-1,14.48-.59,29.04-1.94,43.5-2.1,35.59-.41,72.27,6.21,107.92,2.03,2.34-.27,4.87-2.19,7.04-1.93,1.56.18,2.95,2.28,4.01,2.02.43-.11,1.36-3.02,7.14-3.89,14.23-2.13,31.33-.26,43.53-7.48,7.16-4.24,14.47-15.21,15.6-23.4,1.99-14.44,2.14-51.48-1.03-65.45-3.55-15.63-9.95-23.98-22.78-33.22-13.89-10.01-40.36-6.45-57.47-6.53-29.15-.13-58.73-.37-88,.92-33.7,1.49-67.41-.75-100.92-.92-18.64-.09-37.33.12-55.92-.29-10.88-14.51-24.65-30.65-42.62-36.26-28.08-8.77-71.16.38-91.01,22.51-.86.96-1.43,2.73-2.99,3-.91-2.4,1.59-3.94,1.99-5,1.65-4.36,5.5-14.44,5.99-18.53.25-2.11-1.07-1.83-2.34-1.32-5.6,2.27-13.79,16.55-13.66,22.84l-9.95-15.32-3.04-.68c-1.22,7.92,3.59,14.53,4.99,22-2.26-.78-11.74-3.28-13-1.99-3.07,3.14,11.77,8.53,14,9.01-1.95,3.11-13.16,5.99-11.99,10.47.38,1.45,1.78,1.33,3.03,1.11,4.88-.87,9.18-4.47,13.96-5.59-.08,3.65.14,7.35,0,11l3-1c.03-.8,3.56-6.26,2.01-9,.93-1.14,10.29,8.87,14.36,7.91,1.02-.27,1.18-1.17,1.63-1.91-1.26-.64-1.39-2.13-2-3-1.01-1.44-7.06-7.08-6-7.99,3.93.52,23.65-3.94,24.99-6.52,1.04-2.01-1.76-1.35-2.45-1.51-6.34-1.41-10.26-.48-16.54.01C86.44,11.25,107.99,2.88,136.46,4.81c28.44,1.93,52.7,25.84,62.27,51.73.87,2.36,3.33,13.94,4.75,14.26,4.31.95,1.89-10.39,1.38-12.39-1.31-5.12-4.74-10.74-6.89-15.6,17.82,1.15,35.66,1.11,53.55,1.04,30.89-.12,62.91,4.27,93.94,2.94,41.72-1.79,84.25-5.73,126.05-3.03,49.76,3.21,50.34,52.13,45.46,91.04-.27,2.16-.5,3.42-.86,5.31-.02.23-.06.46-.14.69-1.89,9.62-2.87,11.59-10,18-.35.31-.63.71-1,1-4.84,3.9-5.48,4.54-12,6-2.5.56-3.47.69-6,1-8.85,1.1-18.91.74-27.45,2.05-2.49.38-6.48,2.8-9.11,2.83-.83,0-1.02-3.86-3.44-2.87-.36.38,1.08,2.23.56,3.02-2.09,3.15-34.56,1.51-40.23,1.35-27.58-.81-55.01-4.28-82.88-3.42-12.3.38-24.67,2.61-36.91,3.09-69.97,2.75-141.17-.52-211.07-3.02-2.82-.54-2.2-2.78-2.49-3.03-.27-.22-2.08,1.72-3.5,1.97-6.03,1.09-33.18-2.32-39.7-4.26-11.21-3.33-19.97-10.65-22.55-22.45-3.2-14.64-4.39-60-1.78-74.32,2.51-13.75,12.22-20.03,25.54-20.97-3.16-6.09-17.25-.19-21.47,3.04C-6.13,62.52,1.95,83.82,2.05,100.3c.12,18.19-5.12,38.33,4.71,55.19Z"/>
    <path class="cls-20" d="M491.64,165.56c.47.13.91.22,1.32.24-.47-.1-.91-.18-1.32-.24Z"/>
    <path class="cls-20" d="M130.94,145.51c.59-.14,1.26-.37,2.02-.71-.23-.03-.51-.08-.8-.14-.61.02-.97.39-1.22.85Z"/>
    <path class="cls-20" d="M66.45,97.91c-2.12-.19-1.07-2.98-3.97-2.15-.9.26-.58,4.1-4.83,2.89-3.2-.92-3.42-5.24-3.69-7.85-1.43-1.46-.97-3.23-1-5,0-.33,0-.67,0-1-3.38,2.16,1.42,11.54,1,11.99-1.85,2.02-1.94-2.01-2.5-2-.28,0-.42.13-.5.32,0,.45,0,.9,0,1.34,0,.13.01.25,0,.35-.05.45.15,1.89,0,2-2.26,1.67-10.08-2.83-11-1.99,2.37,7.77,16.78,6.44,23.48,5.98,12.34-.84,24.3-7.6,35.04,2.98,6.62,6.52,19.05,30.81,13.56,39.37-3.67,5.71-4.94-5.59-5.64-7.34-.64-1.61.1-2.44-2.44-2-.6,3.72,2.17,12.62-3.5,12.06-4.03-.4-1.53-6.51-4-9.06-2.99,2.51.3,11.07-5.02,11.05-3.44-.01-3.69-7.67-3.49-10.06h-2.99c-.11,3.55,1.33,9.27-3.51,9.61-4.67.33-2.37-7.9-2.72-10.82-.52-4.27-4.42-10.32-4.63-12.46-.19-1.97,3.89-3.36,2.85-6.31-4.12,1.42-7.78,3.75-11.99,5-.93.27-1.4.68-3,1-.51.1-2.01-.94-3.3-.7-1.62.3-4.04,3.13-6.5,1.42-.5-.35.53-2.23-1.7-1.74-1.02.23.63,2.12-3.01,2.11-3.3-.01-2.4-2.11-3.06-2.13-1.44-.04-2.8,1.28-5.66.84-4.35-.66-14.94-6.25-16.32-10.76-3-9.78,3.34-20.51,10.63-26.47,4.04-3.3,9.37-4.91,12.92-8.58-.11-.38-.08-1.54,0-2-15.97,2.16-30.24,17.14-29.65,33.7.1,2.9,2.42,5.97,2.44,7.98,0,1-4.46,7.65,1.72,6.36.96-.2-.78-4.01,3.5-.04,1.84,1.7,1.13,1.39,2,3,3.79-.23,6.38,2.74,9,5,4.89-1.82,5.18.01,8,0,1,0,2-.03,3,0,1.66.04,3.34.03,5,0,.55,0,1.67-1.32,3.32-.87,1.21.33,1.41,1.71,1.68,1.87,2.17,1.3,2.64-.12,3,3,.85-.22,1.79.18,2.98-.49.62-.35.76-1.32,1.02-1.51,3.64-2.63,2.56-.77,3,2,4.37-1.14,2.8,2.38,2.87,3.64.04.13.09.23.13.36.4.35,2.76-.66,3,.5-3.7,3.82-2.42.47-3-.5-.04-.07-.66.02-1,0-.93-.05-1.66-.03-2,1,.98.95,4.16,4.96,4.5,4.98.5.03,1.73-2.71,3.5-1.97-2.95,3.58,1.42,7.56,4.74,8.78,2.61.96,5.06-1.51,4.27,3.21,3.79-1.02,1.34-2.4,6-3,2.69-.35,5.3-.61,8-1,3.59-.52,7.25-1.71,9.58-2.01,2.25-.29,4.19,1.52,6.38.56,2.5-1.1,7.47-7.32,6.05-10.54,3.01.72,5.92,1.5,8.99,2,1.37.22,3,.63,4.2.86.23,0,.49.03.8.14,1.59.21,3.39-.18,5,0,.7.08,1.82.89,3,1,1.78.16,5.28.66,7.45.88.68-.16,1.3-.13,1.55.12,2.21,0,9.8-2.42,13-3,2.24-.4,3.85-2.55,7,0,.36.29.63.71,1,1,.04-.19.94-.54,1-2,.01-.34-1.31-1.68-1-1.99.22-.23,3.21-.48,4.23-1.08,16.15-9.56,31.3-27.06,33.5-46.71.57-5.13-.23-10.21.72-15.28,11.26-5.03,25.19-.22,35.51-7.49,5.8-4.08,9.61-13.92.31-16.22-2.02-.5-5.99-.91-8.27-1.24-.61-.09-2.32,2.53-2.01-.99-1.64-.37-.87,1.46-.99,2.99,2.42,3.13,9.4,3.33,10.54,4.96,2.5,3.58-.66,3.31-3.54,2.04-3.41-.16-1.52.25-1,2,.3,1.01,1.8,2.25-.63,2.91-2.49.68-4.91-1.01-7.36-.91l2,2c.26.42-1.33,1.99-1.5,1.99h-19c-.53,0-9.16,3.85-9.59,4.41-1.36,1.74-.8,3.65-.91,5.59,6.51.97,3.32,9.33,3.99,13.99l-1-4.99-1.98,1.99c.88-1.93-.9-4.1-1.01-5-.92,4.34-1.67,8.71-3,13-1.18,3.8-2.03,6.71-4.23,10.27-1.04,1.69-2.97,1.92-3.59,3.43-.42,1.03.02,3.05-.18,3.31-.16.2-2.26-1.83-3.52-.02-.25.36.37,2.31-.48,4.01-.64,1.29-1.22,1.29-2,2-3.46,3.12-4.93,1.74-6.03,2.46-1.28.85.54,3.04-.96,4.07-1.21.83-3.08-.94-4.06-.13-.85.7-.58,2.6-1.23,3.31-.45.49-8.35,3.85-9.72,4.28-2.82.89-3.88.54-6,1-1.7.37-3.23.83-5,1-.68.07-1.81.99-3,1-1.75.02-2.84-1-3-1-5.38.07-8.43,1.58-14-1-.15,2.24-4.48,1.5-6,1-.77-.25.05-1.53-4-2-.1-.01-.51,1.04-1.96.62-4.95-1.43-2.82-3.48-3.04-5.62-.45-4.41-4.91-9.5-1-10.49-8.07-6.84-10.87-16.82-20.95-22.05-2.35-1.22-5.93-1.43-7.4-2.42-1.04-.7.02-2.85-2.64-2.03-.16.61.18,1.58,0,2-.8,1.84-6.03.89-8,1-2.32.13-4.68-.12-7,0-.59.03-2.09,1.34-4.52,1.11Z"/>
    <path class="cls-20" d="M167.46,143.79s.02,0,.02,0c0,0-.01,0-.02,0,0,0,0,0,0,0Z"/>
    <path class="cls-20" d="M68.97,141.8c-.04-.09-.07-.17-.11-.24.02.1.05.19.11.24Z"/>
    <path d="M245.92,132.35c1.14,8.48,15.28,5.35,20.4,2.31,9.8-5.81,10.83-19.6-1.35-22.87,4.05-5.54,9.46-7.08,7.77-15.26-2.21-10.7-19.05-12.98-26.28-6.73.39,12.97-2.23,30.03-.54,42.55ZM264.48,124.77c-1.08,2.35-7.59,5.49-9.43,3.93-1.38-1.16-1.07-9.68.02-11.79,4.99-1.49,11.95,2.34,9.41,7.86ZM254.9,95.23c3.59-2.55,12.49,2.61,7.77,8.29-.85,1.03-6.71,4.12-7.69,3.28-.27-2.63-2.43-9.9-.08-11.57Z"/>
    <path class="cls-20" d="M432.33,101.05c-7.67-.14-6.88,16.85-6.25,22.14,1.77,14.79,15.24,16.13,22.88,4.61,8.65,14.89,20.22,7.15,23.72-6.8,1.05-4.17,2.74-19.24.05-21.95-2.44-2.47-6.66-.57-7.55,2.46-1.25,4.3,1.76,25.09-4.82,26.24-8.66,1.51-.32-27.08-12.75-22.81-3.17,1.09-2.9,26.24-10.67,21.42-5.89-3.66,3.54-25.15-4.61-25.3Z"/>
    <path class="cls-20" d="M322.92,143.38c-2.54-.71-5.04-6.04-8.71-2.33-6.54,6.61,8.39,13.69,17.67,8.17,12.85-7.65,9.36-33.34,9.05-45.9-.54-3.8-5.7-5.06-7.9-1.95-2.54,3.6-.02,12.61-1.52,17.48-.53,1.71-4.27,5.96-6.05,5.98-7.87.06-1.15-21.63-3.95-24.03-1.94-1.66-5.84-1.55-7.05.99-1.75,3.67-1.05,17-.41,21.42,1.43,9.83,11.53,12.49,18.42,5.59,2.33,5.12-3.13,16.37-9.55,14.58Z"/>
    <path class="cls-117" d="M144.87,73.22c3.66-27.01-29.38-41.9-42.91-14.42.01,1.46.57,2.57,2,3,4.74-11.72,18.59-19.77,29.33-9.83,9.24,8.55,2.55,12.33-6.12,16.54-7.21,3.5-16.02,6.12-24.06,5.15-1.7-2.82-.8-5.86-.15-8.86l-.93-.45c.88,2.24-1.84,2.49-1.88,2.92-.21,2.07.52,6-.19,8.53,5.26,23.58,41.8,20.35,44.91-2.58ZM104.97,77.8c2.03.56,4.71-.99,6.35-.72,1.48.24,3.92,3.02,6.39,3.51,13.85,2.73,14.38-15.05,20.91-15.67,5.24-.5,1.03,12.33-.81,15.22-7.65,11.98-27.99,11.8-32.83-2.33Z"/>
    <path class="cls-117" d="M99.97,75.8c-.14-.61-.26-1.18-.37-1.72.07.76.19,1.36.37,1.72Z"/>
    <path class="cls-20" d="M381.89,136.13c1.38,2.14,6.33,2.37,7.58-.34.41-8.62,4.36-26.99-4.58-32.41-6.9-4.19-14.37,3-14.91,2.42-.44-.48.29-4.72-3.56-5.05-1.51-.13-4.08,1.26-4.45,2.55v33c15.63,7.75,3.71-19.26,12.62-24.38,12.36-7.11,4.89,20.46,7.31,24.21Z"/>
    <path class="cls-20" d="M286.33,99.91c-7.02-2.35-7.31,9.53-7.42,14.34-.32,15.04,4.96,27.61,21.04,16.55-.02,3.21,3.72,7.21,6.99,5.55,4.02-2.05.28-9.31.04-13.07-.31-4.77,1-18.38-.51-21.49-1.08-2.22-5.77-2.97-7.07-1.06-1.59,2.35-.9,15.19-1.91,19.09-.94,3.62-6.34,10.28-9.36,5.29-3.42-5.66,2.74-23.69-1.8-25.21Z"/>
    <path class="cls-20" d="M399.27,134.49c4.39,3.98,12.55,2.87,16.74-1.14,13.08-12.53,2.22-41.36-13.97-29.97-8.25,5.8-10.06,24.5-2.76,31.12ZM411.72,111.04c4.17,4.32,1.92,19.62-5.05,17.62-8.3-2.37-1.85-24.77,5.05-17.62Z"/>
    <path class="cls-19" d="M192.9,50.36c-.68-4.24-5.93-12.71-10.94-12.55.73,3.25,6.4,6.13,4.09,9.52-2.53,3.72-23.07,11.4-25.98,9.36-.64-.45-2.12-7.74-2.04-9.25.3-6.22,5.04-12.04,11.42-12.67,1.72-.17,12.31,2.12,9.51-.95-.26-.29-5.46-1.92-6.47-2.04-19.05-2.2-23.21,18.36-13.53,31.52,12.47,16.95,37.68,10.3,33.94-12.94ZM161.97,59.81c2.39.94,5.95-2.14,7.35-1.86,1.91.38,3.7,4.54,8.89,3.67,6.14-1.02,7.24-7,10.74-10.83,5.48,19.04-18.79,24-26.99,9.01Z"/>
    <path class="cls-151" d="M49.97,56.8c-.26,7.21-2.76,13.86-4,21,2.62.3,2.37,1.01,0,2,.07.26,1.36.94,1.54,1.91.95,4.94,1.04,10.58,3.46,15.09,0-.12,0-.23,0-.35-.03-.46-.13-1,0-1.34-.04-2.05-.29-4.16-.76-6.31-.47-2.78-.48-5.42,2.76-4-2.92-5.07-2.32-13.15,1-18,.13-2.93-1.04-9.92-1-11,.11,2.87-1.34,3.33-3,1Z"/>
    <path class="cls-151" d="M52.97,55.8l-3,1c1.66,2.33,3.11,1.87,3-1Z"/>
    <path class="cls-151" d="M50.97,96.45c0,.12,0,.23,0,.35.01-.1,0-.22,0-.35Z"/>
    <path class="cls-151" d="M45.97,79.8c2.37-.99,2.62-1.7,0-2-.08.46-.11,1.62,0,2Z"/>
    <path class="cls-151" d="M51.47,94.79c.56,0,.65,4.02,2.5,2,.42-.45-4.38-9.83-1-11.99-3.24-1.43-3.23,1.22-2.76,4,.47,2.16.72,4.26.76,6.31.07-.19.21-.32.5-.32Z"/>
    <path class="cls-151" d="M52.97,84.8c.15-6.11.72-11.98,1-18-3.32,4.85-3.92,12.93-1,18Z"/>
    <path class="cls-10" d="M167.96,83.81c-1.79-1.46-5.78,8.84-8.93,8.55-3.3,2.76-6.85.47-10.07.93-.94.14-2.71.54-1.98,2,1.63,3.28,13.39,1.07,16.36-.62,2.67-1.52,7.39-8.6,4.63-10.86Z"/>
    <path class="cls-10" d="M120.68,12.01c-1.49.34-9.46,6.89-10.73,8.27-1.11,1.2-.61,2.36.54,2.52,3.11.44,7.32-6.57,10.42-7.56l15.05-.96c.62-3.71-13.09-2.77-15.28-2.27Z"/>
    <path class="cls-101" d="M236.97,52.8c.91-4.91-6.69-10.11-8.52-4.99,4.24,1.33,3.67,4.6,5.52,6.99-2.05-5.93.43-4.86,3-2Z"/>
    <path class="cls-101" d="M234.95,51.81c-.31,3.52,1.4.9,2.01.99-2.57-2.86-5.05-3.93-3,2,.12-1.53-.65-3.36.99-2.99Z"/>
    <path class="cls-151" d="M202.97,79.8c-.1,1.79-.21,4.29,0,6,2.78.49,2.78-1.51,0-6Z"/>
    <path class="cls-151" d="M203.98,90.79l1.98-1.99,1,4.99c-.67-4.66,2.52-13.02-3.99-13.99,2.78,4.49,2.78,6.49,0,6,.11.9,1.89,3.06,1.01,5Z"/>
    <path class="cls-56" d="M120.99,23.3c-.14,3.07,10.37-1.97,11.97-.51.43-5.91-11.87-1.88-11.97.51Z"/>
    <path class="cls-143" d="M102.24,63.51c.36.28.57.76.73,1.29.05-.23.86-2.66,1-3-2.95,2.81-2.98.09-2-3-3.35,6.81-3.77,8.59-2.37,15.28-.37-3.96.72-12.06,2.64-10.57Z"/>
    <path class="cls-143" d="M100.15,67.27c.04-.43,2.76-.68,1.88-2.92l.93.45c-.16-.53-.37-1.01-.73-1.29-1.92-1.49-3.01,6.61-2.64,10.57.11.54.24,1.11.37,1.72.7-2.53-.02-6.46.19-8.53Z"/>
    <path class="cls-143" d="M103.97,61.8c-1.43-.43-1.99-1.54-2-3-.98,3.09-.95,5.81,2,3Z"/>
    <path class="cls-190" d="M84.47,180.8l2.51-.52-1.02-2.47c3.05.38,7.15-.55,10,0,.94.18,1.67,1.12,2,2,1.29-1.3,1.96-1.87,2.83-2.09-5.27-.15-10.55-.44-15.83-.91l-.49,4.01Z"/>
    <path class="cls-190" d="M84.97,176.8c5.28.47,10.56.77,15.83.91.89-.22,1.98-.06,4.17.09-7.03-1.51-12.83-.75-20-1Z"/>
    <path class="cls-36" d="M244.96,164.79c1.65-6.75-10.11-8.39-4.56-1.93,1.27,1.48,2.54,2.24,4.56,1.93Z"/>
    <path class="cls-140" d="M24.48,136.8c-3.69.81-.33,10.84,4.47,4.5-1.42-.85-2.5-4.93-4.47-4.5Z"/>
    <path class="cls-165" d="M539.33,123.87c-2.92-.51-3.87,4.77-2.35,5.92,2.75,2.09,7.15-5.09,2.35-5.92Z"/>
    <path class="cls-115" d="M119.67,133.68l3.29,2.11c-.43-3.27-1.05-5.23-5-5,2.09.02,2.06,1.21,1.71,2.89Z"/>
    <path class="cls-115" d="M121.01,136.42c1.45.42,1.86-.64,1.96-.62l-3.29-2.11c.36-1.67.38-2.86-1.71-2.89.22,2.14-1.91,4.19,3.04,5.62Z"/>
    <path class="cls-155" d="M25.97,128.8c-2.13,1.08-3.02-1.23-2-3-3.58,3.27-.93,6.05,3,7-1.51-.86-2.62-2.62-1-4Z"/>
    <path class="cls-155" d="M25.97,128.8c-.87-1.61-.16-1.3-2-3-1.02,1.77-.13,4.08,2,3Z"/>
    <path class="cls-155" d="M25.97,128.8c-1.62,1.38-.51,3.14,1,4-.24-.82.75-.76-1-4Z"/>
    <path class="cls-177" d="M281.97,180.8c4.38.44,8.66-1.92,10.51,2.99l1.49-3.99-1.63,1.79c-2.77-2.2-7.07-1.56-10.37-.79Z"/>
    <path class="cls-177" d="M281.97,180.8c3.3-.77,7.6-1.41,10.37.79l1.63-1.79c-2.5.1-12.02-.74-12,1Z"/>
    <path class="cls-64" d="M55.97,134.8c-2.02.5-3.69.16-5-1-.38,3,.94,4.38,4,4,.05-.67.33-2.63,1-3Z"/>
    <path class="cls-64" d="M55.97,134.8c-.27-.16-.47-1.54-1.68-1.87-1.65-.45-2.77.86-3.32.87,1.31,1.16,2.98,1.5,5,1Z"/>
    <path class="cls-93" d="M69.97,95.8c-.29-3.28.96-5.44-4-4,.78,1.63,2.12,2.96,4,4Z"/>
    <path class="cls-93" d="M65.39,94.81c.81,1.22,3.34,2.2,4.58.99-1.88-1.04-3.22-2.37-4-4,0,.46-1.56,1.53-.58,3.01Z"/>
    <path class="cls-58" d="M64.97,90.8v-4l-1.31,1.82c-2.12-1.04-1.68-.31,1.31,2.18Z"/>
    <path class="cls-58" d="M60.22,88.28c-.44,3.51,3.29,2.15,4.75,2.52-2.99-2.49-3.43-3.22-1.31-2.18l1.31-1.82c-1.2,0-4.36-1.58-4.75,1.48Z"/>
    <path class="cls-66" d="M399.96,61.79c1.78-1.78-2.43-7.97-3.87-3.37-1.34,4.25,2.96,4.29,3.87,3.37Z"/>
    <path class="cls-99" d="M131.85,132.97c-1.78-2.4-6.11.6-3.89,3.83,1.24-.32,2.8-.02,4-1-.22-.6.41-2.13-.11-2.83Z"/>
    <path class="cls-74" d="M532.47,97.78c2.26.01,3.85-6.27-.99-4.97-2.99.81-.18,4.96.99,4.97Z"/>
    <path class="cls-195" d="M261.96,164.79c3.05,2.37,5.8-4.81,2.51-4.97-1.99-.1-4.39,3.51-2.51,4.97Z"/>
    <path class="cls-85" d="M32.97,140.31c-.55,2.45,4.34,3.13,4.99,2.48,2.29-2.28-4.12-6.31-4.99-2.48Z"/>
    <path class="cls-108" d="M65.97,86.8c5.24.15,3.93-4.36,0-5,2.39,1.14,1.26,3.43,0,5Z"/>
    <path class="cls-108" d="M65.97,86.8c1.26-1.57,2.39-3.86,0-5-.05,1.2-1.91,3.14,0,5Z"/>
    <path class="cls-174" d="M88.97,154.8c1,1.76,3.68.69,5.32,1.03,1.07.22.04,2.44,3.18,1.98,1.3-.19-.44-3.1-.49-4.01-1.83,1.63-4.5,1.97-8,1Z"/>
    <path class="cls-174" d="M96.97,153.8c-2.7.39-5.31.65-8,1,3.5.97,6.17.63,8-1Z"/>
    <path class="cls-157" d="M176.97,144.79h4.99c.3-.27-.89-3.82-1.06-3.93-2.32-1.54-4.15,1.62-3.93,3.93Z"/>
    <path class="cls-113" d="M67.97,141.8c.15-2.52-1.55-1.12-2-4-.65-2.11-1.65-2.77-3-2,2.69-.28,1.82.06,2,2,.22,2.33.51,3.49-2,3,1,1.31,2.4,1.42,3,2-1.5-2.09.2-4.01,2-1Z"/>
    <path class="cls-113" d="M67.97,141.8c-1.8-3.01-3.5-1.09-2,1,.34-1.03,1.07-1.05,2-1Z"/>
    <path class="cls-113" d="M65.97,137.8c-.44-2.77.64-4.63-3-2,1.35-.77,2.35-.11,3,2Z"/>
    <polygon class="cls-44" points="16.99 134.3 21.96 136.79 19.47 131.82 16.99 134.3"/>
    <path class="cls-204" d="M149.97,138.8c1.24-2.56,2.24-2.9,3-1-.24-2.81-2.19-4.39-5-4-.13.97.14,2.07,0,3h3s-1,2-1,2Z"/>
    <path class="cls-204" d="M149.97,138.8c1.19-.01,2.32-.93,3-1-.76-1.9-1.76-1.56-3,1Z"/>
    <path class="cls-158" d="M85.97,95.8c-3.94-.61-6.41,2.05-7.02-2.23-.19-1.36-2.81-.91-2.98-.77-.85.76,1.56,3.19,2,3.99l.75-1.34c1.95,1.71,4.9.97,7.25.34Z"/>
    <path class="cls-158" d="M85.97,95.8c-2.35.63-5.31,1.38-7.25-.34l-.75,1.34c1.97-.11,7.2.84,8-1Z"/>
    <polygon class="cls-65" points="31.96 148.79 32.96 143.8 27.99 146.3 31.96 148.79"/>
    <path class="cls-188" d="M55.45,142.79c3.61-1.44,4.01-.69,3.51-4.99-1.23.31-2.8-.02-4,1,.02,1.14-.48,3.38.49,3.99Z"/>
    <path class="cls-94" d="M92.97,41.79c.24.25,4.82-1.8,4.99-2.01,2.14-2.74-5.93-4.68-4.99,2.01Z"/>
    <path class="cls-27" d="M92.74,31.57c3.48-3.59-2.73-5.13-3.77-1.26-.57,2.11,2.23,2.84,3.77,1.26Z"/>
    <path class="cls-140" d="M141.96,136.79c1.62-1.62-2.39-5.61-3.99-3.99-2.08,2.11,1.91,6.06,3.99,3.99Z"/>
    <path class="cls-30" d="M127.97,143.8c-1.96,2.02-.2,4.99,2.04,3.5.4-.27.57-1.13.94-1.79-1.93.47-2.93-.1-2.98-1.71Z"/>
    <path class="cls-30" d="M132.17,144.66c.29.06.57.11.8.14-.31-.11-.57-.15-.8-.14Z"/>
    <path class="cls-30" d="M132.17,144.66c-1.2-.23-2.83-.64-4.2-.86.05,1.61,1.05,2.18,2.98,1.71.26-.46.62-.83,1.22-.85Z"/>
    <path class="cls-141" d="M181.98,149.8c.97-.95,3.86-.85,3.99-1.01,2.18-2.44-4.89-7.62-3.99,1.01Z"/>
    <path class="cls-132" d="M125.45,131.79c3-.67.19-4.98-.99-4.98-2.91,0-2.24,5.69.99,4.98Z"/>
    <path class="cls-7" d="M206.96,144.8c-2.08-2.07-6.07,1.88-3.99,3.99,1.6,1.62,5.61-2.37,3.99-3.99Z"/>
    <path class="cls-46" d="M189.97,141.8c.23-.2,5.24-1.63,2.99-4-.66-.69-4.94,2.38-5.99,3l3,1Z"/>
    <path class="cls-114" d="M27.97,135.8c.18.38.92,1.92,1,2,1.3-2.97.96-3.64-1-2Z"/>
    <path class="cls-114" d="M27.97,135.8c1.96-1.64,2.3-.97,1,2,7.88-1.65-1.98-9.03-1-2Z"/>
    <path class="cls-185" d="M170.97,149.8h3c.22-.24,2.72-.3,3-1.51.52-2.25-2.49-2.05-3-2.49,3.35,2.76.08,3.55-3,4Z"/>
    <path class="cls-185" d="M173.79,148.64c-.41.36-2.23.21-2.82,1.15,3.08-.45,6.35-1.24,3-4-.79.67-.02,2.71-.18,2.85Z"/>
    <path class="cls-152" d="M92.48,53.81c-2.45.66-1.37,4.51.98,3.99,2.76-.62,2.98-5.05-.98-3.99Z"/>
    <path class="cls-15" d="M163.97,144.8c-3.01.52-3.4,3.4-4,4,1.33-.86,3.11-.47,6-3,.08-1.29-1.44-.77-2-1Z"/>
    <polygon class="cls-69" points="48.97 148.79 52.96 149.8 51.98 143.81 48.97 148.79"/>
    <path class="cls-70" d="M64.97,146.8c-.51-.57-4.09-5.1-5-3.99-.45.56,1.41,4.29,2,4.99l3-1Z"/>
    <path class="cls-51" d="M200.96,141.79c.59-.58-.18-3.5-1.5-3.99-5.31-1.93-1.16,6.63,1.5,3.99Z"/>
    <path class="cls-24" d="M210.97,179.8l-14,1c4.42-.01,10.23.85,14-1Z"/>
    <path class="cls-24" d="M196.97,180.8l14-1c-4.39-.03-10.25-.82-14,1Z"/>
    <path class="cls-188" d="M121.96,125.28c.46-2.11-3.26-3.21-3.99-2.48-1.93,1.93,3.18,6.18,3.99,2.48Z"/>
    <path class="cls-169" d="M73.46,90.79c3.63-.94-1.59-5.35-3.48-2.98-.96,1.2,1.35,3.54,3.48,2.98Z"/>
    <path class="cls-150" d="M491.64,165.56c-3.31-.93-7.48-4.03-4.68,1.24.71-1.17,2.28-1.57,4.68-1.24Z"/>
    <path class="cls-150" d="M491.64,165.56c-2.4-.34-3.96.07-4.68,1.24,2.53-.31,3.5-.44,6-1-.41-.02-.86-.11-1.32-.24Z"/>
    <path class="cls-111" d="M48.07,140.69c.11.17,3.57,1.45,3.89,1.1,1.04-5.52-6.28-4.98-3.89-1.1Z"/>
    <path class="cls-202" d="M170.97,149.8c-.28.87-.62.86-1,0-.08.56-1.61,1.49,0,3,.59.12,1.36-.08,2,0,1.89-1.57,1.59-2.55,2-3-1.23,1.52-2.58,2.25-3,0Z"/>
    <path class="cls-202" d="M170.97,149.8h-1c.38.86.72.87,1,0Z"/>
    <path class="cls-202" d="M173.97,149.8h-3c.42,2.25,1.77,1.52,3,0Z"/>
    <path class="cls-23" d="M145.97,149.28c.82,3.7,5.92-.56,3.99-2.49-.32,0-.87-.05-1.55-.12-1.27.29-2.75,1.23-2.44,2.6Z"/>
    <path class="cls-23" d="M148.41,146.68c.68.07,1.23.12,1.55.12-.25-.25-.87-.27-1.55-.12Z"/>
    <path class="cls-102" d="M122.48,149.81c-2.77.72.33,3.97.99,3.97,1.95,0,3.62-5.17-.99-3.97Z"/>
    <path class="cls-160" d="M254.48,66.79c1.96.45,2.24-1.77,2.49-2.99l-3-1c-.31,1.18-1.97,3.43.51,3.99Z"/>
    <path class="cls-125" d="M61.97,147.8c.62.75,1.9.81,2.61,1.36.82.64,1.35,2.59,1.89,2.63.46.03,2.05-1.98,1.47-2.95-.09-.15-1.58-.5-2.97-2.03.94,1.64-.06,1.97-3,1Z"/>
    <path class="cls-125" d="M64.97,146.8l-3,1c2.94.97,3.94.64,3-1Z"/>
    <path class="cls-38" d="M502.45,180.79c2.36-.52,1.48-4.53-.97-3.99-2.36.52-1.48,4.53.97,3.99Z"/>
    <path class="cls-96" d="M185.97,139.8l-1-3c-5.38,1.24-2.61,5.34,1,3Z"/>
    <path class="cls-51" d="M484.48,182.8c-2.36.52-1.48,4.53.97,3.99,2.36-.52,1.48-4.53-.97-3.99Z"/>
    <path class="cls-110" d="M139.45,126.79c2.36-.52,1.48-4.53-.97-3.99-2.36.52-1.48,4.53.97,3.99Z"/>
    <path class="cls-16" d="M503.48,144.8c-2.36.52-1.48,4.53.97,3.99,2.36-.52,1.48-4.53-.97-3.99Z"/>
    <path class="cls-124" d="M458.48,155.8c-2.36.52-1.48,4.53.97,3.99,2.36-.52,1.48-4.53-.97-3.99Z"/>
    <path class="cls-32" d="M497.48,138.8c-2.36.52-1.48,4.53.97,3.99,2.36-.52,1.48-4.53-.97-3.99Z"/>
    <path class="cls-182" d="M137.97,144.8c-3.04,4.05,4.29,6.5,3,1-.85,2.52-3.17,1.46-3-1Z"/>
    <path class="cls-182" d="M140.97,145.8c-1.18-.11-2.3-.92-3-1-.17,2.46,2.15,3.52,3,1Z"/>
    <path class="cls-139" d="M39.97,147.28c.64,2.82,6.23,1.67,3.99-1.47-.52-.73-4.61-1.25-3.99,1.47Z"/>
    <path class="cls-14" d="M128.48,122.8c-2.36.52-1.48,4.53.97,3.99,2.36-.52,1.48-4.53-.97-3.99Z"/>
    <path class="cls-52" d="M491.45,192.79c2.36-.52,1.48-4.53-.97-3.99-2.36.52-1.48,4.53.97,3.99Z"/>
    <path class="cls-41" d="M214.97,90.81c-1.26,1.6,2.85,4.13,3.99,2.99,1.74-1.74-2.15-5.31-3.99-2.99Z"/>
    <path class="cls-112" d="M40.12,138.06c-.05-.11-.1-.2-.15-.26.05.1.1.19.15.26Z"/>
    <path class="cls-112" d="M38.48,133.79c-.81-.02-.73,2.67-.55,3.39.28,1.11,1.94.5,2.04.62h1c-.47-.64.53-3.95-2.49-4.01Z"/>
    <path class="cls-45" d="M43.98,143.28c1.05,1.57,2.14,1.74,3.98,1.51v-2.99s-3.99,0-3.99,0v1.48Z"/>
    <path class="cls-135" d="M442.98,190.28c1.05,1.57,2.14,1.74,3.98,1.51v-2.99s-3.99,0-3.99,0v1.48Z"/>
    <path class="cls-116" d="M479.47,192.78c1.03,0,2.11-3.36,1.49-3.97-2.59-2.59-5.37,3.97-1.49,3.97Z"/>
    <path class="cls-167" d="M169.97,152.8c-1.08-.23-1.98-.62-2.99-1l.5,4.01c1.67-.05,3.23-1.96,4.49-3.01-.93.67-1.6.67-2,0Z"/>
    <path class="cls-167" d="M169.97,152.8c.4.67,1.07.67,2,0-.64-.08-1.41.12-2,0Z"/>
    <path class="cls-18" d="M251.97,186.8v2.99s3.99,0,3.99,0v-1.48c-1.06-1.57-2.15-1.74-3.99-1.51Z"/>
    <path class="cls-100" d="M491.96,180.79c.84-.67,1.14-4.56-1.48-3.99-3.09.68-.33,5.42,1.48,3.99Z"/>
    <path class="cls-141" d="M134.48,153.79h1.48s0-3.99,0-3.99h-2.99c-.23,1.84-.06,2.94,1.51,3.99Z"/>
    <path class="cls-22" d="M227.97,179.8c-4.69,4.91,2.57,8.5,1,0-.19.89-.52.86-1,0Z"/>
    <path class="cls-22" d="M228.97,179.8c-.33,0-.67,0-1,0,.48.86.81.89,1,0Z"/>
    <path class="cls-170" d="M145.96,128.81c-.67-.84-4.56-1.14-3.99,1.48.68,3.09,5.42.33,3.99-1.48Z"/>
    <path class="cls-6" d="M62.97,67.8c-.68-.25-2.12.17-3,0,1.04.42,1.97.67,3,0Z"/>
    <path class="cls-6" d="M62.46,71.81l.51-4.01c-1.03.67-1.96.42-3,0,.51,1.27-.47,3.95,2.49,4.01Z"/>
    <path class="cls-141" d="M471.97,182.8c-2.59,2.59,3.97,5.37,3.97,1.49,0-1.03-3.36-2.11-3.97-1.49Z"/>
    <path class="cls-16" d="M424.97,75.8v3.99c3.93,0,3.98-3.97,0-3.99Z"/>
    <path class="cls-162" d="M262.98,187.31c-1.06,2.95,2.23,3.23,2.98,2.48,1.32-1.31-1.74-5.93-2.98-2.48Z"/>
    <path class="cls-4" d="M373.96,184.79v-3.99c-3.93,0-3.98,3.97,0,3.99Z"/>
    <path class="cls-168" d="M338.45,184.79c2.75-.62-.24-3.97-.99-3.97-1.96-.02-1.8,4.61.99,3.97Z"/>
    <path class="cls-173" d="M463.96,63.8c-.75-.75-4.05-.46-2.98,2.48,1.24,3.45,4.3-1.17,2.98-2.48Z"/>
    <path class="cls-83" d="M132.97,131.79c3.93,0,3.98-3.97,0-3.99v3.99Z"/>
    <path class="cls-61" d="M394.98,159.8c.55,2.84.26,5.98,3.99,4.99.38-.28-3.38-5.76-3.99-4.99Z"/>
    <path class="cls-145" d="M541.97,160.8c.79-.55,3.97-1.59,3.98-2.5.03-1.74-2.51-1.41-3.98-.5,2.99.14,1.82,1.42,0,3Z"/>
    <path class="cls-145" d="M541.97,157.8v3c1.82-1.58,2.99-2.86,0-3Z"/>
    <path class="cls-2" d="M523.98,178.31c-1.06,2.95,2.23,3.23,2.98,2.48,1.32-1.31-1.74-5.93-2.98-2.48Z"/>
    <path class="cls-48" d="M240.97,61.8c-.66-.29-1.56-1.76-2.52-1.99-2.94-.71-1.68,4.46,1.52,3.99-3.24-1.85-2.53-4.07,1-2Z"/>
    <path class="cls-48" d="M240.97,61.8c-3.53-2.07-4.24.15-1,2-.52-1.75-2.41-2.16,1-2Z"/>
    <path class="cls-90" d="M467.48,60.79c2.95,1.06,3.23-2.23,2.48-2.98-1.31-1.32-5.93,1.74-2.48,2.98Z"/>
    <path class="cls-196" d="M501.97,109.8v3.99c3.93,0,3.98-3.97,0-3.99Z"/>
    <path class="cls-119" d="M160.97,133.8c-.96.8-1.72,2.34-3,3,1-.62,2.09-.99,3.26-1.11-.29-.37-.45-1-.26-1.89Z"/>
    <path class="cls-119" d="M162.72,135.65c.41.02.82.07,1.25.14.07-1.08-.29-1.37-1-2,.15.87.01,1.48-.25,1.86Z"/>
    <path class="cls-119" d="M162.72,135.65c-.4.56-1.08.56-1.49.03-1.17.13-2.26.49-3.26,1.11,2.12-.46,3.18-.11,6-1-.43-.08-.84-.12-1.25-.14Z"/>
    <path class="cls-17" d="M142.96,33.8c-.75-.75-4.05-.46-2.98,2.48,1.24,3.45,4.3-1.17,2.98-2.48Z"/>
    <path class="cls-205" d="M42.97,133.8c.68,4.46,6.05,4.29,3,0-.8,1.9-1.92,1.7-3,0Z"/>
    <path class="cls-205" d="M42.97,133.8c1.08,1.7,2.2,1.9,3,0-1-.03-2,0-3,0Z"/>
    <path class="cls-128" d="M187.97,136.8c2.44-5.41-2.95-4-2,0,.67-.02,1.33.01,2,0Z"/>
    <path class="cls-13" d="M212.97,59.79c1.59,1.59,4.58-1.4,2.99-2.99-1.59-1.59-4.58,1.4-2.99,2.99Z"/>
    <path class="cls-147" d="M520.96,171.8c-1.59-1.59-4.58,1.4-2.99,2.99,1.59,1.59,4.58-1.4,2.99-2.99Z"/>
    <path class="cls-71" d="M476.99,178.3c.01,1.03,3.31,2.11,3.98,1.49,1.91-1.77-4-4.48-3.98-1.49Z"/>
    <path class="cls-194" d="M58.97,64.8c-2.2-4.05-2.9-1.74-4,1,1.21-1.58,2.46-2.74,4-1Z"/>
    <path class="cls-194" d="M54.97,65.8l4-1c-1.54-1.74-2.79-.58-4,1Z"/>
    <path class="cls-165" d="M217.97,65.79c1.59,1.59,4.58-1.4,2.99-2.99-1.59-1.59-4.58,1.4-2.99,2.99Z"/>
    <path class="cls-178" d="M324.97,180.8c-.62.67.47,3.96,1.49,3.98,2.98.03.28-5.88-1.49-3.98Z"/>
    <path class="cls-57" d="M40.97,137.8c-.25.66-.53.74-.85.26.58,1.17,1.66,4.75,3.84,2.73,1.9-1.75-2.85-2.8-3-2.99Z"/>
    <path class="cls-57" d="M40.97,137.8h-1c.05.06.1.15.15.26.32.48.6.4.85-.26Z"/>
    <path class="cls-88" d="M64.97,137.8c-3.43-.36-4.07.29-2,3,.29-1.43.96-2.43,2-3Z"/>
    <path class="cls-88" d="M64.97,137.8c-1.04.57-1.71,1.57-2,3,2.51.49,2.22-.67,2-3Z"/>
    <path class="cls-83" d="M347.97,184.79c1.59,1.59,4.58-1.4,2.99-2.99-1.59-1.59-4.58,1.4-2.99,2.99Z"/>
    <path class="cls-172" d="M382.97,184.79c1.59,1.59,4.58-1.4,2.99-2.99-1.59-1.59-4.58,1.4-2.99,2.99Z"/>
    <path class="cls-30" d="M393.97,184.79c1.59,1.59,4.58-1.4,2.99-2.99-1.59-1.59-4.58,1.4-2.99,2.99Z"/>
    <path class="cls-25" d="M219.99,140.3c.01,1.03,3.31,2.11,3.98,1.49,1.91-1.77-4-4.48-3.98-1.49Z"/>
    <path class="cls-79" d="M18.97,69.8v4.99c1.9,0,2.58-4.33,1.99-4.99-.12-.13-1.36.05-1.99,0Z"/>
    <path class="cls-203" d="M448.97,182.8c-1.91,1.77,4,4.48,3.98,1.49-.01-1.03-3.31-2.11-3.98-1.49Z"/>
    <path class="cls-82" d="M459.99,184.3c.01,1.03,3.31,2.11,3.98,1.49,1.91-1.77-4-4.48-3.98-1.49Z"/>
    <path class="cls-12" d="M496.47,186.78c1.03-.01,2.11-3.31,1.49-3.98-1.77-1.91-4.48,4-1.49,3.98Z"/>
    <path class="cls-31" d="M73.95,79.3c.03-2.98-5.88-.28-3.98,1.49.67.62,3.96-.47,3.98-1.49Z"/>
    <path class="cls-99" d="M492.47,144.82c-2.98-.03-.28,5.88,1.49,3.98.62-.67-.47-3.96-1.49-3.98Z"/>
    <path class="cls-33" d="M185.99,189.3c-.03,2.98,5.88.28,3.98-1.49-.67-.62-3.96.47-3.98,1.49Z"/>
    <path class="cls-103" d="M451.97,165.79c1.77,1.91,4.48-4,1.49-3.98-1.03.01-2.11,3.31-1.49,3.98Z"/>
    <path class="cls-129" d="M376.97,187.8c-1.91,1.77,4,4.48,3.98,1.49-.01-1.03-3.31-2.11-3.98-1.49Z"/>
    <path class="cls-172" d="M388.97,190.79c1.59,1.59,4.58-1.4,2.99-2.99-1.59-1.59-4.58,1.4-2.99,2.99Z"/>
    <path class="cls-153" d="M454.97,191.79c1.59,1.59,4.58-1.4,2.99-2.99-1.59-1.59-4.58,1.4-2.99,2.99Z"/>
    <path class="cls-52" d="M441.47,165.78c1.03-.01,2.11-3.31,1.49-3.98-1.77-1.91-4.48,4-1.49,3.98Z"/>
    <path class="cls-98" d="M36.47,154.78c1.03-.01,2.11-3.31,1.49-3.98-1.77-1.91-4.48,4-1.49,3.98Z"/>
    <path class="cls-159" d="M145.96,150.8c-.67-.62-3.96.47-3.98,1.49-.03,2.98,5.88.28,3.98-1.49Z"/>
    <path class="cls-46" d="M363.97,153.79c.67.62,3.96-.47,3.98-1.49.03-2.98-5.88-.28-3.98,1.49Z"/>
    <path class="cls-116" d="M496.97,150.8c-.62.67.47,3.96,1.49,3.98,2.98.03.28-5.88-1.49-3.98Z"/>
    <path class="cls-3" d="M539.96,150.8c-.23-.21-2.18.11-2.99,0v4s2.99-2.51,2.99-2.51c-.1-.54.16-1.33,0-1.48Z"/>
    <path class="cls-106" d="M187.97,119.8c-3.18-2.72-6.29,2.58-2,2-.94-1.57.47-2.34,2-2Z"/>
    <path class="cls-106" d="M187.97,119.8c-1.53-.34-2.94.43-2,2,.78-.71,1.36-.71,2-2Z"/>
    <path class="cls-92" d="M479.97,159.79c1.59,1.59,4.58-1.4,2.99-2.99-1.59-1.59-4.58,1.4-2.99,2.99Z"/>
    <path class="cls-163" d="M467.99,158.3c-.03,2.98,5.88.28,3.98-1.49-.67-.62-3.96.47-3.98,1.49Z"/>
    <path class="cls-29" d="M130.96,157.79c1.07-.94-2.03-4.06-2.99-2.99-1.5,1.69,1.28,4.5,2.99,2.99Z"/>
    <path class="cls-40" d="M116.98,155.31c-1.33,3.9,1.4,1.91,2.99,1.49l-1-2c-.15,0-1.15-1.96-1.99.51Z"/>
    <path class="cls-49" d="M497.48,118.79c2.12.81,1.77-2.69,1.48-2.99-1.74-1.74-5.1,1.6-1.48,2.99Z"/>
    <path class="cls-27" d="M473.97,153.79c1.69,1.5,4.5-1.28,2.99-2.99-.94-1.07-4.06,2.03-2.99,2.99Z"/>
    <path class="cls-127" d="M155.97,152.79c4.4,1.42,2.65-3.11,4-3.99-.36.36-3.87,1.38-4,3.99Z"/>
    <path class="cls-200" d="M353.97,190.79c.94,1.07,4.06-2.03,2.99-2.99-1.69-1.5-4.5,1.28-2.99,2.99Z"/>
    <path class="cls-154" d="M343.48,190.79c2.12.81,1.77-2.69,1.48-2.99-1.74-1.74-5.1,1.6-1.48,2.99Z"/>
    <path class="cls-67" d="M330.97,190.79c.94,1.07,4.06-2.03,2.99-2.99-1.69-1.5-4.5,1.28-2.99,2.99Z"/>
    <path class="cls-109" d="M233.48,190.79c2.12.81,1.77-2.69,1.48-2.99-1.74-1.74-5.1,1.6-1.48,2.99Z"/>
    <path class="cls-104" d="M474.97,162.8c-1.51,1.71,1.3,4.49,2.99,2.99,1.07-.96-2.05-4.06-2.99-2.99Z"/>
    <path class="cls-8" d="M275.48,189.79c2.12.81,1.77-2.69,1.48-2.99-1.74-1.74-5.1,1.6-1.48,2.99Z"/>
    <path class="cls-121" d="M186.97,140.8c-2.68,1.57,1.27,4.03,2.88,2.83.38-.28-.04-1.69.12-1.83-.5,1.84-3.21.83-3-1Z"/>
    <path class="cls-121" d="M189.97,141.8l-3-1c-.21,1.83,2.5,2.84,3,1Z"/>
    <path class="cls-33" d="M509.96,183.8c-1.69-1.5-4.5,1.28-2.99,2.99.94,1.07,4.06-2.03,2.99-2.99Z"/>
    <path class="cls-146" d="M192.96,132.79c1.07-.96-2.05-4.06-2.99-2.99-1.51,1.71,1.3,4.49,2.99,2.99Z"/>
    <path class="cls-25" d="M359.97,184.79c.94,1.07,4.06-2.03,2.99-2.99-1.69-1.5-4.5,1.28-2.99,2.99Z"/>
    <path class="cls-184" d="M237.97,184.79c.94,1.07,4.06-2.03,2.99-2.99-1.69-1.5-4.5,1.28-2.99,2.99Z"/>
    <path class="cls-59" d="M301.97,183.79c1.69,1.5,4.5-1.28,2.99-2.99-.94-1.07-4.06,2.03-2.99,2.99Z"/>
    <path class="cls-171" d="M193.97,180.8c-6.14,3.66,3.61,4.61,1,0-.19.89-.52.86-1,0Z"/>
    <path class="cls-171" d="M194.97,180.8c-.33,0-.67,0-1,0,.48.86.81.89,1,0Z"/>
    <path class="cls-107" d="M37.97,63.8v3.99c3.19-1.52,3.97-3.81,0-3.99Z"/>
    <path class="cls-55" d="M256.97,179.8c1.3,4.36,2.74,4.25,4,0-1.27,1.94-2.74,1.95-4,0Z"/>
    <path class="cls-55" d="M256.97,179.8c1.26,1.95,2.73,1.94,4,0-1.33-.02-2.67.01-4,0Z"/>
    <path class="cls-164" d="M514.96,177.8c-1.74-1.74-5.1,1.6-1.48,2.99,2.12.81,1.77-2.69,1.48-2.99Z"/>
    <path class="cls-54" d="M508.45,174.79c2.14-.48,1.15-3.47-.97-2.99-2.14.48-1.15,3.47.97,2.99Z"/>
    <path class="cls-21" d="M217.96,132.8c-1.74-1.74-5.1,1.6-1.48,2.99,2.12.81,1.77-2.69,1.48-2.99Z"/>
    <path class="cls-161" d="M229.96,132.8c-1.69-1.5-4.5,1.28-2.99,2.99.94,1.07,4.06-2.03,2.99-2.99Z"/>
    <path class="cls-26" d="M84.97,58.79c.96,1.07,4.06-2.05,2.99-2.99-1.71-1.51-4.49,1.3-2.99,2.99Z"/>
    <path class="cls-5" d="M62.97,25.8l-1-2c-.58,2.51-.25,3.18,1,2Z"/>
    <path class="cls-5" d="M59.98,28.8c1.56-.27,2.13-2.04,2.99-3-1.25,1.18-1.58.51-1-2-.4,1.06-2.9,2.6-1.99,5Z"/>
    <path class="cls-68" d="M87.45,46.81c-2.11-.76-1.82,2.62-1.48,2.99.97,1.05,4.57-1.88,1.48-2.99Z"/>
    <path class="cls-134" d="M207.98,55.8c1.92-1.04,3.63-.56,2.98-2.99h-2.99s0,2.99,0,2.99Z"/>
    <path class="cls-17" d="M256.97,60.8c.1-.67,1.38-1.79,1-2.99h-2.99c-.15.62.16,1.52,0,1.99l2,1Z"/>
    <path class="cls-186" d="M480.45,57.81c-2.11-.76-1.82,2.62-1.48,2.99.97,1.05,4.57-1.88,1.48-2.99Z"/>
    <path class="cls-89" d="M439.96,63.8c-.97-1.05-4.57,1.88-1.48,2.99,2.11.76,1.82-2.62,1.48-2.99Z"/>
    <path class="cls-50" d="M23.98,66.28c1.11,3.09,4.03-.51,2.99-1.48-.37-.34-3.74-.63-2.99,1.48Z"/>
    <path class="cls-175" d="M445.96,69.8c-.97-1.05-4.57,1.88-1.48,2.99,2.11.76,1.82-2.62,1.48-2.99Z"/>
    <path class="cls-136" d="M67.97,72.8c-.37-.19-1.41.13-2,0,.54,1.26,1.21,1.26,2,0Z"/>
    <path class="cls-136" d="M67.46,75.81c1.02.02.35-2.11.51-3.01-.79,1.26-1.46,1.26-2,0,.14.16-1.84,2.93,1.49,3.01Z"/>
    <path class="cls-75" d="M92.96,79.8c-.37-.34-3.74-.63-2.99,1.48,1.11,3.09,4.03-.51,2.99-1.48Z"/>
    <path class="cls-201" d="M221.48,99.79c2.11.76,1.82-2.62,1.48-2.99-.97-1.05-4.57,1.88-1.48,2.99Z"/>
    <path class="cls-39" d="M506.98,106.28c1.11,3.09,4.03-.51,2.99-1.48-.37-.34-3.74-.63-2.99,1.48Z"/>
    <path class="cls-166" d="M187.98,107.31c-.76,2.11,2.62,1.82,2.99,1.48,1.05-.97-1.88-4.57-2.99-1.48Z"/>
    <path class="cls-35" d="M119.45,113.81c-2.11-.76-1.82,2.62-1.48,2.99.97,1.05,4.57-1.88,1.48-2.99Z"/>
    <path class="cls-118" d="M124.45,118.81c-2.11-.76-1.82,2.62-1.48,2.99.97,1.05,4.57-1.88,1.48-2.99Z"/>
    <path class="cls-34" d="M545.96,121.79c1.05-.97-1.88-4.57-2.99-1.48-.76,2.11,2.62,1.82,2.99,1.48Z"/>
    <path class="cls-149" d="M147.97,124.79c1.54.24,3.6-.3,5,.01-.88-3.72-6.14-.52-5-.01Z"/>
    <path class="cls-189" d="M12.97,129.79c.97,1.05,4.57-1.88,1.48-2.99-2.11-.76-1.82,2.62-1.48,2.99Z"/>
    <path class="cls-138" d="M515.97,138.33c.11-1.48.44-2.66,1-3.53-2.8-.6-1.5,1.27-1,3.53Z"/>
    <path class="cls-138" d="M516.1,140.11c.37-1.89.59-3.15.86-5.31-.56.87-.89,2.05-1,3.53.13.58.2,1.19.14,1.78Z"/>
    <path class="cls-138" d="M515.97,140.8c.07-.23.11-.46.14-.69-.04.22-.09.45-.14.69Z"/>
    <path class="cls-11" d="M192.48,147.79c2.11.76,1.82-2.62,1.48-2.99-.97-1.05-4.57,1.88-1.48,2.99Z"/>
    <path class="cls-52" d="M214.97,147.79h2.99s0-2.99,0-2.99c-1.92,1.04-3.63.56-2.98,2.99Z"/>
    <path class="cls-97" d="M46.48,152.79c2.11.76,1.82-2.62,1.48-2.99-.97-1.05-4.57,1.88-1.48,2.99Z"/>
    <path class="cls-172" d="M210.48,153.79c2.11.76,1.82-2.62,1.48-2.99-.97-1.05-4.57,1.88-1.48,2.99Z"/>
    <path class="cls-144" d="M485.97,153.79c.97,1.05,4.57-1.88,1.48-2.99-2.11-.76-1.82,2.62-1.48,2.99Z"/>
    <path class="cls-142" d="M174.97,154.79c1.72.28,5.53-1.54,3.99-2.99-.88-.83-3.72,1.63-3.99,2.99Z"/>
    <path class="cls-120" d="M152.47,153.8c-1.12,1.07-2.76,2.19-2.51,3.99l3-1c.05-.82.42-2.8-.49-2.99Z"/>
    <path class="cls-181" d="M445.98,158.28c1.11,3.09,4.03-.51,2.99-1.48-.37-.34-3.74-.63-2.99,1.48Z"/>
    <path class="cls-63" d="M133.97,163.79c.97,1.05,4.57-1.88,1.48-2.99-2.11-.76-1.82,2.62-1.48,2.99Z"/>
    <path class="cls-87" d="M429.48,164.79c2.11.76,1.82-2.62,1.48-2.99-.97-1.05-4.57,1.88-1.48,2.99Z"/>
    <path class="cls-202" d="M465.45,162.81c-2.11-.76-1.82,2.62-1.48,2.99.97,1.05,4.57-1.88,1.48-2.99Z"/>
    <path class="cls-78" d="M433.98,169.28c1.11,3.09,4.03-.51,2.99-1.48-.37-.34-3.74-.63-2.99,1.48Z"/>
    <path class="cls-48" d="M530.48,174.79c2.11.76,1.82-2.62,1.48-2.99-.97-1.05-4.57,1.88-1.48,2.99Z"/>
    <path class="cls-24" d="M203.98,183.28c1.11,3.09,4.03-.51,2.99-1.48-.37-.34-3.74-.63-2.99,1.48Z"/>
    <path class="cls-122" d="M112.98,184.28c1.11,3.09,4.03-.51,2.99-1.48-.37-.34-3.74-.63-2.99,1.48Z"/>
    <path class="cls-198" d="M124.48,185.79c2.11.76,1.82-2.62,1.48-2.99-.97-1.05-4.57,1.88-1.48,2.99Z"/>
    <path class="cls-152" d="M134.97,185.79c.97,1.05,4.57-1.88,1.48-2.99-2.11-.76-1.82,2.62-1.48,2.99Z"/>
    <path class="cls-16" d="M145.98,184.28c1.11,3.09,4.03-.51,2.99-1.48-.37-.34-3.74-.63-2.99,1.48Z"/>
    <path class="cls-1" d="M532.96,183.8c-.37-.34-3.74-.63-2.99,1.48,1.11,3.09,4.03-.51,2.99-1.48Z"/>
    <path class="cls-183" d="M318.98,188.31c-.76,2.11,2.62,1.82,2.99,1.48,1.05-.97-1.88-4.57-2.99-1.48Z"/>
    <path class="cls-42" d="M244.48,190.79c2.11.76,1.82-2.62,1.48-2.99-.97-1.05-4.57,1.88-1.48,2.99Z"/>
    <path class="cls-48" d="M467.48,191.79c2.11.76,1.82-2.62,1.48-2.99-.97-1.05-4.57,1.88-1.48,2.99Z"/>
    <path class="cls-176" d="M525.48,192.79c2.11.76,1.82-2.62,1.48-2.99-.97-1.05-4.57,1.88-1.48,2.99Z"/>
    <rect class="cls-62" x="55.97" y="53.8" width="2.99" height="1.99"/>
    <rect class="cls-207" x="484.97" y="76.8" width="1.99" height="2.99"/>
    <path class="cls-48" d="M223.96,84.8c-1.51-1.51-4.26,2.97-1.49,2.97.66,0,2.07-2.4,1.49-2.97Z"/>
    <rect x="285.97" y="186.8" width="1.99" height="2.99"/>
    <path d="M196.98,98.31c-.96,2.62,2.77,1.08,2.99.48.38-1.03-2.1-2.94-2.99-.48Z"/>
    <path class="cls-53" d="M183.99,111.3c0,.66,2.4,2.07,2.97,1.49,1.51-1.51-2.97-4.26-2.97-1.49Z"/>
    <path class="cls-133" d="M531.47,198.78c.66,0,2.07-2.4,1.49-2.97-1.51-1.51-4.26,2.97-1.49,2.97Z"/>
    <rect class="cls-130" x="535.97" y="189.8" width="2.99" height="1.99"/>
    <rect class="cls-63" x="512.97" y="189.8" width="1.99" height="2.99"/>
    <rect class="cls-20" x="500.97" y="189.8" width="2.99" height="1.99"/>
    <rect class="cls-60" x="365.97" y="187.8" width="2.99" height="1.99"/>
    <rect class="cls-37" x="220.97" y="187.8" width="2.99" height="1.99"/>
    <rect class="cls-137" x="208.97" y="187.8" width="2.99" height="1.99"/>
    <rect class="cls-21" x="197.97" y="187.8" width="2.99" height="1.99"/>
    <path class="cls-192" d="M153.46,128.79c2.16-1.33,1.86-3.47-.5-4,.26,1.12-.65,3.37.5,4Z"/>
    <path class="cls-99" d="M427.97,183.8c-1.54,1.53,2.82,3.19,2.98,2.99,1-1.23-2.03-3.94-2.98-2.99Z"/>
    <path class="cls-20" d="M162.97,133.8c-1.99-1.77-1.01-.82-2,0,.67.69,1.33.69,2,0Z"/>
    <path class="cls-20" d="M161.23,135.69c.48-.05.98-.06,1.49-.03.26-.37.4-.98.25-1.86-.67.69-1.33.69-2,0-.18.88-.03,1.51.26,1.89Z"/>
    <path class="cls-20" d="M161.23,135.69c.41.53,1.09.53,1.49-.03-.51-.03-1.01-.02-1.49.03Z"/>
    <path class="cls-89" d="M406.47,185.78c.66,0,2.07-2.4,1.49-2.97-1.51-1.51-4.26,2.97-1.49,2.97Z"/>
    <rect class="cls-12" x="502.97" y="133.8" width="1.99" height="2.99"/>
    <rect class="cls-80" x="312.97" y="181.8" width="2.99" height="1.99"/>
    <path class="cls-180" d="M180.97,181.8c-1.51,1.51,2.97,4.26,2.97,1.49,0-.66-2.4-2.07-2.97-1.49Z"/>
    <path class="cls-77" d="M72.97,176.8c-.69,4.52,2.73,4.38,2,0-.31,1.9-1.1,1.79-2,0Z"/>
    <path class="cls-77" d="M72.97,176.8c.9,1.79,1.69,1.9,2,0-.66-.03-1.34.03-2,0Z"/>
    <rect class="cls-20" x="209.97" y="138.8" width="1.99" height="2.99"/>
    <rect class="cls-156" x="507.97" y="139.8" width="2.99" height="1.99"/>
    <rect class="cls-47" x="94.97" y="166.8" width="1.99" height="2.99"/>
    <path class="cls-6" d="M186.98,149.8l-1.01,2.99h2.99c.65-1.23-1.58-3.47-1.98-2.99Z"/>
    <rect class="cls-12" x="122.97" y="160.8" width="1.99" height="2.99"/>
    <path class="cls-63" d="M90.47,160.82c-.66,0-2.07,2.4-1.49,2.97,1.51,1.51,4.26-2.97,1.49-2.97Z"/>
    <rect class="cls-20" x="451.97" y="150.8" width="1.99" height="2.99"/>
    <rect class="cls-91" x="58.97" y="154.8" width="2.99" height="1.99"/>
    <path class="cls-84" d="M490.97,158.3l3.99.49c-.91-2.43-2.45-2.67-3.99-.49Z"/>
    <rect class="cls-81" x="105.97" y="154.8" width="2.99" height="1.99"/>
    <path class="cls-126" d="M536.97,157.79c-1.15-3.79-2.24-4.04-2.99,0h2.99Z"/>
    <rect class="cls-158" x="138.97" y="155.8" width="1.99" height="2.99"/>
    <path class="cls-116" d="M149.97,157.8c.19,1.39,2.8,2.49,3-1-.54,1.26-1.88,2.05-3,1Z"/>
    <path class="cls-116" d="M152.97,156.8l-3,1c1.12,1.05,2.46.26,3-1Z"/>
    <path class="cls-188" d="M68.97,151.8v1.99s2.99,0,2.99,0c-.34-1.45-1.61-2.29-2.99-1.98Z"/>
    <path class="cls-179" d="M266.97,160.79h1.99c.31-1.38-.54-2.66-1.98-2.99v2.99Z"/>
    <path class="cls-108" d="M523.97,168.79h1.99s-.49-2.99-.49-2.99c-1.06.91-1.82,1.52-1.5,2.99Z"/>
    <path class="cls-191" d="M193.97,143.79h2.99s0-1.98,0-1.98c-1.38-.31-2.66.54-2.99,1.98Z"/>
    <path class="cls-76" d="M149.97,169.79c1.38.31,2.66-.54,2.99-1.98h-2.99s0,1.98,0,1.98Z"/>
    <path class="cls-197" d="M63.47,179.78c1.5,0,1.5-2.96,0-2.96s-1.5,2.96,0,2.96Z"/>
    <path class="cls-20" d="M95.97,177.8v2.99c1.91.55,1.69-.68,2-.99-.95.33-1.62-.33-2-2Z"/>
    <path class="cls-20" d="M95.97,177.8c.38,1.67,1.05,2.33,2,2-.33-.88-1.06-1.82-2-2Z"/>
    <path class="cls-193" d="M268.97,179.8c-.35,4.67,2.09,4.36,2,0-.31,1.9-1.1,1.79-2,0Z"/>
    <path class="cls-193" d="M268.97,179.8c.9,1.79,1.69,1.9,2,0-.67-.02-1.33.02-2,0Z"/>
    <path class="cls-73" d="M416.97,185.79h1.99s-.49-2.99-.49-2.99c-1.06.91-1.82,1.52-1.5,2.99Z"/>
    <path class="cls-199" d="M92.97,183.81h-2.99s0,1.98,0,1.98c1.38.31,2.66-.54,2.99-1.98Z"/>
    <path class="cls-185" d="M103.96,185.79v-1.99s-2.99.49-2.99.49c.91,1.06,1.52,1.82,2.99,1.5Z"/>
    <path class="cls-95" d="M518.98,186.8c1.45-.34,2.29-1.61,1.98-2.99h-1.99s0,2.99,0,2.99Z"/>
    <path class="cls-95" d="M460.97,197.79c1.38.31,2.66-.54,2.99-1.98h-2.99s0,1.98,0,1.98Z"/>
    <path class="cls-183" d="M490.97,85.79h1.99s-.49-2.99-.49-2.99c-1.06.91-1.82,1.52-1.5,2.99Z"/>
    <path class="cls-72" d="M66.47,65.78c1.5,0,1.5-2.96,0-2.96s-1.5,2.96,0,2.96Z"/>
    <path class="cls-148" d="M410.47,60.79l.49-2.99h-1.99c-.32,1.47.44,2.08,1.5,2.99Z"/>
    <path class="cls-131" d="M70.97,52.8c.31-.52.4-2.15,1.01-2.99h-3.01c1.45.11,2.11,1.11,2,2.99Z"/>
    <path class="cls-131" d="M70.97,52.8c.11-1.89-.55-2.89-2-3,.61.87.74,2.36,2,3Z"/>
    <path class="cls-105" d="M68.23,141.28c.2-.25.41-.16.63.27,0-.04-.01-.08-.02-.12-.13-.42-.28-.81-.46-1.17.02.33-.02.68-.15,1.01Z"/>
    <path class="cls-105" d="M68.38,140.27c.18.36.33.75.46,1.17-.07-1.25,1.49-4.78-2.87-3.64,1.3.12,2.33,1.24,2.41,2.47Z"/>
    <path class="cls-105" d="M68.23,141.28c-.07.18-.15.35-.26.52.34.02.96-.07,1,0-.06-.05-.09-.14-.11-.24-.21-.43-.42-.52-.63-.27Z"/>
    <path class="cls-105" d="M67.97,141.8c.09-.24.17-.41.26-.52.13-.34.17-.68.15-1.01-.55-1.08-1.35-1.92-2.41-2.47.45,2.88,2.15,1.48,2,4Z"/>
    <path class="cls-105" d="M68.38,140.27c-.09-1.24-1.11-2.35-2.41-2.47,1.07.55,1.86,1.39,2.41,2.47Z"/>
    <path class="cls-105" d="M67.97,141.8c.11-.17.2-.34.26-.52-.09.11-.18.28-.26.52Z"/>
    <path class="cls-86" d="M64.97,124.8c-1.16-.06-2.16.27-3,1,1.6-.32,2.07-.73,3-1Z"/>
    <path class="cls-86" d="M61.97,125.8c.21-1.99,1.81-2.57,3-1-1.65-3.34-3.56-2.92-3,1Z"/>
    <path class="cls-86" d="M61.97,125.8c.84-.73,1.84-1.06,3-1-1.19-1.57-2.79-.99-3,1Z"/>
    <path class="cls-151" d="M53.97,90.8l-1-5c.03,1.77-.43,3.54,1,5Z"/>
    <path class="cls-151" d="M52.97,85.8l1,5c-.16-1.57.69-4.14-1-5Z"/>
    <path class="cls-187" d="M59.96,85.79l-3.48-4.99c-3.6,3.2-.58,5.7,3.48,4.99Z"/>
    <path class="cls-67" d="M56.97,90.8c-1.1,8.08,6.1,4.11,3.99,1-.12-.17-3.8-1.22-3.99-1Z"/>
    <path class="cls-43" d="M62.47,81.78c1.35-.03,2.05-4.42,1.49-4.97-2.56-2.55-6.71,5.09-1.49,4.97Z"/>
    <path class="cls-206" d="M57.45,71.8c-2.97-.67-2.38,4.34-1.48,4.99,2.22,1.59,4.6-4.28,1.48-4.99Z"/>
    <path class="cls-9" d="M80.96,111.8c-1.69-1.5-4.5,1.28-2.99,2.99.94,1.07,4.06-2.03,2.99-2.99Z"/>
  </g>
</svg>