<?xml version="1.0" encoding="UTF-8"?>
<svg id="Layer_2" data-name="Layer 2" xmlns="http://www.w3.org/2000/svg" viewBox="0 0 429.04 234.13">
  <defs>
    <style>
      .cls-1 {
        fill: #3c3c3d;
      }

      .cls-2 {
        fill: #7d7d7e;
      }

      .cls-3 {
        fill: #323232;
      }

      .cls-4 {
        fill: #2c2c2d;
      }

      .cls-5 {
        fill: #2b2b2b;
      }

      .cls-6 {
        fill: #111211;
      }

      .cls-7 {
        fill: #4b4b4c;
      }

      .cls-8 {
        fill: #1b1b1a;
      }

      .cls-9 {
        fill: #090809;
      }

      .cls-10 {
        fill: #454547;
      }

      .cls-11 {
        fill: #2b2b2c;
      }

      .cls-12 {
        fill: #303031;
      }

      .cls-13 {
        fill: #2a2829;
      }

      .cls-14 {
        fill: #010101;
      }

      .cls-15 {
        fill: #21201f;
      }

      .cls-16 {
        fill: #010000;
      }

      .cls-17 {
        fill: #545456;
      }

      .cls-18 {
        fill: #151515;
      }

      .cls-19 {
        fill: #545455;
      }

      .cls-20 {
        fill: #232321;
      }

      .cls-21 {
        fill: #5a585b;
      }

      .cls-22 {
        fill: #2f2f2f;
      }

      .cls-23 {
        fill: #232323;
      }

      .cls-24 {
        fill: #3f4040;
      }

      .cls-25 {
        fill: #292929;
      }

      .cls-26 {
        fill: #414141;
      }

      .cls-27 {
        fill: #393939;
      }

      .cls-28 {
        fill: #49484a;
      }

      .cls-29 {
        fill: #414040;
      }

      .cls-30 {
        fill: #363636;
      }

      .cls-31 {
        fill: #3f3f40;
      }

      .cls-32 {
        fill: #2a2a2b;
      }

      .cls-33 {
        fill: #232221;
      }

      .cls-34 {
        fill: #353435;
      }

      .cls-35 {
        fill: #6e6c70;
      }

      .cls-36 {
        fill: #1c1c1d;
      }

      .cls-37 {
        fill: #242422;
      }

      .cls-38 {
        fill: #89898a;
      }

      .cls-39 {
        fill: #343334;
      }

      .cls-40 {
        fill: #191819;
      }

      .cls-41 {
        fill: #4d4c4c;
      }

      .cls-42 {
        fill: #232222;
      }

      .cls-43 {
        fill: #282728;
      }

      .cls-44 {
        fill: #232424;
      }

      .cls-45 {
        fill: #1c1c1c;
      }

      .cls-46 {
        fill: #6f6e6f;
      }

      .cls-47 {
        fill: #4d4e4e;
      }

      .cls-48 {
        fill: #3f3f3e;
      }

      .cls-49 {
        fill: #908f90;
      }

      .cls-50 {
        fill: #454545;
      }

      .cls-51 {
        fill: #454546;
      }

      .cls-52 {
        fill: #29292a;
      }

      .cls-53 {
        fill: #2c2c2c;
      }

      .cls-54 {
        fill: #1a1a19;
      }

      .cls-55 {
        fill: #9fa0a0;
      }

      .cls-56 {
        fill: #282929;
      }

      .cls-57 {
        fill: #171616;
      }

      .cls-58 {
        fill: #262526;
      }

      .cls-59 {
        fill: #3a3a3b;
      }

      .cls-60 {
        fill: #484547;
      }

      .cls-61 {
        fill: #0d0c0d;
      }

      .cls-62 {
        fill: #1e1e1e;
      }

      .cls-63 {
        fill: #0d0d0d;
      }

      .cls-64 {
        fill: #141415;
      }

      .cls-65 {
        fill: #313232;
      }

      .cls-66 {
        fill: #1d1d1d;
      }

      .cls-67 {
        fill: #2c2b2c;
      }

      .cls-68 {
        fill: #424243;
      }

      .cls-69 {
        fill: #3e3e3e;
      }

      .cls-70 {
        fill: #616061;
      }

      .cls-71 {
        fill: #212121;
      }

      .cls-72 {
        fill: #a09fa0;
      }

      .cls-73 {
        fill: #252523;
      }

      .cls-74 {
        fill: #5c5c5c;
      }

      .cls-75 {
        fill: #9d9d9d;
      }

      .cls-76 {
        fill: #3a3a3a;
      }

      .cls-77 {
        fill: #100f10;
      }

      .cls-78 {
        fill: #3c3c3e;
      }

      .cls-79 {
        fill: #373737;
      }

      .cls-80 {
        fill: #2d2c2c;
      }

      .cls-81 {
        fill: #3d3d3d;
      }

      .cls-82 {
        fill: #545556;
      }

      .cls-83 {
        fill: #272727;
      }

      .cls-84 {
        fill: #575757;
      }

      .cls-85 {
        fill: #020101;
      }

      .cls-86 {
        fill: #303030;
      }

      .cls-87 {
        fill: #222121;
      }

      .cls-88 {
        fill: #4f4f4f;
      }

      .cls-89 {
        fill: #242324;
      }

      .cls-90 {
        fill: #2f2f2e;
      }

      .cls-91 {
        fill: #222122;
      }

      .cls-92 {
        fill: #929292;
      }

      .cls-93 {
        fill: #141414;
      }

      .cls-94 {
        fill: #212120;
      }

      .cls-95 {
        fill: #545354;
      }

      .cls-96 {
        fill: #3f3d3f;
      }

      .cls-97 {
        fill: #282727;
      }

      .cls-98 {
        fill: #1e1d1e;
      }

      .cls-99 {
        fill: #020202;
      }

      .cls-100 {
        fill: #1e1e1f;
      }

      .cls-101 {
        fill: #262525;
      }

      .cls-102 {
        fill: #181717;
      }

      .cls-103 {
        fill: #161516;
      }

      .cls-104 {
        fill: #333233;
      }

      .cls-105 {
        fill: #343435;
      }

      .cls-106 {
        fill: #515152;
      }

      .cls-107 {
        fill: #252425;
      }

      .cls-108 {
        fill: #2e2e2f;
      }

      .cls-109 {
        fill: #121312;
      }

      .cls-110 {
        fill: #262626;
      }

      .cls-111 {
        fill: #656263;
      }

      .cls-112 {
        fill: #171715;
      }

      .cls-113 {
        fill: #252424;
      }

      .cls-114 {
        fill: #363535;
      }

      .cls-115 {
        fill: #2d2b2c;
      }

      .cls-116 {
        fill: #646464;
      }

      .cls-117 {
        fill: #535354;
      }

      .cls-118 {
        fill: #2b2c2d;
      }

      .cls-119 {
        fill: #1a1919;
      }

      .cls-120 {
        fill: #242424;
      }

      .cls-121 {
        fill: #2e2d2e;
      }

      .cls-122 {
        fill: #302f30;
      }

      .cls-123 {
        fill: #040404;
      }

      .cls-124 {
        fill: #363536;
      }

      .cls-125 {
        fill: #393838;
      }

      .cls-126 {
        fill: #2a2929;
      }

      .cls-127 {
        fill: #2f2e2e;
      }

      .cls-128 {
        fill: #565656;
      }

      .cls-129 {
        fill: #2f2f30;
      }

      .cls-130 {
        fill: #939594;
      }

      .cls-131 {
        fill: #272626;
      }

      .cls-132 {
        fill: #3c3d3d;
      }

      .cls-133 {
        fill: #2a292a;
      }

      .cls-134 {
        fill: #494a4b;
      }

      .cls-135 {
        fill: #1f1f1e;
      }

      .cls-136 {
        fill: #3c3d3c;
      }

      .cls-137 {
        fill: #2e2e2e;
      }

      .cls-138 {
        fill: #292828;
      }

      .cls-139 {
        fill: #353537;
      }

      .cls-140 {
        fill: #3a393a;
      }

      .cls-141 {
        fill: #1d1c1c;
      }

      .cls-142 {
        fill: #292829;
      }

      .cls-143 {
        fill: #282829;
      }

      .cls-144 {
        fill: #282828;
      }

      .cls-145 {
        fill: #4a4a4a;
      }

      .cls-146 {
        fill: #242425;
      }

      .cls-147 {
        fill: #0c0c0c;
      }

      .cls-148 {
        fill: #100f0f;
      }

      .cls-149 {
        fill: #4a494a;
      }

      .cls-150 {
        fill: #434344;
      }

      .cls-151 {
        fill: #1f1f1f;
      }

      .cls-152 {
        fill: #2e2d2d;
      }

      .cls-153 {
        fill: #1f1e1f;
      }

      .cls-154 {
        fill: #151514;
      }

      .cls-155 {
        fill: #383838;
      }

      .cls-156 {
        fill: #2a2a2a;
      }

      .cls-157 {
        fill: #424242;
      }

      .cls-158 {
        fill: #282826;
      }

      .cls-159 {
        fill: #3e3e3f;
      }

      .cls-160 {
        fill: #414240;
      }

      .cls-161 {
        fill: #201f20;
      }

      .cls-162 {
        fill: #393a3a;
      }

      .cls-163 {
        fill: #131313;
      }

      .cls-164 {
        fill: #252526;
      }

      .cls-165 {
        fill: #2d2d2e;
      }

      .cls-166 {
        fill: #504e4e;
      }

      .cls-167 {
        fill: #202020;
      }

      .cls-168 {
        fill: #474748;
      }

      .cls-169 {
        fill: #0a0a0a;
      }

      .cls-170 {
        fill: #252525;
      }

      .cls-171 {
        fill: #1a191a;
      }

      .cls-172 {
        fill: #383738;
      }

      .cls-173 {
        fill: #201f1f;
      }

      .cls-174 {
        fill: #373636;
      }

      .cls-175 {
        fill: #191919;
      }

      .cls-176 {
        fill: #3d3d3e;
      }

      .cls-177 {
        fill: #39383a;
      }

      .cls-178 {
        fill: #313131;
      }

      .cls-179 {
        fill: #353535;
      }

      .cls-180 {
        fill: #323132;
      }

      .cls-181 {
        fill: #333;
      }

      .cls-182 {
        fill: #0f0f0e;
      }

      .cls-183 {
        fill: #252524;
      }

      .cls-184 {
        fill: #212021;
      }

      .cls-185 {
        fill: #242323;
      }

      .cls-186 {
        fill: #161515;
      }

      .cls-187 {
        fill: #1c1b1a;
      }

      .cls-188 {
        fill: #1e1d1d;
      }

      .cls-189 {
        fill: #1a1a1a;
      }

      .cls-190 {
        fill: #302f2f;
      }

      .cls-191 {
        fill: #0f0f0f;
      }

      .cls-192 {
        fill: #1a1a1b;
      }

      .cls-193 {
        fill: #161616;
      }

      .cls-194 {
        fill: #181818;
      }

      .cls-195 {
        fill: #3e3d3d;
      }

      .cls-196 {
        fill: #4a4a4b;
      }

      .cls-197 {
        fill: #222;
      }

      .cls-198 {
        fill: #434343;
      }

      .cls-199 {
        fill: #3e3d3e;
      }

      .cls-200 {
        fill: #767576;
      }

      .cls-201 {
        fill: #807f80;
      }

      .cls-202 {
        fill: #2b292b;
      }

      .cls-203 {
        fill: #333334;
      }

      .cls-204 {
        fill: #49494a;
      }
    </style>
  </defs>
  <g id="Layer_1-2" data-name="Layer 1">
    <path class="cls-16" d="M94.57,83.08c-.06,0-.13,0-.19,0-.02.04-.04.07-.07.11.1-.03.18-.07.25-.11Z"/>
    <path class="cls-16" d="M158.34,216.17c-1.79.07-3.31.32-4.21,1.03,1.37-.4,2.77-.74,4.21-1.03Z"/>
    <path class="cls-16" d="M94,83.24l-.96-.13c.16.04.32.07.48.1.18.03.34.03.48.03Z"/>
    <path class="cls-16" d="M204.96,182.05c-.57-.08-1.13-.14-1.66-.18-1.15.1-2.25.19-3.26.25,1.69.06,3.32.02,4.92-.07Z"/>
    <path class="cls-16" d="M174.04,137.12c.38.07.73.13,1.07.19.05,0,.11,0,.16-.02-.44-.04-.87-.11-1.23-.17Z"/>
    <path class="cls-16" d="M42.98,39.03c-.09,0-.19.01-.28.02.11.02.22.04.34.06l-.06-.07Z"/>
    <path class="cls-16" d="M6.08,66.45c.12-.67.23-1.21.31-1.66-.23.68-.45,1.34-.64,1.95.18-.11.31-.2.32-.29Z"/>
    <path class="cls-16" d="M24.27,43.24c-.55.28-1.1.56-1.63.86.25-.05.49-.12.72-.21.39-.15.68-.38.91-.66Z"/>
    <path class="cls-16" d="M4.61,71.12c-.03.15-.07.31-.1.46l.53.53c-.17-.36-.31-.68-.43-.99Z"/>
    <path class="cls-16" d="M189.32,217.06c.57-.24,1.14-.54,1.72-.95-.76.12-1.31.47-1.72.95Z"/>
    <path class="cls-16" d="M35.05,207.08c.69.05,1.36.06,1.99.04-.9-.38-1.52-.3-1.99-.04Z"/>
    <path class="cls-16" d="M71.04,216.12c-.26.07-.47.16-.66.26.23-.07.45-.16.66-.26Z"/>
    <path class="cls-16" d="M.01,119.03s0,.05-.01.08h.03s-.01-.05-.02-.08Z"/>
    <path class="cls-16" d="M5.61,108.18c-10.69,16.33-3.37,27.85,2.43,43.93,1.21,3.34,3.05,6.63,4,10,.78,2.76,2.4,6.49,0,9,0,.67,0,1.33,0,2,0,3.49-.36,7.66,0,11,.62,5.83,8.22,13.57,13,17,2.61,1.87,11.73,5.39,12,6,.3.69-.42,2.46,1,3,2.24-1.45,16.01.72,18.34,1.97,1.04.56.46,2.16.96,2.66,5.22,5.29,4.58-.48,7.19-.74,4.23-.42,5.09,1.76,6.51,2.11,2.71.67,6.65-2.53,10,1,1.36,1.43.96,3.2,1.55,4.95.23.68,1.42.94,1.45,1.05,1.38-.43,3.17.95,4,1,3.22.18,4.23-.26,6-3-1.53-4.3,2.75-7.06,6.61-6.96,2.49.06,2.05,2.65,2.43,2.93.51.37,6.97-3.34,12.31-1.78,1.26.37,1.31,1.57,1.64,1.81,4.39-2.5,9.37.07,13,0,12.22-.22,24.41-1.64,36.71-1.94,1.4-.06,2.83-.09,4.29-.06,2.33,0,4.67,0,7,0,4.04-.5,9.55.79,13,1,2.06.13,2.79-.78,4-1,4.34-.8,5.62-2.77,9,2,.85-.16,1.8-.84,3-1-.51-3.92,8.04-4.54,7-1,.35-.03,2.5.09,4,0,0-.13.02-.24.03-.36.02-.9-.22-2.48-.04-2.64.49-.43,10.78.1,13.01,0,2.65-.11,5.35.1,8,0,4.27-.16,9.33-.86,14-1,1-.03,2,.03,3,0,2.99-.09,6.01.09,9,0,.67-.02,1.33.02,2,0,16.28-.52,32.54-1.61,48.5-2.1,4.9-.15,8.13-.8,12.02-.98,3.12-.15,4.62,1.77,6.15,1.9,1.36.11,4.12-2.73,8.33-1.82,2.58.56.69,2.23,6,1,1.58-.37,2.11-1.25,5-1,1.8.15,3.82.55,5,2,3.79-2.35,5.01-4.27,10.3-3.02,1.29.3,1.13,3.53,3.18,3.02,1.42-.36,1.25-3.47,1.65-3.84.29-.26,6.42-.44,7.25-.22,1.11.29.48,4.55,3.1,4.06,2.53-.47.34-3.88.51-3.99.43-.27,8.11-.65,10.01-1.01.79-.15,2.24-1.79,3.99-1,.21.89-.23,2.31,0,3,.07.13.11.26.14.39.97,2.55,2.42,4.49.86,7.61.3.11.71-.11,1,0,3.35-1.45,7.73-3.66,11-1,.58-.14,1.39.12,2,0,.41-3.06-4.39-10.27-3.95-12.43.48-2.34,4.58-1.23,5.95-1.57,2.87-.71,5.72-1.57,6-5-.1,0-.24-1.24-.89-.92l-.6,1.91-3.51-4c-1.8,4.19-11.12,3.89-15,4-1.04,1.66-3.8,1-5.49,1.02-10.62.13-22.96.91-33.51,1.98-.8.08-3.57.75-5,1-1.23.21-3.46,2.95-2.99-.99.64-.11,1.44.13,1.99,0,1.45-.36,2.41-.46,4-1,6.34-2.16,11.15-5.2,11.08-12.51-.02-2.05-.99-3.88-1.08-5.49-.23-.45-.41-.86-.57-1.24-1.94-3.5-5.72-4.08-9.42-5.77.82-1.88,5.99-.96,7.99-.99,1-.01,2,.02,3,0,2.99-.05,6.01.1,9,0,.67-.02,1.34.03,2,0,2.2-.09,6.77-1.99,9-1,2.09-2.22,5.65-7.56,5.62-10.51,0-1.05-1.28-2.15-1.39-3.2-.43-4.08.21-11.99-4.76-13.28-2.05-.53-1.69.98-1.24,2.25,1.15,3.28,3.49,6.15,3.57,10.22.26,13.46-6.87,10.49-17.39,10.56-1.3,0-2.28-1.04-2.42-1.04h-1c-1.06-.02-4.14,1.81-7.31,1.02-1.31-.33-1.15-3.55-3.19-3.02-1.09.29-.77,4.18-4.88,3.05-1.25-.34-1.17-3.01-1.63-4.05-.86-1.94-1.36-2.73-2-5-1.19-4.23-1.66-9.65-3-13.99,4.01-.31,8.46.46,12.41-.09,3.28-.46,6.07-2.84,9.1-2.98,4.75-.22,10.49,3.41,15.49,3.06-1.29-4.98-8.8-6.2-13-7-2.89-3.34,13.41-12.19,1-19.99l-.99,1.99c-3.54-.83-7.05-2.97-11.01-2.99v1c2.65,1.39,15.96,5.3,10.32,9.08-3.72,2.49-6.34-2.06-7.32-1.07-1.03,1.05,2.88,5.7,3.98,6.49-2.77,4.51-7.73-1.44-8.48-1.48-3.75-.18,2.83,5.03,1.48,6.95-.1.14-3.19,1.1-3.36,1.09-.79-.06-1.7-3.64-3.13-4.05l-.49,3.98c-8.63,1.65-10.93-10.09-15-15.99-.26-.37-1.31-1.07-2-2-.28-.37-.71-.64-1-1l-4,2c10.34,14.89,11.42,41.54,21.49,53.01,3.33,3.79,12.18,7.74,10.39,13.35-1.68,5.27-7.2-5.11-8.87-3.35-.41,2.48,4.23,5.42,3.89,7.35-.15.89-2.21,2.82-3.28,2.59-1.64-.34-3.94-5.87-5.11-5.93-3.29-.16,3.17,7.21-1.01,8.97-3.98,1.68-3-6.72-6.01-7.97-3.64-1.51-1.79,2.7-3.02,3.04-.74.21-6.43.14-7.46-.07-2.39-.47-1.67-2.26-1-4-.25-.16-1.47.37-1.85-.12-.46-.59-.09-2.71-.62-3.88-.83-1.8-5.27-8.74-4.52-10,.11-.19,5.17.91,2.98-1.99-.37-.5-3.86.09-4.47-.96-.77-1.3-.53-3.35-1.32-4.76-1.23-2.19-3.05-4.1-4.2-6.3-.35-.66-.66-1.36-1-2-1.85-3.43-1.64-6.3-4.28-8.56-.34-.3-1.51.49-2.17-.4-.66-.91-.5-2.55-1.58-3.52-1.06-.95-3.26-.87-4.44-1.48-1.19-.61.47-.82.46-1.04-.11-2.33-.49-4.79,3-3,.66-1.01,1.34-2,2-3-.18.09-3.59.66-4,0-2.57,1.72-6.59,4.72-9,6-.72.38-.96.67-2,1-2.14.68-11.69,2.85-13.61,2.98-5.1.33-2.78-.42-7.13.96-1.82.58-4.71.37-6.74,1.08-1.37-7.5-4.13-.27-5.21,0-7.39,1.81-7.41-3.87-8.79-3.87-.39,0-1.66,1.97-3.92,1.88-.58-.02-10.53-3.59-11-3.93-1.15-.83-.39-2.88-.6-3.09-1-.99-3.77,1.67-5.07,1.55-3.36-.3-10.68-5.31-11.56-5.46-1.16-.2-2.53,2.48-8.36.91-1.25-.34-2.47-1.27-4-1.01-1.41-1.61,4.13-4.96,5-5.99,4.35-5.15,7.94-10.16,11-16-.01-1.35.44-2.31-.99-1.99.28,3.61-.85,1.29-3.01,0-2.56,4.05-16.51,14.18-17,16-.41,1.51,1.54,1.32-1,5-.75,1.08-1.22,1.27-2,2-.62.58-.91,1.76-2,2.46-5.21,3.31-13.34,1.06-19,.54-2.85-.26-4.45-.39-6.93-.81-.37.03-.74,0-1.07-.19-.33-.06-.7.08-1,0-2.35-.62-3.52,1.55-3-3-5.13-3.01-3.84,1.47-5.55,1.88-.27.07-4.53-.7-5.45-.88-.98-.19-2.02-1.42-3.44-1.53-2.28-.18-13.62,1.41-14.55.52-.72-1.66.89-2.52.99-3,.43-1.91.58-3.07,0-5.01l1.98,1.01c3.03-7.09-10.91-4.43-15.6-4.95-1.57-.17-2.02-.95-2.39-1.06l-1.81-.68c-.22.73-.22,2.36-3.18.66l1.99-1.98c-1.15.02-2.16-.1-2.99-1.01-1.58-1.74.02-5.53-.95-7.33-.56-1.05-2.17-.4-3.11-1.32-.45-.44-5.34-10.58-5.5-11.32-.36-1.71,1.06-5.54.56-6.02-.23-.22-2.94.36-4.05-.44-1.12-.81-.83-3.22-1.5-4.52-.64-1.24-5.59-2.57-7.45-3.04-1.25-.32-2.87-.54-4.52-.9-.15-.02-.3-.06-.48-.1-1-.24-2.68.49-3.76-.21-.99-.64-.71-3.42-3.76-3.84-1.07-.15-3.06,3.8-6.48,2.05-1.39-4.64,2.51-4.4,3-5.02.33-.41-1.51-1.69-1.78-2.7-1.22-4.65,2.16-10.43,2.78-15.28-.29-.4.58-2.18-1.15-2.13-.25.08-.52.13-.85.13-.48,1.25-4.52,9.25-4.98,9.52-1.78,1.07-5.14.21-7.41.59-10.26,1.75-37.22,8.95-39.37,20.62-1.26,6.84,2.78,9.91,2.73,10.77-.08,1.55-12.83,2.36-15.4,3.56-5.75-13.85-7.87-29.34-1.45-43.44,4.94-10.84,17.86-11.17,27.65-15.35,1.23-.53,2.95-.53,3.23-2.26-9.45-.52-21.11,2.73-29,7.99-3.28,2.18-2.45,2.61-4,5-6.39,9.87-9.24,20.53-7.89,32.39.41,3.64,2.77,8.26,2.89,11.61.01.33.02.67,0,1,5.15,4.96-.28,6.78-2.43,10.07ZM203.65,142.22c24.35-2.51,44.05,15.78,68.55,14.34,7.02-.41,16.11-3.41,23.33-3.52,2.08-.03,10.2.76,11.08,2.03.72,1.04.09,3.49.54,3.94.96.95,7.61-.75,4.89,7.1,3.31-.45,4.07-.16,5.01,2.99-6.47-.12-14.18-.78-20.54-.5-2.49.11-4.67,1.91-7.98,1.6-1.88-.17-3.4-1.73-3.98-1.72-1.56,0-5.38,2.31-10.08,1.71-1.54-.2-2.05-3.83-3.42-2.08-.32.41.66,2.84-.55,3.07-1.94.36-11.55.9-10.47-2.06h-.97c.34,2.6-3.42,2.77-5.53,2.98-46.47,4.49-93.34,2.14-140.03,2.97-3.85.07-14.96,3.36-17.06-1.39-2.14-4.85-.45-15.58-2.49-21.08.23-4.59,3.24-4.14,6.09-5.49.66-.31,1.16-.7,2-1,33.2-12.01,67.29-.36,101.61-3.89ZM121.05,123.12c.95-1.12,7.04,4.82,7.99,6-.4-3.94,6.03-4.02,6.91-1.4,1.69,5.06-2.8,3.9-5.91,3.4.79,1.38,2.32,2.2,2,3.99-4.63.22-9.39.54-14,1.01-.26.03-2.03.85-4,1-1.07.08-5.01.35-5.01-.5,1.02-1.22,3.65-.14,5.01-.5.56-.15,1.42-.68,2-1,4.07-2.29,5.49-7.56,5.01-12ZM58.26,73.83c3.77-1.08,7.28-1.04,10.78-1.72.68-.13,2.18-1.74,3.68-1.83,3.53-.21.81,7.16.85,9.89l-10.34-.94c-.38-.03-.77-.06-1.19-.11-2.4.24-11.66.55-4.23,3.73,12.34,5.29,36.92-1.07,45.69,12.31,1.46,2.23,11.66,22.94,12.11,24.88.89,3.77,1.48,9.65-2.07,12.05-2.31-.02-2.53-9.9-5.99-9.99-1.27,3.02,2.8,9.56-2.16,10.88-4.89,1.29-3.12-7.56-4.36-8.87-2.55-2.7-1.86,7.73-3.65,9.1-4.69,3.61-5.23-6.08-5.35-9.1-4.65-.46-1.91,6.15-3.92,7.57-6.86,4.84-4.96-10.89-5.08-14.06-.17-4.45-1.94-6.24,0-11.51l-1-2c-4.29,3.94-14.72.46-20-.01l.5-3.97c-1.89.77-.37,2.9-.5,2.97-.43.23-5.5.19-6.48,0-2.17-.43-2.78-2.36-4.21-2.79-5.21-1.55-14.2,1.27-16.85-7.14-3.65-11.59,15.27-16.9,23.77-19.34ZM33.57,101.28c2.58.06,30.6,8.09,34.26,9.54,14.02,5.54,8.14,9.27,10.7,20.32,1.24,5.34,7.02,4.54,9.23,12.74,4.1,15.22-5.86,37.75,16.74,39.26,5.25.35,9.58-1.09,14.04-1.12,11.7-.09,24.58.62,35.99,1,15.46.52,30.54-.08,45.51-.92.65-.33,1.86-.36,3.26-.25,2.81-.25,5.91-.59,8.74-.75,12.51-.71,25.02-2.32,37.51-2.99,18.99-1.01,39.4.17,57.04-1.96,5.47-.66,6.7,1.85,8.92,1.98,1.29.07,1.04-8.23,7.52,1.97.64,1.01,1.5,1.51,2,3,1.64,4.82-1.07,7.06,4.34,11.66,5.57,4.73,11.57,1.37,15.66,6.33-9.25.53-18.29-1.19-27.54-1.03-69.02,1.16-138.06,12.29-206.97,7.05-3.47-.26-7.02.15-10.49,0,.05-1.99-.07-4.01,0-6.01l-2,2c-.9,4.32-.81,3.67-4.78,4.68-7.8,1.98-15.36,1.57-23.22.32-1.02-.16-1.75-.95-2-1-7.08-1.32-18.54-1.93-22.5-8-.82-.41-.13,1.83-1.12,2.05-2.72.61-12.25-3.76-15.38-5.06-.68-.28-1.32-.69-2-1-2.67-1.21-6.07-.22-7.55-4.95-2.32-7.42.69-22.48-.69-31.31-2.24-14.41-25.76-37.2-7.69-50.18,3.73-2.68,18.08-7.5,22.47-7.4Z"/>
    <path class="cls-16" d="M246.39,212.02c-1.11-.11-2.28-.12-3.55.01,1.23.04,2.41.04,3.55-.01Z"/>
    <path class="cls-16" d="M195.04,215.12c.96.11,1.94.26,2.93.45-.46-.47-1.24-.62-2.93-.45Z"/>
    <path class="cls-16" d="M340.78,209.05c.41-.29.83-.59,1.26-.93-.54.33-.95.64-1.26.93Z"/>
    <path class="cls-99" d="M144.42,8.17c.17-.01.26-.13.34-.29-.47.07-.95.16-1.42.25.36.05.71.07,1.08.04Z"/>
    <path class="cls-99" d="M67.05,45.11l17.99-.98c.27.2-2.7,5.13-3,5.99.52,1.31.82,2.39.93,3.27l.07.24c2.08-.28,4.12-8.32,6-6.49.48.46-2.58,9.75-.51,13.32.21.18.39.4.51.67.86-.02,2.2.32,2.82-.15,2.27-1.7,2.39-12.83,2.19-15.85,2.35,1.29,11.7,13.7,13.98,12,2.86-2.15-1.33-10.58-2.99-13-.35-.51-2.12-.79-2-1.99,1.59-.77,3.44.95,4,.99,3.56.26,10.07.46,13.44-.06,1.73-.27,9.03-3.71,6.05-4.93-6.95-1.56-13.95-2.12-20.99-3.01-5.16-.65,2.52-3.36,3.82-4.19,8.96-5.7,15.99-12.99,26.66-15.34,15.48-3.4,45.59.7,59.72,8.35,27.96,15.15,45.15,59.97,27.32,88.18,3.39-2.2,5.51-2.03,4,2,3.7-7.06,3.84-11.96,6.49-18.01,3.24-7.4,23.48-5.78,29.9-2.88,3.37,1.52,15.24,12.53,14.61,15.36-.73,3.31-7,1.82-8.5,2.03-4.05.56-2.69,1.08-8.07.61-.49-.04.04,1.76-1.86,1.99-1.21.15-20.47-3.07-16.56,1.9.27.34,7.25,1.88,8.51,2,21.88,2.08,46.46-8.64,68.01-6.01,5.19.63,11.55,5.81,14.48,10.02-1.2-2.68,2.17-4.18,4-2-4.95-6.22-5.09-6.97-12.64-10.85-1.44-.74-6.11-1.94-6.31-2.21-.19-.26,2.72-5.48-3.04-2.93-1.06-2.46,1.86-14.16.99-15.01-.24-.24-2.42-.39-3.01.67-.23.41-2.73,8.58-2.79,9.05-.54,4.51,3.54,7.2-4.93,9.04-5.28,1.15-13.2-.09-16.6.53-1.16.21-2.03,2.09-3.95,1.61-4.35-1.09-7.98-10.57-11.67-13.46-.91-2.13,6.89-5.37,7.86-6.04,16.19-11.24,30.29-29.71,48.99-10.79,11.75,11.89,16.82,30.4,32.11,38.39-.54-.3-.52-.64,0-1-.97-1.34-1.01-2.69,0-4-8.87-5.62-3.19-10.15,4-14,14.51-7.77,37.94-1.66,52.01,5.49,14.03,7.12,1.37,27.24.1,38.12-1.48,12.57.72,27.72-1.23,41.77-.31,2.24-1.06,6.71-1.88,8.62,1.65-.97,6.71,1.22,5,3,.33-.02.67.03,1,0,.71-3.92,1.82-8.52,2.04-12.46.53-9.36-1.83-19.4-1.03-28.03.63-6.83,3.92-14.92,4.87-22.12,1.04-7.9,1.82-17.62.12-25.38-1-1.13-2.21-2.71-3-4l-13-9c-3.87-.72-6.23-2.36-9-3-11.68-2.68-22.33-2.8-33.99,0,1.19-8.82,1.4-16.33-1.01-25-.79-2.84-2.86-6.81-4-10-5.39-5.42-10.23-12.22-17-16-.65-.36-1.33-.68-2-1-3.04-1.46-7.24-1.88-10-4-.33-.02-.67.01-1,0-3.91-.17-8.4-2.39-12.62-2.88-11.12-1.28-22.21-.96-33.38-1.12-12.28-.17-24.72-.22-37,0-9.77.18-20.33.87-30.54.95-1.89.02-4.58,1.29-5.81.94-.6-.17-6.66-7.32-8.65-8.89-.8-.63-3.37-2.61-4-3-2.58-1.61-9.23-4.95-12-6-1.6-.6-4.98-1.4-7-2-1.94-.57-5.27-1.62-7-2-1.57-.35-3.43-.72-5-1-12.27-2.21-22.74-2.01-35,0-2.68.44-5.33,1.42-8,2-1.53,1.62-3.9,1.91-6,2-.33.02-.67-.02-1,0-7.46,3.27-15.04,6.2-20.99,12,1.96-8.62,5.67-17.12,5.99-26-2.98-.65-3.31,1.66-4,2-4.11,7.34-8.69,14.48-10.01,22.99l-5.99-15.99c-1.21-.26-1.95-4.66-5.05-2.52-.78.54-.67,2.19-.95,2.52-.35,6.33,1.96,12.21,3.99,18l-13.99-7c-.72.11-3.93-.74-2.99,1.49,1.35,3.19,9.83,8.59,12.99,10.51,1.35.82,3.54,1.12,4,2.99-1.68.13-3.42.46-5,1.01-1.6.56-3.52,1.23-5,2-1,.52-8.84,5.39-6.99,6.99ZM241.04,85.12l-5.99,2c-.24-3.25.31-6.79,0-10-.47-4.8-1.95-9.12-2.85-13.66-.83-4.17,7.95,2.3,8.88,3.14,3.23,2.93,6.78,9.46,10.6,11.4,6.3,3.21,15.14-1.36,15.37,10.12l-26-2.99ZM283.58,35.07c14.92.48,52.93,2.55,65.17,9.83,8.98,5.35,15.29,22.64,15.38,32.71.08,8.88-1.94,18.31-9.59,23.48-2.73-1.09-1.95-4.71-2.7-5.78-.56-.8-2.83-.53-3.58-1.43-.78-.93-.39-3.44-1.45-4.56-.68-.72-2.53-.61-3.49-1.49-3.67-3.34-7.6-10.5-12.76-14.75-22.57-18.61-37.57,7.18-56.52,14.02-.93.34-1.54,1.42-3,1-1.83-.83-.66-3.65-1-5-.34-1.35-2.12-5.44-2.96-6.33-.69-.74-3.19-1.63-5.04-3.67-.61.13-1.08.19-1.43.18-1.27,2.74-.77,1.09-3.57.81l4-2.99c-5.68-6.14-7.36-1.07-10.96-2.49-4.92-1.95-12.66-11.8-20.8-11.76l-13.25-21.74c22.46.57,45.08-.78,67.54-.05Z"/>
    <path class="cls-99" d="M428.04,107.12c.05.05.12.1.21.15-.07-.05-.13-.1-.21-.15Z"/>
    <path class="cls-99" d="M223.54,30.77c-.8.07-1.59.15-2.39.23.72.07,1.24.11,1.34.09.35-.04.69-.16,1.04-.33Z"/>
    <path class="cls-99" d="M383.48,87.97c-.32.07-.65.15-.99.22.04,0,.1,0,.13,0,.39,0,.67-.08.87-.22Z"/>
    <path class="cls-99" d="M391.54,88.12c-.52-.05-1.03-.1-1.54-.14.19.06.38.11.57.13.3.03.63.02.96,0Z"/>
    <path class="cls-99" d="M160.5,8.23c.78.06,1.48,0,2.15-.1-1.1-.18-2.21-.33-3.32-.46.23.29.57.52,1.17.56Z"/>
    <path class="cls-99" d="M416.04,192.12l3.51,4,.6-1.91c.65-.33.79.92.89.92,1.71-1.78-3.35-3.97-5-3Z"/>
    <path class="cls-99" d="M363.04,117.12v-1c-.52.36-.54.7,0,1Z"/>
    <path class="cls-99" d="M334.04,121.12l4-2c-1.83-2.18-5.2-.68-4,2Z"/>
    <path class="cls-99" d="M223.04,112.12c2.16,1.29,3.29,3.62,3.01,0,1.44-.31.98.64.99,1.99,1.51-4.03-.61-4.2-4-2Z"/>
    <path class="cls-192" d="M57.04,36.12c-.51-.08-.97-.11-1.38-.13.42.1.89.17,1.38.13Z"/>
    <path class="cls-192" d="M58.04,36.12c-.33.03-.67-.04-1,0-.2.03-3.57.87-4,1-.83.25-2.36.7-3,1,.59,1.7,11.2.3,8-2Z"/>
    <path class="cls-192" d="M47.17,40.65c2.68.7,19.15-1.85,19.88-2.55,2.89-2.76-8.08-2.08-9-1.99,3.2,2.3-7.41,3.7-8,2-.83.39-1.98,1.73-2.87,2.41,0,.04,0,.09,0,.13Z"/>
    <path class="cls-192" d="M47.04,40.62s.08.02.12.03c0-.04,0-.09,0-.13-.04.03-.09.07-.13.1Z"/>
    <path class="cls-54" d="M227.02,213.13c-.09-.16-.18-.33-.25-.52-2.78-.65-8.39-.98-8.7,2.14,0,.14-.01.27-.03.36.33-.02.67.04,1,0-.87-3.65,4.97-1.48,7.98-1.99Z"/>
    <path class="cls-54" d="M227.04,213.16v2.95c.06.02.99.93,1,1,.29-1.02.79-2.02,1.44-3.01-.86.35-1.83.06-2.44-.94Z"/>
    <path class="cls-54" d="M226.77,212.61c.07.19.16.36.25.52,0,0,.02,0,.02,0v.04c.6,1,1.58,1.29,2.44.94.44-.67.95-1.34,1.56-1.99-2.23.1-12.52-.43-13.01,0-.18.16.05,1.74.04,2.64.32-3.12,5.92-2.79,8.7-2.14Z"/>
    <path class="cls-54" d="M231.04,212.12c-.27,1.04-.88,1.72-1.56,1.99-.65.99-1.15,1.99-1.44,3.01,2.93-1.16,4.61-1.71,3-5Z"/>
    <path class="cls-54" d="M231.04,212.12c-.61.66-1.12,1.32-1.56,1.99.68-.28,1.29-.95,1.56-1.99Z"/>
    <path class="cls-71" d="M131.04,224.12c-3.74-.07-2.2,2.57-3,4.99,3.01,1.29,4.36-1.71,5-1.99-2.12-.32-2.89-.69-2-3Z"/>
    <path class="cls-71" d="M131.04,224.12c-.89,2.31-.12,2.68,2,3,.43-1.92-1.04-2.06-2-3Z"/>
    <path class="cls-105" d="M382.04,218.12c-4.41,5.23-.41,3.55,0,4h3c.51-.99.78-2.67,1-3-1.44,1.91-3.74,1.63-4-1Z"/>
    <path class="cls-105" d="M382.29,222.49c-.08-.15-.16-.28-.25-.37.09.14.17.25.25.37Z"/>
    <path class="cls-105" d="M386.04,219.12c-.97-1-3.38-.65-4-1,.26,2.63,2.56,2.91,4,1Z"/>
    <path class="cls-184" d="M375.04,216.12c1.66.08,3.34-.06,5,0l-2.07-.93c.46-1.68-.51-1.37-2.93.93Z"/>
    <path class="cls-184" d="M379.53,213.16c-2.11-2.88-5.03-.06-4.49,2.96,2.42-2.3,3.39-2.61,2.93-.93l2.07.93c-.23-.4.2-2-.51-2.96Z"/>
    <path class="cls-53" d="M329.04,217.12c.11-.54.87-.77,1-1-2.75-2.25-3.08-1.92-1,1Z"/>
    <path class="cls-53" d="M329.04,217.12c-2.08-2.92-1.75-3.25,1-1-.54-8.82-9.38-1.11-1,1Z"/>
    <path class="cls-167" d="M233.04,222.12c.27.45.9.78,1,1,1.77-2.87,1.44-3.21-1-1Z"/>
    <path class="cls-167" d="M233.04,222.12c2.44-2.21,2.77-1.87,1,1,8.32-1.75-1.05-9.23-1-1Z"/>
    <path class="cls-83" d="M271.04,218.12c-2.71,2.66-.03,6.57,3,4-2.03-.39-3.22-1.88-3-4Z"/>
    <path class="cls-83" d="M271.04,218.12c-.22,2.12.97,3.61,3,4-.72-1.57,2.67-.75-3-4Z"/>
    <path class="cls-153" d="M146.04,227.12c-1.47-3.33-5-4.13-5.04-.47-.02,1.72,1.92,2.21,2.04,2.47-1.86-2.27.94-3.98,3-2Z"/>
    <path class="cls-153" d="M143.04,229.12l3-2c-2.06-1.98-4.86-.27-3,2Z"/>
    <path class="cls-98" d="M220.04,220.64c-.38,1.68,1.92,2.25,2,2.48h2c.63-4.17,2.41-6.35-4-2.48Z"/>
    <path class="cls-197" d="M266.37,212.61c.02-.05.05-.1.07-.15-.04.02-.08.03-.12.04.02.04.04.08.05.12Z"/>
    <path class="cls-197" d="M264.04,215.12c.07.57.78.74,1,1,.15-.5.34-.98.51-1.46-.39.24-.89.41-1.51.46Z"/>
    <path class="cls-197" d="M266.31,212.49s.08-.02.12-.04c.2-.45.39-.91.61-1.34-.67.02-1.33-.02-2,0,.66.4,1.07.88,1.27,1.37Z"/>
    <path class="cls-197" d="M267.04,211.12c-.13.79-.34,1.22-.61,1.34-.02.05-.05.1-.07.15.27.78-.02,1.57-.81,2.05-.17.48-.36.96-.51,1.46,4.23.82,3.53-1.71,2-5Z"/>
    <path class="cls-197" d="M267.04,211.12c-.22.43-.41.89-.61,1.34.27-.12.48-.55.61-1.34Z"/>
    <path class="cls-197" d="M266.37,212.61s-.04-.08-.05-.12c-.36.03-.8-.43-1.27-1.37-.12,1.18-1.13,2.97-1,4,.62-.05,1.12-.22,1.51-.46.25-.7.52-1.38.81-2.05Z"/>
    <path class="cls-197" d="M266.31,212.49c-.2-.49-.62-.97-1.27-1.37.48.94.92,1.41,1.27,1.37Z"/>
    <path class="cls-197" d="M266.37,212.61c-.29.67-.56,1.35-.81,2.05.79-.48,1.08-1.27.81-2.05Z"/>
    <path class="cls-197" d="M213.04,221.6c.55-2.45-4.34-3.13-4.99-2.48-2.29,2.28,4.12,6.31,4.99,2.48Z"/>
    <path class="cls-11" d="M79.04,218.12c-.99.38-2.38.03-2.94,1.59v1.87c.1.53.79.41.94.55,1.39-1.11,2.05-2.45,2-4Z"/>
    <path class="cls-11" d="M79.04,218.12c.05,1.55-.61,2.89-2,4,4.67.88,5.87-1.57,2-4Z"/>
    <path class="cls-197" d="M391.04,216.12c.39-.39.59-1.47,1-2-2.25.67-2.59,1.34-1,2Z"/>
    <path class="cls-197" d="M391.04,216.12c-1.59-.66-1.25-1.33,1-2-5.75-5.11-7.74,3.7-1,2Z"/>
    <path class="cls-151" d="M355.04,213.63c-.87-3.83-7.28.2-4.99,2.48.65.65,5.54-.03,4.99-2.48Z"/>
    <path class="cls-93" d="M313.04,215.12c.87.19,3.35.79,4,1-.93-2.05-2.27-2.39-4-1Z"/>
    <path class="cls-93" d="M313.04,215.12c1.73-1.39,3.07-1.05,4,1,2.12-4.73-3.44-6.04-4-1Z"/>
    <path class="cls-36" d="M250.04,221.12c.02-.3.06-.72,0-1-2.84-1-2.84-.67,0,1Z"/>
    <path class="cls-36" d="M245.01,221.5l5.03-.39c-2.84-1.67-2.84-2,0-1-.75-3.37-5.03-2.65-5.03,1.39Z"/>
    <path class="cls-45" d="M36.04,213.12c-3.77-3.13-6.93,1.98-3.44,2.99,1.35.39,2.62-.87,3.44-.99-2.65-.39-2.52-1.15,0-2Z"/>
    <path class="cls-45" d="M36.04,213.12c-2.52.85-2.65,1.61,0,2,.13-.59-.19-1.63,0-2Z"/>
    <path class="cls-193" d="M296.62,220.07c-.33-.57-.53-1.22-.58-1.96-.34.32-.72.62-1,1,.62.2,1.14.52,1.58.96Z"/>
    <path class="cls-193" d="M297.29,220.95c.35.6.6,1.31.75,2.17.3-.1.67-.91,1-1-.71-.32-1.29-.7-1.75-1.17Z"/>
    <path class="cls-193" d="M296.04,218.12c.05.73.25,1.38.58,1.96.25.25.47.55.67.88.46.46,1.04.85,1.75,1.17.74-3.58-.99-2.82-3-4Z"/>
    <path class="cls-193" d="M296.62,220.07c-.44-.43-.96-.75-1.58-.96-.27,2.34.42,4.11,3,4-.15-.85-.4-1.57-.75-2.17-.27-.27-.49-.56-.67-.88Z"/>
    <path class="cls-193" d="M296.62,220.07c.18.32.4.61.67.88-.19-.33-.41-.63-.67-.88Z"/>
    <path class="cls-125" d="M101.09,230.54c.36,1.7,3.83,1.19,4.95.57-1.3-1.13-2.63-1.8-4-2,.03.13-1.07.88-.95,1.43Z"/>
    <path class="cls-125" d="M102.04,229.12c1.37.2,2.7.87,4,2,.24-3.71-2.29-5.89-4-2Z"/>
    <path class="cls-203" d="M148.04,234.12c6.48.28,4.35-5.61-1-3,2.8-.21,2.92,1.18,1,3Z"/>
    <path class="cls-203" d="M147.04,231.12c.3,1.02.4,2.08,1,3,1.92-1.82,1.8-3.21-1-3Z"/>
    <path class="cls-197" d="M164.04,231.12c-3.87-3.03-7.88,2.1-2,3,1.25-.77,2.35-1.34,2-3Z"/>
    <path class="cls-176" d="M177.04,231.64c-.77-2.71-7.55-1.98-5,1.48h4c.16-.26,1.39-.11,1-1.48Z"/>
    <path class="cls-175" d="M86.29,225.52c.27.48.52,1,.75,1.6.6-.66.76-2.1,1-3-.35,1.08-1.04,1.47-1.75,1.4Z"/>
    <path class="cls-175" d="M84.04,223.12c.86.46,1.61,1.27,2.25,2.4.71.07,1.39-.33,1.75-1.4-.83-.05-2.62-1.43-4-1Z"/>
    <path class="cls-175" d="M84.04,223.12c.37,1.17-2.84,4.35,3,4-.23-.59-.48-1.12-.75-1.6-.98-.09-2-1.07-2.25-2.4Z"/>
    <path class="cls-175" d="M86.29,225.52c-.64-1.14-1.39-1.94-2.25-2.4.25,1.33,1.27,2.31,2.25,2.4Z"/>
    <path class="cls-62" d="M261.04,218.12c-.26,1.44-.6,3.11-1,5,.08-.56,3.86-1.6,1-5Z"/>
    <path class="cls-62" d="M260.04,223.12c.4-1.89.74-3.56,1-5-.69.74-6.46,1.16-1,5Z"/>
    <path class="cls-108" d="M136.04,223.12c1-.2,2.16-.39,3-1-1.37-1.41-2.37-1.07-3,1Z"/>
    <path class="cls-108" d="M136.04,223.12c.63-2.07,1.63-2.41,3-1,.86-5.64-6.52-4.41-3,1Z"/>
    <path class="cls-138" d="M338.04,215.12c3.18,1.44,2.09.75,5,0-1.82-.69-3.48-.69-5,0Z"/>
    <path class="cls-138" d="M338.04,215.12c1.52-.69,3.18-.69,5,0-1.68-3.36-4.46-4.5-5,0Z"/>
    <path class="cls-1" d="M25.04,213.12c-1.39.57-3.06.9-5,1,2.22,1.41,3.7,1.83,5-1Z"/>
    <path class="cls-1" d="M20.04,214.12c1.94-.1,3.61-.43,5-1-2.6-1.55-4.12-3.9-5,1Z"/>
    <path class="cls-64" d="M69.04,222.12c.26-.6-.2-2.15,0-3-1.58.99-1.58,1.99,0,3Z"/>
    <path class="cls-64" d="M69.04,222.12c-1.58-1.01-1.58-2.01,0-3-4.52-2.87-6.68,4.6,0,3Z"/>
    <path class="cls-5" d="M199.04,218.12c-4.12.16-4.32,6.42,1.04,3.53,1.68-.9.01-1.99-.04-2.53-1.55,1.32-2.12.74-1-1Z"/>
    <path class="cls-5" d="M199.04,218.12c-1.12,1.74-.55,2.32,1,1-.35-.26-.85-.6-1-1Z"/>
    <path class="cls-144" d="M286.04,222.12c.21-.65.68-1.36,1-2-2.81.49-3.14,1.16-1,2Z"/>
    <path class="cls-144" d="M286.04,222.12c-2.14-.84-1.81-1.51,1-2-4.84-5.17-6.76,5.55-1,2Z"/>
    <path class="cls-1" d="M70.05,227.11h4.99c.09-4.1-5.08-4.1-4.99,0Z"/>
    <path class="cls-122" d="M371.78,220.72c.71.18,1.53.74,2.26,1.4l-2-3c.42.8.21,1.33-.26,1.6Z"/>
    <path class="cls-122" d="M369.04,220.12c-.05.14-1.16.19-1.08,1.43.07.99,1.91.42,2.08.57.1-.6.29-.98.56-1.21-.57-.07-1.16-.33-1.56-.79Z"/>
    <path class="cls-122" d="M370.6,220.91c.31-.27.72-.3,1.18-.19.48-.27.69-.81.26-1.6-.27.26-2.37.35-3,1,.4.46.99.72,1.56.79Z"/>
    <path class="cls-122" d="M370.6,220.91c-.26.23-.46.61-.56,1.21,1.31-.11,2.7.16,4,0-.73-.66-1.55-1.21-2.26-1.4-.31.18-.74.24-1.18.19Z"/>
    <path class="cls-122" d="M371.78,220.72c-.45-.12-.86-.08-1.18.19.44.05.87,0,1.18-.19Z"/>
    <path class="cls-154" d="M336.04,222.11v-2.99c-2.09-.12-3.75-.38-4.97,1.49,1.23,1.88,2.89,1.62,4.97,1.49Z"/>
    <path class="cls-100" d="M320.04,219.12l-.99.5c-.77,4.57,2.46,1.91,4.99,1.5-2.38-.01-3.72-.68-4-2Z"/>
    <path class="cls-100" d="M320.04,219.12c.28,1.32,1.62,1.99,4,2-.28-2.32-3.5-1.63-4-2Z"/>
    <path class="cls-185" d="M122.05,219.12c.41,7.85,5.77,1.78,3.99,0-.25-.25-3.02.14-3.99,0Z"/>
    <path class="cls-120" d="M420.04,207.12c-1.32,1.24-1.99,2.57-2,4,.06-.23,2.34-.66,2-4Z"/>
    <path class="cls-120" d="M418.04,211.12c0-1.43.68-2.76,2-4-3.71-.24-5.89,2.29-2,4Z"/>
    <path class="cls-170" d="M29.04,210.12c.27-.54.21-.87,1-1-2.2-1.55-2.53-1.22-1,1Z"/>
    <path class="cls-170" d="M29.04,210.12c-1.53-2.22-1.2-2.55,1-1-1.01-6.56-7.56-.02-1,1Z"/>
    <path class="cls-181" d="M18.04,207.12c-3.45-.45-5.44-.37-3,3,.44-1.58,1.35-2.81,3-3Z"/>
    <path class="cls-181" d="M18.04,207.12c-1.65.19-2.56,1.42-3,3,1.98.08,3.08-.98,3-3Z"/>
    <path class="cls-69" d="M348.05,221.61c-.1-3.99-3.07-1.68-4.01-1.49v2c1.04-.13,4.04.5,4.01-.51Z"/>
    <path class="cls-65" d="M182.04,228.11v-2.99s-3.99,0-3.99,0v1.48c1.06,1.57,2.15,1.74,3.99,1.51Z"/>
    <path class="cls-79" d="M195.03,226.6v-1.48s-3.99,0-3.99,0v2.99c1.84.23,2.94.06,3.99-1.51Z"/>
    <path class="cls-194" d="M311.04,222.12c.08-.64.15-2.62,0-3-.87.99-.87,2,0,3Z"/>
    <path class="cls-194" d="M307.06,220.62c.99,1.42,2.32,1.7,3.98,1.5-.87-1-.87-2.01,0-3-1.66-.2-2.99.08-3.98,1.5Z"/>
    <path class="cls-14" d="M266.53,224.13c-2.95-1.06-3.23,2.23-2.48,2.98,1.31,1.32,5.93-1.74,2.48-2.98Z"/>
    <path class="cls-14" d="M92.92,229.74c-.52-2.09-2.78-2.07-3.87-.11-.62,2.26,1.65,1.2,1.99,1.48h1c0-.14,1.04-.74.88-1.38Z"/>
    <path class="cls-33" d="M148.04,221.12c2.23.96.97.41,3,0-.96-.75-1.95-.45-3,0Z"/>
    <path class="cls-33" d="M148.04,221.12c1.05-.45,2.04-.75,3,0,.88-2.98-3.78-3.18-3,0Z"/>
    <path class="cls-25" d="M139.04,231.12c-1.64-.61-2.74.31-4,1,1.72.24,3.05-.1,4-1Z"/>
    <path class="cls-25" d="M139.04,231.12c-.95.9-2.28,1.24-4,1,1.72,1.91,4.84,1.67,4-1Z"/>
    <path class="cls-35" d="M288.04,226.11h3.99s0-1.99,0-1.99c-1.78-.25-3.5,0-4,1.99Z"/>
    <path class="cls-48" d="M276.04,225.12c.15.22-.15.76,0,1,2.84-.79,2.84-1.12,0-1Z"/>
    <path class="cls-48" d="M276.04,225.12c2.84-.12,2.84.21,0,1,6.24,1.05,5.25-3.95,0-1Z"/>
    <path class="cls-123" d="M65.21,197.14c.21.62.48,1.28.83,1.97-.04-.23-.08-.47-.12-.71-.14-.58-.4-.98-.71-1.27Z"/>
    <path class="cls-123" d="M57.52,142.55c-.23-.74-.47-1.48-.7-2.22-.35-1.1-.29-2.16.22-3.22l-2,3c.99.63,1.83,1.47,2.48,2.44Z"/>
    <path class="cls-123" d="M68.04,207.12c.25.05.98.84,2,1-.56-1.15-1.01-2.37-1.37-3.64-.05.95-.26,1.87-.63,2.64Z"/>
    <path class="cls-123" d="M67.97,200.98c-.15-1.12-.23-2.28-.24-3.48.72-17.41-3.55-33.57-8.69-50.11,0,1.29-.32,2.57-1,3.72.3,1.28.67,2.39,1,4,.66.68,1.28,1.38,1.79,2.16,2.41,3.72,4.84,24.65,5.34,30.79.14,1.75-.5,3.45-1.13,5.05.34,1.77.58,3.54.88,5.29.05.21.1.44.12.71.87.38,1.5,1.05,1.93,1.87Z"/>
    <path class="cls-123" d="M57.52,142.55c.51,1.62,1.02,3.23,1.52,4.84,0-1.7-.55-3.4-1.52-4.84Z"/>
    <path class="cls-123" d="M66.17,188.06c-.5-6.14-2.93-27.07-5.34-30.79-.5-.78-1.13-1.48-1.79-2.16,2.63,12.8,3.57,25.41,6,38,.63-1.6,1.27-3.31,1.13-5.05Z"/>
    <path class="cls-123" d="M67.97,200.98c-.43-.81-1.07-1.48-1.93-1.87.52,2.76,1.17,5.33,2,8,.37-.76.58-1.69.63-2.64-.31-1.12-.54-2.29-.7-3.5Z"/>
    <path class="cls-123" d="M57.04,137.12c-.52,1.06-.57,2.12-.22,3.22.24.74.47,1.48.7,2.22.97,1.43,1.52,3.14,1.52,4.84,5.14,16.54,9.4,32.7,8.69,50.11.01,1.2.1,2.35.24,3.48.54,1.03.76,2.28.7,3.5.36,1.27.81,2.48,1.37,3.64l-1.05-31.45c-4.15-13.34-5.19-27.14-11.95-39.55Z"/>
    <path class="cls-123" d="M64.67,196.77c.31.7.75,1.48,1.37,2.35-.35-.7-.62-1.35-.83-1.97-.17-.15-.35-.28-.54-.37Z"/>
    <path class="cls-123" d="M57.52,142.55c-.65-.97-1.49-1.81-2.48-2.44,1.08,3.59,2.15,7.34,3,11,.69-1.16,1-2.44,1-3.72-.5-1.61-1.01-3.22-1.52-4.84Z"/>
    <path class="cls-123" d="M67.97,200.98c.16,1.21.39,2.38.7,3.5.06-1.21-.16-2.47-.7-3.5Z"/>
    <path class="cls-191" d="M363.79,115.23l.67-.78c1.41.6,2.81,1.1,4.21,1.5-1.43-.74-2.54-1.73-2.64-2.84-.81-.39-2-.36-3-1,1.5.98,1.54,2.01.75,3.12Z"/>
    <path class="cls-191" d="M368.68,115.95c-1.4-.4-2.8-.9-4.21-1.5l-.67.78c-.2.29-.45.58-.75.88,3.96.02,7.46,2.17,11.01,2.99l.99-1.99c-1.41.47-4.24-.07-6.36-1.16Z"/>
    <path class="cls-191" d="M363.04,112.12c-1.01,1.31-.97,2.66,0,4l.75-.88c.78-1.11.74-2.14-.75-3.12Z"/>
    <path class="cls-191" d="M363.04,116.12c.31-.3.55-.59.75-.88l-.75.88Z"/>
    <path class="cls-191" d="M368.68,115.95c2.13.61,4.25,1,6.36,1.16-2.76-1.74-5.91-2.5-9-4,.1,1.11,1.2,2.1,2.64,2.84Z"/>
    <path class="cls-191" d="M375.04,117.12c-2.11-.16-4.23-.55-6.36-1.16,2.12,1.09,4.96,1.63,6.36,1.16Z"/>
    <path class="cls-97" d="M98.04,203.12l2-2c-.67-.52-1.34.15-2,2Z"/>
    <path class="cls-97" d="M100.59,193.1c-.72-3.62-4.37-3.5-3.48,2.46.49,3.32,1.86,3.09.94,7.56.66-1.85,1.33-2.52,2-2,.1-2.69,1.02-5.65.55-8.02Z"/>
    <path class="cls-37" d="M242.12,212.02s-.01.05-.02.08c.05,0,.09,0,.13,0,.21-.03.41-.05.61-.07-.25,0-.48,0-.73-.01Z"/>
    <path class="cls-37" d="M246.97,212.09c3.12-.01,4.69-.02,4.69-.02l.38,1.05c.29.07.66-.03,1,0v-2c-2.01.52-4.24.8-6.65.91.19.02.39.04.58.06Z"/>
    <path class="cls-37" d="M242.12,212.02c.25.01.48,0,.73.01,1.27-.13,2.44-.12,3.55-.01,2.41-.1,4.64-.39,6.65-.91-4.67.14-9.73.84-14,1,1.09,0,2.11,0,3.06-.01,0-.03.01-.05.02-.08Z"/>
    <path class="cls-37" d="M246.97,212.09c1.68.21,3.29.62,5.07,1.03l-.38-1.05s-1.57,0-4.69.02Z"/>
    <path class="cls-37" d="M242.1,212.12s.09,0,.14-.02c-.05,0-.09,0-.13,0,0,0,0,0,0,.01Z"/>
    <path class="cls-37" d="M242.08,212.21c-.53,2.56-1.52,2.07-3.04-.09v3.99c4.55.36,4.84.24,3.04-3.9Z"/>
    <path class="cls-37" d="M242.08,212.21s-.02-.05-.04-.08c.02,0,.04,0,.05,0,0,0,0,0,0-.01-.95,0-1.97,0-3.06.01,1.52,2.17,2.51,2.65,3.04.09Z"/>
    <path class="cls-26" d="M325.04,183.12c-.5-1.49-1.36-1.99-2-3,.34,1.34.91,2.22,2,3Z"/>
    <path class="cls-26" d="M325.04,183.12c-1.09-.78-1.66-1.66-2-3l-3.99,3.49,5.99-.49Z"/>
    <path class="cls-179" d="M94.26,83.28s.03-.06.05-.09c-.09.03-.2.04-.32.05l.27.04Z"/>
    <path class="cls-179" d="M93.52,83.22c-.16-.04-.32-.06-.48-.1.18.05.33.08.48.1Z"/>
    <path class="cls-179" d="M94.57,83.08c-.07.05-.16.09-.25.11-.02.03-.03.05-.05.09l-.27-.04c-.14,0-.29,0-.48-.03,1.65.36,3.27.58,4.52.9-.82-.64-1.98-.99-3.47-1.04Z"/>
    <path class="cls-179" d="M95.58,80.19c-.38.55-.38,1.33-.51,1.96,1.19-1.18,2.32-.27,2.97,1.96,2.41-2.69-.36-6.95-2.46-3.92Z"/>
    <path class="cls-179" d="M95.07,82.16c-.08.39-.21.73-.5.92,1.49.05,2.65.4,3.47,1.04-.65-2.23-1.78-3.13-2.97-1.96Z"/>
    <path class="cls-57" d="M316.04,134.12c-1.89-1.38-3.12-.97-5,0,.47.82.36,1.44-.05,1.91.52.09.87.45,1.05,1.09-1.05-2.08,2.02-3.28,4-3Z"/>
    <path class="cls-57" d="M310.99,136.02c-.61.68-1.88,1.01-2.95,1.09.41.66,3.82.09,4,0-.18-.65-.54-1-1.05-1.09Z"/>
    <path class="cls-57" d="M310.99,136.02c.41-.46.53-1.08.05-1.91-1.25.64-2.21,2.47-3,3,1.28-.86,2.26-1.22,2.95-1.09Z"/>
    <path class="cls-57" d="M316.04,134.12c-1.98-.28-5.05.92-4,3,1.32-.65,3.07-1.88,4-3Z"/>
    <path class="cls-57" d="M310.99,136.02c-.69-.12-1.66.23-2.95,1.09,1.07-.09,2.34-.41,2.95-1.09Z"/>
    <path class="cls-77" d="M121.14,118.01c.84-.03,1.59.07,2.26.34-.47-.28-1.22-.39-2.26-.34Z"/>
    <path class="cls-77" d="M123.4,118.35c-.67-.26-1.42-.37-2.26-.34-.34.02-.7.05-1.1.1.83.91,1.85,1.03,2.99,1.01l-1.99,1.98c2.95,1.69,2.96.07,3.18-.66l-.44-.17c.36-.92.23-1.56-.38-1.93Z"/>
    <path class="cls-77" d="M120.04,118.12c.38-.06.75-.09,1.1-.1,1.04-.05,1.79.06,2.26.34,1.11.43,2,1.3,2.64,2.77-1.22-5.29-1.61-5.27-6-3Z"/>
    <path class="cls-77" d="M123.4,118.35c.61.36.74,1,.38,1.93l.44.17c.06-.21.14-.34.31-.32.23.04.83.8,1.51.99-.64-1.47-1.53-2.34-2.64-2.77Z"/>
    <path class="cls-77" d="M120.04,118.12c.4-.05.76-.09,1.1-.1-.35.01-.72.05-1.1.1Z"/>
    <path class="cls-130" d="M204.17,129.57l.64-.5c-1.11-.34-2.18-.33-1.77,1.04,1.87.24,2.29-.77,2,2v1c1.04-2.07.75-3.25-.87-3.54Z"/>
    <path class="cls-130" d="M204.81,129.07l-.64.5c1.62.29,1.91,1.47.87,3.54,2.54-3.68.59-3.49,1-5l-.33,1.29c-.28-.13-.59-.24-.89-.34Z"/>
    <path class="cls-130" d="M201.04,130.11c.65.09,1.36-.08,2,0-.41-1.38.66-1.39,1.77-1.04l1.23-.96-4.99-1v2.99Z"/>
    <path class="cls-130" d="M205.71,129.41l.33-1.29-1.23.96c.3.09.61.21.89.34Z"/>
    <path class="cls-32" d="M353.04,158.12c.64,2.27,1.14,3.06,2,5,.53-1.94-.14-3.61-2-5Z"/>
    <path class="cls-32" d="M353.04,158.12c2.62.93,4.26,2.69,2,5,5.16-3.61,3.08-4.63-2-5Z"/>
    <path class="cls-32" d="M353.04,158.12c1.86,1.39,2.53,3.06,2,5,2.26-2.31.62-4.07-2-5Z"/>
    <path class="cls-111" d="M200.04,182.12c1.01-.06,2.11-.15,3.26-.25-1.4-.11-2.61-.08-3.26.25Z"/>
    <path class="cls-111" d="M212.04,181.12c-2.83.16-5.94.5-8.74.75.53.04,1.09.1,1.66.18,2.47-.14,4.84-.43,7.08-.93Z"/>
    <path class="cls-111" d="M212.03,183.11c.16-.13-.09-1.42,0-1.99-2.25.5-4.62.79-7.08.93,3.25.44,6.79,1.3,7.08,1.06Z"/>
    <path class="cls-66" d="M297.04,144.12c-.04-.32-.07-.61-.08-.86-.04.22-.01.5.08.86Z"/>
    <path class="cls-66" d="M296.96,143.26c.02.25.05.53.08.86,1.04-.33,1.28-.62,2-1-1.28-.54-1.97-.49-2.08.14Z"/>
    <path class="cls-66" d="M297.04,144.12c-.1-.35-.12-.64-.08-.86-.12-1.76.36-1.65,2.08-.14-2.16-6.75-7.53-2.1-2,1Z"/>
    <path class="cls-66" d="M296.96,143.26c.11-.64.81-.69,2.08-.14-1.72-1.51-2.2-1.61-2.08.14Z"/>
    <path class="cls-117" d="M320.28,158.01c-.18-.3-.59-.27-1.24.1.52-.09.92-.12,1.24-.1Z"/>
    <path class="cls-117" d="M320.28,158.01c-.32-.02-.72.01-1.24.1.34.64.65,1.34,1,2,.35-1.09.43-1.79.24-2.1Z"/>
    <path class="cls-117" d="M319.04,158.12c.65-.37,1.06-.4,1.24-.1,1.13.06,1.02.78-.24,2.1,5.33-3.46,3.18-8.15-1-2Z"/>
    <path class="cls-117" d="M320.28,158.01c.19.32.12,1.01-.24,2.1,1.26-1.33,1.37-2.05.24-2.1Z"/>
    <path class="cls-177" d="M339.04,120.12c.69.93,1.74,1.63,2,2,.42-.98-.25-1.65-2-2Z"/>
    <path class="cls-177" d="M339.04,120.12c2.19-.63,2.99-.3,2,2,7.11-3.93,4.28-5.35-2-2Z"/>
    <path class="cls-177" d="M339.04,120.12c1.75.35,2.42,1.02,2,2,.99-2.3.19-2.63-2-2Z"/>
    <path class="cls-202" d="M83.26,103.83c-.35.37-.78.58-1.22.29l1,2c-.26-.8-.11-1.56.22-2.29Z"/>
    <path class="cls-202" d="M84.17,102.28c-.34.49-.67,1.01-.92,1.55.58-.6.97-1.63.92-1.55Z"/>
    <path class="cls-202" d="M86.04,100.12c-2.81-.74-2.96,3.04-3.99,3.99.44.29.86.08,1.22-.29.24-.54.58-1.06.92-1.55.06-.08-.33.95-.92,1.55-.32.72-.48,1.48-.22,2.29.51-1.37,3.82-5.14,2.99-5.99Z"/>
    <path class="cls-57" d="M310.04,140.12c-3.49-1.79-3.11.67-3,3,.63-1.79,1.63-2.79,3-3Z"/>
    <path class="cls-57" d="M310.04,140.12c-1.19.65-2.19,1.65-3,3,3,.33,2.34-1.99,3-3Z"/>
    <path class="cls-57" d="M310.04,140.12c-1.37.21-2.37,1.21-3,3,.81-1.35,1.81-2.35,3-3Z"/>
    <path class="cls-149" d="M27.04,195.12c.68.31,1.32.72,2,1-.77-2.18-1.43-2.51-2-1Z"/>
    <path class="cls-149" d="M27.04,195.12c.57-1.51,1.23-1.18,2,1,2.69-3.69-3.06-6.55-2-1Z"/>
    <path class="cls-112" d="M381,173.41c-.29-.18-.62-.62-.96-1.3.09,1.29.41,1.71.96,1.3Z"/>
    <path class="cls-112" d="M381,173.41c.29-.21.63-.63,1.04-1.3-.66.03-1.33-.02-2,0,.34.68.67,1.12.96,1.3Z"/>
    <path class="cls-112" d="M382.04,172.12c-.19,1.19-.56,1.59-1.04,1.3-.55.41-.88-.01-.96-1.3-.81,5.74,2.78,5.89,2,0Z"/>
    <path class="cls-112" d="M381,173.41c.48.29.85-.11,1.04-1.3-.41.67-.75,1.09-1.04,1.3Z"/>
    <path class="cls-75" d="M359.38,198.94c.34-.04.69-.05,1.04-.03-.28-.17-.41-.43-.38-.79-.1.34-.34.61-.66.82Z"/>
    <path class="cls-75" d="M357.74,199.41c-.62.03-1.24-.07-1.7-.3l1,1c.14-.3.4-.52.7-.7Z"/>
    <path class="cls-75" d="M359.38,198.94c.32-.21.56-.48.66-.82-1.59.54-2.55.64-4,1,.46.23,1.08.33,1.7.3.44-.26,1.02-.41,1.64-.48Z"/>
    <path class="cls-75" d="M360.42,198.9c-.35-.01-.7,0-1.04.03-.44.29-1.03.45-1.64.48-.31.18-.56.41-.7.7,1.43-.25,4.2-.92,5-1-.75.06-1.29-.01-1.62-.21Z"/>
    <path class="cls-75" d="M359.38,198.94c-.62.07-1.19.22-1.64.48.6-.03,1.2-.19,1.64-.48Z"/>
    <path class="cls-75" d="M360.42,198.9c.58.02,1.14.09,1.62.21l-2-1c-.03.36.1.62.38.79Z"/>
    <path class="cls-75" d="M362.04,199.12c-.47-.12-1.04-.19-1.62-.21.33.2.86.27,1.62.21Z"/>
    <path class="cls-74" d="M369.1,173.27c.24-.6.93-1.11,1.94-1.15-1,.02-2-.01-3,0,.4.32.75.71,1.06,1.15Z"/>
    <path class="cls-74" d="M369.26,173.5c.31.48.57,1.01.78,1.61.09-1.07.48-2.08,1-3-.54,1.14-1.17,1.59-1.78,1.39Z"/>
    <path class="cls-74" d="M369.1,173.27c.05.08.11.15.16.23.61.21,1.24-.24,1.78-1.39-1.01.05-1.7.55-1.94,1.15Z"/>
    <path class="cls-74" d="M370.04,175.12c-.87-.42-1.15-1.1-.99-1.71-.35-.21-.7-.63-1.01-1.29-.04,2.37-.67,3.47,2,3Z"/>
    <path class="cls-74" d="M369.05,173.41s.03-.09.04-.14c-.31-.44-.66-.83-1.06-1.15.31.66.66,1.08,1.01,1.29Z"/>
    <path class="cls-74" d="M369.05,173.41c-.17.61.11,1.29.99,1.71-.21-.6-.47-1.14-.78-1.61-.07-.02-.14-.05-.21-.09Z"/>
    <path class="cls-74" d="M369.1,173.27s-.03.09-.04.14c.07.04.14.07.21.09-.05-.08-.11-.16-.16-.23Z"/>
    <path class="cls-161" d="M335.04,192.12c-.49-1.24-.83-2.57-1-4-.67,1.74-1.39,3.53,1,4Z"/>
    <path class="cls-161" d="M334.04,188.12c.5,1.33.83,2.66,1,4,.92-2.67,1.26-2.57-1-4Z"/>
    <path class="cls-161" d="M335.04,192.12c-.17-1.34-.5-2.67-1-4,.17,1.43.51,2.76,1,4Z"/>
    <path class="cls-6" d="M254.28,212.28c-.21.33-.62.65-1.23.83.66.05,1.34-.03,2,0-.43-.34-.67-.61-.77-.83Z"/>
    <path class="cls-6" d="M254.4,211.73c.28-.25.87-.43,1.64-.62-1,.03-2-.03-3,0,.87-.06,1.29.23,1.36.62Z"/>
    <path class="cls-6" d="M254.34,212.16s-.04.08-.07.12c.09.23.33.49.77.83.3-.68.69-1.32,1-2-.52.65-1.14,1.04-1.7,1.05Z"/>
    <path class="cls-6" d="M254.34,212.16c.56,0,1.17-.4,1.7-1.05-.76.19-1.36.37-1.64.62.02.14.01.28-.06.43Z"/>
    <path class="cls-6" d="M254.28,212.28s-.03-.09-.04-.13c-.47-.04-.9-.34-1.19-1.04v2c.62-.19,1.03-.5,1.23-.83Z"/>
    <path class="cls-6" d="M254.24,212.15c-.03-.16.03-.3.17-.42-.07-.38-.49-.67-1.36-.62.29.7.72,1,1.19,1.04Z"/>
    <path class="cls-6" d="M254.24,212.15s.02.09.04.13c.03-.04.05-.08.07-.12-.04,0-.07,0-.11-.01Z"/>
    <path class="cls-6" d="M254.4,211.73c-.13.12-.2.26-.17.42.04,0,.07.01.11.01.07-.15.08-.29.06-.43Z"/>
    <path class="cls-73" d="M355.64,200.16c0-.19.13-.52.4-1.05-1.14.64-1.27.98-.4,1.05Z"/>
    <path class="cls-73" d="M355.64,200.16c-.87-.06-.74-.41.4-1.05-.56.14-1.35-.1-1.99,0-.47,3.95,1.77,1.21,2.99.99-.95.27-1.39.37-1.4.05Z"/>
    <path class="cls-73" d="M355.64,200.16c.33.02.79.01,1.4-.05l-1-1c-.27.53-.41.86-.4,1.05Z"/>
    <path class="cls-73" d="M355.64,200.16c0,.33.45.22,1.4-.05-.62.06-1.07.07-1.4.05Z"/>
    <path class="cls-15" d="M372.04,166.12h1c.61-.15,1.24-.28,1.87-.39,1.25-1-1.04-3.28-2.87.39Z"/>
    <path class="cls-15" d="M373.04,166.12c.94.06,1.53-.12,1.87-.39-.63.12-1.26.24-1.87.39Z"/>
    <path class="cls-42" d="M271.04,84.12c-.42.15-.75-.18-1-1,.34,1.35-.83,4.17,1,5-.73-1.2-.78-2.82,0-4Z"/>
    <path class="cls-42" d="M271.04,84.12c-.07-.47-.52-.89-1-1,.25.82.58,1.15,1,1Z"/>
    <path class="cls-42" d="M271.04,84.12c-.78,1.18-.73,2.8,0,4-.12-1.29.18-2.74,0-4Z"/>
    <path class="cls-59" d="M58.06,59.62c.03,2.55,6.74,1.63,6.98-1.49-1.33-.2-7-.28-6.98,1.49Z"/>
    <path class="cls-78" d="M19.04,96.12l4-1.02c-1-2.78-1.53-4.48-4-1.98-.09.97.14,2.06,0,3Z"/>
    <path class="cls-10" d="M18.03,91.12v-3.99c-4.23.62-4.04,3.09,0,3.99Z"/>
    <path class="cls-82" d="M24.05,91.11c.94,1.07,4.06-2.03,2.99-2.99-1.69-1.5-4.5,1.28-2.99,2.99Z"/>
    <path class="cls-62" d="M302.56,212.12c-2.45.55-1.74,5.6.97,4.99,2.45-.55,1.74-5.6-.97-4.99Z"/>
    <path class="cls-141" d="M279.53,216.11c1.67-.45,1.78-2.33.75-3.38-1.24.07-2.49.07-3.73.02-1.14,1.36.15,4.12,2.98,3.36Z"/>
    <path class="cls-141" d="M280.28,212.72c-.58-.59-1.51-.93-2.73-.6-.44.12-.76.34-1,.62,1.24.05,2.49.05,3.73-.02Z"/>
    <path class="cls-56" d="M288.06,214.62c.03,1.62,3.32,1.26,3.98,1.5-.94-1.43-1.42-2.14-1.42-2.14,0,0,.47.71,1.42,2.14,3.21-3.26-4.07-6.47-3.98-1.5Z"/>
    <path class="cls-16" d="M253.52,214.16c-.17-.22-.33-.55-.48-1.04-.2.89-.54.86-1,0,.12,1.08.62,1.42,1.48,1.04Z"/>
    <path class="cls-16" d="M253.52,214.16c-.87.37-1.37.04-1.48-1.04-2.29.42-.2,3.37,1.49,3,1.25-.28,1.19-2.25,1.51-3-.53,1.24-1.05,1.63-1.52,1.04Z"/>
    <path class="cls-16" d="M253.04,213.12c-.34-.03-.71.07-1,0,.46.86.8.89,1,0Z"/>
    <path class="cls-16" d="M253.04,213.12c.15.49.31.83.48,1.04.42-.18.92-.52,1.52-1.04-.66-.03-1.34.05-2,0Z"/>
    <path class="cls-16" d="M255.04,213.12c-.6.53-1.1.86-1.52,1.04.46.59.99.19,1.52-1.04Z"/>
    <path class="cls-42" d="M256.04,226.11c-.15-2.28-3.57-2.27-4-.99,1,.06,1.5.08,1.5.08,0,0-.5-.03-1.5-.08-.46,1.37,2.71,1.02,4,.99Z"/>
    <path class="cls-189" d="M240.05,224.12v1.99s2.99,0,2.99,0c-.34-1.45-1.61-2.29-2.99-1.98Z"/>
    <path class="cls-51" d="M398.04,207.12c.05.13.1.26.14.39-.03-.13-.08-.26-.14-.39Z"/>
    <path class="cls-51" d="M394.04,206.12c-2.44,4.1,1.6,4.58,3.4,3.24.09-.74.29-1.49.6-2.24-1.48,2-3.43,1.34-4-1Z"/>
    <path class="cls-51" d="M398.19,207.51c-.05-.13-.1-.26-.14-.39-.31.76-.5,1.51-.6,2.24.6-.44.95-1.08.74-1.85Z"/>
    <path class="cls-51" d="M394.04,206.12c.78,2.05,2.12,2.38,4,1-.04-.04-.09-.08-.13-.12-.6-.42-3.07-1.09-3.87-.88Z"/>
    <path class="cls-51" d="M397.91,206.99s.09.08.13.12c-.02-.04-.07-.08-.13-.12Z"/>
    <path class="cls-51" d="M394.04,206.12c.57,2.34,2.52,3,4,1-1.88,1.38-3.22,1.05-4-1Z"/>
    <path class="cls-40" d="M365.52,213.14c-4.1-1.18-4.53,4.05,1.52,2.97-1.53-.94-2.3-1.41-2.3-1.41,0,0,.77.47,2.3,1.41-.26-.26-.17-2.58-1.52-2.97Z"/>
    <path class="cls-62" d="M116.54,231.1c.68,0,3.18-4.34,2.49-4.97-3.82-1.79-4.47,5-2.49,4.97Z"/>
    <rect class="cls-29" x="97.05" y="222.12" width="1.99" height="2.99"/>
    <path class="cls-5" d="M47.48,216.06c2.42-.75,1.73-3.47-.61-4.01-.29-.04-.59-.07-.88-.1-.42,0-.89.07-1.38.22-3.09.95-1.13,5.12,2.87,3.89Z"/>
    <path class="cls-5" d="M45.98,211.95c.3.03.59.06.88.1-.28-.06-.57-.11-.88-.1Z"/>
    <path class="cls-25" d="M51.05,221.11c1.66-.02,3.34.05,5,0-1.46-.96-2.19-1.45-2.19-1.45,0,0,.73.48,2.19,1.45.38-6.69-6.5-1.39-5,0Z"/>
    <path class="cls-165" d="M412.05,204.11h1.99s-.35-2.12-.35-2.12c-.37.17-.82.28-1.34.32-.33.47-.48,1.01-.3,1.8Z"/>
    <path class="cls-165" d="M413.55,201.12c-.49.42-.91.78-1.2,1.19.52-.04.97-.14,1.34-.32l-.14-.87Z"/>
    <path class="cls-156" d="M53.04,132.12c-.72-.09-1.36-.67-1.93-1.7.24,1.54.21,3.09-.11,4.64l2.04.06c-.44-.79-.97-1.52-1-2.48l1-.52Z"/>
    <path class="cls-156" d="M49.32,119.93c-.28-.29-.24-.8-.28-.82-.21.24-.39.47-.57.71.25,0,.53.04.85.11Z"/>
    <path class="cls-156" d="M47.24,122.29s.03.05.05.07c-.01-.04-.03-.07-.04-.11,0,.01-.01.03-.01.04Z"/>
    <path class="cls-156" d="M49.85,126.91c.37,1.5.79,2.65,1.26,3.5-.42-2.71-1.69-5.39-3.82-8.06.42,1.14,1.26,2.65,2.56,4.55Z"/>
    <path class="cls-156" d="M47.25,122.25c.23-.82.64-1.63,1.22-2.42-1.39-.05-1.8.75-1.22,2.42Z"/>
    <path class="cls-156" d="M51.11,130.41c-.47-.85-.89-2.01-1.26-3.5-1.3-1.9-2.14-3.42-2.56-4.55-.02-.02-.03-.05-.05-.07,0-.01.01-.03.01-.04-.58-1.66-.17-2.47,1.22-2.42.17-.24.36-.48.57-.71-.88-.3-11.2-2.2-8,.98.16.16,2.73.55,3.95,1.55,2,1.63,5.83,7.77,5.67,9.95-.07.93-1.95,2-1.62,3.99.29,1.74,3.43,2.21,4-.48l-2.04-.06c.32-1.55.35-3.1.11-4.64Z"/>
    <path class="cls-156" d="M49.32,119.93c-.32-.07-.6-.1-.85-.11-.58.79-.99,1.6-1.22,2.42.01.04.03.07.04.11,2.13,2.67,3.4,5.35,3.82,8.06.57,1.03,1.21,1.61,1.93,1.7-1.6-2.71-2.92-7.67-4.92-10.54,0-.13,1.81-1.42,1.92-1.46-.36.06-.58-.03-.72-.18Z"/>
    <path class="cls-143" d="M50.45,118.62c.35.06.23.55-.41,1.49,6.77-3.23,6.91-3.73.41-1.49Z"/>
    <path class="cls-143" d="M50.45,118.62c6.5-2.24,6.36-1.74-.41,1.49,3.55-1.31,9.6-.72,12-4.99-4.84-.49-9.22,1.03-13,3.99.71-.38,1.17-.53,1.41-.49Z"/>
    <path class="cls-143" d="M49.32,119.93c.22.05.46.11.72.18.64-.94.77-1.43.41-1.49-.44.15-.91.32-1.41.49.04.02,0,.53.28.82Z"/>
    <path class="cls-143" d="M50.04,120.12c-.26-.07-.49-.13-.72-.18.14.15.36.24.72.18Z"/>
    <path class="cls-143" d="M49.04,119.12c.5-.18.97-.34,1.41-.49-.24-.04-.7.12-1.41.49Z"/>
    <path class="cls-187" d="M61.02,201.62c-.13-2.91-6.42-3.11-5.97,1.49,1.15.29,6.04.04,5.97-1.49Z"/>
    <path class="cls-137" d="M55.73,137.31c.26-.38.59-.49.98-.35-.38-.19-.79-.45-1.19-.76.12.34.19.72.21,1.11Z"/>
    <path class="cls-137" d="M54.07,134.83c-.28-.34-.51-.69-.69-1.05-.03.44-.13.88-.33,1.33.38-.23.72-.3,1.03-.28Z"/>
    <path class="cls-137" d="M55.52,136.2c-.52-.39-1.03-.86-1.45-1.37-.31-.02-.65.06-1.03.28.12.22,1.39.43,1.81,1.69.41,1.21-.03,2.59.19,3.31.11-1.38.34-2.31.69-2.8-.03-.4-.1-.78-.21-1.11Z"/>
    <path class="cls-137" d="M53.37,133.78c.18.36.42.71.69,1.05.67.05,1.18.59,1.45,1.37.4.3.81.56,1.19.76.11.04.22.08.33.16-1.41-2.59-3.39-3.98-4-5,.27.55.37,1.1.33,1.67Z"/>
    <path class="cls-137" d="M54.07,134.83c.42.51.93.98,1.45,1.37-.27-.78-.78-1.32-1.45-1.37Z"/>
    <path class="cls-137" d="M56.71,136.96c-.39-.13-.72-.02-.98.35.06.94-.14,1.97-.69,2.8l2-3c-.11-.05-.22-.1-.33-.16Z"/>
    <path class="cls-137" d="M57.04,137.12c-.12-.07-.23-.12-.33-.16.11.06.23.11.33.16Z"/>
    <path class="cls-137" d="M55.73,137.31c-.34.49-.57,1.42-.69,2.8.55-.83.75-1.86.69-2.8Z"/>
    <path class="cls-137" d="M53.04,132.12l-1,.52c.03.96.57,1.69,1,2.48.21-.45.31-.89.33-1.33-.28-.55-.42-1.12-.33-1.67Z"/>
    <path class="cls-137" d="M53.37,133.78c.03-.57-.07-1.12-.33-1.67-.08.55.06,1.12.33,1.67Z"/>
    <path class="cls-68" d="M32.04,180.11c2.34,1.69,6-3.03,2.49-3.98-3.51-.96-3.68,3.13-2.49,3.98Z"/>
    <path class="cls-80" d="M38.05,193.12c-2.07,2.08,1.88,6.07,3.99,3.99,1.62-1.6-2.37-5.61-3.99-3.99Z"/>
    <path class="cls-25" d="M33.53,139.13c-3.45-1.28-2.91,3.55-2.48,3.98,1.64,1.65,6.34-2.55,2.48-3.98Z"/>
    <path class="cls-39" d="M65.04,193.12c-2.35-.28-3.93-.23-2.99,2.49.27.78,1.57.64,2.62,1.16-.74-1.68-.63-2.9.37-3.65Z"/>
    <path class="cls-39" d="M65.21,197.14c.31.29.57.69.71,1.27-.3-1.75-.54-3.53-.88-5.29-.41,1.1-.35,2.45.17,4.03Z"/>
    <path class="cls-39" d="M66.04,199.12c-.02-.26-.06-.49-.12-.71.04.23.07.47.12.71Z"/>
    <path class="cls-39" d="M65.04,193.12c-1,.75-1.11,1.98-.37,3.65.19.1.38.22.54.37-.52-1.58-.59-2.93-.17-4.03Z"/>
    <path class="cls-113" d="M58.04,151.12c-4.33,2.17-3.99,5.64,1,4-2.76-.02-2.81-2.28-1-4Z"/>
    <path class="cls-113" d="M59.04,155.12c-.33-1.61-.7-2.72-1-4-.54,1.87-.2,3.21,1,4Z"/>
    <path class="cls-113" d="M58.04,151.12c-1.81,1.72-1.76,3.98,1,4-1.2-.79-1.54-2.13-1-4Z"/>
    <path class="cls-118" d="M21.53,127.13c-3.45-1.28-2.91,3.55-2.48,3.98,1.64,1.65,6.34-2.55,2.48-3.98Z"/>
    <path class="cls-110" d="M53.04,149.11c1.65-1.64-2.55-6.34-3.98-2.48-1.28,3.45,3.55,2.91,3.98,2.48Z"/>
    <path class="cls-155" d="M27.53,133.12c-2.11-.46-3.21,3.26-2.48,3.99,1.93,1.93,6.18-3.18,2.48-3.99Z"/>
    <path class="cls-12" d="M39.53,133.12c-2.11-.46-3.21,3.26-2.48,3.99,1.93,1.93,6.18-3.18,2.48-3.99Z"/>
    <path class="cls-30" d="M309.53,185.11c3.7-.81-.55-5.92-2.48-3.99-.73.73.37,4.45,2.48,3.99Z"/>
    <path class="cls-134" d="M234.56,185.11c2.11.46,3.21-3.26,2.48-3.99-1.93-1.93-6.18,3.18-2.48,3.99Z"/>
    <path class="cls-153" d="M51.54,186.1c2.46,0,2.46-4.96,0-4.96s-2.46,4.96,0,4.96Z"/>
    <path class="cls-54" d="M15.53,121.12c-2.11-.46-3.21,3.26-2.48,3.99,1.93,1.93,6.18-3.18,2.48-3.99Z"/>
    <path class="cls-146" d="M32.05,187.12c-1.25.99-.96,4.88,2.48,3.98,3.23-.84-1.18-5.01-2.48-3.98Z"/>
    <path class="cls-126" d="M45.54,187.14c-2.46,0-2.46,4.96,0,4.96s2.46-4.96,0-4.96Z"/>
    <path class="cls-113" d="M38.56,145.12c-3.7.81.55,5.92,2.48,3.99.73-.73-.37-4.45-2.48-3.99Z"/>
    <path class="cls-44" d="M58.53,191.11c3.23-.84-1.18-5.01-2.48-3.98-1.25.99-.96,4.88,2.48,3.98Z"/>
    <path class="cls-89" d="M50.05,193.12c-1.25.99-.96,4.88,2.48,3.98,3.23-.84-1.18-5.01-2.48-3.98Z"/>
    <path class="cls-129" d="M47.04,155.11c.73-.73-.37-4.45-2.48-3.99-3.7.81.55,5.92,2.48,3.99Z"/>
    <rect class="cls-178" x="31.05" y="127.12" width="2.99" height="3.99"/>
    <path class="cls-143" d="M45.53,131.11c2.36-.52,1.48-4.53-.97-3.99-2.36.52-1.48,4.53.97,3.99Z"/>
    <path class="cls-129" d="M27.53,149.11c2.36-.52,1.48-4.53-.97-3.99-2.36.52-1.48,4.53.97,3.99Z"/>
    <path class="cls-86" d="M39.53,125.11c2.36-.52,1.48-4.53-.97-3.99-2.36.52-1.48,4.53.97,3.99Z"/>
    <path class="cls-150" d="M21.53,143.11c2.36-.52,1.48-4.53-.97-3.99-2.36.52-1.48,4.53.97,3.99Z"/>
    <path class="cls-83" d="M45.53,143.11c2.36-.52,1.48-4.53-.97-3.99-2.36.52-1.48,4.53.97,3.99Z"/>
    <path class="cls-133" d="M14.56,133.12c-2.36.52-1.48,4.53.97,3.99,2.36-.52,1.48-4.53-.97-3.99Z"/>
    <path class="cls-98" d="M53.04,161.11v-2.99s-3.99,0-3.99,0v1.48c1.06,1.57,2.15,1.74,3.99,1.51Z"/>
    <path class="cls-17" d="M302.56,191.11c2.62.57,2.32-3.32,1.48-3.99-1.81-1.44-4.57,3.31-1.48,3.99Z"/>
    <path class="cls-97" d="M38.55,182.13c-2.39.62-1.02,3.76,1.98,2.98,2.39-.62,1.02-3.76-1.98-2.98Z"/>
    <path class="cls-27" d="M299.02,182.62c0-1.03-3.36-2.11-3.97-1.49-2.59,2.59,3.97,5.37,3.97,1.49Z"/>
    <path class="cls-159" d="M274.03,184.11c1.44-1.81-3.31-4.57-3.99-1.48-.57,2.62,3.32,2.32,3.99,1.48Z"/>
    <path class="cls-142" d="M44.05,176.12c-2.59,2.59,3.97,5.37,3.97,1.49,0-1.03-3.36-2.11-3.97-1.49Z"/>
    <path class="cls-178" d="M31.05,153.6c.68,3.09,5.42.33,3.99-1.48-.67-.84-4.56-1.14-3.99,1.48Z"/>
    <path class="cls-102" d="M47.04,164.12c-2.59-2.59-5.37,3.97-1.49,3.97,1.03,0,2.11-3.36,1.49-3.97Z"/>
    <path class="cls-170" d="M38.55,161.11c2.95,1.06,3.23-2.23,2.48-2.98-1.31-1.32-5.93,1.74-2.48,2.98Z"/>
    <path class="cls-182" d="M58.53,164.13c-2.95-1.06-3.23,2.23-2.48,2.98,1.31,1.32,5.93-1.74,2.48-2.98Z"/>
    <path class="cls-144" d="M31.05,165.6c.49,1.29,3.32,2.12,3.99,1.51,2.03-1.89-5.3-4.98-3.99-1.51Z"/>
    <path class="cls-196" d="M320.05,193.12v3.99c3.93,0,3.98-3.97,0-3.99Z"/>
    <path class="cls-157" d="M264.05,190.11h3.99c0-3.93-3.97-3.98-3.99,0Z"/>
    <path class="cls-18" d="M41.04,170.12c-.75-.75-4.05-.46-2.98,2.48,1.24,3.45,4.3-1.17,2.98-2.48Z"/>
    <path class="cls-151" d="M28.04,125.11c1.32-1.31-1.74-5.93-2.98-2.48-1.06,2.95,2.23,3.23,2.98,2.48Z"/>
    <path class="cls-83" d="M286.04,181.12c-.75-.75-4.05-.46-2.98,2.48,1.24,3.45,4.3-1.17,2.98-2.48Z"/>
    <path class="cls-3" d="M245.05,184.11h3.99c0-3.93-3.97-3.98-3.99,0Z"/>
    <path class="cls-45" d="M56.05,178.61c1.24,3.45,4.3-1.17,2.98-2.48-.75-.75-4.05-.46-2.98,2.48Z"/>
    <path class="cls-66" d="M261.04,181.12c-1.59-1.59-4.58,1.4-2.99,2.99,1.59,1.59,4.58-1.4,2.99-2.99Z"/>
    <path class="cls-20" d="M26.05,185.11c1.59,1.59,4.58-1.4,2.99-2.99-1.59-1.59-4.58,1.4-2.99,2.99Z"/>
    <path class="cls-169" d="M49.06,171.62c.01,1.03,3.31,2.11,3.98,1.49,1.91-1.77-4-4.48-3.98-1.49Z"/>
    <path class="cls-31" d="M317.04,188.12c-.67-.62-3.96.47-3.98,1.49-.03,2.98,5.88.28,3.98-1.49Z"/>
    <path class="cls-167" d="M26.05,170.12c-1.51,1.71,1.3,4.49,2.99,2.99,1.07-.96-2.05-4.06-2.99-2.99Z"/>
    <path class="cls-110" d="M292.04,190.11c1.05-.97-1.88-4.57-2.99-1.48-.76,2.11,2.62,1.82,2.99,1.48Z"/>
    <path class="cls-104" d="M280.04,190.11c1.05-.97-1.88-4.57-2.99-1.48-.76,2.11,2.62,1.82,2.99,1.48Z"/>
    <path class="cls-103" d="M241.53,187.13c-2.11-.76-1.82,2.62-1.48,2.99.97,1.05,4.57-1.88,1.48-2.99Z"/>
    <path class="cls-145" d="M157.04,190.11c1.05-.97-1.88-4.57-2.99-1.48-.76,2.11,2.62,1.82,2.99,1.48Z"/>
    <path class="cls-43" d="M20.05,177.63c-.76,2.11,2.62,1.82,2.99,1.48,1.05-.97-1.88-4.57-2.99-1.48Z"/>
    <path class="cls-45" d="M22.04,116.12c-.37-.34-3.74-.63-2.99,1.48,1.11,3.09,4.03-.51,2.99-1.48Z"/>
    <rect class="cls-195" x="31.05" y="116.12" width="2.99" height="1.99"/>
    <rect class="cls-174" x="55.05" y="128.12" width="1.99" height="2.99"/>
    <path class="cls-50" d="M180.54,187.14c-.66,0-2.07,2.4-1.49,2.97,1.51,1.51,4.26-2.97,1.49-2.97Z"/>
    <rect class="cls-92" x="103.05" y="200.12" width="2.99" height="1.99"/>
    <path class="cls-88" d="M117.05,199.12v2.99s1.98,0,1.98,0c.31-1.38-.54-2.66-1.98-2.99Z"/>
    <path class="cls-200" d="M110.05,193.12v1.99s2.99,0,2.99,0c-.34-1.45-1.61-2.29-2.99-1.98Z"/>
    <path class="cls-95" d="M255.03,188.12h-2.98c-1.78,2.86,4.76,2.86,2.98,0Z"/>
    <path class="cls-79" d="M231.04,188.13h-2.99s0,1.98,0,1.98c1.38.31,2.66-.54,2.99-1.98Z"/>
    <path class="cls-166" d="M117.05,186.12v2.99s1.98,0,1.98,0c.31-1.38-.54-2.66-1.98-2.99Z"/>
    <path class="cls-123" d="M140.04,71.12c3.82-.15,4.08-4.28,6-6.5,7.17-8.31,18.53-14.6,27-4,1.55,1.94,5.32,9.84,4.84,11.91-1.03,4.47-33.36,7.5-35.41,4.66-.98-1.36.13-4.47-.71-4.84-.03,0-.06-.01-.09-.02-.3-.06-.8.15-1.63.79-1.41,10.79.48,21.12,11.59,25.91,23.45,10.09,40.91-19.23,25.82-38.82-12.1-15.7-33.82-6.77-37.41,10.91ZM156.63,96.02c-6.77-.97-4.6-3.01-6.85-5.65-.72-.84-2.55-.59-3.81-1.97-1.29-1.42-1.65-4.25-2.93-5.8,6.35-1.93,11.96,2.18,18.39,1.43,5.98-.7,10.17-6.62,16.59-6.92.1,13.43-7.84,20.84-21.4,18.9Z"/>
    <path class="cls-123" d="M141.76,72.35s-.06-.01-.09-.02c.03,0,.06.01.09.02Z"/>
    <path class="cls-123" d="M219.66,67.09c.76,4.14-9.15,5.58-12.25,5.91-11.21,1.17-16.74,1.23-13.93-11.93,2.26-10.62,12.92-8.56,20.55-4.95-1.85-5.84-10.09-6.97-15.29-5.78-17.06,3.91-10.88,48.23,15.32,41.32,11.99-3.16,13.13-23.69,5.48-31.54-7.06-7.24-.27,4.9.11,6.98ZM221.04,74.12c-.85,19.3-18.67,19.66-25.99,3.49,6.76-1.32,12.38,4.01,19.37.38,2.24-1.17,3.25-4.67,6.62-3.87Z"/>
    <path class="cls-163" d="M197.91,103.97c-3.24,1.91-8.2-8.64-9.82-3.27-2.26,7.49,15.26,11.09,12.94,1.93-.95-3.75-2.91,1.22-3.12,1.34Z"/>
    <path class="cls-135" d="M164.04,23.13c3.98,4.18,11.87,3.23,16.99,5.99-1.37-6.53-11.7-5.79-16.99-5.99Z"/>
    <path class="cls-52" d="M154.59,27.16l8.45-4.04c-3.88-.43-7.68.63-11.04,2.48-4.69,2.59-.66,3.18,2.59,1.55Z"/>
    <path class="cls-13" d="M147.04,132.12c1.45-1.31,3.12-2.31,5-3-2.36.41-4.03,1.41-5,3Z"/>
    <path class="cls-13" d="M152.04,129.12c-3.53-2.06-7.12-1.16-5,3,.97-1.59,2.64-2.59,5-3Z"/>
    <path class="cls-13" d="M151,133.1c.36-.25.56-3.24,1.04-3.98-1.88.69-3.55,1.69-5,3,.58-.03,2.98,1.67,3.96.98Z"/>
    <path class="cls-138" d="M173.04,32.13c-.87-.9-9.62-1.93-8.99,1.98.76-.09,11.81.94,8.99-1.98Z"/>
    <path class="cls-131" d="M154.04,127.12c.99-1.95,1.66-3.95,2-6-2.23,1.11-3.7,3.82-2,6Z"/>
    <path class="cls-131" d="M157.93,124.8c-.03-.57.01-1.16.12-1.74-.32-.55-.95-1.19-2.02-1.95.22,2.11-.44,4.11-2,6,.85-.77,3.01-1.33,3.89-2.31Z"/>
    <path class="cls-131" d="M156.04,121.12c-.34,2.05-1.01,4.05-2,6,1.56-1.89,2.22-3.89,2-6Z"/>
    <path class="cls-131" d="M158.06,123.07c-.11.57-.16,1.17-.12,1.74.41-.46.54-1.02.12-1.74Z"/>
    <path class="cls-115" d="M118.04,102.11c.6-.54-.01-5.63-2.48-4.99-1.89.49-2.3,1.86-1.94,3.13l.52,1.09c.88,1.28,2.51,2.03,3.9.78Z"/>
    <path class="cls-115" d="M113.61,100.25c.11.38.28.75.52,1.09l-.52-1.09Z"/>
    <path class="cls-98" d="M128.56,110.12c-2.54.59-1.95,6,1.98,4.98,2.65-.68-.02-5.44-1.98-4.98Z"/>
    <path class="cls-173" d="M120.04,104.13c-.45,1.89,3.01,6.97,4.99,4.98,1.48-1.48-2.43-6.23-4.99-4.98Z"/>
    <path class="cls-101" d="M161.1,128.56c.27,1.38,1.25,2.24,2.94,2.56-1.66-.61-2.64-1.46-2.94-2.56Z"/>
    <path class="cls-101" d="M161.1,128.56c.31,1.1,1.28,1.95,2.94,2.56.31-4.47-1.32-2.5-3-4-.05.53-.03,1.01.06,1.44Z"/>
    <path class="cls-101" d="M164.04,131.12c-1.69-.32-2.67-1.18-2.94-2.56-.12-.44-.15-.92-.06-1.44-3.62,3.54-1.33,6.47,3,4Z"/>
    <path class="cls-101" d="M161.1,128.56c-.09-.43-.11-.91-.06-1.44-.1.52-.07,1,.06,1.44Z"/>
    <path class="cls-172" d="M145.06,118.62c0,3.59,8.19,1.32,5.97-1.49-1.17-1.48-5.97-.32-5.97,1.49Z"/>
    <path class="cls-87" d="M202.04,43.11c.96-3.07-6.03-5.19-5.98-2.49.03,1.39,4.34,3.2,5.98,2.49Z"/>
    <path class="cls-124" d="M89.05,75.63c-.82,2.94,4.39,2.33,4.99,1.48,1.28-1.84-3.75-5.9-4.99-1.48Z"/>
    <path class="cls-5" d="M124.04,92.12c-2.47-.27-5.26-.07-4.99,2.99,3.53.7,5.37,1.56,4.99-2.99Z"/>
    <path class="cls-34" d="M129.54,103.09c1.95-.09,1.05-4.57.49-4.97-2.46-1.76-4.96,5.18-.49,4.97Z"/>
    <path class="cls-181" d="M90.22,62.24c-.46.17-.87.58-1.17,1.38-1.28,3.45,3.55,2.91,3.98,2.48.8-.8.22-2.31-.75-3.22-.59.13-1.28-.05-2.06-.65Z"/>
    <path class="cls-181" d="M90.22,62.24c.79.6,1.47.78,2.06.65-.62-.58-1.38-.9-2.06-.65Z"/>
    <path class="cls-8" d="M84.55,68.13c-2.45.66-1.37,4.51.98,3.99,2.76-.62,2.98-5.05-.98-3.99Z"/>
    <path class="cls-149" d="M137.04,116.12c-2.52-1.83-5.12,2.41-2.23,3.74.69,0,1.37.03,2.05.07,1.16-.79.8-3.36.18-3.81Z"/>
    <path class="cls-149" d="M136.87,119.93c-.68-.04-1.37-.07-2.05-.07.22.1.46.19.74.25.57.13.99.04,1.31-.18Z"/>
    <path class="cls-12" d="M107.05,80.63c-.46,2.11,3.26,3.21,3.99,2.48,1.93-1.93-3.18-6.18-3.99-2.48Z"/>
    <path class="cls-168" d="M169.59,123.1c-2.76-3.48-5.93,1.09-1.55,3.01h1c-.02-.5,1.57-1.72.55-3.01Z"/>
    <path class="cls-29" d="M133.05,108.12c.57.79,4.59,1.18,3.99-1.49-.9-4.03-5.95-1.23-3.99,1.49Z"/>
    <path class="cls-3" d="M172.05,132.11c1.6,1.26,4.13-2.85,2.99-3.99-1.74-1.74-5.31,2.15-2.99,3.99Z"/>
    <path class="cls-104" d="M141.54,110.14c-2.47.03-2.47,4.93,0,4.96,1.88.02,1.88-4.98,0-4.96Z"/>
    <path class="cls-141" d="M114.05,85.12c-2.33,1.84,1.25,5.73,2.99,3.99,1.14-1.14-1.39-5.25-2.99-3.99Z"/>
    <path class="cls-204" d="M114.53,53.11c2.36-.52,1.48-4.53-.97-3.99-2.36.52-1.48,4.53.97,3.99Z"/>
    <path class="cls-150" d="M96.56,68.12c-2.36.52-1.48,4.53.97,3.99,2.36-.52,1.48-4.53-.97-3.99Z"/>
    <path class="cls-190" d="M101.05,75.63v1.48s3.99,0,3.99,0v-2.99c-1.84-.23-2.94-.06-3.99,1.51Z"/>
    <path class="cls-200" d="M152.04,112.13c1.16,6.36,5.53.69,4-1.01-.58-.64-2.95,1.21-4,1.01Z"/>
    <path class="cls-60" d="M203.15,130.53c.09.42.09.83.03,1.25.17-.09.35-.17.53-.2-.25-.27-.43-.63-.55-1.05Z"/>
    <path class="cls-60" d="M203.17,131.78c.07-.42.06-.84-.03-1.25-.04-.13-.07-.27-.11-.41-1.17,1.94-2.69,2.14-1,4-.35-.81.3-1.87,1.13-2.34Z"/>
    <path class="cls-60" d="M203.7,131.57c.48-.1.97.03,1.34.54.29-2.77-.13-1.76-2-2,.05.14.08.27.11.41.13.41.3.77.55,1.05Z"/>
    <path class="cls-60" d="M203.04,130.12c.03.14.07.28.11.41-.03-.14-.06-.27-.11-.41Z"/>
    <path class="cls-60" d="M203.7,131.57c-.18.04-.36.11-.53.2-.12.77-.49,1.55-1.13,2.34l3-2c-.61,0-1.03-.21-1.34-.54Z"/>
    <path class="cls-60" d="M202.04,134.12c.64-.79,1.01-1.57,1.13-2.34-.84.46-1.48,1.53-1.13,2.34Z"/>
    <path class="cls-60" d="M203.7,131.57c.31.33.73.54,1.34.54-.37-.51-.86-.64-1.34-.54Z"/>
    <path class="cls-201" d="M131.05,69.11c1.31,1.32,5.93-1.74,2.48-2.98-2.95-1.06-3.23,2.23-2.48,2.98Z"/>
    <path class="cls-25" d="M121.53,80.13c-2.95-1.06-3.23,2.23-2.48,2.98,1.31,1.32,5.93-1.74,2.48-2.98Z"/>
    <path class="cls-170" d="M129.04,86.12c-1.59-1.59-4.58,1.4-2.99,2.99,1.59,1.59,4.58-1.4,2.99-2.99Z"/>
    <path class="cls-58" d="M181.04,134.12c-1.46-.51-3.19.24-3.98,1.51l.98.49c.45-1.03,1.45-1.7,3-2Z"/>
    <path class="cls-58" d="M181.03,136.87v-2.76c-.92.98-1.92,1.65-2.99,2,.39-.02,1.31.73,2.18.97.28-.06.55-.13.81-.21Z"/>
    <path class="cls-58" d="M181.03,137.11v-.24c-.26.08-.53.15-.81.21.28.08.56.1.81.03Z"/>
    <path class="cls-58" d="M178.04,136.12c1.08-.35,2.08-1.02,3-2-1.55.3-2.55.97-3,2Z"/>
    <path class="cls-120" d="M134.05,47.11c.67.62,3.96-.47,3.98-1.49.03-2.98-5.88-.28-3.98,1.49Z"/>
    <path class="cls-132" d="M132.04,33.12c-.96-1.07-4.06,2.05-2.99,2.99,1.71,1.51,4.49-1.3,2.99-2.99Z"/>
    <path class="cls-61" d="M161.2,119.94c.68-.59,2.51-.86,1.84-2.82-.9.14-2.37-.26-3,0,1.96.19,2.43,1.53,1.16,2.83Z"/>
    <path class="cls-61" d="M161.2,119.94c1.27-1.3.8-2.63-1.16-2.83l1,3c.04-.06.1-.12.16-.17Z"/>
    <path class="cls-49" d="M212.05,118.11c1.04,1.02,4.01-1.99,2.99-2.99-1.04-1.02-4.01,1.99-2.99,2.99Z"/>
    <path class="cls-142" d="M96.05,58.6c1.11,3.09,4.03-.51,2.99-1.48-.37-.34-3.74-.63-2.99,1.48Z"/>
    <polygon class="cls-171" points="135.04 93.12 132.04 93.13 134.55 96.11 135.04 93.12"/>
    <path class="cls-96" d="M205.05,124.12c.1.13,1.76-.87,3.05-1.07.23-.22.47-.44.72-.67-1.05-2.13-5.16.04-3.77,1.73Z"/>
    <path class="cls-96" d="M209.04,123.11c-.04-.29-.12-.52-.22-.72-.25.23-.49.45-.72.67.35-.05.68-.05.94.06Z"/>
    <path class="cls-158" d="M193.04,135.12h-1.99s0,1.81,0,1.81l1.6.14c.39-.55.55-1.23.39-1.95Z"/>
    <path class="cls-158" d="M192.65,137.07l-1.6-.14v1.18c.69-.16,1.24-.54,1.6-1.04Z"/>
    <path class="cls-9" d="M114.05,74.12v2.99s1.98,0,1.98,0c.31-1.38-.54-2.66-1.98-2.99Z"/>
    <path class="cls-147" d="M312.9,131.21c.86-.21,1.83-.02,2.46.61,1.72-2.52-.61-2.04-2.46-.61Z"/>
    <path class="cls-147" d="M312.9,131.21c1.85-1.43,4.19-1.91,2.46.61.5.49.79,1.25.67,2.29,1.15-1.38,2.37-2.21,1.95-4.39-1.04-3.62-10.43-.58-6.95,4.39-.27-1.63.7-2.62,1.86-2.9Z"/>
    <path class="cls-147" d="M316.04,134.12l-.76-2.16s.06-.09.09-.13c-.63-.63-1.6-.82-2.46-.61-1.03.79-1.91,1.88-1.86,2.9,1.88-.97,3.11-1.38,5,0Z"/>
    <path class="cls-147" d="M315.37,131.82s-.06.09-.09.13l.76,2.16c.12-1.04-.18-1.8-.67-2.29Z"/>
    <path class="cls-147" d="M312.9,131.21c-1.16.28-2.14,1.27-1.86,2.9-.04-1.03.84-2.11,1.86-2.9Z"/>
    <path class="cls-4" d="M217.04,135.12c.51-.33,3,.96,2.02-2.5-.24-.84-2.27-.9-3.02-1.5.88,1.24,1.21,2.58,1,4Z"/>
    <path class="cls-4" d="M215.09,134.71c.48.03,1.14.18,1.95.41.16-1.07-.18-2.41-1-4-.34,1.52-1.15,2.89-.95,3.59Z"/>
    <path class="cls-4" d="M217.04,135.12c.21-1.42-.12-2.76-1-4,.82,1.59,1.16,2.93,1,4Z"/>
    <path class="cls-4" d="M217.04,135.12c-.81-.23-1.47-.37-1.95-.41.12.44.65.63,1.95.41Z"/>
    <path class="cls-28" d="M272.56,140.12c-2.36.52-1.48,4.53.97,3.99,2.36-.52,1.48-4.53-.97-3.99Z"/>
    <path class="cls-189" d="M248.05,140.12v2.99s3.99,0,3.99,0v-1.48c-1.06-1.57-2.15-1.74-3.99-1.51Z"/>
    <path class="cls-184" d="M336.02,179.62c-.01-1.03-3.31-2.11-3.98-1.49-1.91,1.77,4,4.48,3.98,1.49Z"/>
    <path class="cls-167" d="M283.05,143.11c1.59,1.59,4.58-1.4,2.99-2.99s-4.58,1.4-2.99,2.99Z"/>
    <path class="cls-139" d="M260.05,140.12c-.62.67.47,3.96,1.49,3.98,2.98.03.28-5.88-1.49-3.98Z"/>
    <path class="cls-23" d="M301.05,137.11c1.69,1.5,4.5-1.28,2.99-2.99-.94-1.07-4.06,2.03-2.99,2.99Z"/>
    <path class="cls-188" d="M275.02,107.62c0-.66-2.4-2.07-2.97-1.49-.94.94.44,2.36,1.62,2.63.2,0,.4,0,.6,0,.04,0,.08,0,.12,0,.37-.12.64-.46.64-1.13Z"/>
    <path class="cls-188" d="M273.67,108.75c.26.06.51.06.72-.01-.04,0-.07,0-.12,0-.2,0-.4,0-.6,0Z"/>
    <path class="cls-94" d="M232.54,138.1c.66,0,2.07-2.4,1.49-2.97-1.51-1.51-4.26,2.97-1.49,2.97Z"/>
    <path class="cls-70" d="M327.54,160.14c-.66,0-2.07,2.4-1.49,2.97,1.51,1.51,4.26-2.97,1.49-2.97Z"/>
    <rect class="cls-7" x="339.05" y="184.12" width="1.99" height="2.99"/>
    <path class="cls-85" d="M243.54,135.14c-1.5,0-1.5,2.96,0,2.96s1.5-2.96,0-2.96Z"/>
    <path class="cls-186" d="M228.55,134.11l.49-2.99h-1.99c-.32,1.47.44,2.08,1.5,2.99Z"/>
    <path class="cls-190" d="M222.05,126.12v2.99s1.98,0,1.98,0c.31-1.38-.54-2.66-1.98-2.99Z"/>
    <path class="cls-91" d="M100.53,164.13c-3.88-1.07-3.76,4-2.48,4.98,1.6,1.23,6.14-3.97,2.48-4.98Z"/>
    <path class="cls-119" d="M150.04,170.11c.14-1.66.22-4.31-1.5-4.99-4.45-1.75-2.4,5.43,1.5,4.99Z"/>
    <path class="cls-140" d="M110.56,169.11c2.11.46,3.21-3.26,2.48-3.99-1.93-1.93-6.18,3.18-2.48,3.99Z"/>
    <path class="cls-127" d="M136.53,165.12c-2.11-.46-3.21,3.26-2.48,3.99,1.93,1.93,6.18-3.18,2.48-3.99Z"/>
    <path class="cls-140" d="M124.53,169.11c2.36-.52,1.48-4.53-.97-3.99-2.36.52-1.48,4.53.97,3.99Z"/>
    <path class="cls-69" d="M278.53,166.11c2.36-.52,1.48-4.53-.97-3.99-2.36.52-1.48,4.53.97,3.99Z"/>
    <path class="cls-51" d="M241.53,166.11c2.36-.52,1.48-4.53-.97-3.99-2.36.52-1.48,4.53.97,3.99Z"/>
    <path class="cls-23" d="M103.05,171.12c-1.44,1.81,3.31,4.57,3.99,1.48.57-2.62-3.32-2.32-3.99-1.48Z"/>
    <path class="cls-121" d="M100.04,156.11c1.32-1.31-1.74-5.93-2.98-2.48-1.06,2.95,2.23,3.23,2.98,2.48Z"/>
    <path class="cls-193" d="M176.04,171.11c1.32-1.31-1.74-5.93-2.98-2.48-1.06,2.95,2.23,3.23,2.98,2.48Z"/>
    <path class="cls-183" d="M164.04,168.12c-.66-.62-3.5.22-3.99,1.51-1.32,3.47,6.02.38,3.99-1.51Z"/>
    <path class="cls-81" d="M302.54,166.1c1.75-.02,3.43-4.75.01-3.97-2.17.49-1.41,3.99-.01,3.97Z"/>
    <path class="cls-199" d="M297.53,156.13c-2.95-1.06-3.23,2.23-2.48,2.98,1.31,1.32,5.93-1.74,2.48-2.98Z"/>
    <path class="cls-137" d="M103.05,162.11c.67.62,3.96-.47,3.98-1.49.03-2.98-5.88-.28-3.98,1.49Z"/>
    <path class="cls-25" d="M290.54,166.1c1.7.02,1.77-3.94,0-3.96-1.7-.02-1.77,3.94,0,3.96Z"/>
    <path class="cls-198" d="M168.56,166.11c2.12.81,1.77-2.69,1.48-2.98-1.74-1.74-5.1,1.6-1.48,2.98Z"/>
    <path class="cls-83" d="M229.53,166.11c2.14-.48,1.15-3.47-.97-2.99-2.14.48-1.15,3.47.97,2.99Z"/>
    <path class="cls-67" d="M186.56,171.11c2.12.81,1.77-2.69,1.48-2.98-1.74-1.74-5.1,1.6-1.48,2.98Z"/>
    <path class="cls-24" d="M119.04,171.12c-1.69-1.5-4.5,1.28-2.99,2.99.94,1.07,4.06-2.03,2.99-2.99Z"/>
    <path d="M130.53,174.11c2.14-.48,1.15-3.47-.97-2.99-2.14.48-1.15,3.47.97,2.99Z"/>
    <path class="cls-88" d="M255.04,163.12c-.37-.34-3.74-.63-2.99,1.48,1.11,3.09,4.03-.51,2.99-1.48Z"/>
    <path class="cls-84" d="M267.04,165.11c1.51-1.51-2.97-4.26-2.97-1.49,0,.66,2.4,2.07,2.97,1.49Z"/>
    <path class="cls-41" d="M180.54,166.1c.66,0,2.07-2.4,1.49-2.97-1.51-1.51-4.26,2.97-1.49,2.97Z"/>
    <rect x="246.05" y="168.12" width="1.99" height="2.99"/>
    <rect class="cls-180" x="233.05" y="169.12" width="2.99" height="1.99"/>
    <path class="cls-169" d="M387.04,139.11c-.68-14.91.82-25.24,15.52-31.99.05-4.15-9.41,1.07-11.45,2.56-7.07,5.19-10.58,20.5-6.3,28.15.22.4.28.73.37.97.22.15.44.3.64.45.27.01.65-.03,1.22-.14Z"/>
    <path class="cls-169" d="M385.81,139.25c-.2-.15-.42-.3-.64-.45.09.27.22.44.64.45Z"/>
    <path class="cls-148" d="M388.95,194.03c.28,0,.64.03,1.09.09-.45-.72-.82-1.65-1.12-2.71.05,1,.07,1.9.03,2.62Z"/>
    <path class="cls-148" d="M387.68,181.95c.17.75.34,1.69.5,2.73.13-3.45,1-6.81,2.85-8.57-1.81,1.36-2.93,3.31-3.36,5.84Z"/>
    <path class="cls-148" d="M388.92,191.41c.3,1.05.67,1.98,1.12,2.71-.32-6.21.59-11.89,1-18-1.85,1.76-2.73,5.12-2.85,8.57.33,2.12.62,4.63.73,6.72Z"/>
    <path class="cls-148" d="M388.93,194.26c0-.07,0-.16.01-.24-1.98-.03-.08,1.05-.01.24Z"/>
    <path class="cls-148" d="M388.05,175.11c-.32.24-2.63,7.11-2.63,7.51,0,.66,1.58,2.06,1.69,3.95.19,3.22-1.43,6.49.39,8.55.66.74,1.01.96,1.25.91l.48-.71c.16-.41.37-.89.81-1.2-.45-.06-.81-.08-1.09-.09,0,.08,0,.16-.01.24-.06.81-1.97-.27.01-.24.04-.72.03-1.62-.03-2.62-.55-1.96-.82-4.36-.73-6.72-.16-1.04-.34-1.98-.5-2.73.43-2.53,1.55-4.47,3.36-5.84-.7-.2-2.44-1.43-2.99-1.01Z"/>
    <path class="cls-148" d="M389.23,195.31l-.48.71c.22-.05.34-.35.48-.71Z"/>
    <path class="cls-148" d="M388.92,191.41c-.11-2.09-.4-4.61-.73-6.72-.09,2.36.18,4.76.73,6.72Z"/>
    <path class="cls-194" d="M390.14,122.22c-2.39,3.88,4.93,4.42,3.89-1.1-.32-.35-3.79.93-3.89,1.1Z"/>
    <path class="cls-162" d="M375.56,101.12c.85.15,2.32-1.2,3.47-1.01-.16-6.15-7.34.33-3.47,1.01Z"/>
    <path class="cls-152" d="M396.56,116.12c-2.17.49-1.41,3.99-.01,3.97,1.75-.02,3.43-4.75.01-3.97Z"/>
    <path class="cls-164" d="M395.54,170.14c-1.03.01-2.11,3.31-1.49,3.98,1.77,1.91,4.48-4,1.49-3.98Z"/>
    <path class="cls-185" d="M391.56,136.11c2.12.81,1.77-2.69,1.48-2.99-1.74-1.74-5.1,1.6-1.48,2.99Z"/>
    <path class="cls-23" d="M367.54,158.14c-1.7-.02-1.77,3.94,0,3.96,1.7.02,1.77-3.94,0-3.96Z"/>
    <path class="cls-27" d="M381.04,161.11c1.05-.97-1.88-4.57-2.99-1.48-.76,2.11,2.62,1.82,2.99,1.48Z"/>
    <path class="cls-106" d="M395.05,128.63c-.76,2.11,2.62,1.82,2.99,1.48,1.05-.97-1.88-4.57-2.99-1.48Z"/>
    <path class="cls-67" d="M370.48,102.47c-.08-.16-.15-.34-.21-.54-.28.21-.69.3-1.23.18l1,1c.13-.41.28-.62.44-.64Z"/>
    <path class="cls-67" d="M370.27,101.94c.06.2.13.38.21.54.17-.02.36.19.56.64.05-.98,1.18-2.8,1-2.99-.21-.23-1.51.2-2,0,.74.65.74,1.44.23,1.82Z"/>
    <path class="cls-67" d="M370.27,101.94c-.14-.48-.22-1.08-.23-1.82-.38.49-.65,1.76-1,2,.54.12.96.03,1.23-.18Z"/>
    <path class="cls-67" d="M370.48,102.47c-.16.02-.3.23-.44.64h1c-.23-.13-.41-.35-.56-.64Z"/>
    <path class="cls-67" d="M370.48,102.47c.15.29.34.51.56.64-.2-.45-.39-.66-.56-.64Z"/>
    <path class="cls-67" d="M370.04,100.12c.01.74.09,1.34.23,1.82.51-.38.51-1.17-.23-1.82Z"/>
    <path class="cls-47" d="M361.54,156.1c.66,0,2.07-2.4,1.49-2.97-1.51-1.51-4.26,2.97-1.49,2.97Z"/>
    <path class="cls-160" d="M401.54,168.1c.66,0,2.07-2.4,1.49-2.97-1.51-1.51-4.26,2.97-1.49,2.97Z"/>
    <path class="cls-109" d="M375.04,153.12c-1.38-.31-2.66.54-2.99,1.98h2.99s0-1.98,0-1.98Z"/>
    <path class="cls-34" d="M371.04,109.12l-3,2c1.41-.1,2.65-.51,3-2Z"/>
    <path class="cls-34" d="M369.06,108.12c-.1,1.02-.45,2.15-1.02,3,.98-1.34,1.98-2,3-2-.18-.08-.36-.16-.52-.26l-1.47-.74Z"/>
    <path class="cls-34" d="M368.04,111.12l3-2c-1.02,0-2.02.66-3,2Z"/>
    <path class="cls-34" d="M371.04,109.12l-.52-.26c.16.1.33.19.52.26Z"/>
    <path class="cls-143" d="M304.89,104.55c1.65-.32,3.27-.7,4.87-1.14-.11-.53-.2-1.05-.27-1.57-1.73-1.83-4.49,1.2-4.6,2.7Z"/>
    <path class="cls-143" d="M304.89,104.55c-.02.23.03.43.16.57l4.99-1v-1.48c-.17-.34-.36-.58-.55-.79.07.52.16,1.04.27,1.57-1.6.44-3.22.82-4.87,1.14Z"/>
    <path class="cls-21" d="M288.04,103.13c-3.33-1.26-3.29-1-3.84,2.14.35.31.68.57,1.01.8,1.41-.6,3.15-2.65,2.83-2.94Z"/>
    <path class="cls-21" d="M284.05,106.11c.31.2.72.15,1.16-.04-.33-.23-.66-.49-1.01-.8-.05.26-.09.54-.15.84Z"/>
    <path class="cls-178" d="M298.04,105.1c-1.46-4.04-5.59-1.49-4.21.7.76-.03,1.5-.07,2.25-.12.73-.33,1.49-.66,1.96-.58Z"/>
    <path class="cls-178" d="M294.05,106.11c.31.35,1.16-.04,2.03-.43-.75.05-1.5.1-2.25.12.06.1.13.21.22.31Z"/>
    <rect class="cls-2" x="327.05" y="104.12" width="2.99" height="1.99"/>
    <path class="cls-90" d="M347.04,126.11c1.32-1.32-1.93-3.58-2.78-2.3.25.53.58,1.2.95,1.94.7.4,1.52.66,1.82.36Z"/>
    <path class="cls-90" d="M345.21,125.75c-.38-.74-.7-1.4-.95-1.94-.12.19-.2.45-.2.8,0,.31.53.78,1.15,1.14Z"/>
    <path class="cls-136" d="M322.05,97.12v2.99s1.98,0,1.98,0c.31-1.38-.54-2.66-1.98-2.99Z"/>
    <path class="cls-116" d="M280.55,97.11l.49-2.99h-1.99c-.32,1.47.44,2.08,1.5,2.99Z"/>
    <path class="cls-114" d="M69.76,75.25c-.22,1.26-.93,2.65-1.72,2.86,1.28.18,1.81-1.37,1.72-2.86Z"/>
    <path class="cls-114" d="M69.76,75.25c-.05-.84-.3-1.66-.72-2.14l-1,5c.79-.21,1.5-1.6,1.72-2.86Z"/>
    <path class="cls-114" d="M70.03,79.12c-.51-2.92,2.89-6.75-.99-6,.75.13.9,1.09.72,2.14.09,1.49-.44,3.04-1.72,2.86.61.25,1.79,1.27,1.99,1Z"/>
    <path class="cls-114" d="M69.04,73.12c.42.48.67,1.3.72,2.14.18-1.05.03-2.01-.72-2.14Z"/>
    <path class="cls-184" d="M75.04,103.11v-1.99s-2.99.49-2.99.49c.91,1.06,1.52,1.82,2.99,1.5Z"/>
    <path class="cls-203" d="M376.03,179.12c-1.77-1.49-3.24,3.81-2.99,3.98.91.65,3.37-.24,3.98-1.49-.93-.44-.88-2.41-.99-2.5Z"/>
    <path class="cls-76" d="M382.04,187.12c-1.59-1.59-4.58,1.4-2.99,2.99,1.59,1.59,4.58-1.4,2.99-2.99Z"/>
    <rect class="cls-72" x="122.05" y="131.12" width="2.99" height="1.99"/>
    <path class="cls-30" d="M87.06,59.91c.06-.4.04-.74-.05-1.03-.08-.17-.16-.34-.24-.52-.28-.43-.73-.8-1.24-1.25l-.5,2.99c.74-.78,1.1-1.17,1.1-1.17,0,0-.37.39-1.1,1.17.78-.18,1.45-.24,2.02-.2Z"/>
    <path class="cls-30" d="M86.78,58.37c.08.18.16.35.24.52-.06-.18-.13-.36-.24-.52Z"/>
    <path class="cls-30" d="M87.06,59.91c-.57-.04-1.24.02-2.02.2h1.99c.02-.08.02-.13.03-.2Z"/>
    <path class="cls-18" d="M272.05,44.13l68.99,4c-22.78-2.59-46.02-6.83-68.99-4Z"/>
    <path class="cls-19" d="M269.53,61.11c3.18-.74.04-7.46-3.48-5.99-.4,1.78,1.33,6.49,3.48,5.99Z"/>
    <path class="cls-128" d="M265.04,67.11c.73-3.78-2.97-5.07-5.99-4.99.37,1.2,4.99,6.09,5.99,4.99Z"/>
    <path class="cls-46" d="M266.05,68.12c-.25,2.52,1.6,3.38,3.99,2.98-.49-.66-1.01-2.76-1.13-2.85-.57-.43-1.97-.03-2.86-.13Z"/>
    <path class="cls-38" d="M272.06,63.62c0,.54,3.82,2.68,3.97,2.5.7-2.7-4-5.11-3.97-2.5Z"/>
    <path class="cls-31" d="M277.05,78.12c-1.51,1.71,1.3,4.49,2.99,2.99,1.07-.96-2.05-4.06-2.99-2.99Z"/>
    <rect class="cls-22" x="343.05" y="79.12" width="2.99" height="1.99"/>
    <path class="cls-107" d="M352.04,87.11c1.51-1.51-2.97-4.26-2.97-1.49,0,.66,2.4,2.07,2.97,1.49Z"/>
    <rect class="cls-63" x="355.05" y="90.12" width="2.99" height="1.99"/>
    <path class="cls-26" d="M253.55,67.11l.49-2.99h-1.99c-.32,1.47.44,2.08,1.5,2.99Z"/>
    <path class="cls-55" d="M368.99,102.9c-.08-.15-.07-.39.05-.79-.56.34-.57.6-.05.79Z"/>
    <path class="cls-55" d="M368.99,102.9c-.52-.19-.51-.45.05-.79-.65.45-2.95.15-3,1.99l4-.99c-.57.03-.93.02-1.05-.21Z"/>
    <path class="cls-55" d="M368.99,102.9c.24.09.58.16,1.05.21l-1-1c-.12.39-.14.64-.05.79Z"/>
    <path class="cls-55" d="M370.04,103.12c-.47-.05-.81-.12-1.05-.21.13.23.49.24,1.05.21Z"/>
    <path class="cls-32" d="M364.55,105.12c-1.06.91-1.82,1.52-1.5,2.99h1.99s-.49-2.99-.49-2.99Z"/>
  </g>
</svg>