<svg xmlns="http://www.w3.org/2000/svg" id="Layer_2" data-name="Layer 2" viewBox="0 0 479.41 307.98">
    <defs>
        <style>
            .cls-1{fill:none}.cls-2{fill:#1b1a19}.cls-4{fill:#070707}.cls-5{fill:#858880}.cls-11{fill:#2b2b2b}.cls-12{fill:#030202}.cls-13{fill:#808180}.cls-14{fill:#444}.cls-15{fill:#1b1b1a}.cls-18{fill:#010101}.cls-19{fill:#757675}.cls-20{fill:#151515}.cls-21{fill:#181919}.cls-22{fill:#2f2f2f}.cls-23{fill:#232323}.cls-24{fill:#292929}.cls-25{fill:#414141}.cls-29{fill:#2a2a2b}.cls-32{fill:#232222}.cls-35{fill:#1c1c1c}.cls-36{fill:#4c4c4b}.cls-37{fill:#0b0b0a}.cls-41{fill:#2c2c2c}.cls-43{fill:#343333}.cls-44{fill:#171717}.cls-46{fill:#0a0a09}.cls-48{fill:#1a1818}.cls-49{fill:#141313}.cls-50{fill:#1e1c1c}.cls-51{fill:#100f0e}.cls-53{fill:#323031}.cls-55{fill:#090808}.cls-56{fill:#3b3b3b}.cls-61{fill:#2c2b2c}.cls-63{fill:#8b8d8a}.cls-67{fill:#3a3a3a}.cls-68{fill:#212122}.cls-69{fill:#262524}.cls-70{fill:#a8aca9}.cls-71{fill:#121111}.cls-73{fill:#0c0b0c}.cls-75{fill:#2d2c2c}.cls-76{fill:#3d3d3d}.cls-77{fill:#272727}.cls-80{fill:#1d1c1b}.cls-83{fill:#303030}.cls-84{fill:#0c0b0b}.cls-88{fill:#0f0e0e}.cls-91{fill:#505050}.cls-92{fill:#1a1918}.cls-93{fill:#252323}.cls-94{fill:#020202}.cls-96{fill:#3b3939}.cls-97{fill:#181717}.cls-100{fill:#211f20}.cls-102{fill:#19191a}.cls-105{fill:#0b0b0b}.cls-107{fill:#262626}.cls-108{fill:#040403}.cls-109{fill:#252424}.cls-111{fill:#757877}.cls-112{fill:#252626}.cls-113{fill:#242424}.cls-114{fill:#2e2d2e}.cls-115{fill:#302f30}.cls-117{fill:#363536}.cls-118{fill:#0d0c0c}.cls-120{fill:#9ca09f}.cls-122{fill:#272626}.cls-123{fill:#3c3d3d}.cls-126{fill:#292828}.cls-127{fill:#1f1e1e}.cls-128{fill:#2d2a28}.cls-129{fill:#2a2827}.cls-132{fill:#1d1c1c}.cls-134{fill:#282829}.cls-136{fill:#282828}.cls-138{fill:#232322}.cls-141{fill:#100f0f}.cls-146{fill:#1c1c1b}.cls-147{fill:#585556}.cls-148{fill:#2a2a2a}.cls-149{fill:#303131}.cls-150{fill:#373736}.cls-152{fill:#3b3a3a}.cls-153{fill:#605f61}.cls-154{fill:#0b0a0a}.cls-156{fill:#151414}.cls-158{fill:#202020}.cls-159{fill:#0a0a0a}.cls-162{fill:#2d2d2d}.cls-164{fill:#454445}.cls-166{fill:#0e0d0d}.cls-167{fill:#191919}.cls-168{fill:#7b797b}.cls-169{fill:#171615}.cls-171{fill:#323132}.cls-172{fill:#333}.cls-174{fill:#4b4b4b}.cls-176{fill:#242323}.cls-178{fill:#0a0a08}.cls-180{fill:#090909}.cls-181{fill:#060505}.cls-184{fill:#323131}.cls-186{fill:#161616}.cls-187{fill:#181818}.cls-188{fill:#0e0e0e}.cls-190{fill:#1b1b1b}.cls-191{fill:#222}.cls-192{fill:#1b1a1a}.cls-194{fill:#151314}.cls-196{fill:#2c2b2b}.cls-199{fill:#212020}.cls-200{fill:#302f2e}
        </style>
    </defs>
    <g id="Layer_1-2" data-name="Layer 1">
        <path d="M4.47 78c0-.46-.03-.88-.07-1.3v.24c.03.34.06.69.07 1.06M.3 42.17l-.3-.03c.03.02.05.03.08.05.07 0 .15 0 .22-.01Zm202.68 265.22h-.22zm24.15.49c-1.31-.12-2.62-.27-3.93-.46.35.09.73.16 1.12.23a88 88 0 0 0 2.8.23Z" class="cls-1"/>
        <path d="M377.44 307.76c-.2.06-.4.15-.6.22h.59s.04-.11 0-.22Z" class="cls-18"/>
        <path d="M202.87 307.4h-.11c-.5 0-.99 0-1.48-.01.55.06 1.08.07 1.59.02Zm24.79.58h.72c-.42-.03-.83-.06-1.25-.1-.94-.06-1.87-.14-2.8-.23 1.01.17 2.15.27 3.33.33M196 307.2c-.52-.03-1-.07-1.44-.11.22.26.43.47.63.57h.47c.12-.08.24-.23.34-.46m-9.13.39h.42c.37-.06.71-.13.98-.2-.47.07-.94.14-1.41.2Zm14.42-.21c.49 0 .98.01 1.48.01-1.44-.09-2.85-.33-4.19-.78.14.1.3.18.5.25.78.27 1.52.44 2.21.51Zm11.16-1.01c-.5.11-1.01.21-1.52.31.34.2.69.31 1.02.29.14 0 .31-.24.5-.6m-42.99 1.18h.05-.04Zm.04 0c1.69 0 3.38-.01 5.08-.01-2.04-.25-4.04-.69-5.98-1.35.15.55.42 1.03.9 1.37Z" class="cls-46"/>
        <path d="M229.33 307.98c-.73-.03-1.46-.06-2.19-.1.42.04.83.07 1.25.1h.95ZM196 307.2c.14-.32.25-.81.33-1.5-.8.15-1.62.31-2.43.46.22.34.44.67.66.93.44.04.92.08 1.44.11m-7.73.18c.37-.1.64-.2.79-.32.04-.03.07-.07.11-.1-1.63.25-3.28.46-4.92.61.87 0 1.74 0 2.62.01.47-.06.94-.13 1.41-.2Z" class="cls-46"/>
        <path d="m7.02 246.99-3.04-1c-1.39.54.18 2.25.49 3.01h2c.06-.48 1.32-1.2.55-2Z" style="fill:#535453"/>
        <path d="M5.5 222.49c-.38.1-.76.01-1.02-.5-.06.78.03 1.9 1 2-.53-.37-.36-.97.02-1.5m1.32-1.02c-.34.06-.94.5-1.32 1.02.71-.19 1.42-1.04 1.32-1.02" class="cls-114"/>
        <path d="M4.47 221.99c.26.52.64.6 1.02.5.38-.52.98-.96 1.32-1.02.09-.02-.61.84-1.32 1.02-.39.53-.56 1.13-.02 1.5.73-1.35 5.12-4.52-1-2" class="cls-114"/>
        <path d="M49 141.41c-.18.53-.37 1.05-.53 1.58.27-.75.58-1.5.86-2.25-.12.23-.23.46-.33.67M84.94 29.96v-.06h-.26c.06.03.11.04.16.07h.09Zm260.51 250.03q.9.06 1.74.15c-.54-.07-1.11-.13-1.74-.15M117.52 24.02c-.03-.06-.05-.12-.08-.18 0 .06 0 .12.03.16 0 0 .03.02.05.02M82.47 35c-.09-.02-.35.17-.65.39.16.01.37-.1.65-.39m251.08 244.98c.3 0 .6.02.9 0-.29.01-.57 0-.86 0zm121.79-132.22h-.03l.11.23c-.03-.08-.05-.15-.08-.22Zm-85.9 61.23.51-.09q-.3.045-.51.09m43-54c-.6.04-1.08.14-1.5.27.48-.07.97-.15 1.5-.27m-77.16 82.87c-.01.07-.03.14-.05.2.07-.03.13-.05.21-.08zm64.82-28c.11.05.22.09.34.14-.12-.06-.23-.1-.34-.14m13.34-54.87h-1c.33.05.67-.04 1 0m10.88 7.93c0 .16 0 .31.02.46.05.28.08.5.09.61zm23.01-15.69c.06-.25.12-.54.17-.84-.12.22-.17.51-.17.84m-116.85 47.85c.05.17.1.35.14.55l.21-.39c-.09-.06-.18-.12-.28-.19l-.08.02Zm23.36-68.29-.4 4.21c.21-1.45.34-2.85.4-4.21m-331.37 8.2 2.71 4.54c-.13-.5-1.03-2-2.71-4.54m2.71 4.72-3.71-3.72c2.28 2.61 3.52 3.85 3.71 3.72M40.88 22c-.12 0-.24.02-.36.02.89.13 1.87.13 2.95-.02-.94.11-1.8.1-2.59 0M11.65 268.88c.05.03.11.05.18.07-.05-.02-.11-.04-.18-.07M37.88 20.92c-.15-.1-.29-.2-.43-.32.05.11.11.2.15.24.03.03.13.05.27.08Z" class="cls-1"/>
        <path d="M351 281c.13.07.26.14.39.22l.05-.22h-.45Z"/>
        <path d="M448.43 146c-.49-.05-.77.11-.92.4-.05.3-.11.59-.17.84-.01 1.06.42 2.47.1 2.77-2.34 2.28-2.83-1.66-3-2.01-1.12 0-1.53 1.21-2 2-.24.4.65 1.76-.59 2.05-3.97.94-12.95-1.34-18.41-1.05-1.11.06-3.26-.7-2.99.99l4.01.51-2 1.49c3.51-.29 1.77 5.57 1.88 8.94l.11 1.07c.08.78-.3 8.64-.55 9.02-1.39 2.1-3.84 2.19-5.45 3.52-.97.81-.72 2.08-1 2.46 1.06.3 2.16 2.09 2 3 2.81-1.91 4.81-2.32 8-.99l-5.18 7.31c-.92 2.44-2.56 5.12-1.4 7.74 1.71 2.37 8.65-.73 10.55 2.43-3.45 4.32-4.32 9.56-5.98 14.51l1 2.49.97-1.78 3.03 1.29c.83-2.4 1.87-4.73 3-7 .47-.95 1-1.9 1.01-3 3.59 1.46.81 2.56.11 3.74-.04.09-.07.16-.12.26-.9 3-1.21 7.22-2 10-.34 3.29.55 1.44 3 1 .32-.86 1.81-4.82 2.01-5 .65-.57 2.25-.54 1.83 1.33-1.07 4.84-7.74 30.74-9.85 32.67-2.17 1.98-2.9.44-5-1-.27.81-1.47 2.97-2 4-.48.95-.97 1.9-1.01 3h-1.49c-.3-.12-.26-.82-.5-1-.06-.04.12-1.17-.99-1l-.02 2h-.98c.38-4.27-.16-2.08-3.01-3-.74 2.25-2.56 8.22-3.94 9.56-2.07 2.01-3.14 1.01-5.06 1.44-3.03.67-7.21 2.48-10 0h-1c-.56 3.03 1.52 1.92 3.45 2 4.31.17 8.21-1 11.84-.86.85.03 3.09 2.47.39 1.63-.76-.42-1.68.24-2.18.24h-24c-.42 0-2.2-1.01-3.93-1.07-5.38-.21-12.55-.54-17.57 1.07h6c4.42.01 10.23-.85 14 1 3.94.07 28.83.58 30.06 1.44 1.46 1.01 1.84 10.88-.58 12.55-2.48.47-1.36-1.95-1.47-3.5-.12-1.76.46-3.88-.5-5.51-2.04-3.45-21.24-1.69-26.05-1.95-7.74-.41-15.73-1.34-23.46-2.04-3.83-.35-8.24-.47-12-1-1.74-.24-6.22-.32-6.99-1.99 2.99-.08 6.01.07 8.99-.01 1.27-.03 5.05.82 4.99-.99-6.71-.05-12.89 1.3-17.99-4.01-2.95-.32-5.96-.35-8.6-1.96-.45-.59.32-4.13.6-5.04h-1.99l-.02-2c-1.95.3-.39 4.34-2.99 0-.6 1.41-1.61 2.21-2 3 1.75 2.31-.48 7.89-3 9v6q3.39 3 3 9c1.6.06 4.15-.62 5 1 .25-.87.58-.85 1 0 1.85.24 4.85.91 6 1 .86-2.97 4.01-2.01 4 1 .46.03 1.99-1.07 3-1 1.32.09 2.68-.08 4 0 .63.02 1.2.08 1.74.15 2.21.23 4.19.6 6.26.85.6-.11 1.05-.08 1.38.06 2.35-.03 4.25-.68 6.62.94q3.195-.735 6 3c-2.24-4.37 7.21-3.74 8-2l3.25.19c1.43-2.19 3.5-2.85 4.75-.19 4.05-.09 5.33 1.32 9 2-1.28-1.44-.74-1.95 1-1 1.85-.87 4.18-2.28 6 0 .28-.87.62-.86 1 0 .54-.01 1.8.68 3.05.99q.885-.045 1.95 0c-.99-2.94 1.55-3.7 3-1 2.63-.2 7.34 1.2 8.35.9 1.04-.31 2.01-2.74 3.65-3.9-.92-3.18 2.97-4.34 5-2-.07-2.46 1.64-2.85 3-4 2.54-6.34 11.41-13.21 18-15 .88-.8 1.92-1.98 3-3-.65-3.02 1.4-4.6 4-3 .74-.75 3.84-3.77 4-4-2.41-1.59-.71-4.7 2-4 .66-3.28.09-12.72-3.69-13.81-2.28-.66-6.29.85-7.17-1.83-.83-2.54.15-7.69-.15-10.85-.62-6.47-2.11-16.71-6.13-21.87-1.36-1.75-3.88-2.85-4.36-3.66-1.05-1.77-.16-3.64-.5-4.98-.31-1.24-.67-2.96-1-4-1.31-4.13-3.62-6.06-6-9-.28-.35-.77-.62-1-1-2.55-4.3 2.04-12.45-1-17.99l6 .99c1-.03 2 0 3 0 2.79-.02 7.05-.78 9 1h1c.58-.32 1.05-1.11 2-1-2.03-1.88-1.7-2.71 1-3 .15-3.77-2.26-5.39-2.01-8.99Zm-76 128.99-3.98-1.01V273h3.99v1.99Zm2.02-.01c-.8-3.83 5.8-1.33 7.99-1.99.8 3.83-5.8 1.33-7.99 1.99m69.98-29.99c.31 2.61-2.49 3.67-3.99 5-1.22 1.08-2.74 1.96-4 3-2.01 1.65-3.85 3.51-6 5-1.37.94-2.37 2.29-4 1.99.25-1.56 2.06-2.12 3-2.99 2.04-1.9 3.87-3.28 6-5 1.32-1.06 2.69-1.97 4-3 .67-.52 4.46-4.6 4.99-4m-3-19c.74 1.69-.86 3.2-.99 4-.69 4.16-.14 10.66-3.99 13 1.09-4.52 1.49-10.78 2.99-15 .3-.86.99-1.95 1.99-2"/>
        <path d="M333.59 279.98c.29 0 .57.02.86 0-.27-.02-.56-.02-.86 0m115.91-49s-.04-.03-.06-.05c0 .02 0 .03.01.05zm-1.99-22.06s-.02-.04-.03-.07l-.03.13zm1.93-50.93c.38-.99.96-1.89 1-3-2.7.28-3.03 1.12-1 3m-70.75 125.19-3.25-.19c.62 1.36-1.13 2.72 3.54 2.07 2.06-.29.42-1.98 4.46-2.07-1.25-2.66-3.31-2.01-4.75.19m20.75.81h1c-.38-.86-.72-.87-1 0M351 281h-.88c.46.26.83.58 1.09.94l.18-.73c-.13-.08-.26-.15-.39-.22Zm10.44.99c1.72 1.18 2.1 4.16 6 3q-2.805-3.735-6-3m31 3c.36-.24.65-.84 1-1-1.74-.95-2.28-.44-1 1m-57.99-5c1.82.14 3.7.98 4 1 0-3.01-3.14-3.97-4-1m-7-1c.33.04.67-.04 1 0-.42-.85-.75-.87-1 0m-5-25c-2.24 4.59-2.18 3.4-3 9 2.52-1.11 4.75-6.69 3-9m-3 15c.42 3.29-.43 6.8 3 9q.39-6-3-9"/>
        <path d="M449.43 230.93s.04.03.06.05h.47c-.16-.23-.29-.5-.39-.82-.17.14-.25.37-.15.77Zm-127.05 22.16c0 .29.03.59.07.9.12-.33.06-.63-.07-.9m130.9-22.83c-.19.28-.39.52-.58.72h.74c-.06-.25-.11-.49-.16-.72m-5.77-21.34.23-.24c-.04-.15-.07-.31-.11-.46l-.16.63s.02.05.03.07Zm9.93 41.07c.13-.19 1.96-3.78 2-4-2.71-.7-4.41 2.41-2 4m-53.95 34.99c.69.18 1.38.24 1.95 0q-1.065-.045-1.95 0m45.95-27.99c1.27-1.19 3.08-2.08 4-3-2.6-1.6-4.64-.02-4 3"/>
        <path d="M405.44 284.99c1-.34.98-.84 3-1-1.45-2.7-3.99-1.94-3 1m15-4c1.61-1.14 3.23-1.31 5-2-2.03-2.34-5.92-1.18-5 2m8-6c5.57-4.72 12.27-9.79 18-15-6.59 1.78-15.45 8.66-18 15"/>
        <path d="M357.44 80.86s-.03.06-.05.08l.04.04v-.13Zm45.04 73.35c.86.02 1.81-.04 2.86-.2-.03 0-.06 0-.09-.01h-2.82z" class="cls-12"/>
        <path d="M453.44 143.99c.39-12.59 5.54-28.18 5.99-41.51.23-7 .44-9.91-6.54-12.44-11.81-4.28-25.45-3.52-37.44-7.05-.33.02-.67 0-1 0-1.88 0-4.92.65-6-1-.33-.01-.67.03-1 0-9.35-.76-18.65-3.23-28-4-.33-.03-.67.03-1 0-2.87-.23-6.96.97-9-1-.67 0-1.34-.02-2 0-1.44.04-3.48-.14-5.26-.18-.85.11-1.76.17-2.74.18 1.29 1.31.66 1.86-1 1l-4.6 48.79c-.06 1.36-.19 2.76-.4 4.21 0 2.23.35 4.54 0 7 1.54 7.09 9.9 8.54 16 10 1.34.32 2.29.67 4 1 7.6 1.48 16.27 2.81 24.73 4.01h.27c.02.02.05.03.07.05 2.28.32 4.53.64 6.75.95h.19s.03.02.04.03c2.38.33 4.71.65 6.96.96h1c1.84.24 4.88-.84 6 1 .32 0 .7-.06 1 0 .87.17 1.99-.02 2.54.93.16.27 1.06 4.71 1.37 6.46-.01-.14-.02-.3-.02-.46l-.7-6.5c-5.96-4.6-6.02-6.41-.19-5.43l-61.01-10.48c-.73-.87-1.47-.66-.43-1.5 2.97-2.39 24.54-18.64 26.13-18.88 2.68-.42 8.88 12.26 14.91 12.86 5.81.58 16.08-9.58 18.42-8.53l20.98 25.53c-1.85-2.84-.6-4.03 2-2-2.27-4.78-19.19-24.76-18.93-26.36l27.92-21.64c-1.05 11.75-2.21 23.57-4.3 35.18-.37 2.06-2.25 13.28-2.7 13.82-.27.33-1.63-1-1.99-1 1.34 1.83 2.31 1.57 2.89-.76 0-.33.05-.62.17-.84.06-.33.12-.69.17-1.08 3.16-1.86 3.6 6.13 2.91 9.16.18-.41.46-.57.85-.48.5-2.82.16-6.58 2-9v-1Zm-69.49-25.98c-5.6 6.04-18.06 12.06-24.5 17.98-.89-12.93 1.11-25.68 1.98-38.51.23-3.32-.23-6.7.01-10 .08-1.08-.55-3.34 1.49-2.48 1.75.74 22.51 28.61 22.53 30.51.01 1.34-.77 1.71-1.5 2.5Zm65.82-20.18c-7.08 6.06-18.57 14.18-26.42 19.58-3.99 2.74-14.03 9.92-18.13 10.94-3.21.8-6.29-3.14-8.29-5.34-10.38-11.39-19.64-26.74-30.49-39.01-.49-.55-2.08-.79-2-1.99 1.97-.87 4.01.85 5 .99 27.35 3.85 54.81 7.03 81.99 12 .43 1.85-.62 1.94-1.66 2.83M390.83 79c-.14-.05-.27-.1-.41-.16 0 .05 0 .09.02.14.14 0 .26 0 .39.01Z" class="cls-12"/>
        <path d="M450.58 154.47c-.04.19-.09.37-.14.52.46-.13.92-.54 1-1-.4-.09-.68.07-.85.48ZM359.44 77l1.6-.4c-.52.11-1.05.24-1.6.4m0 0c.98 0 1.89-.07 2.74-.18-1.07-.02-2.04.01-2.74.18m30.99 1.84c.14.05.27.11.41.16.21 0 .41.02.6.03-.24-.25-.5-.48-.79-.67a.48.48 0 0 0-.22.49ZM359.44 77c-.54.13-.71.62-1 1 1.66.87 2.29.31 1-1m-2 3.86c-.02-.43.03-.82.13-1.18-.16.34-.31.66-.45.98l.28.28s.03-.06.05-.08Zm90.23 64.45c-.05.39-.11.75-.17 1.08.16-.28.44-.45.92-.4-.25 3.6 2.16 5.22 2.01 8.99.03-.21.08-.38.14-.52.68-3.03.24-11.02-2.91-9.16Zm-3.23 2.68c-2.6-2.03-3.85-.84-2 2 .47-.79.88-2 2-2m-21.99 5.99 2-1.49-4.01-.51c-.26-1.69 1.88-.93 2.99-.99-5.83-.98-5.77.83.19 5.43l.7 6.5c-.1-3.38 1.63-9.23-1.88-8.94Zm24.98-3.98c.31-.31-.12-1.71-.1-2.77-.58 2.34-1.55 2.59-2.89.76.17.35.66 4.29 3 2.01Z" class="cls-12"/>
        <path d="M450.44 154.99c.05-.15.1-.33.14-.52-.06.14-.11.32-.14.52" class="cls-12"/>
        <path d="M170.57 177.59s-.06.04-.1.05v1.35c.08-.51.11-.97.1-1.4M95.86 32.86c-.46.01-.92.05-1.4.14h1.36c0-.05.02-.09.03-.14Zm51.27 122.22c-.21-.04-.44-.07-.67-.09.26.06.48.08.67.09m183.32 39.91s.02.07.02.1l.08-.02s-.07-.04-.1-.07Z"/>
        <path d="M329.96 232c2.3-.92 1.22 2.01 1.48 2.99 1.04 3.84.35 4.44 3.79 3.07.02-.07.03-.13.05-.2l-1.82-1.36c2.23-3.14 2.32-8.02 6.99-8.51 1.65-4.09.94-5.18 5-7 .91-.41 6.72-2.23 7-1.99-1.86 1.56-.94 2.82-1 2.99 2.4-1.38 3.93-3.73 6.08-5.42 1.58-1.23 10.78-7.32 11.92-7.58v-1c-.92.12-3.51.38-3.99-.5 1.89-2.46 5.66-4.19 5.99-7.5-3.65.33-7.91-.51-11.45.05-3.01.48-5.16 4.17-6.55 1.95-.72-1.15-.68-3.04-2-4-.47.42-1.65.6-2 1-1.05 1.2-1.29 2-2 3-1.39 1.96-3.7 5.8-5 8-.47.79-.69 1.46-1 2-1.49 2.61-5.08 11.7-6.5 13-1.12 1.03-6.03 2.21-8.82 4.18-1.39.98-6.63 5.69-7.16 6.84-1.48 3.24.71 10.94-1.46 12.54-3.96 2.91-4.08-6.19-8.05-7.55-3.79 1.09-6.79-1.27-9.86 4.64-3.01 5.78 5.46 7.63-.12 13.88-6.32 7.09-6.39-.85-8.13-3.91-3.77-6.63-13.3-2.85-12.88 3.82.27 4.28 6.25 5.1 1.93 9.01-3.45 3.12-8.61 2.66-12.93 2.55 4.42-10.39-10.57-17.4-11.83-6.25-.47 4.21 7.04 8.81-1.74 10.19-10.84 1.7-5.63-2.3-5.5-6.52.17-5.35-4.46-10.58-9.47-6.45-5.56 4.59-.12 9.75-.46 11.51-.49 2.5-8.85 2.21-9.99-.98 11.82-14.77-11.81-20.67-8.01-.49-16.39 1.35 1.07-10.57-7.07-16.47-7.63-5.52-10.52 6.54-8.93 12.47-4.23.32-7.66.43-9.92-3.65-.33-1.97 8.75-7.01 4.33-14.26-2.77-4.55-6.48-3.39-9.43.39-3.34 4.29-.21 15.24-8.48 8.52-7.76-6.31 11.32-11.63 2.48-18.48-7.59-5.88-11.17 4.12-10.99 10.49-3.6.5-9.97-4.1-7.51-8.01 1.11-1.77 5.5-2.47 6.36-6.74l-.36-9.26c-5.07 1.56-10.44 5.65-11.49 11-6.74-.32-11.61-11.35-4.92-14.48 1.1-.51 2.77.64 3.44-.45.72-1.17.37-3.17 1.43-4.64 1.51-2.09 6.91-3.01 8.94-7.06 2.2-4.37-.89-7.4 4.24-7.97.7-9.78 1.75-15.08-2.11-24.4-.64-1.55-2.17-3.41-3-5-.97-1.85-1.74-5.89-2.53-6.98-.85-1.18-3.56-1.24-5.07-2.93-1.19-1.34-1.34-3.8-2.42-4.58-.64-.46-5.2-1.74-6.99-2.51-1.32-.57-3-1.64-4-2-1.44-.51-9.71-3.02-10.29-2.87-3.67 2.25-14.31 14.85-18.19 13.87-3.72-.94 1.12-5.02 1.14-6.49.03-2.39-4.28-4.91-2.14-9.49.71-1.51 3.52-1.82 1.41-4.4-2.01-2.45-4.51-1.29-4.88-1.66-.21-.21.08-4.04-.58-5.93-1.93-5.52-11.88-17.09-18.46-16.04.31-6.57 10.44-1.6 10.98-2 .24-.18.24-2.93 1.25-3.76.86-.71 3.2-.48 4.73-1.76 1.83-1.52 1.93-4.58 2.95-5.8.91-1.08 3.77-.93 4.08-2.2.24-.97-1.98-2.59-2.06-4.91-.1-2.5 1.66-6.18 1.85-9.06.15-2.2-1.18-4.69-.75-7.93.96-7.12 6.54-16.73 6.96-24.56 2.55-.4 1.55.21 2.08 1.4 2.7 6.08 3.66 10.32 7.92 16.08 14.24 19.19 13.63 2.16 7.84-10.84-1.71-3.84-4.58-6.76-5.85-10.64 11.9 4.08 23.77 7.32 36.46 5 .96 0 .66-1.8.42-2.39-1.09-2.73-12.75-8.96-15.9-10.1l-19.98-4.5c7.34-3.25 13.88-8.07 21.31-11.19 87.9-36.95 178.11 27.02 171.71 121.72-.37 5.49-2.57 19.44-4.95 24.07-1.01 1.96-3.03 2.44-3.16 3.09-.79 3.98-.05 3.77-1.65 8.47-.05.26-.14.53-.29.83-1.66 4.67-3.73 10.6-7.11 14.39-1.66 1.85-4.65 2-5.44 3.62-.61 1.26.96 2.87-.34 4.55-1.79 2.3-3.88.09-5.12.88-2.23 1.44.41 4.45-.89 6.1-2.04 2.59-4.3-.29-6.11.92-2.23 1.5.63 4.12-.41 5.57-1.25 1.73-4.9.37-6.66 1.43-1.28.77-.11 2.73-.5 3.58-1.03 2.24-4.54 2.37-6.34 3.54-3.92 2.57-9.21 7.37-14.06 7.99-1.89.24-2.27-2.14-3.49-2.3-3.59-.48-2.1 3.95-2.62 4.61-.44.55-12.72 4.24-13.42 4.17-2.62-.26-2.02-4.39-4.97-3.05-2.06.94-1.1 4.3-1.63 4.87-.44.47-8.43 1.33-9.88 1.13-.57.65-3.31 1.36-1.99 2.98.21.26 4.56 1.96 5.45 2.07 24.29 2.95 50.56-9.02 68.54-25.05 7.86-7.01 16.99-18.73 22-28 .69-1.28 1.86-2.72 2-3 .14-.5.31-.85.5-1.1.08-.18.16-.35.24-.53 2.36-5.36 5.44-14.47 6.75-19.37 1.5-5.64 2.1-11.37 3.5-16.99v-2c-.74-6.39-.63-20.5 0-27v-2c-1.76-4.59-1.46-10.21-2.45-15.05-6.42-31.56-30.43-63.73-56.55-81.95-.59-.41-1.39-.6-2-1-2.16-1.42-5.07-3.97-7-5-1.06-.57-2.88-1.47-4-2-33.93-16.1-75.17-16.56-109.99-3-.23 3.06-2.77 4.1-5 2-2.36 1.12-5.65 3.55-8 5-1.98 1.22-11.67 9.06-13 7.99 2.93-4.04 5.86-8.49 8-12.99.9-1.9 2.29-5.06 3-7 1.66-4.55 2.47-9.42 4-14-.1-.63.1-1.36 0-2-.2-1.36-.88-2.62-1.01-4-14.68 6.52-18.6 20.28-20.99 35-.2 1.23.15 2.71 0 4-2.34-.37-1.53-2.79-1.99-4-1.56-4.07-10.72-26-13.59-26.92-1.35-.43-2.05-.2-2.89.94-3.33 4.54.24 17.07 2.48 21.98 2.98-.04 3.71 1.61 2 4 .55.89 2.06 2.61 3 4 .52.77 2.72.87 1.99 3-.36.45-2.47-1.74-2.99-2-1.79-.89-4.39-2.31-6-3-1.85 2.1-2.61 1.77-3-1-2.17-.84-6.03-2.46-8-3-.27.86-.6.85-1 0-3.59-.94-7.2-2.19-11-2v4c2.17-1.98 4.38.7 3 3 9.1 6.66 13.11 9.93 25 11 .92.08 2.75-.5 2.99.49-1.05 1.77-2.62 1.16-3.99 1.5-2.95.74-6.03 1.21-9 2-3.99 4.2-12.29 6.99-18 6-13.81 5.48-20.08 8.05-27 22 .12.63.16 1.26.15 1.9 2.29-1.81 1.91 1.85 4.85 2.1 1.61-3.72 6.59-9.68 10-12 2.11-1.44 4.39-1.85 6.34-3.16 6.19-4.16 9.52-9.78 19.17-8.93 7.81.69 2.27 3.94 1.06 6.17-2.96 5.44 1.52 27.95.43 36.44-.18 1.37-.7 3.09-2 1.49-1.61-8.63-1.62-17.3-2.01-26h-3c-1.01 6.25-4.65 12.75-3.01 19.99-1.75.45-1.4-.25-1.99-.99-1.58-1.98-1.28-8.11-1-11-2.78 1.51 1.34 8.69-3 7.99-.15-3.69 2.53-8.67 0-11.99-.87 3.55-.69 5.64-1 9-.21 2.35.79 3.97-1 6-.14.16-1.91 1.12-1.99 1 .02-2.32-.06-4.67-.01-7l-2.01-6.99-1.99 3.49-2-1.49c-3.24 10.4-2.06 16.98 1 27 .49 1.6 2.58 4.39 0 6h-1c0 .07-1.1.42-1.01.95 3.65-.56 3.4 3.52 6.36 3.19.22-.05.45-.1.65-.13 4.89-.71 16.96-.18 17.99 5.99-10.04-.88-23.63 4.2-25.99 15 1.25 1.19 11.92-7.16 14.32-8.17 7.06-2.98 17.92-3.47 21.65 4.68-.08 1.53-10.56 1.53-12.8 2.17-3.2.92-4.73 2.42-7.17 4.32.5 1.17.68 2.39 1.46 2.87.51-.04 1.02 0 1.54.13 4.97-3.01 18.59-5.42 21.48 1.01.86 1.91.68 8.9-.49 9.98-2.05 1.89-2.38-3.23-3.67-4.08-5.56-3.68-20.21 7.71-20.36 12.58-.11 3.54 3.8 1.31 4.02 1.5.55.49 1.09 6.76.82 8.26-.42 2.3-3.85 6.74-5.79 7.75l1.99 1.01v.98l-5.99-.99c-.14.13-.89-.02-1 .5-.31 1.56.72 1.24 1 1.5 1.39-.84 3.55-.4 5 0 5.79 1.58 1.93 11.2 3 16h-4.99c.15 2.21 3.74 1.41 4.06 2.61.18.66.18 8.14 0 8.77-.3 1.06-3.69.65-4.06 2.13-.42 1.68 2.36 2.43 2.59 3.93.63 4.19-3.7 10.45-3.6 11.03.27 1.51 3.67 2.11 5.08 1.09 1.8-1.29.52-6.18.92-6.58.3-.29 5.26.8 6-1.51 1.19-3.76-3.94-3.08-4.05-4.04-.46-4.02 3.85-6.75 4.07-8.97.13-1.3-.92-2.8-.8-3.98.5-5.15 2.48-10.18 1.81-15.5 5.42 4.07 8.8 10.15 13.94 14.55 1.5 1.28 4.39 1.53 4.92 3.08 2.52 7.36-3.15 4.58-4.46 6.3-1.27 1.68.68 4.39.41 6.37-.31 2.32-2.19 2.73-2.82 3.7-3.92 5.98-10.01 13.83-14.57 19.93-.94 1.25-3.23 1.65-3.93 3.07-.92 1.84.13 5.2-2.1 5.81-1 .27-3.66-1.69-4.95 1.2-.58 1.31 2.28 2.13 1.11 4.02-1.99 3.23-7.22.71-7.56.98-.29.23 2.93 2.97-3.01 5.49-13.75 5.83-31.16-.17-34.99-15.49l-1.01 3.01-2.99-1.02c.61 1.72-.96 3.95-1.01 5-.12 2.89 3.03 7.89 5 10 2.31-1.22 3.46-.63 3 2 1.41 1.01 4.7 3.42 6 4 2.65-1.58 11.88-.12 13 3 2.05.35 3.38.35 5 2-3.97-3.29 1.57-6.24 3-2l5-1c.1-2.98 2.36-2.72 3 0 .01-.67-.04-1.33 0-2 1.27-.19 2.83.23 4.01 0 .06-1.74 1.54-2.82 4.44-3.26 1.17-2.4 2.7-3.31 4.56-2.74 1.96-2.31 4.1-2.15 5.1-3.4 2.23-2.75-1.19-8.05 5.89-5.6-2.07-1.87-1.86-2.94 1-3-4.25-3.48-.54-6 1-9-2.77-2.55 3.53-12.51 7-10 1.01-.67 1.41-1.41 3-1l2.13-1.03c2.28 3.8 4.13 4.54 7.94 5.94.1 2.27.74 4.3 1.92 6.1 1.01-1.18 4.34-1.54 6-1 2.26.74 3.48 2.77 4 3 4.13 1.81 9.6 3.52 14.06 4.48.72.42-.67 8.79 3.94 4.52l-1-3.99c1.82-.56 1.79.92 2 .99 2.3.83 7.68.77 8.01 1 .24.17-.23 1.67 0 2 2.16-2.31 6.82-3.19 10-3-.5-.1-8.16-3.98-8.95-4.55-2.69-1.97-7.32-7.23-10.07-9-1.4-.91-3.22.47-5.02.12-1.71-.33-3.02-2.2-3.96-2.56-4.29-1.68-9.44-3.23-12.97-6.54-2.64-2.48-.46-4.68-6.03-5.46-.07 0-.33.95-.51.92-2.34-1.16-.31-2.64-.66-4.2-.49-2.22-4.19-2.39-3.94-7.22.21-4.08 2.86-3.99 6.11-4.5 1.84-.29 11.57.22 12.75.72 2.29.98 2.07 3.14 2.25 3.28 1.63 1.25 6.8 2.71 7.53 3.95.67 1.13-2.63 9.16 2.45 14.57 2.96 3.16 7.39 2.68 9.05 3.95 1.55 1.18.39 8.46 7.26 11.74 1.86.89 6.8 1.33 7.49 2.02.66.65 1.02 4.62 2.16 6.07 1.05 1.34 3.15 1.14 4.06 2.7.19-.89.52-.86 1 0 2.42.08 6.35-.51 8.34.16.98.33 4.16 5.13 7.02 7.07.52.22 1.06.47 1.64.77.18-.89.52-.86 1 0 2.21-.03 7.46-.93 8.38-.76 1.25.23 4.2 3.88 7.34 4.53 3.85.79 7.7-.69 10.39-.23 1.51.26 8.44 2.71 10.88 3.46 1.13-3.5 8.22-4.26 10-1 2.65.09 4.96 1.05 8 1 .57-1.89 1.45-1.88 2 0l1.71-.57c.51-.17 1-.34 1.29-.43-.42-2.7 0-2.91 2-1 1.74-.56 2.52-2.01 5.49-2 3.01 0 7.35 1.57 10.51 2 0-2.68 1.86-4.95 5.58-6.79 1.83-3.85 7.03-8.06 9.42-3.21.14-.06.27-.1.41-.15 1.18-.54 3.35-2.16 4.59.15.24-2.76 1.24-3.25 3-1l7-8c-2.72-.25-2.61-1.21 0-2 .05-.99-.04-2 0-2.99 1.38-.47 1.88.98 1.99 1 .24-.86.58-.84 1 0 1.97.19 4.02-.13 6 0-.7-2.76 4.32-5.56 6-3-.04-1.64 1.93-3.33 2-4 .74-6.69-2.12-12.52 6.52-15.99ZM112.46 62c.12 1.87.29 4.39-1.98 4.99-.91-2.78-1.7-4.99 1.98-4.99m-4.23 36.26c-.2 1-2.7 11.11-4.76 8.73l-1-36.99c7.58 6.08 7.54 19.44 5.75 28.26Zm-22.76 19.73c-.71-3.65 9.88-9.03 10.99-7.99 1.95 1.83-9.62 9.23-10.99 7.99m60.93 45.57c8.96 4.93 19.08 18.86 18.06 29.43-1.55.29-2.32-.15-3.54-.95-3.42-2.22-22.12-25.52-23.02-29.01-1.07-4.14 6.9-.36 8.5.53m-10.52 6.51c3.98 4.59 7.74 11.32 11.61 16.39 2.22 2.91 6.43 5.43 6.96 9.53-9.27-7.62-17.08-16.98-21.99-27.99 1.88-.4 2.42.92 3.42 2.07m-9.42 15.92c.17.18.3.34.41.48 1.27 1.34 4.68 4.4 3.58 5.51-2.7.22-3.66-3.21-4.99-4.99-2.69-3.59-4.76-6.52-6-10.99 2-2.02 6.45 9.1 7 9.99m0 23c-15.99-3.88-32.64-21.69-31.99-38.99l12.16 19.33c7.77 10.42 11.98 13.68 23.83 18.67 1.1.46 2.83.2 3 1.99-2.89.78-4.88-.47-7-.99Zm-.03-34.48c-.07-1.65.99-2.52 2.02-1.51.38.37 3.8 7.38 5.2 9.31 3.02 4.16 8.34 9.36 10.64 13.37 1 1.74 1.67 1.8-.32 3.3-3.92-6.01-17.23-17.52-17.53-24.47Zm17.55 39.46c-.86-.89-2.09-3.98-1.44-4.89.28-.39 7.41-2.74 8.98-3.53 3.46-1.73 5.85-6.56 9.89-3.02 7.59 6.66-13.09 15.93-17.43 11.44m36.47 30.02c.62.66-.22 3.5-1.51 3.98-3.47 1.32-.38-6.02 1.51-3.98m12.02 14c-1.02-1.87 1.49-6.63 2.98-4.99.97 1.05-1.28 4.8-2.98 4.99m15.99 5.99c-.97-2 1.78-5.17 2.99-3.99.54.53-1.1 5.48-2.99 3.99m17 4.01V264h1.98c.26 1.87 0 3.46-1.98 3.99m16 .49c-1.06-2.95 2.23-3.23 2.98-2.48 1.32 1.31-1.74 5.93-2.98 2.48m20.51-1.5c-3.62-1.38-.26-4.72 1.48-2.98.29.29.64 3.8-1.48 2.98m22.99-6c-3.62-1.38-.26-4.72 1.48-2.98.29.29.64 3.8-1.48 2.98m23-12c-2.68-1.13-1.4-4.52.47-2.99.18.15 1.89 3.98-.47 2.99"/>
        <path d="M75.33 60.75c-.1.03-.2.07-.3.11.15.05.3.07.44.13-.06-.09-.09-.16-.14-.24m9.62-30.74v-.06h-.11c.04.02.07.03.11.05Zm28.65 208.95-2.13 1.03c1.75.45 2.51 3.65 4.61 4.89 1.45.86 4.24.96 4.4 1.12.25.25-2.5 4.64 2.99 4.98-1.18-1.8-1.82-3.83-1.92-6.1-3.81-1.4-5.66-2.14-7.94-5.94Zm-12.14 12.03c1.75-3.4 3.47-7.66 7-10-3.47-2.51-9.77 7.45-7 10m-2 12c.59-1.07.62-2.13 1-3-2.86.06-3.07 1.13-1 3m215.99-8c1.99-.69 3.99-2.2 6-3-1.68-2.56-6.7.24-6 3m-7 0c.32.05.67-.03 1 0-.42-.84-.76-.86-1 0M83.9 274.73c-2.9.43-4.38 1.52-4.44 3.26 7.5-1.47 5.24-1.57 9-6-1.87-.57-3.39.34-4.56 2.74m212.55-6.74c1.17-.11 2.11-.81 3-1-1.76-2.25-2.76-1.76-3 1m10-9c-.1-.56-.03-1.38 0-2-2.61.79-2.72 1.75 0 2m-233.98 21c.82-.21 2.07.14 3 0-.64-2.72-2.9-2.98-3 0m219.39-12.15c-.14.05-.27.09-.41.15.11-.04.22-.08.33-.11.03-.01.05-.02.08-.03Zm-131.4-5.85c1.12 1.6 9.18-1.28 10-3-3.18-.19-7.84.69-10 3m-122.99 10c1.76 1.89 2.05 1.31 3 2 .46-2.63-.69-3.22-3-2m27 11c.11-.54-.28-1.62.08-1.93.42-.37 2.11 0 2.92-.07-1.43-4.24-6.97-1.29-3 2m-18-5c4.94 2.19 8.07 2.16 13 3-1.12-3.12-10.35-4.58-13-3m150.99-5a23 23 0 0 0-1.64-.77c.57.38 1.12.67 1.64.77m0 0h1c-.48-.86-.81-.89-1 0m62.99 5c.83.05 1.67.08 2.51.11-.63-.23-1.45-.3-2.51-.11m-42.76-.07c.17.07.33.14.49.21l.27-.14c-.26-.02-.51-.05-.76-.07m-38.23-12.93c.33 0 .67-.01 1 0-.48-.86-.81-.89-1 0m75.99 15c.1-.01.92-.3 1.71-.57zm-20 0c3.43-.72 6.45-1.11 10-1-1.78-3.26-8.86-2.5-10 1m23-1c.44-.13 1.14-.72 2-1-2-1.91-2.42-1.7-2 1m-5 1c.65-.01 1.37.08 2 0-.55-1.88-1.43-1.89-2 0m28.58-8.79c-3.72 1.84-5.58 4.11-5.58 6.79 2.98-2.77 3.67-2.7 6.53-4.97 1.56-1.24 2.49-3.94 3.49-4.53 1.74-1.03 3.48-.22 4.98-.5-2.39-4.85-7.59-.64-9.42 3.21m-241.56 2.79c-.11.61-.11 1.13-.03 1.59.13-.44.15-.97.03-1.59m297.25-149.72c-.02-.17-.04-.34-.05-.5-.07.24-.14.47-.23.72l.29-.21ZM156.46 25c-1.49.58-3.68 1.37-5 2 2.23 2.1 4.77 1.06 5-2m-60.6 7.86s0-.03.01-.05c-.46.03-.92.08-1.41.19.47-.09.94-.13 1.4-.14M82.47 35c.21.05 1.68 2.03 3 3 1.38-2.3-.83-4.98-3-3"/>
        <path d="M75.33 60.75s-.05-.09-.07-.13c-.15.05-.3.11-.45.17.07.02.15.04.22.07.1-.04.2-.07.3-.11M100.46 53c-6.28 1.68-11.96 3.6-18 6 5.71.99 14.01-1.8 18-6m-6-20c-.31-.09-.69.08-1 0 .4.85.73.86 1 0m11 4c-.84-.36-1.99-.61-3-1 .39 2.77 1.15 3.1 3 1m2-6c.71 1.56 1.03 2.44 2 4 1.71-2.38.98-4.04-2-4"/>
        <path d="M31.48 254.99h.98v1.94c.74-1.26 2.34-1.96 5.01-1.95-7.93-31.75 28.61-47.67 24.74-76.24-1.75-12.91-13.4-28.38-4.98-41.5 2.99-4.67 12.47-11.15 18.6-12.89-2.72.03-6.82-1.87-6.48-4.08.18-1.18 1.13-1.21 2.12-.29-.33-2.57-3.4-7.44-3.89-11.61-1.36-11.59.97-20.81 4.89-31.39l-1-3h-1c-7.14 9.27-9.87 19.66-8.87 31.37.3 3.52 4.39 16.15 3.43 17.63-.56.87-2.25 1.18-3.07 1.96-6.4-8.57-3.85-20.07-4.49-29.96-.17-2.73-.89-5.28-1.01-8-3.24.04-1.61 7.92-4.99 5-.48 1.91-.88 4.51-2 6 .89.18.86.52 0 1 0 2.66-.02 5.34 0 8 .89.18.86.52 0 1 2.04 1.72.63 5.52 1 8 .89.25.86.58 0 1 .45 2.5 5.01 13.49 4.84 14.35-.16.85-4.17 5.94-5.97 9.39-.28.75-.59 1.5-.86 2.25.89.19.85.52 0 1-.02 3.32.08 6.68 0 10 1.91.3 1.8 1.09 0 2 1.78 7.92 6.79 17.27 8 25 .9.24.87.58 0 1 1.58.66 1.58 4.34 0 5 .88.25.86.58 0 1-.17 1.36-.92 2.63-1.01 4.01-6.41-2.46-16.41-3.58-20.64 2.84-3.4 5.16-.03 4.3-6.35 7.15.36 2.94-3.28 4.37-5 2-.27.12-.69 1.75-2 2-.23.92-.57.9-1 0-1.9 4.18-3.91 7.02-3 12 2.78-.39 2.87 2.97 2 5 .27.21 1.77-.27 1.99 0 .52.65-3.06 9.5.55 13.95 2.8 3.45 4.82.39 7.46-1.96.55-.49.79-2.08 1.99-2 .76 1.62-.92 3.36-.99 4-.71 6.98-1 13.02 0 20 .42 0 .74.1 1.01.26v-2.25Zm21.99-58.98c-1.21 9.27-9.58 4.81-16 3.97 1.33-8.57 10.01-6.13 16-3.97m-30.99 24.97c-2.45-6.17-.4-12.28 5.98-14.5 1.34-.47 11.89-3.44 12.58-3.49 2.57-.17 4.74 2.31 7.42 2.01-1.15 1.03-3.73 6.51-4.2 6.78-1.39.81-5.1-.15-7.22.29-4.12.84-8.45 2.59-11.63 5.37-1.42 1.24-1.36 3.38-2.93 3.55Zm2 12.01c-1.09-8.8 5.18-14.57 12.99-16.99 1.05-.33 2.12-1.72 4-.99.55 1.89-.8 1.69-1 1.99-1.64 2.53-3.21 4.89-4.26 7.73zm7.62 27.55a5.8 5.8 0 0 1-.63 1.45h1c-.16-.51-.28-.99-.37-1.45" class="cls-94"/>
        <path d="m49.46 159.98-.22.05c.03.17.07.34.1.51.04-.19.07-.38.11-.56Zm-1.91-8.72c-.08.11-.15.22-.2.33l.11.39.09-.73ZM49.47 107v1c.86-.48.89-.81 0-1m-1 35.99v1c.85-.48.89-.81 0-1m2-27c.05.33-.06.68 0 1 .86-.42.89-.75 0-1m-33 102c.6 1.98-.26 3.21 2 5 .87-2.03.79-5.39-2-5m4-12c-.29.06-.7.03-1 0 .43.9.77.92 1 0m10.55 53.99h-.54v-2.74a1.9 1.9 0 0 0-1.01-.26c.3 1.29.77 3.68 1 5 .26-.42.48-.93.63-1.45-.04-.19-.06-.37-.09-.55Zm24.45-78.99c.05.32-.03.67 0 1 .87-.42.9-.76 0-1m-28 21c-1.69.76-3.49 1.32-5 2 1.72 2.37 5.36.94 5-2m20-48c-.02.66.04 1.34 0 2 1.8-.91 1.91-1.7 0-2m8 33c-.03.33.04.67 0 1 .86-.42.88-.75 0-1" class="cls-94"/>
        <path d="m49.24 160.04-.08.02c.05.24.09.48.14.73.02-.08.03-.16.05-.24-.03-.17-.07-.34-.1-.51Zm-18.77 96.95c-.09-.4-.19-.78-.3-1.16.1.39.19.77.3 1.16M49.47 98v1c.86-.48.89-.82 0-1M32.46 256.94v3.05h-.23c-.04.18-.08.37-.13.55.09.46.21.95.37 1.45.04-1.05 1.62-3.28 1.01-5l2.99 1.02 1.01-3.01c-2.67-.01-4.27.69-5.01 1.95Zm36.89-136.66c-.34 2.21 3.77 4.11 6.48 4.08.34-.1.67-.18.98-.24-2.96.33-2.71-3.75-6.36-3.19-.09-.53 1.02-.88 1.01-.95-.99-.92-1.94-.89-2.12.29Z" class="cls-94"/>
        <path d="M32.02 259.98c.02.18.05.36.09.55.05-.18.1-.37.13-.55z" class="cls-94"/>
        <path d="M120.45 253.5c-1.36-4.47-10.63.39-5.84 3.35 1.87 1.16 6.86 0 5.84-3.35" class="cls-49"/>
        <path d="M113.36 249.89c2.57-4.12-4.2-6.34-5.78-3.79-2.57 4.12 4.2 6.34 5.78 3.79" style="fill:#222122"/>
        <path d="M91.81 280.48c-.76-.33-1.36-1.2-1.34-2.49-1.1 2.5-.65 3.32 1.34 2.49" class="cls-187"/>
        <path d="M91.81 280.48c-1.99.84-2.44.01-1.34-2.49-.24.17-.96-.24-1.29 0-3.35 2.46.54 6.7 3.88 4.07 1.26-.99.97-2.28 1.4-3.07-.57 1.49-1.73 1.89-2.66 1.49Z" class="cls-187"/>
        <path d="M91.81 280.48c.7-.29 1.58-.79 2.66-1.49l-4-1c-.02 1.28.58 2.15 1.34 2.49" class="cls-187"/>
        <path d="M94.46 278.99c-1.08.7-1.96 1.19-2.66 1.49.93.41 2.09 0 2.66-1.49" class="cls-187"/>
        <path d="M107.45 260.49c0 4.49 5.13 1.46 6.01 1.5v-3c-1.39-.17-6.01-2.82-6.01 1.5" class="cls-88"/>
        <path d="M125.18 260.06c-1.22.63-2.16-.14-2.72-2.07-.43 3.9.71 3.66 2.72 2.07" class="cls-97"/>
        <path d="M125.18 260.06c-2.01 1.59-3.15 1.83-2.72-2.07-.11.25-2.06.64-2.04 2.48.03 4 7.22 3.46 6.04-1.48-.45.51-.88.86-1.28 1.07" class="cls-97"/>
        <path d="M122.46 257.99c.56 1.93 1.5 2.7 2.72 2.07.4-.31.82-.67 1.28-1.07-1.33-.5-2.48-1.17-4-1" class="cls-97"/>
        <path d="M126.46 258.99c-.46.4-.88.76-1.28 1.07.4-.21.82-.56 1.28-1.07" class="cls-97"/>
        <path d="M116.66 267.96s.04-.04.06-.05c2.44-1.62.06-2.45-2.26-.91 1.17.05 1.91.35 2.2.97Z" class="cls-21"/>
        <path d="M116.72 267.9s-.04.04-.06.05c.22.48.18 1.13-.2 2.03.18-.2 1.93.02 2.53-.93 1.71-2.7-.23-5.54-2.95-5.01-1.44.28-1.31 2.68-1.57 2.94 2.32-1.54 4.7-.7 2.26.91Z" class="cls-21"/>
        <path d="M116.46 269.99c-.26-.74-.33-1.61.2-2.03-.29-.61-1.03-.92-2.2-.97-.35 1.66.75 2.23 2 3" class="cls-21"/>
        <path d="M116.66 267.96c-.53.42-.45 1.29-.2 2.03.37-.9.42-1.56.2-2.03" class="cls-21"/>
        <path d="M125.2 273.72c-.76.06-1.43-.59-1.99-1.42-1.08 2.23-.42 2.7 1.99 1.42" class="cls-107"/>
        <path d="M125.2 273.72c-2.41 1.29-3.07.81-1.99-1.42-.28-.42-.53-.88-.75-1.32-.39.68-1.72 1.25-1.69 2.45.12 4.53 4.96 3.95 5.69-.45-.44.48-.86.7-1.26.73Z" class="cls-107"/>
        <path d="M123.46 270.79c-.32.07-.64.14-1 .2l.89 1.04c-.05.1-.09.19-.14.28.56.83 1.22 1.48 1.99 1.42.38-.2.8-.44 1.26-.73-.2-.06-1.2-2.19-3-2.2Z" class="cls-107"/>
        <path d="M126.46 272.99c-.46.29-.88.53-1.26.73.4-.03.82-.25 1.26-.73m-3.11-.96-.89-1.04c.22.44.47.9.75 1.32.04-.09.09-.18.14-.28m-.89-1.04c.36-.05.68-.12 1-.2-.31 0-.64.05-1 .2" class="cls-107"/>
        <path d="M147.46 271.99c.76 2.68 2.83 3.03 4 0-1.28 1.74-2.77 2.07-4 0" class="cls-68"/>
        <path d="m147.46 271.99-.96.54c-1.18 3.78 4.99 4.86 5.86 1.86.25-.86-.92-2.07-.9-2.39-1.17 3.03-3.24 2.68-4 0Z" class="cls-68"/>
        <path d="M150.81 271.47c-1.28-.55-3.14.57-3.35.51 1.23 2.07 2.72 1.74 4 0-.28-.16-.48-.33-.65-.51" class="cls-68"/>
        <path d="M150.81 271.47c.17.18.38.36.65.51-.19-.25-.41-.41-.65-.51" class="cls-68"/>
        <path d="M162.46 275.99c-1.86-2.27.94-3.98 3-2-1.12-4.28-7.19-3.65-5.97.48.38 1.3 2.79 1.31 2.97 1.52" class="cls-77"/>
        <path d="m162.46 275.99 3-2c-2.06-1.98-4.86-.27-3 2" class="cls-77"/>
        <path d="M348.88 280.48c-.5-.15-1.07-.26-1.7-.34-.57-.06-1.14-.12-1.74-.15v1c1.32-.39 2.45-.55 3.44-.51m3.52 1.53c.75.74 1.41 1.73 2.04 2.98l-1-4z" class="cls-92"/>
        <path d="m352.4 282.01-.78.76c-.08-.3-.24-.57-.42-.82l-.76 3.03c1.17-.2 3.09.32 4 0-.63-1.25-1.29-2.25-2.04-2.98Zm-6.95-1.02c1.54-.1 3.11 0 4.67.02-.36-.2-.76-.38-1.23-.52-.99-.05-2.12.11-3.44.51Z" class="cls-92"/>
        <path d="M351 281h.45l-.05.22c.36.22.69.48 1.01.79l1.04-1.02c-2.06-.24-4.04-.61-6.26-.85.62.08 1.2.19 1.7.34.78.04 1.48.21 2.11.52m3.83.05c-.33-.14-.78-.17-1.38-.06.48.06.94.07 1.38.06" class="cls-92"/>
        <path d="M348.88 280.48c.48.14.87.32 1.23.52h.88c-.63-.31-1.33-.48-2.11-.52m3.52 1.53c-.32-.31-.65-.57-1.01-.79l-.18.73c.18.25.33.52.42.82l.78-.76Z" class="cls-92"/>
        <path d="M78.3 279.97c-.61.18-1.29.02-1.58-.28-.26.15-.65.27-1.25.3.86.25.83.58 0 1 .1.54.71 1.38 1 2 .99-.08 2.01.06 3 0-1.77-.47-1.73-1.73-1.16-3.02Z" class="cls-48"/>
        <path d="M75.47 279.99c0 .32-.06.7 0 1 .83-.42.86-.75 0-1m2.83-.02c-.57 1.29-.6 2.55 1.16 3.02.2-1.48 1.85-3.03 0-5 .08 1.21-.5 1.79-1.16 1.98" class="cls-48"/>
        <path d="M75.46 277.99c-.03.66.02 1.33 0 2 .6-.03 1-.15 1.25-.3-.17-.18-.22-.41-.03-.65.33-.42.75.23.03.65.29.31.97.46 1.58.28.3-.69.75-1.39 1.16-1.98-1.17.23-2.74-.19-4.01 0Z" class="cls-48"/>
        <path d="M76.69 279.03c-.19.24-.14.47.03.65.72-.42.3-1.07-.03-.65m2.78-1.04c-.41.59-.86 1.29-1.16 1.98.66-.19 1.24-.77 1.16-1.98" class="cls-48"/>
        <path d="M155.82 282.9c3.51-.61 3.37-6.47-1.8-4.86-3.09.96-.44 5.25 1.8 4.86" class="cls-83"/>
        <path d="M145.46 280.47c.57-2.31-4.02-3.21-4.97-2.46-3.26 2.59 3.67 7.7 4.97 2.46" class="cls-162"/>
        <path d="M96.71 275.48q.345-.42.75.51c1.92-4.5.78-3.67-.75-.51" class="cls-166"/>
        <path d="M96.71 275.48c-.08.17-.16.33-.25.51h1c-.28-.62-.53-.8-.75-.51" class="cls-166"/>
        <path d="M97.96 270.98c-4.27.02-1.42 4.6-1.5 5.01.08-.24.16-.41.25-.51 1.54-3.15 2.67-3.99.75.51.4-.07.78-.1 1.13-.09 2.69-.69 2.59-4.94-.63-4.93Z" class="cls-166"/>
        <path d="M98.59 275.9c-.35-.01-.73.01-1.13.09.42.04.79 0 1.13-.09m-2.13.09c.08-.18.16-.35.25-.51-.09.11-.17.27-.25.51" class="cls-166"/>
        <path d="M105.69 266.68c-.91.92-2.28.25-3.22-1.69 1.15 2.72 2.22 3.28 3.22 1.69" class="cls-126"/>
        <path d="M105.69 266.68c.26-.42.52-.97.78-1.69-1.26.17-2.7-.11-4 0 .95 1.93 2.31 2.61 3.22 1.69" class="cls-126"/>
        <path d="M106.46 264.99c-.17.8-.44 1.35-.78 1.69-1 1.59-2.08 1.03-3.22-1.69-2.49 6.59 6.78 6.1 4 0" class="cls-126"/>
        <path d="M106.46 264.99c-.25.71-.51 1.27-.78 1.69.34-.34.61-.89.78-1.69" class="cls-126"/>
        <path d="M103.86 253.95c.35.76.45 1.56.09 2.33 1.5-2.25 1.47-3.03-.09-2.33" class="cls-148"/>
        <path d="M103.94 256.28c-.11.24-.27.48-.48.71 1.13-.55 3.54-.66 3.76-2.48.39-3.3-2.93-2.3-4.76-2.52.55.58 1.07 1.26 1.39 1.96 1.56-.7 1.59.07.09 2.33" class="cls-148"/>
        <path d="M103.46 256.99c.18-.26.33-.48.48-.71.36-.77.26-1.57-.09-2.33-.06.03-.1.04-.17.07l-1.22-2.03c-1.64 1.93-.33 3.35 1 5" class="cls-148"/>
        <path d="M103.46 256.99c.21-.23.37-.47.48-.71-.15.23-.3.45-.48.71m.4-3.04c-.32-.71-.84-1.38-1.39-1.96l1.22 2.03c.06-.03.11-.04.17-.07" class="cls-148"/>
        <path d="M111.48 274.93c-.74-1.01-.11-1.26 1.98-.94-3.25-1.59-3.91-1.28-1.98.94" class="cls-102"/>
        <path d="M111.48 274.93c.27.32.6.67.98 1.06.38-.61.58-1.44 1-2-2.09-.32-2.72-.07-1.98.94" class="cls-102"/>
        <path d="M108.92 275.05c.83 1.21 2.98.64 3.55.94-.44-.42-.77-.77-.98-1.06-1.93-2.22-1.27-2.53 1.98-.94-.13-.49-.21-.93-.26-1.34-1.24-3.58-6.54-.85-4.29 2.4" class="cls-102"/>
        <path d="M113.46 273.99a5 5 0 0 0-.26-1.34c.05.41.13.85.26 1.34m-1 2c-.38-.39-.71-.75-.98-1.06.21.29.54.64.98 1.06" class="cls-102"/>
        <path d="M435.94 293.97c4.64-2.18 1.48-8.02-1.49-5.98-1.17.8-.35 5.28 1.49 5.98" class="cls-77"/>
        <path d="M157.46 264.99c-.45 1.23-1.45 2.56-3 4 1.5-.73 2.5-2.07 3-4" class="cls-44"/>
        <path d="M154.46 268.99c3.15 2.61 5.24-1.01 3-4-.5 1.93-1.5 3.27-3 4" class="cls-44"/>
        <path d="M153.9 265.94c-1.08 1.42.62 2.8.56 3.05 1.55-1.44 2.55-2.77 3-4-.51.29-2.57-.35-3.56.95" class="cls-44"/>
        <path d="M128.1 266.99h-.64c.24.02.45.01.64 0m0 0c1.13-.1 1.22-.8.36-2-.72.6-.85 1.88-1 2z" class="cls-15"/>
        <path d="M132.47 264.99h-3.1c-.28 0-.58.01-.9 0 1.52 1.76 1.56 1.98-.36 2-.19.02-.39.02-.64 0 2.5 3.68 6.25 2.98 5-2" class="cls-15"/>
        <path d="M129.37 264.99h-.9q.48.015.9 0m-1.27 2c1.92-.02 1.88-.24.36-2 .86 1.2.77 1.9-.36 2" class="cls-15"/>
        <path d="M134.46 274.99c2.11-.49 3.11-1.82 3-4-.25 1.79-1.33 3.45-3 4" class="cls-136"/>
        <path d="M134.46 274.99c2.44 1.35 4.99 1.85 4.6-1.53-.1-.89-1.51-1.83-1.6-2.47.11 2.18-.89 3.51-3 4" class="cls-136"/>
        <path d="M134.42 273.87c.06.36.09.73.04 1.12 1.67-.55 2.75-2.21 3-4-2.15-.09-2.97 1.13-3.04 2.88" class="cls-136"/>
        <path d="M134.42 273.87c-.01.36 0 .73.04 1.12.05-.4.02-.77-.04-1.12" class="cls-136"/>
        <path d="M338.45 280.99c1.12 2.48 1.63 2.47 4 1l-1-2c-.17 2.72-1.28 3.21-3 1" class="cls-113"/>
        <path d="M338.45 280.99c-2.4 3.36.56 4.44 4 4 .2-.9-.23-2.28 0-3-2.37 1.47-2.88 1.48-4-1m4 1c.56-.42.83-.73.88-.98-.37.11-.68.37-.88.98" class="cls-113"/>
        <path d="M341.45 279.99c-1.01-.07-2.54 1.03-3 1 1.72 2.21 2.83 1.72 3-1" class="cls-113"/>
        <path d="m408.44 291.99 1-4c-2.77-.68-2.85 1.9-1 4m1-4c-.07 1.42-.4 2.76-1 4 8.24-1.47 2.11-2.8 1-4" class="cls-191"/>
        <path d="M408.44 291.99c.6-1.24.93-2.58 1-4z" class="cls-191"/>
        <path d="M395.44 287.99c-.01.29-1.97 3.03-.99 4 .3.29 3.21.05 4.06-.47 1.02-.62.68-2.17.93-2.53-.87 2.29-4.16 1.78-4-1" class="cls-71"/>
        <path d="m399.44 288.99-4-1c.9 2.05 2.23 2.38 4 1" class="cls-71"/>
        <path d="M395.44 287.99c-.16 2.78 3.13 3.29 4 1-1.77 1.38-3.1 1.05-4-1" class="cls-71"/>
        <path d="M166.46 268.47c.63 2.12 5.69 1.58 4-3.48h-3c0 .23-1.54 1.67-1 3.48" class="cls-113"/>
        <path d="M131.46 281.99c-.04-.42 2.45-4.03-1.5-4.01-4.18.02-1.48 3.74-1.5 4.01.08-2.86 2.35-2.71 3 0" class="cls-41"/>
        <path d="M128.46 281.99h3c-.65-2.71-2.92-2.86-3 0" class="cls-41"/>
        <path d="M141.91 267.91q-.09.42-.45 1.08.495-.765.45-1.08" class="cls-169"/>
        <path d="M140.46 267.99c.35.19.64.82 1 1q.36-.66.45-1.08c-.05-.34-.53-.31-1.45.08" class="cls-169"/>
        <path d="M140.66 267.26c-.04.23-.1.47-.2.73 1.09-.95 1.63-.89 1.45-.08q.045.315-.45 1.08c.66-.12 1.25-.18 1.8-.21 5.18-1.21-.8-6.98-2.6-1.52" class="cls-169"/>
        <path d="M141.91 267.91c.18-.81-.36-.87-1.45.08.92-.39 1.4-.42 1.45-.08m-1.45.08c.11-.25.17-.49.2-.73-.07.23-.14.46-.2.73m1 1c.71-.02 1.3-.1 1.8-.21-.55.03-1.14.1-1.8.21" class="cls-169"/>
        <path d="M425.43 290.42c.36-1.63-1.45-1.85-1.99-2.43a21 21 0 0 1-1 5c.87-.52 2.8-1.71 2.99-2.57" class="cls-24"/>
        <path d="M422.44 292.99c.09-1.64.43-3.31 1-5-4.33.59-3.09 2.43-1 5" class="cls-24"/>
        <path d="M423.44 287.99c-.57 1.69-.91 3.36-1 5 .53-1.58.86-3.25 1-5" class="cls-24"/>
        <path d="M180.46 281.99h2c1.88-5.95-3.58-4.25-4-2.48-.4 1.7 1.83 2.11 2 2.48m.07.32c-.01-.12-.03-.23-.07-.32.02.12.05.21.07.32" class="cls-22"/>
        <path d="M170.46 281.99c1.87-3.16.44-4.09-3-4 1.2 1.03 2.2 2.37 3 4" class="cls-100"/>
        <path d="M170.46 281.99c-.8-1.63-1.8-2.97-3-4 .24.24-3.22 4.34 3 4" class="cls-100"/>
        <path d="M119.01 278.95c-1.04-1.4-2.8-.65-3.55-.96l3 4c.12-.79 1.61-1.6.55-3.04m-.55 3.04a19.2 19.2 0 0 1-3-4c-2.17 2.84-.05 4.3 3 4" class="cls-176"/>
        <path d="M115.46 277.99c.84 1.48 1.84 2.82 3 4z" class="cls-176"/>
        <path d="M357.95 288c-3.51.95.15 5.68 2.49 3.98 1.19-.86 1.02-4.94-2.49-3.98" class="cls-117"/>
        <path d="M432.42 283.49c-.47-1.49-4.41-2.06-4.97-1.49-1.67 1.67 2.27 6.63 4.97 1.49" style="fill:#0f0f0e"/>
        <path d="M316.45 281.99c1.23 1.08 2.56 2.08 4 3 .11-2.58-1.66-3.27-4-3" class="cls-25"/>
        <path d="M315.44 284.98c2.1.48 3.03 1.23 5.01.01-1.44-.92-2.77-1.92-4-3-.04.65-1.27 1.92-1.01 2.99" class="cls-25"/>
        <path d="M300.45 278.99c-1.46-.28-3.21-1.21-3-3-4.35 3.21-1.19 4.14 3 3" class="cls-134"/>
        <path d="M300.45 278.99c.53-2.9-2.51-2.53-3-3-.21 1.79 1.54 2.72 3 3" class="cls-134"/>
        <path d="M310.45 279.99c-.03-1.62.64-2.62 2-3-1-.87-2.69-1.11-4-1-1.04 2.45 1.82 3.57 2 4" class="cls-191"/>
        <path d="M310.45 279.99c2.67.47 2.04-.63 2-3-1.36.38-2.03 1.38-2 3" class="cls-191"/>
        <path d="M445.44 283.99c-1.61-.19-2.61-.85-3-2-.84.52-2.73-1.26-1.99 2.99 1.92.56 3.52-.71 4.99-.99" class="cls-158"/>
        <path d="M445.44 283.99c.47-2.67-.63-2.04-3-2 .39 1.15 1.39 1.81 3 2" class="cls-158"/>
        <path d="M383.44 291.99h2c-.36-.39-.59-.72-.7-.97-.23.43-.65.79-1.3.97m1.74-1.55c-.08-.04-.16-.09-.23-.13 0 .03 0 .07-.01.1.07 0 .16.01.24.03m-.44.58c.1-.19.17-.39.2-.6-.29.02-.37.23-.2.6" class="cls-43"/>
        <path d="M384.94 290.41c-.03.21-.1.41-.2.6.11.25.34.58.7.97.15-.7.9-.82 1-1-.45-.15-.87-.33-1.26-.55-.09-.02-.18-.04-.24-.03Z" class="cls-43"/>
        <path d="M384.74 291.02c-.17-.37-.09-.58.2-.6 0-.03.01-.07.01-.1-.83-.52-1.43-1.23-1.51-2.32-.04 1.79-.13 1.83 0 4 .64-.18 1.06-.54 1.3-.97Zm-1.3-3.03c1.03.4 1.6 1.4 1.51 2.32.07.05.15.09.23.13.3.05.72.22 1.26.55-.11-.5-.16-.97-.19-1.4-.39-1.1-1.36-1.66-2.81-1.6" class="cls-43"/>
        <path d="M386.44 290.99c-.54-.33-.95-.49-1.26-.55.39.21.81.39 1.26.55m0 0c.02-.54-.05-1-.19-1.4.02.44.08.9.19 1.4m-1.49-.68c.08-.92-.48-1.92-1.51-2.32.09 1.09.68 1.8 1.51 2.32" class="cls-43"/>
        <path d="M371.44 291.99h1c0-.65 2.08-3.2.49-4.01-6.91.8-1.61 3.59-1.49 4.01" class="cls-196"/>
        <path d="M172.46 274.99c.86.73 5.57-.51 5-2-.26-.67-3.08-.9-4-1-.33-.04-.67.03-1 0 .2.76-.26 2.78 0 3" style="fill:#212121"/>
        <path d="m313.45 273.49 4.99.49c-.24-3.89-3.8-4.4-4.99-.49" style="fill:#3f3f40"/>
        <path d="M20.47 258.99c-2.6-.13-5.13-.69-3.98 2.48 1.2 3.34 4.97-1.57 3.98-2.48" style="fill:#302f2f"/>
        <path d="M192.46 281.99c-.96-2.22 1.62-2.16 3-1-1.49-2.17-2.19-2.25-4.99-1.99-.82 2.02 1.8 2.5 1.99 2.99" class="cls-67"/>
        <path d="m192.46 281.99 3-1c-1.38-1.16-3.96-1.22-3 1" class="cls-67"/>
        <path d="M286.94 278.98c2.39-.62 1.02-3.76-1.98-2.98-2.39.62-1.02 3.76 1.98 2.98" style="fill:#383938"/>
        <path d="M329.45 284.49c2.27-1.46.61-2.55-1-3.51l-2 2c1.02 1.07.88 2.87 3 1.51" style="fill:#333334"/>
        <path d="M436.93 276c-2.95-1.06-3.23 2.23-2.48 2.98 1.31 1.32 5.93-1.74 2.48-2.98" class="cls-67"/>
        <path d="M460.44 266.99c-2.39-1.92-5.24-.09-3 2 2.37.04 3.47.67 3-2" style="fill:#121110"/>
        <path d="M30.47 271.99c-.13.15-1.42.02-.99 1.48 1.14 3.9 3.75-.35 3.99-.48-1.52 1.15-3.3 1.23-3-1" class="cls-149"/>
        <path d="m33.47 272.99-3-1c-.13 1.58.87 1.91 3 1" class="cls-149"/>
        <path d="M30.47 271.99c-.3 2.23 1.48 2.15 3 1-2.13.91-3.13.58-3-1" class="cls-149"/>
        <path d="M13.47 252.99H9.48c.02 3.98 3.99 3.93 3.99 0" style="fill:#2f2e2e"/>
        <path d="m291.45 269.99-1 4c3.98 1.5 4.15-3.17 1-4" style="fill:#2a292a"/>
        <path d="M305.45 270.99c-1.36-.18-1.06-1.72-3 0q1.605.615 3 0" class="cls-176"/>
        <path d="M305.45 270.99q-1.395.615-3 0c.29 3.71 2.71 3.71 3 0" class="cls-176"/>
        <path d="M185.46 272.99c-.06 3.5 2.56 2.65 4 0-1.1 1.23-2.99 1.03-4 0" class="cls-172"/>
        <path d="M186.99 272.23c-.46.25-.96.5-1.53.76 1.33.25 2.66.25 4 0-.76-.11-1.54-.79-2.47-.76" class="cls-172"/>
        <path d="M185.46 272.99c.57-.26 1.07-.51 1.53-.76-.47.02-.97.21-1.53.76m0 0c1.01 1.03 2.9 1.23 4 0-1.34.25-2.67.25-4 0" class="cls-172"/>
        <path d="M308.45 266.99c.24.06 2.38 2.11 2.99-.51.4-1.72-1.39-1.82-1.99-2.49 1.39 1.29 1.07 3.27-1 3" class="cls-24"/>
        <path d="m309.45 263.99-1 3c1.01-.62 1.34-1.62 1-3" class="cls-24"/>
        <path d="M308.45 266.99c2.07.27 2.39-1.71 1-3 .34 1.38 0 2.38-1 3" class="cls-24"/>
        <path d="M453.42 262.49c-.74-1.45-2.03-1.1-2.98-1.5l1.29 1.62-1.29-1.62c-.74 3.53-1.95 5.08 2.98 1.5" style="fill:#555"/>
        <path d="M466.43 259.99c-1.59-1.59-4.58 1.4-2.99 2.99s4.58-1.4 2.99-2.99" style="fill:#1a1a19"/>
        <path d="M479.41 248.49c.03-2.98-5.88-.28-3.97 1.49.67.62 3.96-.47 3.97-1.49" class="cls-24"/>
        <path d="M293.45 281.99c-4.87-1.81-2.06 2.18-2 3-.44-1.4.54-2.94 2-3" class="cls-56"/>
        <path d="M293.45 281.99c-1.46.06-2.44 1.6-2 3 1.43-.43 1.99-1.54 2-3" class="cls-56"/>
        <path d="M466.43 272.99c-1.69-1.5-4.5 1.28-2.99 2.99.94 1.07 4.06-2.03 2.99-2.99" style="fill:#3e3e3d"/>
        <path d="M444.92 270.98c2.14-.48 1.15-3.47-.97-2.99-2.14.48-1.15 3.47.97 2.99" class="cls-172"/>
        <path d="m345.45 287.99 3 2c-.21-1.39-1.69-2.38-3-2" class="cls-123"/>
        <path d="m348.45 289.99-3-2c-.36 3.26.11 4.02 3 2" class="cls-123"/>
        <path d="M26.47 267.99c-1.02-.47-2.02-1.13-3-2-.96 2.04 1.26 2.66 3 2" class="cls-152"/>
        <path d="M23.47 265.99c.98.87 1.98 1.53 3 2 .47-2.67-.63-2.04-3-2" class="cls-152"/>
        <path d="M17.48 271.99h2.99v1.99h-2.99z" style="fill:#333433"/>
        <path d="M303.45 282.99c1.11.53 2.11 1.2 3 2-.46-1.14.89-2.9-3-2" class="cls-194"/>
        <path d="M306.45 284.99c-.89-.8-1.89-1.47-3-2-.47 2.67.63 2.04 3 2" class="cls-194"/>
        <path d="M97.36 285.22c-.2.25-.49.51-.9.77.66-.03 1.34.04 2 0h1c-1.08-.17-1.77-.43-2.1-.77" class="cls-53"/>
        <path d="M97.36 285.22c-.32-.33-.29-.74.1-1.23-.24.28-1.16.37-1.54 1.01-.48.78.53.94.54.99.4-.26.7-.52.9-.77m2.1.77h-1c.33-.02.68.05 1 0" class="cls-53"/>
        <path d="M97.36 285.22c.33.34 1.03.6 2.1.77l-2-2c.27.39.24.8-.1 1.23" class="cls-53"/>
        <path d="M97.36 285.22c.34-.43.37-.84.1-1.23-.39.49-.42.9-.1 1.23" class="cls-53"/>
        <path d="M452.01 273.24c-.16-.06-.35-.14-.57-.26.02.32.07.78 0 1 .16-.5.36-.72.57-.74m.32.09c.4.24.8.96 1.11 1.66.19-1.73-.93-2.53-1-3 .36.96.38 1.4-.11 1.34" class="cls-147"/>
        <path d="M452.33 273.33c-.09-.01-.19-.04-.31-.08-.21.03-.41.25-.57.74l2 1c-.31-.7-.72-1.42-1.11-1.66Z" class="cls-147"/>
        <path d="M452.33 273.33c.49.06.47-.38.11-1.34l-1 1c.23.12.41.2.57.26.1-.01.21.02.31.08Z" class="cls-147"/>
        <path d="M452.01 273.24c.12.04.23.07.31.08-.11-.07-.21-.1-.31-.08" class="cls-147"/>
        <path d="M426.07 216.14c.04.59.02 1.19-.1 1.78-1.24 5.92-6.99 29.42-9.58 32.34-.04.04-.08.07-.12.11 1.84-.47 3.92 1.29 3.17 3.61.64-1.03 1.74-2.94 2-4 2.89-11.62 5.07-23.67 9-35-1.5 1.62-3.35 2.03-4.37 1.15Z" class="cls-181"/>
        <path d="m430.44 214.99-3.03-1.29-.97 1.78-1-2.49c.28 1.02.55 2.09.63 3.15 1.02.87 2.87.47 4.37-1.15m-14.17 35.39c-.55.59-1.17 1.12-1.83 1.61 2.85.92 3.39-1.27 3.01 2.99h.98l.02-2c1.11-.16.93.96.99 1 .76-2.32-1.32-4.08-3.17-3.61Z" class="cls-181"/>
        <path d="M416.27 250.38s.08-.07.12-.11c2.59-2.93 8.33-26.42 9.58-32.34.12-.59.14-1.18.1-1.78-.64-.55-.95-1.59-.63-3.15-4.35 13-6.86 26.36-11 39 .46-.93 1.13-1.43 1.83-1.61Z" class="cls-181"/>
        <path d="M414.44 251.99c.66-.49 1.29-1.02 1.83-1.61-.7.18-1.37.68-1.83 1.61m11.63-35.85c-.07-1.07-.35-2.13-.63-3.15-.32 1.56 0 2.61.63 3.15" class="cls-181"/>
        <path d="M393.92 263.2c-1.38.56-3.14.91-5.09 1.08 1.25.03 2.58.12 3.71.28-.07-.43.44-.93 1.38-1.35Zm-30.81.85c-1.97.07-3.53.04-3.78-.08-.74-.35-1.1-1.21-1.38-1.99-.22.99-.69 1.66-1.22 1.91.33 2.15-4.57 2-6.28 1.09v1c3.95-.22 8.03.02 12 0 .11-.66.28-1.51.66-1.94Zm7.06-.71c1.31-.02 2.71-.03 4.08 0h-.01c-.5-.1-.92-.66-1.3-1.35.04.58-1.11 1.03-2.77 1.35m25.01 2.03c.06.06.13.11.16.17q6.87-.66 12.6.45l-.14-.91-12.63.29Zm-9.96-.95c-.51 0-1.02 0-1.53-.03.07.06.13.12.16.19.15.43.15.91.1 1.41.09-.49.21-.96.47-1.33.07-.1.37-.18.8-.24" class="cls-4"/>
        <path d="M348.83 262.84c2.07.28 4.19.43 6.34.47-.08-.11-.15-.23-.22-.37-2.08.13-4.12.08-6.12-.09Zm35.02 1.74a.45.45 0 0 0-.16-.19c-3.47-.11-6.93-.54-9.43-1.05-1.38-.02-2.77-.02-4.08 0-2.04.4-4.82.62-7.07.71-.38.43-.55 1.28-.66 1.94 5.02-1.61 12.19-1.28 17.57-1.07 1.73.07 3.51 1.07 3.93 1.07.05-.5.05-.98-.1-1.41m8.69-.02c1.25.18 2.23.45 2.64.81l12.63-.29.14.91c.5 0 1.42-.65 2.18-.24 2.7.84.46-1.59-.39-1.63-3.63-.14-7.53 1.03-11.84.86-1.93-.08-4.01 1.04-3.45-2-.16.08-.34.14-.52.21-.95.43-1.45.93-1.38 1.35Z" class="cls-4"/>
        <path d="M395.34 265.54c-.03-.06-.1-.11-.16-.17l-1.2.03c-.93-.18-1.38-.49-1.44-.84-1.13-.16-2.46-.25-3.71-.28-1.16.1-2.38.14-3.62.14-.44.06-.74.14-.8.24-.26.38-.38.84-.47 1.33h24q-5.73-1.125-12.6-.45m-38.61-1.64c-.52.24-1.09.09-1.55-.59-2.15-.04-4.27-.19-6.34-.47-3.97-.36-7.77-1.3-11.39-2.85 5.1 5.31 11.29 3.96 17.99 4.01.06 1.81-3.72.96-4.99.99 1.71.91 6.62 1.07 6.28-1.09" class="cls-4"/>
        <path d="m393.98 265.4 1.2-.03c-.41-.37-1.39-.63-2.64-.81.06.35.51.66 1.44.84m-19.74-2.07h.01c4.38.06 8.57.37 9.43 1.05.51.02 1.02.02 1.53.03.82-.12 2.16-.17 3.62-.14 1.95-.17 3.71-.52 5.09-1.08.16-.07.33-.15.52-.21-7.2 0-14.89-1-21.5-1 .39.69.8 1.24 1.3 1.35m-19.29-.39c.07.14.15.26.22.37.46 0 .91.03 1.38.02.1.21.15.39.18.57.53-.25 1-.93 1.22-1.91-4.85 0-14.94-1.4-20.5-2 3.65 1.38 7.45 2.33 11.39 2.85 2 .18 4.03.22 6.12.09Zm4.38 1.04c.25.11 1.8.15 3.78.08.11-.13.25-.23.41-.27.91-.22 3.56-.39 6.66-.44 1.66-.33 2.82-.77 2.77-1.35h-15c.28.77.64 1.64 1.38 1.99Z" class="cls-4"/>
        <path d="M385.22 264.42c1.24 0 2.46-.04 3.62-.14-1.46-.03-2.8.02-3.62.14m-10.97-1.08c2.5.51 5.97.94 9.43 1.05-.86-.68-5.05-.99-9.43-1.05m20.19-.35c-.19.07-.36.14-.52.21.17-.07.36-.14.52-.21m-39.27.32c.47.68 1.04.84 1.55.59-.03-.18-.08-.36-.18-.57-.46 0-.92-.01-1.38-.02Zm7.94.74c2.25-.08 5.03-.31 7.07-.71-3.1.06-5.75.22-6.66.44-.16.04-.29.14-.41.27m-25.66-4.06c3.62 1.56 7.42 2.5 11.39 2.85-3.94-.53-7.74-1.47-11.39-2.85" class="cls-4"/>
        <path d="M427.78 248.98c0 .15.01.3 0 .46l1.66-.45c-.86.07-1.38.06-1.66-.01m-.13-.71c.25-.42.7-1 .86-1.7 1.84-8.22 4.02-18.83 6.93-26.58-2.36 3.45-3.9 3.5-3-1-2.59 9.07-5.14 20.48-8 29 1.32-1.54 2.77-1.1 3.21.28" class="cls-84"/>
        <path d="M435.44 219.99c-2.45.44-3.34 2.29-3-1-.9 4.5.64 4.45 3 1m-7.66 28.99c-.4-.11-.34-.35-.13-.71-.44-1.39-1.89-1.82-3.21-.28 2.1 1.44 2.83 2.98 5 1l-1.66.45c.01-.16 0-.31 0-.46" class="cls-84"/>
        <path d="M326.32 249.6c.72-.37 1.73.18 2.41 1.21-.09-3.09 2.09-7.89 4.43-10.33-1.64.38-3.31-1.44-1.71-5.49-3.03 4.22-4.92 9.3-7 14 1.13.14 1.74.35 1.87.61m-.65.8c-.31.18-.72.38-1.23.59.46-.09.81-.15 1.11-.18.03-.15.07-.29.12-.41m9.78-11.41c.59-1.54.64-3.06 1-4 .66-1.72.84-3.55 3-3 .64-1.33 1.27-2.71 2-4h-1c-2.2 2.16-3.9 4.64-5.1 7.43.12.95.08 1.76-.07 2.44l.16.12c-.07.03-.14.05-.21.08-.12.45-.28.85-.48 1.18.24-.12.47-.2.7-.25" class="cls-55"/>
        <path d="M326.32 249.6c.11.22-.11.49-.64.8-.05.12-.08.26-.12.41 2.42-.29-.2 1.09-.04.18.01-.07.03-.12.04-.18-.3.04-.65.09-1.11.18 2.6 4.34 1.04.3 2.99 0l.02 2h1.99c-.47-.51-.69-1.27-.72-2.17-.68-1.03-1.69-1.58-2.41-1.21Z" class="cls-55"/>
        <path d="M325.56 250.81c-.01.06-.03.11-.04.18-.16.91 2.47-.47.04-.18m7.6-10.32c.53-.55 1.07-.99 1.59-1.25.2-.33.37-.72.48-1.18-3.43 1.37-2.74.77-3.79-3.07-1.59 4.05.07 5.87 1.71 5.49Zm2.19-5.07c1.2-2.79 2.9-5.27 5.1-7.43-4.67.49-4.76 5.37-6.99 8.51l1.82 1.36c.15-.68.19-1.5.07-2.44m-9.03 14.18c-.14-.26-.74-.47-1.87-.61-.21.46.2 1.52 0 2 .51-.21.92-.41 1.23-.59.16-.4.38-.67.64-.8" class="cls-55"/>
        <path d="M325.67 250.4c.53-.31.76-.58.64-.8-.27.13-.49.4-.64.8m9.08-11.16c-.43.7-1.01 1.11-1.59 1.25-2.34 2.44-4.52 7.24-4.43 10.33.39.59.67 1.34.72 2.17 1.2-3.96 4.34-9.69 6-14-.23.04-.46.13-.7.25" class="cls-55"/>
        <path d="M329.45 252.99c-.05-.84-.33-1.58-.72-2.17.03.91.25 1.67.72 2.17m3.71-12.5c.58-.14 1.16-.55 1.59-1.25-.52.26-1.06.7-1.59 1.25" class="cls-55"/>
        <path d="M417.19 181.27c-.22.06-.55-.11-.98-.5 1.07 1.19.51 1.36-1.76 1.22-.71 2.65-1.85 5.21-2 8 1.15.25 1.97.14 2.48.21-.34-3.1 1.41-7.4 4.52-8.21-1.23.04-1.96-.19-2.25-.72Z" class="cls-166"/>
        <path d="M417.19 181.27c.29.53 1.02.76 2.25.72.16-.91-.94-2.7-2-3 .21 1.43.13 2.18-.25 2.28m-.99-.5a8 8 0 0 1-.76-.78c-.2.67-.83 1.36-1 2 2.28.14 2.83-.03 1.76-1.22" class="cls-166"/>
        <path d="M414.92 190.2c.59.08.76.39.52 1.79.91-3.26 3.4-6.66 4-10-3.1.81-4.86 5.11-4.52 8.21m1.28-9.43c.44.39.76.56.98.5-.27-.49-.18-1.23.25-2.28-.25.35-1.5.62-2 1 .31.3.56.56.76.78Z" class="cls-166"/>
        <path d="M417.19 181.27c.38-.11.46-.85.25-2.28-.43 1.05-.52 1.79-.25 2.28m-.99-.5c-.2-.22-.45-.48-.76-.78.29.33.54.58.76.78" class="cls-166"/>
        <path d="M374.45 274.98c2.19-.66 8.79 1.84 7.99-1.99-2.19.66-8.79-1.84-7.99 1.99" class="cls-37"/>
        <path d="M368.44 266.99c1.86-.4 3.75-.6 5.64-.65-1.89-.13-3.78-.25-5.64-.35.87.28.86.62 0 1" class="cls-4"/>
        <path d="M382.44 266.99c-3.77-1.85-9.58-.99-14-1 1.86.1 3.75.22 5.64.35 2.8-.08 5.6.17 8.36.65" class="cls-4"/>
        <path d="M368.44 266.99c4.65-.04 9.35-.09 14 0-2.83-.25-5.61-.46-8.36-.65-1.89.05-3.78.25-5.64.65" class="cls-4"/>
        <path d="M374.08 266.34c2.75.19 5.53.4 8.36.65-2.75-.48-5.56-.73-8.36-.65m-5.64-.35v1c.86-.38.87-.72 0-1" class="cls-4"/>
        <path d="M347.82 266.43c.05.19.25.37.63.56-.32-.2-.51-.39-.63-.56m2.1-.7c-.26-.22-.08-.47.53-.74-.69.18-1.24.36-1.67.54.36 0 .75.06 1.14.2" class="cls-70"/>
        <path d="M347.82 266.43c-.38-.55.17-.89.96-.91.42-.18.97-.36 1.67-.54-2.99.08-6.01-.07-8.99.01.78 1.67 5.25 1.75 6.99 1.99-.38-.18-.57-.37-.63-.56Z" class="cls-70"/>
        <path d="M349.92 265.73c.18.07.36.15.53.26v-1c-.61.27-.79.52-.53.74m.52.26a1.6 1.6 0 0 1-.53-.26c-.38-.15-.78-.21-1.14-.2-.73.31-1.04.61-.96.91.12.17.31.36.63.56.27-.96 1.15-.95 2-1Z" class="cls-70"/>
        <path d="M347.82 266.43c-.08-.3.23-.6.96-.91-.79.01-1.34.36-.96.91m2.62-.44c-.17-.11-.35-.19-.53-.26.11.09.27.18.53.26" class="cls-70"/>
        <path d="M395.44 262.99c2.79 2.48 6.97.67 10 0-3.44.8-6.77.8-10 0" class="cls-4"/>
        <path d="M405.44 262.99h-10c3.23.79 6.56.79 10 0" class="cls-4"/>
        <path d="M395.44 262.99c3.23.8 6.56.8 10 0-3.44.79-6.77.79-10 0" class="cls-4"/>
        <path d="m368.45 273.98 3.98 1.01.01-2-3.99.01z" class="cls-37"/>
        <path d="M440.44 229.99c.13-.8 1.73-2.31.99-4-1 .05-1.68 1.14-1.99 2 1.15-.96 1.48-.29 1 2" class="cls-13"/>
        <path d="m439.44 227.99 1 2c.48-2.29.15-2.96-1-2" class="cls-13"/>
        <path d="m26.47 73 4-2c-2.39.34-4.63-1.21-4 2m4-2c-.74 1.12-2.08 1.79-4 2 3.08 2.11 3.77 2.89 4-2" class="cls-162"/>
        <path d="m30.47 71-4 2c1.92-.21 3.26-.88 4-2" class="cls-162"/>
        <path d="M15.47 123.99c-.86-1.19-4.94-1.02-3.98 2.49.95 3.51 5.68-.15 3.98-2.49" class="cls-83"/>
        <path d="M30.83 160.91c2.53-.46 2.56-2.66 1.33-3.99-1.39 0-2.44-.22-3.22-.9-2.95.83-.33 5.3 1.89 4.89" class="cls-167"/>
        <path d="M28.99 155.99s-.03.01-.05.02c.78.68 1.83.9 3.22.9a3.16 3.16 0 0 0-3.18-.92Z" class="cls-167"/>
        <path d="M339.45 231.99c-.55 1.14-1.7 3.12-2 4-.24.68-.7 2.86-1 4 1.45 1.97 1.53 4.64.22 7.99-2.61 10.77 12.11 7.97 7.53-.8l1.25-2.2c-.64-1.72-3.22-3.59-1.99-6.99h.97c.02.75.28 1.76 1.02 2 .06.02.4-.86.86-.85.28 1.26-.32 2.16 1.13 1.84l1.01-1.99c-4.15.24-3.61-10.8 0-11 .08-.63-1.51-3.15 1.25-4.83q-.495-.63-.42-.96c-1.52-.01-2.8-.41-3.83-1.21-.2 3.17-3.06 5.34-4 7 1.74 2.46 1.02 3.93-2 4m4.01-3.99h.98v5.99h-.98z" class="cls-108"/>
        <path d="M351.44 221.99c.06-.17-.86-1.43 1-2.99-.28-.24-6.08 1.58-7 1.99 1.03.8 2.31 1.2 3.83 1.21.1-.4.8-.48 2.17-.21m-14.78 25.99c1.31-3.36 1.24-6.02-.22-7.99-.74 2.86-2.31 8.88-2.09 11.51.51 6 8.84 7.8 11.94 1.86 2.18-4.16.51-4.67-.86-8.37l-1.25 2.2c4.58 8.77-10.14 11.57-7.53.8Zm4.79-19.99c-.73 1.29-1.36 2.67-2 4 3.02-.07 3.74-1.54 2-4m7.83-5.79q-.075.33.42.96c.08-.05.16-.1.25-.15l.5.98c.15-.4.65-.98 1-2-.77.15-1.49.22-2.17.21m-.83 5.79c-3.61.2-4.15 11.24 0 11-1.43-3.34-.44-7.49 0-11" class="cls-108"/>
        <path d="M349.28 222.2c.68 0 1.39-.06 2.17-.21-1.36-.27-2.07-.19-2.17.21" class="cls-108"/>
        <path d="M364.16 195.97c-1.17-7.06-1.64-16.46 6.61-19.28 3.57-1.22 7.85-.94 7.67 3.31.69-.84-.1-2.5 1-3-.83-.59-1.82-2.39-3-3-.24.9-.58.88-1 0-6.06 1.17-5.54.77-11 4 1.39 1.32.8 1.86-1 1-2.16 4.68-2.26 8.87-2.04 13.98-.62.23-1.48-.13-1.96.02-.51 3.04-2.15 3.42-4 1-1.68.92-2.83 2.95-4 4 3.2-1.28 4.21 1.83 2 4 2.51-1.43 2.94-3.47 6-4 .24-1.83 1.82-2.51 4.72-2.03" class="cls-180"/>
        <path d="M351.44 197.99c1.32.96 1.28 2.85 2 4 2.21-2.17 1.2-5.28-2-4m8-5c-1.28.41-2.68.74-4 1 1.85 2.42 3.49 2.04 4-1m5-15c-.4.24-.67.79-1 1 1.8.86 2.39.32 1-1m12-4c-.07.11-.65-.07-1 0 .42.88.76.9 1 0m-5.67 2.69c-8.25 2.82-7.78 12.23-6.61 19.28-2.9-.48-4.47.19-4.72 2.03 1.77-.31 5.33.76 6.58-.95.68-.93-.95-7.61-.52-10.48.97-6.4 7.14-11.85 12.93-6.56.18-4.25-4.1-4.53-7.67-3.31Z" class="cls-180"/>
        <path d="m78.92 76.39-4.74 8.25c2.2-1.28 3.33.18 3.38 4.4.15-.44.41-.82.9-1.05-1.71-2.75-1.55-6.62.45-11.61Z" class="cls-105"/>
        <path d="M77.56 89.04c-.06-4.22-1.19-5.68-3.38-4.4l-1.3 2.26-1.41.09 2 1.49 1.99-3.49 2.01 6.99c.02-.88-.2-2.06.1-2.95Z" class="cls-105"/>
        <path d="m74.18 84.64 4.74-8.25q-3.015 7.485-.45 11.61c.18-3.44 3.53-13.52 3-13.99-3.98-3.56-9.22 10.51-10 12.99 1.04-1.13 1.94-1.91 2.71-2.36" class="cls-105"/>
        <path d="M74.18 84.64c-.77.45-1.67 1.22-2.71 2.36l1.41-.09 1.3-2.26Z" class="cls-105"/>
        <path d="M85.47 86c.36-4.17.52-5.54 3-9v-3c-2.19 2.37-3.74 5-4.66 7.89L81.47 83c1.82-.85 2.82.49 3 4 .04-.45.53-.9 1-1" class="cls-118"/>
        <path d="M81.47 83c2.54 3.32-.14 8.3 0 11.99 4.33.7.21-6.48 3-7.99-.18-3.51-1.18-4.85-3-4m8.22-9.04c-.23-.13-.62-.13-1.23.04.46-.03.86-.04 1.23-.04m-1.22.04c-4.86.3-6.02 4.96-7 9l2.34-1.11c.91-2.89 2.47-5.52 4.66-7.89" class="cls-118"/>
        <path d="M52.84 90.3c-.43.6-.89 1.17-1.37 1.69l1.23-1.22c.05-.16.1-.31.14-.47m5.03-2.32.11-1.9c-.96-.32-1.91-1.18-2.43-2.21-.1.79-.29 1.57-.55 2.34 1.23-1.07 2.38-.26 2.88 1.77Z" class="cls-159"/>
        <path d="M57.98 86.08v-.03c.15-1.1 1.31-1.1 2.49-1.05-2.95-.25-2.57-3.91-4.85-2.1 0 .32-.03.65-.07.97.53 1.03 1.48 1.89 2.43 2.21m-2.99.13c-.5 1.45-1.26 2.85-2.15 4.09-.05.15-.1.3-.14.47l-1.23 1.22c3.38 2.92 1.75-4.96 4.99-5 .12 2.72.84 5.27 1.01 8l.4-7.01c-.5-2.03-1.65-2.84-2.88-1.77" class="cls-159"/>
        <path d="M52.84 90.3c.66-2.13 1.42-3.45 2.15-4.09.26-.77.45-1.55.55-2.34-.47-.92-.6-1.98-.08-2.87-2.24 4.51-2.75 6.04-4 11 .48-.52.94-1.09 1.37-1.69Z" class="cls-159"/>
        <path d="M55.54 83.87c.04-.32.06-.65.07-.97-.05.04-.09.06-.14.1v-2c-.53.9-.41 1.95.07 2.87m-2.7 6.43c.89-1.25 1.66-2.64 2.15-4.09-.73.64-1.49 1.96-2.15 4.09m5.14-4.22-.11 1.9c.41 1.65.38 4.11-.4 7.01 1.69-2.87 1.67-6.91 3-10-.55 1.19-1.52 1.41-2.49 1.08Z" class="cls-159"/>
        <path d="M57.98 86.05v.03c.97.33 1.94.11 2.49-1.08-1.18-.04-2.34-.04-2.49 1.05m-.11 1.93-.4 7.01c.78-2.91.81-5.36.4-7.01" class="cls-159"/>
        <path d="M84.43 151.22c-.22.38-.5.77-.79 1.15.35-.3.7-.55 1.06-.76a1.3 1.3 0 0 1-.26-.39Z" class="cls-188"/>
        <path d="M84.69 151.61c.74-.44 1.48-.69 2.23-.75-.79-.48-.97-1.7-1.46-2.87-.04 1.05-.39 2.13-1.03 3.23.07.15.15.28.26.39m-3.03 2.89c.78-.72 1.43-1.43 1.97-2.13-.66.56-1.32 1.26-1.97 2.13" class="cls-188"/>
        <path d="M79.47 157.99c.98 1.18 7.71-6.22 8.99-6.99-1.7 1.27-3.11 1.29-3.77.62-.35.21-.71.46-1.06.76-.54.7-1.19 1.41-1.97 2.13.65-.87 1.31-1.57 1.97-2.13.3-.39.57-.77.79-1.15-.34-.76-.1-1.95 1.03-3.23-3.5 2.72-7 4.89-5.99 9.99Z" class="cls-188"/>
        <path d="M84.43 151.22c.65-1.1.99-2.17 1.03-3.23-1.13 1.28-1.38 2.47-1.03 3.23m4.04-.23c-.71.17-1.18.09-1.54-.13-.75.06-1.5.31-2.23.75.66.67 2.07.66 3.77-.62" class="cls-188"/>
        <path d="m124.46 215.99 6.97.86c-2.17-.49-4.49-.79-6.97-.86m13.42 4.87c.48-.35 1.03-.63 1.58-.87-.68-.41-1.39-.77-2.12-1.12.43.6.63 1.29.54 1.99" class="cls-178"/>
        <path d="M134.22 217.2c1.38.13 2.49.79 3.12 1.67.73.35 1.44.71 2.12 1.12-.18-.14.05-2.3-2.25-3.28-1.18-.5-10.91-1.01-12.75-.72 2.48.08 4.79.37 6.97.86zm2.24 5.79c1.25-.18 2.52 2.61 3-3-.55.24-1.1.52-1.58.87-.1.75-.54 1.51-1.42 2.13" class="cls-178"/>
        <path d="M136.46 222.99c.14-.92.7-1.6 1.42-2.13.09-.7-.11-1.39-.54-1.99-1.83-.87-3.8-1.54-5.91-2.02l-6.97-.86c5.06 3.91 12.19-1.33 12 7" class="cls-178"/>
        <path d="m134.22 217.2-2.79-.35c2.11.48 4.08 1.15 5.91 2.02-.63-.88-1.74-1.54-3.12-1.67m3.66 3.66c-.72.53-1.28 1.21-1.42 2.13.88-.62 1.32-1.37 1.42-2.13" class="cls-178"/>
        <path d="M130.06 252.57c-.87 3.14.3 3.37 3.4.42-1.39 1.08-2.67.65-3.4-.42" class="cls-186"/>
        <path d="M130.06 252.57c.73 1.07 2.01 1.51 3.4.42-.52-.23-1.74-2.26-4-3l1.12 1.01q-.33.87-.51 1.56Z" class="cls-186"/>
        <path d="M130.06 252.57c-.34-.51-.56-1.15-.61-1.85-.48 1.74-4.24 2.8-1.99 4.75 2.86 2.48 6.49 2.16 6-2.47-3.1 2.95-4.27 2.71-3.4-.42Z" class="cls-186"/>
        <path d="M129.46 250.71c.05.7.26 1.35.61 1.85q.195-.69.51-1.56l-1.12-1.01c.07.26.06.5 0 .72" class="cls-186"/>
        <path d="M387.44 208.99c-3.66-2.78-10.34.78-14-2-.53 1.34-2.77 1.59-4 1 .87.28.86.62 0 1q.21-.045.51-.09c5.49-1.05 11.32-1.03 17.49.09" class="cls-93"/>
        <path d="M369.44 207.99v1c.86-.38.87-.72 0-1" class="cls-93"/>
        <path d="M373.44 206.99c-1.43.25-3.04.87-4 1 1.23.59 3.47.34 4-1m-3.49 1.91c3.34-.47 14.58-.24 17.49.09-6.17-1.12-12-1.14-17.49-.09" class="cls-93"/>
        <path d="M147.13 155.08c-.19 0-.41-.03-.67-.09 1 .36 2.68 1.43 4 2-.64-1.01-1.75-1.64-3.33-1.91" class="cls-174"/>
        <path d="M150.95 152c-2.71-.96-2.26.94-2.6 2.16 1.59-.38 2.29.56 2.11 2.83 1.31-1.41 3.2-4.03.49-4.99" class="cls-174"/>
        <path d="M148.35 154.17c-.15.53-.45.93-1.22.91 1.58.27 2.69.9 3.33 1.91.19-2.26-.52-3.21-2.11-2.83Z" class="cls-174"/>
        <path d="M91.84 77.38c-.19.57-.62 1.14-1.37 1.62h3c-.83.01-1.37-.53-1.63-1.62" class="cls-141"/>
        <path d="M89.69 73.96c.18.11.24.31.18.61 1.07-.39 2.27.91 2.07 2.36.6.14 1.22.84 1.52 2.07-.15-3.45.12-5.02-3.77-5.03Z" class="cls-141"/>
        <path d="M91.94 76.93c-.02.15-.05.3-.1.45.26 1.09.8 1.63 1.63 1.62-.3-1.23-.92-1.92-1.52-2.07Zm-2.4-2.18c-.39-.25-.76-.5-1.07-.76v3c.21-1.2.61-1.9 1.07-2.24" class="cls-141"/>
        <path d="M89.87 74.57c.06-.3 0-.5-.18-.61-.37 0-.77 0-1.23.04.31.26.68.51 1.07.76.11-.08.22-.14.34-.18Zm-.2.57c.08-.07.18-.11.28-.14-.06-.03-.11-.06-.17-.1-.03.07-.07.16-.11.24m2.08 1.76c-.05-.32-.08-.66-.09-1.05-.44-.19-.83-.38-1.21-.58-.05 1.22.2 2.58.01 3.72.03-1.44.62-2.12 1.28-2.1Z" class="cls-141"/>
        <path d="M91.84 77.38q-.045-.225-.09-.48c-.66-.03-1.25.66-1.28 2.1.75-.48 1.18-1.05 1.37-1.62M89.94 75c.15-.04.31-.06.51 0v.27c.38.2.78.39 1.21.58 0 .39.04.73.09 1.05.06 0 .13.01.19.03.2-1.45-.99-2.75-2.07-2.36-.02.1-.05.21-.1.33.06.03.11.07.17.1" class="cls-141"/>
        <path d="M91.84 77.38c.05-.15.08-.3.1-.45a.6.6 0 0 0-.19-.03q.03.255.09.48m-2.3-2.63c-.46.34-.86 1.04-1.07 2.24.5-.7.75-1.51 1.2-1.85.04-.08.08-.16.11-.24z" class="cls-141"/>
        <path d="M89.78 74.9c.05-.12.08-.23.1-.33-.12.04-.23.1-.34.18z" class="cls-141"/>
        <path d="M170.57 177.59c-.04-1.89-1.07-3.09-3.11-3.6.83 1.59 2.36 3.45 3 5v-1.35s.08-.04.11-.05" class="cls-109"/>
        <path d="M170.83 177.45c3.94-2.13.56-5.8-3.37-3.46 2.88-.12 3.68 1.31 3.37 3.46" class="cls-109"/>
        <path d="M170.57 177.59c.09-.04.17-.09.26-.14.31-2.15-.49-3.58-3.37-3.46 2.04.5 3.07 1.71 3.11 3.6" class="cls-109"/>
        <path d="M85.47 86c-.19.73-.53 1.07-1 1 .08 1.23.19 2.51.3 3.77.02-1.65.21-3.26.7-4.77" class="cls-141"/>
        <path d="M84.47 87c-.28 2.89-.58 9.02 1 11-.38-2.32-.73-4.81-.7-7.22-.11-1.27-.22-2.54-.3-3.77Zm1-1c-.47.1-.96.55-1 1 .47.07.81-.27 1-1" class="cls-141"/>
        <path d="M85.47 86c-.5 1.51-.69 3.13-.7 4.77.2 2.36.42 4.75.7 7.22.24-3.95-.34-8.06 0-12Z" class="cls-141"/>
        <path d="M85.47 98c-.28-2.47-.51-4.87-.7-7.22-.03 2.42.33 4.9.7 7.22" class="cls-141"/>
        <path d="M83.92 188.44c-.7.39-1.85.57-3.45.56l5.99.99v-.98L84.47 188c-.12.17-.31.32-.55.44" class="cls-2"/>
        <path d="M80.47 188.99c1.62 0 2.77-.19 3.45-.56.23-.13.41-.27.55-.44-.69.36-2.14-.7-4 1" class="cls-2"/>
        <path d="M80.47 188.99c1.6.02 2.75-.17 3.45-.56-.68.36-1.83.55-3.45.56" class="cls-2"/>
        <path d="M109.46 51c1.37-.34 2.94.27 3.99-1.5-.24-1-2.07-.41-2.99-.49 1.65.45 1.32 1.11-1 2Z" class="cls-120"/>
        <path d="m110.46 49-1 2c1.05-.66 1.39-1.33 1-2" class="cls-120"/>
        <path d="M109.46 51c2.32-.89 2.65-1.55 1-2 .39.67.05 1.34-1 2" class="cls-120"/>
        <path d="m79.74 96.38.73-4.38c-.31 1.43-.65 2.76-1 4 .12.12.21.25.27.38" class="cls-118"/>
        <path d="M79.47 98c1.79-2.03.79-3.65 1-6l-.73 4.38c.2.44.12.98-.27 1.62m0-2c.35-1.24.69-2.57 1-4-1.5.69-.97 2.69-1 4" class="cls-118"/>
        <path d="M79.47 96c-.01.67 0 1.33 0 2l.27-1.62c-.06-.14-.15-.27-.27-.38m.27.38L79.47 98c.39-.64.47-1.17.27-1.62" class="cls-118"/>
        <path d="M85.47 190.99c-1.45-.4-3.61-.84-5 0 1.7.43 3.36.43 5 0" class="cls-2"/>
        <path d="M85.47 190.99c-1.58.53-3.25.53-5 0 1.48 1.38 3.81 1.82 5 0" class="cls-2"/>
        <path d="M85.47 190.99c-1.64.43-3.3.43-5 0 1.75.53 3.42.53 5 0" class="cls-2"/>
        <path d="M72.47 119.99c2.58-1.61.49-4.4 0-6q1.185 3.24 0 6" class="cls-94"/>
        <path d="M72.47 113.99v6q1.14-2.775 0-6" class="cls-94"/>
        <path d="M72.47 119.99q1.185-2.76 0-6 1.14 3.225 0 6" class="cls-94"/>
        <path d="M151.46 261.99c-.03-1.44.31-2.44 1-3-.8-1.16-1.13-.16-1 3" class="cls-91"/>
        <path d="M152.46 258.99c-.2-.07-.18-1.55-2-.99l1 3.99c-.13-3.16.2-4.16 1-3" class="cls-91"/>
        <path d="M152.46 258.99c-.69.56-1.03 1.56-1 3 1.07-.99 1.17-1.57 1-3" class="cls-91"/>
        <path d="M111.46 40c.52.26 2.63 2.45 2.99 2 .73-2.13-1.47-2.23-1.99-3 1.33 1.41.77 1.92-1 1" class="cls-63"/>
        <path d="m112.46 39-1 1c1.16-.06 1.49-.4 1-1" class="cls-63"/>
        <path d="M111.46 40c1.77.92 2.33.41 1-1 .49.6.16.93-1 1" class="cls-63"/>
        <path d="M32.07 257.89q.12-.525.39-.96v-1.94h-.98v2.25c.26.16.46.38.59.65"/>
        <path d="M32.07 257.89c-.13-.27-.33-.49-.59-.65v2.74h.54c-.1-.77-.09-1.48.06-2.09Z"/>
        <path d="M32.23 259.98h.23v-3.05q-.255.435-.39.96c.28.56.31 1.32.16 2.09"/>
        <path d="M32.07 257.89c-.15.61-.16 1.32-.06 2.09h.22c.15-.77.12-1.53-.16-2.09"/>
        <path d="M40.47 216.99c.2-.3 1.54-.1 1-1.99-1.87-.73-2.94.67-4 .99 2.12-.66 3.12-.32 3 1" class="cls-111"/>
        <path d="m37.47 215.99 3 1c.12-1.32-.88-1.65-3-1" class="cls-111"/>
        <path d="m71.47 74 1 3c.43-1.97.1-2.97-1-3" class="cls-129"/>
        <path d="M73.47 73.04c-.49.05-.99.07-1.51.06-.21.16-.37.43-.5.9 1.32-.54 1.65.46 1 3 .42-1.13 1.67-2.05 1-3.96Z" class="cls-129"/>
        <path d="M73.47 73.04V73c-.72-.11-1.18-.14-1.5.09.51 0 1.01-.01 1.51-.06Zm-2 .96c1.1.03 1.43 1.03 1 3 .65-2.54.32-3.54-1-3" class="cls-129"/>
        <path d="M144.95 239c-3.41-.93-4.31 3.23-2.49 3.99.69-1.16 1.03-1.75 1.03-1.75s-.34.58-1.03 1.75c.83 0 1.57.01 2.27.03 1.81-.78 2.46-3.41.22-4.02" class="cls-115"/>
        <path d="M144.73 243.02c-.7-.02-1.44-.03-2.27-.03.85.36 1.63.31 2.27.03" class="cls-115"/>
        <path d="M135.47 235.99c2.08 2.08 6.07-1.91 3.99-3.99s-6.07 1.91-3.99 3.99" style="fill:#151514"/>
        <path d="M129.46 228.99c.49-.07 2.21 1.6 4 0-1.31-.62-2.67-.6-4 0" class="cls-164"/>
        <path d="M129.46 228.99c.75-2.1 2.85-1.32 4 0-.11-.49-.19-.94-.27-1.37-.88-2.6-3.5-2.07-3.73 1.37" class="cls-164"/>
        <path d="M129.46 228.99c1.33-.6 2.69-.62 4 0-1.15-1.32-3.25-2.1-4 0m4 0c-.04-.53-.14-.98-.27-1.37.07.43.16.88.27 1.37" class="cls-164"/>
        <path d="M142.47 227.51c-.53 1.49.98 1.78 2.06 1.71.03-.82.09-1.65.21-2.51-.74-.61-1.72-.72-2.27.8" class="cls-67"/>
        <path d="M145.46 228.99c.53-.49.04-1.65-.72-2.28-.13.86-.19 1.69-.21 2.51.45-.03.82-.13.93-.23" class="cls-67"/>
        <path d="M136.14 258.15c-1.1.3-1.84 1.6-2.66 2.34 6.12 7.24 8.26-3.9 2.66-2.34" style="fill:#131312"/>
        <path d="M101.87 281.29c.66.76 1.96.99 3.1.74.49-1.8.92-3.06 1.51-3.74-.04-.06-.08-.12-.13-.18-.96-1.26-3.3-.67-4.37.62.19.83.14 1.74-.12 2.57Z" class="cls-112"/>
        <path d="M104.97 282.04c1.65-.35 2.95-1.67 1.51-3.74-.59.69-1.02 1.94-1.51 3.74m-3.5-1.57c.06.32.21.59.4.82.26-.83.31-1.74.12-2.57-.42.5-.65 1.1-.52 1.75" class="cls-112"/>
        <path d="M388.4 188.53c-.79-.53-2.22-5.6-3.53-7.47-2.08-2.99-3.48-2.67-5.43-4.07 1.95 1.65 1.87 2.98-1 3 1.28 1.82.12 3.1-3.49 3.84-.89 1.25-4.07 11.83-.33 10.21 5.5-1.18 34.04-3 36.95-.35.49.45.81 1.11.97 1.86.12-1.77 1.02-3.28 2.89-3.56-1.56.2-2.56-.46-3-2-2.65-.57-4.23-.85-7-1-.31 1.9-1.1 1.79-2 0-3.16-.16-13.32.7-15.04-.46Zm21.17 12.55c-16.29.45-1.5 7.12 6.32 5.87 8.1-1.29 9.99-5.7.44-5.13-2.01-.55-3.32-2.59-3.69-4.67-.15 1.92-1.19 3.83-3.07 3.93" class="cls-18"/>
        <path d="M405.44 188.99c-.66-.04-1.34.03-2 0 .9 1.79 1.69 1.9 2 0" class="cls-18"/>
        <path d="M412.55 195.55c.11.51.13 1.06.09 1.6.37 2.09 1.68 4.13 3.69 4.67 9.55-.57 7.66 3.84-.44 5.13-7.81 1.25-22.61-5.42-6.32-5.87 1.88-.1 2.92-2.01 3.07-3.93-.1-.54-.13-1.08-.09-1.6-.16-.75-.48-1.42-.97-1.86-2.92-2.65-31.46-.83-36.95.35-3.74 1.63-.56-8.96.33-10.21 3.61-.74 4.77-2.02 3.49-3.84-1.44 1.76-3.96 1.1-5.08 2.67-.97 1.37-3.35 11.2-2.51 12.37 2.99 2.31 6.66.03 10.04-.09 3.72-.12 28.52-1.02 29.54.05.14.14.14 3.85 0 3.99-.37.37-8.84-.6-9.93 2.63-2.88 8.54 23.97 10.48 24.02 1.88.05-8.15-13.14 2.92-9.1-11.51-1.87.27-2.77 1.79-2.89 3.56Z" class="cls-18"/>
        <path d="M412.64 197.15c.04-.55.02-1.09-.09-1.6-.04.52 0 1.06.09 1.6m2.8-5.16c-.28-.51-.44-1.12-.52-1.79-.51-.07-1.33.04-2.48-.21.44 1.54 1.44 2.2 3 2" class="cls-18"/>
        <path d="M414.92 190.2c.07.67.24 1.28.52 1.79.25-1.4.08-1.71-.52-1.79m-35.48-13.21c-1.1.5-.31 2.16-1 3 2.87-.02 2.95-1.35 1-3" class="cls-18"/>
        <path d="M399.24 209.9c-.21.09-.41.25-.59.45-.02.52.4 1.45-.21 2.64 4.24-2.13 7.12 6.47 7.28 10.53.84 21.1-33.4 31.23-49.96 24.54-2.63-1.06-6.16-2.95-7.36-5.45-.69.58-1.99-.14-2.96-2.62-.11 1.52.32 2.69 1 4l2.59.6c2.58 4.71 6.01 8.65 11.02 10.76 6.1 2.57 40.24 4.66 45.09 1.11 4.14-3.03 12.73-33.74 10.22-37.46a260 260 0 0 0-14.97-6.82l.04-2.18c-.55-.08-.93-.11-1.2-.09Zm-14.98 42.36c-7.05 3.21-17.81 5.27-23.81-.78 8.81.69 17.32.32 25.99-1.49.54 2.84-.75 1.61-2.18 2.27M406.44 235c-1.78 5.83-5.85 10.61-11.99 11.98-1.1-1.09 7.32-9.02 8.49-10 1.12-.94 1.63-2.43 3.5-1.99Z"/>
        <path d="M398.65 210.35c.18-.21.38-.36.59-.45-.44.03-.58.19-.59.45m16.71 8.64c2.51 3.72-6.08 34.43-10.22 37.46-4.85 3.55-38.99 1.46-45.09-1.11-5.01-2.11-8.44-6.05-11.02-10.76l-2.59-.6c4.15 8.05 9.42 13.49 18.76 14.74 7.58 1.02 26.35 1.94 33.78 1.3 7.01-.6 9.03-2.06 11.51-8.49 1.77-4.59 7.89-26.04 7.62-29.92-.56-7.93-8.39-6.93-12.88-8.92-1.7-.76-3.07-2.02-4.79-2.71l-.04 2.18c5.2 2.17 10.19 4.45 14.97 6.82Z"/>
        <path d="M348.41 242.61c1.2 2.5 4.73 4.39 7.36 5.45 16.56 6.7 50.79-3.44 49.96-24.54-.16-4.07-3.04-12.66-7.28-10.53 1.09.8 4.45 5.26 4.78 6.71 6.18 26.56-46.85 37.87-54.78 19.29.68 1.88.51 3.16-.04 3.62"/>
        <path d="M348.41 242.61c-.52-1.09-.6-2.3.04-3.62l-1.01 1.99c-1.46.32-.85-.58-1.13-1.84-.45-.01-.8.87-.86.85.97 2.47 2.27 3.2 2.96 2.62"/>
        <path d="M348.41 242.61c.55-.46.72-1.74.04-3.62-.64 1.31-.56 2.52-.04 3.62"/>
        <path d="M400.44 209.99c-.12-.05-.23-.09-.34-.14-.05-.02-.11-.02-.16-.03.16.05.32.1.5.16Zm-13.36-2.67c-4.4-.6-8.89-.48-13.64-.32 4.6-.19 9.15-.08 13.64.32m5.65 1.25c-1.81-.57-3.63-.97-5.46-1.23l.18 1.65c.43-1.3 2.85-1.09 5.29-.42Z" class="cls-141"/>
        <path d="M387.08 207.32c.06 0 .12 0 .18.01 1.83.27 3.65.67 5.46 1.24 1.55.42 3.1 1.03 4.15 1.55.25-.65 1.31-.84 3.06-.29.05 0 .1.01.16.03-12.5-4.99-12.95-5.3-26.66-2.86 4.74-.15 9.24-.28 13.64.32Z" class="cls-141"/>
        <path d="M396.85 210.2c-1.37-.67-2.74-1.2-4.12-1.63-2.44-.66-4.86-.87-5.29.42 2.79.31 8.84 2.41 11 4-1.26-1.17-1.76-2.17-1.6-2.79Z" class="cls-141"/>
        <path d="M396.88 210.12c-1.05-.52-2.6-1.13-4.15-1.55 1.37.43 2.74.97 4.12 1.63 0-.03.02-.05.03-.08m-9.44-1.13-.18-1.65c-.06 0-.12-.02-.19-.02-4.49-.4-9.03-.51-13.64-.32 3.66 2.78 10.34-.78 14 2Z" class="cls-141"/>
        <path d="M387.08 207.32c.06 0 .12.02.19.02-.06-.02-.12-.02-.18-.02Zm11.57 3.03c-.14.16-.28.34-.41.56-.09-.05-.18-.09-.27-.14l.46 2.21c.61-1.18.19-2.12.21-2.64Zm.59-.45c.27-.02.65 0 1.2.09-.17-.06-.34-.11-.5-.16-.25-.04-.48-.02-.7.07" class="cls-141"/>
        <path d="M397.98 210.78c.09.05.18.09.27.14.13-.22.26-.41.41-.56.01-.27.15-.42.59-.45.22-.09.45-.12.7-.07-1.76-.55-2.81-.36-3.06.29.49.25.89.48 1.1.66Z" class="cls-141"/>
        <path d="M396.85 210.2c-.17.63.33 1.63 1.6 2.79l-.46-2.21c-.38-.2-.76-.4-1.14-.58" class="cls-141"/>
        <path d="M397.98 210.78c-.22-.19-.61-.42-1.1-.66-.01.03-.02.05-.03.08.38.18.76.38 1.14.58Z" class="cls-141"/>
        <path d="m210.45 82.01-1.53.17c1.01-.04 1.66-.11 1.53-.17m-1.15-.12 1.15.12c-.09-.04-.52-.08-1.15-.12" class="cls-18"/>
        <path d="M179.46 140.99c15.51 15.78 43.74 12.72 55.8-5.7 12.25-18.7 3.1-47.15-18.8-53.3v1.99c-1.57.1-3.07-.4-4.49-.99l1.49-2c-.33-.04-.67.03-1 0-2.61-.24-6.35-.18-9 0-.99.07-2.02-.11-3 0l8.84.89c.63.03 1.06.07 1.15.12.12.06-.52.13-1.53.17l-7.45.83v.98c1.62.18 3.4-.21 4.99.01 11.08 1.51 21.07 7.09 25.87 17.63 2.81 6.17 4.01 8.38-3.08 10.67-15.2 4.9-33.49 6.5-48.78 12.32-8.52 1.54-4.75-16.1-2.8-20.9 1.79-4.41 8.74-12.27 12.79-14.71-.72-1.71-.74-3.55-3-3-18.03 11.04-23.37 36.17-10 53 .32.41 1.43 1.42 2 2Zm0-10.99c.57-.64 15.39-4.09 16.55-4.06 5.27.14 6.83 7.08 17.73 4.82 9-1.87 9.16-14.32 19.33-13.73 4.17.24.65 9.13-.41 11.65-7.01 16.62-29.98 21.81-44.88 12.5-1.95-1.22-10.48-8.75-8.31-11.19Z" class="cls-18"/>
        <path d="M274.77 132.17c36.74 15.09 54.16-34.71 24.68-57.18-1.98-.08-3.08.98-3 3 3.02 2.27 14.9 19.21 12 22-8.09.82-16.29 1.08-24.36 2.15-5.04.66-19.04 4.39-22.59 3.37-.59-.17-.93-1.48-1.05-1.51-.27-.07-2.84 1.49-3.99 1-.86-.94 2.2-11.68-1.01-13-2.96 16.06 3.53 33.69 19.32 40.18Zm-2.98-21.02c1.24.44 2.08 2.88 3.92 4.08 3.82 2.5 8.51 2.97 12.64 1.15 8.61-3.8 4.75-12.57 18.61-10.39 3.67.58 1.36 7.42.29 10.29-7.49 20.06-39.77 16.39-43.76-4.26 2.51-.65 5.76-1.78 8.32-.88Z" class="cls-94"/>
        <path d="M271.18 145.15c-1.78.26-4.6 2.62-6.75 3.32-7.07 2.3-16.03 4-23.43 4.56-5.29.4-10.97-3.25-9.35 4.25 1.42 6.57 12.02 13.19 18.45 13.64 7.93.56 17.01-6.27 20.79-12.99 1.61-2.87 6.64-13.7.29-12.78" class="cls-18"/>
        <path d="M258.44 92.65c-.92 5.11-.25 8.89 2.02 11.35-4.14-22.45 15.36-41.55 36-26-3.23-3.04-.64-5.01 3-3-18.65-14.22-39.78-5.91-44 17 1.39-.56 2.63-.75 2.98.65" class="cls-4"/>
        <path d="M296.45 78c-.08-2.02 1.02-3.08 3-3-3.64-2.01-6.23-.04-3 3m-39.99 26.99c1.15.49 3.73-1.07 3.99-1-2.26-2.46-2.94-6.24-2.02-11.35-.35-1.4-1.59-1.21-2.98-.65 3.2 1.31.14 12.06 1.01 13" class="cls-4"/>
        <path d="M199.52 42.57c3.93-.78 9.55-2.57 13.44-2.57 4.67 0 10.54 2.59 15.5 1.98-5.58-6.85-18.91-5.9-26.53-3.02-2.33.88-7.74 4.66-2.4 3.61Z" class="cls-71"/>
        <path d="M190.46 89c4.62-2.78 10.95-3.5 16-5-2.29.48-8.41 1.44-6.1-1.91.07-.1.64-.16 1.46-.21-.99-.19-1.59-.47-1.36-.88-5.28.6-8.65 2.34-13 5 3.42-1.8 5.87.04 3 3" class="cls-141"/>
        <path d="M201.82 81.87c2.02-.11 5.63-.08 7.48.02l-8.84-.89c-.23.41.37.69 1.36.88Z" class="cls-141"/>
        <path d="M201.82 81.87c1.87.35 5.16.38 7.1.3l1.53-.17-1.15-.12c-1.85-.1-5.46-.13-7.48-.02Z" class="cls-141"/>
        <path d="M201.82 81.87c-.83.04-1.4.11-1.46.21-2.31 3.35 3.81 2.39 6.1 1.91-1.59-.22-3.38.17-4.99-.01V83l7.45-.83c-1.94.08-5.23.05-7.1-.3M190.46 89c2.87-2.96.42-4.8-3-3 2.25-.55 2.28 1.29 3 3" class="cls-141"/>
        <path d="m207.48 54.5 13.97 1.5c-1.62-6.01-10.29-5.54-13.97-1.5" style="fill:#232424"/>
        <path d="M269.05 235.08c-2.68.83-1.53 4.27.28 5.45q1.935-1.02 3.87-2.07c.52-2.07-.59-4.5-4.16-3.39Z" class="cls-122"/>
        <path d="M270.82 240.92c1.25-.2 2.09-1.27 2.39-2.46-1.29.69-2.58 1.39-3.87 2.07.47.31.98.47 1.48.39" class="cls-122"/>
        <path d="M243.43 59.5c-.11-2.2-7.71-3.14-8.97-1.49-2.52 3.3 9.11 4.21 8.97 1.49" style="fill:#201f1f"/>
        <path d="M249.06 241.08c-3.88 1.2-.49 7.18 3.42 4.44 2.61-1.83.29-5.58-3.42-4.44" class="cls-49"/>
        <path d="M200.45 59.01c-1.49-1.66-8.91 1.09-8.97 2.49-.14 3 11.11-.12 8.97-2.49" class="cls-192"/>
        <path d="M294.45 211.47c.91 3.56 8.17.12 4.75-3.24-2.34-2.3-5.42.64-4.75 3.24" style="fill:#111"/>
        <path d="M237.09 240.07c-3.82.65-2.37 6.38.73 5.85 3.82-.65 2.37-6.38-.73-5.85" class="cls-20"/>
        <path d="M275.96 228c-1.43.44-2.07 4.11-1.49 4.97.4.58 4.57.58 4.95 0 1.02-1.54-.38-5.92-3.47-4.97Z" class="cls-88"/>
        <path d="M284.94 221c-3.28-.98-4.4 3.76-3.46 4.96 2.48 3.17 7.67-3.7 3.46-4.96" class="cls-71"/>
        <path d="M233.32 249.7c-2.42-6.47-7.93.99-3.2 2.93.42.06.87.18 1.34.36l-.72-2.13.72 2.13c.96-1.09 2.78-.83 1.86-3.29" class="cls-35"/>
        <path d="M231.45 252.99c-.47-.18-.92-.29-1.34-.36.38.16.82.28 1.34.36" class="cls-35"/>
        <path d="M320.73 190.16c-.09.26-.18.53-.29.83.15-.29.23-.57.29-.83" class="cls-132"/>
        <path d="M314.72 189.47c-.34 2.87 3.01 2.95 4.77 2.23.31-.25.63-.49.96-.71-.2-.94-.32-1.9-.4-2.87-1.56-1.34-5.04-1.08-5.33 1.35" class="cls-132"/>
        <path d="M320.05 188.12c.08.97.2 1.93.4 2.87.1-.3.2-.57.29-.83.18-.87-.13-1.56-.69-2.04m.4 2.87c-.33.22-.65.45-.96.71.47-.19.83-.44.96-.71" class="cls-132"/>
        <path d="M262.97 227c-2.43.52-1.99 6.64.97 5.99 3.76-.82 2.02-6.63-.97-5.99" class="cls-127"/>
        <path d="M242.96 234c-2.82.8-1.13 4.97.99 5.97 3.59-1.82 3.04-7.11-.99-5.97" class="cls-20"/>
        <path d="M268.97 220.99c-3.89 1.03.06 8.92 4.46 2.5-1.09-1.27-2.53-3.01-4.46-2.5" style="fill:#171716"/>
        <path d="M301.45 201c-.17 1.47-.16 4.48 1.51 4.98 4.55 1.39 5.09-6.64-1.51-4.98" class="cls-187"/>
        <path d="M255.46 239.99c2.49 1.71 5.38-3.07 3.96-4.97-2.35-3.14-6.83 3-3.96 4.97" class="cls-80"/>
        <path d="M288.93 214.97c-3.74 5.53 6.97 6.11 3.51-.97-1.4-.05-2.6-.37-3.51.97" class="cls-146"/>
        <path d="M224.94 241c-4-1.12-3.63 4.18-2.48 4.99 2.81 1.98 6.04-3.99 2.48-4.99" style="fill:#191918"/>
        <path d="M274.46 217.48c.99 3.56 6.96.32 4.99-2.48-.81-1.14-6.1-1.51-4.99 2.48" style="fill:#222121"/>
        <path d="M304.94 187c-4-1.12-3.63 4.18-2.48 4.99 2.81 1.98 6.04-3.99 2.48-4.99" style="fill:#373737"/>
        <path d="M308.45 194c-.61.58.02 5.6 2.48 4.99 5.32-1.33.18-7.53-2.48-4.99" class="cls-190"/>
        <path d="M229.97 234c-2.55.58-1.91 6.03 1.97 4.98 3.13-.84.14-5.47-1.97-4.98" class="cls-113"/>
        <path d="M248.92 232.02c.74 1.31 2.66.37 3.3-.28 4.39-4.47-7.2-6.63-3.3.28" class="cls-97"/>
        <path d="M216.97 238.98c3.78 1.49 3.19-4.51 2.48-4.99-2.66-1.79-6.15 3.54-2.48 4.99" class="cls-20"/>
        <path d="M208.46 244.99c1.13 1.5 5.5-.04 4.99-2.48-.74-3.53-7.12-.35-4.99 2.48" style="fill:#101010"/>
        <path d="M122.97 155.98c3.72 1.4 2.75-4.72 2.49-4.99-2.03-2.01-6.49 3.48-2.49 4.99" style="fill:#161615"/>
        <path d="M271.45 57c-1.73-.7-6.95.72-6.97 2.49-.03 2.51 7.89.45 6.97-2.49" style="fill:#252525"/>
        <path d="M222.46 231.99c2.83 2.13 6.01-4.25 2.48-4.99-2.44-.51-3.98 3.86-2.48 4.99" style="fill:#141414"/>
        <path d="M230.95 225.97c2.26.01 3.85-6.27-.99-4.97-2.99.81-.18 4.96.99 4.97" class="cls-61"/>
        <path d="M243.95 225.97c2.26.01 3.85-6.27-.99-4.97-2.99.81-.18 4.96.99 4.97" class="cls-136"/>
        <path d="M208.46 227.99c-1.37 1.92 2.03 5.37 3.99 3.99 2.66-1.87-2.08-6.67-3.99-3.99" class="cls-23"/>
        <path d="M203.97 233.99c-3.57.8-1.63 5.58.97 4.99 2.45-.56 1.74-5.6-.97-4.99" class="cls-15"/>
        <path d="M263.94 218.99c2.45-.55 1.74-5.6-.97-4.99-2.45.55-1.74 5.6.97 4.99" style="fill:#393839"/>
        <path d="M257.94 224.98c2.61-.7 1.42-4.9-1.98-3.98-2.61.7-1.42 4.9 1.98 3.98" class="cls-88"/>
        <path d="M284.94 211.98c2.61-.7 1.42-4.9-1.98-3.98-2.61.7-1.42 4.9 1.98 3.98" class="cls-71"/>
        <path d="M187.45 70c-2.67-.16-6.23-.51-5.99 2.99 2.67.16 6.23.51 5.99-2.99" class="cls-138"/>
        <path d="M204.94 211.99c2.45-.55 1.74-5.6-.97-4.99-2.45.55-1.74 5.6.97 4.99" class="cls-29"/>
        <path d="M296.96 194c-2.45.55-1.74 5.6.97 4.99 2.45-.55 1.74-5.6-.97-4.99" style="fill:#222221"/>
        <path d="M197.94 204.99c2.45-.55 1.74-5.6-.97-4.99-2.45.55-1.74 5.6.97 4.99" style="fill:#2c2c2d"/>
        <path d="M192.46 234c-2.34-1.69-6 3.03-2.49 3.98 3.51.96 3.68-3.13 2.49-3.98" style="fill:#212120"/>
        <path d="M125.45 125.5c-.95-3.51-5.68.15-3.98 2.49.86 1.19 4.94 1.02 3.98-2.49" class="cls-114"/>
        <path d="M190.96 220.01c-1.18 0-3.98 4.31-.99 4.97 3.22.72 3.9-4.97.99-4.97" style="fill:#1f1f1f"/>
        <path d="M202.45 224.99c2.34 1.69 6-3.03 2.49-3.98-3.51-.96-3.68 3.13-2.49 3.98" class="cls-32"/>
        <path d="M290.95 205.97c1.49-.47 2.06-4.41 1.49-4.97-1.67-1.67-6.63 2.27-1.49 4.97" style="fill:#151413"/>
        <path d="M236.96 231.98c3.44 1.29 2.91-3.56 2.49-3.99-2.3-2.3-6.76 2.39-2.49 3.99" style="fill:#0c0c0c"/>
        <path d="M192.46 207c-2.34-1.69-6 3.03-2.49 3.98 3.51.96 3.68-3.13 2.49-3.98" style="fill:#252526"/>
        <path d="M130.95 145c-3.45-1.28-2.91 3.55-2.48 3.98 1.64 1.65 6.34-2.55 2.48-3.98" class="cls-156"/>
        <path d="M184.95 227c-3.45-1.28-2.91 3.55-2.48 3.98 1.64 1.65 6.34-2.55 2.48-3.98" style="fill:#242423"/>
        <path d="M195.47 230.48c1.43 3.85 5.63-.84 3.98-2.48-.43-.43-5.26-.96-3.98 2.48" class="cls-127"/>
        <path d="M242.46 210.48c1.43 3.85 5.63-.84 3.98-2.48-.43-.43-5.26-.96-3.98 2.48" class="cls-171"/>
        <path d="M268.46 210.48c1.43 3.85 5.63-.84 3.98-2.48-.43-.43-5.26-.96-3.98 2.48" class="cls-158"/>
        <path d="M135.97 141.98c3.45 1.28 2.91-3.55 2.48-3.98-1.64-1.65-6.34 2.55-2.48 3.98" style="fill:#323231"/>
        <path d="M122.97 141.98c3.45 1.28 2.91-3.55 2.48-3.98-1.64-1.65-6.34 2.55-2.48 3.98" style="fill:#111011"/>
        <path d="M215.46 223.48c.48 1.33 3.4 2.09 3.99 1.5 2.64-2.67-5.92-6.81-3.99-1.5" class="cls-146"/>
        <path d="M277.94 201c-3.45-1.28-2.91 3.55-2.48 3.98 1.64 1.65 6.34-2.55 2.48-3.98" style="fill:#313132"/>
        <path d="M115.97 134.98c3.45 1.28 2.91-3.55 2.48-3.98-1.64-1.65-6.34 2.55-2.48 3.98" style="fill:#2b2a29"/>
        <path d="M215.47 250.48c1.43 3.85 5.63-.84 3.98-2.48-.43-.43-5.27-.96-3.98 2.48" class="cls-113"/>
        <path d="M110.95 124c-2.91-1.08-2.98 2.2-2.67 3.5.25.26.5.52.75.79 1.92.54 5.41-3 1.93-4.29Z" class="cls-156"/>
        <path d="M109.03 128.3c-.25-.27-.49-.53-.75-.79.06.24.12.42.19.49.16.16.35.25.56.31Z" class="cls-156"/>
        <path d="M248.46 217.99c.73.73 4.45-.37 3.99-2.48-.81-3.7-5.92.55-3.99 2.48" style="fill:#292928"/>
        <path d="M222.46 217.99c.73.73 4.45-.37 3.99-2.48-.81-3.7-5.92.55-3.99 2.48" style="fill:#1d1d1d"/>
        <path d="M212.44 213.99c-3.44-2.45-4.94 5.57-.5 3.99 1.6-.57 1.13-3.53.5-3.99" style="fill:#292829"/>
        <path d="M308.45 183.48c.81 3.7 5.92-.55 3.99-2.48-.73-.73-4.45.37-3.99 2.48" style="fill:#1e1d1d"/>
        <path d="M141.47 132.51c-.46 2.11 3.26 3.21 3.99 2.48 1.93-1.93-3.18-6.18-3.99-2.48" style="fill:#3e3e3e"/>
        <path d="M202.46 194c-1.93 1.93 3.18 6.18 3.99 2.48.46-2.11-3.26-3.21-3.99-2.48m-27 15.48c.81 3.7 5.92-.55 3.99-2.48-.73-.73-4.45.37-3.99 2.48" class="cls-77"/>
        <path d="M141.47 145c-1.93 1.93 3.18 6.18 3.99 2.48.46-2.11-3.26-3.21-3.99-2.48" class="cls-92"/>
        <path d="M169.97 159c-2.36.52-1.47 4.53.97 3.99 2.36-.52 1.47-4.53-.97-3.99" style="fill:#3f3f3f"/>
        <path d="M177.94 169.99c2.36-.52 1.47-4.53-.97-3.99-2.36.52-1.47 4.53.97 3.99" style="fill:#353535"/>
        <path d="M217.94 197.99c2.36-.52 1.47-4.53-.97-3.99-2.36.52-1.47 4.53.97 3.99" class="cls-11"/>
        <path d="M317.93 177.99c2.36-.52 1.47-4.53-.97-3.99-2.36.52-1.47 4.53.97 3.99m-125.48 20c.62-.49 1.12-3.41-.5-3.98-4.85-1.72-1.74 5.76.5 3.98" class="cls-23"/>
        <path d="M176.97 220c-2.36.52-1.47 4.53.97 3.99 2.36-.52 1.47-4.53-.97-3.99" style="fill:#191817"/>
        <path d="M177.94 183.99c2.36-.52 1.47-4.53-.97-3.99-2.36.52-1.47 4.53.97 3.99" class="cls-83"/>
        <path d="M162.47 220.5c-1.72 4.85 5.76 1.74 3.98-.5-.49-.62-3.41-1.12-3.98.5" style="fill:#282928"/>
        <path d="M169.47 217.98c1.6 1.26 4.13-2.85 2.99-3.99-1.74-1.74-5.31 2.15-2.99 3.99" class="cls-122"/>
        <path d="M196.97 214c-2.36.52-1.47 4.53.97 3.99 2.36-.52 1.47-4.53-.97-3.99" style="fill:#1c1b1a"/>
        <path d="M122.47 114.99c1.6 1.26 4.13-2.85 2.99-3.99-1.74-1.74-5.31 2.15-2.99 3.99" class="cls-22"/>
        <path d="M197.94 190.99c2.36-.52 1.47-4.53-.97-3.99-2.36.52-1.47 4.53.97 3.99" class="cls-76"/>
        <path d="M235.46 217.98c1.84 2.33 5.72-1.25 3.99-2.99-1.14-1.14-5.25 1.39-3.99 2.99" class="cls-158"/>
        <path d="M288.47 189.49c0 1.03 3.36 2.11 3.97 1.49 2.59-2.59-3.97-5.37-3.97-1.49" style="fill:#1c1b1b"/>
        <path d="M182.46 187c-2.59 2.59 3.97 5.37 3.97 1.49 0-1.03-3.36-2.11-3.97-1.49" class="cls-171"/>
        <path d="M128.47 134.99c2.59 2.59 5.37-3.97 1.49-3.97-1.03 0-2.11 3.36-1.49 3.97" class="cls-192"/>
        <path d="M149.98 141.99c2.62.57 2.32-3.32 1.48-3.99-1.81-1.44-4.57 3.31-1.48 3.99" class="cls-29"/>
        <path d="M221.46 255.98c1.87.12 4.39.29 4.99-1.98-2.78-.91-4.99-1.7-4.99 1.98" style="fill:#515152"/>
        <path d="M163.94 152h-1.48v3.99h2.99c.23-1.84.06-2.94-1.51-3.99" class="cls-24"/>
        <path d="M226.43 202.49c0-1.03-3.36-2.11-3.97-1.49-2.59 2.59 3.97 5.37 3.97 1.49" class="cls-75"/>
        <path d="M213.44 202.49c0-1.03-3.36-2.11-3.97-1.49-2.59 2.59 3.97 5.37 3.97 1.49" style="fill:#0e0d0c"/>
        <path d="M115.97 120.98c2.95 1.06 3.23-2.23 2.48-2.98-1.31-1.32-5.93 1.74-2.48 2.98" style="fill:#191818"/>
        <path d="M285.44 197.99c1.32-1.31-1.74-5.93-2.98-2.48-1.06 2.95 2.23 3.23 2.98 2.48" class="cls-68"/>
        <path d="M232.45 194c-.75-.75-4.05-.46-2.98 2.48 1.24 3.45 4.3-1.17 2.98-2.48" class="cls-136"/>
        <path d="M125.46 98h-3.99c.02 3.98 3.99 3.93 3.99 0" class="cls-11"/>
        <path d="M135.97 127.98c2.95 1.06 3.23-2.23 2.48-2.98-1.31-1.32-5.93 1.74-2.48 2.98" class="cls-184"/>
        <path d="M212.45 190.99c1.32-1.31-1.74-5.93-2.98-2.48-1.06 2.95 2.23 3.23 2.98 2.48" class="cls-158"/>
        <path d="M309.45 167v3.99c3.93 0 3.98-3.97 0-3.99" style="fill:#404042"/>
        <path d="M179.45 194h-3.99c.02 3.98 3.99 3.93 3.99 0" class="cls-61"/>
        <path d="M229.46 210.48c1.24 3.45 4.3-1.17 2.98-2.48-.75-.75-4.05-.46-2.98 2.48" style="fill:#131212"/>
        <path d="M216.97 210.98c2.95 1.06 3.23-2.23 2.48-2.98-1.31-1.32-5.93 1.74-2.48 2.98" style="fill:#11100f"/>
        <path d="M184.95 201c-2.95-1.06-3.23 2.23-2.48 2.98 1.31 1.32 5.93-1.74 2.48-2.98" class="cls-192"/>
        <path d="M155.47 145v3.99c3.93 0 3.98-3.97 0-3.99" class="cls-138"/>
        <path d="M239.45 201c-.75-.75-4.05-.46-2.98 2.48 1.24 3.45 4.3-1.17 2.98-2.48" class="cls-190"/>
        <path d="M297.94 181c-2.95-1.06-3.23 2.23-2.48 2.98 1.31 1.32 5.93-1.74 2.48-2.98" style="fill:#2c2c2b"/>
        <path d="M190.96 183.97c2.98.03.28-5.88-1.49-3.97-.62.67.47 3.96 1.49 3.97" style="fill:#282728"/>
        <path d="M179.44 154.49c-.01-1.03-3.31-2.11-3.97-1.49-1.91 1.77 4 4.48 3.97 1.49" style="fill:#504f50"/>
        <path d="M258.45 208c-1.59-1.59-4.58 1.4-2.99 2.99s4.58-1.4 2.99-2.99" class="cls-32"/>
        <path d="M212.46 81c-1.86-1.68-7.14-1.68-9 0 2.89-.97 6.11-.99 9 0" class="cls-141"/>
        <path d="M212.46 81c-2.89-.99-6.11-.97-9 0 2.65-.18 6.38-.24 9 0m4 1c-.88-.25-1.19-.78-3-1 .86 1.64 1.86 1.97 3 1" class="cls-141"/>
        <path d="M216.45 83.99V82c-1.14.97-2.14.64-2.99-1l-1.49 2c1.42.59 2.92 1.1 4.49.99Z" class="cls-141"/>
        <path d="M325.44 170.99c.62-.67-.47-3.96-1.49-3.97-2.98-.03-.28 5.88 1.49 3.97" class="cls-171"/>
        <path d="M225.45 190.99c.62-.67-.47-3.96-1.49-3.97-2.98-.03-.28 5.88 1.49 3.97" class="cls-149"/>
        <path d="M303.95 177.97c1.03-.01 2.11-3.31 1.49-3.97-1.77-1.91-4.48 4-1.49 3.97" style="fill:#313030"/>
        <path d="M182.46 216.99c1.59 1.59 4.58-1.4 2.99-2.99s-4.58 1.4-2.99 2.99" class="cls-187"/>
        <path d="M183.96 173.01c-2.98-.03-.28 5.88 1.49 3.97.62-.67-.47-3.96-1.49-3.97" class="cls-122"/>
        <path d="M131.46 118c-1.59-1.59-4.58 1.4-2.99 2.99s4.58-1.4 2.99-2.99" class="cls-77"/>
        <path d="M136.96 111.02c-1.7-.02-1.77 3.94 0 3.96 1.7.02 1.77-3.94 0-3.96" class="cls-117"/>
        <path d="M129.98 107.99c2.12.81 1.77-2.69 1.48-2.98-1.74-1.74-5.1 1.6-1.48 2.98" class="cls-14"/>
        <path d="M149.98 127.98c2.12.81 1.77-2.69 1.48-2.98-1.74-1.74-5.1 1.6-1.48 2.98" class="cls-76"/>
        <path d="M169.46 148.99c.94 1.07 4.06-2.03 2.99-2.99-1.69-1.5-4.5 1.28-2.99 2.99" style="fill:#2a2929"/>
        <path d="M189.46 169.99c.94 1.07 4.06-2.03 2.99-2.99-1.69-1.5-4.5 1.28-2.99 2.99" class="cls-172"/>
        <path d="M199.45 174c-1.69-1.5-4.5 1.28-2.99 2.99.94 1.07 4.06-2.03 2.99-2.99" class="cls-196"/>
        <path d="M265.45 203.99c1.07-.96-2.05-4.06-2.99-2.99-1.51 1.71 1.3 4.49 2.99 2.99" style="fill:#464647"/>
        <path d="M249.46 201c-1.51 1.71 1.3 4.49 2.99 2.99 1.07-.96-2.05-4.06-2.99-2.99" style="fill:#3a393b"/>
        <path d="M143.95 118c-2.11-.76-1.82 2.62-1.48 2.99.97 1.05 4.57-1.88 1.48-2.99" style="fill:#363637"/>
        <path d="M136.95 98.01c-2.11-.76-1.82 2.62-1.48 2.99.97 1.05 4.57-1.88 1.48-2.99" style="fill:#3b3c3b"/>
        <path d="M290.93 174c-2.11-.76-1.82 2.62-1.48 2.99.97 1.05 4.57-1.88 1.48-2.99" style="fill:#454545"/>
        <path d="M129.98 93.99c2.11.76 1.82-2.62 1.48-2.99-.97-1.05-4.57 1.88-1.48 2.99" class="cls-14"/>
        <path d="M163.94 139c-2.11-.76-1.82 2.62-1.48 2.99.97 1.05 4.57-1.88 1.48-2.99" style="fill:#403f40"/>
        <path d="M305.44 161c-.37-.34-3.74-.63-2.98 1.48 1.11 3.09 4.03-.51 2.98-1.48" class="cls-22"/>
        <path d="M185.45 160c-.37-.34-3.74-.63-2.98 1.48 1.11 3.09 4.03-.51 2.98-1.48" class="cls-75"/>
        <path d="M197.94 241c-2.11-.76-1.82 2.62-1.48 2.99.97 1.05 4.57-1.88 1.48-2.99" style="fill:#414040"/>
        <path d="M316.45 161h1.99v2.99h-1.99z" style="fill:#343435"/>
        <path d="M177.46 138.99c-2.13 2.92-.92 4.13 2 2-1.81.72-2.72-.2-2-2" class="cls-36"/>
        <path d="M177.46 138.99c-.72 1.8.19 2.72 2 2-.57-.58-1.68-1.59-2-2" class="cls-36"/>
        <path d="M129.47 78h1.99v2.99h-1.99z" style="fill:#7c7c7d"/>
        <path d="M155.47 132c-1.51 1.51 2.97 4.26 2.97 1.49 0-.66-2.4-2.07-2.97-1.49" class="cls-184"/>
        <path d="M142.47 105h1.99v2.99h-1.99z" style="fill:#020101"/>
        <path d="M205.45 181c-1.51-1.51-4.26 2.97-1.49 2.97.66 0 2.07-2.4 1.49-2.97" style="fill:#201f1e"/>
        <path d="M216.46 181h1.99v2.99h-1.99z" style="fill:#040303"/>
        <path d="M285.44 181c-1.51-1.51-4.26 2.97-1.49 2.97.66 0 2.07-2.4 1.49-2.97" style="fill:#5d5d5d"/>
        <path d="M210.96 176.97c1.5 0 1.5-2.96 0-2.96s-1.5 2.96 0 2.96" class="cls-94"/>
        <path d="M151.45 112c-1.38-.31-2.66.54-2.99 1.98h2.99z" style="fill:#090a09"/>
        <path d="M68.49 250.71v.05zm2.98-7.72c-.51 1.25-1.95 1.87-2 2-.08.21-.57 2.63-1 4-.09.3.09.69 0 1 .37.59 1.93 1.62 2 2 4.02-.02 8.88-2.77 6-7-2.54.45-3.12-2.05-5-2" style="fill:#232221"/>
        <path d="M71.47 242.99c1.73-2.4 4.54-.53 5 2 4.19-.74 8.63-4.88 4.02-7.56-1.26-.73-4.75 3.67-9.02 3.56-.12.61.18 1.56 0 2" class="cls-73"/>
        <path d="M71.47 242.99c1.88-.05 2.46 2.45 5 2-.46-2.53-3.27-4.4-5-2" class="cls-73"/>
        <path d="M68.47 250.48c-.02-.17-.04-.34 0-.49-.87-.27-.85-.61 0-1l-9.54-2.97-4.45.98 3.52 3.99c3.76-2.56 3.21-1.45 6.47.99.43-.39 3.12-.56 4-1v-.51Z" class="cls-35"/>
        <path d="M68.47 249.99c.09-.31-.09-.7 0-1-.85.39-.87.73 0 1" class="cls-35"/>
        <path d="M54.47 240c2.38 3.54 8.34 3.18 12 3.99 1.67.18 3.55-.96 5-1-2.61-.38-2.47-1.1 0-2-3.18-.08-6.19-.06-9.39-.09-2.18-.02-5.01-1.62-7.6-.9Z" class="cls-80"/>
        <path d="M71.47 242.99c.18-.44-.12-1.39 0-2-2.47.9-2.61 1.62 0 2" class="cls-80"/>
        <path d="M68.47 263.99c3.04-.52 9.36-1.84 6.85-5.85-1.29-2.06-5.36-.39-6.85-.14-.26 1.85.18 4.07 0 6Z" class="cls-188"/>
        <path d="M63.3 259.12c.06-.05.11-.08.17-.14-.05.02-.11.07-.17.14" class="cls-69"/>
        <path d="M64.47 251.99c-.3.27-2.1 5.08-3 6 .61.34 1.12 1.01 2 1 .94-.33 2.04-.69 3-1 .35-2.42 1.33-4.68 2-7-1.46 2.94-2.79 3.27-4 1" class="cls-69"/>
        <path d="M68.47 250.99c-.88.44-3.57.61-4 1 1.21 2.27 2.54 1.94 4-1" class="cls-69"/>
        <path d="M75.93 251.95c-3.19 4.69 4.01 6.16 5.52 4.02 1.46-2.06-3.34-7.23-5.52-4.02" style="fill:#111010"/>
        <path d="M84.9 250.95c.37-.08 3.54-3.22 3.55-3.46.04-1.21-3.56-2.99-5.4-2.45-3.13.93-.21 6.38 1.85 5.91" class="cls-186"/>
        <path d="M94.36 242.89c3.12-4.96-6.98-7.41-4.84-.47.67 2.16 4.38 1.2 4.84.47" style="fill:#202121"/>
        <path d="M99.9 209.93c3.09-.96.44-5.25-1.8-4.86-.71.12-1.26.46-1.66.91a39 39 0 0 0-.35 3.2c.58.87 1.81 1.37 3.81.74Z" class="cls-199"/>
        <path d="M96.09 209.19c.07-1.07.19-2.14.35-3.2-.82.91-.97 2.27-.35 3.2" class="cls-199"/>
        <path d="M100.45 223.99c3.46-7.09-7.25-6.51-3.51-.97.91 1.35 2.11 1.02 3.51.97" class="cls-97"/>
        <path d="m105.98 228.72 1.49 1.27c-.64-3.69-5.83-1.42-1.49-1.27" class="cls-200"/>
        <path d="M102.47 227.5c-1.32 3.14 3.35 3.72 4.68 2.83.11-.1.22-.22.31-.34l-1.49-1.27c-4.35-.15.84-2.43 1.49 1.27.17-.67.29-1.36.4-2.06-.16-2.98-4.46-2.65-5.39-.44Z" class="cls-200"/>
        <path d="M107.86 227.93c-.1.7-.23 1.39-.4 2.06.32-.82.43-1.49.4-2.06m-.4 2.06c-.1.12-.2.24-.31.34.15-.1.26-.21.31-.34" class="cls-200"/>
        <path d="M107.46 216.99c2.54-2.66-3.66-7.8-4.99-2.48-.62 2.46 4.41 3.09 4.99 2.48" class="cls-113"/>
        <path d="M100.46 231.99c-2.81-1.98-6.04 3.99-2.48 4.99.92.26 1.6.16 2.1-.13l.97-1.32c.41-1.34.03-3.1-.6-3.54Z"/>
        <path d="m101.05 235.53-.97 1.32c.49-.29.8-.76.97-1.32"/>
        <path d="M69.03 252.58c.04 1.92-1.33 4.55-2.56 5.41.49-.16 1.37.11 2 0 .27-1.94 2.23-4.8 2-6-.63.66-1.11.85-1.44.59m-.54-1.87c-.01-.23-.02-.46-.02-.72v.49c0 .08.02.15.02.23m.02.34c0-.09-.01-.19-.02-.28 0 .08 0 .15-.02.23.02.02.03.04.04.06Z" class="cls-168"/>
        <path d="M68.47 249.99c0 .27.01.5.02.72v.05c0 .1.01.19.02.28.34.39.5.93.52 1.54.33.26.81.07 1.44-.59-.07-.38-1.63-1.41-2-2" class="cls-168"/>
        <path d="M68.47 250.48v-.49c-.04.15-.02.32 0 .49m.56 2.1c-.27-.21-.44-.72-.52-1.54-.02-.02-.03-.04-.04-.06-.67 2.32-1.65 4.58-2 7 1.23-.86 2.6-3.48 2.56-5.41Z" class="cls-168"/>
        <path d="M69.03 252.58c-.01-.61-.17-1.14-.52-1.54.07.82.25 1.33.52 1.54" class="cls-168"/>
        <path d="M75.46 233c-1.96-1.82-5.79 2.04-4.99 2.98 2.22 2.64 7.04-1.09 4.99-2.98" class="cls-29"/>
        <path d="M82.36 227.1c-.11-.17-3.58-1.45-3.89-1.1v3.99c2.6.54 5.67 0 3.89-2.89" class="cls-162"/>
        <path d="M61.47 257.99c-.56-.31-1.1-.05-2-1l-1 3c2.89 2.81 4.18-.17 4.83-.86-1.49 1.25-2.52.9-1.83-1.14" class="cls-96"/>
        <path d="M63.3 259.12c.06-.06.12-.12.17-.14-.88 0-1.39-.66-2-1-.69 2.04.34 2.38 1.83 1.14" class="cls-96"/>
        <path d="M59.47 256.99c-.69-.72-1.07-4.87-3-2.99-.28.27 1 5.03 2 5.99-.75-2.26-.41-3.26 1-3" class="cls-153"/>
        <path d="m58.47 259.99 1-3c-1.41-.26-1.75.74-1 3" class="cls-153"/>
        <path d="M69.6 244.11c-.97.36-1.99.38-3.13-.12.57.13 1.73 1.48 3 1-.16-.29-.1-.59.13-.88" class="cls-5"/>
        <path d="M71.47 242.99c-.61.5-1.23.88-1.87 1.12-.24.29-.29.58-.13.88.05-.13 1.49-.75 2-2" class="cls-5"/>
        <path d="M69.6 244.11c.3-.38.92-.75 1.87-1.12-1.45.04-3.33 1.18-5 1 1.14.5 2.16.48 3.13.12" class="cls-5"/>
        <path d="M69.6 244.11c.64-.24 1.26-.62 1.87-1.12-.95.37-1.57.75-1.87 1.12" class="cls-5"/>
        <path d="M84.47 195v1.99h2.13c-.04-.66-.1-1.33-.2-1.99z" class="cls-154"/>
        <path d="M87.46 195H86.4c.09.66.16 1.33.2 1.99h.86z" class="cls-154"/>
        <path d="M54.47 266.98h1.99l-.49-2.99c-1.06.91-1.82 1.52-1.5 2.99" style="fill:#2b2b2a"/>
        <path d="M370.44 228.99c4 5.15 12.75 2.96 16-2 1.06-9.96-17.51-6.94-16 2" style="fill:#0a0c0b"/>
        <path d="M369.13 236.19c-4.15 1.28-4.83 8.34 1.81 8.36 7.52.02 8.24-11.46-1.81-8.36" style="fill:#0d0d0d"/>
        <path d="M381.69 234.23c-3.2 3.16-.1 8.42 5.48 6 8.48-3.67-.42-11-5.48-6" class="cls-49"/>
        <path d="M356.38 239.56c2.69 1.94 11.84-3 8.43-5.66-.15-.12-3.18-1.87-3.37-1.92-.49 1.88-1.39 1.87-2 0-.59 0-1.71-.14-2 0-1.69.83-3.07 6.12-1.06 7.57Z" class="cls-51"/>
        <path d="M359.44 231.99c-.22-.58-.42-1.03-.6-1.36-.01.4.15.85.6 1.36m0 0c.61 1.87 1.51 1.88 2 0-.49-.13-1.38 0-2 0" class="cls-51"/>
        <path d="M361.44 223.99c-6.14-.43-7.36 3.29-4 8 .1-.82.23-1.39.4-1.71-.36-1.48.84-3.57 3.6-6.29" class="cls-50"/>
        <path d="M357.84 230.28c.26-.51.59-.39 1 .35.04-1.58 2.9-2.52 3.38-4.31.28-1.02-.81-2.09-.78-2.33-2.77 2.72-3.97 4.82-3.6 6.29m1.6 1.71c-.9-.42-1.43-.99-1.6-1.71-.16.32-.29.89-.4 1.71.29-.14 1.41 0 2 0" class="cls-50"/>
        <path d="M358.84 230.63c-.41-.74-.75-.85-1-.35.17.71.7 1.28 1.6 1.71-.45-.51-.61-.95-.6-1.36" class="cls-50"/>
        <path d="M368.44 216.99c-3.02-2.69-4.65 1.18-8 1.01-.8 2.03 1.76 2.45 2 2.99 1.12-1.82 3.97-3.3 6-4" class="cls-128"/>
        <path d="M368.44 216.99c-2.03.7-4.88 2.18-6 4 3.49.58 5.01-.82 6-4" class="cls-128"/>
        <path d="M396.44 221.99c.31-.31.18-3.89-.98-4.55-1.09-.88-2.06.08-3.02.55.73 1.3 2.06 2.63 4 4" class="cls-48"/>
        <path d="M390.44 221.99c1.22-.18 5.72.29 6 0-1.94-1.37-3.27-2.7-4-4-1.97.96-2.33 1.73-2 4" class="cls-48"/>
        <path d="M383.44 211.99c-.98-.32-3.58.09-5 0 1.46 1.26 3.12 1.26 5 0" class="cls-150"/>
        <path d="m382.93 215.01.51-3.01c-1.88 1.26-3.54 1.26-5 0-.61 2.61 2.31 2.78 4.49 3.01" class="cls-150"/>
        <path d="M348.45 227.99c1.13-1.08 1.48-2.6 2-4-1.24.65-1.9 1.99-2 4"/>
        <path d="M350.44 223.99c-.32-.31-.56-.58-.75-.83-2.76 1.68-1.17 4.2-1.25 4.83.01-2.1.68-3.43 2-4"/>
        <path d="M350.44 223.99c-1.32.57-1.99 1.9-2 4 .1-2.01.76-3.35 2-4m-.49-.98c-.09.05-.17.1-.25.15.19.25.43.51.75.83z"/>
        <path d="M391.45 227h2.99v1.99h-2.99z" style="fill:#070507"/>
        <path d="M337.61 233.71c-.4.42-.8.84-1.16 1.28.46-.46.76-.68.95-.72.05-.19.13-.38.22-.56Z" class="cls-19"/>
        <path d="M339.45 231.99c-2.16-.55-2.34 1.28-3 3 .36-.44.76-.86 1.16-1.28.38-.78 1.03-1.45 1.84-1.72" class="cls-19"/>
        <path d="M337.61 233.71c-.09.18-.16.37-.22.56.36-.07.32.55.05 1.72.3-.88 1.45-2.86 2-4-.66.55-1.26 1.13-1.84 1.72Z" class="cls-19"/>
        <path d="M337.61 233.71c.58-.59 1.18-1.17 1.84-1.72-.8.28-1.46.95-1.84 1.72m-.22.56c-.19.04-.49.26-.95.72l1 1c-.22-.52-.22-1.13-.05-1.72" class="cls-19"/>
        <path d="M337.39 234.27c-.17.59-.17 1.2.05 1.72.27-1.17.31-1.79-.05-1.72" class="cls-19"/>
        <path d="M343.46 228h.98v5.99h-.98z" style="fill:#848786"/>
        <path d="m123.47 218.99-.94 3.39 3.41 1.6c3.41-2.57.01-3.91-2.48-4.99Z" style="fill:#3f3e3d"/>
    </g>
</svg>
