<?xml version="1.0" encoding="UTF-8"?>
<svg id="Layer_2" data-name="Layer 2" xmlns="http://www.w3.org/2000/svg" viewBox="0 0 523.71 164.31">
  <defs>
    <style>
      .cls-1 {
        fill: #494848;
      }

      .cls-2 {
        fill: #858485;
      }

      .cls-3 {
        fill: #434342;
      }

      .cls-4 {
        fill: #3c3c3d;
      }

      .cls-5 {
        fill: #232324;
      }

      .cls-6 {
        fill: #2c2c2d;
      }

      .cls-7 {
        fill: #424142;
      }

      .cls-8 {
        fill: #4b4b4c;
      }

      .cls-9 {
        fill: #050505;
      }

      .cls-10 {
        fill: #525253;
      }

      .cls-11 {
        fill: #888988;
      }

      .cls-12 {
        fill: #292928;
      }

      .cls-13 {
        fill: #28252a;
      }

      .cls-14 {
        fill: #010101;
      }

      .cls-15 {
        fill: #575658;
      }

      .cls-16 {
        fill: #030304;
      }

      .cls-17 {
        fill: #151515;
      }

      .cls-18 {
        fill: #201f21;
      }

      .cls-19 {
        fill: #2e2c2e;
      }

      .cls-20 {
        fill: #2f3031;
      }

      .cls-21 {
        fill: #262628;
      }

      .cls-22 {
        fill: #595a5a;
      }

      .cls-23 {
        fill: #232323;
      }

      .cls-24 {
        fill: #686a66;
      }

      .cls-25 {
        fill: #292929;
      }

      .cls-26 {
        fill: #414141;
      }

      .cls-27 {
        fill: #2c2d2d;
      }

      .cls-28 {
        fill: #49484a;
      }

      .cls-29 {
        fill: #474747;
      }

      .cls-30 {
        fill: #363636;
      }

      .cls-31 {
        fill: #444343;
      }

      .cls-32 {
        fill: #3c3e3f;
      }

      .cls-33 {
        fill: #3e3d3f;
      }

      .cls-34 {
        fill: #464547;
      }

      .cls-35 {
        fill: #393a3c;
      }

      .cls-36 {
        fill: #282827;
      }

      .cls-37 {
        fill: #383839;
      }

      .cls-38 {
        fill: #040405;
      }

      .cls-39 {
        fill: #585758;
      }

      .cls-40 {
        fill: #161717;
      }

      .cls-41 {
        fill: #232222;
      }

      .cls-42 {
        fill: #807f81;
      }

      .cls-43 {
        fill: #444242;
      }

      .cls-44 {
        fill: #282728;
      }

      .cls-45 {
        fill: #4d4c4d;
      }

      .cls-46 {
        fill: #424141;
      }

      .cls-47 {
        fill: #1c1c1c;
      }

      .cls-48 {
        fill: #030303;
      }

      .cls-49 {
        fill: #313132;
      }

      .cls-50 {
        fill: #232223;
      }

      .cls-51 {
        fill: #3b3a3b;
      }

      .cls-52 {
        fill: #111112;
      }

      .cls-53 {
        fill: #1a1a19;
      }

      .cls-54 {
        fill: #19191b;
      }

      .cls-55 {
        fill: #444345;
      }

      .cls-56 {
        fill: #a5a5a7;
      }

      .cls-57 {
        fill: #0a0a09;
      }

      .cls-58 {
        fill: #2f2d30;
      }

      .cls-59 {
        fill: #a1a1a2;
      }

      .cls-60 {
        fill: #3b3b3b;
      }

      .cls-61 {
        fill: #1e1e1e;
      }

      .cls-62 {
        fill: #838386;
      }

      .cls-63 {
        fill: #262527;
      }

      .cls-64 {
        fill: #383739;
      }

      .cls-65 {
        fill: #0e0c0d;
      }

      .cls-66 {
        fill: #212121;
      }

      .cls-67 {
        fill: #848385;
      }

      .cls-68 {
        fill: #181819;
      }

      .cls-69 {
        fill: #3a3a3c;
      }

      .cls-70 {
        fill: #100f10;
      }

      .cls-71 {
        fill: #323233;
      }

      .cls-72 {
        fill: #2e2e2d;
      }

      .cls-73 {
        fill: #636364;
      }

      .cls-74 {
        fill: #030103;
      }

      .cls-75 {
        fill: #504f51;
      }

      .cls-76 {
        fill: #a6a6a6;
      }

      .cls-77 {
        fill: #161317;
      }

      .cls-78 {
        fill: #2a292b;
      }

      .cls-79 {
        fill: #424343;
      }

      .cls-80 {
        fill: #4e4e4e;
      }

      .cls-81 {
        fill: #282727;
      }

      .cls-82 {
        fill: #464646;
      }

      .cls-83 {
        fill: #2b2b2d;
      }

      .cls-84 {
        fill: #5b5b5c;
      }

      .cls-85 {
        fill: #464647;
      }

      .cls-86 {
        fill: #262728;
      }

      .cls-87 {
        fill: #141413;
      }

      .cls-88 {
        fill: #121212;
      }

      .cls-89 {
        fill: #262626;
      }

      .cls-90 {
        fill: #1d1d1f;
      }

      .cls-91 {
        fill: #252424;
      }

      .cls-92 {
        fill: #404041;
      }

      .cls-93 {
        fill: #363535;
      }

      .cls-94 {
        fill: #373838;
      }

      .cls-95 {
        fill: #1d1d1c;
      }

      .cls-96 {
        fill: #484749;
      }

      .cls-97 {
        fill: #565758;
      }

      .cls-98 {
        fill: #242424;
      }

      .cls-99 {
        fill: #2e2d2e;
      }

      .cls-100 {
        fill: #040404;
      }

      .cls-101 {
        fill: #282627;
      }

      .cls-102 {
        fill: #505151;
      }

      .cls-103 {
        fill: #2f2e2e;
      }

      .cls-104 {
        fill: #080808;
      }

      .cls-105 {
        fill: #3b3b3c;
      }

      .cls-106 {
        fill: #101010;
      }

      .cls-107 {
        fill: #2e2e2e;
      }

      .cls-108 {
        fill: #242526;
      }

      .cls-109 {
        fill: #606063;
      }

      .cls-110 {
        fill: #4f5050;
      }

      .cls-111 {
        fill: #434345;
      }

      .cls-112 {
        fill: #1d1c1d;
      }

      .cls-113 {
        fill: #181716;
      }

      .cls-114 {
        fill: #282828;
      }

      .cls-115 {
        fill: #0c0c0c;
      }

      .cls-116 {
        fill: #393839;
      }

      .cls-117 {
        fill: #40403f;
      }

      .cls-118 {
        fill: #1f1f1f;
      }

      .cls-119 {
        fill: #10100f;
      }

      .cls-120 {
        fill: #5a595a;
      }

      .cls-121 {
        fill: #5b5a5a;
      }

      .cls-122 {
        fill: #373736;
      }

      .cls-123 {
        fill: #1f1d1e;
      }

      .cls-124 {
        fill: #181718;
      }

      .cls-125 {
        fill: #2f2e2d;
      }

      .cls-126 {
        fill: #585858;
      }

      .cls-127 {
        fill: #2d2d2e;
      }

      .cls-128 {
        fill: #040304;
      }

      .cls-129 {
        fill: #131213;
      }

      .cls-130 {
        fill: #333434;
      }

      .cls-131 {
        fill: #252525;
      }

      .cls-132 {
        fill: #272728;
      }

      .cls-133 {
        fill: #a6a9a7;
      }

      .cls-134 {
        fill: #4a494b;
      }

      .cls-135 {
        fill: #707071;
      }

      .cls-136 {
        fill: #0e0f0e;
      }

      .cls-137 {
        fill: #252625;
      }

      .cls-138 {
        fill: #191919;
      }

      .cls-139 {
        fill: #3d3d3e;
      }

      .cls-140 {
        fill: #39383a;
      }

      .cls-141 {
        fill: #3d3f41;
      }

      .cls-142 {
        fill: #313131;
      }

      .cls-143 {
        fill: #353535;
      }

      .cls-144 {
        fill: #2b2c2c;
      }

      .cls-145 {
        fill: #333;
      }

      .cls-146 {
        fill: #5f5c5f;
      }

      .cls-147 {
        fill: #111010;
      }

      .cls-148 {
        fill: #090909;
      }

      .cls-149 {
        fill: #373839;
      }

      .cls-150 {
        fill: #1a1a1a;
      }

      .cls-151 {
        fill: #323131;
      }

      .cls-152 {
        fill: #2e2c2c;
      }

      .cls-153 {
        fill: #4c4c4d;
      }

      .cls-154 {
        fill: #2f2e30;
      }

      .cls-155 {
        fill: #272525;
      }

      .cls-156 {
        fill: #161616;
      }

      .cls-157 {
        fill: #0e0e0e;
      }

      .cls-158 {
        fill: #4a4a4b;
      }

      .cls-159 {
        fill: #ababad;
      }

      .cls-160 {
        fill: #171617;
      }

      .cls-161 {
        fill: #1b1b1b;
      }

      .cls-162 {
        fill: #312f31;
      }

      .cls-163 {
        fill: #8f9190;
      }

      .cls-164 {
        fill: #2c2b2b;
      }

      .cls-165 {
        fill: #434244;
      }

      .cls-166 {
        fill: #2b292b;
      }

      .cls-167 {
        fill: #212020;
      }
    </style>
  </defs>
  <g id="Layer_1-2" data-name="Layer 1">
    <path class="cls-132" d="M0,105.31c4.07.87,3.78-1.97,2.99-4.99l-2.99,4.99Z"/>
    <path class="cls-96" d="M20.51,79.31c-1.63.5-1.28,5.63-1.51,7.01h1c-.12-2.31,3.33-7.87.51-7.01Z"/>
    <path class="cls-104" d="M18.99,86.32c-.3,1.74-3.24,3.52,1.99,3,.67-1.47-.98-2.74-.99-3-.28.87-.62.86-1,0Z"/>
    <path class="cls-104" d="M19.99,86.32h-1c.38.86.72.87,1,0Z"/>
    <path class="cls-14" d="M167.99,145.31c.45-.45-1.56-2.93-.59-4.05.71-.82,2.61-.65,3.26-1.27,2.36-2.26,4.25-5.96,7.37-8.14,6.27-4.38,16.51-7.76,20.98-15.01,4.51-7.3-1.85-11.48-1.64-16.05.13-2.71,6.23-7.86,5.44-12.97-.77-4.98-5.18-7.22-5.7-9.22-.73-2.8,4.41-7.16,1.37-14.29-4.86-11.38-19.68-.43-19.6-13.52.06-9.17,23.59-17.02,17.17-26.06-5.06-7.12-25.04,4.51-26.06,3.58-.37-7.58-11.27-17.07-18.51-17.03-2.8.02-5.19,2.2-7.77,1.84-2.48-.34-5.59-3.52-9.19-3.64-14.69-.5-19,10.68-27.71,13.15-3.3.94-6.22.22-9.09.91-7.41,1.76-19.52,5.54-25.04,10.73-.94.88-.59,1.9-.69,2.03,1.66-.35,2.23.75,3,2,4.25-4.44,15.98-8.83,21.97-10.53,4.13-1.18,9.21-.85,13.3-2.7,6.54-2.95,9.38-9.59,18.68-11.31,7.84-1.45,9.01,1.31,14.51,1.65,7.4.45,9.36-3.61,16.58,3.37,14.36,13.89,1.17,31.19-14.04,36.54l3.99,2.01-3.49.98,2.5,1c4.83-1.37,7.21-1.91,11.5-5,3.08-2.22,7.01-9.71,11.56-4.56,2.48,2.81.95,8.28,6.41,11.58,4.75,2.87,7.61.63,10.57,1.39,2.53.65,5.02,5.23,4.77,7.83-.05.54-1.59,5.58-1.83,5.76-.15.11-4.23-2.37-2.98.47.98,2.22,6.93,9.56,7.04,11.07.2,2.61-4.69,12.03-4.81,15.13-.07,1.81,1.03,2.75.76,6.32-.12,1.64.76,4.4-1,5-1.05.36-3.5-.63-4.59.97-.64.94.48,2.43.32,3.43-.19,1.23-1.46,1.24-1.74,1.59-1.03,1.32-1.26,2.15-3,3-2.17,1.06-3.53.56-5,1-2.18.65-2.84-.05-3,0-.13.04-.75,1.34-2,2-1.26.67-.87,1-3,1-.82.89-1.28,2.05-2,3-.45.59-.62,1.56-1.5,1.95-.58-.88-1.93-1.35-2.5-1.95l-4.69,6c-1.8.58-2.2-.22-3.31-1-2.28-1.58-4.15-4.85-4,1,1,0,2-.02,2.99.01v.98c-2.26.61-3.3-.29-4.99-.99-3.27-1.35-3.02-3.26-6-4-.35.27-1.13.5-1.61.73-.09.09-.22.18-.39.27-.92,1.45,1.27,3.32-4,1-1.41-.41-3.11.93-4,1-3.29.27-6.83-1.28-10-2-.61-.14-1.33-.85-2-1-.6-.13-1.4.13-2,0-1.17,5.07-1.06,3.17-4,4-1.6.45-2.04.69-4,1-6,.94-3.41.65-8,3-2.77,1.41-2.96-.01-4,0-.99.01-2.01.06-3,0-1.58,3.13-3.21,2.55-5,0-2.86-4.08.78-2.74,1-3,1.59-1.82,6.98-6.81,7.88-7.85.04-.05.07-.1.12-.15.19-.35-.4-1.79.23-2.72,1.64-2.4,3.08.46,3.77-6.28.01-.13-.07-1.09,0-2,.14-1.77-.38-4.62,0-6-5.21-.07-6.83-1.13-5,3.99-1.31.11-2.69-.14-4,0-.56.37-1.03.57-1.44.61-.99,1.17.87,3.52-1.06,3.37-4.04-.32-.67-6.01-.5-7.98-2.06-1.97-3.67.3-3.99,0-1.07-.96.7-7.94-3.75-5.68-.14.07-.17,1.29-1.62,1.84-6.58,2.51-6.15-.84-7.28-1.16-3.71-1.06-3.4,1.98-3.95,2.06-.63.08-6.05-1.77-6.41-2.06-1.23.9-2.58.85-4,1-8.25.88-13.43,2.9-21.41,3-.6,0-.56,1.62-1.34,1.93-6.04,2.46-11.9,2.7-18.24,1.06l6.83-6.65c5.09-12.34,12.46-21.33,25.15-26.34-1.18,4.69,2.92,6.91,3,10.98-4.01.22-10.42,4.86-13.99,4.02-.56-.13-1.44-1.52-2-2-3.11,5.87,6.64,5.64,10.45,4.94,4.9-.9,31.95-9.99,36.79-12.2,4.62-2.11,3.77-5.71,11.76-5.74,2.99-.01,3.3,1.3,5,3,.67-1.9,3.9-9.91,5.5-9.98,3.97,3.44-1.95,8.53-3.5,10.98-.47.75-.87,1.53-.97,2.43l.97.57c.82-.23,1.91.14,2.98-.5.33-.2,5.13-5.36,5.29-5.71,2.59-5.56-3.23-6.07,2.73-11.79-.57-.93-.84-1.93-1-3h-1c-3.21-.96-3.39,2.21-4.73,3.03-8.68,5.31-5.83.48-10.3-1.56-5.91-2.69-10.38,12.07-14.62,12.41-2.63.21-2.54-3.14-2.34-4.88l-4.98.48.99,2.51c-5.12-.59-2.63,1.77-1.01,5-1.46.2-2.76-.3-4-.99-.82.53-1.48.74-1.98.64-.67.84-.98,2.14-1.76,2.38-.98.3-2.27-.17-3.26-.02-1.12.17-5.1,1.97-2.98-.98.13-.19.53.85,1.98-2.02-2.91-1.02-3.77,3.59-4.99,1.99-1.71-2.22,3.38-3.4,1.96-5.95-4.48-2.2-1.35,1.23-4.96.95,1.87-1.91.91-4.26,1.53-5.92,1.27-3.42,4.18-.94.47-7.07-1.13-1.88-4.24-1.74,0-5,1.68-1.29,4.25-1.7,4.81-2.16.57-.48,5.09-10.75,6.19-12.84.54-3.25-1.17-4.53-1.01-1-1.66.38-.61-1.9-1.99-3-1.19,2.05-1.32,4.27-2.99,6.51-4.17,5.57-15.05,7.2-12.82,16.77.46,1.98,2.81,3.6,2.83,5.23.04,3.46-7.07,4.78-9.7,6.3-7.27,4.21-13.76,8.61-17.72,16.28-4.05,7.85-4.08,17.84-16.6,16.91,1.72,8.79,15.44,10.62,23.23,9.71,6.73-.78,20.95-7.6,25.84-6.31,6.23,1.65-.26,8.1-2.06,10.59.17.39,1,.87,1,1,.23.05.44.12.63.21,5.56,1.14,23.46-12.22,24.36-11.2,3.73,4.21-12.44,12.12-15.28,13.2-2.39.91-5.18,1.15-7.71,1.79-.78.2-1.62.05-2,1,6.71,3.38,10.02-2.49,15.51-2.12,2.27.15,1.34,2.69,3.98,3.16,1.82.33,7.45-.56,9.52-1.04,1.24-.29,3.01-2.6,5-1.99-.18,1.59-2.23,2.12-3,2.99-7.59,8.52-7.02,16.09,5.65,16.94,9.12.61,21.42-2.74,30.12-4.67,11.13-2.46,22.75,1.6,36.23-.27,2.05-.28,4.72-2.34,4,1,.57-.29,2.72.28,3,0ZM177.44,43.3c-.78.81-1.35,2.73-1.61,2.88-.3.17-6.59-.63-6.84-.87-.47-.47,2.17-12.43,2.5-13,.8-1.37,9.32-4.44,11.24-4.75,1.94-.31,9.88-1.22,7.78,2.77-1.25,2.37-10.4,10.19-13.08,12.97Z"/>
    <path class="cls-14" d="M433.45,26.36c-15.5-.86-31.43-2.83-46.91-3.09-16.86-.28-32.89,2.62-50.09,2.09-26.89-.84-88.41-6.92-110.46,5.96l2,1c10.74-4.31,18.21-1.84,28.39-2.1,7.1-.18,16.5-2.57,24.07-2.94,25.88-1.26,51.85,3.32,77.09,2.09,19.38-.94,32.68-.48,51.91,0,18.48.46,57.6-2.95,72.48,7.52,16.09,11.34,12.91,24.63,13.43,41.77.41,13.2,2.56,31.45-4.47,43.14-1.15,1.91-2.8.38-2.89.52-.41.65,2.17,2.36-2.53,6.06-.24.19-4.46,3.04-4.73,3.18-2.18,1.11-10.12,4.16-12.12,3.82-.53-.09-.98-3.98-2.63-2.05-.4.48,1.34,2.7,1,2.98l-31.51,3.1c-43.84.96-87.86,2.63-131.96,1.87-6.21-.11-44.65.91-46.55-.96l.5-2c-2.05-.58-1.1,1.48-2.23,1.95-2.97,1.24-6.26.65-9.27.05l.5-2c-2.39-.46-.57,1.78-2.91,2.09-1.48.19-5.54.21-6.91-.1-.34-.08-4.81-6-2.66,0-2.57-.33-5.95.54-8.34,0-.95-.22-.25-2.77-3.17-2-.45.12-.64,2.97-7.07,2.09-2.13-.29-.96-2.88-3.93-2.09-.43.11-.73,3.04-7.08,2.1-1.99-.29-1.26-2.15-1.93-2.12-2.33.1-4.46,3.98-9.77,1-.9-.51-.68-3.35-2.68-1.9-.12.09.22,1.71-.7,1.95-1.96.52-8.59.87-8.85-2.01l-2.51,5c.31-.04.69-.02,1,0,.66.04,1.34-.04,1.99,0l-.99,3.99c.33-.08.83.13,1,0,.86-.65.86-2.71,2.49-2,1.45.63.85,3.75,2.99,2.99,1.87-.73.4-2.88.54-2.95.82-.42,7.13-.64,8.23-.03,1.09.61.37,1.83,1.26,2,2.25.42,1.18-1.41,1.69-1.76,1.76-1.2,6.84,1.49,9.28,1.56,34.15.95,69.18-.24,103.51,3.19.65.07,1.35-.07,2,0,3.47.39,9,2.64,9.5,2.63,1.22-.02,3.83-2.33,8.08-1.72,2.38.34.53,2.6,2.91,2.1.93-.2.12-1.75,1.15-2.02,5.12-1.34,9.34,2.02,9.86,2,.81-.04,1.06-2.74,2.19-3.01,1.61-.38,3.92.29,5.79.02,34.93-4.96,70.61.07,104.51-4.99,1.26-.19,3.38-.71,5-1,15.44-2.8,31.05-5.9,36.73-22.77,5.44-16.15,3.66-44.75,1.26-61.72-4.99-35.23-39.99-30.99-66.53-32.47Z"/>
    <path class="cls-14" d="M230.34,104.97c2.62,2.49,9.45,5.45,13.1,5.38,4.37-.08,14.5-4.07,11.45-9.36-3.86-6.7-9.05,2.67-14.87-2.22-6.61-5.55-2.81-21.8,1.97-27.96,5.64-7.27,6.44-2.54,11.02-3.89,7.93-2.33,2.3-12.83-7.27-11.39-18.36,2.75-28.16,37.31-15.4,49.43Z"/>
    <path class="cls-14" d="M402,68.83c-15.47,6.27-17.76,34.98,1.73,38.25,4.96.83,19.02-1.32,15.17-8.08-3.44-6.03-11.54,3.05-16.66-1.93-.61-.59-2.69-4.49-1.27-5.27,2.76-1.53,10.5.4,15.26-1.74,11.18-5.02,2.11-27.85-14.23-21.22ZM411.51,78.31c3.17,6.31-7.34,6.33-11.51,6-.07-4.88,8.64-11.72,11.51-6Z"/>
    <path class="cls-14" d="M272.74,70.55c-19.33,3.13-19.81,37.83.76,37.84,21.15.01,22.56-41.62-.76-37.84ZM270.55,97.26c-5.67-7.87,2.75-21.52,7.21-16.72,6.11,6.58-1.94,24.03-7.21,16.72Z"/>
    <path class="cls-14" d="M309.75,70.54c-20.45,3-19.54,38.47.71,37.83,21.08-.67,20.66-40.96-.71-37.83ZM309.69,80.49c9.9-2.99,6.92,18.16.62,18.68-6.17.5-6.52-16.89-.62-18.68Z"/>
    <path class="cls-14" d="M341.74,71.57c-2.88-2.5-7.67-.36-8.53,3.47-.65,2.9-.61,28.47.28,30.29,1.13,2.32,5.49,2.7,7.52,1.5,2.62-1.55,1.41-10.49,4.49-10.49,1.47,0,11.45,14.26,17.82,10.06,7.25-4.78-8.16-12.96-10.3-16.58,3.22-4.01,12.49-9.5,9.5-15.5-4.84-9.7-17.28,13.5-19.51,11-.37-3.07.97-11.81-1.26-13.75Z"/>
    <path class="cls-14" d="M440.56,98.41c-2.96,2.36-12.56-6.22-13.35,2.57-1.01,11.29,32.29,7.45,24-9.38-2.33-4.73-12.26-8.46-12.27-10.77,2.54-7.73,7.88.67,12-3.05,8.66-7.84-9.02-16.35-19-7.01-4.94,4.63-5.49,12.38-.61,17.21,2.48,2.46,14.99,5.84,9.22,10.43Z"/>
    <path class="cls-14" d="M372.51,76.33c-.77,1.7-1.01,25.36-.35,27.32,1.13,3.35,9.04,2.91,9.84,1.66.79-1.24,0-25.41,0-29.5,0-2.79-7.17-4.59-9.48.52Z"/>
    <path class="cls-100" d="M207.08,14.66c-.98,1.58-6.22,1.46-5.08,5.14.99,3.2,6.44.16,7.99.95,1.32.67,3.5,6.65,5.99,4.56.43-.36-.54-5.96,2.77-9.02,1.22-1.13,6.11-2.1,4.23-4.97-1.18-1.79-6.17,1.26-7.97.53-1.72-.7-3.92-4.56-4.04-6.54-2.72-2.63-3.25,8.3-3.9,9.34Z"/>
    <path class="cls-100" d="M376.72,54.47c-8.16,1.29-7.24,13.69.79,13.43,9.34-.31,7.56-14.75-.79-13.43Z"/>
    <path class="cls-157" d="M69.99,47.32c1.63-3.09,2.49-6.38,5-9-2.16.55-2.77.17-3-2-2.57,2.98-2.95,3.47-5,7,4.35-.98,4.22.3,3,4Z"/>
    <path class="cls-157" d="M74.99,38.32c-.77-1.25-1.34-2.35-3-2,.23,2.17.84,2.55,3,2Z"/>
    <path class="cls-157" d="M68.99,46.32c-.16-3.53,1.55-2.25,1.01,1,1.22-3.7,1.35-4.98-3-4,1.38,1.1.33,3.38,1.99,3Z"/>
    <path class="cls-47" d="M219.61,49.37c-2.65.77-2.89,8.36,2.69,6.79,5.37-1.51,1.52-8.01-2.69-6.79Z"/>
    <path class="cls-156" d="M176.16,148.19c.53.08,1.13.12,1.83.12-.78-.26-1.36-.27-1.83-.12Z"/>
    <path class="cls-156" d="M178.99,142.32c-.1.89-.45.84-1,0-4.84.68-3.73.86-4,5,1.78-.67,2.91.67,4,1,.52.16,1.37-.11,2,0-.22-.66-.9-1.43-1-2-.21-1.2.14-2.73,0-4Z"/>
    <path class="cls-156" d="M178.99,142.32c-.31-.02-.69-.04-1,0,.55.84.9.89,1,0Z"/>
    <path class="cls-41" d="M199,45.8c.69,3.41,8.35.86,5.99-2.48-1.12-1.59-6.58-.43-5.99,2.48Z"/>
    <path class="cls-81" d="M155.99,150.32c1.07-.09,2.86,1.33,4.36.89.43-.12,2.62-2.96,3.64-3.89-1,0-2-.01-3,0-3.67.04-3.99-.56-5,3Z"/>
    <path class="cls-66" d="M204.48,55.31c2.98-.65,3.31-6.19-.98-4.99-2.52.71-1.66,5.56.98,4.99Z"/>
    <path class="cls-63" d="M172.99,149.32c-.45.18-1.39-.12-2,0,0,.43-3,4.48,1.4,2.9,1.9-.68,2.01-3.48,3.77-4.03-1.04-.15-1.77-.44-2.17-.88-.09,1.34.4,1.44-1,2Z"/>
    <path class="cls-63" d="M173.99,147.32c.4.44,1.13.73,2.17.88.47-.15,1.05-.14,1.83.12-1.09-.33-2.22-1.67-4-1Z"/>
    <path class="cls-36" d="M225.99,31.32c-1.4.82-3.25.85-4.54,1.97-.58,6.39,4.68-.22,6.54-.97-2.05.91-2.72.58-2-1Z"/>
    <path class="cls-36" d="M227.99,32.32l-2-1c-.72,1.58-.05,1.91,2,1Z"/>
    <path class="cls-60" d="M469.51,93.32c-2.45.55-1.74,5.6.97,4.99,2.45-.55,1.74-5.6-.97-4.99Z"/>
    <path class="cls-99" d="M149.51,147.32c-1.75.4-1.22,3.13-1.52,3.99,1.27-.17,2.7.11,4,0-.35-.99.19-4.6-2.48-3.99Z"/>
    <path class="cls-161" d="M59.99,130.32c-3.44-2.01-1.98-2.15-2-4-1.48,1.3-2.06.73-1-1-1.86,2.58-3.83,3.57,1,6-1.12-1.77-.45-2.1,2-1Z"/>
    <path class="cls-161" d="M57.99,126.32c.19.1.4.16.63.21-.19-.09-.4-.16-.63-.21Z"/>
    <path class="cls-161" d="M59.99,130.32c-2.45-1.1-3.12-.77-2,1,.38-.95,1.22-.8,2-1Z"/>
    <path class="cls-161" d="M57.99,126.32c0-.13-.83-.61-1-1-1.06,1.73-.48,2.3,1,1Z"/>
    <path class="cls-87" d="M142.99,155.31c3.66.33,4.07-1.25,5-3.99-3.26.43-3.73.5-5,3.99Z"/>
    <path class="cls-79" d="M22.99,78.31c1.16.61,8.26-1.07,5.99-2.98-.87-.74-5.84,1.16-5.99,2.98Z"/>
    <path class="cls-71" d="M179.99,146.32h-1c1.29.19,1.59.79,1,2,.54,1.59-.38,4.38,2.99,4,.96-3.47-2.94-2.5-1.99-6-.22.92-.56.89-1,0Z"/>
    <path class="cls-71" d="M179.99,146.32c.44.89.78.92,1,0-.17.13-.67-.08-1,0Z"/>
    <path class="cls-71" d="M178.99,146.32c.1.57.78,1.34,1,2,.59-1.21.29-1.81-1-2Z"/>
    <path class="cls-145" d="M154.5,154.29c1.61-.09,1.27-3.17,1.5-3.98-1.31.11-2.72.89-4,1,.28.8.12,3.1,2.5,2.98Z"/>
    <path class="cls-143" d="M201.51,3.31c2.95,1.06,3.23-2.23,2.48-2.98-1.31-1.32-5.93,1.74-2.48,2.98Z"/>
    <path class="cls-108" d="M130.99,153.31v-3.99c-3.93,0-3.98,3.97,0,3.99Z"/>
    <path class="cls-72" d="M505,92.31c1.59,1.59,4.58-1.4,2.99-2.99-1.59-1.59-4.58,1.4-2.99,2.99Z"/>
    <path class="cls-114" d="M223,149.32c-.62.67.47,3.96,1.49,3.98,2.98.03.28-5.88-1.49-3.98Z"/>
    <path class="cls-8" d="M499.49,151.3c1.03-.01,2.11-3.31,1.49-3.98-1.77-1.91-4.48,4-1.49,3.98Z"/>
    <path class="cls-158" d="M43,140.31c1.59,1.59,4.58-1.4,2.99-2.99-1.59-1.59-4.58,1.4-2.99,2.99Z"/>
    <path class="cls-111" d="M333.48,140.31c2.14-.48,1.15-3.47-.97-2.99-2.14.48-1.15,3.47.97,2.99Z"/>
    <path class="cls-45" d="M456.99,144.32l.49,1.99,4.51-2.99c-2.19,1.41-3.86,1.74-5,1Z"/>
    <path class="cls-45" d="M461.99,143.32c-1.62.29-3.74.81-5,1,1.14.74,2.81.41,5-1Z"/>
    <path class="cls-105" d="M74,145.32c-1.47,1.65,1.59,3.44,1.99,3.99l1-1c-.6-.86-1.28-4.91-2.99-2.99Z"/>
    <path class="cls-86" d="M79,145.33l1,3.99c.96-.17,1.78-.97,2-1-.04-1.86-.97-3.38-3-2.99Z"/>
    <path class="cls-40" d="M161.99,145.32c-.85.3-.99,1.22-1,2,.97-1.46,2.07-1.5,3,0,1.1-1.01.9-1.95,1-2-.88.17-2.31-.24-3,0Z"/>
    <path class="cls-40" d="M160.99,147.32c1-.01,2,0,3,0-.93-1.5-2.03-1.46-3,0Z"/>
    <path class="cls-101" d="M142.99,148.32c-3.98-1.16-2.93,2.15-3.99,2.99h1c1.48-1.14,3.76-.15,2.99-2.99Z"/>
    <path class="cls-101" d="M139.99,151.32s-.04.08-.07.17c.02-.06.04-.11.07-.17Z"/>
    <path class="cls-3" d="M229.51,158.31c2.11.76,1.82-2.62,1.48-2.99-.97-1.05-4.57,1.88-1.48,2.99Z"/>
    <path class="cls-4" d="M522.48,148.33c-2.11-.76-1.82,2.62-1.48,2.99.97,1.05,4.57-1.88,1.48-2.99Z"/>
    <path class="cls-15" d="M81.99,148.32c.68,1.5-.78,2.02-2,1-.62.11-1.35-.07-2,0,.41.61.64,1.36,1,2,.87-.12,2.71-.73,4-1v-2c-.33.03-.67-.05-1,0Z"/>
    <path class="cls-15" d="M81.99,148.32c-.22.03-1.04.83-2,1,1.22,1.02,2.68.5,2-1Z"/>
    <path class="cls-71" d="M134.99,146.32c-.97-1.05-4.57,1.88-1.48,2.99,2.11.76,1.82-2.62,1.48-2.99Z"/>
    <path class="cls-97" d="M455,133.8c1.11,3.09,4.03-.51,2.99-1.48-.37-.34-3.74-.63-2.99,1.48Z"/>
    <path class="cls-82" d="M445.51,135.31c2.11.76,1.82-2.62,1.48-2.99-.97-1.05-4.57,1.88-1.48,2.99Z"/>
    <path class="cls-22" d="M450.51,129.31c2.11.76,1.82-2.62,1.48-2.99-.97-1.05-4.57,1.88-1.48,2.99Z"/>
    <path class="cls-110" d="M201.51,129.31c2.11.76,1.82-2.62,1.48-2.99-.97-1.05-4.57,1.88-1.48,2.99Z"/>
    <path class="cls-26" d="M456.48,120.33c-2.11-.76-1.82,2.62-1.48,2.99.97,1.05,4.57-1.88,1.48-2.99Z"/>
    <path class="cls-107" d="M515.51,119.31c2.11.76,1.82-2.62,1.48-2.99-.97-1.05-4.57,1.88-1.48,2.99Z"/>
    <path class="cls-12" d="M210,103.32c-1.51,1.51,2.97,4.26,2.97,1.49,0-.66-2.4-2.07-2.97-1.49Z"/>
    <rect class="cls-7" x="175" y="155.32" width="2.99" height="1.99"/>
    <path class="cls-43" d="M165,154.32v2.99c1.23.65,3.47-1.58,2.99-1.98l-2.99-1.01Z"/>
    <rect class="cls-158" x="134" y="154.32" width="1.99" height="2.99"/>
    <path class="cls-65" d="M138.99,151.32c-.16.12-4.3-.01-1.99,1.99,2.24,1.95,2.72-1.05,2.93-1.82-.27.68-.58.62-.93-.17Z"/>
    <path class="cls-65" d="M139.93,151.49c.02-.09.05-.16.07-.17h-1c.35.8.66.86.93.17Z"/>
    <path class="cls-110" d="M431.49,149.34c-.66,0-2.07,2.4-1.49,2.97,1.51,1.51,4.26-2.97,1.49-2.97Z"/>
    <path class="cls-68" d="M408.01,150.82c0,.66,2.4,2.07,2.97,1.49,1.51-1.51-2.97-4.26-2.97-1.49Z"/>
    <rect class="cls-120" x="289" y="149.32" width="1.99" height="2.99"/>
    <rect class="cls-16" x="256" y="149.32" width="1.99" height="2.99"/>
    <path class="cls-30" d="M510.49,151.3c.66,0,2.07-2.4,1.49-2.97-1.51-1.51-4.26,2.97-1.49,2.97Z"/>
    <path class="cls-137" d="M77.99,149.32c-.24-.35-.74-.63-1-1,1.14,1.4.64,1.94-1,1,.48.67-1.3,2.57,3,2-1.64-.26-2.24-.82-1-2Z"/>
    <path class="cls-137" d="M76.99,148.32l-1,1c1.64.94,2.14.4,1-1Z"/>
    <path class="cls-137" d="M78.99,151.32c-.36-.64-.59-1.39-1-2-1.24,1.18-.64,1.74,1,2Z"/>
    <rect class="cls-2" x="410" y="51.32" width="2.99" height="1.99"/>
    <path class="cls-135" d="M172.99,149.32c-.7-.76-.55-2.73-1.51-3.01-3.02-.86-.48,2.15-.49,3.01,0-2.17.83-1.61,2,0Z"/>
    <path class="cls-135" d="M172.99,149.32c-1.17-1.61-1.99-2.17-2,0,.61-.12,1.55.18,2,0Z"/>
    <path class="cls-90" d="M123,146.33c-.48.41,1.76,2.63,2.99,1.98v-2.99s-2.99,1.01-2.99,1.01Z"/>
    <path class="cls-4" d="M266.01,138.82c0,.66,2.4,2.07,2.97,1.49,1.51-1.51-2.97-4.26-2.97-1.49Z"/>
    <rect class="cls-153" x="337" y="132.32" width="2.99" height="1.99"/>
    <path class="cls-122" d="M206.49,135.3c.66,0,2.07-2.4,1.49-2.97-1.51-1.51-4.26,2.97-1.49,2.97Z"/>
    <path class="cls-29" d="M223.49,129.3c.66,0,2.07-2.4,1.49-2.97-1.51-1.51-4.26,2.97-1.49,2.97Z"/>
    <path class="cls-97" d="M205.01,121.82c0,.66,2.4,2.07,2.97,1.49,1.51-1.51-2.97-4.26-2.97-1.49Z"/>
    <path class="cls-39" d="M516.99,104.32c-1.51-1.51-4.26,2.97-1.49,2.97.66,0,2.07-2.4,1.49-2.97Z"/>
    <path class="cls-102" d="M488.49,109.34c-.66,0-2.07,2.4-1.49,2.97,1.51,1.51,4.26-2.97,1.49-2.97Z"/>
    <path class="cls-31" d="M509,110.32v1.99s2.99,0,2.99,0c-.34-1.45-1.61-2.29-2.99-1.98Z"/>
    <path class="cls-51" d="M471,106.31h1.99s-.49-2.99-.49-2.99c-1.06.91-1.82,1.52-1.5,2.99Z"/>
    <path class="cls-14" d="M482,115.32v2.99s1.98,0,1.98,0c.31-1.38-.54-2.66-1.98-2.99Z"/>
    <path class="cls-113" d="M205,96.32v2.99s1.98,0,1.98,0c.31-1.38-.54-2.66-1.98-2.99Z"/>
    <path class="cls-117" d="M461.49,126.34c-1.5,0-1.5,2.96,0,2.96s1.5-2.96,0-2.96Z"/>
    <path class="cls-119" d="M185,134.31h1.99c.31-1.38-.54-2.66-1.98-2.99v2.99Z"/>
    <path class="cls-126" d="M327.49,131.34c-1.5,0-1.5,2.96,0,2.96s1.5-2.96,0-2.96Z"/>
    <path class="cls-91" d="M229.5,135.31l.49-2.99h-1.99c-.32,1.47.44,2.08,1.5,2.99Z"/>
    <path class="cls-94" d="M435.5,135.31l.49-2.99h-1.99c-.32,1.47.44,2.08,1.5,2.99Z"/>
    <path class="cls-13" d="M300.5,140.31l.49-2.99h-1.99c-.32,1.47.44,2.08,1.5,2.99Z"/>
    <path class="cls-74" d="M343,137.32v2.99s1.98,0,1.98,0c.31-1.38-.54-2.66-1.98-2.99Z"/>
    <path class="cls-140" d="M365.49,140.3c1.5,0,1.5-2.96,0-2.96s-1.5,2.96,0,2.96Z"/>
    <path class="cls-125" d="M310.99,149.32v3c1.5-.21,1.9-1.71,2-3-.78,1.71-1.55,1.86-2,0Z"/>
    <path class="cls-125" d="M310.99,149.32c.45,1.86,1.22,1.71,2,0-.65-.07-1.35.07-2,0Z"/>
    <path class="cls-136" d="M376,152.31h1.99s-.49-2.99-.49-2.99c-1.06.91-1.82,1.52-1.5,2.99Z"/>
    <path class="cls-56" d="M257.99,31.32h-1.99c-.32,1.47.44,2.08,1.5,2.99l.49-2.99Z"/>
    <path d="M240.49,155.34c-1.5,0-1.5,2.96,0,2.96s1.5-2.96,0-2.96Z"/>
    <path d="M251.49,155.34c-1.5,0-1.5,2.96,0,2.96s1.5-2.96,0-2.96Z"/>
    <path class="cls-143" d="M235.5,164.31l.49-2.99h-1.99c-.32,1.47.44,2.08,1.5,2.99Z"/>
    <path class="cls-115" d="M131.14,60.84c.53-.12,1.01-.22,1.42-.3,4.32-1.08,9.24-2.28,13.51-1.84-.48-.67-.51-1.8-.07-3.38l-1.06,2.45c-4.79.65-9.39,1.68-13.79,3.06Z"/>
    <path class="cls-115" d="M117.45,66.58l-2.46-.26c.08.27-.05.65,0,1,.71,0,1.21.07,1.55.2.25-.32.56-.63.91-.94Z"/>
    <path class="cls-115" d="M115.89,68.72c.13-.41.35-.81.66-1.2-.34-.13-.85-.2-1.55-.2.16,1.07.43,2.07,1,3-.16-.57-.26-1.12-.11-1.6Z"/>
    <path class="cls-115" d="M146.07,58.7c1.02.11,2,.3,2.93.62l-2.5-1,3.49-.98-3.99-2.01c-.43,1.59-.4,2.71.07,3.38Z"/>
    <path class="cls-115" d="M146.07,58.7c-4.27-.44-9.2.75-13.51,1.84-.41.08-.89.18-1.42.3-4.75,1.49-9.28,3.41-13.57,5.75h-.11c-.35.29-.66.61-.91.93.96.37.58,1.27-.55,2.8,9.66-9.24,21.18-7.66,33-11-1.46.28-2.43.07-2.93-.62Z"/>
    <path class="cls-115" d="M116.55,67.52c-.31.39-.53.79-.66,1.2-.15.48-.05,1.03.11,1.6,1.14-1.53,1.52-2.43.55-2.8Z"/>
    <path class="cls-115" d="M148.99,59.32c-.93-.32-1.91-.51-2.93-.62.49.69,1.47.9,2.93.62Z"/>
    <path class="cls-115" d="M117.45,66.58c3.11-2.71,9.78-4.84,13.69-5.74,4.4-1.39,9-2.41,13.79-3.06l1.06-2.45c-10.1,3.55-22.15,3.22-31,11l2.46.26Z"/>
    <path class="cls-115" d="M131.14,60.84c-3.9.9-10.58,3.03-13.69,5.74h.11c4.3-2.34,8.82-4.25,13.57-5.74Z"/>
    <path class="cls-147" d="M99.1,83.26c-.07,1.07-.93,2.37-2.63,3.93,2.15-.24,4.03-.2,5.65.12-.23-.92.72-2.08,2.87-2-1,.08-1.38-.38-2-1-1.43,1.22-2.88.28-3.9-1.06Z"/>
    <path class="cls-147" d="M99.1,83.26c1.02,1.34,2.47,2.28,3.9,1.06-1.7-1.7-2.01-3.01-5-3,.8.52,1.15,1.17,1.1,1.94Z"/>
    <path class="cls-147" d="M102.12,87.32c1.07.21,2.03.54,2.87,1l-.97-.57c.1-.9.5-1.69.97-2.43-2.15-.08-3.1,1.08-2.87,2Z"/>
    <path class="cls-147" d="M94,89.31c4.23.32,7.09.11,11-.99-1.73.35-2.69-.25-2.87-1-1.62-.32-3.5-.37-5.65-.12,1.7-1.56,2.56-2.87,2.63-3.93-.47-.62-.86-1.33-1.1-1.94-.8,3.12-4.53,4.52-4,7.99Z"/>
    <path class="cls-147" d="M104.99,88.32c-.84-.46-1.8-.79-2.87-1,.18.75,1.14,1.35,2.87,1Z"/>
    <path class="cls-147" d="M97.99,81.32c.24.61.63,1.32,1.1,1.94.05-.77-.3-1.43-1.1-1.94Z"/>
    <path class="cls-131" d="M129.18,133.06c.86,1.3,3.04-.04,3.72.7.2-.74.92-.87,2.16-.4-.03-.02-.06-.04-.07-.04-1.17-1.22-2-3.37-2-5-.28,4.98-3.44,1.69-5.48-1.05-1.11,1.14-2.28,1.82-3.52,2.05,1.3.47,4.68,1.03,4.86,1.2.41.4-.06,1.95.33,2.54Z"/>
    <path class="cls-131" d="M132.9,133.76c.22.24.29.7.09,1.55.89-.07,2.59-1.41,4-1-.32-.14-1.64-.78-1.93-.96-1.24-.47-1.96-.34-2.16.4Z"/>
    <path class="cls-131" d="M132.99,128.32c-2.64,2.41-2.49-1.56-3.98-2.54-2.42-1.59-4.92,1.04-5.02,3.54,1.24-.23,2.42-.91,3.52-2.05,2.03,2.74,5.2,6.03,5.48,1.05Z"/>
    <path class="cls-149" d="M111.42,135.61s.03-.04.04-.06c-.08.03-.15.06-.23.09.06-.01.13-.03.18-.03Z"/>
    <path class="cls-149" d="M111.46,135.55s-.03.04-.04.06c.44.02.35.63-.42,1.7,1.96-.31,2.4-.55,4-1-1.04-.97-2.22-1.22-3.53-.76Z"/>
    <path class="cls-149" d="M109.99,136.32c.54-.41.95-.61,1.24-.67.08-.03.15-.06.23-.09.81-1.12,2.5-.97,3.53.76-.54-5.86-3.7-4.92-5,0Z"/>
    <path class="cls-149" d="M111.46,135.55c1.31-.46,2.49-.21,3.53.76-1.03-1.73-2.72-1.88-3.53-.76Z"/>
    <path class="cls-149" d="M111.23,135.64c-.4.16-.81.38-1.24.67.46.06.91.52,1,1-.02-.72.14-1.29.42-1.7-.05,0-.12.02-.18.03Z"/>
    <path class="cls-149" d="M111.42,135.61c-.28.41-.44.98-.42,1.7.77-1.07.86-1.69.42-1.7Z"/>
    <path class="cls-149" d="M109.99,136.32c.43-.29.84-.51,1.24-.67-.29.06-.7.27-1.24.67Z"/>
    <path class="cls-106" d="M191.69,112.51c-.06.65-.28,1.26-.69,1.81.56-.53.72-1.16.69-1.81Z"/>
    <path class="cls-106" d="M191.11,109.91l.88-.59-1.03.27c.06.11.1.21.15.32Z"/>
    <path class="cls-106" d="M191.69,112.51c.03.65-.13,1.28-.69,1.81,1.76-.6.88-3.36,1-5l-.88.59c.45.94.64,1.81.57,2.6Z"/>
    <path class="cls-106" d="M187,106.32c-1.44,1.32,6.22,4.75,4,7.99.41-.55.64-1.15.69-1.81-.04-.83-.42-1.71-.8-2.45l.22-.15c-.05-.11-.09-.21-.15-.32l1.03-.27c-.36-.69-.68-1.37-.98-2.05-1.12-1.27-2.93-1.94-4.01-.95Z"/>
    <path class="cls-106" d="M191.11,109.91l-.22.15c.38.75.76,1.62.8,2.45.07-.79-.12-1.66-.57-2.6Z"/>
    <path class="cls-106" d="M191.99,109.32c-.09-.74-.46-1.46-.98-2.05.3.67.62,1.35.98,2.05Z"/>
    <path class="cls-138" d="M38.99,94.32c.56.48,1.44,1.87,2,2-.45-1.55-1.12-2.21-2-2Z"/>
    <path class="cls-138" d="M41.25,94.78c1.1-.99,4.33.22,2.25-3.46-1.23-2.19-4.07,2.18-4.5,3.01,2.01-1.34,2.41-.99,2.25.46Z"/>
    <path class="cls-138" d="M41.25,94.78c.16-1.44-.24-1.8-2.25-.46.88-.21,1.55.45,2,2-.21-.81-.06-1.26.25-1.54Z"/>
    <path class="cls-8" d="M98.99,140.32c1.04-.01,1.23,1.41,4,0-1.64-1.03-2.98-1.03-4,0Z"/>
    <path class="cls-8" d="M98.99,140.32c1.23-1.8,2.72-1.65,4,0-.21-3.97-5.08-4.72-4,0Z"/>
    <path class="cls-8" d="M98.99,140.32c1.02-1.03,2.36-1.03,4,0-1.28-1.65-2.77-1.8-4,0Z"/>
    <path class="cls-35" d="M175.14,123.37c-1.09-.45-1.82-.47-2.15-.05.14.29.8.59,1,1,.14-.74.52-1.05,1.15-.95Z"/>
    <path class="cls-35" d="M173.99,124.32c.16-.05.82.65,3,0-.71-.42-1.32-.73-1.85-.95-.62-.1-1.01.21-1.15.95Z"/>
    <path class="cls-35" d="M172,120.33c.46.89.66,2.28,1,2.99.33-.42,1.06-.39,2.15.05.48.08,1.09.38,1.85.95-1.73-1.49-2.46-4.41-5-3.99Z"/>
    <path class="cls-35" d="M176.99,124.32c-.76-.57-1.37-.87-1.85-.95.53.22,1.14.53,1.85.95Z"/>
    <path class="cls-116" d="M106.2,119.3c.41.38.73,1.07.79,2.02-.07-1.33.05-2.67,0-4-.08,1.1-.37,1.74-.79,1.98Z"/>
    <path class="cls-116" d="M104.93,119.11c-.29-.19-.6-.44-.94-.79-.07.91.01,1.87,0,2,.25-.63.59-1.02.94-1.21Z"/>
    <path class="cls-116" d="M105.48,118.98c.25.01.5.12.72.32.43-.25.71-.88.79-1.98-.15.19-2.41.34-3,1,.9,0,1.37.3,1.49.66Z"/>
    <path class="cls-116" d="M106.2,119.3c-.21.12-.46.15-.74.06-.14.38-.63.76-1.47.95l3,1c-.06-.94-.38-1.64-.79-2.02Z"/>
    <path class="cls-116" d="M105.48,118.98c.04.12.03.25-.02.39.28.08.52.06.74-.06-.22-.2-.47-.31-.72-.32Z"/>
    <path class="cls-116" d="M105.46,119.37c-.17-.05-.34-.13-.53-.25-.35.19-.68.58-.94,1.21.85-.19,1.33-.57,1.47-.95Z"/>
    <path class="cls-116" d="M105.48,118.98c-.18,0-.37.03-.55.13.19.12.37.21.53.25.05-.13.05-.26.02-.39Z"/>
    <path class="cls-116" d="M105.48,118.98c-.11-.36-.59-.65-1.49-.66.34.36.65.61.94.79.18-.1.37-.14.55-.13Z"/>
    <path class="cls-95" d="M114.43,66.68c.1-.11.28-.23.56-.36-1.77-1.47-2.1-1.14-1,1,.13-.42.28-.62.44-.64Z"/>
    <path class="cls-95" d="M114.43,66.68c-.16.02-.3.23-.44.64h1c-.58-.2-.76-.41-.56-.64Z"/>
    <path class="cls-95" d="M114.99,66.32c-1.52-4.89-5.99-3.61-2.35-.12.44.25.89.62,1.35,1.12-1.1-2.14-.77-2.47,1-1Z"/>
    <path class="cls-95" d="M113.99,67.32c-.46-.49-.91-.86-1.35-1.12.37.35.81.72,1.35,1.12Z"/>
    <path class="cls-95" d="M114.99,66.32c-.28.12-.46.24-.56.36.17-.02.36.19.56.64-.05-.35.08-.73,0-1Z"/>
    <path class="cls-95" d="M114.43,66.68c-.2.23-.02.45.56.64-.2-.45-.39-.66-.56-.64Z"/>
    <path class="cls-103" d="M122.58,129.95s.04.07.06.11c.02-.05.03-.11.06-.16-.04.03-.07.05-.11.05Z"/>
    <path class="cls-103" d="M120.99,132.32c.67.15,1.39.86,2,1-.23-.4-.41-.89-.49-1.41-.3.37-.8.57-1.51.41Z"/>
    <path class="cls-103" d="M122.58,129.95s.08-.02.11-.05c.08-.2.18-.4.31-.58-.3-.1-.7.09-1,0,.25.17.44.39.58.63Z"/>
    <path class="cls-103" d="M123.9,132.44c.29-.94-.33-2.33-.91-3.12-.09.3-.2.49-.31.58-.02.05-.04.11-.06.16.22.44.26.94.13,1.36.28.35.4,1.01.23,1.9.29-.38.59-.66.91-.88Z"/>
    <path class="cls-103" d="M123.9,132.44c-.31.22-.62.5-.91.88.51-.16.79-.48.91-.88Z"/>
    <path class="cls-103" d="M122.76,131.42c-.06.18-.14.35-.26.49.09.52.26,1.01.49,1.41.17-.89.04-1.56-.23-1.9Z"/>
    <path class="cls-103" d="M122.99,129.32c-.13.18-.22.38-.31.58.11-.09.21-.28.31-.58Z"/>
    <path class="cls-103" d="M122.45,131.18c0-.39.06-.77.18-1.13-.02-.04-.04-.07-.06-.11-.18.03-.37-.18-.58-.63l-1,3c.48-.96,1.04-1.28,1.45-1.14Z"/>
    <path class="cls-103" d="M122.5,131.91c-.04-.24-.05-.48-.05-.73-.42-.14-.97.18-1.45,1.14.7.16,1.2-.04,1.51-.41Z"/>
    <path class="cls-103" d="M122.58,129.95c-.14-.24-.33-.46-.58-.63.21.45.41.66.58.63Z"/>
    <path class="cls-103" d="M122.76,131.42c.13-.42.09-.92-.13-1.36-.12.36-.18.74-.18,1.13.12.04.22.12.31.23Z"/>
    <path class="cls-103" d="M122.45,131.18c0,.24.01.49.05.73.12-.14.21-.31.26-.49-.09-.11-.2-.19-.31-.23Z"/>
    <path class="cls-167" d="M166.99,130.32c.72-.95,1.18-2.11,2-3-1.4-.06-2.07.94-2,3Z"/>
    <path class="cls-167" d="M167.55,126.32c-1.7.46-1.83,2.72-.55,4-.44-1.69.15-3.41,2-3-.16,0-.88-1.15-1.45-1Z"/>
    <path class="cls-167" d="M166.99,130.32c-.07-2.06.6-3.06,2-3-1.85-.41-2.44,1.31-2,3Z"/>
    <path class="cls-59" d="M172.59,124.95c-.16.48-.36.94-.6,1.37,1.25-.66,1.87-1.96,2-2-.69.63-1.19.8-1.4.63Z"/>
    <path class="cls-59" d="M172.56,124.23c.08-.25.21-.55.44-.91-2.73-.34-2.42,1.13-1,3-.57-.94-.19-1.8.56-2.09Z"/>
    <path class="cls-59" d="M172.56,124.23c-.75.29-1.13,1.15-.56,2.09.23-.43.43-.89.6-1.37-.14-.11-.15-.36-.03-.72Z"/>
    <path class="cls-59" d="M172.99,123.32c-.05.3-.14.56-.21.84.36-.07.77-.04,1.21.16-.2-.41-.86-.71-1-1Z"/>
    <path class="cls-59" d="M172.79,124.16c-.07.26-.11.54-.2.79.22.17.71,0,1.4-.63-.44-.2-.85-.23-1.21-.16Z"/>
    <path class="cls-59" d="M172.79,124.16c.07-.28.16-.55.21-.84-.22.36-.36.66-.44.91.07-.03.15-.05.23-.07Z"/>
    <path class="cls-59" d="M172.59,124.95c.08-.25.13-.52.2-.79-.08.02-.16.04-.23.07-.12.36-.1.61.03.72Z"/>
    <path class="cls-1" d="M181.99,123.32c1.74-.85,1.97-1.68,3-3-1.33.31-2.33,1.31-3,3Z"/>
    <path class="cls-1" d="M181.99,123.32c.6-2.12,1.6-3.12,3-3-2.26-1.95-3.23.4-3,3Z"/>
    <path class="cls-1" d="M181.99,123.32c.67-1.69,1.67-2.69,3-3-1.4-.12-2.4.88-3,3Z"/>
    <path class="cls-66" d="M64.99,83.32c-1.45,2.87-1.85,1.83-1.98,2.02-2.12,2.96,1.86,1.15,2.98.98-1.35-.38-1.69-1.38-1-3Z"/>
    <path class="cls-66" d="M64.99,83.32c.13,1.12.46,2.12,1,3,.04-1.38.41-2.5-1-3Z"/>
    <path class="cls-66" d="M65.99,86.32c-.54-.88-.87-1.88-1-3-.69,1.62-.35,2.62,1,3Z"/>
    <path class="cls-24" d="M150.99,136.32c-.27.17-.57.26-.9.26,1.63.36,1.95.28.9-.26Z"/>
    <path class="cls-24" d="M150.1,136.58c-.34,0-.7-.08-1.1-.26,1.7.7,2.73,1.6,5,.99v-.98c-.99-.03-2-.01-3-.01,1.05.54.73.62-.9.26Z"/>
    <path class="cls-24" d="M150.1,136.58c.33,0,.63-.09.9-.26-.67,0-1.33,0-2,0,.43.11.78.19,1.1.26Z"/>
    <path class="cls-24" d="M150.1,136.58c-.32-.07-.68-.15-1.1-.26.4.18.76.26,1.1.26Z"/>
    <path class="cls-133" d="M179.36,145.7c.19-.1.4.11.63.62-.05-.51-.15-1.03-.26-1.54-.09.32-.22.63-.37.92Z"/>
    <path class="cls-133" d="M179.74,144.77c.11.52.21,1.03.26,1.54l.99-3.99c-.66-.04-1.33.03-1.99,0,.92.5,1.02,1.48.74,2.46Z"/>
    <path class="cls-133" d="M178.99,146.32c.11-.35.24-.55.37-.62.15-.3.28-.61.37-.92-.18-.81-.42-1.63-.74-2.46.14,1.27-.21,2.8,0,4Z"/>
    <path class="cls-133" d="M178.99,142.32c.32.83.56,1.64.74,2.46.28-.97.18-1.96-.74-2.46Z"/>
    <path class="cls-133" d="M179.36,145.7c-.11.22-.23.43-.37.62h1c-.23-.51-.44-.72-.63-.62Z"/>
    <path class="cls-133" d="M178.99,146.32c.13-.19.25-.4.37-.62-.13.07-.25.27-.37.62Z"/>
    <path class="cls-9" d="M149.99,99.32c.27,5.66,2.5,11.94,8,14,1.88.14,4.88-.77,6,1,.83-.09,2.43-.48,3-1v-5c-.49-.1-1.46-.07-2,0-3.78.48-5.46,2.28-8-3-3.66-7.6,2.1-5.21,4.99-10.51-2.18-2.4-1.92,1.8-2.49,1.5-2.32-1.2-.96-3.94.46-5.32,1.03-1.01,4.62-3.26,5.93-4.29.89-.7,1.06-2.37,1.69-2.46,1.96-.31,3.12,1.78,4.11,1.94,1.57.26,2.24-2.23,3.32-1.41,2.49,1.9,4.35,6.87,4.03,10.04-.2,1.97-4.62,9.84,1.27,8.32.36-.09,2.59-1.64,2.69-1.81.34-.62,1.6-8.55,1.52-9.54-.75-9.49-11.8-16.62-20.79-12.23-.76.37-7.52,6.01-8.22,6.78-2.47,2.71-5.19,7.31-5.51,10.99-.06.64-.03,1.35,0,2Z"/>
    <path class="cls-156" d="M113.99,105.32c-.33.33-.65.69-1,1,.38.78-.11,2.61.94,3.52.28.07.63.23,1.06.48.4-1.77,2.19-2.28,5.37-1.54,1.42-1.38,2.7-2.16,3.84-2.36-.56-.8-.79-1.99-.86-3.24-2.38,2.14-6.48,5.01-8.34,1.14-.1.03-.73.73-1,1Z"/>
    <path class="cls-156" d="M124.2,106.42c.55.78,1.42,1.18,2.79.9-.81-.8-1.74-1.09-2.79-.9Z"/>
    <path class="cls-156" d="M123.34,103.18c.07,1.25.3,2.44.86,3.24,1.05-.19,1.98.1,2.79.9-.45-1.25-1.46-2.22-1.67-3.65-.24-1.62,2.37-3.71-3.63-2.33-.83.19-.74,1.78-1.93,2.3-1.76.76-3.54.31-4.77.68,1.86,3.87,5.97,1,8.34-1.14Z"/>
    <path class="cls-156" d="M124.2,106.42c-1.14.21-2.42.98-3.84,2.36-3.18-.74-4.97-.23-5.37,1.54,1.34-.29,3.44.95,5.83.39,2.57-.6,1.94-2.26,6.17-3.39-1.37.28-2.24-.12-2.79-.9Z"/>
    <path class="cls-156" d="M114.99,110.32c-.43-.25-.79-.41-1.06-.48.25.22.59.39,1.06.48Z"/>
    <path class="cls-155" d="M146.22,79.05c2.23-6.56-2.42-6.97-5.95-3.46-5.71,5.68,2.28,14.26,5.95,3.46Z"/>
    <path class="cls-5" d="M136.99,131.32c.23-.93.57-.9,1,0l4-2c-.51-.16-.71-.35-.62-.55-1.77,1.12-2.47-.1-1.38-2.45-1.08-1.42-1.09-1.41-2-3-.22-.38.04-1.12-1-1-.21.02-1.53,1.61-1.99,1.01-.64-.84.89-4.01-3.01-4.01.81,1.96,1.91,3.6,3.3,4.92,5.14-.42,3.31,6.73-1.3,2.08.2.21.32.42.37.61l2.63,4.39Z"/>
    <path class="cls-5" d="M141.37,128.77c.06-.14.26-.29.62-.45-.12-.2-1.37-1.17-2-2-1.09,2.35-.39,3.58,1.38,2.45Z"/>
    <path class="cls-5" d="M133.99,126.32l.37.61c-.05-.19-.17-.4-.37-.61Z"/>
    <path class="cls-5" d="M135.3,124.24c-1.39-1.32-2.49-2.96-3.3-4.92-.54,1.25-.17,3.46-2,4.99l6.99,1.02c.26,1.85-1.96.68-2.99.99,4.61,4.65,6.45-2.5,1.3-2.08Z"/>
    <path class="cls-5" d="M136.99,131.32c-.06.02-.14.07-.22.14.07-.04.15-.08.22-.14Z"/>
    <path class="cls-5" d="M136.99,131.32c.23-.07.68-.02,1,0-.43-.9-.77-.93-1,0Z"/>
    <path class="cls-5" d="M141.99,129.32v-1c-.22.18-.43.33-.62.45-.08.2.12.38.62.55Z"/>
    <path class="cls-5" d="M141.37,128.77c.2-.12.4-.27.62-.45-.36.16-.56.31-.62.45Z"/>
    <path class="cls-23" d="M136.99,122.32c1.83-1.37,2.36-.81,1,1h1l5-2c-.12-.29.13-.74,0-1-2.17-.04-2.08.2-4-1-1.57,2.27-4.83-2.09-5-4-.05.23-.95.64-1,1,.84.24.81.58,0,1,.44,1.11,3.25,2.8,3,5Z"/>
    <path class="cls-23" d="M133.99,116.32c-.04.27-.07.82,0,1,.81-.42.84-.76,0-1Z"/>
    <path class="cls-23" d="M139.99,119.32c-1.18-.74-2.97-3.48-5-4,.17,1.91,3.43,6.27,5,4Z"/>
    <path class="cls-23" d="M136.99,122.32c1.04-.12.78.62,1,1,1.36-1.81.83-2.37-1-1Z"/>
    <path class="cls-162" d="M145.28,129.02c.11.24,3.58,3.41,4.2,3.29,5.91-1.13-3.56-5.54-4.49-5.99,2.14,2.49,3.21,3.74,3.21,3.74,0,0-1.07-1.25-3.21-3.74.15.8-.26,1.52.28,2.7Z"/>
    <path class="cls-138" d="M143.38,123.76c.11.03.21.07.31.12.33-.2.76-.39,1.31-.56-.22-1.12-.78-1.45-1-2,.37,1.26.04,2.03-.62,2.44Z"/>
    <path class="cls-138" d="M141.82,124.12c-.7-.01-1.46-.19-2.16-.48.65.54,1.12,1.57,1.34,1.68.21-.54.5-.93.82-1.2Z"/>
    <path class="cls-138" d="M143.69,123.88c-1.16.71-.93,1.55.74,2.23.2.06.4.13.57.21-.05-1.23-.61-2.08-1.31-2.44Z"/>
    <path class="cls-138" d="M143.69,123.88c-.1-.05-.2-.09-.31-.12-.41.26-.96.37-1.56.36-.32.27-.61.66-.82,1.2.9.43,2.35.47,3.43.79-1.67-.68-1.91-1.52-.74-2.23Z"/>
    <path class="cls-138" d="M144.99,126.32c-.18-.91.18-2.1,0-3-.55.17-.98.36-1.31.56.7.36,1.26,1.21,1.31,2.44Z"/>
    <path class="cls-138" d="M141.82,124.12c.48-.4,1.04-.51,1.56-.36.66-.41.99-1.18.62-2.44l-5,2c.24.03.46.15.66.32.7.29,1.46.47,2.16.48Z"/>
    <path class="cls-138" d="M141.82,124.12c.6,0,1.14-.11,1.56-.36-.52-.15-1.08-.04-1.56.36Z"/>
    <path class="cls-64" d="M154.87,121.46c-1.16-.51-1.69.02-2.41.85,1.7,4.67-1.18,2.68-1.46,6l5.99-4.5c-1.27.2-1.98-2.29-2.12-2.35Z"/>
    <path class="cls-34" d="M107.45,96.86l-3.93-.55c-2.06-.3,1.51,4.86,3.97,4,3.37-1.18.93-2.3-.03-3.45Z"/>
    <path class="cls-132" d="M109.99,112.32c1.89.36,3.23.03,4-1-.63-.18-1.49-.96-2-1-.3.83-.64.83-1,0-.18.17.24,1.86-1,2Z"/>
    <path class="cls-132" d="M111.99,110.32c-.31-.02-.93-.06-1,0,.36.83.7.83,1,0Z"/>
    <path class="cls-132" d="M109.99,112.32c1.21,2.29-.49,2.46,5,1.99.27-.99-1.04-2.49-1-2.99-.77,1.03-2.11,1.36-4,1Z"/>
    <path class="cls-10" d="M162.5,102.31c3.33,1.26,3.03-3.38,2.49-3.99-.97-1.08-6.91,2.31-2.49,3.99Z"/>
    <path class="cls-61" d="M188,99.31c.81.38,1.63.27,2.33-.1l1.4-4.09c-1.69-1.12-4.26,2.04-3.73,4.19Z"/>
    <path class="cls-61" d="M191.99,95.32c-.08-.08-.17-.14-.26-.2l-1.4,4.09c1.58-.83,2.58-2.97,1.66-3.89Z"/>
    <path class="cls-50" d="M160.99,127.32c-3.94-2.68-3.35.65-4,3,.69-1.51,2.03-2.51,4-3Z"/>
    <path class="cls-50" d="M160.85,128.54c.03-.37.07-.77.14-1.22-1.3,1.19-2.64,2.19-4,3,1.91.22,3.42-.21,3.86-1.78Z"/>
    <path class="cls-50" d="M156.99,130.32c1.36-.81,2.7-1.81,4-3-1.97.49-3.31,1.49-4,3Z"/>
    <path class="cls-50" d="M160.99,127.32c-.07.45-.11.85-.14,1.22.1-.35.16-.74.14-1.22Z"/>
    <path class="cls-6" d="M80.99,101.31l-3.98,1.51,4.58,3.21c.11-.05.21-.09.31-.14l-.92-4.58Z"/>
    <path class="cls-6" d="M81.91,105.89c-.11.05-.2.09-.31.14l.4.28-.08-.42Z"/>
    <path class="cls-69" d="M131.99,118.32c-.12.15-.31.27-.55.36.23.18.43.38.55.64.12-.28-.12-.71,0-1Z"/>
    <path class="cls-69" d="M131.44,118.68c-1.27.5-3.85.22-3.16-.27.74-.52,2.27-.41,3.16.27.24-.09.44-.21.55-.36-3.35-2.79-4.11-2.94-5.01,1.49,1.16,1.42,3.64-.49,5.01-.49-.12-.26-.32-.46-.55-.64Z"/>
    <path class="cls-69" d="M128.28,118.41c-.69.49,1.88.77,3.16.27-.89-.68-2.42-.79-3.16-.27Z"/>
    <path class="cls-37" d="M91.99,106.32c-.12-.84-.88-4.77-1.07-4.93-3.34-2.71-4.56,4.11,1.07,4.93Z"/>
    <path class="cls-85" d="M170.99,61.83c-.81-3.7-5.92.55-3.99,2.48.73.73,4.45-.37,3.99-2.48Z"/>
    <path class="cls-129" d="M93,107.32l1.01,3.99h1.47c3.11-2.27.73-4.5-2.48-3.99Z"/>
    <path class="cls-93" d="M99.99,102.32c-.47,2.67.63,2.04,3,2,1.59-1.74.69-5.96-3-2Z"/>
    <path class="cls-57" d="M117.99,132.32c-1.41-1.04-2.75-2.04-4-3,.23,3.44,1.91,2.62,4,3Z"/>
    <path class="cls-57" d="M113.99,129.32c1.4.65,3.45,1.64,4,3,2.17-2.68-1.23-3.32-4-3Z"/>
    <path class="cls-57" d="M113.99,129.32c1.25.96,2.59,1.96,4,3-.55-1.36-2.6-2.35-4-3Z"/>
    <path class="cls-50" d="M186.5,112.65c.72-1.1-.62-2.93-3-2.32-2.39.62-1.02,3.76,1.98,2.98.13-.03.24-.08.35-.12.21-.21.43-.39.67-.54Z"/>
    <path class="cls-50" d="M186.5,112.65c-.24.14-.46.33-.67.54.31-.14.53-.32.67-.54Z"/>
    <path class="cls-20" d="M186.99,73.31c.84-.67,1.14-4.56-1.48-3.99-3.09.68-.33,5.42,1.48,3.99Z"/>
    <path class="cls-62" d="M108.99,110.32c-1.52.27-1.97.02-2.07-.67-.03.27-.08.5-.13.73,0-.01,0-.02.01-.04l2.19.97c-.05-.31,0-.68,0-1Z"/>
    <path class="cls-62" d="M106.79,110.38c-.32,1.32-1.26,1.97-2.8,1.93.12,0,.23.03.34.06,1.28.25,2.1-.42,2.46-2Z"/>
    <path class="cls-62" d="M106.79,110.38c.05-.23.1-.47.13-.73-.08-.53.05-1.31.07-2.33-1.33.29-.79,2.45-1.36,3.7-.28.63-1.57,1.04-1.64,1.3,1.54.03,2.48-.61,2.8-1.93Z"/>
    <path class="cls-62" d="M106.79,110.38c-.36,1.58-1.18,2.25-2.46,2,1.2.37,2.1,2.33,3.31-1.05h1.35s-2.19-.98-2.19-.98c0,.01,0,.02-.01.04Z"/>
    <path class="cls-49" d="M108.48,128.33h-1.48s0,3.99,0,3.99h2.99c.23-1.84.06-2.94-1.51-3.99Z"/>
    <path class="cls-78" d="M94,96.83c-.54,2.38,2.6,1.89,3.99,2.48,1-1.57-3.27-5.62-3.99-2.48Z"/>
    <path class="cls-146" d="M166.99,108.32c.5.1.87.51,1,1,.35-.94,4.34-1.17,0-4-.31.36-.66.67-1,1-.68.66-1.38,1.29-2,2,1.09-.92,1.76-.92,2,0Z"/>
    <path class="cls-146" d="M166.99,108.32c-.24-.92-.91-.92-2,0,.54-.07,1.51-.1,2,0Z"/>
    <path class="cls-112" d="M121,123.8c.49,1.29,3.32,2.13,3.99,1.51,2.03-1.89-5.3-4.98-3.99-1.51Z"/>
    <path class="cls-21" d="M114.99,125.32h-3.99c-.37,2.17,1.16,2.8,3,2.99-1.17-1.35-1.75-2.02-1.75-2.02,0,0,.58.67,1.75,2.02.02-.5,1.44-1.8,1-2.99Z"/>
    <path class="cls-139" d="M173,112.31h3.99c0-3.93-3.97-3.98-3.99,0Z"/>
    <path class="cls-123" d="M120.99,75.32s-.05.1-.07.17c.02-.06.04-.11.07-.17Z"/>
    <path class="cls-123" d="M123.04,74.77c-1.95-6.99-1.93-1.68-3.05.55h1c.15-.15,1.87.41,2.05-.55Z"/>
    <path class="cls-134" d="M111,90.33c.98,3.27-1.36,4.65,2.99,3.99.24-.21-.85-3.86-1.01-3.99-.19-.16-1.37.06-1.98,0Z"/>
    <path class="cls-83" d="M143.99,120.32c.67.01,1.33,0,2,0-1.19-.47-2.57-1.82-3-3-3.08,1.34.68,2.32,1,3Z"/>
    <path class="cls-83" d="M145.99,120.32c-.2-.55.02-1.41-.52-2.01-.95-1.05-1.76-.68-2.48-.99.43,1.18,1.81,2.53,3,3Z"/>
    <path class="cls-37" d="M118,117.32c-.39,1.88-.06,5.77,1.99,3.99,1.31-1.14.75-4.8-1.99-3.99Z"/>
    <path class="cls-165" d="M99.99,102.32c-1.11,1.18-2.36,2.2-1.99,4,1.7.03,3.86-.75,4.99-2-3.11,1.41-5.26,1.63-3-2Z"/>
    <path class="cls-165" d="M99.99,102.32c-2.26,3.63-.11,3.41,3,2-2.37.04-3.47.67-3-2Z"/>
    <path class="cls-150" d="M178,108.31c1.59,1.59,4.58-1.4,2.99-2.99-1.59-1.59-4.58,1.4-2.99,2.99Z"/>
    <path class="cls-144" d="M108.67,109.15c.14.35.25.73.33,1.16,0-.15.76-.92.96-1.59,0-.13.02-.26.04-.41-.36.58-.85.83-1.33.84Z"/>
    <path class="cls-144" d="M108.67,109.15c.48,0,.97-.26,1.33-.84-.75-.49-2.16-1.18-3-1,.76.32,1.32.94,1.67,1.84Z"/>
    <path class="cls-144" d="M109.99,108.32c-.02.14-.04.28-.04.41.04-.14.07-.28.04-.41Z"/>
    <path class="cls-144" d="M106.93,109.65c.1.69.55.93,2.07.67-.08-.44-.19-.82-.33-1.16-.83,0-1.62-.73-1.67-1.84.04.9.01,1.67-.07,2.33Z"/>
    <path class="cls-144" d="M108.67,109.15c-.36-.9-.91-1.52-1.67-1.84.05,1.1.84,1.84,1.67,1.84Z"/>
    <path class="cls-144" d="M106.93,109.65c.08-.66.11-1.43.07-2.33-.02,1.02-.15,1.81-.07,2.33Z"/>
    <path class="cls-141" d="M127.33,107.43c.54.22.41.52-.34.89l3,1c-.4-.86-1.3-1.49-2.66-1.89Z"/>
    <path class="cls-141" d="M126.99,107.32c.12.03.22.08.34.11-.09-.04-.2-.08-.34-.11Z"/>
    <path class="cls-141" d="M129.99,109.32c.82-1.03,2.73-.66,1.99-3-1.59.48-3.46.59-4.99,1,.13.03.24.07.34.11,1.36.41,2.26,1.03,2.66,1.89Z"/>
    <path class="cls-141" d="M126.99,108.32c.75-.37.87-.67.34-.89-.12-.03-.21-.08-.34-.11.11.31-.12.74,0,1Z"/>
    <path class="cls-44" d="M178,118.31c.94,1.07,4.06-2.03,2.99-2.99-1.69-1.5-4.5,1.28-2.99,2.99Z"/>
    <path class="cls-152" d="M141.47,117.46c.31-.18.8-.26,1.52-.15-.8-.39-1.3-.33-1.52.15Z"/>
    <path class="cls-152" d="M141.44,119.18s.04,0,.06.01c-.03-.03-.05-.06-.07-.09,0,.03,0,.05.01.08Z"/>
    <path class="cls-152" d="M141.44,119.18s0-.05-.01-.08c-.49-.62-.53-1.31.04-1.64.22-.48.72-.54,1.52-.15-.21-.09-.41-1.49-1.99-1l-1.01,3c.34-.24.83-.28,1.45-.14Z"/>
    <path class="cls-152" d="M143.99,120.32c-1.12-.05-2-.55-2.5-1.13-.02,0-.04,0-.06-.01,0,0,0,.01,0,.02l-1.45.12c1.92,1.2,1.83.96,4,1Z"/>
    <path class="cls-152" d="M141.44,119.18c-.62-.14-1.1-.1-1.45.14l1.45-.12s0-.01,0-.02Z"/>
    <path class="cls-152" d="M141.47,117.46c-.15.34-.17.88-.04,1.64.02.03.04.06.07.09.67.16,1.5.54,2.5,1.13-.32-.68-4.08-1.66-1-3-.72-.11-1.21-.03-1.52.15Z"/>
    <path class="cls-152" d="M141.47,117.46c-.57.33-.53,1.02-.04,1.64-.13-.76-.11-1.3.04-1.64Z"/>
    <path class="cls-152" d="M143.99,120.32c-.99-.59-1.82-.97-2.5-1.13.5.58,1.37,1.07,2.5,1.13Z"/>
    <path class="cls-130" d="M120.99,84.32c-.94-1.07-4.06,2.03-2.99,2.99,1.69,1.5,4.5-1.28,2.99-2.99Z"/>
    <path class="cls-128" d="M192.99,88.31c1.07-.96-2.05-4.06-2.99-2.99-1.51,1.71,1.3,4.49,2.99,2.99Z"/>
    <path class="cls-84" d="M162,123.8c1.11,3.09,4.03-.51,2.99-1.48-.37-.34-3.74-.63-2.99,1.48Z"/>
    <path class="cls-166" d="M32.48,110.33c-1.97-.71-1.85,2.18-1.55,2.87.71-.07,1.41-.18,2.09-.34.82-.74,1.17-1.92-.55-2.54Z"/>
    <path class="cls-166" d="M33.03,112.86c-.68.16-1.39.26-2.09.34.02.05.04.09.07.11.43.46,1.38.14,2.03-.45Z"/>
    <path class="cls-55" d="M159.99,103.32h-2.99c.07.62-.15,1.82,0,1.99.1.12,2.22.29,2.99,1v-2.99Z"/>
    <path class="cls-52" d="M112.49,104.95c.18.18.33.45.41.78.03-.47.39-.61,1.09-.41l-2-2c.66.7.79,1.28.5,1.63Z"/>
    <path class="cls-52" d="M112.49,104.95c.29-.36.16-.93-.5-1.63-.45.67-.99.71-1,2,.5-.77,1.09-.78,1.5-.37Z"/>
    <path class="cls-52" d="M113.99,105.32c-.7-.2-1.06-.06-1.09.41.05.18.08.38.09.59.35-.31.67-.67,1-1Z"/>
    <path class="cls-52" d="M112.99,106.32c-.07-.24-.1-.43-.09-.59-.09-.33-.23-.59-.41-.78-.23.29-.74.44-1.5.37.46.36,1.86.72,2,1Z"/>
    <path class="cls-52" d="M112.49,104.95c-.41-.41-.99-.4-1.5.37.76.07,1.27-.08,1.5-.37Z"/>
    <path class="cls-52" d="M112.99,106.32c0-.21-.04-.41-.09-.59,0,.16.02.36.09.59Z"/>
    <path class="cls-33" d="M114.01,103.9c.27.07.59.2.98.42-.32-.2-.66-.36-1.01-.5,0,.03.01.06.02.09Z"/>
    <path class="cls-33" d="M113.99,103.81c.35.14.69.3,1.01.5-.66-3.41-1.22-3.67-3-1,.77-1.27,1.68-.59,1.99.5Z"/>
    <path class="cls-33" d="M113.99,105.32c.27-.27.9-.97,1-1-.39-.22-.72-.34-.98-.42.11.45.13.95-.02,1.42Z"/>
    <path class="cls-33" d="M114.01,103.9s-.01-.06-.02-.09c-.62-.26-1.29-.43-1.99-.5l2,2c-1.07-1.1-.93-1.67.02-1.42Z"/>
    <path class="cls-33" d="M111.99,103.32c.71.07,1.37.24,1.99.5-.31-1.09-1.23-1.77-1.99-.5Z"/>
    <path class="cls-33" d="M114.01,103.9c-.95-.26-1.09.32-.02,1.42.14-.46.13-.97.02-1.42Z"/>
    <path class="cls-67" d="M69.99,102.33c-2-2.45-8.31.13,0,1.98-.05-.62.16-1.79,0-1.98Z"/>
    <path class="cls-124" d="M130.99,98.31c1.02-1.04-1.98-4.01-2.99-2.99-1.02,1.04,1.98,4.01,2.99,2.99Z"/>
    <path class="cls-8" d="M163.99,72.31c1.05-.97-1.88-4.57-2.99-1.48-.76,2.11,2.62,1.82,2.99,1.48Z"/>
    <rect class="cls-46" x="168" y="54.32" width="1.99" height="2.99"/>
    <rect class="cls-53" x="175" y="70.32" width="2.99" height="1.99"/>
    <path class="cls-19" d="M91.51,93.31c2.37.99.65-2.84.47-2.99-1.87-1.53-3.16,1.86-.47,2.99Z"/>
    <path class="cls-75" d="M125.99,93.31c-1.15-3.79-2.24-4.04-2.99,0h2.99Z"/>
    <path class="cls-163" d="M144.45,121.09c-.11.08-.26.15-.45.23.2-.05.39-.07.57-.07-.04-.05-.08-.11-.11-.16Z"/>
    <path class="cls-163" d="M144.99,123.32c3.17-1.33,1.38-1.92,1-3-.14.62-.33.99-.53,1.18.49.39.44,1.16-.47,1.82Z"/>
    <path class="cls-163" d="M143.99,120.32c.13.26-.12.71,0,1,.2-.08.35-.16.45-.23-.15-.21-.3-.45-.45-.77Z"/>
    <path class="cls-163" d="M144.56,121.24c-.17,0-.36.02-.57.07.22.55.78.88,1,2,.05-.61.18-1.19.38-1.74-.24.14-.52.02-.81-.33Z"/>
    <path class="cls-163" d="M145.46,121.5s-.06.06-.09.08c-.2.55-.33,1.13-.38,1.74.9-.67.96-1.43.47-1.82Z"/>
    <path class="cls-163" d="M144.45,121.09c.04.05.08.11.11.16.36,0,.65.08.86.22.15-.4.34-.78.58-1.15-.67,0-1.33.01-2,0,.67.25.82.51.45.77Z"/>
    <path class="cls-163" d="M145.46,121.5c.21-.18.39-.56.53-1.18-.24.37-.42.75-.58,1.15.01,0,.03.02.04.03Z"/>
    <path class="cls-163" d="M143.99,120.32c.15.32.3.56.45.77.36-.26.22-.52-.45-.77Z"/>
    <path class="cls-163" d="M145.38,121.58s.03-.07.04-.11c-.21-.15-.5-.23-.86-.22.29.35.57.48.81.33Z"/>
    <path class="cls-163" d="M145.46,121.5s-.03-.02-.04-.03c-.01.04-.03.07-.04.11.03-.02.06-.05.09-.08Z"/>
    <rect class="cls-127" x="59" y="100.32" width="1.99" height="2.99"/>
    <path class="cls-17" d="M163.99,114.32l-6-1c2.38.89,3.05,1.32,6,1Z"/>
    <path class="cls-17" d="M157.99,113.32l6,1c-1.12-1.77-4.12-.86-6-1Z"/>
    <path class="cls-148" d="M126.99,108.32c.55,1.22-.55,1.98,2.51,2.99,1.04.25.21-1.64.49-1.99-.44,1.69-2.31.36-3-1Z"/>
    <path class="cls-148" d="M129.99,109.32l-3-1c.99,1.36,1.99,1.69,3,1Z"/>
    <path class="cls-148" d="M126.99,108.32c.69,1.36,2.56,2.69,3,1-1.01.69-2.01.36-3-1Z"/>
    <path class="cls-17" d="M167.35,109.19c.37,1.3.14,2.92-.36,4.13,1.76-1.58.61-2.95,1-4-.24.17-.46.12-.64-.13Z"/>
    <path class="cls-17" d="M167.35,109.19c-.13-.18-.25-.47-.36-.87v5c.5-1.21.72-2.83.36-4.13Z"/>
    <path class="cls-17" d="M166.99,108.32c.16.26.27.56.36.87.19.25.4.3.64.13-.13-.49-.5-.9-1-1Z"/>
    <path class="cls-17" d="M166.99,108.32c.1.4.22.69.36.87-.09-.31-.2-.61-.36-.87Z"/>
    <path class="cls-14" d="M55.99,105.32h-1.99s0,1.98,0,1.98l1.75-.27c.28-.5.38-1.09.24-1.71Z"/>
    <path class="cls-14" d="M55.75,107.04l-1.75.27v1.02c.8-.19,1.41-.66,1.75-1.28Z"/>
    <path class="cls-76" d="M167.99,105.32c-3.94-2.58-4.62,1.43-1,1-.42-.86-.04-1.16,1-1Z"/>
    <path class="cls-76" d="M167.99,105.32c-1.04-.16-1.42.14-1,1,.34-.33.69-.64,1-1Z"/>
    <path class="cls-32" d="M133.48,114.79c-.53-.33-1.08-.93-1.48-1.47-.04,1,1.23,2.31,2,3-.73-.87-.85-1.41-.52-1.53Z"/>
    <path class="cls-32" d="M134.44,115c.17.08.35.19.55.31.07-.32-.08-.69,0-1-.13.39-.33.6-.55.69Z"/>
    <path class="cls-32" d="M134.99,115.32c-.3-.09-.48-.19-.58-.3-.17.05-.36.03-.57-.04.23.44.28.88.14,1.34.05-.36.95-.77,1-1Z"/>
    <path class="cls-32" d="M133.85,114.98c-.12-.04-.25-.11-.38-.19-.33.12-.22.66.52,1.53.14-.46.09-.91-.14-1.34Z"/>
    <path class="cls-32" d="M134.42,115.02c.09.11.28.21.58.3-.2-.13-.38-.23-.55-.31,0,0-.02,0-.02.01Z"/>
    <path class="cls-32" d="M133.74,114.77c.17.02.38.08.64.21-.12-.2.08-.42.61-.66l-3-1c.83.47,1.41.95,1.75,1.45Z"/>
    <path class="cls-32" d="M133.48,114.79c.07-.02.16-.03.26-.02-.33-.5-.92-.98-1.75-1.45.4.54.95,1.13,1.48,1.47Z"/>
    <path class="cls-32" d="M134.38,114.98s.04.02.06.03c.23-.08.42-.29.55-.69-.53.24-.73.46-.61.66Z"/>
    <path class="cls-32" d="M134.38,114.98c-.26-.13-.47-.18-.64-.21.05.07.08.14.11.21.2.07.39.09.57.04-.01-.01-.03-.03-.04-.04Z"/>
    <path class="cls-32" d="M134.38,114.98s.02.03.04.04c0,0,.02,0,.02-.01-.02,0-.04-.02-.06-.03Z"/>
    <path class="cls-32" d="M133.48,114.79c.13.08.25.15.38.19-.04-.07-.07-.14-.11-.21-.11-.01-.19,0-.26.02Z"/>
    <path class="cls-27" d="M184.98,104.32v-2.99s-1.99,0-1.99,0c-.29,1.38.53,2.66,1.99,3Z"/>
    <path class="cls-58" d="M148,117.32v1.99s2.99,0,2.99,0c-.34-1.45-1.61-2.29-2.99-1.98Z"/>
    <path class="cls-42" d="M149.99,99.32c-1.41-.75-1.62-1.26,0-2-4.65-2.05-4.24.94,0,2Z"/>
    <path class="cls-42" d="M149.99,99.32c-.03-.65-.06-1.36,0-2-1.62.74-1.41,1.25,0,2Z"/>
    <path class="cls-54" d="M84.99,96.32v2c.32.16.74,1.64,1.5,2l.51-.5c.05-1.18-1-3.09-2.01-3.49Z"/>
    <path class="cls-159" d="M84.99,96.32c-.5-.2-2.85-.32-3.01.51-.48,2.57,1.03.51,3.01,1.49-2.04-.76-2.14-1.41,0-2Z"/>
    <path class="cls-159" d="M84.99,98.32v-2c-2.14.59-2.04,1.24,0,2Z"/>
    <path class="cls-164" d="M181.99,75.32c-1.38-.31-2.66.54-2.99,1.98h2.99s0-1.98,0-1.98Z"/>
    <path class="cls-126" d="M120.93,75.49c-.27.68-.58.62-.93-.17-.23.46-2.15.82-2,1.99,3.56.81,2.84-1.15,2.93-1.82Z"/>
    <path class="cls-126" d="M120.93,75.49c.01-.07.03-.13.07-.17h-1c.35.8.67.86.93.17Z"/>
    <path class="cls-80" d="M154.98,63.32h-2.98c-1.78,2.86,4.76,2.86,2.98,0Z"/>
    <path class="cls-48" d="M126.55,42.79c2.49.1,2.3,2.07,2.69,2.24,7.71,3.42,12.4-8.53,3.72-14.18-6.33-4.12-14.04.33-15.52,7.4-2.35,11.27,3.17,4.29,9.11,4.53Z"/>
    <path class="cls-70" d="M92.92,34.39c-3.24-2.3-16.97,8.17-12.46,13,5.36,2.8,17.49-9.43,12.46-13ZM90.99,38.33c-1.33,2.38-4.12,4.93-7,4.98,1.55-2.33,3.72-5.41,7-4.98Z"/>
    <path class="cls-88" d="M105.9,49.41c-3.94-.43-9.34,2.07-5.97,6.48,4.85,1.31,8.8-1.46,5.97-6.48Z"/>
    <path class="cls-138" d="M109.49,27.14c-2.89,1.67-7.85,4.92-6.49,6.18,2.73.56,11.57-3.52,10.99-6.48-.15-.77-.47-1.07-.89-1.14l-2.03,1.22c-.53.07-1.06.15-1.58.22Z"/>
    <path class="cls-138" d="M111.34,26.14c-.25.1-.95.47-1.85.99.53-.08,1.05-.16,1.58-.22l2.03-1.22c-.49-.08-1.11.17-1.76.44Z"/>
    <path class="cls-25" d="M121,48.33c2.41,4.24,8.79,1.22,12,.99v-1c-4.3-.32-7.73-1.89-12,.01Z"/>
    <path class="cls-89" d="M143.67,17.37c-.61.07-1.19.36-1.67.96-1.03,1.28,1.74,3.17,2.94,3.55,6.41,2.03,2.86-3.99-.52-4.5-.17.02-.33.03-.51.06-.08-.03-.16-.05-.24-.07Z"/>
    <path class="cls-89" d="M143.67,17.37c.08.03.16.05.24.07.17-.03.33-.04.51-.06-.25-.04-.5-.04-.75-.01Z"/>
    <path class="cls-151" d="M143.99,47.31c.3-1.15.03-6.05-1.49-5.97-1.91.09-4.34,7.46,1.49,5.97Z"/>
    <path class="cls-154" d="M82,73.31l5.97-.49c-2.83-3.73-3.7-2.62-5.97.49Z"/>
    <path class="cls-92" d="M89,69.31c1.6,1.26,4.13-2.85,2.99-3.99-1.74-1.74-5.31,2.15-2.99,3.99Z"/>
    <path class="cls-131" d="M154.51,35.31c2.95,1.06,3.23-2.23,2.48-2.98-1.31-1.32-5.93,1.74-2.48,2.98Z"/>
    <path class="cls-121" d="M72.99,69.32c-.48-.64,1.32-1.99-2-2,.43,1.44,1.1,2.1,2,2Z"/>
    <path class="cls-121" d="M72.99,69.32c-1.44.28-1.83-.62-2-2-2.2,2.78.56,5.63,2,2Z"/>
    <path class="cls-121" d="M72.99,69.32c-.9.1-1.57-.56-2-2,.17,1.38.56,2.28,2,2Z"/>
    <path class="cls-77" d="M82.97,67.82c.03-2.98-5.88-.28-3.98,1.49.67.62,3.96-.47,3.98-1.49Z"/>
    <path class="cls-11" d="M81.99,59.31c.27-.3-.15-3.01,0-3.99l-2.99,1.01c.42,1.34,1.62,4.54,2.99,2.98Z"/>
    <path class="cls-28" d="M68.6,71.69c.03.05.06.1.08.16,0-.08.01-.16.02-.24-.03.04-.07.06-.1.08Z"/>
    <path class="cls-28" d="M68.6,71.69s.07-.05.1-.08c.04-.46.13-.9.29-1.29h-2c.76.17,1.28.7,1.6,1.37Z"/>
    <path class="cls-28" d="M68.68,71.85c-.02-.06-.06-.1-.08-.16-.35.17-.9-.4-1.6-1.37.6.92.59,2.13,2,4-.26-.92-.35-1.74-.31-2.47Z"/>
    <path class="cls-28" d="M68.6,71.69c-.33-.67-.84-1.2-1.6-1.37.7.97,1.26,1.54,1.6,1.37Z"/>
    <path class="cls-28" d="M68.7,71.61c0,.08-.02.16-.02.24.33.77.42,1.69.31,2.47,1.63-1.6.1-2.95,0-4-.03.7-.13,1.11-.29,1.29Z"/>
    <path class="cls-28" d="M68.99,70.32c-.17.39-.25.82-.29,1.29.16-.18.27-.59.29-1.29Z"/>
    <path class="cls-28" d="M68.68,71.85c-.03.73.06,1.55.31,2.47.11-.78.02-1.7-.31-2.47Z"/>
    <path class="cls-50" d="M132.99,48.32c.87.28.86.62,0,1,.26-.02,4.99,1.45,5.01-.51.02-2.48-2.82-.33-5.01-.49Z"/>
    <path class="cls-50" d="M132.99,48.32v1c.86-.38.87-.72,0-1Z"/>
    <path class="cls-109" d="M75.9,73.33c-.22.07-.51.07-.9,0,.39.13.73.34,1.03.61-.06-.19-.1-.39-.13-.6Z"/>
    <path class="cls-109" d="M75.9,73.33c.03.21.07.41.13.6.39.35.71.8.97,1.39.11-1.91.45-2.79-1-4,.46,1,.54,1.8-.1,2.01Z"/>
    <path class="cls-109" d="M76.03,73.93c-.31-.27-.65-.49-1.03-.61-.24,2.47-.07,1.99,2,2-.47-.33-.79-.8-.97-1.39Z"/>
    <path class="cls-109" d="M76.03,73.93c.18.59.5,1.06.97,1.39-.25-.59-.58-1.04-.97-1.39Z"/>
    <path class="cls-109" d="M75.9,73.33c-.07-.58-.04-1.24.1-2.01-.39.57-.59,1.54-1,2,.39.08.69.08.9,0Z"/>
    <path class="cls-109" d="M75.9,73.33c.63-.21.55-1.01.1-2.01-.14.77-.17,1.43-.1,2.01Z"/>
    <path class="cls-73" d="M106,58.33c.72,1.63,2.2,3.31,4,2.98-.72-1.63-2.2-3.31-4-2.98Z"/>
    <path class="cls-18" d="M76,61.32v2.99s1.98,0,1.98,0c.31-1.38-.54-2.66-1.98-2.99Z"/>
    <path class="cls-142" d="M62,74.32c-1.93,1.93,3.18,6.18,3.99,2.48.46-2.11-3.26-3.21-3.99-2.48Z"/>
    <path class="cls-98" d="M65.99,81.32c1.22-.74,2.56-1.4,4-2-3.14-2.67-3.11.13-4,2Z"/>
    <path class="cls-98" d="M69.89,81.99c-.06-.7-.02-1.59.11-2.67-1.26,1.21-2.6,1.88-4,2,2.07,1.11,3.39,1.55,3.89.67Z"/>
    <path class="cls-98" d="M69.89,81.99c.27-.47.31-1.32.11-2.67-.13,1.08-.17,1.97-.11,2.67Z"/>
    <path class="cls-98" d="M65.99,81.32c1.4-.12,2.74-.79,4-2-1.44.6-2.78,1.26-4,2Z"/>
    <path class="cls-118" d="M69.99,75.32c.72.61.29,1.72,2.49,2.01,3.15.42.54-1.53.51-2.01.14,1.76-1.88.97-3,0Z"/>
    <path class="cls-118" d="M72.99,75.32h-3c1.58,1.05,2.58,1.05,3,0Z"/>
    <path class="cls-118" d="M69.99,75.32c1.12.97,3.14,1.76,3,0-.42,1.05-1.42,1.05-3,0Z"/>
    <path class="cls-160" d="M93.62,138.89c.48.07.96.53,1.38,1.42.68-1.61-.09-2.9-1.14-3.3-.63.18-1.26.29-1.86.3,1.17.28,1.7.93,1.62,1.58Z"/>
    <path class="cls-160" d="M91.99,137.32c.6,0,1.23-.12,1.86-.3-.61-.24-1.3-.17-1.86.3Z"/>
    <path class="cls-160" d="M91.99,140.32c1,0,2-.01,3,0-.48-.36-.96-.77-1.42-1.22-.16.49-.67.96-1.58,1.22Z"/>
    <path class="cls-160" d="M93.62,138.89c0,.07-.02.13-.04.2.46.45.94.86,1.42,1.22-.42-.89-.9-1.35-1.38-1.42Z"/>
    <path class="cls-160" d="M91.99,140.32c.42-.89.9-1.35,1.38-1.42-.47-.48-.93-1-1.38-1.58l-.05.15c-.07.53.17,2.21.05,2.85Z"/>
    <path class="cls-160" d="M91.99,137.32s-.04.07-.05.15l.05-.15Z"/>
    <path class="cls-160" d="M93.62,138.89c.08-.65-.45-1.3-1.62-1.58.45.58.91,1.1,1.38,1.58.08-.01.16-.01.25,0Z"/>
    <path class="cls-160" d="M93.57,139.09c-.07-.07-.13-.13-.2-.2-.48.07-.96.53-1.38,1.42.91-.27,1.42-.73,1.58-1.22Z"/>
    <path class="cls-160" d="M93.57,139.09c.02-.07.04-.13.04-.2-.08-.01-.16-.01-.25,0,.07.07.13.13.2.2Z"/>
    <path class="cls-38" d="M103.74,133.28c-1.02.69-1.67,2.09-.74,3.03.86.86,2.13.37,2.86-.51-.08-.64-.04-1.46.13-2.48-.95.96-1.42,1.44-1.42,1.44,0,0,.47-.48,1.42-1.44-.83.01-1.58,0-2.26-.04Z"/>
    <path class="cls-38" d="M105.86,135.8c.62-.74.85-1.76.13-2.48-.17,1.02-.21,1.85-.13,2.48Z"/>
    <path class="cls-38" d="M103.74,133.28c.68.04,1.43.05,2.26.04-.65-.65-1.54-.52-2.26-.04Z"/>
    <path class="cls-91" d="M140.02,131.41c-.53.21-1.17.21-2.02-.09.26.01,1.87,1.54,3,1-.84-.09-1.16-.39-.98-.91Z"/>
    <path class="cls-91" d="M140.32,131.27c.38.19.61.54.68,1.05l1-3c-.54.88-1.04,1.58-1.68,1.95Z"/>
    <path class="cls-91" d="M140.32,131.27c-.1.06-.2.1-.3.14-.19.51.14.82.98.91-.06-.51-.29-.86-.68-1.05Z"/>
    <path class="cls-91" d="M140.14,131.18c.27-.48.87-1.09,1.85-1.86l-4,2c.93-.26,1.65-.31,2.15-.14Z"/>
    <path class="cls-91" d="M140.02,131.41c.03-.07.08-.15.12-.23-.5-.17-1.22-.12-2.15.14.85.3,1.49.3,2.02.09Z"/>
    <path class="cls-91" d="M140.14,131.18c.07.02.12.06.18.09.64-.37,1.13-1.07,1.68-1.95-.98.77-1.58,1.38-1.85,1.86Z"/>
    <path class="cls-91" d="M140.02,131.41c.1-.04.2-.09.3-.14-.06-.03-.11-.07-.18-.09-.04.08-.1.16-.12.23Z"/>
  </g>
</svg>