<svg xmlns="http://www.w3.org/2000/svg" id="Layer_2" data-name="Layer 2" viewBox="0 0 383.3 60.59">
    <defs>
        <style>
            .cls-1{fill:#ea2225}
        </style>
    </defs>
    <g id="Layer_1-2" data-name="Layer 1">
        <path d="M333.96 20.74c-4 10.18-4.04 23.71-7.27 34.89-.07 6.68 16.45-.44 21.28-3.57 11.2-6.97 8.97-13.6 5.27-20.81-4.11-6.86-9.69-14.31-14.67-14.91-1.77-.15-3.37.99-4.61 4.39Zm6.14 7.95c.43-.28.86-.55 1.27-.82 5.88 3.71 7.46 15.48-2.46 20.38.4-6.49.79-13.01 1.19-19.56m-66.59.42c-3.27-2.44-11.45-1.87-14.56-.47-2.99 1.25-5.31 6.49-2.66 8.59 2.15 1.57 6.41-.71 8.66 1.47-1.28 2.1-2.69 4.28-4.22 6.54-.9.27-1.81.54-2.72.82-13.84-.87-4.48-28.6 2.61-27.69 2.46 0 10.61 3.13 8.42-3.15-3.16-8.19-10.45-10.49-14.56-8.31-5.05 3.18-12.93 14.08-16.58 26.22-3.58 11.83-2.93 24.91 10.84 25.48 14.32.88 24.94-6.54 28.36-13.07 3.83-6.85.46-12.82-3.57-16.42Zm-114.68-2.67c-2.33 6.35-8.22 18.85-11.21 26.36-1.16 3.09-3.43 8.03 1.4 7.67 9.86-.83 9.5-6.22 12.01-11.71 2.55-.48 5.09-1 7.62-1.49 1.03 2.49 2.19 4.92 3.47 7.28 6.39.56 14.73-2.06 11.84-6.29-3.03-4.3-10.44-16.32-12.53-21.98-1.33-2.98-2.27-6.47-4.44-7.51-5.19-2.57-5.18.06-8.16 7.65Zm8.29 13.7c-1.33.17-2.67.35-4 .52.7-3.67 1.29-7.3 1.76-10.86.58 3.54 1.33 6.99 2.24 10.35Z" class="cls-1"/>
        <path d="M316.55 54.72c13.81-4.84 14-12.39 11.11-20.61-3.09-7.91-9.26-16.49-12.86-16.27-6.7-.81-26.7 45.98 1.75 36.88m-.48-27.16c2.15.52 2.99 8.7 2.88 10.93.04 1.87-1.44 9.4-5.61 7.91-2.75-.92-1.12-18.07 2.74-18.85Z" class="cls-1"/>
        <path d="M288.67 17.89c-6.76-1.81-27.24 46.36 2.16 36.65 24.38-7.47 4.36-34.39-2.16-36.65m.09 28.29c-5.39 1.1-2.89-14.73-.61-17.68 2.11-2.75 3.39 2.79 3.79 4.4.44 2.64 1.74 12.31-3.19 13.28ZM137.04 16.84c-2.07.16-3.28 1.52-4.35 5.21-3.28 10.77-4.36 23.97-7.49 35.94-.05 5.19 11.43 1.67 13.01-2.4 1.03-2.71-.46-7.63.96-9.64 12.82-5.15 13.55-10.61 11.35-16.84-2.47-5.89-7.87-12.56-13.48-12.27m2.04 20.73c.13-3.61.27-7.23.4-10.86 4.77.57 4.47 8-.4 10.86m223.3 1.47c2.41 1.44 10.59 1.1 8.28 5.93-3.14 5.66-9.4.44-13.52 3.13-8.4 5.59-1.9 10.74 5.5 9.11 13.91-2.85 24.8-11.36 19.13-18.48-4.32-7.89-14.03-5.34-14.3-10.15 1-7.63 7.65.23 8.57-5.55.01-4.18-5.05-6.34-7.03-6.42-4.73-.6-17.04 15.05-6.62 22.43Z" class="cls-1"/>
        <path d="M113.25 52.42c21.14-9.2 21-20.95 6.48-28.78-4.4-2.1-13.94-2.82-10.08-9.65 2.56-5.52 10.37 2.39 10.69-4.04-.48-6.27-6.97-9.33-9.95-9.27-5.82-.17-21.54 19.63-9.65 29.91 2.77 2.33 16.97 2.28 12.16 9.07-6.72 8.46-16.08-2.69-21.81 6.45-8.73 13.24 12.03 10.59 22.15 6.3Zm110.02-28.03c-1.05-4.99-8.42-6.87-10.53-6.82-2.7.08-3.79 4.49-4.87 8.74-1.7 6.64-5.45 22.84-5.66 29.76-.12 3.01 2.39 3.87 6.04 3.04 2.04-.46 15.55-5.17 17.49-6 4.14-1.86 5.96-3.62 3.38-5.82-2.84-2.82-9.82-.01-13.9.77.03-2.03.05-4.06.08-6.09 15.17-.6 11.32-10.51.1-8.37.03-2.04.05-4.08.08-6.12 2.76-.12 8.46.5 7.79-3.1Z" class="cls-1"/>
        <path d="M197.91 21.7c-1.09-1.22-2.12-2.05-3.14-2.25-2.05-.63-6.18 3.94-8.69 7.32-7.29 9.19-13.17 35.99 8.71 29.31 5.41-1.55 13.42-5.97 10.45-8.96-2.74-3.72-8.28-.27-10.46-.28-5.43-.47-3.83-10.08-2.07-13.62 2.9-5.68 9.83-3.48 5.2-11.52M10.63 17.26c-.22.2-4.08-2.52-5.32-2.57-.32-.01-.81.08-.88.39-.22 1.13 4.66 4.05 5.68 4.64-.78.2-3.98 2.32-3.86 3.07.37 2.25 5.92-1.66 6.18-1.39-.2.65.18 4.59 1.16 4.39.94-.2-.25-3.82.39-4.65l2.03 1.33c-1.54 5.41-2.45 10.91-.82 16.43.26.89 1.4 3.62 1.91 4.28.27.35.94.74 1.27.24l.49-1.21c-.64-.75-1.67-1-1.53-2.23 1.43.77 1.77-.75.64-1.55l-1.16.77c.72-1.19-.57-1.96-.54-2.97.02-.55.46-.82.47-1.24.04-.96-1.23-.92-.57-2.5.1-.23.54-.42.58-.64.07-.48-.7-.57-.74-1.03-.08-.96.42-1.32.49-1.87.05-.4-.21-.8-.14-1.17.28-1.49.96-2.84 1.23-4.33l2.84.26c-.04-1.12-1.09-1.58-1.79-2.22.38-1.6 1.71-3.21 3.34-3.62.53-.13.99.2 1.03.16.03-.03-.04-.54.26-.9.63-.73 3.57-1.48 2.41-2.73l-2.41.14c3.2-2.85 7.24-5.13 11.52-5.78 4.55-.68 12.13-.51 16.08 1.92 3.88 2.39 8.04 5.94 10.1 10.05-.68-.09-.89-.98-1.42-1.42-.21-.18-.95-.69-1.16-.51.33 1.14 2.16 1.95 1.18 3.11-1.29 1.53-6.1 2.68-8.03 3.29-1.94-4.32 0-8.86 5.3-7.18.69-.66-2.16-1.26-2.49-1.27-7.61-.26-6.01 13.24 1.58 13.68 2.79.16 5.16-1.11 6.02-3.82l.31-2.91c1.09 2.25 1.39 4.67 1.81 7.1.16.91.62 1.27 1.29.52.93-1.05-.87-4.9-.78-6.33.75.21 1.66-.2 2.26-.21 1.05 0-.06 2.21-.18 2.94-.06.38-.17.73.37.62.66-.27 1.33-2.35 1.43-3.1 1.22.53 2.28.62 3.61.52.31-.78-1.59-1.32-1.55-1.42.8-.48 5.71-2.89 5.92-3.38.06-.14.13-.63-.13-.64-2.16-.4-3.87.5-5.79 1.3 1.66-2.48 3.12-5.08 3.88-8 2.17.52 6.93 1.79 6 4.83-.85 2.77-5.52 7.4-7.84 9.22C57.93 39.13 25.99 51.52 8.27 42.43c-1.84-.95-5.4-3.45-4.78-5.83.67-2.57 7.25-6.15 9.65-7.27l.04-.99c-7.01 1.28-17.36 8.13-7.72 14.57 13.18 8.81 37.35 2.72 50.77-3.42 7.86-3.6 22.78-11.7 25.95-20.01 1.76-4.6-3.59-7.19-7.4-7.68-.24-.01-.36.14-.52.28-.52.44-2.71 3.33-3.18 4.05-.93 1.42-1.27 2.75-2.03 4.17-.18.34.13.7-.6.55-.05-3.87 3.85-6.89 2.97-10.84-2.95 2.55-3.59 6.88-3.75 10.59-.96-.63-1.61-4.92-2.96-4.92l-.65.4 1.81 5.42c.33 1.07-1.55-.74-1.8.26-.18.71.92 1.31 1.29 1.8l-1.03.65c-1.57-5.19-4.93-9.36-9.21-12.61-9.98-7.58-24.12-6.05-33.4 1.89-1.33 1.14-2.05 2.69-3.87 3.23l5.28-7.24c.45-.98-.18-1.6-1.15-1.15-2.74 2.44-5.44 4.8-7.49 7.88.82-3.12 2.77-6.65 3.25-9.81.16-1.06-.32-1.85-1.31-1.03-.26.22-1.29 2.1-1.56 2.57-1.15 2.07-2.29 4.6-2.45 6.98-.35.08-.29-.27-.38-.52-.37-1.05-1.53-5.67-2.2-6.07-.33-.19-.68-.13-1.03-.13v4c0 .57.6 2.38.84 3.04.25.7.67 1.33.97 2Zm41.32 9.17c0-.22 2.2-.89 2.41-.85.34.07 1.11 1.05 1.91 1.19 1.26.22 2.66-.75 3.28-1.77.25-.4.62-2.57 1.17-2.06.11.1.26 1.13.27 1.41.34 5.49-6.65 6.39-9.04 2.08" class="cls-1"/>
        <path d="M26.39 49.27v-1.28c-.85.42-1.55-.59-2.59-.26-.57.55 1.7 2.14 2.31 1.82v1.28c2.02.84 2.32-1.72.28-1.56" class="cls-1"/>
        <path d="M20.45 47.86c3.8 5.17 8.79 7.72 15.13 8.36 9.99 1.01 20.07-1.5 26.28-9.8 2.43-3.25 4.15-7.21 4.02-11.34-2.43.49-1.92 1.73-2.45 3.36-.32.98-1.35 1.64-1.18 2.83h-1.03l-.25 1.71-1.3-.15c-.44.68.36 1.11.23 1.62-.34 1.42-5.32 5.12-6.77 5.91-.48.26-.98.48-1.46.73.13-1.58-1.15-.57-.52.51l-3.47 1.05c-.71-1.32-1.38-1-1.42.38-1.64.05-2.79 1.27-4.28.12-.48 1.17-1.23.72-2.32.79-.43-1.97-.97.06-1.81.11-1.63.1-1.17-1.12-1.56-1.16-.71.59-1.47.99-2.42.73-.4-2.09-1.14-.43-1.77-.25-.89.25-2.1-1.09-3.17-1 1.01-1.62-1.28-2.37-1.29-.51-.65-.08-1.16-.8-1.55-1.03-.27-.17-.69-.15-1.16-.51-1.3-1.01-2.73-3.9-4.51-2.46Zm11.74-15.37c2.32 7.87 14.63 7.23 15.33-1.45.31-3.77-2.79-9.53-6.99-9.59-5.41-.07-9.89 5.78-8.34 11.04m4.52 3.49c-1.42-.6-2.7-1.93-2.84-3.48l2.17-.53c1.53 2.59 5.44 2.15 6.93-.32.98-1.63.29-2.93 2.77-3.55 1.73 5.68-3.62 10.18-9.03 7.87Zm6.98-11.63c.43.41 1.68 2.02 1.52 2.55-.27.92-10.14 4.88-11.86 4.3-.83-5.67 5.3-11.57 10.34-6.85M.04 4.73c.49 1.15 2.84-.48 3.2-.37.25.07.6 1.18 1.3 1.02 1-.6-.19-1.27-.12-1.67l1.92-.63c.71-1.18-1.09-1.04-1.9-1.07-.2-2.83-1.29-2.52-1.85-.02l-2.56-.1v.78l1.82.52c0 .24-2.19.65-1.81 1.55Zm59.33 8.72c1.7-.29 3.5-1.19 5.37-1.36 1.72-.15 4.9.85 4.77-1.55-2.45-.45-4.5-.13-6.88.48-.88.23-4.25.96-3.97 2.22.37.53.37.26.71.2Zm12.2 26.4c.32.68 1.54.22 1.78.42.11.09.15 1.68.92 1.52.7-.29.54-1.42.9-1.68.3-.22 1.02-.02 1.3-.51.13-.59-1.01-.86-1.16-1.14-.17-.3.5-1.19-.26-1.56-1.08.79-1.37.89-2.71.52.58 1.77-.02 1.22-.77 2.45ZM43.68 10.8h-5.55c-.84 0-1.22 1.08-1.69 1.41-.74.52-1.76.68-2.31 1.56-.43 1.04 2.14-.26 2.41-.43.54-.36 1.2-1.32 1.65-1.45.79-.23 5.31-.11 5.5-.31v-.77Zm8.78 25.7c-1.18.54-2.86-2.22-2.35.79 2.57 1.35 5.72-1.1 4.38-3.98l-.99-.04c-.13.13.66 2.45-1.04 3.23" class="cls-1"/>
        <path d="M36.45 48.25c-1.09.34-2.59.34-3.67 0-.21-.07-.2-.49-.31-.48-.45.03-2.47.61-1.54 1.29l2.17.24-.51 1.29c1.29.57.79-.49 1.07-.73.16-.14.73.02 1.05-.11.54-.21 1.15-.69 1.75-.97-.05-.12.03-.35 0-.52Z" class="cls-1"/>
        <path d="M37.99 49.53c.02-1.89-.52-1.24-1.54-.77.34.87.52 1.1 1.54.77m40.79-16.8c.1-.07.87-2.12.78-2.4l-.6-.4c-.86.32-2.67-.25-2.09 1.26.22.58 1.15 2.08 1.92 1.54ZM38 14.67l4.13-.51v-.76c-.26-.39-4.19.05-4.13 1.28ZM20.86 41.55c-.71.39-.74 1.05-.68 1.79l1.52-.03c.49-.54-.25-1.87-.85-1.77Zm6.84 7.7h1.49l.05-1.13c-1.04-.74-2.11-.08-1.54 1.13m1.65 1.33 1.16.51.15-1.56c-.89-.73-1.89.11-1.31 1.05m-9.56-8.79c.84-.43.22-1.91-.47-1.79l-.93.88c.34.35.82 1.07 1.4.9Zm3.1.26c.76-.14.34-1.92-.48-1.79-1.12.18-.61 2 .48 1.79m-3.64-6.22c1.01-.17.69-1.92-.19-1.77-1.01.17-.69 1.92.19 1.77m.67 2.86c.63-1.1-.83-2.25-1.43-1.03-.37.76.9 1.21 1.43 1.03m-3.07-5.91-.03 1.26c2.27.37 1.89-1.89.03-1.26m3.75 5.94c-.97.3-.53 1.81.48 1.52.67-.19.55-1.85-.48-1.52m-3.12-3.13-.28 1.31 1.17.23c.4-.75-.12-1.31-.89-1.54m7.09 6.58-.59-.09-.69.62 1.15.9c.54-.51.85-.98.13-1.43m6.53 10.14c.59.61 1.4-.18 1.22-.83-.24-.88-2.32-.31-1.22.83" class="cls-1"/>
    </g>
</svg>
