<svg xmlns="http://www.w3.org/2000/svg" id="Layer_2" data-name="Layer 2" viewBox="0 0 457.63 158.66">
    <defs>
        <style>
            .cls-1{fill:#a5a5a8}.cls-2{fill:#434342}.cls-3{fill:#252427}.cls-4{fill:#111}.cls-9{fill:#706e72}.cls-11{fill:#010101}.cls-15{fill:#060605}.cls-16{fill:#939292}.cls-17{fill:#373637}.cls-19{fill:#030303}.cls-20{fill:#7b7c7c}.cls-22{fill:#313132}.cls-29{fill:#1e1e1e}.cls-31{fill:#434243}.cls-35{fill:#212121}.cls-37{fill:#121111}.cls-39{fill:#272727}.cls-40{fill:#8c8b8c}.cls-41{fill:#4d4c4e}.cls-42{fill:#1f1c1e}.cls-45{fill:#222122}.cls-49{fill:#525353}.cls-50{fill:#424145}.cls-52{fill:#020202}.cls-54{fill:#1e1e1f}.cls-61{fill:#121211}.cls-62{fill:#424043}.cls-63{fill:#242424}.cls-65{fill:#403e3f}.cls-68{fill:#626364}.cls-70{fill:#0b090b}.cls-74{fill:#282829}.cls-76{fill:#282828}.cls-77{fill:#100f0f}.cls-80{fill:#959795}.cls-81{fill:#2e2d2d}.cls-83{fill:#615f61}.cls-89{fill:#151414}.cls-94{fill:#4b4c4c}.cls-96{fill:#191919}.cls-102{fill:#2f2e30}.cls-103{fill:#1b1b1b}.cls-106{fill:#3e3d3e}.cls-107{fill:#0f0e0f}
        </style>
    </defs>
    <g id="Layer_1-2" data-name="Layer 1">
        <path d="M435.45 105.44c-.33.63-1.52 1.31-2 2-1.73 9.82-8.86 23.48-19.01 26.6-2.02.62-3.55 1.03-5.37 1.56-23.89 6.88-47.52 2.02-72.16 2.8-22.57.72-39.41.66-61.92 0-36.11-1.06-72.34.69-108.54.04-11.82-.21-23.68.16-35.51.02-1.69-.02-4.45.64-5.49-1.02-26.01-.3-83.23.89-104.7-11.8C8.21 118.22 3.68 100.68 4.4 86.9c.92-17.64 11.04-32.58 17.52-48.48C36.86 25.38 57.35 20.59 76.9 19.4c11.02-.67 21.86.31 32.54 2.03-.61-1.73-2.39-2.82-4-3.49-18.28-7.65-68.3-1.35-83.92 11.09C.63 45.67-8.22 101.71 9.47 122.91c6.2 7.43 22.21 15.07 31.73 16.27 42.11 5.29 85.34 3.91 127.7 6.3 4.92.28 15.66-2.21 16.56 2.96 3.95-5.13 7.39-1.3 11.26-1.31 8.58 0 17.43-1.62 25.15-1.77 17.9-.34 35.7 1 53.57 1.08h3c7.32.03 14.68 0 22 0h2c30.88-.02 64.08.55 94.51-2.09 1.81-.16 4.2.93 5.06.78.99-.17 1.53-2.58 3.11-3.51 4.32-2.53 9.82-1.84 13.71-2.17.81-.07.83-1.85 1.68-2.39 11.74-7.4 12.71-13.21 16.92-25.62.08-2.6.75-4.84-2-6Z" class="cls-11"/>
        <path d="M121.46 81.95c-.56-6.58-6.68-10.69-7.79-16.24-1.35-6.78 1.9-13.37-5.72-18.28-2.16-1.39-4.48-1.4-6.44-2.56-3.06-1.81-4.85-4.96-9.07-7.43-2.77.63-3.03 1.71-4 4 3.62.26 4.1 4.06 5 5 .55.57 1.47 1.53 2 2 2.9 2.6 7.89 3.22 10 6 2.02 2.66 1.15 5.16 2 7.99-.66 0-1.33.04-2 0 .1.64-.15 1.48 0 2 .2.69.78 1.34 1 2 .06.18 1.03.49 1.05 1.52.03 1.16-.93 1.25-1.05 1.48-.19.36-.78.64-1 1-.73 1.19-2.95 4.23-2.95 4.5 0 .62 6.62 9.92 8.95 4.5.8.07 2.86 4.93 3 6 .99 7.48-4.28 7.63-6.06 10.68-.91 1.55-.67 4.84-1.05 5.21-.35.34-10.07 1.13-.87 3.13-.03 2.71-2.85 2.81-3.01 2.99-1.89 2.08-2.05 2.22-4 4-.65.59-1.06 1.23-2 2-.56.45-1 1.26-2 2-1.12.84-1.69 1.3-3 2-.14.14-.28.25-.41.34-.53.54-1.1 1.41-2.09 1.41-1.27 0-1.98-1.54-2.5-1.75-.14-.05-.89-.07-1 0-.14.14-.26.22-.38.27-1.45 1.23.42 2.68-4.62 1.73-.71-.13-1.96-.73-3-1-.8-.21-2.06.15-3 0-.05-1.41.78-2.65 1-3.99v-.46c-.02-.18-.03-.37 0-.54-1.16 1.46-5.11 4.41-6.52 4.99-2.79 1.14-.54-3.51-.48-3.99-.47.24-2.08-.31-3.03.45-1.25 1-.49 5.49-2.99 3.07-.16-.16-1.89-3.22-1.98-3.52l-2 2c.13.64.16 1.13.1 1.51.9.87 2.26-.01 1.89 1.48-1.52.63-2.65-.34-3.54-.8-.15-.05-.29-.11-.46-.19-.78-.19-2.45.33-2.94-.06-.1-.08.76-1.56.42-1.98-.74-.92-2.31-.64-3.17-1.28-1.33-.99-.59-3.17-3.82-2.7-.83.12.13 5.21-5.49-.98-2.32-.04-5 2.22-6-.99 1.67.68 3.22-.88 4-1.01-2.05-.53-4.61-.39-4-3-.4 0-1.15-.98-1.53-.99-.59 0-.02 2.76-1.95 1.98-2.2-.89-2.13-3.22.48-3.49-.45-.8-1.36-1.05-2-1.5-.3-.22-1.67.26-2.51-.99-.7-1.04-.25-2.51-.49-3.01-.11-.22-1.31-.44-1.68-1.63-.34-1.09.43-3.06-.32-4.37-.16-.08-.9.08-1.71-.29-.18-.08-1.43-2.81-2.79-2.68-1.85.17-1.48 4.58-1.5 5.98-.18 21.69 25.64 31.58 43.54 32.04 5.48.14 11.27.53 16.79.57 7.48.06 14.34-1.1 20.14-5.65 10.92-8.57 21.74-26.23 20.54-40.46Z" class="cls-11"/>
        <path d="M431.49 60.9c.98 3.19 1.51 10.97 2.42 12.6.61 1.09 4.13.11 4.4-.18 1.44-1.54-1.85-16.52-2.83-19.41-2.66-7.79-11.23-19.69-18.37-23.63-13.63-7.51-50.26-6.23-67.21-6.79-43.34-1.45-86.64-.14-130.02-1.07-7.98-.17-16.53-1.04-23.94-1.04-6.9 0-13.63 2.48-20.01 3.05-6.76.61-13.94-2.47-19.49 1.52.57 4.16 3.91 1.24 6.49 1.4 9.2.57 11.5-.32 19.97-.95 6.99-.52 13.34 1.18 20.08 1.08 61.72-.87 124.14-2.43 185.99.91 25.92 1.4 34.77 7.42 42.51 32.49Z" class="cls-19"/>
        <path d="M310.93 99.44c1.3 2.62 6.8 2.81 7.52.5.81-2.63 0-15.03 0-19 0-.82-2.15-6.21-2.95-7.05-6.51-6.85-13.57 2.53-14.55 2.53-.33 0-2.46-2.75-3.59-3.4-4.68-2.68-7.95-.29-11.9 2.42.39-3.56-2.07-5-5.38-3.88-3.39 1.15-.66 9.11-.58 12.33.15 6.38-4.18 24.21 6.45 16.55.82-4.26-.77-21 5.99-21.04 5.87-.03.64 18.97 5.51 21.6 7.74 4.17 2.8-15.02 7.46-19.59 9.14-8.98 5.1 16.19 6.02 18.04Z" class="cls-11"/>
        <path d="M26.45 92.44c.27.14.76-.14 1 0-3.11-5.3-4.91-7.94-4.06-14.57.49-3.85 2.83-2.97 3.1-4.12.49-2.13.85-7.09 1.69-8.97 4.75-10.64 7.35-6.36 14.24-10.87 3.24-2.12 4.23-7.67 7.06-8.94 1.2-.54 8.95-2.01 10.76-2.22 7.53-.87 14.62 1.19 22.21-2.29-1.81 3.19-8.09 5.26-8.01 9.54.1 4.79 5.41.84 7.56.5 5.41-.84 6.97.94 10.95 3.92l2.49-5.98c-2.47 1.47-3.39.47-2-2l-3.81-.45c-.05.14-.11.29-.2.45l-4.5-1 4.69.55c.77-2.21-2.22-2.75-2.22-3.07 0-1.4.98-1.37 1.03-1.49-3.28-2.34.85-6.5 4-4-.26-.15-.5-1.25-1.73-1.74-7.12-2.81-11.29 1.96-16.85 2.7-7.39.98-14.13-1.67-23.67 1.28-6.58 2.03-7.11 7.34-11.39 10.62-2.4 1.84-6.37 2.44-8.87 4.13-6.05 4.1-13.72 21.91-12.41 29.43l2.92 11.58c-1.78-8.19 1.19-11.15 6-3Z" class="cls-15"/>
        <path d="M88.45 41.44c.97-2.29 1.23-3.37 4-4-3.15-2.5-7.28 1.66-4 4m7 7c-.53-.47-1.45-1.43-2-2-1.39 2.47-.47 3.47 2 2M21.94 89.47c1.36-.12 2.62 2.6 2.79 2.68.81.37 1.55.21 1.71.29-4.81-8.15-7.78-5.19-6 3 .01-1.4-.36-5.81 1.5-5.98Z" class="cls-15"/>
        <path d="M434.14 86.24c-.24.03-.47.09-.69.2.27.08.51-.02.69-.2m5.31 18.2c-.18.27-.34.62-.48 1.02.19-.23.35-.56.48-1.02" class="cls-11"/>
        <path d="M434.45 75.45c-.02 2.23 1.77 4.25 3 5.99.56.8 1.66 2.64 2 3 .37.39 1.96.99 3 2 .07.07 1.17-.12 1 .99-1.98-.07-4.02.14-6 .01-2.11-.13-3.31-.93-4-1-6.21-.68-21.95-2.38-27.3-.8-3.21.95-3.42 5.96-1.81 8.22 1.13 1.58 29.74 0 34.11.59-.04.65.07 1.35 0 1.99-.26 2.27-2.76 4.19-2 7l3 1c1.86-2.7 14.39-8.41 16.99-11.5 1.64-1.95 1.54-4.13 0-5.99-1.41-1.7-20.38-12.94-21.98-11.5Z" class="cls-11"/>
        <path d="M192.87 99.51c5.84 2.33 8.21-1.28 10.91-.83 1.46.24 3.12 2.97 5.02 2.62 4.6-.86 1.08-12.21.65-15.37-1.08-7.87.07-17.64-12.39-16.45-7.76.74-10.32 7.95-5.17 7.97 3.48 0 10.53-6.61 10.53 3.99-11.43-5.29-23.13 12.66-9.57 18.07Zm9.58-13.07c.88 5.64-1.04 8.52-6.9 7.91-2.95-6.36.57-8.72 6.9-7.91" class="cls-52"/>
        <path d="M252.93 98.44c1.54 3.08 7.52 2.25 7.52.5v-17c0-5.64-5.08-12.15-11.23-11.33-2.38.32-4.97 2.82-5.27 2.81-.49-.02-5.73-8.36-7.5-2.48-1.16 3.85 0 23.22 0 29 0 1.74 5.07 2.44 6.5-.5 2.38-4.89-1.92-12.68 2.96-19.04 4.68-6.08 6.8-.76 7.42 4.65.46 3.96-1.49 11.21-.4 13.39" class="cls-11"/>
        <path d="M389.37 85.86c7.45-4.1 1.17-18.21-9.19-17.2-12.68 1.24-16.59 27.96-.79 31.33 4.88 1.04 13.73-.04 11.62-6.61-1.79-2.61-8.05 2.22-12.52-1.48-6.75-5.57 7.26-4.04 10.88-6.04m-12.92-4.42c-.41-5.2 8.33-9.61 9.05-3.48.58 4.99-5.69 3.3-9.05 3.48m-193.51 2.01c2.66-5.54-2.33-13.96-8.26-14.81-17.37-2.49-21.68 35.53 2.21 31.75 6.84-1.08 7.84-8.97 1.3-7.77-1.17.21-2.32 1.47-3.48 1.66-3.39.57-7.22-3.41-7.26-6.83 3.58.35 13.78-.43 15.49-4m-15.49-2.01c-.6-4.7 6.09-9.93 8.51-4.99 2.93 5.96-4.47 5.25-8.51 4.99" class="cls-52"/>
        <path d="M156.78 93.6c-2.43-.84-11.55.5-12.28-.22-1.3-1.28.65-27.33-.12-32.37-.97-6.33-7.16-6.27-7.98-.11-.5 3.75-.3 36.82.54 38.55 1.34 2.76 14.89 2.56 17.98 1.97 4.39-.83 5.93-6.41 1.86-7.81Z" class="cls-19"/>
        <path d="M333.19 71.65c-14.12 2.75-13.93 29.65.74 29.82 16.21.19 17.31-33.33-.74-29.82m1.71 22.84c-7.13.69-6.4-14.61-.74-15.9 7.84-1.8 6.8 15.32.74 15.9" class="cls-52"/>
        <path d="M226.08 78.58c1.16-.9 11.62-3.79 6.79-7.24-4.8-3.42-10.28 2.85-11.37 2.06-.65-.47-1.85-6.39-5.9-1.31.97 4.99-.18 25.45 1.75 27.94 1.44 1.85 3.84 1.98 5.64.41 2.77-2.42-2.79-17.29 3.09-21.86" style="fill:#030202"/>
        <path d="M368.26 73.09c-1.37-7.12-11.26.77-11.79.35-.29-.23.15-2.82-2.53-3.09-7.22-.72-2.81 10.46-2.51 14.6.22 3.03-.85 13.79.94 15.05 1.38.98 5.53.7 6.07-1.07.75-2.43 0-13.36 0-17 0-5.15 10.73-4.07 9.81-8.85Z" class="cls-19"/>
        <path d="M136.61 11.61c.37-.6 4.04-.85 4.81-2.69 1.55-3.66-2.76-1.73-4.51-3.44-1.38-1.35-1.28-4.87-1.48-5.04-2.48-2.07-4.57 3.79-5.99 4.5-1.86.93-4.54-.12-5.99 2.02-.91 2.09 2.57 1.54 2.77 2.91.1.69-1.27 3.12-.78 3.57.27.25 4.16-.41 6.02.49 1.61.78 2.33 6.16 4.5 2.53.89-1.49.03-3.86.64-4.86Z" style="fill:#080707"/>
        <path d="M140.87 32.33c-1.04 1.7-3.44 2.62-1.16 4.86.48.47 6.32 3.51 6.71 3.24.39-3.48 4.78-4.25 4.03-7.98-3.84 1.36-5.52-2.34-6.24-2.72-3.4-1.78-2.39 1.05-3.34 2.6" style="fill:#080807"/>
        <path d="M163.66 137.14c-12.4.7-25.73.45-38.21.3 13.37.58 27.03.92 41 1 .41-3.47-1.09-1.4-2.79-1.3" class="cls-16"/>
        <path d="M130.93 138.46c11.83.15 23.7-.23 35.51-.02-13.97-.08-27.63-.42-41-1 1.04 1.66 3.79 1 5.49 1.02" class="cls-16"/>
        <path d="M435.45 105.44c.3-.59.27-1.5 1-2-3.22-.47-1.11-6.74 2-7-7.21-1.56-4.27 6.85-5 11 .45-2.05 1.11-2.72 2-2" class="cls-74"/>
        <path d="M435.45 105.44c-.89-.72-1.55-.05-2 2 .48-.69 1.67-1.37 2-2m1-2c-.76-2.81 1.74-4.73 2-7-3.11.26-5.22 6.53-2 7" class="cls-74"/>
        <path d="M438.45 85.44c.34-.33.68-.65 1-1-2.38 1.67-3.93-.94-2-3-5.12.13-3.64 1.18-3 4l3 1c.25-.42.66-.67 1-1" class="cls-76"/>
        <path d="M439.45 84.44c-.34-.36-1.44-2.2-2-3-1.93 2.06-.38 4.67 2 3" class="cls-76"/>
        <path d="M213.44 155.44c1.93-1.93-3.18-6.18-3.99-2.48-.46 2.11 3.26 3.21 3.99 2.48" style="fill:#303030"/>
        <path d="M203.44 151.45c-1.31-1.32-5.93 1.74-2.48 2.98 2.95 1.06 3.23-2.23 2.48-2.98" style="fill:#1a1b1b"/>
        <path d="M275.45 146.44c1.34 2.76-2.01 4.68 3 4v-4c-.92 1.94-2.09 1.94-3 0" class="cls-49"/>
        <path d="M278.45 146.44h-3c.91 1.94 2.09 1.94 3 0" class="cls-49"/>
        <path d="M273.44 153.45c-1.59-1.59-4.58 1.4-2.99 2.99s4.58-1.4 2.99-2.99" style="fill:#363636"/>
        <path d="M328.95 153.46c-1.03.01-2.11 3.31-1.49 3.98 1.77 1.91 4.48-4 1.49-3.98" class="cls-29"/>
        <path d="M351.44 154.45c-1.59-1.59-4.58 1.4-2.99 2.99s4.58-1.4 2.99-2.99" style="fill:#2e2e2e"/>
        <path d="M126.47 121.94c.01 1.03 3.31 2.11 3.98 1.49 1.91-1.77-4-4.48-3.98-1.49" style="fill:#2c2c2c"/>
        <path d="M35.44 35.44c1.91-1.77-4-4.48-3.98-1.49.01 1.03 3.31 2.11 3.98 1.49" style="fill:#464646"/>
        <path d="M124.44 114.45c-1.77-1.91-4.48 4-1.49 3.98 1.03-.01 2.11-3.31 1.49-3.98" style="fill:#1e1f1f"/>
        <path d="M149.95 119.46c-1.7-.02-1.77 3.94 0 3.96 1.7.02 1.77-3.94 0-3.96" style="fill:#5f5f60"/>
        <path d="M174.44 120.46c-.13-.16-3.8-1.2-3.99-1.01-2.39 2.34 6.72 4.36 3.99 1.01" style="fill:#8e8e8f"/>
        <path d="M423.45 158.44c.94 1.07 4.06-2.03 2.99-2.99-1.69-1.5-4.5 1.28-2.99 2.99" style="fill:#424242"/>
        <path d="M263.44 153.45c-1.69-1.5-4.5 1.28-2.99 2.99.94 1.07 4.06-2.03 2.99-2.99" style="fill:#3b3b3b"/>
        <path d="M107.45 122.44c.97 1.05 4.57-1.88 1.48-2.99-2.11-.76-1.82 2.62-1.48 2.99" style="fill:#4c4c4d"/>
        <path d="M133.96 128.43c2.11.76 1.82-2.62 1.48-2.99-.97-1.05-4.57 1.88-1.48 2.99" style="fill:#222"/>
        <path d="M144.96 128.43c2.11.76 1.82-2.62 1.48-2.99-.97-1.05-4.57 1.88-1.48 2.99" style="fill:#3a3a39"/>
        <path d="M175.44 136.44c.87-1.96-1.55-5.13-2.99-3.99-.2.15 1.75 4.01 2.99 3.99" style="fill:#8a898a"/>
        <path d="M228.44 146.45c-.37-.34-3.74-.63-2.99 1.48 1.11 3.09 4.03-.51 2.99-1.48" style="fill:#494949"/>
        <path d="M257.44 147.45c-.97-1.05-4.57 1.88-1.48 2.99 2.11.76 1.82-2.62 1.48-2.99" style="fill:#313131"/>
        <path d="M223.44 152.45c-.37-.34-3.74-.63-2.99 1.48 1.11 3.09 4.03-.51 2.99-1.48" style="fill:#141415"/>
        <path d="M252.44 153.45c-.37-.34-3.74-.63-2.99 1.48 1.11 3.09 4.03-.51 2.99-1.48" style="fill:#333233"/>
        <path d="M414.93 155.45c-2.11-.76-1.82 2.62-1.48 2.99.97 1.05 4.57-1.88 1.48-2.99" style="fill:#575758"/>
        <path d="M293.44 153.45c-1.51-1.51-4.26 2.97-1.49 2.97.66 0 2.07-2.4 1.49-2.97" style="fill:#414140"/>
        <path d="M368.45 155.45h2.99v1.99h-2.99z" class="cls-35"/>
        <path d="M379.45 155.45h2.99v1.99h-2.99z" class="cls-76"/>
        <path d="M189.45 152.45h2.99v1.99h-2.99z" style="fill:#2b2b2b"/>
        <path d="M10.45 85.45h1.99v2.99h-1.99z" class="cls-19"/>
        <path d="M265.45 147.45h2.99v1.99h-2.99z" style="fill:#292828"/>
        <path d="M300.45 146.44c0 1.49.77 3.19 2.49 3.01l-.49-3.01c-.45 1.86-1.24 1.7-2 0" class="cls-40"/>
        <path d="M302.45 146.44h-2c.76 1.7 1.55 1.86 2 0" class="cls-40"/>
        <path d="M155.45 18.45h1.99v2.99h-1.99z" style="fill:#0a080a"/>
        <path d="M159.45 131.45h2.99v1.99h-2.99z" style="fill:#808182"/>
        <path d="M138.45 131.45h1.99v2.99h-1.99z" style="fill:#474747"/>
        <path d="M99.45 127.45h1.99v2.99h-1.99z" style="fill:#8a8b8b"/>
        <path d="M164.45 125.45c.53 1.99 2.13 2.25 4 1.98-.53-1.99-2.13-2.25-4-1.98" style="fill:#4a494a"/>
        <path d="M122.45 125.45h1.99v2.99h-1.99z" style="fill:#444545"/>
        <path d="M112.45 125.45h2.99v1.99h-2.99z" style="fill:#424142"/>
        <path d="m141.45 121.45-3.99.49c1.55 2.18 3.08 1.94 3.99-.49" style="fill:#312f31"/>
        <path d="M117.45 120.45h1.99v2.99h-1.99z" style="fill:#3c3d3d"/>
        <path d="M114.43 115.94c0-.66-2.4-2.07-2.97-1.49-1.51 1.51 2.97 4.26 2.97 1.49" style="fill:#404140"/>
        <path d="M154.46 114.44v2.99h1.98c.31-1.38-.54-2.66-1.98-2.99" style="fill:#373537"/>
        <path d="M134.44 115.45h-1.99c-.32 1.47.44 2.08 1.5 2.99z" class="cls-35"/>
        <path d="M420.95 109.46c-1.5 0-1.5 2.96 0 2.96s1.5-2.96 0-2.96" style="fill:#040404"/>
        <path d="M153.45 127.43h2.99v-1.98c-1.38-.31-2.66.54-2.99 1.98" style="fill:#0f0f0d"/>
        <path d="M151.44 133.44v-1.99l-2.99.49c.91 1.06 1.52 1.82 2.99 1.5" style="fill:#0b0a0a"/>
        <path d="M399.46 135.44c1.45-.34 2.29-1.61 1.98-2.99h-1.99v2.99Z" style="fill:#3c3b3c"/>
        <path d="m434.95 147.44.49-2.99h-1.99c-.32 1.47.44 2.08 1.5 2.99" class="cls-89"/>
        <path d="M236.44 147.45h-1.99v2.99c1.45-.34 2.29-1.61 1.98-2.99Z" style="fill:#1e1d1e"/>
        <path d="M435.11 86.27c-.31-.22-.56-.5-.66-.83.05.24-.08.58-.31.8.32-.05.64-.04.97.03m1.35.5c.35.19.69.42.99.67v-1c-.2.27-.57.36-.99.33" class="cls-2"/>
        <path d="M436.46 86.77c-.45-.03-.95-.21-1.35-.5-.33-.06-.66-.07-.97-.03-.18.18-.42.28-.69.2.69.07 1.89.87 4 1-.3-.25-.63-.48-.99-.67m-1.35-.5c.46.09.92.26 1.35.5.41.03.79-.06.99-.33l-3-1c.1.33.35.61.66.83" class="cls-2"/>
        <path d="M436.46 86.77a4.6 4.6 0 0 0-1.35-.5c.4.29.9.47 1.35.5" class="cls-2"/>
        <path d="M332.45 150.43h2.99v-1.98c-1.38-.31-2.66.54-2.99 1.98" style="fill:#2f2f2e"/>
        <path d="M429.95 149.46c-1.5 0-1.5 2.96 0 2.96s1.5-2.96 0-2.96"/>
        <path d="M242.45 153.45h-2.99v1.98c1.38.31 2.66-.54 2.99-1.98" style="fill:#2a292a"/>
        <path d="M359.95 154.46c-1.5 0-1.5 2.96 0 2.96s1.5-2.96 0-2.96" style="fill:#010001"/>
        <path d="M27.59 93.15c-.05-.23-.11-.46-.14-.71-.06.19-.13.34-.2.44.12.08.23.17.34.26Zm4.86 5.29c.63.1 1.35-.07 2 0-2.68-.53-4.59-1.5-5.74-2.92.07.91-.08 1.91-.26 2.92 1.59-.62 2.6-.22 4 0" class="cls-63"/>
        <path d="M28.71 95.52c-.56-.68-.92-1.48-1.12-2.38-.1-.09-.22-.18-.34-.26-.23.36-.5.21-.8-.44.75 1.31-.02 3.28.32 4.37.37 1.19 1.57 1.4 1.68 1.63.18-1.01.34-2.01.26-2.92" class="cls-63"/>
        <path d="M27.45 92.44c-.24-.14-.73.14-1 0 .31.13.57.28.8.44.07-.11.13-.25.2-.44" class="cls-63"/>
        <path d="M27.25 92.88c-.23-.16-.5-.31-.8-.44.3.65.57.8.8.44m1.46 2.64c1.15 1.42 3.06 2.39 5.74 2.92-2.91-2.87-3.06-3.66-7-6 .03.25.09.47.14.71.74.64 1.04 1.46 1.12 2.38Z" class="cls-63"/>
        <path d="M27.59 93.15c.2.89.56 1.69 1.12 2.38-.07-.91-.38-1.73-1.12-2.38" class="cls-63"/>
        <path d="m41.45 109.44 1-4c-1.89 1.58-2.46 1.39-3-1-.38.11-1.25 1.8-2 2-.26.07-.66 0-1 0 2.29.25 3.62 1.25 4 3 .25-.04.85-.07 1 0" class="cls-37"/>
        <path d="M36.45 106.44c-.61 2.61 1.95 2.47 4 3-.38-1.75-1.71-2.75-4-3m6-1c-.76-.78-1.99-1.28-3-1 .54 2.39 1.11 2.58 3 1" class="cls-37"/>
        <path d="M76.45 111.44c.57.07 1 .15 1.31.24.13-.07.27-.13.41-.16-.45-.51-.7-1.11-.78-1.79-.29.74-.89 1.38-.95 1.71Zm0 2v.54c.01.16.02.31 0 .46.05-.41.13-.78.22-1.11-.07.04-.14.07-.22.11m0 .54v-.54c-.03.17-.02.36 0 .54" class="cls-102"/>
        <path d="M77.4 109.73c.07.68.33 1.28.78 1.79 1.01-.24 2.43.4 4.27 1.92-1.25-1.23-3.82-3.74-5-5 .18.44.11.88-.05 1.29m.36 1.95c-.31-.09-.74-.17-1.31-.24-.12.61.11 1.38 0 2 .08-.04.15-.07.22-.11.23-.83.6-1.37 1.09-1.65m2.95 1.33c-1.13-.36-1.98-.86-2.53-1.49-.15.03-.28.09-.41.16 1.09.32.6.82-1.09 1.65-.09.33-.17.69-.22 1.11.53-1.09 2.67-1.49 4.26-1.43Z" class="cls-102"/>
        <path d="M78.18 111.52c.55.63 1.4 1.12 2.53 1.49.82.03 1.51.18 1.74.43-1.84-1.52-3.26-2.16-4.27-1.92m-1.51 1.81c1.69-.83 2.18-1.33 1.09-1.65-.49.28-.86.82-1.09 1.65" class="cls-102"/>
        <path d="M85.44 116.73q-.03-.51 0-1.29c-.83.39-1.49.58-1.99.54-.44.74-1.38 1.42-2.4 1.88.33.26.46.77.38 1.59.61-2.13 3.39-1.42 3.99-2.71Z" class="cls-17"/>
        <path d="M81.06 117.85c-.89.4-1.85.64-2.62.59 1.04.27 2.29.87 3 1 .08-.81-.06-1.33-.38-1.59m2.4-1.87c.49.04 1.15-.14 1.99-.54-1.47-1.87-2.76-1.76-3-2 1.39.76 1.52 1.69 1.01 2.54" class="cls-17"/>
        <path d="M85.44 116.73c.14-.3.16-.71 0-1.29q-.045.78 0 1.29m-4.38 1.12c1.02-.46 1.95-1.14 2.4-1.88-.6-.05-.93-.46-1.03-1.24-.79 1.35-3.31 2.97-3.99 3.71 1.29-.77 2.15-.95 2.62-.59" class="cls-17"/>
        <path d="M78.45 118.44c.77.05 1.72-.19 2.62-.59-.47-.37-1.33-.18-2.62.59m3.98-3.7c.09.79.43 1.19 1.03 1.24.51-.85.38-1.78-1.01-2.54.34.36.27.81-.01 1.29Z" class="cls-17"/>
        <path d="M102.45 69.44c1.06-2.35 2.17-2.33 2.72-.54.14 0 .32.05.52.14-.67-.79-.42-2.49.76-2.6-2.67.46-2.91-.07-1-2-1.04.59-1.95 1.45-3 2-.05.75-1.23 1.78 0 3" class="cls-89"/>
        <path d="M106.45 66.44c-.22-.66-.8-1.31-1-2-1.91 1.93-1.67 2.46 1 2m-.76 2.6c-.21-.09-.39-.14-.52-.14.13.42.22.94.28 1.54.22-.36.81-.64 1-1-.32-.03-.57-.18-.76-.4m-.52-.14c-.54-1.78-1.66-1.81-2.72.54 1.05 0 2.11.47 3 1-.8-1-.82-1.56-.28-1.54" class="cls-89"/>
        <path d="M105.45 70.44c-.06-.61-.15-1.12-.28-1.54-.54-.02-.52.54.28 1.54" class="cls-89"/>
        <path d="M97.24 110.91c.37-.21 1.08-.06 2.21.53l-1-2c-.3.56-.72 1.04-1.21 1.47m-.18.17c-.7.58-1.56 1.04-2.61 1.37.49 0 2.71.36 3 1-.49-1.2-.62-1.98-.39-2.37" class="cls-22"/>
        <path d="M97.24 110.91c-.06.05-.12.11-.18.17-.24.38-.11 1.16.39 2.37.94-.77 1.35-1.41 2-2-1.13-.59-1.84-.74-2.21-.53Z" class="cls-22"/>
        <path d="M97.24 110.91c.48-.43.9-.91 1.21-1.47-.29.11-3.55-2.1-4 3 1.05-.33 1.91-.79 2.61-1.37.04-.07.11-.12.18-.17Z" class="cls-22"/>
        <path d="M97.06 111.08c.06-.05.12-.11.18-.17-.07.04-.13.09-.18.17" class="cls-22"/>
        <path d="M92.45 113.44c-.3.86-.63.85-1 0-.57.51-.94 1.14-1.12 1.76.14.57.15 1.15.04 1.63.18.37.49.64.96.72.35-.03.71-.07 1.12-.11-.62-2.63.84-3.37 3-2-.32-.41-.48-.77-.54-1.06-.76-.9-1.86-.62-2.46-.94" class="cls-39"/>
        <path d="M92.45 117.44c1.31-.7 1.88-1.16 3-2-2.16-1.37-3.62-.63-3 2m0 0c-.41.04-.77.08-1.12.11.31.05.68.03 1.12-.11m3-2c-.14-.47-.33-.81-.54-1.06.06.3.22.65.54 1.06m-3 2c-.14.07-.28.2-.41.34.13-.09.27-.2.41-.34m-2.91-2.43c-.04.53.03 1.1.18 1.61.19-.43.11-1-.18-1.61m2.91-1.57c-.27-.14-.79.15-1 0 .37.85.7.86 1 0m-2.08 3.39c.11-.49.09-1.06-.04-1.63-.18.61-.17 1.19.04 1.63" class="cls-39"/>
        <path d="M114.45 85.44c-.14-1.07-2.2-5.93-3-6 .46 2.61.88 4.22 3 6" class="cls-83"/>
        <path d="M114.45 85.44c-2.09-1.35-2.82-3.64-3-6-.09.77-.26 1.39-.5 1.87-.31 2.13.61 3.49 3.5 4.13" class="cls-83"/>
        <path d="M114.45 85.44c-2.12-1.78-2.54-3.39-3-6 .18 2.36.91 4.65 3 6m-3-6c-.25.68-.41 1.3-.5 1.87.23-.49.41-1.1.5-1.87" class="cls-83"/>
        <path d="M106.45 69.44c.12-.23 1.08-.32 1.05-1.48-.02-1.03-.99-1.35-1.05-1.52q.24 1.29 0 3m-.76-.4c.22.09.47.21.76.4q-.495-1.365 0-3c-1.18.11-1.43 1.81-.76 2.6" class="cls-20"/>
        <path d="M106.45 69.44a4.4 4.4 0 0 0-.76-.4c.18.22.43.37.76.4m0 0q.24-1.71 0-3-.495 1.635 0 3" class="cls-20"/>
        <path d="M57.91 118.63c.89.46 2.01 1.43 3.54.8.36-1.49-.99-.61-1.89-1.48-.12.81-.67 1.04-1.64.68Zm-.46-.19c.99-.41 1.66-.97 2-2-.67.67-1.3 1.37-2 2" class="cls-80"/>
        <path d="M57.45 118.44c.14.04.3.11.46.19.98.36 1.52.13 1.64-.68-.04-.04-.09-.08-.13-.13l.03-1.38c-.34 1.03-1.01 1.59-2 2" class="cls-80"/>
        <path d="M67.49 86.06c-.44 4.43 3.81 12.59 8.47 12.35 4.01-.21-3.97-9.26-4.19-10.65-.77-4.94 2.94-4.01 3.45-4.55.53-.56-.03-2.24.35-2.61.57-.56 2.5.2 3.62-.4.83-.45 1.89-3.6 5.01-4.51 5.46-1.58 3.31.52 4.24 1.75 4-2.28 6.52.79 2 1 1.1 1.18 2.25 3.26 3.31 4.64 1.2 1.56 4.89 2.09 1.77 5.96-.24.3-3.85 2.38-4.08 2.41v1c1.07.21 1.52 1.65 2 2 .45.33 2.05-.3 2.49 2 4.45-3.68 5.27-5.37 5.51-11 .04-.94.11-2.09 0-3-2.58-21.09-32.28-13.32-33.96 3.62Zm33.96-.62c.55-.55.94-1.02 1.19-1.42-.41.13-.83.51-1.19 1.42" style="fill:#050404"/>
        <path d="m64.44 59.44-.11-.14c.08.12.12.17.11.14m-3.99-5c.08 0 .19-.03.3-.08-.1 0-.2.04-.3.08" class="cls-107"/>
        <path d="m62.45 53.44 2 5.99s-.03-.02-.11-.14l-3.89-4.86c-1.19-.04-2.75-.69-4-1 .28 1.47-.2 1.97-1 3-2.72 3.52-7.38 4.02-5.99 10 1.9-.86 1.76-3 4.07-4.42 8.69-5.36 6.98 2.03 8.06 3.32.45.53 2.19-.1 2.86.1.49-.39 1.74-.65 2-1 3.21-4.31 2.44-10.93-4-11Z" class="cls-107"/>
        <path d="M34.45 84.45c.67-.64 4.29 2 2.99-4.5 3.54.87 1.7-.32 1.01-2.5-.32-1-.4-2.09-1-3-.81-.18-2.09-3.12-5.01-1.5-1.85 1.03.85 4.18 1 5.5l-6-1.98c.73 2.64 6.04 3.62 6.01 6.48 0 .81-7.11 2.76-6.01 5.5 3.49-.53 9.99 9.45 10.05 1.61 0-.34-5.2-3.55-3.05-5.6ZM38 74.46c-.17 0-.35-.01-.55-.01.16.04.34.03.55.01" style="fill:#1d1c1d"/>
        <path d="M59.99 109.75c-.19-.08-.37-.17-.54-.31v1c.17-.28.35-.5.54-.69m2.35-.2c.58.58.78 1.67.1 2.89 2.73-.95 7.29-2.45 8.06-1.04 1.22-1.41 3.22-2.14 4.69-1.32-.2-.78.71-1.33 2.25-1.64-2.63.7-2.91-.13-1-2-3.6 1.21-8.08-.72-12-1 .5 1.55-.64 3.34-2.1 4.11" class="cls-77"/>
        <path d="M62.34 109.55c1.47-.77 2.6-2.56 2.1-4.11-2.04 1.07-3.62 2.71-5 4 .17.13.36.23.54.31.84-.84 1.78-.78 2.36-.2m15.11-1.11c-.41-.44-.57-1.52-1-2-1.91 1.87-1.63 2.7 1 2m-15.11 1.11c-.75.4-1.6.52-2.36.2-.19.19-.37.41-.54.69 1.37.26 2.06 1.27 3 2 .68-1.22.47-2.31-.1-2.89" class="cls-77"/>
        <path d="M62.34 109.55c-.57-.58-1.52-.64-2.36.2.76.32 1.6.2 2.36-.2m14.11 1.89c-.76-.51-1.15-.96-1.25-1.36-1.47-.82-3.47-.09-4.69 1.32.29.53.04 1.48-1.06 3.04 2.29-1.18 3.97-3.42 7-3" class="cls-77"/>
        <path d="M62.45 112.44c.35.27.51 1.68 1.45 1.76 1.94.15 5.45-3.6 5.58-.63.12-.8.49-1.55 1.03-2.17-.77-1.41-5.33.09-8.06 1.04" class="cls-77"/>
        <path d="M70.51 111.4c-.54.62-.91 1.37-1.03 2.17.01.25 0 .52-.03.87 1.1-1.56 1.35-2.51 1.06-3.04m4.69-1.32c.49.27.93.71 1.25 1.36.06-.33.67-.96.95-1.71-.04-.4-.04-.83.05-1.29-1.54.32-2.45.87-2.25 1.64" class="cls-77"/>
        <path d="M77.4 109.73c.16-.41.22-.85.05-1.29-.09.46-.09.89-.05 1.29m-2.2.35c.1.4.49.85 1.25 1.36-.32-.65-.76-1.08-1.25-1.36" class="cls-77"/>
        <path d="M91.45 92.44c-.87-.28-.86-.62 0-1-.78.09-2.32-.88-3.52-.83-6.25.29-6.42 10.27.62 9.29 3.9-.55 3.51-1.86 3.9-4.46-1.08-.72-2.43-2.21-1-3" class="cls-61"/>
        <path d="M91.45 92.44v-1c-.86.38-.87.72 0 1" class="cls-61"/>
        <path d="M49.45 67.45c-.11 1.39.45 2.64 1.33 3.67 6.19 7.16 12.07-8.36-1.33-3.67" style="fill:#121212"/>
        <path d="M88.45 57.43c.24-.35-.81-3.61-1.16-3.83-5.76-3.61-14.26 7.92 1.16 3.83" class="cls-29"/>
        <path d="M100.48 63.84c-.34-.08-.71-.25-1.15-.49-.26.17-1.89 4.58-1.1 5.05.09 0 .16 0 .21.04 1.08-1.26 2.82-1.38 4-2-1.87-.28-2.52-1.53-1.96-2.6" class="cls-81"/>
        <path d="M99.34 63.35c.43.24.81.41 1.15.49.3-.58.95-1.11 1.96-1.4l-4.99-2c.39 1.75-1.22 6.22-1.02 7.41.18 1.03 1.28.55 1.8.55-.79-.47.83-4.88 1.1-5.05" class="cls-81"/>
        <path d="M100.48 63.84c-.55 1.07.09 2.33 1.96 2.6.08-1.27-.22-2.88 0-4-.56 1.27-1.15 1.6-1.96 1.4" class="cls-81"/>
        <path d="M100.48 63.84c.82.2 1.41-.13 1.96-1.4-1.01.29-1.66.81-1.96 1.4" class="cls-81"/>
        <path d="M55.38 110.77c.19.48.24 1.03.07 1.67 1.03.11 1.37-.38 2-1-.66.12-1.38-.17-2.07-.67m-1.66-1.6c-.51-.6-.95-1.23-1.27-1.73-.7.06-1.99 1.07-3 1 1.32-.1 3 .11 4.27.73" class="cls-41"/>
        <path d="M55.38 110.77c.69.5 1.41.8 2.07.67-1.09-2.29-2.17-4.25-5-4 .32.5.76 1.12 1.27 1.73.77.37 1.38.9 1.66 1.6" class="cls-41"/>
        <path d="M55.38 110.77c-.59-.43-1.16-1-1.66-1.6-1.27-.62-2.95-.83-4.27-.73.55.29 5.54 3.62 6 4 .17-.65.12-1.2-.07-1.67" class="cls-41"/>
        <path d="M55.38 110.77c-.28-.7-.89-1.22-1.66-1.6.5.59 1.07 1.17 1.66 1.6" class="cls-41"/>
        <path d="M49.59 106.73c-.14 0-.27-.02-.41-.02.1.23.17.53.21.89.02-.35.09-.64.19-.87Z" class="cls-4"/>
        <path d="M49.18 106.71c.14 0 .27.01.41.02.47-.99 1.71-.85 2.85.71l-2.02-4c-.38-.28-4.88 2.58-4.98 4 1.73-1.45 3.17-2.07 3.74-.73" class="cls-4"/>
        <path d="M49.45 108.44c-.05-.31-.06-.59-.05-.84-.04-.36-.11-.66-.21-.89-1.22-.02-2.46.22-3.74.73 1.62-.08 2.61.27 4 1" class="cls-4"/>
        <path d="M49.18 106.71c-.57-1.33-2.01-.72-3.74.73 1.27-.52 2.52-.76 3.74-.73m.22.89c.03.25.05.52.05.84 1.01.07 2.3-.94 3-1a8.6 8.6 0 0 0-2.85-.71c-.11.23-.18.52-.19.87Z" class="cls-4"/>
        <path d="M49.59 106.73c.97.07 1.92.3 2.85.71-1.14-1.56-2.38-1.71-2.85-.71m-.14 1.71c0-.32-.02-.59-.05-.84-.01.25 0 .53.05.84" class="cls-4"/>
        <path d="M43.11 108.82c.54-.02.84.25.83.67.5-.67 1-1.35 1.51-2.04-.44.02-1.68 1.38-1.99 1.01-.13-.16.16-1.79-1.01-3.01.6 1.58.82 2.71.66 3.38Z" class="cls-74"/>
        <path d="M46.44 112.44c.74-1.6-1.04-4.25-.99-5-.06 2.57-.92 3.23-1.72 2.72-.23.4-.65.84-1.28 1.28.94.02 3.6 1.44 3.99 1" class="cls-74"/>
        <path d="M43.73 110.16c.8.51 1.66-.15 1.72-2.72-.5.69-1.01 1.38-1.51 2.04 0 .2-.06.42-.21.67Zm-.93-1.3c-.35-.87-.53-2.05-.35-3.42l-1 4c.52-.33.98-.51 1.35-.58" class="cls-74"/>
        <path d="M42.8 108.86c.11-.02.21-.04.31-.04.16-.67-.06-1.79-.66-3.38-.18 1.36 0 2.55.35 3.42m.14.31c-.26.38-.75.47-1.49.27.83.4.78 1.75 1 2 .36-.47.73-.95 1.09-1.43-.22-.2-.42-.48-.6-.83Z" class="cls-74"/>
        <path d="M43.11 108.82c-.03.14-.09.26-.16.36.18.36.38.64.6.83.13-.18.27-.35.4-.52 0-.42-.29-.69-.83-.67Zm.62 1.34c-.06-.04-.13-.1-.19-.15-.37.48-.73.97-1.09 1.43.64-.44 1.05-.89 1.28-1.28" class="cls-74"/>
        <path d="M43.54 110.01c.06.06.13.11.19.15.15-.25.21-.48.21-.67-.13.18-.27.35-.4.52m-2.09-.57c.74.21 1.24.11 1.49-.27-.05-.1-.1-.21-.14-.32-.38.07-.83.26-1.35.58Z" class="cls-74"/>
        <path d="M42.8 108.86c.05.11.09.22.14.32.07-.1.13-.21.16-.36-.1 0-.2.02-.31.04Z" class="cls-74"/>
        <path d="M55.45 90.44c.87-.13 2.41.27 2.91-.07 3.31-2.2-3.55-11.39-2.91.07" style="fill:#383738"/>
        <path d="M39.94 93.45c-3.42-1.34-3.28 2.99-2.48 4.98 2.67.36 5.7-3.72 2.48-4.98" style="fill:#2a292b"/>
        <path d="M34.27 100.44s-.05-.07-.07-.11c-.01.03-.02.07-.04.1.04 0 .07 0 .11.01m2.18 2c-.1-.63.07-1.35 0-2-.48.22-.9.33-1.25.35.55.36 1.01.96 1.25 1.65" class="cls-96"/>
        <path d="M34.2 100.32s.04.08.07.11c.32.04.64.16.93.35.35-.02.76-.13 1.25-.35-.71-.79-1.28-1.29-2-2-.03.52-.13.9-.26 1.18.08.23.09.47.01.7Z" class="cls-96"/>
        <path d="M32.45 98.44c.84.13 1.42.54 1.67 1.02.05-.3.14-.63.33-1.02-.65-.07-1.37.1-2 0" class="cls-96"/>
        <path d="M34.19 99.62c.13-.28.22-.66.26-1.18-.18.39-.28.72-.33 1.02.03.05.05.11.07.16m1.01 1.17c-.43.03-.74-.1-.93-.35-.04 0-.07 0-.11-.01-.2.46-.75.86-1.72 1.02 1.1.18 2.54 1.29 4 1-.23-.69-.7-1.29-1.25-1.65Z" class="cls-96"/>
        <path d="M35.2 100.79c-.29-.19-.61-.32-.93-.35.19.25.49.38.93.35m-1.04-.36s.03-.07.04-.1c-.07-.14-.12-.31-.12-.51-.45.67-1.19.22-1.64-1.37v3c.49-.76 1.11-1.05 1.72-1.02" class="cls-96"/>
        <path d="M34.2 100.32c.08-.23.07-.47-.01-.7-.03.07-.07.13-.11.19 0 .2.05.37.12.51" class="cls-96"/>
        <path d="M34.08 99.81c0-.11.02-.23.04-.35-.25-.48-.83-.89-1.67-1.02.44 1.59 1.18 2.04 1.64 1.37Z" class="cls-96"/>
        <path d="M34.08 99.81c.04-.06.07-.11.11-.19-.02-.05-.04-.11-.07-.16-.02.12-.04.24-.04.35m.08.62c-.61-.03-1.23.25-1.72 1.02.97-.16 1.51-.56 1.72-1.02" class="cls-96"/>
        <path d="m38.45 77.44 4.99-1.49c-1.51-2.78-4.01-1.65-5.44-1.5 2.51.14 2.76 1.39.45 2.99" class="cls-106"/>
        <path d="M38 74.46c-.21.02-.39.02-.55-.01.6.91.68 2 1 3 2.31-1.6 2.06-2.85-.45-2.99" class="cls-106"/>
        <path d="M59.45 110.44v-1c-.41 1.73-1.07 2.4-2 2 .11.3.18.57.23.82.6-.36 1.19-.95 1.77-1.82" class="cls-45"/>
        <path d="M59.45 109.44c-.73.68-1.31 1.32-2 2 .93.4 1.59-.27 2-2" class="cls-45"/>
        <path d="M57.68 112.26c.36 1.82-.84 2.11-2.23.18.21.17.2 1.89.94 2.53 2.72 2.33 2.27-2.64 3.06-4.53-.58.86-1.17 1.46-1.77 1.82" class="cls-45"/>
        <path d="M55.45 112.44c.76.33 1.5.25 2.23-.18-.05-.25-.12-.52-.23-.82-.63.62-.97 1.11-2 1" class="cls-45"/>
        <path d="M57.68 112.26c-.73.44-1.48.51-2.23.18 1.39 1.93 2.59 1.63 2.23-.18" class="cls-45"/>
        <path d="M82.45 104.44c.31.99.19 5.96 2.48 4.99 4.43-1.86-1.13-4.29-2.48-4.99" style="fill:#48464b"/>
        <path d="m51.45 92.44-2 2c.28.36-.31 2.69 0 3 1.04 1.04 5.61-3.12 2-5" style="fill:#444447"/>
        <path d="m110.44 90.45-2.99-4v4.99c2.04-.34-.12-3.05 2.99-.99" style="fill:#1c1b1c"/>
        <path d="M36.99 102.2c-.11.12-.29.21-.54.25.33.05.59.16.82.3-.1-.17-.19-.35-.28-.55m1.45 1.82c-.14-.09-.27-.19-.4-.31.04.11.08.23.09.35.09-.04.19-.05.3-.04Z" class="cls-103"/>
        <path d="M36.99 102.2c.09.19.18.38.28.55.39.23.64.57.77.97.13.11.26.22.4.31.28.01.61.14 1.01.42-.07-1.84-1.83-2.7-3-4 .66.86.84 1.44.54 1.75" class="cls-103"/>
        <path d="M38.14 104.06c.11.75-.13 1.63-.69 2.38.75-.2 1.62-1.89 2-2-.37-.08-.7-.23-1.01-.42-.11 0-.21 0-.3.04" class="cls-103"/>
        <path d="M38.44 104.02c.31.2.64.34 1.01.42-.4-.28-.73-.41-1.01-.42m-.3.04c-.02-.12-.06-.23-.09-.35a3.8 3.8 0 0 1-.77-.97c-.23-.14-.49-.25-.82-.3.22 1.35.73 2.66 1 4-.04-1.4.2-2.19.69-2.38Z" class="cls-103"/>
        <path d="M38.04 103.71c-.13-.4-.39-.73-.77-.97.22.38.48.71.77.97m.1.35c-.49.19-.73.98-.69 2.38.56-.75.8-1.63.69-2.38m-1.69-1.62c.25-.04.43-.13.54-.25-.22-.51-.41-1.08-.54-1.75.07.65-.1 1.37 0 2" class="cls-103"/>
        <path d="M36.45 100.44c.14.67.32 1.25.54 1.75.3-.31.12-.9-.54-1.75" class="cls-103"/>
        <path d="M56.45 103.44c.62.13 1.53-.26 2.33-.01 1.02.31.15 4.58 3.67-.97-1.46.07-2.71-.41-4-1.01l-2 2Z" style="fill:#3f3f42"/>
        <path d="M102.45 105.44c-2.22-1.66-4.71 1-3 3q.21-2.085 3-3" class="cls-31"/>
        <path d="M102.45 105.44q-1.74.945-3 3c1.46-.69 3.2-.12 3-3" class="cls-31"/>
        <path d="M102.45 105.44q-2.79.915-3 3 1.26-2.055 3-3" class="cls-31"/>
        <path d="m45.45 99.44-3 2c1.46 2.43 2.03 2.89 4 .48.5-1.57-.75-1.96-1-2.48" style="fill:#2e2e2f"/>
        <path d="M87.45 112.44c-.03-.19-.04-.35-.04-.5-.02.14-.01.3.04.5" class="cls-54"/>
        <path d="M87.41 111.94c-.01-1.29.99-1.13 3.04.5-1.61-1.27-2.11-5.16-4.98-1.5.43.81 1.44 1.04 1.98 1.5-.05-.2-.06-.36-.04-.5" class="cls-54"/>
        <path d="M87.41 111.94c0 .15 0 .31.04.5h3c-1.95-1.08-2.95-1.24-3.04-.5" class="cls-54"/>
        <path d="M87.41 111.94c.09-.73 1.09-.57 3.04.5-2.05-1.63-3.05-1.79-3.04-.5" class="cls-54"/>
        <path d="M25.93 80.45c-.36-.08-.64-.1-.86-.08-.02 1 .1 2.03.35 3.07h3.02l-2.51-2.98Z" class="cls-62"/>
        <path d="M25.07 80.37c-1.09.11-.61 1.42-.62 3.07h.97c-.25-1.03-.37-2.07-.35-3.07" class="cls-62"/>
        <path d="M43.95 91.44c.22.08 3.22-3.39 2.49-3.99-2.26-1.86-5.41 2.96-2.49 3.99" style="fill:#28272a"/>
        <path d="M45.45 99.44c-.16-.34-1.26-2.09-1.5-2-2.04 2.04-2.88 1.7-1.5 4-.35-1.61 1.73-3.35 3-2" class="cls-68"/>
        <path d="m42.45 101.44 3-2c-1.27-1.35-3.35.39-3 2" class="cls-68"/>
        <path d="M92.95 108.42c1.54 0 1.14-3.41.49-3.97-2.53-2.2-2.58 3.97-.49 3.97" style="fill:#676668"/>
        <path d="M61.45 79.45v1.99h3.99c-.53-1.99-2.13-2.24-3.99-1.98Z" style="fill:#2c2b2c"/>
        <path d="M102.64 84.02c1.2-.39 2.33 1.3 1.8-2.58l-2.99 1c1.48-.02 1.86.51 1.19 1.58" class="cls-42"/>
        <path d="M101.45 85.44c.37-.92.78-1.29 1.19-1.42.67-1.07.28-1.6-1.19-1.58.11.91.04 2.06 0 3" class="cls-42"/>
        <path d="M103.78 60.72c-.04-.41.15-.85.66-1.28-.08.18-1.57.56-2 2 .46-.54.91-.75 1.34-.72m.67-1.28c.41.67.39 1.23.12 1.62.36.3.67.79.88 1.38-.16-1.1 0-2.19-1-3" class="cls-103"/>
        <path d="M103.78 60.72c.28.02.54.14.78.34.28-.39.3-.95-.12-1.62-.51.43-.7.87-.66 1.28m.32.73c-.42.19-1 .2-1.65 0 .91.49 1.95.96 3 1-.57-.26-1.05-.6-1.35-.99Z" class="cls-103"/>
        <path d="M104.1 61.45c-.18-.23-.29-.47-.32-.73-.42-.03-.88.18-1.34.72.66.21 1.23.19 1.65 0Zm0 0c.3.39.78.74 1.35.99-.22-.59-.52-1.08-.88-1.38-.12.16-.26.3-.46.39Z" class="cls-103"/>
        <path d="M103.78 60.72c.02.25.14.5.32.73.2-.09.35-.23.46-.39-.24-.2-.5-.32-.78-.34" class="cls-103"/>
        <path d="M36.93 59.45c-2.11-.76-1.82 2.62-1.48 2.99.97 1.05 4.57-1.88 1.48-2.99" style="fill:#484848"/>
        <path d="M58.45 101.44c-.34-.16-.65-.85-1-1l-3 1c.16.43-.3 1.53.08 1.91.37.37 1.38-.02 1.92.09-1.9-1.05.38-2.37 2-2" class="cls-70"/>
        <path d="m56.45 103.44 2-2c-1.62-.37-3.9.95-2 2" class="cls-70"/>
        <path d="M94.45 100.45c-1.02 1.04 1.99 4.01 2.99 2.99 1.02-1.04-1.99-4.01-2.99-2.99" style="fill:#525253"/>
        <path d="M88.45 77.44c.58.76 1.81.8 2 1 .92-.78.25-1.11-2-1" class="cls-1"/>
        <path d="M88.45 77.44c2.25-.11 2.92.22 2 1 4.52-.21 2-3.28-2-1" class="cls-1"/>
        <path d="M43.44 84.44c.95-.95-1.76-3.98-2.99-2.98-.2.16 1.47 4.53 2.99 2.98" style="fill:#424342"/>
        <path d="M79.45 67.43c-.53-1.99-2.13-2.25-4-1.98.53 1.99 2.13 2.25 4 1.98" style="fill:#3b3b3a"/>
        <path d="M53.45 52.45c.23 1.67 3 .49 2 3.99.28-1.24.61-2.24 1-3-.43-.11-1.54-1.73-3-.99" class="cls-9"/>
        <path d="M56.45 53.44c-.39.76-.72 1.76-1 3 .8-1.03 1.28-1.53 1-3" class="cls-9"/>
        <path d="M98.45 96.45c-1.54 1.53 2.82 3.19 2.98 2.99 1-1.23-2.03-3.94-2.98-2.99" style="fill:#373838"/>
        <path d="M69.56 101.69c-.4.02-.79-.05-1.11-.24v1z" class="cls-3"/>
        <path d="M69.56 101.69c.6-.4 1.22-.81 1.89-1.24-1.46-.26-1.97.19-3 1 .32.19.71.26 1.11.24" class="cls-3"/>
        <path d="M69.56 101.69c-.38.26-.76.51-1.11.76 1.3.24 2.45.17 2.87-.69-.01-.42.03-.86.13-1.31-.22.75-1.06 1.21-1.89 1.24" class="cls-3"/>
        <path d="M71.31 101.75c.15-.32.21-.74.13-1.31-.11.45-.14.88-.13 1.31" class="cls-3"/>
        <path d="M71.45 100.44c-.67.43-1.29.84-1.89 1.24.83-.04 1.67-.5 1.89-1.24" class="cls-3"/>
        <path d="M79.46 101.44c-.52 2.82 1.71 2.34 2.99 3-.61-1.95.12-2.06-2.99-3" style="fill:#57565a"/>
        <path d="m67.75 103.14.7-.7c-.12-.07-.21-.15-.28-.22-.12.32-.26.63-.42.92" class="cls-50"/>
        <path d="M68.17 102.22c-.2-.24-.11-.5.28-.78-1.11.87-2.11 1.06-2 3l1.3-1.3c.16-.29.3-.6.42-.92" class="cls-50"/>
        <path d="m68.45 102.44-.7.7c-.31.56-.72 1.04-1.3 1.3.79-.37 2.38.65 2-2" class="cls-50"/>
        <path d="m67.75 103.14-1.3 1.3c.58-.26.99-.74 1.3-1.3m.7-.7v-1c-.08.25-.18.52-.28.78.06.08.15.15.28.22" class="cls-50"/>
        <path d="M68.17 102.22c.1-.26.19-.52.28-.78-.38.28-.48.54-.28.78" class="cls-50"/>
        <path d="M57.45 100.44c-3.89-1.61-4.18-2.16-3 1-.62-1.24.38-1.58 3-1" class="cls-94"/>
        <path d="m54.45 101.44 3-1c-2.62-.58-3.62-.24-3 1" class="cls-94"/>
        <path d="m68.44 65.45-1.99-1.01c.49 1.18-.18 1.51-2 1 1.07.32 2.17 1.69 4 .99v-.98Z" class="cls-65"/>
        <path d="M66.45 64.44c-.26.35-1.51.61-2 1 1.82.51 2.49.18 2-1" class="cls-65"/>
    </g>
</svg>
