<?xml version="1.0" encoding="UTF-8"?>
<svg id="Layer_2" data-name="Layer 2" xmlns="http://www.w3.org/2000/svg" viewBox="0 0 324.52 284.41">
  <defs>
    <style>
      .cls-1 {
        fill: #ea2225;
      }
    </style>
  </defs>
  <g id="Layer_1-2" data-name="Layer 1">
    <path class="cls-1" d="M46.01,66.83c-.84.78-15.79-9.75-20.61-9.97-1.22-.05-3.15.29-3.39,1.5-.87,4.37,18.06,15.67,22,17.98-3.01.78-15.42,8.98-14.94,11.88,1.43,8.7,22.93-6.42,23.94-5.38-.76,2.5.69,17.78,4.49,16.99,3.63-.76-.96-14.81,1.53-17.99l7.85,5.17c-5.95,20.94-9.49,42.23-3.16,63.63,1.02,3.44,5.41,14.01,7.41,16.59,1.06,1.36,3.65,2.85,4.9.91l1.91-4.69c-2.48-2.92-6.48-3.86-5.91-8.62,5.52,2.98,6.85-2.9,2.48-6l-4.48,2.99c2.78-4.62-2.21-7.6-2.09-11.52.06-2.12,1.78-3.19,1.84-4.79.14-3.73-4.78-3.56-2.22-9.68.37-.89,2.11-1.62,2.24-2.49.27-1.84-2.72-2.23-2.86-3.99-.31-3.73,1.61-5.09,1.89-7.25.2-1.54-.83-3.09-.56-4.53,1.09-5.79,3.72-11.02,4.77-16.75l10.99,1c-.14-4.33-4.23-6.1-6.92-8.59,1.46-6.19,6.64-12.45,12.93-14,2.07-.51,3.84.76,3.98.61.12-.13-.15-2.11,1.02-3.48,2.44-2.84,13.83-5.73,9.33-10.58l-9.34.55c12.4-11.06,28.04-19.88,44.63-22.37,17.63-2.65,46.96-1.98,62.28,7.45,15.03,9.24,31.14,22.99,39.09,38.91-2.62-.35-3.46-3.79-5.51-5.49-.82-.68-3.67-2.69-4.5-1.99,1.28,4.4,8.36,7.55,4.57,12.06-4.99,5.93-23.62,10.37-31.11,12.75-7.52-16.72.03-34.32,20.53-27.82,2.67-2.57-8.37-4.88-9.65-4.92-29.47-1.01-23.29,51.28,6.12,52.98,10.79.62,20-4.29,23.3-14.78l1.21-11.27c4.23,8.7,5.39,18.09,7.01,27.5.61,3.52,2.42,4.93,5.01,2,3.6-4.05-3.36-18.98-3.01-24.5,2.89.8,6.42-.78,8.76-.8,4.08-.03-.25,8.55-.7,11.37-.24,1.47-.66,2.84,1.42,2.42,2.55-1.03,5.17-9.1,5.52-11.99,4.73,2.07,8.81,2.39,13.99,2,1.19-3.01-6.17-5.11-5.99-5.49,3.09-1.85,22.12-11.18,22.93-13.08.24-.56.49-2.45-.51-2.47-8.36-1.54-15,1.92-22.42,5.03,6.43-9.61,12.09-19.69,15.01-31,8.4,2.03,26.83,6.95,23.24,18.69-3.28,10.72-21.37,28.67-30.36,35.72-56.67,44.4-180.34,92.35-248.94,57.14-7.13-3.66-20.91-13.36-18.5-22.56,2.6-9.94,28.08-23.82,37.37-28.14l.17-3.83c-27.13,4.96-67.21,31.48-29.91,56.41,51.05,34.12,144.62,10.54,196.59-13.23,30.45-13.93,88.2-45.29,100.49-77.5,6.8-17.83-13.92-27.85-28.65-29.73-.92-.04-1.39.55-2.01,1.07-2.03,1.71-10.51,12.9-12.33,15.67-3.6,5.48-4.9,10.65-7.87,16.16-.71,1.32.52,2.71-2.31,2.14-.21-14.98,14.92-26.66,11.5-41.99-11.44,9.86-13.91,26.64-14.51,40.99-3.73-2.45-6.24-19.05-11.48-19.04l-2.52,1.56,6.99,21c1.27,4.13-6.01-2.86-6.98,1-.69,2.76,3.55,5.08,4.98,6.98l-3.97,2.5c-6.09-20.12-19.11-36.24-35.68-48.83-38.63-29.36-93.4-23.43-129.35,7.32-5.15,4.41-7.93,10.41-14.98,12.51l20.46-28.04c1.76-3.79-.71-6.2-4.46-4.46-10.63,9.44-21.08,18.58-29,30.5,3.17-12.08,10.71-25.74,12.59-38,.63-4.12-1.23-7.18-5.09-3.99-1.01.83-5.01,8.11-6.03,9.96-4.45,8.01-8.85,17.82-9.49,27.02-1.35.29-1.12-1.04-1.47-2-1.45-4.06-5.91-21.96-8.52-23.5-1.26-.75-2.65-.51-4.01-.49v15.5c0,2.21,2.33,9.22,3.24,11.76.97,2.7,2.6,5.13,3.76,7.73ZM206.03,102.33c-.01-.85,8.54-3.46,9.34-3.3,1.32.26,4.29,4.07,7.4,4.61,4.88.86,10.29-2.89,12.71-6.85.95-1.56,2.39-9.94,4.52-7.96.43.4.99,4.39,1.06,5.45,1.31,21.26-25.74,24.75-35.03,8.05Z"/>
    <path class="cls-1" d="M107.05,190.8l-.04-4.97c-3.26,1.61-5.97-2.28-9.99-.99-2.19,2.11,6.57,8.28,8.94,7.04l.05,4.95c7.75,3.27,8.92-6.66,1.04-6.03Z"/>
    <path class="cls-1" d="M84.03,185.33c14.71,20.02,34.02,29.89,58.61,32.37,38.67,3.9,77.7-5.81,101.79-37.96,9.42-12.58,16.08-27.9,15.58-43.91-9.4,1.88-7.43,6.71-9.47,13.02-1.24,3.81-5.23,6.37-4.56,10.95l-3.97.03-.96,6.58-5.03-.57c-1.69,2.62,1.38,4.28.9,6.29-1.31,5.48-20.6,19.81-26.23,22.89-1.85,1.01-3.81,1.85-5.67,2.84.5-6.13-4.44-2.2-2,1.98l-13.43,4.07c-2.75-5.12-5.35-3.88-5.49,1.48-6.37.18-10.81,4.94-16.57.45-1.84,4.53-4.75,2.8-8.98,3.08-1.67-7.63-3.77.24-6.99.44-6.3.38-4.53-4.34-6.05-4.48-2.77,2.29-5.67,3.83-9.37,2.82-1.55-8.09-4.4-1.67-6.85-.99-3.45.97-8.14-4.21-12.29-3.87,3.9-6.28-4.95-9.17-5.01-1.98-2.52-.32-4.5-3.09-5.99-4.01-1.05-.65-2.67-.56-4.5-1.99-5.03-3.91-10.58-15.1-17.48-9.51Z"/>
    <path class="cls-1" d="M129.51,125.83c8.98,30.49,56.65,27.99,59.37-5.62,1.18-14.61-10.8-36.91-27.08-37.12-20.97-.27-38.29,22.38-32.29,42.74ZM147.02,139.32c-5.49-2.34-10.45-7.49-11-13.46l8.4-2.05c5.94,10.04,21.08,8.31,26.83-1.22,3.8-6.31,1.12-11.35,10.74-13.75,6.71,21.98-14.02,39.41-34.98,30.49ZM174.05,94.3c1.68,1.57,6.49,7.81,5.88,9.88-1.06,3.55-39.28,18.88-45.92,16.66-3.22-21.94,20.54-44.82,40.04-26.54Z"/>
    <path class="cls-1" d="M270.36,244.56c-4,10.18-4.04,23.71-7.27,34.89-.07,6.68,16.45-.44,21.28-3.57,11.2-6.97,8.97-13.6,5.27-20.81-4.11-6.86-9.69-14.31-14.67-14.91-1.77-.15-3.37.99-4.61,4.39ZM276.49,252.5c.43-.28.86-.55,1.27-.82,5.88,3.71,7.46,15.48-2.46,20.38.4-6.49.79-13.01,1.19-19.56Z"/>
    <path class="cls-1" d="M209.9,252.92c-3.27-2.44-11.45-1.87-14.56-.47-2.99,1.25-5.31,6.49-2.66,8.59,2.15,1.57,6.41-.71,8.66,1.47-1.28,2.1-2.69,4.28-4.22,6.54-.9.27-1.81.54-2.72.82-13.84-.87-4.48-28.6,2.61-27.69,2.46,0,10.61,3.13,8.42-3.15-3.16-8.19-10.45-10.49-14.56-8.31-5.05,3.18-12.93,14.08-16.58,26.22-3.58,11.83-2.93,24.91,10.84,25.48,14.32.88,24.94-6.54,28.36-13.07,3.83-6.85.46-12.82-3.57-16.42Z"/>
    <path class="cls-1" d="M95.23,250.25c-2.33,6.35-8.22,18.85-11.21,26.36-1.16,3.09-3.43,8.03,1.4,7.67,9.86-.83,9.5-6.22,12.01-11.71,2.55-.48,5.09-1,7.62-1.49,1.03,2.49,2.19,4.92,3.47,7.28,6.39.56,14.73-2.06,11.84-6.29-3.03-4.3-10.44-16.32-12.53-21.98-1.33-2.98-2.27-6.47-4.44-7.51-5.19-2.57-5.18.06-8.16,7.65ZM103.51,263.95c-1.33.17-2.67.35-4,.52.7-3.67,1.29-7.3,1.76-10.86.58,3.54,1.33,6.99,2.24,10.35Z"/>
    <path class="cls-1" d="M252.94,278.53c13.81-4.84,14-12.39,11.11-20.61-3.09-7.91-9.26-16.49-12.86-16.27-6.7-.81-26.7,45.98,1.75,36.88ZM252.47,251.38c2.15.52,2.99,8.7,2.88,10.93.04,1.87-1.44,9.4-5.61,7.91-2.75-.92-1.12-18.07,2.74-18.85Z"/>
    <path class="cls-1" d="M225.07,241.71c-6.76-1.81-27.24,46.36,2.16,36.65,24.38-7.47,4.36-34.39-2.16-36.65ZM225.16,269.99c-5.39,1.1-2.89-14.73-.61-17.68,2.11-2.75,3.39,2.79,3.79,4.4.44,2.64,1.74,12.31-3.19,13.28Z"/>
    <path class="cls-1" d="M73.43,240.66c-2.07.16-3.28,1.52-4.35,5.21-3.28,10.77-4.36,23.97-7.49,35.94-.05,5.19,11.43,1.67,13.01-2.4,1.03-2.71-.46-7.63.96-9.64,12.82-5.15,13.55-10.61,11.35-16.84-2.47-5.89-7.87-12.56-13.48-12.27ZM75.47,261.38c.13-3.61.27-7.23.4-10.86,4.77.57,4.47,8-.4,10.86Z"/>
    <path class="cls-1" d="M298.77,262.85c2.41,1.44,10.59,1.1,8.28,5.93-3.14,5.66-9.4.44-13.52,3.13-8.4,5.59-1.9,10.74,5.5,9.11,13.91-2.85,24.8-11.36,19.13-18.48-4.32-7.89-14.03-5.34-14.3-10.15,1-7.63,7.65.23,8.57-5.55.01-4.18-5.05-6.34-7.03-6.42-4.73-.6-17.04,15.05-6.62,22.43Z"/>
    <path class="cls-1" d="M49.64,276.23c21.14-9.2,21-20.95,6.48-28.78-4.4-2.1-13.94-2.82-10.08-9.65,2.56-5.52,10.37,2.39,10.69-4.04-.48-6.27-6.97-9.33-9.95-9.27-5.82-.17-21.54,19.63-9.65,29.91,2.77,2.33,16.97,2.28,12.16,9.07-6.72,8.46-16.08-2.69-21.81,6.45-8.73,13.24,12.03,10.59,22.15,6.3Z"/>
    <path class="cls-1" d="M159.67,248.2c-1.05-4.99-8.42-6.87-10.53-6.82-2.7.08-3.79,4.49-4.87,8.74-1.7,6.64-5.45,22.84-5.66,29.76-.12,3.01,2.39,3.87,6.04,3.04,2.04-.46,15.55-5.17,17.49-6,4.14-1.86,5.96-3.62,3.38-5.82-2.84-2.82-9.82-.01-13.9.77.03-2.03.05-4.06.08-6.09,15.17-.6,11.32-10.51.1-8.37.03-2.04.05-4.08.08-6.12,2.76-.12,8.46.5,7.79-3.1Z"/>
    <path class="cls-1" d="M134.31,245.52c-1.09-1.22-2.12-2.05-3.14-2.25-2.05-.63-6.18,3.94-8.69,7.32-7.29,9.19-13.17,35.99,8.71,29.31,5.41-1.55,13.42-5.97,10.45-8.96-2.74-3.72-8.28-.27-10.46-.28-5.43-.47-3.83-10.08-2.07-13.62,2.9-5.68,9.83-3.48,5.2-11.52Z"/>
    <path class="cls-1" d="M5.02,18.33c1.89,4.45,10.99-1.85,12.39-1.45.98.29,2.32,4.58,5.05,3.95,3.88-2.31-.74-4.9-.46-6.47l7.42-2.43c2.75-4.57-4.21-4.02-7.37-4.14-.77-10.97-4.98-9.76-7.16-.07l-9.91-.41.05,3.01,6.99,2.02c.03.94-8.47,2.53-7,5.99Z"/>
    <path class="cls-1" d="M234.75,52.1c6.59-1.14,13.55-4.62,20.78-5.25,6.68-.58,18.98,3.28,18.49-6.01-9.5-1.73-17.42-.5-26.63,1.87-3.4.87-16.46,3.73-15.37,8.61,1.43,2.06,1.44,1.01,2.74.78Z"/>
    <path class="cls-1" d="M282.02,154.32c1.26,2.64,5.98.85,6.89,1.62.42.35.58,6.49,3.58,5.89,2.73-1.12,2.1-5.5,3.49-6.52,1.17-.85,3.96-.07,5.02-1.99.52-2.3-3.9-3.33-4.51-4.43-.64-1.15,1.93-4.6-1-6.05-4.17,3.07-5.3,3.45-10.48,2,2.25,6.85-.09,4.72-3,9.48Z"/>
    <path class="cls-1" d="M174.01,41.84h-21.5c-3.25,0-4.71,4.2-6.53,5.47-2.87,2.02-6.83,2.64-8.96,6.04-1.66,4.01,8.3-1,9.32-1.68,2.1-1.41,4.64-5.11,6.37-5.63,3.05-.9,20.57-.43,21.3-1.21v-3Z"/>
    <path class="cls-1" d="M207.99,141.34c-4.55,2.09-11.06-8.61-9.08,3.08,9.97,5.25,22.14-4.28,16.96-15.43l-3.85-.15c-.5.49,2.55,9.48-4.03,12.5Z"/>
    <path class="cls-1" d="M146,186.84c-4.23,1.3-10.02,1.34-14.22-.03-.8-.26-.78-1.9-1.21-1.87-1.74.12-9.55,2.36-5.97,4.99l8.41.92-1.99,4.98c5,2.21,3.07-1.92,4.15-2.83.63-.53,2.84.07,4.06-.41,2.07-.81,4.46-2.67,6.78-3.75-.18-.46.13-1.37,0-2Z"/>
    <path class="cls-1" d="M151.98,191.8c.06-7.31-2.02-4.81-5.97-2.97,1.3,3.37,2.02,4.27,5.97,2.97Z"/>
    <path class="cls-1" d="M309.93,126.74c.4-.28,3.35-8.21,3.02-9.29l-2.34-1.55c-3.35,1.25-10.33-.98-8.1,4.87.86,2.26,4.46,8.05,7.42,5.97Z"/>
    <path class="cls-1" d="M152.01,56.83l16.01-1.99-.03-2.95c-.98-1.5-16.19.21-15.97,4.94Z"/>
    <path class="cls-1" d="M4.27,36.69c6.23-.86,4.04-9.28-1.55-7.72-4.32,1.21-3.28,8.38,1.55,7.72Z"/>
    <path class="cls-1" d="M85.62,160.88c-2.76,1.5-2.88,4.08-2.62,6.95l5.89-.1c1.91-2.11-.95-7.24-3.28-6.85Z"/>
    <path class="cls-1" d="M112.12,190.74h5.78s.18-4.39.18-4.39c-4.01-2.87-8.16-.32-5.96,4.39Z"/>
    <path class="cls-1" d="M118.49,195.85l4.51,1.98.58-6.05c-3.45-2.84-7.31.44-5.09,4.07Z"/>
    <path class="cls-1" d="M81.48,161.83c3.24-1.66.85-7.39-1.83-6.91l-3.6,3.42c1.32,1.36,3.18,4.14,5.43,3.49Z"/>
    <path class="cls-1" d="M93.48,162.84c2.94-.55,1.33-7.45-1.84-6.93-4.35.71-2.38,7.73,1.84,6.93Z"/>
    <path class="cls-1" d="M79.38,138.77c3.9-.66,2.66-7.44-.74-6.86-3.9.66-2.66,7.44.74,6.86Z"/>
    <path class="cls-1" d="M81.98,149.81c2.46-4.26-3.2-8.69-5.52-3.98-1.45,2.95,3.47,4.7,5.52,3.98Z"/>
    <path class="cls-1" d="M70.11,126.95l-.1,4.89c8.81,1.43,7.31-7.33.1-4.89Z"/>
    <path class="cls-1" d="M84.61,149.93c-3.74,1.18-2.05,7,1.87,5.9,2.61-.73,2.13-7.16-1.87-5.9Z"/>
    <path class="cls-1" d="M72.53,137.84l-1.09,5.07,4.54.9c1.53-2.91-.47-5.08-3.45-5.97Z"/>
    <path class="cls-1" d="M100,163.3l-2.28-.35-2.69,2.39,4.45,3.5c2.07-1.97,3.31-3.79.52-5.53Z"/>
    <path class="cls-1" d="M125.28,202.57c2.28,2.37,5.43-.69,4.73-3.21-.94-3.4-8.99-1.22-4.73,3.21Z"/>
  </g>
</svg>