<svg xmlns="http://www.w3.org/2000/svg" data-name="Layer 2" viewBox="0 0 221.25 117.52">
    <g data-name="Layer 1">
        <path d="M93.21 92.8c.64-.4.59-1.3.33-1.91-1.57-.21-1.79.27-1.72 1.72.25 0 .73.61 1.39.2Z"/>
        <path d="m152.39 115.11.05-1.33c1.45-.46 2.66-1.41 4.01-2.07 2.2-1.07 5.13-2.12 7.39-2.96.52-.19 1.04-.35 1.56-.53l.13 1.18.87.18c.62-1.33 1.25-2.21 2.94-2.07-2.07 3.05 2.63 3.63 1.9 0l1.22.35-.19 1.37 1.02.68 1.59-2.75c-.95.62-2.43-.19-1.76-1.21 1.3-1.99 2.9 1.11 4.88-.17v1.04c1.59-.21 1.59-1.27 2.42-2.42-.69-.9-3.72.01-3.46-1.21.91-1.32 3.74.49 4.43.09.65-1.64 3.48-2.19 2.49-4.07 1.28.04 2.43-.19 2.39-1.68l-1.35-1.08 1.56-1.39c.49.48-.29 1.22-.12 1.83.23.83 1.86 2.8 2.88 2.67 1.16-.15-.48-2.54-.9-2.94l1.08-2.25.34.69c.68.17.95-.7 1.55-.69.49 0 1.36.87 2.23.88.71 0 1.98-.92 3.31-.17.14-1.48.77-.91 1.7-1.43.63-.35 1.61-1.16 2.16-1.32.59-.16.46 1.1 1.51.66l-.35-1.73 2.42-.87-.7-1.35 1.2-2.66.65-.26 1.44.87c1.05-.21 1.55-.98 1.07-1.99l-1.78-.64c-1.31-1.72 3.22-1.11 4.18-2.44.32-.69-1.22-.94-1.24-1.23-.05-.6 1.95-2.89 2.46-3.11.57-.25 1.06.19 1.39.03.27-.13.08-.73.31-1.06.98-1.37 2.01-.19 2.41-.54.06-.05.09-.87.51-1.39.69-.85 2.44-1.55 3.12-2.77 3.14-5.63 2.13-13.6-1.01-19.02-3.16-5.46-10.18-9.35-14.03-14.71-.6-.83-.46-1.79-.64-2.01-.84-1.05-4.2-3.68-5.25-4.96-.27-.33-2.09-2.81-2.15-2.98-.21-.57.25-1.28-.05-1.65-.25-.31-.93-.21-1.15-.42-.49-.47-3.23-7.43-4.3-9.03-1.04-1.56-7.39-8.1-8.85-8.46-8.56-2.11-21.97-7.42-30.56-3.71-5.9 2.55-9.6 4.75-16.26 6.23C108.8 16.96 87.66 7 63.14 1.01c-11.83-2.89-13.34.98-22.47 6.41-6.55 3.9-10.55 4.54-14.82 11.83-1.37 2.33-2.1 5.94-3.11 7.64-.19.32-.98-.03-1.2.5l.7 1c-.71 3.97-4.23 6.49-6.39 9.58-1.38 1.98-.38 3.59-2.27 4.65-.18.71.93.65 1.05 1.1.27 1.09.29 3.42-1.04 3.74 1.02.53 1.78 1.59 1.69 2.79-.04.59-.85 1.04-.65 1.68.13.42 1.84.74 1.39 2.73-.03.14-2.67 1.83.32 1.28l.65 2.33c.04.86-1.26.42-1 1.66 2.51.45.93 2.08 1.05 3.45.07.77 1.16 1.64 1.03 2.77-.07.59-.76.92-.69 1.56 2.24.87 2.46 4.39 4.35 5.89l-.02 1.38.69-1.03c1.93 1.67 4.18 2.14 6.39 2.95.33.12.61.77.93.82.41.07.81-.63 1.33-.65.85-.04 4.76 2.13 5.38 2.92.56.72 1.26 5.01 1.03 5.84-.08.31-.63.21-.66.25l-.03.66c1.82.23.97 3.9 1.22 5.24.09.48.61.95.76 1.57.08.32-.35.84-.2 1.09.07.12.62.18.79.43.7 1.04 2.33 3.87 3.25 4.47 1.78 1.16 5.77 1.81 8.1 2.88 2.8 1.28 5.31 3.91 8.04 4.77 8.72 2.74 13.29 2.55 22 .79.45-.09 1.03-.73 1.62-.74.5 0 1.12.87 1.47.61.08-.06-.01-.69.59-.96 1-.44 2.13-.03 2.96-.16 1.3-.2 3.65-1.05 4.96-1.28.96-.16 3.47-.63 4.24-.65.89-.02 1.05.59 1.62.64.14.01.13-.85 1.41-1.02 2.1-.27 9.08-.16 10.99.32.28.07.22.68.45.7.5.06 1.03-.4 1.87-.24 3 .6 8.53 2.22 11.4 3.51 3.98 1.78 6.83 5.19 10.49 6.81 1.68.74 3.08 1.07 4.82 1.41.35.07.69.6 1.13.6.45 0 .87-.61 1.4-.68 1.71-.22 2.74-.05 4.58-.61 1.01-.31 3.75-1.86 4.4-1.85.1 0 .3 1.16 1.22.71Zm54.69-60.92h.68c.22 1.52 1.98-.04 2.37 1.99.25 1.29-1.29 1.07-1.35 2.14-.44.27-1.98-1.28-2.02-1.58-.07-.47 1.29-1.48.31-2.55ZM22.43 45.1l-1.56-.96 1.55-1.71 1.56 1.03zm139.65 57.54-1.72-1.05c.48-2.01 2.14-2.3 3.11-.35-.78.05-1.34.6-1.39 1.39Zm14.58-16.08c-.9.09-1.99-1.24-3.15-.88.14 1.78 3.67 1.45 3.41 3.21-.49 3.41-4.88.32-5.14.6-.16 1.07.74 1.9 1.73 2.08l-.22.71c-2.14 2.45-5.84-3.5-6.36.32 1.11-.07 2.08-.16 2.76.87-2.23 2.16-4.89-.33-6.85-1.61l-.08-.8c.08-.27.56-.27.66-.4 1.87-2.51-1.89.26-2.38-.14l1.72-1.9c-.73-.69-1.51-.2-1.45-1.49l-.97-.07c-.75-.64 2.7-2.36 3.32-2.42.82-.08 1.58.38 2.4.38 2.04-.01 4.09-2.59 5.6-3.8l5.62 2.22c1.5 1.07 1.33 2.91-.64 3.11Zm1.43-15.16c-1.15-1.11 1.18-2.44 1.83-.95.31.7-.82 1.92-1.83.95m-9.88-18.32c-.63-.19-1.21-1.01-1.29-1.66l-.65.05-.22.66c-1.59-.19-2.44-1.35-3.62-2.27l1.56.16.47-.49-.3-.87c1.33 1.1 2.23-.6 2.99-.64.45-.03.78.56.99.56.26.01.63-.79 1.11-.92.6-.16 1.18.3 1.62.22.18-.03 2.39-1.17 3.3-1.5.81-.29 1.51-1.65 1.93-.14h.87l.33-1.21c1.62.57 1.45-.58 1.82-.8.45-.27 1.23.05 1.77-.07.47-.1.38-1.32 1.28-1.05.04 6-8.55 11.54-13.94 9.96Zm22.25 29.14-2.06-1.56 1.55-1.23 1.9 1.06c-.3.71-1.46.62-1.39 1.73m5.58-17.48c1.24-.27 2.33-3.31 3.94-3.5l.78.29c.98 1.1.14 3.57.59 4.43.29.56 4.81 2.21 3.99 3.11l-4.33 1.38-1.2 5.03c-1.2.93-2.68-3.35-3.35-3.58l-5.66.47c-.62-.46-.09-.49.18-.86 2.82-3.75 3.69-2.89.17-7.27 1.32-.54 3.98.71 4.89.51Zm-4.35-13.65c-.6.9-3.43.6-3.65-.9-.38-2.55.8-1.85 1.72-2.41.51-.31.49-1.43 1.4-1.2.19 1.15 1.21 3.5.54 4.51Zm-11.61-31.86c.19 1.73-.85 2.54-2.37 1.68v-1.29zm-17.72-6.83c3.55-.32 2.64 4.74-1.07 4.01-2.52-1.92-2.24-3.71 1.07-4.01m18.71 23.97c-.85.84-1.55 1.39-2.72.85l-.04.98-3.94 1.79c-.57-.47 0-2.35-1.21-2.07 2.1 2.65-2.31 3.66-4.4 4.42-1.21.44-9.4 2.88-9.79 2.5-.53-.95.96-2.02.95-2.24 0-.19-.51-.48-.52-.96-.01-.54.46-1.31.26-1.98-1.24-.33-.93.62-1.73 1.04-.58-14.85 17.5-16.64 23.14-4.32Zm-24.87 5.71c.2 1.79-1.31 3.32-2.93 3.81-1.07-.35 1.03-2.13-.35-1.73-1.01.3-1.83 1.33-1.57 2.42 5.82.79 12.02-.9 17.57-2.67 5.91-1.89 12.81-4.71 17.55-8.76 7.97-6.8-.38-6.16-5.59-3.86l-1.14-.81c0-.69 7.09-2.28 8.13-2.27 3.3 0 5.22 1.9 3.23 4.98-4.8 7.41-27.13 15.24-35.75 15.82-14.29.96-.2-8.04.85-6.93m5.54 16.96-1.04 2.07c-1.1-.96-1.76.1-2.34-1.56l.96-1.55 2.41 1.04Zm-13.33-39.46c.4.33.18 1.3.6 1.65.38.32 1.77.38 2.34.43.28 1.15-1.4.65-1.7 1.62l.31 2.19c-.9.04-1.3-1.01-2.25-1.01s-1.35 1.06-2.25 1.01l.66-2.54-1.69-1.61c1.96-.41 2.85.35 3.98-1.73Zm-4.32 19.38c.73.54.87 1.42 2.07 1.39-.01 1.28-1.59.55-.69 2.42-1.38-1.21-2.18.39-2.78-1.89.85-.45 1.33-.88 1.4-1.91Zm5.43 26.93c4.29 2 4.59 6.63 8.1 9.21 2.11 1.55 4.32 1.55 6.89 1.59.1.07-1.28 1.87-.52 2.42.8.21.7-1.39 1.19-1.93.44-.49 3.61-1.26 4.35-1.22 3.4.16-.19 5.48-2.34 6.35-1.46.59-3.02.04-4.5.34-1.37.28-2.79 2-4.36 2.16-.54.06-5.07-.94-5.78-1.18-4.97-1.73-5.21-7.92-10.81-9.61-1.97-.6-3.69-.23-5.6-.81l.33-.67c-.66.38-2.84-2.02-2.77-2.25l1.07-.72c-.93-1.3-.1-1.7-.12-2.32-.03-.9-.52-1.99-.23-3 .3-.31 7.14-.11 8.11-.02 2.15.21 5.04.75 6.99 1.66m-9.58-12.9c.15 1.02-.6 1.95-.71 2.92l-2.87-.76c-2.58-.93 3.06-5.78 3.57-2.16Zm-12.12-32.56c1.03-.6 1.74.39 2.6-1.89.96-.23.95 1.79 1.27 2.01.29.2 1.89-.06 1.66.92-.1.42-1.48.76-1.9 1.23-.65.73-.14 1.85-1.86 1.32.2-1.55-3.91-2.35-1.78-3.59Zm-15.04.55c.14-.01.12.48.27.55.43.22 1.02-.1.93.47l-1.58 1.38c-2.36-.6-1.77-2.19.38-2.4m-24.83-1.33c.25 0 .51-.13.76.08.91 1.26 1.57 3.07-.5 3.33-4.61.59-3.56-3.37-.26-3.41m-9.57-7.31c1.96.3 2.48.63 1.27 2.33-1.94-.02-2.44-.75-1.27-2.33m-17.36 5.51 1.38.69 1.04-1.73c.15.43.19 1.36.43 1.64s.92.37 1.3.43l-1.02 1.25.66 1c-.73 1.17-1.07-.63-1.85-.49l-1.26 1.01.02-1.54-1.06-.19.72-.55-.37-1.52ZM56.3 7.19l.88 1.27-1.21 1.1c-2.29-.64-1.95-2.17.33-2.37M33.44 70.91c-.26.35-.13.99-.63 1.27l-1.9-1.72c.97.27.88-1.42 1.22-1.4l2.24 1.22c-.01.22-.73.37-.92.63Zm1.61-12.41-1.89 3.64-1.9-4.33-4.51-.17 3.4-3.35-.63-4.6 4.32 2.75 3.47-1.71c1.3.05-.9 3.82-.81 4.27l3.06 3.33-4.51.16Zm7.28 8.49c.54-1.07-.62-1.37-.03-2.26.74-1.12 2.16-.43 2.63-1.89l-.17 1.38h1.73l-1.04 2.08-1.73-.69c-.37.71 1.39.97.69 1.73-.28.3-1.4-1.11-2.07-.35Zm3.94 21.49-1.87-.73.21-.68 1.01-1.04 1.53.7-.89 1.75ZM48 74.58c-2.05.64-1.51-1.84-.65-2.04.79-.18 1.86 1.66.65 2.04m-3.08-44.84-3.63 1.95.64-3.92c-.09-.66-3.43-1.58-2.72-2.3 3.14-.1 4.32-.93 4.5-4.16.76-.85 1.97 2.95 2.13 3.06l4.1.41-2.38 2.32.99 4.25zM49.6 50.9c.4-.59.54-.46 1.11-.43 1.19.05 7.25 1.9 7.53 1.64-.43-1.2-1.45-2.07-2.13-3.23-.9-1.53-2.48-4.68-2.63-6.38-.05-.6-.11-.72.44-1.12l6.75 8.3c.2-2.37-.27-5.13 0-7.44.08-.7 1.38-5.35 1.9-5.36.61.91.8 3.05.88 4.31.18 2.97-.54 5.98.16 8.84 1.53-2.38 2.99-5.44 5-7.46.45-.45 2.52-2.32 2.78-1.01.21 1.06-5 9.52-5.88 11.07.42.56.45.48 1.05.37 1.33-.25 3.05-1.36 4.3-1.94l.81 1.22-6.17 3.46 2.08 3.28-3.8-2.07.69 4.84c-1.87.07-2.11-4.83-2.94-4.84l-4.85 4.49-.38-1.05 3.31-5c-.03-.52-4.2-1.17-5.08-1.49-.73-.26-4.94-2.48-4.95-3.01Zm9.54 49.65c-1.98-2.96 2.84-4.35 4.21-2.66 1.82 2.26-2.33 5.45-4.21 2.66M65.4 82.9l1.48.03c-.11 1.54.5 1.9 1.91 2.07 6.45.74 14.31-1.55 20.25-3.99.97-.4 7.44-3.42 7.61-3.81.06-.15.14-.86-.17-.86L84.2 80.49c.12-2.12-1.3-.7-1.07.68-1.48-.42-3.1 1.65-3.65.01h-.65c-.92.16-.92 1.28-1.89 1.6-1.18.39-1.81-.28-2.6-.2-.6.06-.97.83-1.67.66-.4-.1-1.61-1.39-1.28-1.7.86-.79 2.07 2.74 2.44-.17-1.74-.79-.3-1.17.82-.18.56-.35.92-.75.55-1.37h1.21l.18 1.02 1.17-.02c.68-1.29 1.96-1.85 1.25-3.43l1.38.69.7-2.77-.69 1.04-.85-.66-.88.32-.35-1.74-1.73.35-.17-1.38c-1.72 1.43 1.58 2.28 1.19 3.59-.36 1.23-9.69 3.03-11.31 3.25-3.12.42-8.61.93-11.51-.09-6.53-2.29 2.84-10.5 5.76-12.26l1.51 1.52c-1.93 1.39-4.54 3.19-5.96 5.12-1.09 1.49-1.88 2.46.18 3.44 3.85 1.83 13.7-.38 17.83-1.7.76-.24 1.92-.55 1.8-1.49-1.97.56-1.73-1.45-3.46-1.04v-1.39h-1.73v-1.73l-1.35-.03c-.14-.56-.2-1.15-.38-1.7-.77-.14-1.24-.82-2.08-.69l.35 1.89-1.04.18c-.06 1.63 2.08 2.67 1.38.35h1.38l-.05 1.35-1.01.22.03 2.23.86-.69c1.55 1.71-.22 2.28-1.85 2.02-1.77-3.74-3.06-7.87-2.82-12.06h1.04c-.3 1.59 1.9 1.86 1.04 0 4.07-.37-.66-1.5-.69-3.46 1.96.3 2.71 1.92 4.84 1.38l-.69 1.73 1.33-.05 1.44-2.36-1.35-.04c-.17-1.26-.29-1.8-1.58-2.05-.13-1.26-2.52-1.95-.36-2.77.3.89.64.76 1.55.7l-.69-1.38c1.2.77 3.35-.95 3.65-2.07.12-.45-.21-.97-.02-1.38.27-.6 1.15-.79 1.45-1.17 1.41-1.78 1.79-2.12.46-4.03-.95-.25-.49.51-1.11.79-.59.27-4.16 1.53-4.42 1.28 1.17-3.22 3.26-7.01 6.57-8.48-.07-1.41-1.72.31-2.18.59-.35.21-1.28.9-1.62.46 8.43-9.19 21.88-12.89 33.84-9.26 9.45 2.86 15.63 8.21 21.02 16.35 2.52-2.58 8.84-13.02 7.27-16.26-1.32-2.73-7.64-.47-9.79.25-2.53.86-4.84 3.14-7 .96 3.62-2.9 14.26-6.39 18.01-3.13 3.14 2.72.23 8.8-1.34 11.84-9.94 19.2-37.87 43.57-60.1 45.12-2.87.2-11.81.64-9.3-4.18Zm13.44 17.31c-.16.28.3.94.18 1.04-.14.12-1.17-.25-1.06.68l-2.37-1.9-.04-.66c1.29-.41.81-1.42 1.57-2.25.85 1.01 1.51 1.63 2.94 1.38.4 1.25-.95 1.25-1.22 1.72Zm5.83-11.43c-.48-.11-1.29.05-1.5.54-.55 1.31 1.73.3 1.03 2.25-1.47-.55-1.16-1.94-3.11-1.04 1.41-1.55-.56-2.84-.87-.69l-2.25-1.05c-.24-.34 2.78-1.08 2.94-1.07.75.05.97 1.76 2.6 1.07l-.34-1.38 1.68.04c-.03 1.53 1.55 1.51 2.02 2.13.54.71.15 2.54 1.83 1.63v1.38c-1.3.51-3.75-3.76-4.03-3.82Zm48.16 13.17-1.89-1.05 1.23-2.05 2.21 1.2-1.56 1.91Zm13.51 5.19c-.42.67-1.23.73-1.8 1.17-.2.15 0 .68-.28.56-.86-.75-2.74-1.4-2.52-2.88.25-1.76 1.42-1.21 2.16-1.28 2.17-.2 2.83-.48 2.44 2.43m-3.99-13.51-.17-1.37-.56 1-4.28-1.01.17-1.03c-1.12-.3-.48.75-.73.97-.63.55-3.06.26-3.25-.97l-.57 1.33-2.03.05.34-1.38h-1.04v1.39c-1.58.47-1.56-.79-2.77-.7l-.02 1.37-1.88.37v-1.4c-1.48-1.12-1.62.51-1.22 1.74-1.21-.94-1.82.26-2.62.36-1.36.17-1.67-2.18-3.26-1.05l-.18-1.38c-.97.73-1.25 1.2-2.59 1.38.09-2.1-1.41-1.05-2.44-.13l.18 1.19.87-.03c-.77 2.77-1.55-1.91-2.99 1.06-1.4.32-1.78-1.75-3.23-.72v-1.73l-2.18.66-1.45-1.27c-1.13 1.27-2.35.2-3.45.27-.65.04-1.2.7-1.75.68-.51-.02-.9-.68-1.39-.69-.58-.02-2.75 2.6-2.6.02-1.63-.45-1.53 1.26-2.91 1.39-.26 0-.53-1.13-.55-1.4-1.86 0-2 2.45-3.11.35l1.39-.17c1.17-1.83-.92-1.51-1-1.61-.19-.24-.1-1.15-.57-1.7-.22-.26-.71-.03-1.01-.33-.23-.23-2.15-2.55-1.92-2.76 2.6-.39 3.28 4.72 5.18 2.25L88 86.72l.34-.85c2.18.48 1.61-.66 2.42-1.05.59-.29 1.37-.06 2.07-.35 1.3-.53 4.15-2.54 5.46-3.26.87-.48 3.42-2.19 4.04-2.12.3.04.01 1.13.89.72.03-.38-.37-.83-.29-1.18.09-.4 4.33-2.94 5.11-3.52 8.29-6.2 15.36-13.01 21.66-21.25.37 0 1.37 3.5 1.49 4.07 1.13 5.68-.2 13.85-3.5 18.65-.2.3-.87.34-1.1.8-.21.42-.09 1.26-.2 1.36-.16.14-.82-.09-1.08.04-2.18 1.09-4.1 1.36-6.34 2.74-1.03.63-4.54 3.16-5.23 3.94-.63.7-1.82 2.75-.12 2.65-.89-2.8 1.2-.95 1.7-1.41.07-.07 0-.77.37-1.17.44-.48 1.91-.78 2.61-1.21 5.09-3.16 4.51-1.83 9.52-3.29 3.44-1 7.32-5.5 11.24-5.4 6.28.15 7.83 9.01 12.54 9.99 2.28.47 8.57.21 6.69 4.08l-2.1.15 1.73 1.2c-.06.16-2.33 2.14-2.57 2.27-.57.32-3.48 1.53-4.35 1.88-3.55 1.45-5.39-.79-8.65-1.57"/>
        <path d="M70.7 67.61c.18-.55 1.48-.45.88-1.32-.76-1.1-2.13-.27-1.57.7-2.55-.37-1.41.66-1.04 1.73 2.27.4 1.44-.21 1.72-1.11Zm136.2-49.07h-5.54c-.08 0-.19-.25-.35-.31-2.33.14 2.86 3.55 3.4 3.82 5.82 2.93 11.78-1.42 10.87-7.76-.28-1.95-2.11-4.81-3.43-6.26-.31-.34-.31-.74-.98-.58v7.1c0 .9-3.09 3.98-3.98 3.98Zm5.5-5.87c.07-.6-.08-.98.55-.36.39.38 1.08 2.82.98 3.54-.55 3.92-5.63 7.16-9.11 4.42l3.23-.59c3.38-1.17 3.97-3.86 4.35-7.01m-204.67.16c.86-.91 1.91-1.91 1.71-3.29l-3.6.99L4.2 7.85l-.99-.05-.17 4.16c-6.44 3.46-.83 2.2.19 2.92.55.39.38 3.21 1.53 2.96l1.62-2.38c1 .05 1.84.37 2.88.31.52-.03 1.01.24.87-.52l-2.41-2.43Zm-2.95 1.91c-.41-.74-.57-1.15-1.56-1.05.49-.79 1.63-.77 1.04-2.07h2.77l-.71 1.21 1.05 1.55c-1.21-.43-1.54-.3-2.59.36M26.66 90.6c-3.06.66-1.69 6.68 1.99 6.53 3.88-.15 2.81-7.57-1.99-6.53m2.47 5.07c-.96.25-2 0-2.37-.99L29 93.64c.84.56.44 1.29.13 2.03m170.9-85.13c1.26.51.75-.98 1.22-1.29.33-.21 1.79-.07 2.36-.41.25-1.05-1.54-1.33-1.67-1.93-.08-.37.38-1.09.31-1.69-.25-2.12-2.14.32-2.69.46-.76.19-1.83-.89-2.52.23 1.4 1.67.46 1.42.34 3.28 1.95-.62 1.71.97 2.64 1.34ZM7.02 47.44l1.73-.53-.52-1.03-1.91.88c-2.48-3.46-2.38-7.64-3.28-11.62-2.55 6.15 1.17 12.11 5.88 15.91l.52-1.03c-1.42-.01-1.99-1.43-2.43-2.6Zm11.77 28.55c-.45 2.17-.63 4.97 1.03 6.76.97 1.05 3.48 1.75 4.71.88 1.31-.92 1.15-4.11-.89-3.83l-.38 1.86.72.55c-.95.28-2.47.54-2.92-.67-.18-.48.52-1.51-.54-1.74l-.35.69-.66-3.06 1-.57zm172.55 30.46c-.6.07-.44 1.01-.1 1.31 2.97 2.62 7.34-3.2 3.29-4.85-3.32-1.35-5.04 3.65-3.54 3.54l.75-1.07 1.5.38-1.04-.7c.4-1.26 2.82-.72 2.72.46-.91 2.82-2.77.83-3.57.93ZM32.64 3.66c-.6-.05-1.16-.01-1.74.16-.76.23-4 2.68-4.64 3.32-.25.25-1.58 2.42-1.57 2.58.08 2.07 3.27-2.19 3.49-2.39C29.5 6.17 30.7 5.41 32.3 4.7c.19-.35.46-.56.34-1.04"/>
        <path d="M29.52 7.64c.41 1.64 2.12-.51 2.65-.81 1.04-.59 2.18-1.05 3.24-1.61l5.53-1.39c-1.88-1.97-6.43-.13-8.65.87-.6 1.1-1.98 1.96-2.77 2.95Zm-4.85 98.29c.3-.62-.85-.66-1.28-.97-.19-.14-.23-.76-.67-.9-1.38-.43-3.25.8-3.59 2.21l3.46 2.25c-.22-1.42 1.81-2.05 2.08-2.6Zm161.64-3.46c.18-1.05-.64-1.36-1.5-1.21-.52 1-3.45 2.63-2.5 3.84.4.51 1.78-.06 1.59 1.01 1.78-.73.42-2.4.34-3.8.77.48 1.31 1.21 2.07.17ZM33.93 86.29c.85-.83.17-2.58-1.39-2.28-2.84.56-.17 3.8 1.39 2.28m177.94 3.84.37-1.28-1.88-1.43-.26.62c-1.58.9-.1 2.91 1.76 2.09Zm3.25-8.86c-1.12-2.34-2.73.99-1.77 1.6.86.54 2.53-.02 1.77-1.6m-4.48 19.6c1.54-.38.88-2.71-.56-2.35-1.54.38-.88 2.71.56 2.35m5.8-60.33c1.23-.88-.6-2.93-1.66-1.84-1.12 1.16.61 2.59 1.66 1.84m-5.08 44.23c.26-.31 1.04-.34.91-.98-.3-1.46-3.04.28-2.77 1.72.97 1.22 1.24-.01 1.86-.74m3.65 2.27c.55-.32.07-3.32-1.47-2.06-1.32 1.07.05 2.9 1.47 2.06m-25.96 17.3.37-2.39c-.68-.68-4.02 2.78-.37 2.39m19.22-67.8c.85 1.69 3.14-.47 1.89-1.35-.57-.4-2.38.37-1.89 1.35m-1.85-7.59c-.6.44-.19 2.17.79 2.02 1.68-.26.61-3.05-.79-2.02M92.18 49.18c-.7.23-2.86 1.53-3.35 2.01-7.1 7.04-1.87 20.96 9.49 17.63 13.05-3.82 4.95-23.27-6.14-19.64m-3.61 13.63c-2.97-3.67-.19-11.59 4.55-12.35 2.58-.41 6.02.82 7.33 3.16-3.46 3.59-7.23 7.24-11.88 9.19m.48 1.59c2.63-2.57 3.48-.56 5.72-.5 1.7.04 3.82-1.59 4.48-3.13 1.01-2.34-.88-4.84 2.59-5.88 5.36 8.95-5.93 17.6-12.8 9.52Zm21.81-10.39c6.22 2.84 13.58-2.16 11.14-9.06-.79-2.23-3.01-5.27-5.6-5.3l2.26 3.12c-.45 1-8.25 5.76-9.52 6.07-.39.1-.66.29-1.06 0-.43-.31-1.33-3.49-1.37-4.19-.24-4.38 3.34-6.02 7.27-5.36-.36-1.95-4.16-1-5.42-.41-6.28 2.93-2.98 12.69 2.31 15.12Zm1.21-5.24c3.66 3.15 7.6-.5 7.09-4.62h1.03c-.05.93.57 1.75.67 2.63.58 5.13-4.95 7.76-9.21 5.75-3.28-1.55-2.52-2.61.42-3.76m1.56 11.65c.34 3.93-2.67 5.67-6.18 5.94l-.05 1.33c2.88.5 6.73-1.54 7.63-4.3.5-1.52.65-2.97-1.4-2.96Zm-26.97-22.3c1.31-1.11 3.2-1.73 4.82-2.28.17-2.05-4.95.47-5.64 1.02-.18.14-2.45 3.38-2.61 3.71-.24.5-.53.88-.4 1.5 2.01-.13 2.22-2.58 3.83-3.95M68.28 66.65l-.34-1.38h1.73l-.86-1.73c-.93 1.3-4.22 2.9-.52 3.11Zm19.05-25.79c.01.55.4.44.85.17.9-.54 1.41-.88 2.41-1.4.48-.25 1.04-.18.88-1.02-1.12-.44-4.16 1.14-4.14 2.25m13.48-5.54c0 .29-1.4 1.58-1.03 1.9 4.1-.25 1.09-3.63-1.68-2.72l-.39 2.02c.72.73 3.08-2.82 3.1-1.21ZM77.98 54.53c1.3.02 2.24.85 3.11-.52-1.04-1.01-2.94-1.33-3.11.52m24.85 31.96c-.95.27-3.52.86-4.44.93-.01.24.05.48.17.68l.77.66c.73.18 1.28-.59 1.99-.61.51-.02 1.15.44 1.69.33.29-.06.34-.68.61-.84.61-.36 1.29-.55 1.9-.88.4-.21.86.03.49-.9-.51-1.27-2.28.37-3.17.63Z"/>
        <path d="M103.33 84.21c.31-.15 1.97-1.35 1.98-1.47.12-1.07-2.73.59-3.1.7-1.53.45-2.79.11-4.13 1.24l.3.96c-1.01-.02-2.05 1.74-2.41 1.93-.57.31-1.42-.09-1.38.53l2.07 1.04v-2.07c.58.29 1.08.4 1.73.35.16-2.78 2.92-2.2 4.93-3.2Zm32.11 1.3c1.69 2.02 1.45-.05 2.16-.78.43-.44 3.36-1.28 3.36-1.99l-2.88-.56c-.44 1.75-1.33 2.27-2.64 3.33m-11.09-15.05c-1-.19-.55.29-.78.76-.54 1.12-1.16 1.96-1.64 3.05 2.68.45 2.51-1.76 2.42-3.8Zm-4.67 5.52c.78.03 3-1.78 1.39-2.75-.39.21-2.9 2.7-1.39 2.75m30.29-3.55c.21.76-.46 2.23 1.03 2.17.07-2.04.4-3.99-1.9-4.84-1.62 1.26.76 2.31.86 2.67Zm27.17-37.29 1.56-1.03c-1.51-.06-1.55-1.07-2.25-2.08l-.86.25-.69 1.31 1.4-.04.85 1.59Z"/>
    </g>
</svg>
