<?xml version="1.0" encoding="UTF-8"?>
<svg id="Layer_2" data-name="Layer 2" xmlns="http://www.w3.org/2000/svg" viewBox="0 0 185.61 165.58">
  <g id="Layer_1-2" data-name="Layer 1">
    <g>
      <g>
        <path d="M183.74,108.92c-1.14-1.92-2.13-6.27-1.39-8.51-3.29.85-3.02-2.4-5.1-4.15l1.84-.37.07-2.49h-2.13s-.73,1.27-.73,1.27l-2.91-5.4c3.92-2.02-1.05-2.92-.6-5.43,2.11.02,3.09.65,3.79-1.61l-3.2-2c1.94-13.02,5.3-30.85-.68-43.16-1.26-2.6-3.32-4.56-4.66-6.83-.32-.54.21-1.48-.07-1.89-.3-.45-1.47-.42-1.61-1.04-.23-1.1,1.05-3.14.05-4.67l-2.54.64-.29-3.84c-5.16-.2-3-3.21-3.84-4.46-.75-1.13-2.24.27-2.91-.24-.65-.49-.51-2.16-1.24-2.64-.68-.46-2.03-.05-2.44-.42-.33-.29-.05-1.61-.74-2.11-.99-.72-5.16-2.41-6.35-3.23-2.99-2.06-5.46-5.4-9.35-5.95-10.68-1.51-25.12,2.09-36.31.62C69.8-.2,31.61-1.17,12.5,27.15c-.71,1.05-2.75,5.47-3.01,5.66-.25.18-1.08-.37-1.51-.44l-.96.79c1.68,2.38-.47,3.64-.63,5.12-.29,2.69.4,6.8-.16,10.02-.53,3.08-3.56,7.04-4.03,9.38-.22,1.07.48,2.08.28,2.79-.31,1.13-2.74,1.24-2.47,2.64l1.83.42c.93,1.45,1.03,7.43,1.46,8.1.55.87,6.64,2.15,3.08,6.14.86,1.57,2.14.21,3.18.63,1.06.44,1.8,2.35,2.56,3.21l-2.54,1.9,2.58.66.92-1.61,4.82,6.69-1.31.64c2.19.98,4.33,2.86,4.76,5.34.17.98-.5,2.03-.34,2.82.08.38,2.72,1.2,2.32,3.98-.09.65-1.22,1.2-.99,1.54.04.06,1.11-.16,1.27.43.19.71.16,3.49-.02,4.25-.11.47-1.1.37-1.23.89-.36,1.39.31,3.32-.96,4.67l-3.52.63,1.91,1.58c-1.71,2.21-2.3,5.36-5.74,4.79l.47,1.28h1.44c-.53,2.95-3.7,6.11-3.81,9.3-.06,1.77,3.25,8.44,4.34,10.24,1.89,3.12,5.93,5.84,5.21,9.13,3.27-1.64,4.05,1.45,6.22,2.39,4.11,1.78,7.7,1.3,11.2,2.09.53.12.16,1.17,1.35,1.3,2.68.29,1.02-1.43,2.04-1.98,1.37-.74,10.28-1.5,11.04-.57.12.14-1.27,1.79.35,2.51l1.32-1.94,9.84,3.88-1.91.63v1.91s2.5-.08,2.5-.08l.06-1.83,4.46,1.28-1.27.63c-.17,2.43,3,2.59,1.91,0,5.96.66,11.16,3.69,17.21,2.55l-.64,1.9c2.02.66,1.54-1.17,2.82-1.32,1.88-.23,3.93.5,5.55.34,6.08-.61,14.44-3.04,20.06-3.47,1.32-.1,2.46.69,3.06.65.34-.02,2.46-2.94,5.47-3.56.95-.2,2.44.48,2.55.36.13-.14-.36-1.27.4-1.97,2.1-1.91,11.24-7.03,13.98-7.56,3.19-.62-.8,2.94,3.47,2.51l-.64-1.9c4.25-.11,7.84,1.16,12.1,0,.39,5.01,1.7-.2,1.89-.32,2.58-1.59,6.17-.74,6.4-.97.11-.11-.22-1.23.13-1.73.41-.59,3.75-1.44,4.77-2.29,2.36-1.96,4.59-7.82,8.48-6.18-1.01-3.79,1.17-3.63,2.19-5.14,1.08-1.59,3.51-7.98,4-10.03.45-1.91,1.72-11.19,1.51-12.47-.08-.49-1.33-.61-1.84-1.47ZM122.59,6.22c1.58-1.61,3.03.25,3.98.25,1.13,0,3.68-2.58,5.13.23.86,1.65-3.65,6.67-5.02,6.3l-4.61-3.76c-.47-.87-.13-2.35.52-3.02ZM41.14,16.27c.86.55.72,1.59,1.19,2.33.22.35,1.11-.02,1.05.53l-1.33,1.33.68,3.45c-2.07-1.43-3.03-1.42-5.09,0,.26-2.07-1.2-2.46-2.56-3.51,3.64.02,3.97-1.78,6.05-4.13ZM19.89,41.55c1.11-3.63,6.32,2.24-.1,2.76l.1-2.76ZM22.31,131.36c-.68-9.47,6.54-14.16,15.32-13.73-.26,1.17-2.04.66-3.17,1.6-3.8,3.17-3.43,12.24,1.64,14.27l7.26,1c-4.13,10.62-20.25,7.98-21.05-3.15ZM36.61,102.39c-.71-.6-.94-1.37-.94-2.28-.03-4.82,3.76-2.61,6.73-4.16,1.25.29.34,5.08.97,6.38-2.16-.13-4.86,1.56-6.76.06ZM85.59,141.67c-5.53,1.34-17.28,5.27-22.1,4.61-1.1-.15-4.69-1.36-3.23-2.5,8.45,5.38,18.08-4.44,27.1-3.19.15.9-1.13.93-1.77,1.09ZM91.6,150.09l2.77.7c-.19,4.99-6.74,3.13-2.77-.7ZM147.29,138.67c-.31-1.96.49-1.02,1.59-1.25,3.39-.72,8.16-1.33,11.17-2.22,6.58-1.94-2.27-4.33-5.4-4.2-5.64.23-10.56,4.99-15.37,5.72-4.01.61-9.13-.3-13.34.05-7.19.59-14.32,3.24-21.68,3.17-5.18-.05-12.28-2.74-17.86-2.59-5.86.16-12.41,3.82-18.14,4.21-2.96.2-6.32-.81-9.59.29-1.28-14.58,1.49-28.09-1.57-42.74-1.25-5.97-5.6-15.62-5.92-20.86-.38-6.12,1.68-11.85.32-19.44-.29-1.62-1.31-7.35-3.67-6.53,2.36,7.1,3.45,13.2,2.56,20.71l-1.42-.81-3.65-8.45c-4.94-.87-.48,3.24.45,5.29.55,1.22,2.51,6.06,2.6,7.01.28,3.13-3.62,4.69-3.07,7.81-5.08.51-8.7-3.85-12.15-5.38-2.32-1.03-4.78-1.05-7.63-2.57-1.57-.84-6.72-4.28-6.86-5.86l15.93-27.82c3.16-5.66,11.13-6.78,16.68-9.46,6.1-2.95,11.86-6.55,17.96-9.5l.94.32c6.73,14.08,30.06,13.69,33.14-2.84-2.81,1.48-2.97,6.51-6.34,7.38-1.18.3-2.32-.49-3.5-.39-5,.41-10.04.76-15.01,1.3l5.42,1.32,11.79-1.32c-7.67,6.42-20.36,2.64-24.22-6.38,5.44.14,10.07,1.74,15.64,1.3,6.01-.48,15.13-6.57,20.06-2.89,1.4,1.05-1.97,6.2-2.9,7.29-1.89,2.2-5.3,3.7-7.26,5.49-.98.9-.52.73.28,1.55,5.61-2.75,10.2-8.05,11.81-14.01,5.98,1.47,12.15,2.31,18.11,3.87,4.25,1.11,14.87,3.75,17.57,6.65,3.32,3.56,4.47,8.49,6.67,12.46,3.23,5.82,6.69,11.57,10.29,17.17,1.29,2.87-7.84,7.75-9.65,7.62-.93-.06-1.57-1.17-2.42-1.12-1.47.09-7.72,4.73-8.07,4.35l.67-2.82-1.33-.72c1.98-2.49-2.37-4.32.67-5.05l-.65-1.61-1.9.65c-1.1-.75-.44-13.5.56-15.58l-2.48-1-.65,12.11c-1.3-.89-2.36-3.76-2.75-5.21-.23-.86-1.07-4.77-1.07-5.31v-9.24c-1.62-2.15-1.33,4.8-1.3,5.45.7,13.61,11.5,40.38,16.76,54,3.61,9.35,8.34,18.23,11.96,27.58.14,1.31-.07.83-.95.96-2.83.4-8.5-1.43-9.25,2.55,3.22-2.23,7.23-.79,10.87-1.59,9.35,12.35-5.61,9.19-13.42,11.16ZM160.41,85.08l-.69,1.3c-1.41-2.02-2.83-.76-4.78-.63,1.29-2.78-.39-5.63,3.22-6.11,1.09.31,1.46,1.32,2.15,2.04.36.37,1.23.12,1,.56l-1.91.97,1.01,1.86ZM170.24,104.86c-1.6.03-2,1.08-1.92,2.56h-.62c.29-1.99-1.7-1.21-3.19-1.27-.26-.21,1.94-5.36,3.17-4.46-.43,1.75,3.13,2.69,2.56,3.17Z"/>
        <path d="M13.84,4.24c-1.1.33-1.82,1.89-2.27,2.87l.91,1.48c4.09.46,5.83-5.68,1.36-4.36Z"/>
        <path d="M3.99,120.66c1.26,1.58,5.2-.53,2.86-2.86-2.03-2.03-4.56.74-2.86,2.86Z"/>
        <path d="M10.27,13.13c-1.73,2.42,3.08,4.63,3.76,2.15.64-2.29-2.81-3.48-3.76-2.15Z"/>
        <path d="M123.7,101.69v3.19c-1.22-.15-.84-2.09-2.35-2.46-1.96-.49-3.43,1.26-3.39,3.1-5.51-5.43-5.11.25-7.01,1.59-.78.55-2.66.14-3.18,1.28-.89,1.95,1.32,1.16,1.27,2.22-1.24-.08-1.82.69-1.92-.94-.25-3.99.68-2.53,2.53-3.87,2.6-1.89-2.97-3.68-4.59-.13-2.54,5.57,3.12,12.09,5.92,4.95,1.74-.47,1.09,1.28,2.7,2.09,2.11,1.06,3.69-1.41,3.67-3.37,1.64,1.54,2.17,3.24,4.93,2.14,1.5-.68,1.36-2.6,1.44-4.05l1.67,3.75,4.55-1.34c1.16-5-.88-8.6-6.23-8.16Z"/>
        <path d="M95.66,109.68c.5-2.25,3.08-2,2.53-3.2-1.72-3.74-6.91,2.52-5.74,5.41l-1.99-5.01c-4.58-.72-3.24,1-3.8,3.85-.09.46-.58.48-.59.52-.09,1.09-.32,4.82.97,5.1l2.54-2.53c1.01,1.69,1.23,2.35,3.46,1.85l.05-1.87c2.04,1.71,4.02,1.98,5.72-.31l-3.14-.98c-.15-.15-.13-2.29-.01-2.82Z"/>
        <path d="M80.44,107.52l-.1,5-3.82-2.23,1.89-.65.03-1.91c-2.69-1.09-5.1.95-4.38,3.69.45,1.7,2.61,1.71,3.09,3.01-4.04.08-3.14,3.58.18,3.09,1.3-.19,3.35-2.63,3.63-2.44,2.52,5.31,2-.88,2.21-1.28.26-.5,2.86-1.99,2.91-2.54.3-3.23-2.76-5.48-5.65-3.73Z"/>
        <path d="M133.26,104.23l1.91-1.27c.65-3.32-3.58-3.35-4.33-.82-1.39,4.65,3.05,4.02,3.05,4.97l-3.16,1.91c4.01,4.81,9.35-4.14,2.54-4.79Z"/>
        <path d="M101.38,111.89l2.54-2.23-2.52-.98v-1.88s1.9,0,1.9,0v-1.91s-4.47,0-4.47,0l.68,9.53c4.08,1.07,8.08-2.14,1.87-2.52Z"/>
        <path d="M82.78,37.16c1.02.04,1.74.05,2.03-1.14-7.84,0-14.37-4.34-19.76-9.57,2.15,6.19,11.6,10.48,17.72,10.7Z"/>
      </g>
      <path d="M73.95,87.27c15.7.95,43.29-10.04,49.22-25.76,3.29-8.71-4.62-11.93-11.97-10.38-.5.1-3.06.73-1.91,1.49,4.79-1.48,13.68-1.13,13.05,5.79-.35,3.82-3.8,8.11-6.43,10.77-9.93,10.05-28.94,17.75-43.09,16.48-5.46-.49-6.19-4.3-3.88-8.66.51-.96,1.66-2.16,1.84-3.18.07-.39.13-.41-.24-.69-6.07,5.63-6.72,13.52,3.41,14.13Z"/>
      <path d="M81.98,87.96c6.98,5.35,22.16,3.96,28.46-2.14,3.78-3.66,7.3-9.03,6.91-14.5-2.06.66-1.79,2.65-2.39,4.33-.09.24-.93,2.05-1.01,2.14-.21.24-.61.09-.67.16-.09.1.03.89-.15,1.34-.41,1.05-4,4.89-5,5.7-.21.17-1.76,1.31-1.87,1.34-.44.13-.78-.22-1.2-.2l.12.69c-.51.02-.75.41-1.05.56-.62.3-3.59,1.23-4.48,1.44-.41.1-.98-.31-1.55.29l-.36-.44-.44-.02c.12.28.23.55-.14.65-.26.08-.58.05-.86.03-.71-1.29-.38.1-.72.22-.5.18-.36-.66-.79-.68-.49,1.54-.96.22-1.04.22-.88-.05-2.3,1.13-2.95-.45l-.42.46-4.93-1.14.68-1.14c-.62-.22-.86.91-1.04.92-1.21-.8-2.15-.89-3.52-.36.18.18.17.41.39.58Z"/>
      <path d="M75.91,60.33c.27-.55.26-.78.46-1.16,1.58-3.07,5.19-6.83,8.25-8.4,4.81-2.47,13.55-2.84,18.31-.23,6.49,3.56,11.27,10.04,12.61,17.35,1.87-.29.8-2.9.39-4.15-4.11-12.4-16.15-19.03-28.87-15.33-6.04,1.76-12.72,7.6-12.99,14.24,1.18-.37,1.38-1.39,1.84-2.33Z"/>
      <path d="M71.33,69.15c.07.5-.07.27-.33.35-.97.29-2,.38-2.86,1.02.1.25,1.84.35,2.17.36.71.01,1.74-.03,2.38-.24l-1.14,4.1.8-.22c.01-.58.69-3.49,1.16-3.64,1.94.25,3.56,1.64,5.55,1.58.63-.55-2.64-1.62-2.89-1.77-.25-.14-.4.03-.29-.5,3.07-.31,4.52-3.2,6.38-5.13.06-.52-.13-.33-.47-.24-2.03.48-4.03,1.36-5.68,2.64.56-1.7,1.29-3.34,1.93-5.01.12-.31.45-.56.51-.83.05-.2-.16-.46-.16-.62,0-.17.39-.03.46-.46.05-.27.07-.75-.35-.58-.49.2-.46.89-.64,1.07-.19.19-.69.11-1.08.63-.47.62-.67,1.89-1.36,2.52-1.05.45.51-.82-.35-.8-.04,0-.47.44-.57.57l-1.37,2.39-1.14-7.52c-.44-.07-.61.18-.68.57-.56,3.09-.68,6.67.91,9.45-1.07-.11-1.72-1.13-2.36-1.75-.1-.09-.43-.02-.53-.13-.22-.22-.59-1.8-1.44-1.42,1.06,1.3,1.96,2.73,3.42,3.65Z"/>
      <path d="M95.71,73.48c7.22-2.67,3.55-13.79-3.24-12.81-4.76.69-7.46,8.24-3.7,11.56,2.01,1.78,4.47,2.17,6.95,1.25ZM88.2,68.81c-1.07-4.9,4.46-10.07,8.52-5.67.34.37,1.17,1.41,1.03,1.88-.28.94-8.08,4-9.55,3.79ZM88.42,69.72l1.71-.38c2.42,2.63,6.41.95,6.3-2.55l1.67-.72c2.72,6.19-7.32,9.75-9.68,3.65Z"/>
      <path d="M112.58,62.08c-.15-1.45-1.38-4-2.96-4.21-.12.1,1.37,1.52,1.04,2.05-.47.74-5.94,3.27-6.85,3.2-1.2-.1-1.1-3.74-.62-4.73,1.09-2.24,2.99-1.44,4.72-1.42.45,0,.37-.03.35-.46-5.34-2.01-7.87,2.43-5.87,7.12,2.32,5.46,10.89,5,10.2-1.55ZM104.15,64.03c1.64-.94,1.92.09,3.18.36,1.87.39,3.67-1.43,3.43-3.32,1,.06,1.01,1.87.9,2.6-.51,3.34-6.43,3.47-7.5.36Z"/>
      <path d="M74.75,74.28l-.23-1.14c-.49-.36-1.09,1.6-1.08,1.9.05,1.84,2.51,6.57,3.81,8.02.42.47,1.93,2.25,2.51,1.47.44-.59-1.04-1.78-1.24-2.06-1.23-1.73-2.07-3.39-2.85-5.37v-.32c.79.18.8-.62,1.35-1.03-.58-.81-.77.72-1.36.8-.42-.95-.53-1.48-.23-2.51l-.68.23Z"/>
      <path d="M122.16,75.06l1.81,1.39.64-.17c-.19-1.04,1.36-1.76,1.19-2.34-.09-.28-.7-.3-.89-.48-.29-.27-.62-1.1-1.04-1-.35,1.13-1.32,1.62-1.7,2.6Z"/>
      <path d="M102.21,74.97c-.87.07-2.17-.71-2.39.33,1.64,1.57,4.98.27,5.93-1.58.22-.43.61-1.69-.12-1.72-.27,0-1.39,2.8-3.42,2.97Z"/>
      <path d="M81.81,92.85c-.09-.28-.78-.35-1.03-.56-.38-.32-.4-1.08-1.1-.9-.37.1-1.01,1.66-1.7,1.91.1.8.74.51,1.16.79.23.15.58,1.16,1.27.67.09-.06.11-.56.27-.75.38-.47,1.36-.38,1.12-1.16Z"/>
      <path d="M94.02,50.8c-1.33-.09-2.62-.15-3.75.59-.22.14-2.54,2-1.49,2.15.67.12,2.09-1.82,2.27-1.82h5.35c.07-.83-1.77-.88-2.38-.92Z"/>
      <path d="M87.28,80.66c.08-1.07,1.15-.54,1.89-.73.35-.09,1.32-.52,1.53-.86-.48.12-1.66-.45-1.89-.41-.2.04-.43.37-.74.4-.74.07-1.5-.02-2.25,0l-.14.57c.09.29,1.48.21,1.38,1.02h.22Z"/>
      <path d="M83.75,54.68c-.89-.23-1.37,1.47-1.93,1.72-.32.14-.63-.39-1-.32-.43.08-2.35,1.77-1.74,2.47.36.29,2.32-1.47,2.28-2.05l.23,1.14c.21.23,2.29-1.83,2.39-2.05.21-.45.15-.62-.23-.91Z"/>
      <path d="M92.07,54.22c.55-.07,3.35-.02,3.19-.79-.13-.62-3.6-.58-3.19.79Z"/>
      <path d="M88.42,77.58c-.01-.92-2.1.08-2.73-.34l.03.65c.46.74,2.7.17,2.69-.31Z"/>
      <path d="M80.57,77.92l-.46.68-.56-.34.68-1.02-1.14.81.05.52.64.37c0,.19-1.42,1.26-1.13,1.48.64.51.74-.63.9-.81.22-.24,2.09-1.55,1.04-1.69Z"/>
      <path d="M84.09,78.72c-.34-.55-.97-.24-1.43-.35-.18-.05-.18-.29-.26-.34-.11-.07-.53-.4-.59-.33-.39.53,1.53,1.78,2.05,2.05-.47-.98.15-.36.23-1.02Z"/>
      <path d="M97.93,86.2c.17-.22.45-.16.29-.76-.22-.24-1.55,1.23-1.73,1.45-.29.35-.75.82-.77,1.28.24.24,1.98-1.67,2.21-1.97Z"/>
      <path d="M77.78,77.53c.12-.11.44-.01.55-.12.19-.18.07-.88.74-.87l-.32-.66-1.93,2.73c.71-.04.87-.99.97-1.08Z"/>
      <path d="M89.57,54.8c.04.93,2.27-.78,1.82-1.25-.31-.32-1.74.79-1.82,1.25Z"/>
      <path d="M92.75,88.4c-.53-.61-3.27-4.01-2.17-1.59l2.17,1.59Z"/>
    </g>
  </g>
</svg>