<svg xmlns="http://www.w3.org/2000/svg" data-name="Layer 2" viewBox="0 0 200.82 129.63">
    <g data-name="Layer 1">
        <path d="m162.32 91.26-22.36 6.55-.84-2.23-1.66.56 1.11 2.21-6.12 1.67.56-1.1-3.33.56 1.11.55c1.26 1.51-10.16 2.29-9.71 5.6.23 1.69 1.73 1.35 2.79.54l.27-2.22 4.43-.02c-.52 3.7-2.43 2.13-3.77 2.89-.32.18-.94 2.14-2.62 2.65-1.62-5.17-3.39-.09-6.39 0 4.95-3.73-1.42-5.74-1.98-3.03-.07.33.44 1.07.28 1.3-.51.72-4.54 1.27-6.24 5.26-.58 1.37.88 2.01-1.24 2.57l-.31.86 1.15 1.94c-2.47-.49-4.5.95-6.59 1.38-.81.17-1.83-.45-2.99-.16-1.48.38-2.97 3.13-4.89 1.84-.38-.25-.37-1.29-.89-1.42-3.1-.75-1.87 3.82-4.87 2.76-1.07-.38-1.08-3.9-3.38-3.29-1.61.43-.12 3.18-.29 3.33l-2.21-.83 1.1-1.94H71.32l-.07 2.13c-.76.63-3.28.72-3.74-.01-.43-.69.68-2.76-2.06-2.67-1.57.05-.92 1.51-1.7 2.25-3.49 1.01-3.25-1.94-4.46-2.16-3.31-.6-.3 2.71-2.16 2.7-1.77 0-3.27-1-3.6-2.8-.43-.01-1.22.6-1.69.3l-1.64-3.63h2.78l-.55-3.34 3.33-.03-.56-4.97c-1.95-.01-2.18 1.91-1.67 3.33-1.9-1.03-1.24.93-1.81 1.52-.64.65-2.73-.05-2.08 2.92-.55.62-3-2.22-3.69-2.71-.64-.46-1.7-.38-2.26-.79-.69-.51-.88-2.59-2.65-2.05l-.86 1.66h-.8c-3.88-2.53-6.82-4.98-6.1-10.03-.66-.95-5.02.83-3.08-3.3-6.99-.19.92-4.53-2.23-6.45l-1.66.33c-.27-2.44-1.57-3.46 1.05-4.78l-.51-1.9c-.68-.24-1.73.6-2.14.46-.14-.05-1.94-2.01-2.01-2.14-.35-.63-.19-1.66-.58-2.21-.43-.61-6.34-2.65.28-3.34-.06-1.19.13-2.2-.55-3.33l3.26-.08.09-2.32c-1.02-1.33-2.57-.66-3.91-.38l.56-3.33c.92-.07 1.86.06 2.78 0-.42-2.77.15-2.91-2.78-4.18-.34-1.34 2.6-.6 1.42-3.63-.51-1.31-1.1-1.66-2.51-1.68l-.03-1.63h2.23v-3.34h2.21l-1.1-1.94 2.69-1.19c.71-4.63-.39-9.41 3.14-12.98 2.05-2.07 5.38-2.96 7.44-4.78 2.76-2.43 4.5-7.49 7.89-10.45 3.61-3.16 8.12-2.52 12.01-4.11 2.14-.87 4.23-3.38 6.09-4.48 4.81-2.86 12.71-3.09 17.99-4.8 2.37-.77 6.11-4.19 8.17-4.63 1.78-.39 2.84.45 4.27.41 3.92-.11 6.68-.52 11.16-.47 4.7.06 9.76-.86 14.17 1.08-.01.79-1.58 1.09-2.24 1.36-2.62 1.08-4.34 1.63-7.18.83l-1.14-2.19.07 3.08-6.18 2.48c-.03.93-.29 1.22.81 1.09 4.69-.56 11.76-4.32 16.86-4.82l17.9-6.82c-.94-.14-1.78.15-2.66.38-2.11.55-9.11 3.54-10.42 3.51-.94-.02-1.89-2.24-3.74-2.92-6.37-2.32-10.61.2-16.24.17-6.77-.03-8.68-2.24-16.7.49-7.4 2.53-17.27 5.65-24.31 8.48-2.58 1.04-4.42 3.6-5.93 4.07-3.77 1.17-6.52-.15-11.1 2.24-7.39 3.85-7.68 10.31-12.82 14.42-3.24 2.59-8.35 3.85-10.24 8.1-1.22 2.76-.22 4.74-1.16 7.15-1.55 3.97-6.74 6.33-6.43 11.39.09 1.44.92 2.61 1.09 3.95.64 4.94-2.03 6.12-3.04 10.21-.59 2.37-.69 6.73-.13 9.09.71 2.97 4.11 3.69 5.68 5.43 2.32 2.58-.47 5.74 1.43 8.85-3.64-.86-2.29 2.9-.28.6 1.43 2.53 3.56 4.61 5.17 7.02 3.08 4.58 4.97 10.84 11.19 12.16 2.94.62 5.89-.53 7.75 2.82.59 1.06.48 2.36 1.15 3.29.31.43 4.89 3.31 5.44 3.45 4.17 1.05 8.71-.46 12.62.17 1.9.31 4.35 2.27 6.28 2.62 1.68.31 3.35-.12 4.86.14 1.26.22 3.38 2.74 1.96-.56 3.98-2.37 6.99-.09 10.9.49 1.9.28 4.33-.3 5.96.07.44.1.42 1.73 2.04 1.11-.34-3.37 4.33-5.67 6.93-3.34 1.61-3.4 5.99-2.17 8.96-3.29 2.72-1.03 4.77-4.84 8.01-3.38l-.52-2.15c2.78-.28 6.29-6.3 8.5-6.08.74.07 1.51 1.2 2.04.77.4-.32.59-1.26 1.14-1.67 2.11-1.6 5.13-2.61 5.53-5.87l3.88 1.11c.85-1.35-2.36-2.86-1.12-3.62 1.96-1.2 4.05-.25 5.33-.43.57-.08.64-1.22 1.18-1.53.59-.34 6.73-2.7 7.14-2.74.24-.02.22.82.39.91 2.55 1.35 2.6-.98.98-2.58 3.98.04 5.5-3.48 9.44-3.9l-1.81-.42Zm-53.21 26.55.09-2.13 3.24-1.2c.49 2.53-1.14 3.05-3.33 3.33"/>
        <path d="m56.32 116.39-2.76.34c-.11.11-.11 2.31-.03 2.75 2.74.08 4.51.86 2.79-3.09M27.95 71.67c.17-3.44-1.07-2.94-3.33-2.78.39 2.63-.18 3.02 3.33 2.78m-5 9.75c2.24 1.15 4.8-3.63-.55-3.07.05.91-1.23 2.16.55 3.07m177.87-39.2h-11.95c-2.77 0-10.9 3.18-14.6 3.75-.58.09-2.34.46-2.36-.14 5.39-2.24 11.62-3.28 16.83-5.97.7-.36 1.8-.95.13-.99-4.65 1.23-8.7 2.77-13.08 4.15-3.74 1.18-7.71 3.18-11.65 2.8 1.51-1.13 4.1-2.96 5.72-3.73 2.85-1.36 9.16-2.64 10.97-5.15.86-1.2.61-2.33 2-3.56 3.03-2.66 8.37-3.51 11.32-6.18-1.19.03-2.41-.1-3.6 0-4.88.44-25.71 6.63-29.88 9.03-.6.34-1.11.7-1.53 1.25l21.95-5.84c.4 1.05-1.52 1.4-1.97 2.07-.53.8-.35 2.01-1.33 2.97-1.41 1.38-7.29 2.69-9.58 3.76-4.57 2.13-8.74 5.23-13.5 7.06-3 1.16-1.67.12-4.5 2.17-3.58 2.59-7.38 4.45-11.07 6.71l1.65 1.16c9.36-1.07 18.56-4.09 27.77-6.19.57-.13 1.81-.74 1.69.3l-16.51 6c-3.64 3.25-8.52 5.39-12.7 7.29-.7.32-1.68.2-.51 1.18l15.11-4.36c1.06-.09 1.41 1.3 2.23 1.52.83.22 6.49-2.65 7.84-3.11 6.08-2.06 12.37-3.64 18.44-5.74l-.27-1.09-11.12 2.78 3.97-1.62 1.3-1.17c-1.69.54-3.68 1.26-5.42 1.53-.59.09-1.93.59-1.8-.41l22.78-7.24c.14-.98-1.25-.54-1.81-.42-1.27.28-2.47.99-3.72 1.29-.56.14-1.82.73-1.69-.3l14.45-5.57ZM95.54 18.36c-2.13.23-7.23 2.75-8.41 2.73-1.44-.03-3.2-3.93-5.2-.77-2.79 4.39 3.7 4.42 4.98 6.57 1.23 2.08-.11 3.95.26 4.79 1.38 3.21 6.79-1.81 8.62-2.55 1.85-.74 3.65-.01 4.99-1.66l-2.22-.83v-5c3.75-.25 1.73 6.51 5.92 7.08 3.92.54.26-2.61-.11-3.72-.4-1.2-.13-2.52-.66-3.78-.59-1.37-2.36-1.66-2.37-2.36-1.9.11-3.53-.76-5.79-.52Zm-.05 8.84-1.16-1.63-3.56-2.81 2.25-.29c.13 1.69 3.17 2.89 3.31 3.08.35.49-.36 1.32-.83 1.65Z"/>
        <path d="M133.01 23.59c.28 1.32 4.13.82 5.14.7 12.66-1.58 25.87-6.55 38.22-10.14 2.04-.59 7.66-1.51 8.9-2.22.24-.14.6-.51.55-.83-.76-.55-11.05 1.96-12.9 2.38-10.42 2.37-20.28 6.18-30.79 7.56-.59.08-2.02.47-1.88-.49 9.21-3.82 17.57-9.45 27.2-12.28l-.49-1.01c6.49-1.96 12.44-6.01 19.42-6.16l-.84 1.65 2.5-1.38C187.26.44 186.85 0 185.61 0c-2.96 0-13.58 4.26-15.37 3.31.16-.49 1.18-1.3-.27-1.11-11.21 1.48-23.85 8.72-35.58 9.45.15-1.38 2.47-2.42 3.6-3.07 5.22-3 11.44-5.9 17.24-7.5.14-.98-1.25-.54-1.81-.42-6.96 1.53-14.2 4.98-21.25 6.55-.88-.55.41-.69.8-.86 4.76-2.16 9.81-3.58 14.75-5.26.88-.83-.53-.51-.96-.42-4.62.94-10.62 2.82-15.16 4.3-5.28 1.72-10.71 3.69-15.82 5.85-3.26 1.38-11.07 4.53-13.56 6.45-.67.52-.9.69-.9 1.6 4.01-.23 12.21-4.47 16.39-5.01.28-.04.56.01.84.01.84.63-5.86 3.09-6.11 3.34-.36.36-.25 1.25.82 1.1 4.4-.63 12.07-5.83 16.71-7.2l.8-.02.52 2.54c2.83 2.07 22.33-6.03 26.72-6.42l-31.5 12.68-12.4 6.5c-.21 1.4.93.83 1.68.57 2.03-.73 4.2-2.29 6.28-3.17 7.2-3.04 14.66-5.53 21.78-8.79 1.05.82.18.89-.44 1.25-6.25 3.57-14.54 4.83-19.86 10.41 4.26-.31 7.38-3.48 10.85-5.55 2.3.16-2.17 1.66-1.4 2.49ZM193.03 60c-.83-1.53-3.66.41-5 0l1.66-.56c.16-.12-.29-.71-.55-.84-1.37-.7-12.75 2.06-15.14 2.67-9.89 2.53-23.92 6.7-33.21 10.7-1.92.83-3.64 2.13-5.76 2.47l-.37 1.67 10.56-3.33c.88.66-5.98 2.96-6.49 3.23-1.58.85-2.79 2.16-4.24 2.98-1.86 1.05-9.11 3.71-8.51 6.02 1.12 4.25 4.27-.92 5.9-1.44.91-.29 1.81.17 2.67-.05 1.57-.4 2.75-2.01 3.88-2.3.87-.22 1.82.34 2.41.15 3.99-1.25 8.11-4.02 12.48-4.67 1.5-.07 1.24.09.1.66-8.08 4.04-6.91 6.75 1.81 4.04 1.84-.57 4.31-2.42 6.66-2.52 0-.86.33-1.27-.74-1.02-1.73.39-3.36 1.1-5.31 1.37-.88.12-1.83.67-.61-.61 4.58-3.5 30.65-11.16 32.22-15.03.47-1.17-.71-.78-1.26-.71-5.92.72-13.22 3.91-19.22 5.24-.88.2-1.84.65-.64-.64l26.68-7.5ZM56.86 76.68l-3.09.54c-.39 2.78 1.08 2.22 3.09 2.24.09-.9-.05-1.87 0-2.78"/>
        <path d="M67.89 84.65c3.18-6.86-.56-8.81-3.18-14.43-1.74-3.75-1.12-6.31-5.44-9.01-3.08-1.91-3.32-.8-6.08-.7-1.09.04-1.82-.72-3-.24-.95.39-.65 1.02.44.93l.07.67c-1.01 2.44-1.29 3.45-3.83 4.52l1.65.28c.16 2.08.28 4.11-2.21 4.46v1.09c.27 0 .81.01.91.18 1.99 3.29-.84 8.74 3.32 11.44 1.61 1.04 4.18.73 5.75 1.48 1.25.6 3.86 3.43 5.32 3.6 2.27.26 5.38-2.29 6.29-4.27Zm-5.52-5.51c-.73.54-.26 1.99-.62 2.43-.39.48-2.95.52-2.94 2.33l-.82-1.64c1.63-.15 1.92-1.23 1.61-2.76-1.08-.86-2.2-.04-2.74-.04-.45 4.43-2.04 1.53-3.41.33-.9-.78-2.26-.32-2.15-3.1h2.23c1.05-3.47-4.25-2.22-2.41-5.57h1.86c-.24-2.53-1.4-5.12.51-7.53 1.97-2.49 7.36 2.76 8.34 4.58.11.21 1.42 4.32 1.45 4.55.14 1.1-.79 2.15-.73 2.6.05.33 3.75 2.5 3.78 4.43-1.43 3.64-1.1-2.71-3.94-.61Zm110.67-55.53c2.9-1.53 7.43-3.55 8.69-6.45l16.86-4.41-1.67-.89c-15.72 3.44-31.39 7.21-46.66 12.31-3.63 1.22-8.98 2.77-12.24 4.43-.64.33-1.54.51-1.68 1.37l39.18-11.12-5.26 3.63c-5.81 2.86-11.92 5.1-17.8 7.79-.84.38-1.37-.07-1.1 1.37 1.92.51 4.46-1.54 5.93-1.55.83 0 1.36 1.01 2.6.99 3.35-.05 9.13-2.67 12.89-2.79 1.85-.06 3.55.63 5.54.62 6.25-.04 13.93-4.06 20.01-5.6.23-1.78-3.65.06-5.19.38-6.47 1.33-12.36 1.63-18.7 2.39-2.61.31-5.31 1.43-7.82 1.67-.59.06-2.08.4-1.93-.54 2.64-1.18 5.83-2.28 8.35-3.6m-54.49 34.17c-2.36-.52-2.17 1.83-3.32 3.07-2.17 2.33-5.65 2.89-6.56 6.78-.16.67-1.03 5.15-1.03 5.43 0 .48 2.07 5.59 2.55 6.13 2.95 3.32 13.58 1.93 16.66-.6 1.79-1.47 5.03-7.61 5.04-9.97.02-3.87-2.48-3.74-3.96-5.55-.39-.48.05-1.24-.04-1.32-.42-.34-1.86-.05-2.42-1.18-.5-1.01 0-2.52-.52-3.36h-1.7c-.8 1.25.05 5.64.85 6.84.48.72 1.6.41 2.28 1.2.76.89.08 2.26 2.48 2.5l.19 1.35c-.49 1.19-2.05 1.42-2.75 2.28-.48.6-.36 1.85-.83 1.99-2.9.91-1.2-2.62-3.86-2.25-1.76 1.65-.1 3.39 1.94 2.78v1.66l-1.4.52c-3.88-5.68-4.08.68-4.43.59-2.98-1.31-4.82-3.91-6.99-5.87-.25-1.44 1.32-1.88 1.55-2.81.12-.48-.44-1.24-.14-1.86.92-1.93 7.77-3.73 6.41-8.34Zm36.55 25.15c-4.41 1.58-8.71 3.65-13.1 5.24-2.48.9-5.13.42-7.32 2.69l1.11 1.93c-.88-.18-8.41 4.92-7.78 1.41.54-1.27 1.99-.1 2.18-.29.12-.12 1.16-2.9.88-3.33-1.53.95-2.04 2.45-4.17 2.22.02.79.86 6.41 1.66 5.55-.05-3.93 3.29-1.57 5.26-1.69 1.93-.11 4.77-2.98 7.53-1.65l-.56-1.39 4.74-1.39c2.88 2.21 1.85 1.08 4.34.47 3.82-.94 7.71-1.61 11.49-2.69.04-1.01.27-1.17-.83-1.12-2.16.1-4.46 1.8-6.95 1.12 4.3-4.77 12.52-5.12 18.34-7.78-.6-1.71-4.54.98-4.99.56l-.57-1.66 7.78-2.78-19.03 4.58ZM44.76 26.79c-2.27 4.34-2.93 8.37-3.47 13.2 3.85 2.01 4.21-2.06 6.14-3.02 1.97-.99 4.09-.19 5.97-.66 1.14-.29 4.87-2.48 5.65-3.29 3.16-3.3-.36-6.03 1.68-8.31.93-1.04 2.73-1.01 2.24-3.05-1.06-1.05-15.94 4.1-18.21 5.13m12.64 2.37c-.53.9-2.02.73-2.54 1.38-.3.37.5 2.03-.52 2.23-1.52.29-.83-3.42-3.61-2.22v-1.66c1.23-1.05 3.07 1.94 3.89 1.11 1.26-1.27-2.36-2.31-1.66-3.33l4.44-1.11c-.22 1.75-2.09 2.08 0 3.61Zm47.8 71.11c.04-.6-.96-3.95-1.15-4.08-1.75-1.2-2.63 1.38-2.82 1.49-1.79 1.08-2.25-.9-2.87-1.36-.47-.35-1.36-.22-1.75-.73-.62-.82-.15-2.47-1.41-3.6-2.05-1.83-5.62-.14-7.23 1.63-.26.29-2.83 4.07-2.9 4.35-.35 1.34-.33 2.48.82 3.37.54.42 7.04 3.82 7.64 3.98 3.94 1.02 3.95-.56 6.68-1.69 1.83-.76 4.8-.05 5-3.36Zm-53.84 7.59 1.6.51.56-2.23c-1.32 1.26-2.21.67-3.88.55l1.41-1.93-1.41-5.29h2.23l-.57-2.78-2.78.91c-1.84-.49-1.74-2.59-2.79-3.38-.74-.55-4.96-2.63-5.76-2.53-4.4.51-3.17 3.32-4.21 5.73-.16.37-5.53 2.18-.01 3.17l.55-2.22c.5 2.1 1.98 3.25 1.12 5.55l2.82.24.52 2.55 3.33-.55c.24.91-.97.25-1.12.91-.17.72.08 1.65.01 2.42 2.09.18 3.09-.06 2.22-2.22h2.5c-.92 2.86 3.24 3.19 3.67.61Zm-3.95-3.95c-2.97.66-2.21-1.3-2.93-2.07-.61-.65-3.27-.4-2.62-2.93l1.62.03.55 1.94 3.38.25v2.77Zm39.47-88.64c-.29.68.1 1.03.82.82 2.28-.68 6.23-3.42 8.8-4.54 3.21-1.39 7.44-1.72 9.83-4.34-4.99-.77-8.6 1.08-13.05 2.78L93 7.75c-1.7-.03-3.35-.1-5.04.25-2.28.47-11.1 3.19-13.13 4.1-2.96 1.34-7.48 4.86-9.63 7.32 4.33-.19 8.34-4.81 12.21-5.85 2.25-.61 5.51-.53 7.95-.94 1.9-.32 2.25-1.74 4.85.13-.51 1.14-2.74 1.12-3.33 2.5ZM37.42 79.73l-.03-1.1-1.68-1.16.58-1.9c-1.89.73-3.32-.28-4.65-1.67-.21-.22.1-1.18-.29-1.41-2.42-1.38-2.28.85-3.34 1.74-1.37 1.15-3.05.11-2.26 3.17.17.67 3.83 2.15-.05 4.08l.3 1.87c.79 1.17 2.67.75 3.47 1.25.55.35.8 2.11 2.22 2.53 5.23 1.54 2.18-6.22 5.73-7.41Zm42.5-21.4c-1.58.02-.95 2.15-2.21 1.67-1.95-.75.74-2.71.27-3.88l-2.17-.06c.12-1.21-1.21-2.69-1.2-3.54 0-.18 1.92-.37 1.04-1.87-.74-1.25-4.12-1.83-4.36.77-.08.89 2.19 7.75 2.89 8.78 1.59 2.34 8.76 7.7 10.76 3.71.82-2.86.43-7.02-3.06-7.79l1.1 3.88-1.65.57c0-.95-.11-2.25-1.4-2.23Zm-52.93 8.18c-.1.47.2 1.4.56 1.69 3.05 2.52 7.59-2.96 7.66-6.28.03-1.46-2.19-6.89-3.11-8.04-.73-.91-1.41.02-2.12-.16-.7-.18-2.15-2.06-2.03-.1.07 1.18 1.17.53 1.18 1.65 0 .23-.89 4.36-.99 4.58-.48 1.05-1.63.71-1.88 2.1-.15.81 3.26 2.26.72 4.56Zm58.77 49.9-1.16-1.16.6-2.44-2.23.56.56 2.21h-3.89l-.05-2.15-1.63-.38c-.99.48-.89 2.13-1.22 2.41-.42.36-5.67.35-4.32 1.78 2.66 1.23 12.12 2.64 13.33-.83Zm39-79.28c-.38-.46.34-3.75-1.76-3.54-4.55 3.27 5.01 9.84 6.95 7.52 1.97-2.35.32-7.48-3.06-7.22l1.1 5c-.52-.96-3.12-1.61-3.24-1.75ZM72.42 74.45c-.05 2.9-.03 6.72-.8 9.49-.67 2.45-4.26 5.23-2.27 7.17 3.47-1.76 4.2-5.26 4.86-8.79l1.54-.09v-1.66h-1.67v-6.12zM27.31 5.9l-.44-.67-1.7-.24c-.62 5.83 1.4 11.67 5.83 15.55 1.84-1.37-.82-3.49-1.5-5.16-1.22-3.02-2.33-6.16-2.2-9.47Zm33.07 30.67c-1.62 1.04-3.92 1.66-5.74 2.32-.15.76.2 1.34.93 1.57 3.49 1.12 8.53-3.08 9.63-6.29-1.53-2.09-3.26 1.4-4.82 2.4m45.02-5.01c-.95.27-1.36.72-2.68.71-3.08-.02-4.56-2-4.72 3.28 1.92-1.98 2.25-.34 3.74-.08 2.61.44 8.29-5.21 3.67-3.91ZM.28 53.17c-1.91 6.44 6.56 4.73 4.88 2.95l-2.66-.69-.06-2.59 3.26-.89c-1.14-2.42-4.88-.6-5.43 1.23Zm72.7-14.84c3.65 1.33 8.17-4.8 3.48-5.48-2.35-.34-3.39 3.62-3.48 5.48m-7.23 75.04c3.18.29 2.22-2.01 4.44-3.06-.3-.48-1.22-1.18-1.65-.83-.2.16.46 1.33-.55 1.1l-.07-1.03-2.08.57-.16 2.63-1.9.58-.19 2.22 3.83.6-1.67-2.77Zm38.79-34.02c1.13-1.98-1.07-4.48-3.21-3.78l.55 3.33-2.78-1.1c-.73 3.38 4.42 3.32 5.43 1.55Zm32.36 7.18c.38 2.71.83.69 2.38.04.55-.23 9.11-2.93 7.62-4.33-1.15-1.08-2.05 1.42-2.56 1.58-1.12.35-2.63-.05-4.11.35-1.31.35-4.14 1.38-4.99 2.51.56.22 1.54-1.09 1.67-.15ZM42.41 14.99h1.66l1.11-9.45-1.71.33c-1.34 2.96-1.12 5.95-1.06 9.12m-26.3 21.57c2.93.83.17-1.63-.13-2.1-1.57-2.4-.62-3.19 1.97-2.25v-1.65c-5-2.2-6.36 4.72-1.84 6m59.35 74.56c.68-.22.65-1.63 1.18-1.67.49-.03 1.97.95 2.45.58.21-.16.73-1.92-.29-2.21-1.07-.31-2.17-.2-1.94 1.09-3.38-2.95-4.5 3.23-1.4 2.21m19.28-44.85c.12.86 2.04 3.37 2.69 2.62l-1.11-6.67h-1.66c1.9 1.68-.17 2.31.08 4.05m11.3 44.31-3.03 1.15 1.07 3.07 2.15-.41c-.37-1.49 1.66-2.59-.19-3.81m-49.1 4.92c1.09 1.78 4.7-.19 3.18-2.62-.8-1.27-4.88-.14-3.18 2.62M37.12 84.58l-1.19 1.26 1.82 3.04 1.92-1.94c.12-.44-1.16-1.57-1.36-1.68-.35-.19-.67-.63-1.18-.67Zm113.67-19.01c-3.09.65-7.2 1.66-9.45 3.88 3.24-.15 6.88-1.96 9.45-3.88M41.29 48.33l3.36.33.47-2.49c-2.15-1.15-4-.37-3.83 2.16m52.23 71.45 1.68.25c2.91-5.95-3.62-5.54-1.68-.25m-30-.3-.56-3.89c-3.81.63-3.48 4.18.56 3.89m34.71-5.51 1.42.5-1.15-3.3-1.62-.03c-.39 1.09.41 2.44-1.11 2.23.63 1.26 2 2.71 2.46.6m-23.04-13.11c-.19-.67-1.07-.94-1.82-.74-.4.11-2.85 1.54-3.17 2.12 1.46.11 5.82 1.54 4.99-1.38m-42.47-3.59-.33-2.81c-2.06.03-2.89 1.35-2.77 3.33l3.1-.53Zm-4.21-8.92v2.78c4.54.62 4.61-3.39 0-2.78m71.7 30.57c3.81.04 3.52-4.05 0-3.88z"/>
        <path d="M80.76 16.1c-.45-.42-5.96 2.5-6.11 3.88 1.09.44 7.04-3.01 6.11-3.88m6.09 103.71c.41.39 2.12-.28 2.19-.39 1.83-2.93-5.36-4.57-2.19.39m-31.11-20.9-2.13.09-.64 3.25 2.69-.64zm13.61 21.12c1.37-.26 1.26-4.01-1.04-3.28-2.19.69-.98 3.67 1.04 3.28M31.33 70.3c.8.97 2.05 1.49 3.3 1.38l-.08-2.69-1.8-.58zm30.26 38.07-1.95 1.94c3.59 4.2 4.32-2.46 1.95-1.94M37.17 62.73l2.45-.5c-.46-5.74-5.34-.07-2.45.5m82.5-13.28c-.37 2.84 2.56 2.62 4.44 2.21-.81-1.67-2.65-2.42-4.44-2.21"/>
    </g>
</svg>
