<?xml version="1.0" encoding="UTF-8"?>
<svg id="Layer_2" data-name="Layer 2" xmlns="http://www.w3.org/2000/svg" viewBox="0 0 341.22 245.44">
  <defs>
    <style>
      .cls-1 {
        fill: #323232;
      }

      .cls-2 {
        fill: #424142;
      }

      .cls-3 {
        fill: #6f6e6e;
      }

      .cls-4 {
        fill: #646262;
      }

      .cls-5 {
        fill: #565455;
      }

      .cls-6 {
        fill: #292928;
      }

      .cls-7 {
        fill: #514f50;
      }

      .cls-8 {
        fill: #636263;
      }

      .cls-9 {
        fill: #686666;
      }

      .cls-10 {
        fill: #737272;
      }

      .cls-11 {
        fill: #4f4d4d;
      }

      .cls-12 {
        fill: #2e2c2e;
      }

      .cls-13 {
        fill: #363635;
      }

      .cls-14 {
        fill: #6a696a;
      }

      .cls-15 {
        fill: #514f4f;
      }

      .cls-16 {
        fill: #595959;
      }

      .cls-17 {
        fill: #6c6c6d;
      }

      .cls-18 {
        fill: #514f4e;
      }

      .cls-19 {
        fill: #232323;
      }

      .cls-20 {
        fill: #292929;
      }

      .cls-21 {
        fill: #3c3c3c;
      }

      .cls-22 {
        fill: gray;
      }

      .cls-23 {
        fill: #787779;
      }

      .cls-24 {
        fill: #151516;
      }

      .cls-25 {
        fill: #464546;
      }

      .cls-26 {
        fill: #575656;
      }

      .cls-27 {
        fill: #282827;
      }

      .cls-28 {
        fill: #515051;
      }

      .cls-29 {
        fill: #656566;
      }

      .cls-30 {
        fill: #585758;
      }

      .cls-31 {
        fill: #232222;
      }

      .cls-32 {
        fill: #151615;
      }

      .cls-33 {
        fill: #7a7a7a;
      }

      .cls-34 {
        fill: #908f90;
      }

      .cls-35 {
        fill: #4b4949;
      }

      .cls-36 {
        fill: #232223;
      }

      .cls-37 {
        fill: #3b3a3b;
      }

      .cls-38 {
        fill: #a2a2a3;
      }

      .cls-39 {
        fill: #5a5959;
      }

      .cls-40 {
        fill: #100f11;
      }

      .cls-41 {
        fill: #a5a5a5;
      }

      .cls-42 {
        fill: #61605f;
      }

      .cls-43 {
        fill: #5e5e5f;
      }

      .cls-44 {
        fill: #616060;
      }

      .cls-45 {
        fill: #7c7b7b;
      }

      .cls-46 {
        fill: #aaaaab;
      }

      .cls-47 {
        fill: #5d5d5c;
      }

      .cls-48 {
        fill: #1d1d1d;
      }

      .cls-49 {
        fill: #999998;
      }

      .cls-50 {
        fill: #424243;
      }

      .cls-51 {
        fill: #616061;
      }

      .cls-52 {
        fill: #7a7a78;
      }

      .cls-53 {
        fill: #686767;
      }

      .cls-54 {
        fill: #757576;
      }

      .cls-55 {
        fill: #212121;
      }

      .cls-56 {
        fill: #313031;
      }

      .cls-57 {
        fill: #545253;
      }

      .cls-58 {
        fill: #3d3d3d;
      }

      .cls-59 {
        fill: #272727;
      }

      .cls-60 {
        fill: #989899;
      }

      .cls-61 {
        fill: #8d8c8e;
      }

      .cls-62 {
        fill: #4c4949;
      }

      .cls-63 {
        fill: #303030;
      }

      .cls-64 {
        fill: #656565;
      }

      .cls-65 {
        fill: #0c0b0b;
      }

      .cls-66 {
        fill: #242324;
      }

      .cls-67 {
        fill: #7b7a7b;
      }

      .cls-68 {
        fill: #4f4e4d;
      }

      .cls-69 {
        fill: #747374;
      }

      .cls-70 {
        fill: #676567;
      }

      .cls-71 {
        fill: #282727;
      }

      .cls-72 {
        fill: #828184;
      }

      .cls-73 {
        fill: #1f1f20;
      }

      .cls-74 {
        fill: #4b4a49;
      }

      .cls-75 {
        fill: #6f6f70;
      }

      .cls-76 {
        fill: #6e6c6c;
      }

      .cls-77 {
        fill: #828181;
      }

      .cls-78 {
        fill: #525150;
      }

      .cls-79 {
        fill: #0b0b0b;
      }

      .cls-80 {
        fill: #a3a3a5;
      }

      .cls-81 {
        fill: #262626;
      }

      .cls-82 {
        fill: #838283;
      }

      .cls-83 {
        fill: #7b7a7a;
      }

      .cls-84 {
        fill: #262727;
      }

      .cls-85 {
        fill: #242424;
      }

      .cls-86 {
        fill: #5c5b5b;
      }

      .cls-87 {
        fill: #565656;
      }

      .cls-88 {
        fill: #5d5d5e;
      }

      .cls-89 {
        fill: #595758;
      }

      .cls-90 {
        fill: #0c0c0b;
      }

      .cls-91 {
        fill: #30302f;
      }

      .cls-92 {
        fill: #706f70;
      }

      .cls-93 {
        fill: #4e4f4e;
      }

      .cls-94 {
        fill: #908f8e;
      }

      .cls-95 {
        fill: #2a292a;
      }

      .cls-96 {
        fill: #79797a;
      }

      .cls-97 {
        fill: #504f4f;
      }

      .cls-98 {
        fill: #464444;
      }

      .cls-99 {
        fill: #1d1c1c;
      }

      .cls-100 {
        fill: #5e5c5c;
      }

      .cls-101 {
        fill: #383837;
      }

      .cls-102 {
        fill: #6b6a6b;
      }

      .cls-103 {
        fill: #282828;
      }

      .cls-104 {
        fill: #535151;
      }

      .cls-105 {
        fill: #323332;
      }

      .cls-106 {
        fill: #8b8b8b;
      }

      .cls-107 {
        fill: #4a4a4a;
      }

      .cls-108 {
        fill: #979798;
      }

      .cls-109 {
        fill: #5e5e5e;
      }

      .cls-110 {
        fill: #5e5d5d;
      }

      .cls-111 {
        fill: #232322;
      }

      .cls-112 {
        fill: #747474;
      }

      .cls-113 {
        fill: #141614;
      }

      .cls-114 {
        fill: #848384;
      }

      .cls-115 {
        fill: #1f1f1f;
      }

      .cls-116 {
        fill: #202122;
      }

      .cls-117 {
        fill: #4b4b4a;
      }

      .cls-118 {
        fill: #8f8f90;
      }

      .cls-119 {
        fill: #626161;
      }

      .cls-120 {
        fill: #575554;
      }

      .cls-121 {
        fill: #515050;
      }

      .cls-122 {
        fill: #787879;
      }

      .cls-123 {
        fill: #373736;
      }

      .cls-124 {
        fill: #070607;
      }

      .cls-125 {
        fill: #747575;
      }

      .cls-126 {
        fill: #585859;
      }

      .cls-127 {
        fill: #3b3a3a;
      }

      .cls-128 {
        fill: #626160;
      }

      .cls-129 {
        fill: #5b5a59;
      }

      .cls-130 {
        fill: #2f2e2d;
      }

      .cls-131 {
        fill: #252526;
      }

      .cls-132 {
        fill: #131413;
      }

      .cls-133 {
        fill: #595757;
      }

      .cls-134 {
        fill: #202020;
      }

      .cls-135 {
        fill: #545351;
      }

      .cls-136 {
        fill: #5b5a5b;
      }

      .cls-137 {
        fill: #737473;
      }

      .cls-138 {
        fill: #252525;
      }

      .cls-139 {
        fill: #737373;
      }

      .cls-140 {
        fill: #4a494b;
      }

      .cls-141 {
        fill: #a2a0a1;
      }

      .cls-142 {
        fill: #595859;
      }

      .cls-143 {
        fill: #474646;
      }

      .cls-144 {
        fill: #6a6a6a;
      }

      .cls-145 {
        fill: #4b4a4a;
      }

      .cls-146 {
        fill: #535252;
      }

      .cls-147 {
        fill: #646363;
      }

      .cls-148 {
        fill: #252524;
      }

      .cls-149 {
        fill: #222221;
      }

      .cls-150 {
        fill: #39393a;
      }

      .cls-151 {
        fill: #5d5b5b;
      }

      .cls-152 {
        fill: #484848;
      }

      .cls-153 {
        fill: #555;
      }

      .cls-154 {
        fill: #9c9d9d;
      }

      .cls-155 {
        fill: #494747;
      }

      .cls-156 {
        fill: #5e5d5c;
      }

      .cls-157 {
        fill: #0e0e0e;
      }

      .cls-158 {
        fill: #aaaaac;
      }

      .cls-159 {
        fill: #5b5959;
      }

      .cls-160 {
        fill: #222;
      }

      .cls-161 {
        fill: #434343;
      }

      .cls-162 {
        fill: #2c2b2b;
      }

      .cls-163 {
        fill: #686868;
      }

      .cls-164 {
        fill: #6b6b6c;
      }
    </style>
  </defs>
  <g id="Layer_1-2" data-name="Layer 1">
    <path class="cls-149" d="M218,31.05c1.54.54,10.79,3.96,11.01,4.51.89,2.23-2.32,1.43-3.49,1.49-3.4.19-10.24-.62-12.6,2.41-3.82,4.89,1.88,5.82,5.09,6.59,2.2-1.77,7.52-1.59,10,0,2.62-.23,5.36.16,8,0-2.35-2.14-5.25.28-5.99-1.99,3.19,1.03.56-3.97,2-5.01,3.32-2.39,10.6,6.11,12.49,8.03,1.01,1.03,2.89.51,2.48,1.95-.66.08-1.64.51-1.99,1.02,2.76-.59,1.88,1.42,2.47,2.98,1.14,3.01,5.65,15.08,9.05,14.82,3.54-.27,2.53-8.31,1.49-10.79,1.03-1.07,4.71,3.12,5.51,3.98,7.23,7.76,12.7,18.62,17.49,28.01-.45-3.38.85-6.52,3-9-.71-1.65-1.88-3.11-2-5v-1c-1.3-.21-1.14-.23-2-1-2.1-1.87-6.56-9.44-9.03-12.47-2.19-2.68-4.99-4.52-6.97-7.53-.31-.47.6-1.74-.51-2.01-2.61-.63-.52,2.29-2.47,2,.32-2.11-2.81-2.77-3.03-3.72-.67-2.83,1.81-4.99-3-4.29-.13-.63,1.03-.91,1.02-.98-.05-.45-1.43-1.74-1-1.99h5c.08-.34-.12-.8,0-1.01,1.14-1.92,4.97-.79,7-1,.73-.08,3.68-2.66,5,0,4.01-.82,11.01-1.66,10.06-7.48-.24-1.49-.55-1.64-1.73-2.36-6.25-3.83-19.64,2.06-26.34,3.33,2.24-7.02,17.9-18.87,18.85-25.22.18-1.18.36-2.05-.8-2.81-7.82-5.13-23.02,15.5-24.06,22.53l-1.99-6.99c-.03,2.59.72,4.98-1,7-2.36,2.78-6.6,1.9-6.5-2.01-2.79,5.81-2.07-.11-2.5-.99-.19-.39-5.95-4.29-7-5-1.29,3.5,3.77,5.17-1.77,7.73-7.68,3.54-5.32-.36-7.17-2.18-.15-.15-3.58-1.4-4.06-1.55-.3-.09-.69.09-1,0l-1.49,1.99c2.13-.06,9.25,3,4.49,5.01Z"/>
    <path class="cls-55" d="M33,130.05c2.67-1.42,18.48-8.52,20-7-.41,2.57.85,8.09-.45,10.04-.55.83-13.29,4.75-15.92,6.08-13.73,6.98-23.04,19.67-7.54,31.29,6.29,4.72,12.6,5.85,19.91,7.59.37,0,.75,0,1.13,0,2.18-.18,4.04-1.45,5.87-2.01-8.44-1.78-30.38-6.71-30.99-17.58-.48-8.71,19.55-21.53,27.98-21.42.03,1.62-.48,8.97,1.01,9,.07,0-.15-1.17.99-1-.1,1.56.67,4.14-.99,5,.37,7.72,3.37,16.77,6,24,1.11-1.33,3.73.32,4,.01,1.54-1.77-.43-10.4,1-13.01-9.67-34.74-.37-79.18,26-104-3.18-3.09-8.42,1.63-10.58,3.95-1.58,1.69-3.06,7.91-7.42,6.05-10.61,14.63-17.7,30.66-19,49-.12,1.65.1,3.35,0,5.01-.66.06-1.34-.06-2,0-6.35.52-15.93,4.39-22,7,.43,1.43,1.54,1.99,3,2Z"/>
    <path class="cls-85" d="M80.04,59.86c2.75-3.45,10.26-9.68,10.96-2.81,31.6-29.74,79.25-39.08,121-28,.95-2.06,3.43-.04,5,.01l-1,.99c.45.14,1.2.72,2,1l-.67-2.81c-3.94-.7-8.38-3.91-2.33-4.19-20.57-6.16-41.2-6.16-62-3h4.99v.99c-1.74-.2-4.69.81-4.99-.99-32.95,5.01-60.23,18.74-80,46,2.9-1.48,5.25-3.88,7.04-7.19Z"/>
    <path class="cls-85" d="M217.33,28.23l.67,2.81c4.76-2.01-2.36-5.06-4.49-5.01l1.49-1.99c-6.05.27-1.61,3.48,2.33,4.19Z"/>
    <path class="cls-85" d="M80.42,61c2.15-2.31,7.39-7.04,10.58-3.95-.7-6.86-8.2-.64-10.96,2.81-1.79,3.31-4.14,5.7-7.04,7.19,4.37,1.86,5.85-4.36,7.42-6.05Z"/>
    <path class="cls-71" d="M216.99,233.03l-2.99-1.99c-28.82,8.89-65.65,5.61-93-7-2.84,3.22,1.46,3.64,3.85,4.64,3.95,1.65,6.92,2.75,11.14,1.37l-1.99,1.49c3.49,3.5,2.89,6.15-2,6.51,13.98,4.35,22.36,5.9,37,7,4.26-1.69,11.95-1.66,16,0,11.72-.87,17.89-1.9,29-5l-.56-.96c3.74.31-.83-6.62,3.55-6.05Z"/>
    <path class="cls-31" d="M267,194.05c-13.66,17.7-31.54,30.38-53,37,6.52-1.05,2.91,7.7,0,9,26.3-7.32,42.8-19.42,59-41l-1.93-.04c.12-4.1-.38-4.57-4.07-4.96Z"/>
    <path class="cls-31" d="M214,231.05l2.99,1.99c-4.38-.56.19,6.36-3.55,6.05l.56.96c2.91-1.3,6.52-10.05,0-9Z"/>
    <path class="cls-19" d="M126.32,231.44c-4.21-.92-12.81-5.72-5.32-7.39-9.31-4.29-23.89-13.7-31-21l-7,6c16.23,15.47,27.47,22.29,49,29l.28-1.36c3.93-1.86,1.94-3.61-5.96-5.25Z"/>
    <path class="cls-19" d="M134,231.54l1.99-1.49c-4.22,1.38-7.19.29-11.14-1.37-2.4-1-6.7-1.42-3.85-4.64-7.49,1.67,1.11,6.47,5.32,7.39,7.9,1.64,9.89,3.39,5.96,5.25l-.28,1.36c4.89-.36,5.49-3.01,2-6.51Z"/>
    <path class="cls-59" d="M293,75.05c.99.07,2.02-.1,3,0,1.6.06,4.15-.62,5,1,20.98,3.22,48.09,15.05,27.51,39.01-4.7,5.47-16.07,13.54-22.51,16.99-.26,3.35,2.04,1.03,4,3,14.38-7.6,33.37-19.59,31.02-38.53-1.8-14.47-21.03-20.51-33.02-22.47,1.08.84-5.3,2.1-6,0v-1c-.33,0-.67,0-1,0-1.42.02-5.18.93-8,1v1Z"/>
    <path class="cls-36" d="M52,196.05c1.99.02,4,0,6,0,.58-3.82-2.11-1.12-3.56-1.1-.27,0-.97-3.36-4.43-1.91l4-1.99c-9.94-1.58-18.79-3.97-28-8-5.57-2.44-7.21-2.92-12-7-2.88-2.45-6.47-5.42-8-9-.89.3-1.5.36-1.84.19-1.19.34-.91,1.09-2.15,1.8.41-1.22-.93-2.46-1.01-2.99H0c4.24,18.68,34.87,29.8,52,30Z"/>
    <path class="cls-138" d="M245,28.05c.38-2.82-1.08-6.95,1-9-.79-11.17-11.77-29.84-13-11,1.78,1.12.84,4.12,1,6,.36,4.11,1.15,7.07,2,11l2.58-.07c1.49,2.14,3.63,3.16,6.42,3.07Z"/>
    <path class="cls-138" d="M238.5,26.04c-.1,3.91,4.14,4.8,6.5,2.01-2.79.1-4.93-.93-6.42-3.07l-2.58.07c.43.88-.29,6.8,2.5.99Z"/>
    <path class="cls-20" d="M90,203.05c-.95-.98-1.67-2.65-3-3.5-.07-.9,1.36-.45,2-.5-1.02-.62-3.18-4-4.5-4h-15.5v-.99c2.66-.05,5.34.04,8-.01v-1c-8.14-.19-14.94-.72-23-2l.61,1.37c8.88.69,5.51,5.92-2.61,3.63,1.41,1.89,4.8.77,7,1,2.39-2.17,7.05-.5,9.99-.99.15,1.78-3.27.98-4.49.99-1.84.02-3.68-.01-5.5,0,4.87.5,10.19,1.21,14.95,2.55,2.58,3.92,5.79,6.36,9.05,9.45-2.28-2.13,4.6-7.87,7-6Z"/>
    <path class="cls-20" d="M83,209.05l7-6c-2.4-1.87-9.28,3.87-7,6Z"/>
    <path class="cls-20" d="M54.61,192.42l-.61-1.37-4,1.99c3.46-1.45,4.16,1.91,4.43,1.91,1.45-.02,4.14-2.73,3.56,1.1-1.99,0-4,.03-6,0,8.12,2.29,11.49-2.94,2.61-3.63Z"/>
    <path class="cls-19" d="M4.13,165.63c.19-.45.47-.96.87-1.58-.06-.32.04-.67,0-1-2.34-1.31-.65-3.45-.12-4.65.04-.12.08-.23.12-.35,2.78-12.22,17.18-22.24,28-28-3.03,1.06-5.2,1.33-3-2-12.05,5.18-26.83,14.37-30,28h1c1.63,1.37,2.39,8.29,3.13,9.58Z"/>
    <path class="cls-19" d="M33,130.05c-1.46-.01-2.57-.57-3-2-2.2,3.33-.03,3.06,3,2Z"/>
    <path class="cls-103" d="M294.18,142.63c0-.42-.09-.71-.24-.91.04.26.11.55.24.91Z"/>
    <path class="cls-103" d="M294.01,144.04c.12-.59.17-1.05.17-1.41-.14-.36-.21-.65-.24-.91-.87-1.1-3.85.97-5.93-1.68-1.37.77-2.99,1.13-4,2.5l4,.5c-.53,6.82-1.93,13.46-4.01,20,1.93,4.06,1.8-.13,4.99,0l1.01,5c2.83-8.77,5.16-17.76,6-27-1.44,1.11-.23,3.21-1.99,2.99Z"/>
    <path class="cls-48" d="M222.94,27.21c1.74-.41,3.49-1.12,4.98-2.14-1.14-2.27-2.13-4.68,1.08-5.02-3.76-2.55-9.62-6.46-14.34-4.84-5.56,1.9.88,6.01,1.34,8.84,1.43-3.3,6.57-.04,6.94,3.16Z"/>
    <path class="cls-48" d="M227.23,27.78c5.54-2.56.48-4.23,1.77-7.73-3.21.35-2.22,2.75-1.08,5.02-1.49,1.02-3.24,1.73-4.98,2.14-.37-3.2-5.51-6.46-6.94-3.16.48.15,3.9,1.39,4.06,1.55,1.85,1.82-.51,5.73,7.17,2.18Z"/>
    <path class="cls-134" d="M287.5,165.86c-3.35,1.61-4.08.63-3.5-2.81-1.31,4.13-4.03,11.24-6,15,1.27,3.7.46,5.64,4,8,3.83-6.72,5.64-10.7,8-18-2.08.68-2.25-.44-2.5-2.19Z"/>
    <path class="cls-134" d="M284,163.05c-.58,3.44.15,4.43,3.5,2.81.25,1.75.42,2.87,2.5,2.19l-1.01-5c-3.19-.13-3.07,4.06-4.99,0Z"/>
    <path class="cls-59" d="M278,178.05c-2.45,4.67-7.66,11.67-11,16,3.14-4.08,7.56,1.75,5.52,4.06.13.25.29.55.48.94,3.66-4.88,5.85-7.47,9-13-4.71,2.21-5.54-4.26-4-8Z"/>
    <path class="cls-59" d="M272.41,198.23s.07-.08.11-.12c-1.16-2.21-.27.28-.11.12Z"/>
    <path class="cls-59" d="M272.41,198.23c-.16.15-1.05-2.34.11-.12,2.04-2.32-2.38-8.14-5.52-4.06,3.69.39,4.2.86,4.07,4.96l1.93.04c-.19-.39-.34-.69-.48-.94-.04.04-.07.08-.11.12Z"/>
    <path class="cls-59" d="M278,178.05c-1.54,3.74-.71,10.21,4,8-3.54-2.36-2.73-4.3-4-8Z"/>
    <path class="cls-99" d="M259.86,48.47c3.62.55,8.91,2.06,4.14,4.57,18.67,1.67,6.07-10.86-4-10-.36.03-1.4.88-2.51,1.14,2.25.41,3.05,1.83,2.37,4.29Z"/>
    <path class="cls-99" d="M259.86,48.47c.68-2.47-.12-3.89-2.37-4.29-.5.12-1.02.12-1.49-.14,0,.07-1.15.36-1.02.98,4.81-.7,2.33,1.46,3,4.29.23.96,3.36,1.62,3.03,3.72,1.95.29-.13-2.63,2.47-2,1.11.27.2,1.54.51,2.01,4.78-2.51-.52-4.03-4.14-4.57Z"/>
    <path class="cls-66" d="M306,132.05c-5.47,2.93-12.17,4.73-18,8,3.82-.76,6.07-.53,6.78.67.32.03.72.13,1.22.33,1.52-1.17,10.81-4.31,14-6-3.35.42-7.92.64-4-3Z"/>
    <path class="cls-66" d="M306,132.05c-3.92,3.64.65,3.42,4,3-1.96-1.97-4.26.35-4-3Z"/>
    <path class="cls-66" d="M293.93,141.73c-.1-.72.17-1.06.84-1.01-.71-1.2-2.96-1.43-6.78-.67,2.08,2.65,5.07.58,5.93,1.68Z"/>
    <path class="cls-66" d="M294.57,143.53c-.16-.33-.29-.63-.39-.9,0,.36-.04.82-.17,1.41,1.76.21.55-1.89,1.99-2.99-.5-.2-.9-.31-1.22-.33.38.65.32,1.59-.21,2.81Z"/>
    <path class="cls-66" d="M293.93,141.73c.15.19.24.48.24.91.1.27.23.57.39.9.53-1.23.59-2.16.21-2.81-.67-.05-.95.29-.84,1.01Z"/>
    <path class="cls-150" d="M61.64,222.16c-3.15,1.06-2.27,8,2.86,7.98,7.72-.03,3.42-10.09-2.86-7.98Z"/>
    <path class="cls-21" d="M39.74,210.19c-3.85.53-5,3.98-2.28,6.9,6.4,6.88,9.76-7.94,2.28-6.9Z"/>
    <path class="cls-84" d="M221.9,10.94c2.11-1.32.74-8.07-3.36-6.88-3.55,1.02-1.22,9.75,3.36,6.88Z"/>
    <path class="cls-124" d="M282,74.05c2.87.46,7.84.08,11,0,1.92-1.11,4.59-1.45,8-1-7.29-1.18-13.71-1.18-21,0,1.06.03,1.72.36,2,1Z"/>
    <path class="cls-124" d="M280,73.05c.86.77.7.79,2,1-.28-.64-.94-.97-2-1Z"/>
    <path class="cls-124" d="M293,74.05c2.82-.07,6.58-.98,8-1-3.41-.45-6.08-.11-8,1Z"/>
    <path class="cls-113" d="M169,245.05c6.92.52,9.02.52,16,0-5.29-.62-10.7-.6-16,0Z"/>
    <path class="cls-113" d="M169,245.05c5.3-.6,10.71-.62,16,0-4.05-1.66-11.74-1.69-16,0Z"/>
    <path class="cls-25" d="M298.99,54.56c-.85-3.19-7.15-.33-4.99,3.48,2.41.43,5.86-.21,4.99-3.48Z"/>
    <path class="cls-24" d="M246,21.05c0-.66.05-1.34,0-2l-1,9c.33-2.42.66-4.75,1-7Z"/>
    <path class="cls-24" d="M246,21.05c-.34,2.25-.67,4.58-1,7,1.72-2.02.97-4.41,1-7Z"/>
    <path class="cls-24" d="M245,28.05l1-9c-2.08,2.05-.62,6.18-1,9Z"/>
    <path class="cls-90" d="M260,41.05c2.61-.19,5.43.27,8,0l-1-1c-2.12.28-4.45.62-7,1Z"/>
    <path class="cls-90" d="M260,41.05c2.55-.38,4.88-.72,7-1-2.03.21-5.86-.92-7,1Z"/>
    <path class="cls-8" d="M260,43.05v-1c-.5.25-1.02.51-1.54.77.56-.02,1.11.05,1.54.23Z"/>
    <path class="cls-8" d="M256,44.05c.33-.8,1.4-1.19,2.46-1.23.52-.26,1.04-.52,1.54-.77h-5c-.43.26.95,1.55,1,2Z"/>
    <path class="cls-8" d="M258.46,42.82c-.8.4-1.61.81-2.46,1.23.56,0,1.05.05,1.49.14,1.11-.26,2.15-1.1,2.51-1.14-.43-.17-.98-.25-1.54-.23Z"/>
    <path class="cls-8" d="M257.49,44.18c-.45-.08-.93-.14-1.49-.14.48.25.99.25,1.49.14Z"/>
    <path class="cls-8" d="M256,44.05c.85-.42,1.66-.83,2.46-1.23-1.05.04-2.13.43-2.46,1.23Z"/>
    <path class="cls-157" d="M268.3,39.93c.11.15.01.48-.3,1.11.73-.08,2.77-.75,4-1-1.25-.14-2.49-.18-3.7-.11Z"/>
    <path class="cls-157" d="M267,40.05c.76-.2,1.17-.29,1.3-.11,1.21-.07,2.44-.03,3.7.11-1.32-2.66-4.27-.08-5,0Z"/>
    <path class="cls-157" d="M268.3,39.93c-.44.02-.87.06-1.3.11l1,1c.31-.63.41-.96.3-1.11Z"/>
    <path class="cls-157" d="M267,40.05c.43-.05.87-.09,1.3-.11-.13-.17-.55-.09-1.3.11Z"/>
    <path class="cls-63" d="M302,74.05h6c-2.1-.34-2.89-1.09-6-1,.87.28.86.62,0,1Z"/>
    <path class="cls-63" d="M302,73.05v1c.86-.38.87-.72,0-1Z"/>
    <path class="cls-123" d="M234,14.05l-1-6c-.13,2.04-.45,4.32,1,6Z"/>
    <path class="cls-123" d="M233,8.05l1,6c-.16-1.88.78-4.88-1-6Z"/>
    <path class="cls-81" d="M54,116.05l-2,5c1.28-.81,1.94-2.48,2-5Z"/>
    <path class="cls-81" d="M54,121.05c.1-1.66-.12-3.35,0-5.01-.06,2.52-.72,4.19-2,5,.66-.05,1.34.07,2,0Z"/>
    <path class="cls-134" d="M287.83,105.54c-.22,1.69-.5,3.52-.83,5.51,1.59-.59.63-3.21,1.05-3.98.14-.26,3.91,1.61,3.95-3.02-1.37-5.64-2.75-11.33-4-16.99,13.69.17,39.93,5.55,23,22.99l2,2-.52-1.37c4.92-5.24,9.83-12.62,2.45-18.19l.07-2.44c-.51-.37-2.72-1.88-3-2-1.14-.5-7.96-2.78-9-3-1.2-.25-3.45-.54-5.28-.78-.09,0-.18,0-.27-.02-.48.08-.98.05-1.45-.2-2.74,2.05-10.29,3.23-12.3.42-.45,1.86-1.34,3.4-2.7,4.58l2.25,1.35,4.57,15.14Z"/>
    <path class="cls-134" d="M283.7,84.47c-.69-.96-.73-2.39.3-4.42-2.15,2.48-3.45,5.62-3,9,1.36-1.18,2.25-2.72,2.7-4.58Z"/>
    <path class="cls-134" d="M298.65,83.84c-.82,0-1.69.05-2.65.2.42.06.95.12,1.51.19.4-.08.79-.23,1.13-.4Z"/>
    <path class="cls-134" d="M287.83,105.54l-4.57-15.14-2.25-1.35c.87,6.59,4.83,14.39,6,22,.33-1.98.61-3.82.83-5.51Z"/>
    <path class="cls-134" d="M297.45,84.25c.09,0,.18.01.27.02-.07,0-.14-.02-.21-.03-.02,0-.04,0-.06.01Z"/>
    <path class="cls-134" d="M283.7,84.47c2.01,2.81,9.55,1.63,12.3-.42-3.2-.42-7.03.3-10.34.04-1.27-.3-1.21-3.01-1.66-4.04.13,1.64.02,3.11-.3,4.42Z"/>
    <path class="cls-134" d="M312.48,110.68l.52,1.37c7.07-6.98,12.37-14.47,2-22l-.07,2.44c7.37,5.57,2.47,12.95-2.45,18.19Z"/>
    <path class="cls-134" d="M283.7,84.47c.32-1.31.43-2.78.3-4.42-1.03,2.03-.99,3.46-.3,4.42Z"/>
    <path class="cls-115" d="M233,54.05c-.39.9.02,2.92-1,4l2.14-.88c2.28,3.32,5.12.94,8.53-7.13h2.33c.93-1.78.57-2.09-1.06-.92-.95-2.25-14.12-12.32-9.76-5.97,1.85.07,2.25,1.03,1.82,2.91,5.38-.95,1.06,8.95-3,8Z"/>
    <path class="cls-115" d="M234.18,43.14c-4.36-6.34,8.8,3.72,9.76,5.97,1.64-1.17,1.99-.86,1.06.94.35-.52,1.32-.94,1.99-1.02.41-1.44-1.47-.92-2.48-1.95-1.89-1.92-9.18-10.42-12.49-8.03-1.44,1.04,1.19,6.04-2,5.01.74,2.27,3.64-.15,5.99,1.99.43-1.88.03-2.83-1.82-2.91Z"/>
    <path class="cls-115" d="M233,54.05c4.06.95,8.38-8.95,3-8,2.28,2.07-2.01,5.69-3,8Z"/>
    <path class="cls-115" d="M234.14,57.17l-2.14.88c1.07.53,2.19,2.47,3.74,2.85,3.77.93,7.45-8.15,9.26-10.85h-2.33c-3.41,8.06-6.25,10.44-8.53,7.12Z"/>
    <path class="cls-132" d="M228,46.05c-2.48-1.59-7.8-1.77-10,0,3.31-.39,6.71-.55,10,0Z"/>
    <path class="cls-132" d="M228,46.05c-3.3-.51-6.69-.34-10,0,5.63,1.35,5.41.4,10,0Z"/>
    <path class="cls-132" d="M228,46.05c-3.29-.55-6.69-.39-10,0,3.31-.34,6.7-.51,10,0Z"/>
    <path class="cls-63" d="M293,75.05c-.87-.28-.86-.62,0-1-.91.23-1.95.41-3.04.54,1.05.08,2.07.22,3.04.46Z"/>
    <path class="cls-63" d="M282,74.05c.87.28.86.62,0,1,1.02-.16,2.09-.29,3.18-.39-1.13-.1-2.22-.29-3.18-.61Z"/>
    <path class="cls-63" d="M282,74.05v1c.86-.38.87-.72,0-1Z"/>
    <path class="cls-63" d="M293,75.05v-1c-.86.38-.87.72,0,1Z"/>
    <path class="cls-63" d="M289.96,74.58c1.09-.12,2.13-.3,3.04-.54-3.16.08-8.13.46-11,0,.95.32,2.04.51,3.18.61,1.59-.14,3.21-.19,4.78-.08Z"/>
    <path class="cls-63" d="M293,75.05c-.97-.25-2-.39-3.04-.46-1.55.18-3.21.22-4.78.08-1.09.1-2.16.23-3.18.39,3.64.17,7.37-.24,11,0Z"/>
    <path class="cls-63" d="M285.18,74.66c1.57.14,3.22.1,4.78-.08-1.57-.11-3.19-.06-4.78.08Z"/>
    <path class="cls-81" d="M85,182.05c6.65.09,13.35-.06,20,0-.82-.28-.81-.62,0-1h-6c-2.26.77-4.75.8-7,0-1.6-.03-4.16.6-5-1-.1.91-.45.85-1,0-2.38-.22-4.66-.56-7-1-1.09.62-2.1.98-3.03,1.15,3.08.53,6.1,1.14,9.03,1.85Z"/>
    <path class="cls-81" d="M54.25,178.1c5.92.15,11.94.65,17.82,1.49-2.67-1.49-4.4-5.11-5.49-9.03l.04.22c.34,3.9-2.24,6.03-4.78,4.8.17,1.96-4.51,4.27-5.84.47-.2,1-.8,1.68-1.75,2.05Z"/>
    <path class="cls-81" d="M61.84,175.58c2.55,1.22,5.12-.9,4.78-4.8l-.04-.22c-.93-3.34-1.4-6.89-1.59-9.51-1.44,2.61.54,11.24-1,13.01-.27.3-2.89-1.34-4-.01,1.26.34,1.78.92,1.84,1.53Z"/>
    <path class="cls-81" d="M56,176.05c-1.83.56-3.7,1.83-5.87,2.01,1.37,0,2.74,0,4.13.04.95-.37,1.54-1.05,1.75-2.05Z"/>
    <path class="cls-81" d="M72.07,179.58c1.31.19,2.61.39,3.9.61.93-.17,1.94-.53,3.03-1.15-2.27-.43-5.72.03-7.47-2.03-.56-.66-6.09-14.36-6.53-15.97l1.59,9.51c1.09,3.92,2.82,7.53,5.49,9.03Z"/>
    <path class="cls-81" d="M87,180.05c-.33-.02-.67.03-1,0,.55.85.9.91,1,0Z"/>
    <path class="cls-81" d="M105,182.05c.05-.08.05-.92,0-1-.81.38-.82.72,0,1Z"/>
    <path class="cls-81" d="M75.97,180.19c-1.48.27-2.77.02-3.9-.61-5.88-.84-11.9-1.34-17.82-1.49-1.18.47-2.92.46-5.25-.05,13.02,3.09,22.61,3.83,36,4-2.93-.71-5.95-1.33-9.03-1.85Z"/>
    <path class="cls-81" d="M99,181.05c-2.33,0-4.67.05-7,0,2.25.8,4.74.77,7,0Z"/>
    <path class="cls-81" d="M75.97,180.19c-1.29-.22-2.59-.42-3.9-.61,1.12.63,2.42.88,3.9.61Z"/>
    <path class="cls-81" d="M65,161.05c.19,2.62.66,6.17,1.59,9.51l-1.59-9.51Z"/>
    <path class="cls-81" d="M54.25,178.1c-1.38-.04-2.76-.05-4.13-.04-.37.03-.74.04-1.13,0,2.34.51,4.07.52,5.25.05Z"/>
    <path class="cls-81" d="M61.84,175.58c-.63-.3-1.26-.8-1.84-1.53-.15.18.33,1.42-.16,1.83-.8.69-2.93-.11-3.84.17,1.33,3.8,6.01,1.49,5.84-.47Z"/>
    <path class="cls-81" d="M61.84,175.58c-.05-.61-.58-1.19-1.84-1.53.58.73,1.21,1.23,1.84,1.53Z"/>
    <path class="cls-79" d="M54,146.05c.45.5.6,1.14.58,1.8.07-.77-.05-1.48-.58-1.8Z"/>
    <path class="cls-79" d="M54.58,147.85c-.02.76-.27,1.54-.58,2.2,1.66-.86.89-3.44.99-5-1.14-.17-.92,1-.99,1,.53.33.65,1.03.58,1.8Z"/>
    <path class="cls-79" d="M54,150.05c.25-.61.51-1.44.58-2.2.02-.66-.13-1.3-.58-1.8.04,1.33-.06,2.67,0,4Z"/>
    <path class="cls-79" d="M54.58,147.85c-.07.76-.33,1.59-.58,2.2.31-.65.56-1.44.58-2.2Z"/>
    <path class="cls-149" d="M214.26,28.86c.7.18,1.33.58,1.74,1.18.38-.68-.47-1.11-1.74-1.18Z"/>
    <path class="cls-149" d="M214.26,28.86c1.27.08,2.12.5,1.74,1.18l1-.99c-1.57-.05-4.05-2.08-5-.01.7-.33,1.52-.38,2.26-.18Z"/>
    <path class="cls-149" d="M214.26,28.86c-.68-.04-1.47.01-2.26.18,1.3.34,2.89.66,4,1-.4-.6-1.04-1-1.74-1.18Z"/>
    <path class="cls-149" d="M214.26,28.86c-.75-.2-1.57-.15-2.26.18.79-.17,1.59-.23,2.26-.18Z"/>
    <path class="cls-40" d="M157.99,22.04v-.98h-4.99c.85.38,1.27.57,1.27.57,0,0-.42-.19-1.27-.58.3,1.8,3.26.79,4.99.99Z"/>
    <path class="cls-124" d="M302,74.05c.7,2.1,7.08.84,6,0-1.81.84-4.18.82-6,0Z"/>
    <path class="cls-124" d="M308,74.05h-6c1.84.8,4.16.83,6,0Z"/>
    <path class="cls-124" d="M302,74.05c1.82.82,4.19.84,6,0-1.84.83-4.16.8-6,0Z"/>
    <path class="cls-63" d="M296,75.05c1.81-.05,3.47.28,5,1-.85-1.62-3.4-.94-5-1Z"/>
    <path class="cls-63" d="M296,75.05c.62.06,3.4.75,5,1-1.55-.72-3.22-1.05-5-1Z"/>
    <path class="cls-63" d="M296,75.05c1.78-.05,3.45.28,5,1-1.53-.72-3.19-1.05-5-1Z"/>
    <path class="cls-6" d="M2.13,162.84c-.14,1.2-.52,2.28-1.13,3.21.55-.33,1.08-.51,1.57-.57l-.44-2.63Z"/>
    <path class="cls-6" d="M3.86,166.69c-.33-.1-.73-.32-1.2-.7l-.09-.52c-.5.07-1.02.24-1.57.57.08.53,1.42,1.77,1.01,2.99,1.24-.71.96-1.46,2.15-1.8-.2-.1-.29-.29-.3-.55Z"/>
    <path class="cls-6" d="M2.13,162.84l.44,2.63c.56-.07,1.07,0,1.54.18,0,0,0-.02.01-.02-.73-1.3-1.5-8.21-3.13-9.58.99,2.61,1.36,4.87,1.13,6.79Z"/>
    <path class="cls-6" d="M4.12,165.65c-.47-.17-.98-.25-1.54-.18l.09.52c.47.38.87.6,1.2.7,0-.26.07-.6.26-1.04Z"/>
    <path class="cls-6" d="M5.02,166.12c.38.27.71.59.98.93-.11-.25-.97-2.84-1-3,.17.87.18,1.59.02,2.07Z"/>
    <path class="cls-6" d="M5.02,166.12c-.18.52-.56.75-1.15.57,0,.26.1.45.3.55.4-.12.98-.19,1.84-.19-.27-.34-.61-.66-.98-.93Z"/>
    <path class="cls-6" d="M4.46,165.79c.2.09.38.2.56.33.16-.48.15-1.2-.02-2.07-.19,1.07-.37,1.6-.54,1.74Z"/>
    <path class="cls-6" d="M4.15,165.67s-.02-.02-.03-.04c0,0,0,.02-.01.02.01,0,.02.01.04.01Z"/>
    <path class="cls-6" d="M4.15,165.67s-.02-.01-.04-.01c-.19.43-.27.77-.26,1.04.6.18.98-.05,1.15-.57-.18-.12-.36-.23-.56-.33-.1.09-.2.04-.3-.12Z"/>
    <path class="cls-19" d="M102,199.05c2.47-1.24,6.13-1.5,9-2,6.35-1.11,15.1-3.74,21-4-5.35-.75-11.33-.28-17.95,1.42-3.66.92-6.68.45-9.05-1.42-2.11.14-4.93.87-8,1-.95,1.61-4.99,1.64-6,0-4.65.12-9.35-.08-14,0-1.95.19-3.79.41-5.54.65,4.21-.47,9.1-.35,13.04.35,2.69-.85,6.2.92,4.5,4,4.01-.31,8.9-.11,13,0Z"/>
    <path class="cls-19" d="M69,195.05c.8-.12,1.62-.24,2.46-.35-.85.1-1.68.21-2.46.35Z"/>
    <path class="cls-19" d="M77,194.05c-2.66.05-5.34-.04-7.99.01v.99c.77-.15,1.6-.26,2.45-.35,1.75-.24,3.59-.45,5.54-.65Z"/>
    <path class="cls-19" d="M84.5,195.05c1.32,0,3.48,3.38,4.5,4,1.7-3.08-1.81-4.85-4.5-4Z"/>
    <path class="cls-19" d="M71.46,194.69c-.84.11-1.66.23-2.46.35h15.5c-3.94-.71-8.83-.83-13.04-.35Z"/>
    <path class="cls-19" d="M114.05,194.47c6.62-1.7,12.6-2.17,17.95-1.42l-.31-2.83c-8.81,2.1-17.77,2.22-26.69,2.83,2.37,1.87,5.39,2.34,9.05,1.42Z"/>
    <path class="cls-19" d="M110.57,198.34c-.03.05-.05.1-.06.16.02-.05.04-.11.06-.16Z"/>
    <path class="cls-32" d="M64.5,197.05c1.22-.01,4.64.79,4.49-.99-2.95.49-7.61-1.18-9.99.99,1.27-.33,1.91-.5,1.91-.5,0,0-.64.17-1.91.5,1.82-.01,3.67.02,5.5,0Z"/>
    <path class="cls-6" d="M4.88,158.39c-.53,1.2-2.22,3.34.12,4.65-.71-1.37-.75-2.92-.12-4.65Z"/>
    <path class="cls-6" d="M5,158.05c-.02.1-.07.21-.12.33-.61,1.72-.58,3.27.12,4.67-.18-1.63.12-3.36,0-5Z"/>
    <path class="cls-6" d="M4.88,158.38s0,.01,0,.02c-.62,1.73-.59,3.28.12,4.65-.69-1.4-.73-2.96-.12-4.67Z"/>
    <path class="cls-111" d="M203,96.05c1.25,13.84,6.78,26.75,21.2,31.3,36.43,11.48,51.59-34.6,21.8-54.3l-1,1c2.92,2.85,13.32,14.95,10.87,18.87-1.61,2.58-24.64,6.55-28.87,7.13-1.76.24-3.37.8-6,1-.66.05-1.34,0-2,0-2.38,2.33-5.56.89-8,0-3.86-1.41-3.83-3.39-4.03-7.46-.79-15.8,9.44-25.07,25.03-24.54,2.76.09,2.82.38,5,1,1.48.42,3.58,2.59,6,2v-1c-3.22-1.63-6.47-3.15-10-4-3.94.73-7.06.73-11,0-12.74,2.55-16.97,8.58-19,21,1.67,1.54,1.68,6.42,0,8ZM259.01,97.05c2.3,1.31.4,6.68.98,8.99-2.31-1.39-.39-6.68-.98-8.99ZM211,104.05c2.35-.92,9.72-2.27,11,0,1.43,2.54.7,3.97,4.06,6.44,8.1,5.97,17.86,3.01,21.99-5.89.76-1.64.58-4.56,1.14-5.35.45-.63,7.36-2.66,7.8-2.2,4.97,34.19-41.1,36.99-47.96,7.02.61-.23,1.54.14,1.96-.02Z"/>
    <path class="cls-111" d="M227,100.05c-.18,0-.36.01-.54.01.19,0,.37,0,.54-.01Z"/>
    <path class="cls-160" d="M150,143.05h3l-3.01-1.5c0-.26,2.77-1.47,3.01-1.5-10.52-2.14-21.21-9.58-22.01-21,3.97.6,11.09-2.26,14.42-2.03.71.05,3.42,7.38,11.1,8.04,7.3.63,13.5-1.54,16.54-8.46.69-1.56.71-4.9,1.13-5.37.18-.2,4.57-2.11,4.82-2.18-1.46-.01-2.57-.57-3-2-10.42,3.24-25.79,6.43-36.63,7.86-7.94,1.05-11.94,2.66-11.38-7.32,1.14-20.25,22.06-33.29,41.01-26.54l2-1c-43.52-22.79-68.97,54.69-21,63Z"/>
    <path class="cls-73" d="M191.5,148.05c10.16,10.49,30.64,3.54,28.49-11.99-7.06.83-6.1,7.88-13.94,9.55-8.66,1.84-12.87-5.1-15.54-4.56-3.23.66-.53,5.45.98,7Z"/>
    <path class="cls-115" d="M169,81.05c6.3,2.24,13.06,11.5,14.55,17.95,1.48,6.38-1.98,6.32-7.55,8.05,1.4-.16,2.97.45,3,2,5.99-1.8,6.36-.51,5.99,5.47-.13,2.18-1.19,7.56-1.99,9.53,2.84-.26,1.69.06,1.31,2.38l.69.62c8.94-17.8,3.91-37.62-14-47,1.17,1.2.5,1.53-2,1Z"/>
    <path class="cls-115" d="M171,80.05l-2,1c2.5.53,3.17.2,2-1Z"/>
    <path class="cls-115" d="M176,107.05c.43,1.43,1.54,1.99,3,2-.03-1.55-1.6-2.16-3-2Z"/>
    <path class="cls-148" d="M295.01,120.04c.56-5.6-1.76-10.86-3.01-16,1.07,3.48-1.91,7.67-5,7,3.2,1.12,4.42,9.86,2.37,13.95,4.38-2.71,12.08-5.95,16.63-6.95l-3-2c-1.13.73-7.41,4.69-7.99,4Z"/>
    <path class="cls-148" d="M287,127.05v1l1.01-1.42c-.31.2-.64.35-1.01.42Z"/>
    <path class="cls-148" d="M288.01,126.63c.56-.37,1.01-.93,1.36-1.64-.12.07-.24.15-.35.22l-1.01,1.42Z"/>
    <path class="cls-148" d="M288.01,126.63l-1.01,1.42c6.92-2.25,13.11-5.8,19-10-4.55.99-12.25,4.24-16.63,6.95-.35.71-.81,1.27-1.36,1.64Z"/>
    <path class="cls-148" d="M289.01,125.21c.11-.07.24-.15.35-.22,2.05-4.09.83-12.83-2.37-13.95.8,5.19,2.22,10.82,0,16,.37-.07.7-.22,1.01-.42l1.01-1.42Z"/>
    <path class="cls-148" d="M292,104.05c-.04,4.63-3.8,2.76-3.95,3.02-.43.77.53,3.39-1.05,3.98,3.09.67,6.07-3.52,5-7Z"/>
    <path class="cls-81" d="M183,124.05c-5.35,13.06-18.35,14.41-30,16v3h9c10.9-2.01,17.95-5.94,23-16-1.68,1.27-2.35.27-2-3Z"/>
    <path class="cls-81" d="M149.99,141.55l3.01,1.5v-3c-.24.03-3.01,1.24-3.01,1.5Z"/>
    <path class="cls-81" d="M183,124.05c-.35,3.27.32,4.27,2,3l-.69-.62c.38-2.32,1.53-2.64-1.31-2.38Z"/>
    <path class="cls-130" d="M262,179.05h-5c-3.92,3.71-13.92,10.78-14,16h1c4.95.85,7.31-3.5,11.09-5.44,1-.51,2.88.54,3.45-.46.97-1.72.11-4.36.67-6.39.28-1.03,2-2.54,2.79-3.7Z"/>
    <path class="cls-155" d="M131,196.05c1.81.88,2.39,1.94,2,4l2-1.28c10.02,8.97,12.09,2.78,1.56-.4l-.56-2.31c-.31-.09-.59-.19-.86-.29-2.98-.93-2.35.13-4.14.29Z"/>
    <path class="cls-155" d="M136,196.05c-.32-.12-.6-.21-.86-.29.27.1.56.2.86.29Z"/>
    <path class="cls-155" d="M135,198.76l-2,1.28c2.61.63,10.16,8.85,13,4.99.31-.42-2.35-5.9-3.03-6.48-.28-.24-5.75-2.07-6.96-2.51l.56,2.31c10.53,3.19,8.46,9.38-1.56.4Z"/>
    <path class="cls-56" d="M86,83.05c-1.4-.64-2.23-.07-3-2-2.3,3.13-5.42,9.72-5.08,13.51,1.2,13.69,7.64-10.16,8.08-11.51Z"/>
    <path class="cls-21" d="M110.43,181.94c.55.07,6.63.14,6.98.07,3.92-.88-2.2-11.06-6.39-9.96-.15,2.91-6.08,9.22-.59,9.89Z"/>
    <path class="cls-105" d="M269.52,133.04c2.01.4,12.95-10.46,5.98-12.98-2.23.98-10.95,11.99-5.98,12.98Z"/>
    <path class="cls-162" d="M158,42.04c-2.29-6.3-17.72,4.29-14.99,7.01,1.89,1.89,11.8-7.48,14.99-7.01Z"/>
    <path class="cls-104" d="M76,148.05c.02,1-.04,2,0,3,.3,8.2,7.55,6.19,7.01.53-.37-3.84-4.17-3.55-7.01-3.53Z"/>
    <path class="cls-87" d="M78.66,158c-4.49,1.04-1.3,10.02,3.25,6.95,1.54-1.04,2.35-8.25-3.25-6.95Z"/>
    <path class="cls-101" d="M157,50.04c1.39,1.69,12.97-1.43,12.98-2.49.01-2.88-12.36-1.63-12.98,2.49Z"/>
    <path class="cls-28" d="M75.98,110.04c1.04-.86,1.9-9.4-2.46-8.99-4.16,2.05-.7,11.61,2.46,8.99Z"/>
    <path class="cls-1" d="M306.27,116.45c.72-1.51,2.58-3.13,4.29-3.94-.26-.51-.17-1.4.44-2.46-1.57,1.62-5.94,4.68-8,6,2.01-.8,3.23-.99,3.27.4Z"/>
    <path class="cls-1" d="M310.56,112.51c-1.71.81-3.57,2.43-4.29,3.94,0,.4-.07.92-.27,1.6,2.83-2.02,4.55-3.58,7-6-1.18,1.12-2.11,1.11-2.44.46Z"/>
    <path class="cls-1" d="M310.56,112.51c.93-.44,1.82-.65,2.44-.46l-2-2c-.61,1.06-.7,1.96-.44,2.46Z"/>
    <path class="cls-1" d="M310.56,112.51c.34.65,1.26.65,2.44-.46-.63-.19-1.51.02-2.44.46Z"/>
    <path class="cls-1" d="M306.27,116.45c-.03-1.39-1.25-1.2-3.27-.4l3,2c-.12-.49,0-1.03.27-1.6Z"/>
    <path class="cls-1" d="M306.27,116.45c-.27.57-.38,1.11-.27,1.6.19-.68.28-1.2.27-1.6Z"/>
    <path class="cls-135" d="M119.51,211.03c-3.57-.79-2.03,1.48-2.59,2.18-1,1.26-1.85.77-1.91.85-.73,1.04,3.85,2.71,4.75,2.8,4.95.5,3.29-5.06-.25-5.84Z"/>
    <path class="cls-126" d="M78,167.04l-.5,3.02c-1.14,0-.1-2.47-.5-3.02-1.73-2.36-3.26,4.76-3,5h8c.39-2.53-1.29-5.11-4-5Z"/>
    <path class="cls-63" d="M173.98,40.55c-2.46-3.93-8.62-2.92-10.98.49,3.62-.26,8.05,2.91,10.98-.49Z"/>
    <path class="cls-110" d="M203.85,210.76c-1.77-7.27-11.15,3.67-.87,4.28.12-1.43,1.23-2.79.87-4.28Z"/>
    <path class="cls-42" d="M173.5,223.03c4.78-1.99,3.42-8.22-.98-6.98-2.85.8-.88,5.85.98,6.98Z"/>
    <path class="cls-74" d="M207.5,221.03c1.33-1.03,4.72-4.29,3.5-5.98-2.18-3.01-9.84,2.06-3.5,5.98Z"/>
    <path class="cls-44" d="M140.7,214.16c-1.08.29-1.87,1.65-2.69,2.39,7.02,9.01,9.03-4.09,2.69-2.39Z"/>
    <path class="cls-134" d="M309,85.05l2-1c-3.58-.15-8.44-.71-11-3l-2,1c1.59-.44,2.26-.1,2,1,.97-.05,2.79.81,4,1,1.17.19,4.01.72,5,1Z"/>
    <path class="cls-134" d="M300,81.05c2.56,2.29,7.42,2.85,11,3-3.54-1.5-7.24-2.31-11-3Z"/>
    <path class="cls-134" d="M298,82.05c.49.15,1.2,1.02,2,1,.26-1.1-.41-1.44-2-1Z"/>
    <path class="cls-133" d="M158,215.05c.22-.08,2.97-3.37,3.01-3.6.69-4.76-5.48-4.86-6.01,1.6,2.15,1.11,3.48-1.21,3,2Z"/>
    <path class="cls-117" d="M68.63,138.98c3.06.45,3.44-4.88,2.33-5.9-3.42-3.12-7.61,5.12-2.33,5.9Z"/>
    <path class="cls-39" d="M113.01,211.05l3.94-1.07c-.26-8.51-7.46-6.83-3.94,1.07Z"/>
    <path class="cls-86" d="M178.01,228.05l4.99-2.53c-2.01-6.16-7.44-2.7-4.99,2.53Z"/>
    <path class="cls-25" d="M89.99,166.05c-.32-.34-4.64.69-4.89,1.09-3.05,5.02,7.16,7.23,4.89-1.09Z"/>
    <path class="cls-119" d="M129.51,213.05c-2.94.78-.24,6.48,1.94,5.97,3.73-.87,1.81-6.97-1.94-5.97Z"/>
    <path class="cls-88" d="M184.55,216.07l-2.48,3.35,4.92,2.63c.96-2.19.65-5.6-2.44-5.97Z"/>
    <path class="cls-50" d="M263.07,134.63c1.78-.47,5.42-4.15,3.93-5.58-2.15-2.06-10.75,7.37-3.93,5.58Z"/>
    <path class="cls-78" d="M145.64,220.12c-3.84.69-1.71,6.49.82,5.91,3.7-.85,2.22-6.45-.82-5.91Z"/>
    <path class="cls-92" d="M170.99,211.06c-.13-.18-3.54-1.53-4.51-.02-1.14,1.78.43,3.31.52,5.01,2.36.62,5-3.53,3.98-4.99Z"/>
    <path class="cls-8" d="M108.85,198.21l-6.85.83h1l5.9-.74s-.03-.06-.04-.1Z"/>
    <path class="cls-8" d="M110.67,198.09l.33-.04c-.1-.03-.19-.07-.27-.1-.02.06-.04.09-.06.14Z"/>
    <path class="cls-8" d="M110.57,198.34c.08-.11.21-.21.43-.29l-.33.04c-.03.09-.07.17-.1.25Z"/>
    <path class="cls-8" d="M108.9,198.31l-5.9.74c1.25.05,5.8-.22,6.01,0,.59.61-1.6,5.43,2.48,4,3.22-1.13-1.21-3.38-.98-4.54-.53,1.18-1.07,1.11-1.61-.19Z"/>
    <path class="cls-8" d="M108.9,198.31l1.77-.22c.02-.05.04-.09.06-.14-.58-.26-.49-.56.27-.9-2.87.5-6.53.76-9,2l6.85-.83s.03.06.04.1Z"/>
    <path class="cls-8" d="M108.9,198.31c.54,1.3,1.08,1.37,1.61.19.01-.06.03-.11.06-.16.03-.08.07-.16.1-.25l-1.77.22Z"/>
    <path class="cls-8" d="M110.73,197.94c.08.04.17.07.27.1v-1c-.09.34-.18.63-.27.9Z"/>
    <path class="cls-8" d="M110.73,197.94c.09-.26.18-.56.27-.9-.76.34-.86.64-.27.9Z"/>
    <path class="cls-44" d="M125.83,198.75c.72-.14,1.57-.02,2.55.4.04-.1.09-.18.13-.27l-2.51-.83c.18.28.12.52-.17.71Z"/>
    <path class="cls-44" d="M130.15,197.78c-.33-.11-.73-.7-1.15-1.73v2.2c.33-.29.73-.44,1.15-.47Z"/>
    <path class="cls-44" d="M130.37,197.78c.16,0,.33.02.49.06-.05-.28-.05-.58-.02-.9-.13.49-.29.77-.47.84Z"/>
    <path class="cls-44" d="M130.86,197.84c-.16-.04-.33-.05-.49-.06-.07.03-.14.02-.22,0-.42.03-.82.18-1.16.47v.79s-.49-.16-.49-.16c-.05.09-.09.17-.13.27-.98-.41-1.82-.54-2.55-.4-.18.12-.46.21-.83.29,1.48.19,7.59.9,8,1-1.28-.49-1.97-1.2-2.14-2.21Z"/>
    <path class="cls-44" d="M131,196.05c-.04.35-.1.65-.16.89-.03.33-.03.62.02.9.98.23,1.91,1.04,2.14,2.21.39-2.06-.19-3.12-2-4Z"/>
    <path class="cls-44" d="M130.86,197.84c.17,1.01.86,1.72,2.14,2.21-.23-1.17-1.16-1.98-2.14-2.21Z"/>
    <path class="cls-44" d="M126,198.05c-.02.07-1.25.13-1,1,.25-.15.53-.24.83-.29.3-.19.36-.42.17-.71Z"/>
    <path class="cls-44" d="M130.15,197.78c.07,0,.14,0,.22,0,.19-.08.35-.35.47-.84.03-.28.08-.57.16-.89-.65.06-1.41-.11-2,0,.42,1.03.82,1.63,1.15,1.73Z"/>
    <path class="cls-44" d="M130.37,197.78c-.07,0-.14,0-.22,0,.07.02.15.03.22,0Z"/>
    <path class="cls-44" d="M125,199.05c.37-.08.64-.18.83-.29-.29.06-.57.15-.83.29Z"/>
    <path class="cls-44" d="M131,196.05c-.09.32-.13.61-.16.89.06-.24.12-.54.16-.89Z"/>
    <path class="cls-44" d="M270.51,162.05c-3.18,1.98-.46,7.88,2.43,5.95,1.64-1.1.63-6.24-2.43-5.95Z"/>
    <path class="cls-110" d="M163.49,222.04c2.75-.57,2.01-7.56-2.48-5.99-1.22,1.8-.05,6.52,2.48,5.99Z"/>
    <path class="cls-5" d="M78.99,134.54c1.39-4.55-6.64-5.1-4.98,1.51,1.47.17,4.48.16,4.98-1.51Z"/>
    <path class="cls-100" d="M135.51,224.04c3.33.66,2.29-5.42,1.48-6-2.96-2.12-6.23,5.06-1.48,6Z"/>
    <path class="cls-145" d="M86,157.04v5c5.9,0,7.15-5.76,0-5Z"/>
    <path class="cls-51" d="M188.12,214.94l3.88,1.11c2.18-6-4.76-9.1-3.88-1.11Z"/>
    <path class="cls-11" d="M156.01,227.04l3.91-2.63-2.43-3.36c-3.81.57-2.09,3.51-1.48,5.99Z"/>
    <path class="cls-97" d="M67.53,131.01c4.27,1.85,1.85-5.67,1.46-5.96-2.01-1.47-5.84,4.07-1.46,5.96Z"/>
    <path class="cls-127" d="M262,179.05c.73-1.06,3.77-4.31.48-5-1.94-.41-4.29,3.87-5.48,5,2.8-2.4,4.47-2.4,5,0Z"/>
    <path class="cls-127" d="M257,179.05h5c-.53-2.4-2.2-2.4-5,0Z"/>
    <path class="cls-91" d="M99.12,182.59c-4.72.27-9.47.11-14.12-.54,4.53.72,9.36.83,14.12.54Z"/>
    <path class="cls-91" d="M85,182.05c1.04,1.66,3.8,1,5.49,1.02,2.52.03,13.35.75,14.51-1.02-1.95.26-3.91.43-5.88.54-4.76.28-9.59.17-14.12-.54Z"/>
    <path class="cls-91" d="M85,182.05c4.64.65,9.4.81,14.12.54,1.98-.12,3.95-.3,5.88-.54-6.65-.06-13.35.09-20,0Z"/>
    <path class="cls-91" d="M105,182.05c-1.93.24-3.9.42-5.88.54,1.97-.11,3.93-.29,5.88-.54Z"/>
    <path class="cls-53" d="M71.51,154.05c-3.51.74-.06,6.51,2.48,6.99.19-1.79.53-7.63-2.48-6.99Z"/>
    <path class="cls-89" d="M204,206.04c.68.89,3.69.88,4.53-1.02.68-1.54-.73-3.33-.54-4.97-1.65.23-4.72,5.04-3.99,5.99Z"/>
    <path class="cls-102" d="M218.01,210.05c-1.14.81-1.51,6.1,2.48,4.99,3.56-.99.32-6.97-2.48-4.99Z"/>
    <path class="cls-15" d="M167.51,222.05c-2.55.58-1.91,6.03,1.97,4.98,3.13-.84.14-5.47-1.97-4.98Z"/>
    <path class="cls-44" d="M196.37,216.12c-1.05-.18-3.34,2.06-3.35,2.43-.02.86,3.81,3.43,4.98,2.5,1.23-.99.4-4.57-1.63-4.93Z"/>
    <path class="cls-14" d="M105.49,167.04c2.98-.65,3.31-6.19-.98-4.99-2.52.71-1.66,5.56.98,4.99Z"/>
    <path class="cls-62" d="M150.51,215.05c-2.55.58-1.91,6.03,1.97,4.98,3.13-.84.14-5.47-1.97-4.98Z"/>
    <path class="cls-76" d="M222.01,204.05c-.62.59.04,5.63,2.48,4.99.51-.13,2.49-3.28,2.49-3.5-.03-1.35-4.41-2.02-4.97-1.49Z"/>
    <path class="cls-68" d="M266.01,177.04c3.35.68,4.75-4.62,2.99-5.99-2.34-1.81-3.82,4.72-2.99,5.99Z"/>
    <path class="cls-163" d="M195.5,209.03c2.69.01,2.74-5.95,0-5.96-2.69-.01-2.74,5.95,0,5.96Z"/>
    <path class="cls-26" d="M214.99,207.05c-.92-.92-5.21-.87-3.87,3.37,1.45,4.59,5.66-1.59,3.87-3.37Z"/>
    <path class="cls-44" d="M80.99,140.05c-.92-.92-5.21-.87-3.87,3.37,1.45,4.59,5.66-1.59,3.87-3.37Z"/>
    <path class="cls-45" d="M121.51,206.02c1.36-.04,2.02-4.42,1.49-4.97-.89-.91-5.18.12-4.94,2.51.05.52,3.2,2.47,3.45,2.46Z"/>
    <path class="cls-16" d="M137.49,213.04c2.45-.56,1.74-5.6-.97-4.99-3.57.8-1.63,5.58.97,4.99Z"/>
    <path class="cls-9" d="M189.01,223.56c-1.14,3.04,2.66,3.32,3.88,2.39,3.13-2.38-2.42-6.27-3.88-2.39Z"/>
    <path class="cls-47" d="M214.67,217.21c-1.09.29-1.84,1.62-2.65,2.34,2.02,2.81,4.14,1.31,5.96-1-1.07-1.34-1.57-1.8-3.31-1.34Z"/>
    <path class="cls-18" d="M89.47,178.08c.67,1.15,3.4.13,3.52-.03,2.73-3.73-7.43-6.68-3.52.03Z"/>
    <path class="cls-58" d="M86,83.05c.16-.5,4.1-4.21.49-4.99-1.65-.36-2.72,1.95-3.49,2.99,2.27-.55,2.97-.64,3,2Z"/>
    <path class="cls-58" d="M86,83.05c-.03-2.64-.73-2.55-3-2,.77,1.93,1.6,1.36,3,2Z"/>
    <path class="cls-51" d="M152.89,226.14c-1.22-.93-5.02-.64-3.88,2.39,1.46,3.87,7.01-.02,3.88-2.39Z"/>
    <path class="cls-136" d="M125.51,207.05c-2.45.55-1.74,5.6.97,4.99,2.45-.55,1.74-5.6-.97-4.99Z"/>
    <path class="cls-159" d="M231.52,207.02c-4.91-.89-1.55,2.83-1.52,4.03h1c.22-.58,5.87-3.06.52-4.03Z"/>
    <path class="cls-43" d="M179.5,216.03c2.01,0,1.99-5.97,0-5.96-2.73.01-2.7,5.96,0,5.96Z"/>
    <path class="cls-108" d="M233,54.05l-7,3.5c2.32.99,3.16-.91,6,.5-1.7-.97-1.37-2.31,1-4Z"/>
    <path class="cls-108" d="M232,58.05c1.02-1.08.61-3.1,1-4-1.11,1.33-1.44,2.67-1,4Z"/>
    <path class="cls-108" d="M233,54.05c-2.37,1.69-2.7,3.03-1,4-.44-1.33-.11-2.67,1-4Z"/>
    <path class="cls-3" d="M75.99,123.05c-1.62-1.62-5.61,2.39-3.99,3.99,2.11,2.08,6.06-1.91,3.99-3.99Z"/>
    <path class="cls-65" d="M203,88.05c-.78,4.78-.36,3.96,0,8,.64-2.61.53-5.38,0-8Z"/>
    <path class="cls-65" d="M203,96.05c1.68-1.58,1.67-6.46,0-8,.53,2.62.64,5.39,0,8Z"/>
    <path class="cls-144" d="M232,204.04c2.76,1.3,6.79-2.19,4.99-3.98-1.59-1.59-4.76,2.12-4.99,3.98Z"/>
    <path class="cls-146" d="M74,146.05c.85-2.24,1.72-5.85-2-5,.25,2.7-1.23,5.72,2,5Z"/>
    <path class="cls-145" d="M70.49,120.04c1.33-.48,2.09-3.4,1.5-3.99-2.67-2.64-6.81,5.92-1.5,3.99Z"/>
    <path class="cls-151" d="M148,209.04h-4c1.9,5.13,4.49,8.65,4,0Z"/>
    <path class="cls-27" d="M222,67.05h11c-5.47-1.32-5.56-1.09-11,0Z"/>
    <path class="cls-27" d="M233,67.05h-11c3.94.73,7.06.73,11,0Z"/>
    <path class="cls-13" d="M103,203.05l-2,1c.76.37,1.52.63,2.28.81-.3-.49-.44-1.13-.28-1.81Z"/>
    <path class="cls-13" d="M103.28,204.85c-.76-.17-1.52-.43-2.28-.81.22.06.93,2.68,3.48,3.03,2.47.34,1.12-.82,1.52-2.03-.93,1.11-2.14.75-2.72-.19Z"/>
    <path class="cls-13" d="M103.28,204.85c.91.21,1.82.28,2.72.19-1.02-.58-1.92-1.55-3-2-.16.68-.02,1.32.28,1.81Z"/>
    <path class="cls-13" d="M103.28,204.85c.58.95,1.8,1.31,2.72.19-.91.09-1.81.01-2.72-.19Z"/>
    <path class="cls-122" d="M164.99,206.54c.38-1.44-.62-3.89-2.48-3.48-3.91.86,1.46,7.31,2.48,3.48Z"/>
    <path class="cls-156" d="M107.5,207.05c-5.05,2.63-.35,6.68,1.49,4.99.36-.34-.52-4.44-1.49-4.99Z"/>
    <path class="cls-129" d="M124.5,217.07c-2.46,0-2.46,4.96,0,4.96s2.46-4.96,0-4.96Z"/>
    <path class="cls-10" d="M156.01,199.53c.81,3.7,5.92-.55,3.99-2.48-.73-.73-4.45.37-3.99,2.48Z"/>
    <path class="cls-107" d="M103,62.53c.6-2.66-3.42-2.28-3.99-1.49-1.96,2.71,3.09,5.52,3.99,1.49Z"/>
    <path class="cls-17" d="M121.99,173.53c.46-2.11-3.26-3.21-3.99-2.48-1.93,1.93,3.18,6.18,3.99,2.48Z"/>
    <path class="cls-49" d="M72,149.05c.08-.36.87-.7,1-1,.29-.68.74-1.31,1-2-3.2,3.9-3.06-2.08-2-5-1.5.34-1.73,8.7,0,10-.1-.27-.09-1.62,0-2Z"/>
    <path class="cls-49" d="M74,146.05c-3.23.72-1.75-2.3-2-5-1.06,2.92-1.2,8.9,2,5Z"/>
    <path class="cls-68" d="M243,195.05c-.12,7.59,8.81,3.05,1,0-.28.87-.62.86-1,0Z"/>
    <path class="cls-68" d="M244,195.05h-1c.38.86.72.87,1,0Z"/>
    <path class="cls-37" d="M153,143.05h-3c5.96,1.03,6.12,1.08,12,0-3.02.51-6.02.51-9,0Z"/>
    <path class="cls-37" d="M162,143.05h-9c2.98.51,5.98.51,9,0Z"/>
    <path class="cls-139" d="M85.99,138.05c-3.66-.84-3.58,4.97-1.49,4.97,1.35,0,1.84-3.6,1.49-4.97Z"/>
    <path class="cls-121" d="M54,187.06c.97,2.82,4.55,1.92,7,1.98-.97-2.82-4.55-1.92-7-1.98Z"/>
    <path class="cls-98" d="M161.01,231.04c1.9.13,4.39.28,4.99-1.98-3.46-.79-5.74-2.75-4.99,1.98Z"/>
    <path class="cls-22" d="M86.01,148.05v4.99c.62-.06,1.8.16,1.98,0,1.35-1.13,1.14-5.93-1.98-4.99Z"/>
    <path class="cls-35" d="M146.48,197.06h-1.48s0,3.99,0,3.99h2.99c.23-1.84.06-2.94-1.51-3.99Z"/>
    <path class="cls-147" d="M173.01,228.05c-2.59,2.59,3.97,5.37,3.97,1.49,0-1.03-3.36-2.11-3.97-1.49Z"/>
    <path class="cls-94" d="M79.83,178.9c1.43-.23,2.96-.3,4.28.09.17-.29.8-.61,1.89-.94-1.33.05-2.68-.08-4,0-.33.02-.67-.04-1,0-.18.4-.57.68-1.17.85Z"/>
    <path class="cls-94" d="M81,178.05c-.85.09-1.68.02-2,1,.27-.05.55-.11.83-.15.6-.17,1-.45,1.17-.85Z"/>
    <path class="cls-94" d="M84.11,178.98c.7.21,1.35.54,1.89,1.06-.13-.59.2-1.66,0-2-1.09.33-1.72.64-1.89.94Z"/>
    <path class="cls-94" d="M84.11,178.98c-1.32-.39-2.85-.32-4.28-.09-.24.07-.51.12-.83.15,2.34.44,4.62.78,7,1-1.5-.32-2.11-.67-1.89-1.06Z"/>
    <path class="cls-94" d="M86,180.05c-.53-.53-1.18-.85-1.89-1.06-.22.39.39.74,1.89,1.06Z"/>
    <path class="cls-94" d="M79,179.05c.32-.03.58-.08.83-.15-.28.05-.56.1-.83.15Z"/>
    <path class="cls-153" d="M123.99,71.53v-1.48s-3.99,0-3.99,0v2.99c1.84.23,2.94.06,3.99-1.51Z"/>
    <path class="cls-161" d="M275,145.04h5.99s0-1.98,0-1.98c-2.19-.05-5.22-.55-5.99,1.98Z"/>
    <path class="cls-33" d="M68.99,142.05c-2.11-1.49-3.47,2.93-1.98,3.99,3.28,2.34,3.48-2.93,1.98-3.99Z"/>
    <path class="cls-67" d="M218.99,203.53v-1.48c-6.34-.57-3.99,6.97,0,1.48Z"/>
    <path class="cls-129" d="M151,205.04h3.99s0-1.48,0-1.48c-1.05-1.57-2.14-1.74-3.98-1.51v2.99Z"/>
    <path class="cls-93" d="M283,129.05v-1c-.63.39-.65.73,0,1Z"/>
    <path class="cls-93" d="M283,128.05c-1.87.25-4.06-.19-5.99,0v1.48c.32,1.76,5.02-.29,5.99-.49-.65-.27-.63-.61,0-1Z"/>
    <path class="cls-64" d="M130,206.04h3.99c0-3.93-3.97-3.98-3.99,0Z"/>
    <path class="cls-164" d="M105.01,171.05v3.99c3.93,0,3.98-3.97,0-3.99Z"/>
    <path class="cls-128" d="M249,199.04c3.17,1.66,4.01-2.83,2.99-3.98-1.77-2.01-2.32,2.61-2.99,3.98Z"/>
    <path class="cls-30" d="M240.02,203.55c.01,1.03,3.31,2.11,3.98,1.49,1.91-1.77-4-4.48-3.98-1.49Z"/>
    <path class="cls-140" d="M239.99,194.05c-1.59-1.59-4.58,1.4-2.99,2.99,1.59,1.59,4.58-1.4,2.99-2.99Z"/>
    <path class="cls-164" d="M97.01,176.04c1.59,1.59,4.58-1.4,2.99-2.99-1.59-1.59-4.58,1.4-2.99,2.99Z"/>
    <path class="cls-114" d="M185.99,205.05c-1.59-1.59-4.58,1.4-2.99,2.99,1.59,1.59,4.58-1.4,2.99-2.99Z"/>
    <path class="cls-34" d="M76,148.05c-1,0-2,0-3,0,.76.39.43.73-1,1,2.67-.47,2.04.63,2,3,.5-.01,1.4-.8,2-1-1.37-.93-1.92-2.65,0-3Z"/>
    <path class="cls-34" d="M76,148.05c-1.92.35-1.37,2.07,0,3-.04-1,.02-2,0-3Z"/>
    <path class="cls-34" d="M72,149.05c1.43-.27,1.76-.61,1-1-.13.3-.92.64-1,1Z"/>
    <path class="cls-116" d="M41,186.04c1.68.39,7.38,1.84,5-.98-.67-.79-4.99-1.45-5,.98Z"/>
    <path class="cls-109" d="M25.02,179.72c.87.43,1.63.57,1.98.33-.56.13-1.27-.02-1.98-.33Z"/>
    <path class="cls-109" d="M25.02,179.72c.71.31,1.41.46,1.98.33-1.58-.67-3.1-2.21-5-3,.86,1.27,2.02,2.17,3.02,2.67Z"/>
    <path class="cls-109" d="M26.48,181.05l.52-1.01c-.35.24-1.11.11-1.98-.33-1.29-.56-2.58-1.66-3.02-2.67-.16.24-.33.44-.51.6.08,1.15,4.03,3.06,4.99,3.4Z"/>
    <path class="cls-109" d="M21.49,177.65c.18-.17.35-.37.51-.6-.39.15-.53.36-.51.6Z"/>
    <path class="cls-109" d="M25.02,179.72c-1.01-.5-2.16-1.4-3.02-2.67.44,1.01,1.73,2.11,3.02,2.67Z"/>
    <path class="cls-28" d="M76.01,116.04c1.9-.04,5.13-.99,3.98-2.99-.1-.17-2.96.86-3.99,0v3Z"/>
    <path class="cls-96" d="M184.01,228.05c-1.5,1.69,1.28,4.5,2.99,2.99,1.07-.94-2.03-4.06-2.99-2.99Z"/>
    <path class="cls-2" d="M97,168.05c2.05-2.03,1.84-3-1-3-1.46,2.08-1.77,3.46,1,3Z"/>
    <path class="cls-82" d="M105,109.05c-1.71-1.51-4.49,1.3-2.99,2.99.96,1.07,4.06-2.05,2.99-2.99Z"/>
    <path class="cls-54" d="M71,111.05c-1.71-1.51-4.49,1.3-2.99,2.99.96,1.07,4.06-2.05,2.99-2.99Z"/>
    <path class="cls-4" d="M100.85,203.37c-.69,0-1.31-.1-1.85-.32-.37.6.3.93,2,1-.19-.29-.23-.51-.15-.68Z"/>
    <path class="cls-4" d="M99,203.05l-.99.51c-.58,3.18,2.33.32,2.99.49-1.7-.07-2.37-.4-2-1Z"/>
    <path class="cls-4" d="M100.85,203.37c.17-.34.87-.45,2.15-.32-3.19-1.35-3.42.11-4,0,.55.22,1.17.33,1.85.32Z"/>
    <path class="cls-4" d="M100.85,203.37c-.08.17-.04.39.15.68l2-1c-.78.21-1.49.31-2.15.32Z"/>
    <path class="cls-4" d="M100.85,203.37c.65,0,1.36-.11,2.15-.32-1.27-.13-1.98-.02-2.15.32Z"/>
    <rect class="cls-141" x="173.01" y="202.05" width="1.99" height="3.99"/>
    <path class="cls-12" d="M52.99,188.04v-1.99s-4.99,0-4.99,0c-.68,1.36,4.56,2.39,4.99,1.98Z"/>
    <path class="cls-143" d="M37,183.05l-2,1c1.74.05,2.41-.28,2-1Z"/>
    <path class="cls-143" d="M35,184.05c1.59.42,3.05,1.48,5,.99-.14-1.76-1.87-1.55-3-1.99.41.72-.26,1.05-2,1Z"/>
    <path class="cls-142" d="M152.5,191.07c-1.7-.02-1.77,3.94,0,3.96,1.7.02,1.77-3.94,0-3.96Z"/>
    <path class="cls-106" d="M114.5,169.06c.87,0,.54-4.79.5-6.01h-2c.84,2.08.9,3.93,1.5,6.01Z"/>
    <path class="cls-134" d="M313,87.05l3,2c.02-1.11-.98-2.11-3-3,.02.33-.02.67,0,1Z"/>
    <path class="cls-134" d="M316,89.05c.14-.25,1.94-.19.52-2.02-1.05-1.33-3.01-.68-3.52-.98,2.02.89,3.02,1.89,3,3Z"/>
    <path class="cls-125" d="M33.09,182.8c-.41-.18-.78-.42-1.09-.75v1c.31-.17.7-.25,1.09-.25Z"/>
    <path class="cls-125" d="M34.75,183.48c0-.12.07-.21.18-.28-.18,0-.36-.03-.53-.05.14.09.25.2.35.33Z"/>
    <path class="cls-125" d="M34.75,183.48c-.1-.13-.21-.24-.35-.33-.46-.06-.9-.17-1.31-.35-.39,0-.78.08-1.09.25.94.25,1.92.71,3,1-.18-.23-.26-.42-.25-.57Z"/>
    <path class="cls-125" d="M34.4,183.15c.18.02.35.04.53.05.3-.2.98-.26,2.06-.15-2.49-.96-3.76-.6-5-1,.32.33.69.57,1.09.75.48,0,.95.11,1.31.35Z"/>
    <path class="cls-125" d="M33.09,182.8c.41.18.85.29,1.31.35-.36-.24-.83-.36-1.31-.35Z"/>
    <path class="cls-125" d="M34.94,183.2c-.11.07-.18.17-.18.28.12.16.22.35.25.57l2-1c-.66.12-1.37.18-2.06.15Z"/>
    <path class="cls-125" d="M34.94,183.2c.7.03,1.41-.03,2.06-.15-1.08-.11-1.76-.05-2.06.15Z"/>
    <path class="cls-125" d="M35,184.05c-.03-.22-.12-.41-.25-.57,0,.15.07.34.25.57Z"/>
    <path class="cls-44" d="M201,223.05h4c.83-3.27-3.33-2.63-4,0Z"/>
    <path class="cls-131" d="M83.35,176.87c-.39-.48-.51-1.08-.35-1.83l-1,3c.29-.74.74-1.12,1.35-1.17Z"/>
    <path class="cls-131" d="M83.35,176.87c.69-.06,1.57.33,2.65,1.17-.18-.32-2.55-2.65-3-3-.17.74-.04,1.35.35,1.83Z"/>
    <path class="cls-131" d="M83.35,176.87c-.6.05-1.05.43-1.35,1.17,1.32-.08,2.67.05,4,0-1.31-.19-2.18-.59-2.65-1.17Z"/>
    <path class="cls-131" d="M83.35,176.87c.47.59,1.35.98,2.65,1.17-1.09-.85-1.97-1.23-2.65-1.17Z"/>
    <path class="cls-36" d="M16.23,174.81c-.52-.19-.93-.11-1.23.24.39-.26.8-.34,1.23-.24Z"/>
    <path class="cls-36" d="M16.23,174.81c.55.12,1.14.53,1.77,1.24-.57-1.28-2.72-3.88-4-2.99-.59.42.94,1.74,1,1.99.3-.35.71-.43,1.23-.24Z"/>
    <path class="cls-36" d="M16.23,174.81c-.43-.09-.84-.02-1.23.24.92.58,1.94.83,3,1-.69-.65-1.28-1.07-1.77-1.24Z"/>
    <path class="cls-36" d="M16.23,174.81c.49.18,1.08.59,1.77,1.24-.62-.71-1.21-1.12-1.77-1.24Z"/>
    <path class="cls-77" d="M201,223.05c-.83,3.27,3.33,2.63,4,0-1.13,1.16-3.41,1.85-4,0Z"/>
    <path class="cls-77" d="M205,223.05h-4c.59,1.85,2.87,1.16,4,0Z"/>
    <path class="cls-112" d="M96,165.05c-.67,0-1.33-.03-2,0-.46,3.47.13,5.84,3,3-2.96,1.89-3.77-2.09-1-3Z"/>
    <path class="cls-112" d="M97,168.05c-2.77.46-2.46-.92-1-3-2.77.91-1.96,4.89,1,3Z"/>
    <path class="cls-33" d="M123.52,181.04c2.11.76,1.82-2.62,1.48-2.99-.97-1.05-4.57,1.88-1.48,2.99Z"/>
    <path class="cls-61" d="M66.99,188.05h-2.99v1.91c.42.02.84.05,1.26.08h1.73v-1.99Z"/>
    <path class="cls-61" d="M64.01,190.04h1.26c-.42-.03-.84-.06-1.26-.08v.08Z"/>
    <path class="cls-27" d="M243,72.05c.24,1.18,1.41,1.43,2,2-1.33-1.41-.77-1.92,1-1-1.13-.75-1.14-1.06-3-2,.54.3.53.64,0,1Z"/>
    <path class="cls-27" d="M243,71.05v1c.53-.36.54-.7,0-1Z"/>
    <path class="cls-27" d="M245,74.05l1-1c-1.77-.92-2.33-.41-1,1Z"/>
    <path class="cls-120" d="M139.02,226.55c0,.66,2.4,2.07,2.97,1.49,1.51-1.51-2.97-4.26-2.97-1.49Z"/>
    <path class="cls-46" d="M159.5,186.07c-.66,0-2.07,2.4-1.49,2.97,1.51,1.51,4.26-2.97,1.49-2.97Z"/>
    <rect class="cls-118" x="83.01" y="130.05" width="1.99" height="2.99"/>
    <path class="cls-43" d="M72,151.05c.5,1.3.61,1.03,2,1-.38-.52-.74-1.04-1.09-1.56-.17.24-.46.45-.91.56Z"/>
    <path class="cls-43" d="M72.91,150.49c-.32-.48-.62-.95-.91-1.44-.09.38-.1,1.73,0,2,.45-.11.74-.32.91-.56Z"/>
    <path class="cls-43" d="M72,149.05c1,.21,1.29.9.91,1.44.35.52.71,1.05,1.09,1.56.04-2.37.67-3.47-2-3Z"/>
    <path class="cls-43" d="M72,149.05c.29.48.6.96.91,1.44.38-.53.09-1.23-.91-1.44Z"/>
    <path class="cls-69" d="M113,163.05c-.07-1.76,1.32-1.48,2,0-.12-3.7-3.63-2.43-2.99-.5.1.29.9.28.99.5Z"/>
    <path class="cls-69" d="M113,163.05h2c-.68-1.48-2.07-1.76-2,0Z"/>
    <path class="cls-83" d="M230,211.05c.02,1.04-1.36,3.56-1,3.99,3.49.8,1.37-2.36,2-3.99-.28.87-.62.86-1,0Z"/>
    <path class="cls-83" d="M231,211.05h-1c.38.86.72.87,1,0Z"/>
    <path class="cls-41" d="M312.54,88.01c.33,0,.65.07.96.18-.28-.34-.48-.73-.49-1.14.04.54-.11.85-.46.96Z"/>
    <path class="cls-41" d="M314.63,89c.22.3.36.64.37,1.05.25-.38.81-.67,1-1-.42.17-.91.13-1.37-.05Z"/>
    <path class="cls-41" d="M314.24,88.81c-.29-.16-.54-.38-.75-.63-.3-.11-.63-.17-.96-.18-.14.04-.31.06-.54.04.28.12,2.49,1.63,3,2-.61-.59-.83-1.01-.76-1.24Z"/>
    <path class="cls-41" d="M314.24,88.81c-.07.23.15.65.76,1.24,0-.4-.15-.75-.37-1.05-.13-.05-.26-.12-.39-.19Z"/>
    <path class="cls-41" d="M313.49,88.18c.32.11.61.28.85.49.24-.14.81-.05,1.66.37l-3-2c.01.41.21.8.49,1.14Z"/>
    <path class="cls-41" d="M314.34,88.68c.11.1.2.21.29.32.46.18.95.22,1.37.05-.85-.42-1.42-.51-1.66-.37Z"/>
    <path class="cls-41" d="M314.24,88.81c.02-.06.05-.1.1-.13-.24-.21-.53-.38-.85-.49.21.25.46.46.75.63Z"/>
    <path class="cls-41" d="M314.24,88.81c.13.07.25.14.39.19-.09-.12-.18-.22-.29-.32-.05.03-.08.08-.1.13Z"/>
    <path class="cls-23" d="M141.5,194.03c.66,0,2.07-2.4,1.49-2.97-1.51-1.51-4.26,2.97-1.49,2.97Z"/>
    <path class="cls-137" d="M114.99,121.04c.95-.95-1.76-3.98-2.99-2.98-.2.16,1.47,4.53,2.99,2.98Z"/>
    <path class="cls-91" d="M105,181.05c-1.12-1.63-4.82-1.64-6,0,1.88-.83,4.11-.85,6,0Z"/>
    <path class="cls-91" d="M99,181.05h6c-1.93-.83-4.08-.81-6,0Z"/>
    <path class="cls-91" d="M105,181.05c-1.89-.85-4.12-.83-6,0,1.92-.81,4.07-.83,6,0Z"/>
    <polygon class="cls-7" points="228.99 198.05 226 200.55 228.99 201.04 228.99 198.05"/>
    <path class="cls-70" d="M115,200.05c1.05.27,2.4-.96,3-1-1.58-.41-1.99-.02-3,1Z"/>
    <path class="cls-70" d="M117.32,197.19c-.61.44-1.27.63-1.74.92.07.47-.09,1.11-.58,1.94.51-1.19,1.99-2.09,3-1l-.46-1.87c-.07,0-.15,0-.22.01Z"/>
    <path class="cls-70" d="M115,200.05c1.01-1.02,1.42-1.41,3-1-1.01-1.09-2.49-.19-3,1Z"/>
    <path class="cls-70" d="M115.58,198.11c-.56.33-.87.79-.58,1.94.49-.83.65-1.47.58-1.94Z"/>
    <path class="cls-70" d="M117.51,197.05c-.06.05-.12.1-.19.14.07,0,.15,0,.22-.01l-.03-.13Z"/>
    <path class="cls-75" d="M221.99,198.04v-1.99s-2.99.49-2.99.49c.91,1.06,1.52,1.82,2.99,1.5Z"/>
    <path class="cls-38" d="M201.99,197.05h-1.99s0,2.99,0,2.99c1.45-.34,2.29-1.61,1.98-2.99Z"/>
    <path class="cls-60" d="M96.99,156.05h-1.99s0,2.99,0,2.99c1.45-.34,2.29-1.61,1.98-2.99Z"/>
    <path class="cls-158" d="M182,195.06l-2.99-1.01c-.11,2.79,1.97,4.01,2.99,1.01Z"/>
    <path class="cls-57" d="M158,215.05c-1.6-.2-2.6-.86-3-2-.18,2.17.57,2.86,3,2Z"/>
    <path class="cls-57" d="M158,215.05c.48-3.21-.85-.89-3-2,.4,1.14,1.4,1.8,3,2Z"/>
    <path class="cls-72" d="M249,184.06h-2.99s0,1.98,0,1.98c1.38.31,2.66-.54,2.99-1.98Z"/>
    <path class="cls-152" d="M262.01,184.04h1.99s-.49-2.99-.49-2.99c-1.06.91-1.82,1.52-1.5,2.99Z"/>
    <path class="cls-80" d="M31.04,182.19c.13.08.26.16.38.25.09-.12.28-.25.58-.39-.31.12-.64.16-.96.14Z"/>
    <path class="cls-80" d="M29.81,181.81c-.08-.05-.16-.1-.24-.15-.05.07-.13.14-.24.21.14-.05.31-.06.47-.05Z"/>
    <path class="cls-80" d="M31.42,182.44c-.12-.09-.25-.17-.38-.25-.44-.02-.86-.15-1.24-.38-.17,0-.33,0-.47.05-.09.06-.2.12-.33.18.7.11,2.01.74,3,1-.55-.18-.74-.39-.58-.61Z"/>
    <path class="cls-80" d="M29.57,181.65c.07.06.16.11.24.15.4.01.84.16,1.24.38.32.01.65-.03.96-.14-.92-.3-2.14-.68-3-1,.54.18.72.39.57.61Z"/>
    <path class="cls-80" d="M29.81,181.81c.37.23.8.36,1.24.38-.39-.22-.83-.37-1.24-.38Z"/>
    <path class="cls-80" d="M29.33,181.86c.11-.07.19-.14.24-.21-.22-.17-.41-.37-.57-.61v1c.1-.08.21-.14.33-.18Z"/>
    <path class="cls-80" d="M29,182.05c.14-.06.24-.12.33-.18-.12.04-.24.1-.33.18Z"/>
    <path class="cls-80" d="M29.57,181.65c.15-.22-.03-.42-.57-.61.16.24.35.44.57.61Z"/>
    <path class="cls-80" d="M31.42,182.44c.25.19.46.4.58.61v-1c-.3.14-.49.27-.58.39Z"/>
    <path class="cls-80" d="M31.42,182.44c-.16.22.03.43.58.61-.12-.21-.33-.42-.58-.61Z"/>
    <path class="cls-154" d="M143.5,183.04l.49-2.99h-1.99c-.32,1.47.44,2.08,1.5,2.99Z"/>
    <path class="cls-91" d="M87,180.05l5,1c-.86-1.65-3.4-.91-5-1Z"/>
    <path class="cls-91" d="M92,181.05l-5-1c.84,1.6,3.4.97,5,1Z"/>
    <path class="cls-95" d="M309,85.05c1.1.31,2.3,1.61,4,1-.7-.14-1.47-.42-1.86-.88-.36.14-1.06.1-2.14-.12Z"/>
    <path class="cls-95" d="M311.14,85.17c.39.46,1.15.74,1.86.88-.35-.2-.77-1.48-2-2,.5.6.54.97.14,1.12Z"/>
    <path class="cls-95" d="M311.14,85.17c-.25-.3-.34-.67-.14-1.12l-2,1c1.08.22,1.79.26,2.14.12Z"/>
    <path class="cls-95" d="M311.14,85.17c.4-.15.36-.52-.14-1.12-.2.45-.11.82.14,1.12Z"/>
    <path class="cls-29" d="M81.67,177.48c-.32-1,.14-2.55,1.33-2.43-.71-.87-1.38.13-2,3,.22-.59.45-.77.67-.57Z"/>
    <path class="cls-29" d="M83,175.05c-.28-.22-.08-1.55-1.99-1v4c.62-2.87,1.29-3.87,1.99-3Z"/>
    <path class="cls-29" d="M82,178.05c-.15-.15-.26-.34-.33-.57-.23-.21-.45-.02-.67.57.33-.04.67.02,1,0Z"/>
    <path class="cls-29" d="M81.67,177.48c.11.1.22.28.33.57l1-3c-1.18-.12-1.64,1.43-1.33,2.43Z"/>
    <path class="cls-29" d="M81.67,177.48c.07.22.18.42.33.57-.11-.28-.22-.47-.33-.57Z"/>
    <path class="cls-95" d="M297.81,81.16c-.35.17-.28.46.19.89-.25-.43-.28-.7-.19-.89Z"/>
    <path class="cls-95" d="M297.81,81.16c.22-.44,1.23-.29,2.19-.11-1.01-.18-2.62-2.64-4,.99.64.12,1.48-.15,2,.01-.48-.43-.54-.72-.19-.89Z"/>
    <path class="cls-95" d="M297.81,81.16c-.09.18-.06.46.19.89l2-1c-1.13-.09-1.85-.05-2.19.11Z"/>
    <path class="cls-95" d="M297.81,81.16c.34-.16,1.07-.2,2.19-.11-.96-.18-1.97-.33-2.19.11Z"/>
    <path class="cls-102" d="M40.52,157.04c2.11.76,1.82-2.62,1.48-2.99-.97-1.05-4.57,1.88-1.48,2.99Z"/>
    <path class="cls-20" d="M91,194.05c1.01,1.64,5.05,1.61,6,0-1.89.88-4.1.82-6,0Z"/>
    <path class="cls-20" d="M91,194.05c1.91.8,4.1.86,6,0-1.99.09-4-.05-6,0Z"/>
    <path class="cls-20" d="M91,194.05c1.9.82,4.11.88,6,0-1.9.86-4.09.8-6,0Z"/>
    <path class="cls-71" d="M222,104.05c-1.28-2.27-8.65-.92-11,0,3.76-.84,7.43-.84,11,0Z"/>
    <path class="cls-71" d="M211,104.05h11c-3.57-.84-7.24-.84-11,0Z"/>
    <path class="cls-56" d="M259.99,106.04c-.58-2.31,1.32-7.68-.98-8.99.59,2.31-1.33,7.6.98,8.99Z"/>
    <path class="cls-71" d="M215.18,101.64c-1.39-.03-2.79-.28-4.18-.59,1.42.41,2.81.6,4.18.59Z"/>
    <path class="cls-71" d="M211,101.05c2.44.89,5.62,2.33,8,0-1.26.47-2.54.62-3.82.59-1.37.01-2.76-.18-4.18-.59Z"/>
    <path class="cls-71" d="M215.18,101.64c1.3-.01,2.57-.21,3.82-.59-2.66,0-5.34,0-8,0,1.39.31,2.79.56,4.18.59Z"/>
    <path class="cls-71" d="M219,101.05c-1.25.39-2.53.58-3.82.59,1.29.03,2.57-.12,3.82-.59Z"/>
    <path class="cls-71" d="M226.46,100.06c-1.9.02-3.73.34-5.46.99,2.63-.2,4.24-.76,6-1-.17.01-.35.02-.54.01Z"/>
    <path class="cls-71" d="M221,101.05c1.7-.65,3.51-.97,5.4-.99-1.87-.03-4.39-.6-5.4.99Z"/>
    <path class="cls-71" d="M226.4,100.06c-1.89.02-3.69.34-5.4.99,1.74-.65,3.56-.96,5.46-.99-.02,0-.05,0-.07,0Z"/>
    <path class="cls-27" d="M232,69.05l5,1c-2.18-.62-2.24-.91-5-1Z"/>
    <path class="cls-27" d="M237,70.05l-5-1c.85,1.62,3.4.94,5,1Z"/>
    <path class="cls-52" d="M129,196.05c-.82.16-2.7-.26-3,0-.22.19.18,1.45,0,2,.7-.83,1.7-1.5,3-2Z"/>
    <path class="cls-52" d="M128.99,198.25v-2.2c-.3,1.02-1.3,1.69-2.99,2l2.51.83c.13-.26.3-.47.49-.63Z"/>
    <path class="cls-52" d="M128.51,198.88l.49.16v-.79c-.19.16-.35.37-.49.63Z"/>
    <path class="cls-52" d="M129,196.05c-1.3.5-2.3,1.17-3,2,1.69-.31,2.69-.98,3-2Z"/>
  </g>
</svg>