<?xml version="1.0" encoding="UTF-8"?>
<svg id="Layer_2" data-name="Layer 2" xmlns="http://www.w3.org/2000/svg" viewBox="0 0 178.61 132.53">
  <g id="Layer_1-2" data-name="Layer 1">
    <g>
      <path d="M165.12,18.1c-2.26-2.37-2.5-5.31-6.01-8.23-5.35-4.45-6.47-3.51-12.55-4.43-2.85-.43-3.7-1.92-7.7-1.6-7.54.6-15.66,4.36-21.08,9.58-3.78,3.65-2.97,4.17-4.09,8.5-.55,2.11-3,5.07-3.45,7.5-1.7,9.09,3.91,20.94,11.74,25.79,1.98,1.22,4.6,1.74,6.2,3.38-1.79-.14-3.87-.4-5.62.14-1.32.41-2.46,1.79-3.48,1.9-1.45.17-3.78-.7-5.93-.36-4.57.73-5.6,4.28-8.23,6.55-1.17,1.01-2.79,1.08-4.1,1.93-3.78,2.46-9.83,12.21-10.11,16.6-.25,3.98-.32,6.23-.83,10.24-.8,6.33,2.41,13.23,5.33,18.7,2.8,5.24,7.22,6.32,12.71,7.28l-2.19,2.73,3.79-1.05c.6,4.09,4.87,3.59,6.89,6.53,1.81-2.84,2.78-.45,4.38-.26,1.57.19,4.05-.79,5.99.26.15,2.78,2.74,2.08,2.22-.54l.55,3.29,1.38-.28-.55-2.45c3.21,1.38,2.46-2.6,6.02-1.64-.47,1.06-.08,3.51,1.63,3.28.37-3.24,2.04-5.11,5.47-4.92l.28,1.64c1.07-.63.44-2.12,1.17-2.79,2.27-2.05,6.48-2.92,9.77-5.45.63-.49,1.79-.45,1.91-.56.14-.14-.35-1.08-.21-1.63.57-2.35,3.02-5.33,5.45-5.42-.87-3.37,2.92-5.53,3.42-8.09.73-3.74,1.76-10.73.82-14.27-.4-1.51-1.59-2.93-1.77-4.27-.42-3.2,1.44-4.01-1.11-7.63-1.19-1.68-4.6-3.48-5.18-4.67-1-2.03-.22-4.33-2.19-6.57-3.21-3.66-5.85-1.8-8.51-2.99-.4-.18-3.47-3.37-3.29-3.54,4.07-.5,8.92-2.22,12.58-4.12,2.24-1.16,3.25-2.65,4.99-3.78.77-.5,3.44-1.15,3.68-1.52.29-.47.17-2.39.61-3.5.48-1.21,1.59-1.7,1.92-2.46,3.47-7.91,3.77-13.65,1.83-22.02-.78-3.35-2.82-2.92-4.56-4.75ZM123.8,125.96l-.55-2.74c1.91.65,5.11-1.43,6.02.54-2.13.37-2.87,2.34-5.47,2.2ZM146.12,66.12c2.45.97,4.21.24,6.43,1.79,3.04,2.12,1.19,4.1,2.54,6.77,1.2,2.37,5.49,3.85,6.27,6.35.6,1.91-.48,3.18-.22,5.08.27,1.91,2.14,3.45,2.51,5.2.75,3.53-.99,9.26-5.26,9.34-1.71-1.9-1.54-4.27-4.72-3.71-1.49.26-1.97,1.92-2.82,2.07-1.99.35-2.62-1.54-5.43,1.2-4.02,3.92-1.71,7.32.3,11.52l3-2.73c1.17,1.23,1.46,3.11,3.56,2.73l.04-1.58c1.8.04,3.31-.37,4.55-1.73.17-.19-.15-.82-.04-.96.32-.4,1.4-.49,1.79-1.21.42-.78-1.08-5.37,1.87-5.48-.26,3.84-1.64,7.03-3.29,10.4l-2.18-1.09.54,2.73h-2.2s.01,2.2.01,2.2h-2.2s1.1,1.9,1.1,1.9c-1.25.3-2.12,2.47-2.73,2.76-1.01.47-2.3.15-3.45.39-1.08.23-1.55,2.13-2.39-.14-2.1-.62-3.2,2.86-5.4,3.31l-2.74-2.2-.85,2.17c-1.98-1.36-1.92.96-2.44,1.13l-1.36-.03,1.51-3.02-1.79-1.9-2.18,1.08-.91-1.53-1.27-.13-1.64,1.68-3.03-1.12c.17,2.42-1.59,1.87-2.22,2.56-1.03,1.14-1.2,3.24-2.93,2.91-.32-.06-2.86-1.08-2.95-1.21-.3-.41,0-1.42-.43-2.04-.94-1.39-3.95-3.25-5.72-3.32l.55-1.63c-2.03.04-2.08,1.41-4.27.74-1.05-.32-7.29-5.47-2.57-4.6l.31,1.6,2.4.1c.41-1.78.53-1.63,2.25-2.2l-.31-1.66c-2.19-.7-1.75,2.39-3.51,1.6-.68-.3-.8-1.32-1.42-1.79-.32-.24-3.04-1.46-3.16-1.59-.55-.64.73-2.07-2.32-1.5l-.05-2.71-1.59-.03,1.41-3.86c2.22-.71,1.9,1.66,3.22,1.69.87-.02,1.62-.93,2.35-1.05,1.28-.22,2.2,1.8,2.87.2.56-1.32-1.4-.62-1.64-.82.57-1.02,1.03-1.77,1.13-3.01.16-1.94-1.21-3.56.53-3.83v-1.37s-1.59-.04-1.59-.04c.63-1.26-2.12-4.3-3.08-4.38-1.99-.18-4.05,3.41-4.64,2.78-.36-.98.98-1.45.97-1.92,0-.49-1.65-1.26-1.55-2.19l1.16-1.14c-1.99-3.47,1.91-4.51,2.95-6.27.53-.9.4-2.64.97-3.96.17-.4,3.02-4.53,3.27-4.66.7-.38,2.04.09,3.17-.4,1.44-.62,3.35-4.06,4.63-5.22,4-3.64,6.73-1.4,10.95-2.19,1.59-.3,2.66-1.96,4.96-2.2,2.02-.21,12.75.81,14.67,1.24,1.94.44,3.53,3.25,5.74,4.12ZM165.34,41.81c-.7,1.01-1.95,1.42-2.01,1.53-.1.17.48.92.17,1.52-.87,1.71-2.23,3.33-4.11,2.23l1.1,1.9c-1.1.77-1.97.88-1.65,2.48l-2.46-1.64c-1.2.77-.47,1.12-.27,2.18-3-.67-7.15,5.73-9.04,2.18l-1.09.03-1.1,1.64-1.34-.04c-.7-5.4-3.18,2.26-5.51-.25l.95-.37c-.58-5.06-1.04,1.61-3.19-.25l-1.32-1.83-.27,2.18c-1.25.9-3.22-2.43-4.18-3.23-.97-.81-4.22-2.51-4.57-2.81-.05-.04.5-.69.37-.93-.16-.31-3.7-2.37-3.93-2.32-1.93,1.4.27,2,.81,3.28-2.43-.85-4.92-3.27-6.57-5.47,2.13-.44,2.23,1.75,3.56,2.72l1.11-1.63c-.31-1.49-2.21-.65-3.03-2.48l1.09-.26-.55-2.19-2.45,1.09-.83-1.08,1.64-1.1-2.19.54.48-1.89c-.95-.99-1.99-.67-1.58-2.49.53.04,1.15-.09,1.64,0-.57-2.42-1.59-1.62-1.64-3.83.82-.9,2.49,4.13,3.28,0-2.2.51-3.4-3.02-1.91-4.38l.27,1.63,2.47-1.09-.83,3.29c2.17-.5,1.58,1.2,2.49,2.16,4.15,4.38,11.44-2.39,10.66-7.87l-1.38-.32c-1.58,3.19-4.19,7.84-8.24,5.51l-.77-3.05,2.71-.27-1.64-1.91,1.55-.72.43.99c2.91.86,6.48-6.32,2.1-6-.39.03-5.06,2.7-5.18,3.55l-2.19-.29,1.64,1.36-2.18,1.92c-.6-2.41-.27-2.96.61-5.02.71-1.66.38-1.16.8-2.67.47-1.67,3.25-4.5,5.16-3.26-.88-2.43,4.54-5.02,6.56-5.77,8.5-3.14,19.2-3.55,26.8,2.25,3.58,2.73,3.26,4.24,5.27,7.32,1.1,1.68,3.81,2.66,3.53,4.95-1.25-.63-2.5-.29-3.6.54l-1.05,5.48c-6.15-9.97-12.21,3.3-5.59,8.6,4.11,3.29,5.77-2.61,6.7-3.11,1.13-.62.7,1.5,1.32,1.96.96.72,3.07-.75,3.9.55.12.77-1.24,3.52-1.74,4.25ZM157.75,35.04l1.09.82c-3.32,4.1-5.22-5.96-4.69-6.84.4-.66,2.34-1.43,3.08-.86.54.41.6,2.7,1.28,3.97.09.17,1.5.2.87,1.54-.36.78-1.74.47-1.64,1.37Z"/>
      <path d="M115.18,36.54c.24.42,4.32,3.85,4.78,3.43.93-.84-.92-1.2-1.07-1.49-.33-.63-.39-1.63-.57-2.35-2.38,1.21-1.1-.7-3.28-1.09.09.4-.2.88.14,1.49Z"/>
      <path d="M89.84,72.01c1.43-1.79,1.95-5.85,4.93-4.66-1.2-1.94.85-2.24,1.57-3.63,2.3-4.47,4.01-9.15,4.46-14.16.41-4.55-1.8-4.43-2.2-6.6-.33-1.78.7-3.32.55-4.86-.07-.68-1.97-7.64-2.26-8.19-1.06-2.04-3.38-2.54-4.88-3.88-2.47-2.21-2.33-3.8-6-5.5-3.68-1.7-2.65-1.26-5.75-3.56-4.71-3.48-6.89-.59-10.86-.73-3.46-.12-6.01-1.41-10.35-.77-4.2.62-4.86,3.21-8.09,4.51-1.69.69-3.47.38-5.3,1.25-4.31,2.05-3.99,5.58-6.27,8.53-1.76,2.27-4.23,2.6-5.04,6.5-.33,1.58.41,2.62.21,3.95-.18,1.19-1.38,1.69-1.79,2.63-1.02,2.31.12,3.56,0,5.48-.14,2.35-1.63,4.58-.42,7.52-4.3.17-10.45,1.24-13.97,3.84-3.78,2.8-2.33,2.62-7.25,4.8-3.06,1.35-2.84,4.25-4.26,6.15-.92,1.23-2.76,1.45-3.31,3.26-.42,1.37-.04,2.75-.36,4.02-.92,3.62-2.26,4.61-1.4,9.3.43,2.33,2.43,3.67,2.92,5.31.53,1.79-.24,3.12.14,4.74.11.48,2.26,5.82,2.46,6.08.39.52,1.86.87,2.53,1.58.65.69,2.17,3.29,2.36,3.39,1.53.83,4.66-.65,4.84,3.94,3.46-1.03,6.26.88,9.74,1.48,4.65.8,9.38.77,13.99,1.84l4.47-3.32c.52.81-.07,1.39,1.36,1.1-1.23-3.75,3.93-3.39,6.16-3.98.38-.1,5.53-4.15,6.19-4.75,3.84-3.5,2.11-5,3.49-8.56.66-1.7,2.36-2.3,3.01-3.56,1.06-2.03,1.46-6.13.73-8.32-.27-.81-1.27-1.23-1.39-1.84-.84-4.16,6.09-2.53,8.35-2.96,1.25-.24,2.79-2.33,4.34-2.21.57.04.54,2.14,1.96,1.67l-.56-1.92,7-1.51c1-1.59,2.66-1.77,3.96-3.41ZM26.72,108.79c-.89-.37-1.94.36-2.59-.64,1.35-1.14,3.23-.29,4.82-.16l.65,2.08c-2.14.71-2.05-.92-2.88-1.28ZM59.85,94.59c-1.27,2.31-.6,5.73-2.51,7.63-1.08,1.07-2.67,1.15-3.95,1.81-2.19,1.13-2.44,2.65-5.72,2.22v-2.2s-1.65,0-1.65,0c.57,3.56-.66,2.24-1.44,2.92-1.95,1.7-2.94,4.54-5.95,4.76l1.66-1.63-.31-1.66-2.29,2.62-1.71.11c-1.12-2.22-3.07.31-2.63-3.23-1.8.36-1.65-1.23-2.36-1.71-.4-.27-3.65-2.02-3.87-2.02-.47,0-1.24,1.21-2.19,1.3-1.28.12-2.51-4.18-4.07,1.23l1.6,1.7c-3.18-.18-3.7-3.12-3.29-6.02-1.47-.18-3.37.25-2.83,1.93-.36.83-2.43-.07-1.83-.83l1.67-1.08c.69-.5-.18-1.57-.57-1.65-1.04-.22-2.53,4-3.55,1.36-.51-1.33,2.46-.53,2.18-2.18-2.12-1.88-5.03-3.27-6.02-6.03.95-.47,2.8,1.41,3.49,2.01.51.44.85.84.92,1.53l2.15-1.34-2.18-.83,1.09-2.18-2.2.29c-.8-1.75-.81-4.24,1.65-3.03.09-1.79-.76-4.21,1.64-4.39v-.53c-1.56.27-1.17-1.6-1.8-2.08-.28-.21-1.07.01-1.33-.24-.42-.41-.04-1.62-1.04-2-2.6-.99-2.32,1.17-4.03,2.13l-1.1-3.28h1.64c.2-1.44-.01-1.41-1.12-1.92.59-3.5,2.27-4.35,4.07-6.91.77-1.09,1.13-3.14,2.01-4.02,1.08-1.08,3.52-1.26,4.99-2.13,1.86-1.09,2.12-2.6,3.46-3.66,1.95-1.54,11.46-2.45,14.24-2.17,1.86.18,3.51,1.09,5.13,1.34,1.21.18,2.55-.59,4.08-.14,1.07.32,1.48,1.94,2.88,2.11,1.42.17,2.19-.87,3.92-.17,2.86,1.16,2.16,4.52,3.98,6.46,1.96,2.09,4.74,1.22,5.46,5.5.33,1.97.19,6.37.66,8.05.33,1.17,2.25,1.75,2.62,3.99.85,5.19-1.9,5.08-3.67,8.31ZM78.61,73.37l-1.08-1.63c-.94,1.63-2.57,3.02-4.53,3.2-1.34.13-1.68-.98-2.58-1.04-.18-.01-1.36,2.24-3.02,1.66l.55-1.64-1.85-.48-2.53,2.12c-.36-1.33,1.88-1.93,1.64-3-.33-1.46-2.56-.1-2.73-.28-.53-.54-.24-2.69.54-3.29l-1.88.5c-.89-.18-.66-1.82-.94-2.06-.42-.36-2.72.14-3.62-.77-.3-.3-1.39-3.49-1.21-3.71l1.36,1.09.82-1.63c-2.64.58-2.64-1.41-3.88-2.42-1.91-1.54-3.06-1.72-5.42-1.98l2.73-3.28c-2,.37-1.75,2.97-3.82,1.64l.54,1.64-4.19-2.14-2.11,2.14c-1.44.4-.55-1.38-.82-1.64-1.27-.11-2.37,1.18-3.27-.27,1.47-2.21,3.99-2.6,4.37-5.75-2.12.47-1.38-1.03-2.47-2.19-.96-.25-1.71,2.8-3,1.64-.87-.78,1.06-1.37,1.29-1.58,1.92-1.75-1.64-2.17-1.76-2.32-.78-.93,1.45-4.9,3.21-3.76l-.55,3.83,2.17.04.58,1.34c2.41-2.15,1.35-2.97.55-5.75l1.63,1.09-1.09-2.74h1.65s-.09-3.52-.09-3.52l-.99-.67-1.93.32-2.19,4.97-1.38-.29.59-2.15-1.12-1.12c.56-1.63,2.12-.72,2.18-.83.16-.29-.67-1.38-.16-2.57.58-1.34,2.04-1.66,2.82-2.71,1.76-2.37,3.23-7.21,6.08-8.16,1.42-.48,2.86-.26,4.54-.94,2.91-1.17,3.86-3.78,7.81-4.24,3.63-.42,8.06,1.19,10.34.93,1.08-.12,1.96-.9,3.89-.97,1.06-.04,3.23-.02,3.98.72.61.59.77,2.44,2.01,3.19,1.48.88,3.4.35,5.19,1.38,1.73.99,2.52,3.41,4.15,4.62,1.65,1.22,3.51.99,4.54,3.13.72,1.49.54,3.02.93,4.54.26.99,1.3,1.81,1.33,2.99.04,1.57-1.83,3.54-1.51,4.82,2.49,2.24,4.1,3.81,2.97,7.54-.67,2.23-.71,2.41-1.18,4.79-.98,4.97-3.46,6.09-6.24,9.15-1.16,1.27-2.26,3.59-3.72,4.49-2.31,1.41-5.78,2.4-8.06,3.99Z"/>
      <path d="M3.62,20.29c1.75.17,2.2-2.12,4.07-1.67v6.03s1.7-.32,1.7-.32c.41-1.89.25-2.91,2.13-3.82l-1.63-3.53c2.21.81,3.96-1.1,6.01-1.92l-2.7-3.29c.97-.37,1.17-1.98.25-1.91-.46.04-1.49,3.96-3.56,3.27l.54-6.57c-2.51-.45-2.13,1.72-2.91,3.12-.48.87-2.15.36-.93,3.45-2.22-.49-3.42-2.31-6.02-1.64l.24,2.22,3.05,1.6H.03c-.35,1.67,2.09,4.81,3.59,4.96Z"/>
      <path d="M44.24,4.47c-3.36.53-4.38,5.94-1.1,6.92,6.47,1.92,5.91-7.67,1.1-6.92Z"/>
      <path d="M93.13,3.56c-.61,1.12,1.94,1.06,2.57,1.53.49.36.76,1.64,1.53,2.01l3.56-4.64-4.64-2.47c-.28,1.69-2.68,2.95-3.02,3.56Z"/>
      <path d="M83.56,93.31c-3.56-.15-4.42,5.07-.5,5.26,3.45.17,4-5.11.5-5.26Z"/>
      <path d="M16.61,44.2l-.28-1.9c-8.76-2.22-5.19,8.53.28,1.9Z"/>
      <path d="M24.98,33.42c2.44.37,3.71-2.29,2.29-3.71-2.36-2.36-6.47,3.07-2.29,3.71Z"/>
      <path d="M175.64,83.31c-3.3,1.13,1.09,5.81,2.65,2.66,1.05-2.11-.61-3.36-2.65-2.66Z"/>
      <path d="M70.51,113.99c-2.54.72-1.31,4.23.88,3.69,2.05-.51,2.26-4.57-.88-3.69Z"/>
      <path d="M56.79,119.98c-1.89.32-2.74,3.78-.08,3.8,2.64.02,2.1-4.15.08-3.8Z"/>
      <path d="M133.79,74.62c-.28.27-2.82,5.69-2.85,6.19-.06.87.77,3.95,1.2,4.77,1.54,3,3,1.5,5.04,2.08,2.88.82,4.23,2.5,7.74,1.1,4.39-1.75,4.91-10.21,2.15-10.43-1.24-.1.33,4.28-.52,4.95-1.54,7.19-7.48,1.85-12.33,2.68l-.57-2.71c2.04-.28,6.91.74,8.24-.93,1.55-1.94-.47-1.79-.81-2.38-.18-.31-1.55-3.67-1.41-3.81l3.3.3-.03-3.04c-2.14,2.46-6.85-1-9.17,1.23Z"/>
      <path d="M127.08,97.2c-3.74-1.75-7.02-.11-10.88-.2-1.41,2.87-.42,6.68,2.69,7.83,3.37,1.24,7.02,1.44,9.8-1.09,2.18-1.99.94-5.35-1.61-6.55ZM125.65,103.37c-1.64.3-7.2-.79-4.05-2.6l.8,1.07,1.96-2.17.54,1.64.55-1.65,2.19,1.38c.15.64-1.42,2.22-1.98,2.32Z"/>
      <path d="M135.3,114.75c2.78,1.14,7.38-2.41,4.79-5.09-1.84-1.91-8.43,1.97-4.79,5.09Z"/>
      <path d="M110.23,112.95c-.16.08-.12.72-.24.79-1.77,1-3.24-3.69-4.26.71h2.74s-.32,1.68-.32,1.68c2.6.28,2.47,3.54,5.25,3.25.1-2.15-2.31-2.86-3.28-4.37l2.47.96,1.9-1.79c.01-.59-3.56-1.6-4.25-1.23Z"/>
      <path d="M123.79,65.17c-4.06.51-9.06.42-9.85,5.47l9.53-3.79.32-1.69Z"/>
      <path d="M110.65,92.85c.75.45,6.88-.07,7.12-1.14-.5-2.65-3.24-.21-5.13-.87-1.13-.4-.94-3.22-2.8-3.22-1.48.3.06,4.79.81,5.23Z"/>
      <path d="M108.13,79.89c1.78-1.98,2.07-3.99.06-5.95-3.66,1.86-4.62,11.02-.06,5.95Z"/>
      <path d="M140.91,95.01c.85,3.05,4.4,2.04,4.79-.81-1.79-.53-3.71-1.25-4.79.81Z"/>
      <path d="M157.48,95.28c2.27-.77,1.17-5.27-.53-4.91-2.22.48-1.18,4.02.53,4.91Z"/>
      <path d="M107.37,107.05c2.4,2.85,3.55-.43,3.81-2.98l-2.17-.58-1.64,3.55Z"/>
      <path d="M115.04,111.98l-1.09.56,1.09,3.02c2.13-1.58,1.73,1.48,3,1.08l.28-3.82-2.66.48-.62-1.32Z"/>
      <path d="M118.87,81.05l-3.83-1.1.08,2.65c1.7,1.05,3.63.63,3.75-1.55Z"/>
      <path d="M135.29,65.98c.27-1.42-1.88-1.55-2.89-1.26-.53.15-.86.61-1.22.99-.64,1.5,3.87,1.52,4.11.27Z"/>
      <path d="M105.51,97.23c-.57.44-1.17.85-1.72,1.32l.58,1.66,3.54-3.01c-1.64-1.91-1.78-.45-2.4.03Z"/>
      <path d="M99.7,104.6c-.38-.4-2.5.25-2.19,1.36,1.41.76,3.57,4.5,3.56.81-1.67-.13-1.27-2.07-1.37-2.18Z"/>
      <path d="M127.09,91.73c-.47,1.21,3.5,2.31,4.37,1.91.19-1.58-3.71-3.61-4.37-1.91Z"/>
      <path d="M148.41,72.01c-.08.82.53,1.65.58,2.47,4.75-.83-.23-6.08-.58-2.47Z"/>
      <path d="M140.24,47.92c-2.81-.7-7.08,1.94-8.26-2.23,1.16-3.41,4.82-.85,1.13.31l.82,1.07,3.01-1.64c-2.08-3.42-3.62-4.53-7.66-4.38-.6,2.75-1.52,5.79,1.61,7.16-1.94,4.4.11,1.93,1.51,1.69.3-.05,4.2,1.47,5.85.96.77-.24.82-2.44,3.08-1.59.2-1.19-.1-1.11-1.09-1.36Z"/>
      <path d="M141.87,20.81l.55,3.28h-1.64s-.56-3.28-.56-3.28c-3.28.15-.94,4.81.94,5.37,2.77.83,4.64-2.45,3.73-4.84-.93-1.05-1.82-.91-3.02-.54Z"/>
      <path d="M152.38,46.41c-.17-.15-.12-.67-.12-.95l-2.11,3.56,1.41,1.31c2.43-.49,4.39-1.16,6.18-2.96-.37-2.91-4.47-.14-5.37-.96Z"/>
      <path d="M148.46,10.08c-1.77-.32-2.49,1.57-.95,2.1l5.87,3.7c.73-3.59-1.7-5.23-4.91-5.8Z"/>
      <path d="M139.95,32.87c-1.48.98-.49,2.88.25,4.13l4.38-.32-.54-3.25c-1.66.1-2.88,1.19-4.09-.55Z"/>
      <path d="M135.84,9.86c-2.93,1.09-7.59.17-7.66,4.38,1.04-.22,9.61-2.43,7.66-4.38Z"/>
      <path d="M69.66,57.97c-.54-.9.81-3.97-1.72-3.75,3.2,4.9-1.51,3.52-2.64,4.47-.21.18-.74,2.95-.71,3.47.11,1.85,5.08,2.08,4.45,4.65l1.1-.28-.56-1.36c3.39.25,6.74.19,6.32-4.14-.4-4.21-5.62-2.01-6.25-3.06Z"/>
      <path d="M58.08,34.22c4.81-2.07,6.57-10.42.54-8.8-.58.16-7.22,5.03-7.5,5.4-.49.65-1.06,2.87-.19,3.42,2.52.51,4.69,1.03,7.14-.03ZM54.25,32.3c1.41-1.77,2.47-4.02,4.74-4.86l1.27.75c-.68.75-.63,2.23-1.22,2.88-.78.87-3.58,1.4-4.79,1.23Z"/>
      <path d="M90.35,46.9c-.24-3.42-2.1-8.55-6.4-6.52-3.35,1.58-.79,4.57-.71,6.48.07,1.65-1.31,3.17.2,5.01,2.7,3.3,7.18-1.17,6.91-4.97ZM84.37,50.38c-.14-1.41.57-2.71.59-4.11.02-1.54-1.74-6.92,1.83-2.97,2.78,3.08,2.04,6.8-2.42,7.08Z"/>
      <path d="M79.14,28.5c.42.56,1.54,5.3,3.33,2.73,1.28-1.85-1.22-5.15-2.83-5.97-1.64-.84-5.14-.91-6.93-.5-.66.15-2.06.96-2.31,1.53-.8,1.8,2.65.51,3.29.55,1.31.08,4.71.68,5.45,1.67Z"/>
      <path d="M54.79,44.37c.98,4.77,4.28,5.73,8.22,2.99-2.12-2.85-4.77-5.07-8.22-2.99Z"/>
      <path d="M88.47,62.96c2.91-1.27,4.71-3.65,5.18-6.8l-1.33-.85c-1.62,1.64-3.69,3.95-4.21,6.21-.15.66-.81.6.37,1.44Z"/>
      <path d="M68.47,41.39c4.08,1.26,5.65-4.98.4-4.06-1.78,1.12-3.06,3.24-.4,4.06Z"/>
      <path d="M77.8,67.63c1.22,2.9,8.26,1.01,6.57-1.36-.78-1.1-5.41.85-6.57,1.36Z"/>
      <path d="M47.96,47.1c-1.35.37.55,3.81-1.91,4.65l1.91,1.38,1.8-1.38-1.43-2.2,1.53-1.64c-.49-.66-1.04-1.05-1.9-.82Z"/>
      <path d="M51.05,52.2c.53,1.53,2.24,2.84,1.02,4.49l1.08.27c-.45-1.86,1.85-3.9.85-5.48-.87-1.37-2.8-1.08-2.94.73Z"/>
      <path d="M47.91,78.27c-2.76,1.96-.46,4.25.06,6.04.43,1.48.14,3.65,1.51,4.78,2.73,2.24,5.85-.99,5.89-3.93.03-2.9-3.82-9.48-7.45-6.89ZM52.51,83.16c-2.14.02.9,2.79-2.09,2.81-.09-1.15.18-2.43-.01-3.55-.26-1.51-2.42-1.89-.81-3.01l3.01,3.01-.1.74Z"/>
      <path d="M44.25,96.52c-1.33-.02-5.52.79-6.63,1.57-3.88,2.7,2.92,6.36,5.31,5.38.96-.4,3.34-2.13,3.57-3.09.06-1.33-.68-3.84-2.25-3.86Z"/>
      <path d="M40.3,69.01c.52.42.71,1.42.9,1.53,1.24.73,3.27-.19,2.37-2.08-2.27-4.82-12.04-6.1-15.06-.81.53,2.69,3.88.14,5.89-.14,2.77-.39,3.74-.26,5.9,1.5Z"/>
      <path d="M22.09,94.58c.84,1.31,3.6,1.42,4.77.43,3.37-4.85-7.9-5.34-4.77-.43Z"/>
      <path d="M33.34,80.69c.02-.32-.96-2.23-1.07-2.29-1.93-1.1-1.94,1.87-2.66,2.38-.56.39-1.64.19-2.18.56-3.58,2.42,5.63,3.48,5.92-.65Z"/>
      <path d="M21.59,75.66l-2.33,1.38,1.04,4.56c2.76.06,3.83-5.47,1.29-5.94Z"/>
      <path d="M20.29,67.64c-.55-2.52-6.06,2.2-7.66,1.37-.23.84.65.36.88.72.41.63.32,1.52,1.03,2,.91-.88,6.02-2.83,5.75-4.09Z"/>
      <path d="M31.25,91.46c-.23,1.5,1.65.98,1.1,2.73l2.13-.6-.46-2.45-2.76.32Z"/>
    </g>
  </g>
</svg>