<svg xmlns="http://www.w3.org/2000/svg" id="Layer_2" data-name="Layer 2" viewBox="0 0 389.33 407.25">
    <defs>
        <style>
            .cls-1{fill:#a0a19f}.cls-2{fill:#404040}.cls-4{fill:#3c3c3d}.cls-6{fill:#3e3c3d}.cls-8{fill:#403f40}.cls-10{fill:#2b2b2b}.cls-11{fill:#111211}.cls-15{fill:#1b1b1a}.cls-16{fill:#1c1b1b}.cls-20{fill:#010101}.cls-25{fill:#151515}.cls-27{fill:#636361}.cls-29{fill:#2f2f2f}.cls-31{fill:#292929}.cls-34{fill:#3c3c3c}.cls-41{fill:#777273}.cls-42{fill:#282827}.cls-45{fill:#232222}.cls-46{fill:#1c1c1c}.cls-48{fill:#030303}.cls-51{fill:#2d2c2d}.cls-54{fill:#2c2c2c}.cls-55{fill:#1a1a19}.cls-57{fill:#171717}.cls-66{fill:#1e1e1e}.cls-67{fill:#0d0d0d}.cls-68{fill:#818483}.cls-69{fill:#1d1d1d}.cls-74{fill:#3e3e3e}.cls-77{fill:#212121}.cls-83{fill:#121111}.cls-85{fill:#373737}.cls-86{fill:#2d2c2c}.cls-88{fill:#272727}.cls-92{fill:#303030}.cls-93{fill:#222121}.cls-94{fill:#2f2f2e}.cls-97{fill:#141414}.cls-99{fill:#212120}.cls-100{fill:#282727}.cls-102{fill:#020202}.cls-103{fill:#1e1e1f}.cls-105{fill:#5b5b5c}.cls-107{fill:#3d3c3d}.cls-108{fill:#3b3b39}.cls-109{fill:#4b4a49}.cls-118{fill:#191918}.cls-119{fill:#262626}.cls-121{fill:#252424}.cls-122{fill:#363535}.cls-128{fill:#242424}.cls-129{fill:#040404}.cls-133{fill:#0d0c0c}.cls-135{fill:#2a2929}.cls-139{fill:#6d6d6c}.cls-142{fill:#1e1e1d}.cls-143{fill:#272626}.cls-144{fill:#3b3b3c}.cls-147{fill:#1f1e1e}.cls-151{fill:#21211f}.cls-152{fill:#676767}.cls-153{fill:#1d1c1c}.cls-156{fill:#161615}.cls-158{fill:#1a1817}.cls-161{fill:#7f7c7c}.cls-164{fill:#4a494a}.cls-166{fill:#2a2928}.cls-169{fill:#1f1f1f}.cls-173{fill:#2a2a2a}.cls-175{fill:#2d2c2e}.cls-176{fill:#171716}.cls-181{fill:#242423}.cls-185{fill:#131313}.cls-186{fill:#464443}.cls-188{fill:#202020}.cls-190{fill:#0a0a0a}.cls-196{fill:#474646}.cls-202{fill:#0e0d0d}.cls-203{fill:#191919}.cls-207{fill:#313131}.cls-208{fill:#353535}.cls-209{fill:#323132}.cls-210{fill:#2f2e2f}.cls-219{fill:#161515}.cls-220{fill:#1c1b1a}.cls-222{fill:#1e1d1d}.cls-224{fill:#323131}.cls-227{fill:#0f0f0f}.cls-229{fill:#161616}.cls-230{fill:#181818}.cls-232{fill:#0e0e0e}.cls-235{fill:#1b1b1b}.cls-237{fill:#1b1a1a}.cls-238{fill:#434343}.cls-240{fill:#222223}.cls-243{fill:#212020}
        </style>
    </defs>
    <g id="Layer_1-2" data-name="Layer 1">
        <path d="M126.41 342.44c-.47-.09-.94-.18-1.41-.24.94.74 1.74 1.28 2.42 1.66-.14-.61-.42-1.13-1.01-1.42" class="cls-20"/>
        <path d="M343.37 179.33c-2.82-1.12-9.18-1.79-10.14-2.37-1.89-1.14-2.78-9.09-9.23-6.77l-.52 3.1c-5.28 5.45-14.75 12.61-21.47 16.2-3.83 2.04-18.75 8.47-22.03 8.04-1.13-.15-2.13-.56-2.98-1.33-1.34.32-2.28.68-4 1-2.44 2.67-6.17 3.87-11.19 3.58-5.13 1.16-9.24.63-12.31-1.58-.51 2.88-13.3 2.63-15.6 2l-1.4-2-1.65 1.92c-9.96-.46-35.18-9.29-43.83-14.56-13.34-8.13-10.23-11.08 3.09-14.47-7.7-2.48-21.38 4.01-23.52 11.84-.03 9.07-2.85 13.89-12.72 11.36-3.58.99-22.29 16.9-18.98 22.23L133 219.2c-.11 1.74-.95 2.65-1 3-.2 1.59-.87 2.36-1 3 4.03 1.94 2.39 9.46-2.86 7.07l-.32 1.45c13.34 2.11-7.51 24.04-11.16 11.42l-1.08-.05c-2.55 5.59-9.25 2.32-7.58-2.89-1.1-1.34-1.31-3.13-2-4-2.07 1.98-3.15.59-2-2-.64-.71-3.71.43-5-4 2.19 9.88 6.42 19.5 17.42 22.28 18.96 4.79 21.54-16.96 21.16-30.55 1.33-20.83 23.98-32.19 41.74-22.44 8.35 4.58 13.96 14.39-.44 11.27-6.57-1.39-24.3 4.67-6.56.46 6.56-.5 17.13 2.13 20.41 8.34 1.76 3.33 2.66 8.23-2.26 8.56-9.9-2.77-31.35 3.07-7.15.41 12.88-1.25 20.73 16.27 4.29 16.24-4.32-.76-20.19-.04-8.39 2.55 1.62 17.76-13.99 36.36-28.77 44.93-2.15 1.25-5.83 3.29-7.45.96-.38.27 1.23.69-2 2-4.55 6.16-17.26 6.73-24.85 6.19-23.86-1.69-38.99-19.47-48.73-39.76a661 661 0 0 1-33.85-45.72l.42-3.71c-1.24 3.66-3.36-.17-6.01 1.45-1.18.71-1.74 3.19-1.99 4.55 10.87 20.2 20.37 25.49 34.54 40.96 4.61 5.03 9.34 16.66 6 23.15-.45.88-2.94-.23-3.51 1.39.71 1.74 3.32.14 3.84 2.09.62 2.31-.19 5.12.14 7.41.11.74.73 2.5 1 4 2.23 12.3 6.21 13.1 9.27 21.27.68 1.81-1.21 5.01 1.69 6.19 1.19.48 3.32-1.32 4.59.52.79 1.15-1.61 4.09 1.48 5.56 1.25.6 4.03-.31 6.98.45 2.34.6 2.98 1.62 4 2 .26.1.58.84 1 1 8.99 3.31 18.54 4.75 28 6 .61-.03 1.06.07 1.41.24 1.42.29 2.76.66 3.59.76 1.63.19 3.37-.17 5 0 3.01.31 6.02.71 9 1 5.34.52 7.16 1.22 11.55 2.04 1.89.35.84-2 2.9-2.15 1.87-.14 4.77.2 6.26 1.4 1.81 1.46 5.89 10.24 1.29 9.72v.97c5.35 1.87.61 12.36.56 17.51-.08 7.79 3.17 15.4 10.42 19.01 9.65 4.81 50.43 14.76 60.53 13.51 10.53-1.3 23.27-12.43 35.82-11.96 4.43.17 10.54 3.2 15.03 2.89 4.32-.29 7.8-4.35 11.38-4.79 5.08-.62 8.03 1.63 14.64-1.27 16.27-7.12 3.53-35.93-10.4-37.9-.08 6.27 5.49 9.72 7.77 15.72 2.22 5.85 4.87 15.14-3.48 17.06-13.98 3.21-4.46-10.71-14.29-13.78-1.67 1.9 5.89 18.5-8.47 18.04-10.58-.34-5.26-6.41-7.01-13.07-2.8-10.68-25.42-21.03-35.29-23.73-1.17-.32-4.06-.09-4.23-.25-.25-.24-.14-6.54.14-6.86.34-.37 3.67-.32 3.83-1.63.14-1.23-2.97-2.91-3.01-3.18-.14-.89.77-6.46 1.11-7.57.29-.96 1.85-.39 2.02-2.24.22-2.4-3.79-4.13-3.16-9.02.37-2.86 4.03-1.62 3.06-4.99-5.68-1.84-3.88-4.03-5.81-8.2-1.31-2.83-2.89-5.45-4.19-8.31-.47-1.03-2.32-1.86-2-4 1.06-2.63 4.13-3.37 6-5 1.36-1.19 1.71-2.64 4-4 5.06-3 4.61.18 6.36-.11 2.63-.44 2.74-3.25.64-4.88 6.12-1.31 11.2-5.47 17.51-6 25.05-2.1 37.96 18.58 36.47 41.47-.35 5.37-7.42 31.18-3.97 33.51 8.46-.44 6.61-12.76 11.34-17.98 2.5-13.72 4.01-27.99-1.56-41.31-.89-2.12-4.71-2.07-3.78-5.19.26-.88 12.91-6.52 16-9.01 9.39-7.55 12.46-18.42 18.25-24.25 1.15-1.15 7.02-3.27 9.46-5.04 21.64-15.62 22.14-59.55-4.36-70.1ZM231.99 324.7c.92 9.43-1.1 19.18-1.08 28 .03 8.68 7.69 6.19 14.63 8.46 6.24 2.04 25 13.23 26.31 19.78.76 3.8-2.71 6.34-6.14 6.07-3.1-.24-4.23-5.86-7.75-8.26-2.59-1.76-9.42-3.1-6.95.44.17.25 3.44 1.19 5 3.52 3.22 4.79 2.68 9.45-3.56 10.44-8.92 1.41-7.82-4.07-13.07-6.81-2.12-1.11-5.92-2.4-5.89.87 4.8 1.68 10.25 10.57 2.99 11.96-9.42 1.81-19.45-4.16-28.47-6.47-9.25-2.37-28.59-2.39-31.53-13.46-2.18-8.23 3.07-18 .29-28.29-1.66-6.14-12.67-21.15-19.32-21.72-2.83-.24-6.26 1.72-4.3 4.85.52.83 4.05.27 3.85 2.12-4.98-.11-10.02.18-14.99.01-.66-.02-1.34.03-2 0-2.77-.13-7.18-.63-10-1-2.43-.32-3.23-.29-5.48-.87-.16-.02-.33-.07-.52-.13-4.46-1.21-6.28-3.99-6.68-4.07-1.52-.31-4.05 1.05-6.53.87-3.03-.22-6.74-2.12-9.29-3.8-4.93-3.26-13.72-13.3-16.53-17.74-.48-.76-4.47-9.26.02-6.26-.13-.22-1.58-5.92.49-4.99 2.42 1.27 5.84 5.87 7.51 6.99 1.46.98 6.45 3.69 8.09 4.41 1.39.61 6.71 1.31 6.92 1.6.19.28-2.95 5.21 1.52 4.77 2.87-.28 1.28-3.65 1.48-3.77.36-.21 7.42-.25 8.3-.03 1.3.32 1.08 4.01 4.19 3 .89-.29.95-2.36 2.29-2.95 1.5-.66 4.46-.53 6.22-1.03 1.4-.4 3.01-.69 4-1 8.97-2.8 18.67-8.45 25.9-14.6 7.08-6.03 7.48-11.27 18.61-12.39 26.48-2.67 48.88 14.74 51.48 41.5Zm14.66-53.41c-1.25.37-4.12 6.52-8.65 5.9-.42 1.69-5.35 5.67-7 7-.56.45-.79 1.23-2 2-7.02 4.48-4.2-.27-6.93-1.5-.87-.39-5.19.95-7.07-.52 2.18-1.33 2.32-3.01 3-3.99l-6-2.01-.49 4c-2.49-1.22-5.19-3.3-7.57-4.42-1.6-.75-3.72-.32-5.02-1.04-1.2-.66.87-3.75-1.48-4.47-4.87-1.51-3.95 3.69-5.04 4.01-6.9 2.03-5.87-6.5-12.39-3.07-.58-.47 5.28-8.8 5.49-9.86.4-2.06-.3-3.58.51-7.13.34-1.49.13-4.48 2-5 1.84-.51 9.93 1.83 11.4 2.89 1.14.82.27 4.74 2.12 5.12 1.09.22 3.74-2.32 6.88-2 .49.05 8.97 2.92 9.38 3.21.88.61.75 4.04 2.88 4.7s3.48-1.57 7.34-.92c4.84.82 2.33 1.6 3 2 .55.33 4.25-.3 6.31.94 1.18.71 1.54 3.49 3.31 3.97 3.15.84 2.71-2.17 3.57-2.68 1.82-1.1 8.61-.02 8.79 2.27.19 2.58-5.45.34-6.33.6Zm9.35-1.11c1.32-2.42 7.93-4.4 9-1zm3-10.99c-.56.2-1.05.26-1.5.24-5 .76-5.86.53-11.5-.24-1.28-.17-2.66-.74-4-1-.6-.12-1.36.08-2 0-4.8-1.64-38.74-11.34-39.98-13.04-.56-.77.88-3.32.91-4.57.03-1.54-1.49-3.47-.42-4.4 10.75 3.54 21.44 7.47 32.49 10.01.89.21 1.66.93 2 1 15.91 3.38 16.81 1.39 31-2.5 6.82-1.87 13.8-3.29 20.53-5.47 11.09-3.58 26.65-11.61 37.41-13.59 12.95-2.39 2.21 10.51-4.27 13.73-14.07 7.01-45.25 17.31-60.68 19.82Zm41.4 20c-5.67.58-6.29-3.83-9.46-5.48-1.19-.62-2.22-.28-2.94-.51-1.29-.43-2.69-.61-4-1-4.9-1.47-9.83-3.46-15-3.01.56-8.22 12.47-2.42 12.99-2.99.35-.38-.44-3.48.04-3.97.2-.2 2.79.02 3.97-.5 5.74-2.5 11.09-4.37 16.99-6.54 2.14-.78 2.85-2.04 6-2 2.06.03 8.16 2.17 10.25 3.07.78.33.78 1.93 1.34 1.99 2.25.23 4.54-3.01 7.41-2.05 3.36 3.01-22.21 22.43-27.59 22.99m36.28-32.81c-2.93 1.33-17.08 6.13-18.68 2.31 6.9-2.37 14.69-6.23 17.48-13.51.94-2.44 1.11-7.71 1.76-8.76.39-.64 2.52-.87 2.76-1.73 1.47-5.29-19.92-3.69-16.56-10.48 1.83-3.7 8.69-3.05 12.09-3.03 1.54 0 4.38 2.11 4-1.02-.29-2.38-4.97-3.68-7.14-3.9-7.84-.8-14.88 5.71-22.15 8.68-4.65 1.91-9.71 2.72-14.24 4.26-1.49.5-3.07 1.37-5 2-4.61 1.5-9.34 2.67-14 4-17.19 4.9-22.4 9.1-41.22 4.72-7.57-1.76-21.57-8.05-27.78-8.72-.33-.03-.67.01-1 0-1.33-.04-3.36 1.34-4.99.99v-.98l1.99-1.01c-8.53-2.25-9.27-1.49-11-10-.24-1.18.28-2.91 0-4-.35-1.39-1.47-1.43-2-2-.67-.72-2.34-2.41-3-3-.69-.61-4.6-3.77-5-4-2.74-1.57-8.04-2.21-9.45-4.05-2.8-3.65-1.72-11.9 3.43-9.48 2.67 1.25 8.21 7.33 12.02 9.53 2.83 1.64 12.6 4.48 13 5.06.27.4-1.78 3.18.55 3.89 3.74 1.14 3.41-1.54 3.67-1.68 1.33-.72 7.06 1.96 9.56 2.45 5.5 1.08 11.62 1.73 17.22 2.28 3.83.38 6.27-.85 10 1 1.56.77 2.81 3.01 4.48 3.01 1.3 0 3.1-1.88 4.72-2.35 1.81-.53 3.27-.37 4.8-.66 2.24-.44 3.7-.69 6-1 11.38-1.54 16.03-1.85 27-6 1.04-.39 1.64-1.38 4-2 2.59-.68 6.29-.27 7.05-.55 1.02-.38 15.29-11.57 16.88-13.01 6.06-5.5 7.48-12.79 8.07 2.57 2.52.53 2.11-.81 2.01-3l2.99 2c5.91-3.91 16.04 4.26 19.19 9.31 10.29 16.47 4.89 43.5-13.51 51.88Z" class="cls-20"/>
        <path d="M257.5 259.43c.47-.07.96-.15 1.5-.24-.72.05-1.44.09-2.16.13.21.06.42.1.65.11Zm-119.7 84.7c-.87-.46-1.81-.84-2.8-.94.97.4 1.9.71 2.8.94m-70.67-47.74c-.02-.34-.06-.71-.13-1.19zm173.95-6.81c.04-.45.02-.92-.08-1.38v1.35s.06.02.08.03m-174.15 8.23-.29.16c.11-.02.21-.07.29-.16m58.39 36.4-1.32-.02c.19.05.35.09.52.13.33.05.59 0 .8-.12ZM233.9 201.19c2.3.63 15.09.88 15.6-2h-17zm-102.4 52c10.1-7.87 6.11-22.22 8.8-33.2 3.28-13.41 13.32-20.38 27.16-19.81 6.62.27 17.82 4.69 18.54 12.01-3.63-2.55-25.16-2.14-23.99 3.49.63 3.03 8.34-.34 10.52-.49 7.66-.53 20.98 3.32 19.48 13-6.91-.29-13.8-2.51-20.37 1.13-2.56 1.42-5.6 4.76-.61 4.42 6.27-.43 20.82-4.61 23.58 5.42 2.21 8.05-9.96 5.04-12.99 5.13-1.02.03-9.3 1.54-9.61 1.92-2.27 2.79 3.59 4.49 6 3.99-1.18 18.36-13.08 31.83-27.7 41.8-2.04 1.39-6.74 2.78-7.31 3.19 1.63 2.33 5.3.29 7.45-.96 14.77-8.57 30.39-27.17 28.77-44.93-11.79-2.6 4.07-3.31 8.39-2.55 16.44.04 8.59-17.49-4.29-16.24-24.19 2.65-2.74-3.19 7.15-.41 4.92-.34 4.02-5.24 2.26-8.56-3.28-6.2-13.85-8.84-20.41-8.34-17.74 4.22 0-1.85 6.56-.46 14.4 3.13 8.79-6.68.44-11.27-17.76-9.75-40.42 1.6-41.74 22.44.38 13.59-2.2 35.34-21.16 30.55-11-2.78-15.23-12.4-17.42-22.28-3.63 14.8 17.3 32.84 32.5 21Z" class="cls-20"/>
        <path d="M104 236.19c-1.15 2.59-.07 3.98 2 2-.11-.14-1.24-1.17-2-2m26.99-5c-.22.29-4.9-3.44-5.06 2.51-.08 2.98 5.25 1.83 5.03 2.96-.86 4.22-6.68 11.41-11.4 10.6-1.15-.2.23-4.64-4.07-4.14-2.94.34-1.7 3.84-3.97 3.05-1.54-1.03-2.4-2.61-3.52-3.99-1.67 5.21 5.03 8.48 7.58 2.89l1.08.05c3.66 12.62 24.51-9.32 11.16-11.42l.32-1.45c5.25 2.38 6.89-5.13 2.86-7.07-.29 1.41.39 5.49 0 6Zm148.99-33.66c3.28.44 18.21-5.99 22.03-8.04 6.71-3.59 16.18-10.75 21.47-16.2l.52-3.1c-17.13 14.87-23.47 20.45-47 26 .86.77 1.85 1.18 2.98 1.33Zm-86-25.84c-8.46-6.25-26.54 1.92-29.31 11.67-1.87 6.6 2.21 9.86-7.17 10.64-1.21.1-2.67-.96-3.86-.86-.87.07-12.55 9.3-13.68 10.51-.85.9-7.26 9-7.49 9.56-.62 1.49.66 3.93.53 5.98l1.89-1.68c-3.32-5.33 15.4-21.24 18.98-22.23 9.88 2.53 12.69-2.29 12.72-11.36 2.14-7.83 15.82-14.31 23.52-11.84-13.32 3.39-16.43 6.34-3.09 14.47 8.65 5.27 33.87 14.1 43.83 14.56l1.65-1.92c-8.87 0-37.98-10.12-45.82-15.18-15.63-10.08 1.19-5.62 7.3-12.32m67.83 29.08c5.02.29 8.75-.91 11.19-3.58-8.93 1.67-14.8 2-23.5 2 3.07 2.21 7.18 2.73 12.31 1.58" class="cls-20"/>
        <path d="M130.94 223.98c-.02.36-.01.76.06 1.21.06-.51.07-.9-.06-1.21m-55.36 50.13c-2.45-4.08-4.31-7.98-6.44-11.52-10.75-17.9-25.62-27.82-35.14-48.4l-.42 3.71a661 661 0 0 0 33.85 45.72c9.74 20.29 24.86 38.06 48.73 39.76 7.59.54 20.3-.03 24.85-6.19-26.48 10.71-51 .98-65.42-23.08Zm3.47-178.43c1.8-4.38-5.43-18.82-7.91-23.11L72 70.2c-.35-.51-2.12-.79-2-1.99 2-.86 3.94.82 5 .99.13-.91.58-1.53 1.42-1.81 10.96 1.74 57.68 2.91 20.03-7.41a226 226 0 0 0-26.9-.77c-1.86-.46-2.36-1.97-1.91-3.84 12.07-6.27 21.97-15.72 31.71-25.24 32.89-26.69 91.53-21.68 127.89-3.51 46.9 23.44 72.5 65.08 74.08 116.9 15-2.37 21.71 2.56 31.48 13.23 3.37 1.02 5.11 2.51 5.2 4.46 1.04.47 2.82.17 3 1.99-1.31.13-2.7-.15-4 .01-.1 2.69-5.12 3.79-7 2-.93 6.37 19.13 1.15 20.03.53 6.4-4.43-10.61-10.42-12.96-12.09-3.07-2.18-5.57-6.07-8.59-8.41-6.27-4.87-12.41-6.69-20.43-6.07-1.34-22.22-6.01-42.95-17.24-62.26C250.59 7.8 169.82-9.26 98.33 19.02c-13.65 5.4-24.86 15.2-35.32 25.17-.32-7.96 9.86-38.16 6.1-43.42-6.73-2.49-10.55 1.28-12.9 7.13C55.38 9.95 53 18.95 53 20.69v23.5c-4.11-4.67-6.45-11.12-9.97-16.53-2.19-3.36-8.63-13.29-12.39-13.22-8.11.16-.65 18.66 1.19 22.42.81 1.65 7.86 11.69 7.17 12.32-8.91-1.51-18.16-5.92-27.25-2.75-6.83 2.38 1.45 6.4 4.57 7.95 6.83 3.39 15.22 5.36 22.68 6.82-1.43 2.83-5.36 3-8.04 4.44-3.17 1.71-21.08 13.01-19.51 16.54 1.7 3.84 15.7-.72 19.09-1.96 6.39-2.33 11.65-6.71 17.45-10.04.62.85-.7 18.21-.99 21v1c3.04 4.11-.99 13.69 4.49 15 2.94-.67 3.57-17.27 4.51-20.27.4-1.28 2.95-1.43 2.98-2.23 0-.18-1.72-1.38-1.96-3.04-.42-3 .2-6.4-.02-9.47 3.58 2.77 4.56 8.29 6.99 12l2.41-.03c.41 1.69 12.19 12.6 12.63 11.51Z" class="cls-20"/>
        <path d="M74.53 95.17c1.43 1.09 4.62 4.29 6 2.06 3.11-5.01-5.3-22.3-8.53-27.03l-.86 2.37c2.48 4.29 9.71 18.73 7.91 23.11-.45 1.09-12.22-9.82-12.63-11.51l-2.41.03c2.47 3.78 6.91 8.23 10.53 10.97Zm258.27 61.57c-9.77-10.68-16.49-15.61-31.48-13.23-1.57-51.82-27.17-93.46-74.08-116.9-36.36-18.17-95-23.19-127.89 3.51-9.75 9.52-19.64 18.97-31.71 25.24-.45 1.87.05 3.38 1.91 3.84 9-.27 17.96-.01 26.9.77 37.65 10.32-9.08 9.15-20.03 7.41-.84.29-1.29.91-1.42 1.81 6.68 1.08 33.81 2.99 38.1-1.46 3.6-3.74-10.72-8.46-13.09-9.05-10.61-2.64-18.3-.91-28.52-1.49-1.13-.06-2.74.66-2.48-.99 4.54-1.61 9.61-5.04 13.47-8.03 14.58-11.3 20.07-22.61 38.76-28.24 59.75-18.03 122.79 3.5 157.99 54.54 14.91 21.63 17.76 44.84 19.95 70.54 5.4 1.87 10.74-.95 16.86.66 5.66 1.48 11.49 9.95 16.01 12.98 1.83 1.23 3.99 1.66 5.96 2.55-.1-1.95-1.83-3.44-5.2-4.46Zm4.2 6.45c-3.44.42-3.89.56-7 2 1.88 1.79 6.9.69 7-2" class="cls-20"/>
        <path d="M34 214.19c-7.11-6.81-9.72-19.61-11.71-29.46-2.08-10.29-2.94-20.8-2.71-31.3.23-10.71.62-24.55 6.42-33.24 1.54-6.4 3.07-12.85 5.52-18.98 2.21-5.56 9.85-17.03 10.49-21.52.48-3.31-4.64-.77-5.97.05-12.44 7.69-22.71 43.1-24.76 57.24-4.06 28.05 1.31 58.31 14.71 83.21-2.3-7.22 2.37-7.55 8-6Z" class="cls-102"/>
        <path d="M22.29 184.73c1.99 9.85 4.6 22.65 11.71 29.46-13.78-29.79-15.62-62.38-8-94-5.79 8.69-6.18 22.53-6.42 33.24-.23 10.49.63 21.01 2.71 31.3m5.69 30.91c2.66-1.61 4.77 2.21 6.01-1.45-5.63-1.55-10.3-1.22-8 6 .25-1.36.81-3.84 1.99-4.55" class="cls-102"/>
        <path d="M378.24 240.44c-5.69 5.7 4.29 17.1 9.83 9.33 4.74-6.64-5.04-14.13-9.83-9.33m4.24 6.75c-2.12.48-3.11-2.51-.97-2.99 2.12-.48 3.11 2.51.97 2.99" style="fill:#0b0b0b"/>
        <path d="M353.54 264.24c-5.01 5.81 4.3 13.61 9.21 8.71 4.8-4.78-4.23-14.5-9.21-8.71" style="fill:#070807"/>
        <path d="M349.62 175.13c1.5.37 3.52-1.34 5.65-.79 1.24.32 6.6 6.69 7.71 2.3 1.42-5.58-7.52-8.66-12.28-7.23-2.88.86-3.82 5.05-1.08 5.72" class="cls-133"/>
        <path d="M65.45 335.16c-6.65-.75-2.24 9.11 2.29 4.78 2.08-1.99.2-4.49-2.29-4.78" class="cls-83"/>
        <path d="M57.64 328.36c-4.23.82-2.22 6.74 1.65 5.72 4.71-1.23 1.81-6.4-1.65-5.72" class="cls-77"/>
        <path d="M54 324.19c.41.13.78.19 1.11.21-.26-.13-.62-.21-1.11-.21m0 0c-1.83-.6-5.83-3.81-6 1 2.57.7 2.41 1.08 1 3 .42-.19 1.4.13 2 0 .57-.69 2.24-1.28 3-2-.17-.49.11-1.38 0-2" class="cls-181"/>
        <path d="M49 328.19c1.41-1.92 1.57-2.3-1-3 .28.84-.36 2.33 1 3" class="cls-181"/>
        <path d="M34.61 326.28c-3.47 1.08-.76 5.87 1.91 5.67 3.12-.23 3.79-7.44-1.91-5.67" style="fill:#131212"/>
        <path d="M64.67 322.35c-4.04 1.1-2.99 6.22 1.72 4.75 2.86-.89 1.91-5.74-1.72-4.75" class="cls-119"/>
        <path d="M71.52 328.2c-2.82.74-1.84 6.41 2.91 4.94 3.45-1.06.04-5.72-2.91-4.94" class="cls-83"/>
        <path d="M237 292.19c1.46 1.04 3.22 2.88 5.02 1.52 1.99-2.04 1.21-3.27-.94-4.14-.21 2.1-1.91 3.86-4.08 2.62" class="cls-153"/>
        <path d="M237 292.19c2.18 1.24 3.88-.52 4.08-2.62-.02 0-.05-.02-.07-.03v-1.35c-2.31 1.36-2.65 2.81-4.01 4" class="cls-153"/>
        <path d="M43 331.19c-.49.34-3.15 3.76-3 4.48 2.17 2.62 3.26 1.88 5-.48v-4c-.33 2.72-1.13 2.53-2 0" class="cls-25"/>
        <path d="M45 331.19c-.36.23-1.65-.24-2 0 .87 2.53 1.67 2.72 2 0" class="cls-25"/>
        <path d="M79.48 334.46c-3.23.29-3.29 6.31 1.95 4.67 3.34-1.04.27-4.87-1.95-4.67" class="cls-185"/>
        <path d="M233 301.19c6.52-1.36 3.14-6.34-2-4 2.29.12 3.68 2.03 2 4" class="cls-6"/>
        <path d="M233 301.19c1.68-1.97.29-3.88-2-4-.32 2.14 1.53 2.97 2 4" class="cls-6"/>
        <path d="M239.51 303.2c-3.13.84-.14 5.47 1.97 4.98 2.55-.58 1.92-6.03-1.97-4.98" class="cls-121"/>
        <path d="M315.49 303.19c2.98-.65 3.31-6.19-.98-4.99-2.52.71-1.66 5.56.98 4.99" class="cls-31"/>
        <path d="M96 335.19h-3c-.01.23-1.34 1.13-.95 2.33.93 2.87 5.21 2.09 4.95-1.33-1.35 1.52-1.96.87-1-1" class="cls-11"/>
        <path d="M96 335.19c-.96 1.87-.35 2.52 1 1-.42-.16-.74-.9-1-1" class="cls-11"/>
        <path d="M67.13 296.39c.05.77-.03 1.21-.2 1.42.11-.06.22-.11.34-.17zm-.49 1.58c-.69.1-1.92-1.03-2.65-.34-3.68 3.47.95 5.05 4.01 1.57-2.1.1-2.76-.4-1.36-1.23" class="cls-175"/>
        <path d="m67.13 296.39.14 1.25c-.12.06-.24.11-.34.17-.08.1-.18.15-.29.16-1.4.83-.75 1.33 1.36 1.23-.27-1.5-.89-3.26-1-4 .08.48.11.86.13 1.19" class="cls-175"/>
        <path d="M21.51 327.2c-2.61.7-1.42 4.9 1.98 3.98 2.61-.7 1.42-4.9-1.98-3.98" style="fill:#2c2a2a"/>
        <path d="M49 328.19c.16 1.15-1.51 3.08-2.92 3.29.35.54 0 1.76-1.08 3.71 2.01-2.74 3.86-4.45 6-7-1.13.98-1.79.98-2 0" class="cls-41"/>
        <path d="M46.08 331.48c1.41-.21 3.08-2.14 2.92-3.29-1.05.48-2.85 2.25-4 3 .55-.09.9.02 1.08.29m2.92-3.29c.21.98.87.98 2 0-.6.13-1.58-.19-2 0" class="cls-41"/>
        <path d="M46.08 331.48c-.4.06-.77-.01-1.08-.29v4c1.08-1.95 1.43-3.17 1.08-3.71" class="cls-41"/>
        <path d="M45 331.19c.31.28.68.35 1.08.29-.18-.27-.53-.38-1.08-.29" class="cls-41"/>
        <path d="M49 119.19c1.6.34 4.44-.53 4-2.49-.39-1.69-3.61-1.26-4-1.51 1.61 1.55 1.77 2.55 0 4" class="cls-207"/>
        <path d="M49 119.19c1.77-1.45 1.61-2.45 0-4-1.18 1.52-.82 2.46 0 4" class="cls-207"/>
        <path d="M86.51 342.2c-2.61.7-1.42 4.9 1.98 3.98 2.61-.7 1.42-4.9-1.98-3.98" class="cls-94"/>
        <path d="M63.51 310.2c-2.61.7-1.42 4.9 1.98 3.98 2.61-.7 1.42-4.9-1.98-3.98" class="cls-85"/>
        <path d="M320 309.19c2.11 2.08 6.06-1.91 3.99-3.99-1.62-1.62-5.61 2.39-3.99 3.99" class="cls-119"/>
        <path d="M127.42 343.86c.33 1.47-.15 3.37 1.08 3.32.39-.02 1.82-2.02 2.5-2.48l-1-1.5c.09 1.48-.78 1.69-2.58.66" class="cls-108"/>
        <path d="M127.42 343.86c1.8 1.02 2.67.81 2.58-.66-.83-.1-2.17-.47-3.59-.76.59.29.87.82 1.01 1.42m-2.42-1.67c.47.06.94.15 1.41.24-.35-.17-.8-.27-1.41-.24" class="cls-108"/>
        <path d="M56 321.19c1.64 1.65 6.34-2.55 2.48-3.98-3.45-1.28-2.91 3.55-2.48 3.98" style="fill:#312f30"/>
        <path d="M314.51 316.18c3.45 1.28 2.91-3.55 2.48-3.98-1.64-1.65-6.34 2.55-2.48 3.98" style="fill:#302e2f"/>
        <path d="M335.51 305.2c-2.29.51-1.59 4.99-.01 4.97 2.12-.03 3.62-5.77.01-4.97" class="cls-240"/>
        <path d="M70.02 343.69c2.16 3.29 5.85 2.59 4.97-1.49-2.09-.12-3.75-.38-4.97 1.49" class="cls-42"/>
        <path d="M357.49 299.2c-3.45-1.28-2.91 3.55-2.48 3.98 1.64 1.65 6.34-2.55 2.48-3.98" class="cls-128"/>
        <path d="M372.99 300.2c-1.64-1.65-6.34 2.55-2.48 3.98 3.45 1.28 2.91-3.55 2.48-3.98" class="cls-86"/>
        <path d="M341 299.2c-1.93 1.93 3.18 6.18 3.99 2.48.46-2.11-3.26-3.21-3.99-2.48" class="cls-207"/>
        <path d="M245 312.68c.81 3.7 5.92-.55 3.99-2.48-.73-.73-4.45.37-3.99 2.48" class="cls-243"/>
        <path d="M245 325.68c.81 3.7 5.92-.55 3.99-2.48-.73-.73-4.45.37-3.99 2.48" style="fill:#252525"/>
        <path d="M137.8 344.13c2.62 1.37 4.69 3.38 6.2.06-1.87.54-3.94.51-6.2-.06" class="cls-220"/>
        <path d="M137.8 344.13c2.26.57 4.33.6 6.2.06-2.98-.29-5.99-.69-9-1 .99.1 1.93.48 2.8.94" class="cls-220"/>
        <path d="M56 304.2c-1.93 1.93 3.18 6.18 3.99 2.48.46-2.11-3.26-3.21-3.99-2.48" style="fill:#3f3e3e"/>
        <path d="M9.99 262.19c1.93-1.93-3.18-6.18-3.99-2.48-.46 2.11 3.26 3.21 3.99 2.48" class="cls-207"/>
        <path d="M50.51 297.2c-2.36.52-1.48 4.53.97 3.99 2.36-.52 1.48-4.53-.97-3.99" style="fill:#323231"/>
        <path d="M253.51 316.2c-2.36.52-1.48 4.53.97 3.99 2.36-.52 1.48-4.53-.97-3.99" class="cls-92"/>
        <path d="M317.99 326.2c-.49-.62-3.41-1.12-3.98.5-1.72 4.85 5.76 1.74 3.98-.5" class="cls-224"/>
        <path d="M101.51 342.2c-2.36.52-1.48 4.53.97 3.99 2.36-.52 1.48-4.53-.97-3.99" class="cls-86"/>
        <path d="M327 299.2h3.99v2.99H327z" class="cls-143"/>
        <path d="M329.48 316.19c2.36-.52 1.48-4.53-.97-3.99-2.36.52-1.48 4.53.97 3.99" style="fill:#434445"/>
        <path d="M56 121.19c-.61.8-.79 2.02-1 3 1.45-.38 1.79-1.38 1-3" class="cls-188"/>
        <path d="M56 121.19c.79 1.62.45 2.62-1 3 6.01 2.51 5.61-1.65 1-3" class="cls-188"/>
        <path d="M253.51 290.2c-2.36.52-1.48 4.53.97 3.99 2.36-.52 1.48-4.53-.97-3.99" class="cls-144"/>
        <path d="M147.51 350.2c-2.77.72.33 3.97.99 3.97 1.95 0 3.62-5.17-.99-3.97" class="cls-119"/>
        <path d="M42 110.19c1.52.36 2.85 1.03 4 2-.79-1.59 1.77-4.9-4-2" class="cls-99"/>
        <path d="M46 112.19a9.5 9.5 0 0 0-4-2c.26 2.62 1.19 3.18 4 2" class="cls-99"/>
        <path d="M52.99 284.2c-1.84-.23-2.93-.06-3.98 1.51v1.48H53v-2.99Z" class="cls-31"/>
        <path d="M51.51 336.2c-2.39.62-1.02 3.76 1.98 2.98 2.39-.62 1.02-3.76-1.98-2.98" class="cls-219"/>
        <path d="M355.01 316.19c.67.84 4.56 1.14 3.99-1.48-.68-3.09-5.42-.33-3.99 1.48" style="fill:#515152"/>
        <path d="M71.5 316.21c-1.03 0-2.11 3.36-1.49 3.97 2.59 2.59 5.37-3.97 1.49-3.97" class="cls-202"/>
        <path d="M356.48 365.2c-2.62-.57-2.32 3.32-1.48 3.99 1.81 1.44 4.57-3.31 1.48-3.99" class="cls-238"/>
        <path d="M248.99 297.2c-1.31-1.32-5.93 1.74-2.48 2.98 2.95 1.06 3.23-2.23 2.48-2.98" style="fill:#1e1d1c"/>
        <path d="M36.51 302.18c2.95 1.06 3.23-2.23 2.48-2.98-1.31-1.32-5.93 1.74-2.48 2.98" style="fill:#141514"/>
        <path d="M323.99 292.2c-1.31-1.32-5.93 1.74-2.48 2.98 2.95 1.06 3.23-2.23 2.48-2.98" class="cls-143"/>
        <path d="M58 111.7c1.23-.76.53-2.28 0-2.5-4.35-1.81-4.33 5.2 0 2.5" class="cls-121"/>
        <path d="M348.01 308.68c1.24 3.45 4.3-1.17 2.98-2.48-.75-.75-4.05-.46-2.98 2.48" class="cls-128"/>
        <path d="M51.99 315.19v-3.99c-3.93 0-3.98 3.97 0 3.99" style="fill:#4d4e4e"/>
        <path d="m162 363.19-1 3c1.25 1.29 3.4 1.14 4.99 2 .99-.89-3.5-4.81-3.99-5" style="fill:#9c9b9c"/>
        <path d="M8.5 333.17c1.03-.01 2.11-3.31 1.49-3.98-1.77-1.91-4.48 4-1.49 3.98" class="cls-169"/>
        <path d="M134 363.2c-.62.67.47 3.96 1.49 3.98 2.98.03.28-5.88-1.49-3.98" class="cls-2"/>
        <path d="M370.02 317.69c-.03 2.98 5.88.28 3.98-1.49-.67-.62-3.96.47-3.98 1.49" style="fill:#393839"/>
        <path d="M56 294.19c1.59 1.59 4.58-1.4 2.99-2.99s-4.58 1.4-2.99 2.99" class="cls-94"/>
        <path d="M141.5 356.21c-2.98-.03-.28 5.88 1.49 3.98.62-.67-.47-3.96-1.49-3.98" style="fill:#353536"/>
        <path d="M127 356.2c-.62.67.47 3.96 1.49 3.98 2.98.03.28-5.88-1.49-3.98" style="fill:#282929"/>
        <path d="M28 324.19c1.59 1.59 4.58-1.4 2.99-2.99s-4.58 1.4-2.99 2.99" class="cls-235"/>
        <path d="M246 349.2c-.62.67.47 3.96 1.49 3.98 2.98.03.28-5.88-1.49-3.98" style="fill:#444343"/>
        <path d="M107 352.19c1.59 1.59 4.58-1.4 2.99-2.99s-4.58 1.4-2.99 2.99" style="fill:#232322"/>
        <path d="M15.5 325.17c1.03-.01 2.11-3.31 1.49-3.98-1.77-1.91-4.48 4-1.49 3.98" style="fill:#444"/>
        <path d="M321 322.19c1.59 1.59 4.58-1.4 2.99-2.99s-4.58 1.4-2.99 2.99" class="cls-119"/>
        <path d="M116.99 345.19c1.91-1.77-4-4.48-3.98-1.49.01 1.03 3.31 2.11 3.98 1.49" style="fill:#484848"/>
        <path d="M43.97 96.36c-.25.65-1.72 3.03-.97 3.83 1.66 1.76 2.7-2.32 2.99-3-1.37 2.39-2.49 1.7-2.03-.84Z" class="cls-93"/>
        <path d="M43.97 96.36c-.46 2.54.66 3.22 2.03.84l-2-1s0 .07-.03.16" class="cls-93"/>
        <path d="M36 103.2c-1.23 1.23.29 3.28 1.77 3.43.38-.14.78-.28 1.22-.43 1.58-1.58-1.4-4.59-2.99-2.99Z" class="cls-100"/>
        <path d="M39 106.19c-.44.15-.84.29-1.22.43.43.04.87-.07 1.22-.43" class="cls-100"/>
        <path d="M248.99 336.2c-1.59-1.59-4.58 1.4-2.99 2.99s4.58-1.4 2.99-2.99" class="cls-238"/>
        <path d="M314 342.19c1.69 1.5 4.5-1.28 2.99-2.99-.94-1.07-4.06 2.03-2.99 2.99" style="fill:#3f403f"/>
        <path d="M123 391.19c.94 1.07 4.06-2.03 2.99-2.99-1.69-1.5-4.5 1.28-2.99 2.99" class="cls-51"/>
        <path d="M328 329.19c.94 1.07 4.06-2.03 2.99-2.99-1.69-1.5-4.5 1.28-2.99 2.99" style="fill:#898989"/>
        <path d="M23.99 317.19c1.05-.97-1.88-4.57-2.99-1.48-.76 2.11 2.62 1.82 2.99 1.48" style="fill:#646465"/>
        <path d="M14.01 309.68c1.11 3.09 4.03-.51 2.99-1.48-.37-.34-3.74-.63-2.99 1.48" style="fill:#2b2a2b"/>
        <path d="M8.01 302.68c1.11 3.09 4.03-.51 2.99-1.48-.37-.34-3.74-.63-2.99 1.48" class="cls-97"/>
        <path d="M45 322.19v-1l-2-1c-.54.7-1.46 1.26-2 2 1.63-.69 2.96-.69 4 0" class="cls-186"/>
        <path d="M45 322.19c-1.04-.69-2.37-.69-4 0 .74 2.3 3.13.03 4 0" class="cls-186"/>
        <path d="M336.99 292.2c-.97-1.05-4.57 1.88-1.48 2.99 2.11.76 1.82-2.62 1.48-2.99" style="fill:#343434"/>
        <path d="M329.48 366.2c-2.11-.76-1.82 2.62-1.48 2.99.97 1.05 4.57-1.88 1.48-2.99" style="fill:#4c4b4b"/>
        <path d="M45.99 294.19c1.05-.97-1.88-4.57-2.99-1.48-.76 2.11 2.62 1.82 2.99 1.48" style="fill:#292a2a"/>
        <path d="M135.48 350.2c-2.11-.76-1.82 2.62-1.48 2.99.97 1.05 4.57-1.88 1.48-2.99" class="cls-74"/>
        <path d="M322.51 349.18c2.11.76 1.82-2.62 1.48-2.99-.97-1.05-4.57 1.88-1.48 2.99" class="cls-54"/>
        <path d="M342.5 316.17c.66 0 2.07-2.4 1.49-2.97-1.51-1.51-4.26 2.97-1.49 2.97" style="fill:#343333"/>
        <path d="M279 319.19c1.51 1.51 4.26-2.97 1.49-2.97-.66 0-2.07 2.4-1.49 2.97" style="fill:#454545"/>
        <path d="M58 96.19c-3.18-.78-2.98 3.88 0 3-1.61-.39-1.64-2.42 0-3" class="cls-20"/>
        <path d="M58 96.19c-1.64.58-1.61 2.61 0 3 .15-.94-.12-2.04 0-3" class="cls-20"/>
        <path d="M29.5 307.21c-.66 0-2.07 2.4-1.49 2.97 1.51 1.51 4.26-2.97 1.49-2.97" style="fill:#3d3d3d"/>
        <path d="M19.02 343.69c0 .66 2.4 2.07 2.97 1.49 1.51-1.51-2.97-4.26-2.97-1.49" style="fill:#717071"/>
        <path d="M266.5 407.17c.66 0 2.07-2.4 1.49-2.97-1.51-1.51-4.26 2.97-1.49 2.97" class="cls-16"/>
        <path d="M94 350.2h2.99v1.99H94z" style="fill:#444344"/>
        <path d="M272.02 398.69c0 .66 2.4 2.07 2.97 1.49 1.51-1.51-2.97-4.26-2.97-1.49" style="fill:#545454"/>
        <path d="M162.99 350.2c-1.51-1.51-4.26 2.97-1.49 2.97.66 0 2.07-2.4 1.49-2.97" class="cls-135"/>
        <path d="M116.98 357.69c0-.66-2.4-2.07-2.97-1.49-1.51 1.51 2.97 4.26 2.97 1.49" class="cls-10"/>
        <path d="M56 278.2h2.99v1.99H56z" style="fill:#080708"/>
        <path d="M155.5 356.21c-.66 0-2.07 2.4-1.49 2.97 1.51 1.51 4.26-2.97 1.49-2.97" style="fill:#585656"/>
        <path d="M279 291.2h1.99v2.99H279z" style="fill:#5e5f5f"/>
        <path d="M329.5 397.17c.66 0 2.07-2.4 1.49-2.97-1.51-1.51-4.26 2.97-1.49 2.97" class="cls-122"/>
        <path d="M348 372.2h1.99v2.99H348z" style="fill:#0f0d0e"/>
        <path d="M45 321.19c.46-1.76-.24-4.45-2-3-.26.21.22 1.71 0 2 .68-1.96 1.7-.68 2 1" class="cls-210"/>
        <path d="m43 320.19 2 1c-.3-1.68-1.32-2.96-2-1" class="cls-210"/>
        <path d="M119.99 381.2H116v1.99c.55.55 5.2-1.44 3.99-1.99" style="fill:#504e4f"/>
        <path d="M342 394.2v2.99c1.45-.34 2.3-1.61 1.99-2.99z" style="fill:#1a1b1a"/>
        <path d="M162 363.19c-.42-.16-1.37.07-2 0-.45.45.52 2.51 1 2.99-.36-1.4-.66-2.91 1-3Z" class="cls-105"/>
        <path d="m161 366.19 1-3c-1.66.09-1.36 1.6-1 3" class="cls-105"/>
        <path d="M1.49 323.2c-.5-.22-.9 2.33-1.49 2.99 2.46.32 3.91-1.91 1.49-2.99" style="fill:#201f1f"/>
        <path d="M260.5 398.21c-1.5 0-1.5 2.96 0 2.96s1.5-2.96 0-2.96"/>
        <path d="M122.99 350.2c-1.38-.31-2.66.54-2.99 1.98h2.99z" class="cls-122"/>
        <path d="M253 407.19c1.38.31 2.66-.54 2.99-1.98H253z" class="cls-133"/>
        <path d="M93.67 334.52A4.7 4.7 0 0 1 92 333.2c.18.58 1.03 1.58 1 2 0-.43.22-.65.67-.68" class="cls-196"/>
        <path d="M93.67 334.52c.5-.03 1.27.19 2.33.68-1.02-.38-1.66-1.4-4-2a4.7 4.7 0 0 0 1.67 1.32" class="cls-196"/>
        <path d="M93.67 334.52c-.44.02-.67.24-.67.68h3c-.85-.14-1.63-.33-2.33-.68" class="cls-196"/>
        <path d="M93.67 334.52c.7.34 1.49.53 2.33.68-1.06-.48-1.83-.7-2.33-.68" class="cls-196"/>
        <path d="M169.53 164.23c43.04-14.14 29.59-84.74-12.73-81.75-56.33 3.98-50.1 102.39 12.73 81.75m-44.27-45.28c5.07-37.08 59-43.63 63.62-2.89l-56.61 16.89c-9.51 3.11-7.91-7.39-7-14Zm23.04 16.45c1.56.48 2.72 2.69 4.36 3.63 7.67 4.39 16.61 4.72 22.99-2.19 5.69-6.16 1.36-13.76 12.33-15.26 5.6-.76 2.42 10.45 1.52 13.61-6.61 23.29-40.06 35.11-56.48 15.47-1.37-1.64-5.06-7.15-5.03-9.02.08-3.92 16.74-7.34 20.3-6.25Z" class="cls-102"/>
        <path d="M285.89 107.8c-2.53-21.69-31.15-45.11-53.15-41.37-23.82 4.04-24.44 33.46-15.26 50.78 18.55 34.96 73.51 34.29 68.41-9.41m-5.95 8.79c-.39 3.63-3.61 10.78-6.29 13.26-16.18 15.02-42.39 3.86-49.65-14.65 3.41.09 6.83-1.86 10.29-.81 1.81.55 3.06 3.19 4.77 4.24 9.57 5.88 17.9 5.06 24.02-4.88 2-3.25-.17-5.54 6.48-6.5 8.19-1.17 11.32.57 10.38 9.33Zm-42.13-46.17c15.15-.83 34 16.88 39.19 30.25l-55.02 9.03c-8.91-14.58-3.94-38.2 15.82-39.28Z" style="fill:#030202"/>
        <path d="m42 180.19-.21-2.67c-.05.59 0 1.45.21 2.67" class="cls-48"/>
        <path d="M38.99 192.71c.2 1.08-4.06-.49-2.98 1.97 1.07 2.43 3.79.42 3.95.54.28.22.9 4.58 1.62 5.9.39.71 7.86 9.35 8.43 9.63 1.82.92 3.99-1.21 3.85-2.89-.23-2.68-7.91-9.61-8.5-16.32-.12-1.33 1.19-4.76.62-5.33-.27-.27-2.45.34-2.85-.09-.2-.22-.85-4.74-1.12-5.93-.57-2.45-.81-3.07-1-6-.41-6.26-.16-13.66 0-20-1.69-1.33-1.04-4.84-1-7 .03-1.43 1.71-3.48.58-5.05-.77-1.07-4.19-1.32-4.57-.95-1.34 1.32 1.87 5.11 1.8 6.32-.06 1.01-1.63 3.24-1.97 5.02-2.64 13.62-2.93 27.4 3.15 40.17Z" class="cls-48"/>
        <path d="m41.01 149.23.04-.04h-.04v.03Z" class="cls-48"/>
        <path d="M219.97 171.72c1.91.64 4.91.1 6.11.91 1.16.79.73 3.35.93 3.56 3.25 3.38.84-2.8.98-2.99.66-.91 10.99-1.95 14.07-8.44 1.58-3.33 2.73-10.81-1.58-12.56-2.05-.83-2.78 5.96-4.03 7.95-2.9 4.63-8.85 5.76-13.9 4.98-2.85-.44-10.21-6.15-12.53-2.88-2.55 3.59 7.51 8.66 9.94 9.47Z" style="fill:#050505"/>
        <path d="M278.53 147.18c-5.69.34-10.5 3.98-15.27 4.78-4.66.78-9.95-.56-14.36.67-3.77 1.05-3.36 4.46.81 5.35 2.18.46 11.52 1.38 13.74 1.26 6.28-.31 17.45-7.3 24.54-8.06-.06-4-6.49-4.18-9.46-4" class="cls-129"/>
        <path d="M136.71 37.41c8.64-2.95 15.45-5.91 24.92-7.09 3.68-.46 8.59.57 11.74-.26 5.91-1.55-4.96-3.45-6.7-3.48-8.41-.14-19.43 2.06-27.04 5.74-3.67 1.77-10.5 7.69-2.92 5.09" style="fill:#0c0c0c"/>
        <path d="M148 49.19c.81.83 13.22-7.45 16.99-4-1.24-9.07-20.65.2-16.99 4" class="cls-147"/>
        <path d="M191.99 57.67c-.45-3.04-3.52-4.12-6.28-3.3-7.06 2.09.69 10.11 6.28 3.3" class="cls-176"/>
        <path d="M99 232.19c2 .45 5.18 1.58 5 4 .62-4.03-1.4-4.23-5-4" class="cls-67"/>
        <path d="M99 232.19c3.6-.23 5.62-.03 5 4 6.15-3.44-3.73-9.17-5-4" class="cls-67"/>
        <path d="M99 232.19c1.29 4.43 4.36 3.29 5 4 .18-2.42-3-3.55-5-4" class="cls-67"/>
        <path d="M130.96 219.89c-3.23-1.04-3.55.06-.96 3.31l1.35-1.77c-.48-.66-.6-1.17-.39-1.53Z" class="cls-227"/>
        <path d="M126.49 219.19c-2.07 4.27 1.79 3.31 3.51 4-2.59-3.25-2.27-4.35.96-3.31.24-.41.91-.65 2.04-.69-2.57-.68-4.78-3.58-6.51 0" class="cls-227"/>
        <path d="M130.96 219.89c-.22.37-.09.87.39 1.53l.16-.21.5.98c.05-.35.89-1.26 1-3l-.7 1.18c-.49-.2-.93-.36-1.34-.49Z" class="cls-227"/>
        <path d="M130.96 219.89c.4.13.84.29 1.34.49l.7-1.18c-1.13.04-1.8.28-2.04.69" class="cls-227"/>
        <path d="M107.88 238.23c1.31.56 1.4 2.38.12 3.96 3.23-2.4 3.18-3.71-.12-3.96" class="cls-46"/>
        <path d="M106 238.19c.78-.2 1.41-.16 1.88.04q4.95.375.12 3.96c8.48-.3 3.59-9.12-2-4" class="cls-46"/>
        <path d="M107.88 238.23c-.54-.04-1.16-.06-1.88-.04.69.87.9 2.66 2 4 1.28-1.58 1.19-3.41-.12-3.96" class="cls-46"/>
        <path d="M107.88 238.23c-.47-.2-1.1-.24-1.88-.04.72-.02 1.34 0 1.88.04" class="cls-46"/>
        <path d="M118.04 222.73c2.61-1.83.29-5.58-3.43-4.44-3.88 1.2-.49 7.18 3.43 4.44" class="cls-229"/>
        <path d="M94.46 228.23c2.94 4.67 7.43-1.83 4.45-3.95-1.72-1.23-6.54.64-4.45 3.95" style="fill:#080808"/>
        <path d="M167 44.2c.37 4.28 4.97 4.3 7.99 2.99.06-4.28-5.04-2.84-7.99-2.99" style="fill:#2c2d2d"/>
        <path d="M118.92 232.83c-.89-5.27-8.03-.42-5.92 2.36 1.14 1.5 6.42.58 5.92-2.36" class="cls-100"/>
        <path d="M121.9 241.71c2.84.66 4.27-2.26 3-4.41-1.72-2.92-10.16 2.74-3 4.41" class="cls-185"/>
        <path d="M41 154.19c.04-1.65-.04-3.31.01-4.96-.94.97-.95 2.62-.01 4.96m.05-5c1.56-.38.45 1.74 1.59 2.02 4.1 1 4.39-2.98 3.35-4.01-.62-.61-4.64 1.29-6 0l1.93 1.4c-.36.15-.64.36-.88.59Z" class="cls-29"/>
        <path d="M41 154.19c-.94-2.34-.93-3.99.01-4.96v-.03h.04c.24-.24.52-.44.88-.59l-1.93-1.4c-.04 2.16-.69 5.67 1 7Z" class="cls-29"/>
        <path d="M110.49 224.2c-3.28-.98-4.4 3.76-3.46 4.96 2.48 3.17 7.67-3.71 3.46-4.96" class="cls-203"/>
        <path d="M101.56 218.25c-2.17.68-1.06 4.58-.56 4.94 3.57 2.55 8.03-7.27.56-4.94" class="cls-103"/>
        <path d="M69.51 211.21c-1.66.51-1.68 3.51-1.51 4.98 6.6 1.65 6.06-6.37 1.51-4.98" style="fill:#212122"/>
        <path d="M112 216.19c1.1-6.99-6.27-6.11-5.01 0z" class="cls-103"/>
        <path d="M126.01 206.71c-1.39 4.55 6.64 5.1 4.98-1.51-1.47-.17-4.48-.16-4.98 1.51" style="fill:#1a1a1a"/>
        <path d="M121.51 224.21c-1.66.51-1.68 3.51-1.51 4.98 6.6 1.65 6.06-6.37 1.51-4.98" class="cls-55"/>
        <path d="M64.49 223.18c1.66-.51 1.68-3.51 1.51-4.98-6.6-1.65-6.06 6.37-1.51 4.98" style="fill:#1c1c1d"/>
        <path d="M88.03 218.22c-3.26 2.59 3.67 7.7 4.97 2.46.57-2.31-4.02-3.21-4.97-2.46" class="cls-203"/>
        <path d="M82.51 224.2c-2.01.56-2.01 4.42 0 4.98 4.6 1.29 4.6-6.27 0-4.98" class="cls-153"/>
        <path d="M102.52 210.19c2.46.62 3.09-4.41 2.48-4.99-2.66-2.54-7.8 3.66-2.48 4.99" style="fill:#1f1f1e"/>
        <path d="M116.99 298.19c1.14-.81 1.51-6.1-2.48-4.99-3.56.99-.32 6.97 2.48 4.99" style="fill:#3a3636"/>
        <path d="M50.52 223.19c2.46.62 3.09-4.41 2.48-4.99-2.66-2.54-7.8 3.66-2.48 4.99" class="cls-46"/>
        <path d="M96.48 211.2c-2.46-.62-3.09 4.41-2.48 4.99 2.66 2.54 7.8-3.66 2.48-4.99" style="fill:#252425"/>
        <path d="M78.89 218.29c-4.04-2.5-6.38 4.02-2.26 4.83 2.42.48 3.89-3.82 2.26-4.83" class="cls-227"/>
        <path d="M56.51 211.2c-3.03.58-1.71 7.98 2.36 4.89 1.76-1.33-.06-5.33-2.36-4.89m26 4.99c3.78 1.49 3.19-4.51 2.48-4.99-2.66-1.79-6.15 3.54-2.48 4.99" class="cls-66"/>
        <path d="M56.51 224.2c-2.55.58-1.92 6.03 1.97 4.98 3.13-.84.14-5.47-1.97-4.98" style="fill:#222122"/>
        <path d="M120.01 214.68c1.45 3.67 6.77.18 4.99-2.48-.47-.7-6.48-1.3-4.99 2.48" style="fill:#171515"/>
        <path d="M56.51 237.2c-2.52.71-1.66 5.56.98 4.99 2.98-.65 3.31-6.19-.98-4.99" style="fill:#272726"/>
        <path d="M91.99 209.19c2.13-2.83-4.25-6.01-4.99-2.48-.51 2.44 3.86 3.98 4.99 2.48" class="cls-202"/>
        <path d="M116.48 210.19c3.53-.74.35-7.12-2.48-4.99-1.5 1.13.04 5.5 2.48 4.99" class="cls-66"/>
        <path d="m41.71 176.63.07.89c.24-2.56 2.56-.05 3.23-.77 1.16-1.24 1.15-1.92.98-3.55l-4.99 1c2.35.33 3.08 1.73.71 2.44Z" class="cls-229"/>
        <path d="m41.79 177.52-.07-.89c2.37-.7 1.64-2.11-.71-2.44.19 2.93.43 3.55 1 6-.21-1.23-.27-2.08-.21-2.67Z" class="cls-229"/>
        <path d="M138.99 68.2c-.46-.6-6.6-1.5-5.98 1.48 1.62 3.43 7.58.6 5.98-1.48" style="fill:#3e3d3d"/>
        <path d="M137 57.19c1.81.36 6.42-1.27 5.99-3.48-.68-3.49-7.45 2.09-5.99 3.48" style="fill:#1f1e1f"/>
        <path d="M70.49 229.19c3.57-.8 1.63-5.58-.97-4.99-2.45.56-1.74 5.6.97 4.99" class="cls-10"/>
        <path d="M65.99 209.19c1.37-1.92-2.03-5.37-3.99-3.99-2.66 1.87 2.08 6.67 3.99 3.99" class="cls-57"/>
        <path d="M129.99 298.19c.65-.65-.03-5.54-2.48-4.99-3.83.87.2 7.28 2.48 4.99" style="fill:#272525"/>
        <path d="M65.99 231.2c-.65-.65-5.54.03-4.99 2.48.87 3.83 7.28-.2 4.99-2.48" class="cls-69"/>
        <path d="M45.99 216.19c1.61-1.6-1.53-7.01-3.9-3.88-2.29 3.03 2.32 5.45 3.9 3.88" class="cls-219"/>
        <path d="M52.99 196.19c2.7-3.57-5.02-5.15-4.98-1.5.02 1.56 4.01 2.78 4.98 1.5" class="cls-173"/>
        <path d="M78.99 205.2c-2.08-2.08-6.07 1.91-3.99 3.99s6.07-1.91 3.99-3.99" style="fill:#100f10"/>
        <path d="M49 235.19c2.08 2.08 6.07-1.91 3.99-3.99s-6.07 1.91-3.99 3.99" class="cls-153"/>
        <path d="M50.51 166.2c-2.45.55-1.74 5.6.97 4.99 2.45-.55 1.74-5.6-.97-4.99" class="cls-34"/>
        <path d="M50.51 179.2c-2.45.55-1.74 5.6.97 4.99 2.45-.55 1.74-5.6-.97-4.99" style="fill:#2c2b2c"/>
        <path d="M82.51 203.19c3.44 1.29 2.91-3.56 2.49-3.99-2.3-2.3-6.76 2.39-2.49 3.99" class="cls-100"/>
        <path d="M56.51 203.19c3.44 1.29 2.91-3.56 2.49-3.99-2.3-2.3-6.76 2.39-2.49 3.99" class="cls-230"/>
        <path d="M134.51 203.19c3.44 1.29 2.91-3.56 2.49-3.99-2.3-2.3-6.76 2.39-2.49 3.99" class="cls-153"/>
        <path d="M122.99 287.2c-1.15-1.03-5.01 2.87-3.99 3.99 2.26 2.46 6.42-1.81 3.99-3.99" style="fill:#302e2e"/>
        <path d="M52.99 154.19c-.86-1.19-4.94-1.02-3.98 2.49.95 3.51 5.68-.15 3.98-2.49" class="cls-45"/>
        <path d="M49.01 143.68c.95 3.51 5.68-.15 3.98-2.49-.86-1.19-4.94-1.02-3.98 2.49" class="cls-209"/>
        <path d="M38.49 115.2c-3.45-1.28-2.91 3.55-2.48 3.98 1.64 1.65 6.34-2.55 2.48-3.98" style="fill:#2b2b2c"/>
        <path d="M43.51 164.18c3.45 1.28 2.91-3.55 2.48-3.98-1.64-1.65-6.34 2.55-2.48 3.98" style="fill:#2b2929"/>
        <path d="M45.99 122.2c-.43-.43-5.27-.96-3.98 2.48 1.43 3.85 5.63-.84 3.98-2.48" style="fill:#222"/>
        <path d="M120.01 201.68c1.43 3.85 5.63-.84 3.98-2.48-.43-.43-5.27-.96-3.98 2.48" class="cls-235"/>
        <path d="M45.99 138.19c1.65-1.64-2.55-6.34-3.98-2.48-1.28 3.45 3.55 2.91 3.98 2.48" class="cls-143"/>
        <path d="M171.99 264.2c-.43-.43-5.27-.96-3.98 2.48 1.43 3.85 5.63-.84 3.98-2.48" style="fill:#373838"/>
        <path d="M71.99 199.2c-.43-.43-5.27-.96-3.98 2.48 1.43 3.85 5.63-.84 3.98-2.48" class="cls-15"/>
        <path d="M62.01 246.68c1.43 3.85 5.63-.84 3.98-2.48-.43-.43-5.27-.96-3.98 2.48" class="cls-83"/>
        <path d="M38.49 128.2c-3.45-1.28-2.91 3.55-2.48 3.98 1.64 1.65 6.34-2.55 2.48-3.98" style="fill:#2e2f2f"/>
        <path d="M69.51 190.18c3.45 1.28 2.91-3.55 2.48-3.98-1.64-1.65-6.34 2.55-2.48 3.98" class="cls-188"/>
        <path d="M56.51 190.18c3.45 1.28 2.91-3.55 2.48-3.98-1.64-1.65-6.34 2.55-2.48 3.98" class="cls-45"/>
        <path d="M51.49 128.2c-3.45-1.28-2.91 3.55-2.48 3.98 1.64 1.65 6.34-2.55 2.48-3.98" style="fill:#343334"/>
        <path d="M71.99 241.19c1.93-1.93-3.18-6.18-3.99-2.48-.46 2.11 3.26 3.21 3.99 2.48" style="fill:#3b3b3a"/>
        <path d="M97.99 199.2c-.73-.73-4.45.37-3.99 2.48.81 3.7 5.92-.55 3.99-2.48" style="fill:#191818"/>
        <path d="M110.99 199.2c-.73-.73-4.45.37-3.99 2.48.81 3.7 5.92-.55 3.99-2.48" style="fill:#222221"/>
        <path d="M58.99 135.71c-.81-3.7-5.92.55-3.99 2.48.73.73 4.45-.37 3.99-2.48" class="cls-209"/>
        <path d="M55 149.68c.81 3.7 5.92-.55 3.99-2.48-.73-.73-4.45.37-3.99 2.48" class="cls-34"/>
        <path d="M152.99 271.71c-.81-3.7-5.92.55-3.99 2.48.73.73 4.45-.37 3.99-2.48" class="cls-29"/>
        <path d="M165.99 271.71c-.81-3.7-5.92.55-3.99 2.48.73.73 4.45-.37 3.99-2.48" class="cls-107"/>
        <path d="M36 209.19c.73.73 4.45-.37 3.99-2.48-.81-3.7-5.92.55-3.99 2.48" class="cls-74"/>
        <path d="M55 175.68c.81 3.7 5.92-.55 3.99-2.48-.73-.73-4.45.37-3.99 2.48" style="fill:#393838"/>
        <path d="M65.99 193.71c-.81-3.7-5.92.55-3.99 2.48.73.73 4.45-.37 3.99-2.48" class="cls-169"/>
        <path d="M77.48 235.19c2.36-.52 1.48-4.53-.97-3.99-2.36.52-1.48 4.53.97 3.99" class="cls-93"/>
        <path d="M158.99 277.2c-1.14-1.14-5.25 1.39-3.99 2.99 1.84 2.33 5.73-1.25 3.99-2.99" class="cls-77"/>
        <path d="M83.51 276.2c-2.36.52-1.48 4.53.97 3.99 2.36-.52 1.48-4.53-.97-3.99" style="fill:#454445"/>
        <path d="M95.51 186.2c-2.36.52-1.48 4.53.97 3.99 2.36-.52 1.48-4.53-.97-3.99" style="fill:#515253"/>
        <path d="M57.48 164.19c2.36-.52 1.48-4.53-.97-3.99-2.36.52-1.48 4.53.97 3.99" class="cls-224"/>
        <path d="M128.48 285.19c2.36-.52 1.48-4.53-.97-3.99-2.36.52-1.48 4.53.97 3.99" style="fill:#3d3d3e"/>
        <path d="M62 132.19c.91.98 5.83-2.78 2.48-3.99-3.17-1.14-2.62 1.39-2.48 3.99" class="cls-240"/>
        <path d="M109.48 190.19c2.36-.52 1.48-4.53-.97-3.99-2.36.52-1.48 4.53.97 3.99" style="fill:#3e3e3f"/>
        <path d="M70.48 164.19c2.36-.52 1.48-4.53-.97-3.99-2.36.52-1.48 4.53.97 3.99" style="fill:#474849"/>
        <path d="M90.5 282.21c-1.95 0-3.62 5.17.99 3.97 2.77-.72-.33-3.97-.99-3.97" class="cls-100"/>
        <path d="M102.51 50.2c-2.36.52-1.48 4.53.97 3.99 2.36-.52 1.48-4.53-.97-3.99" style="fill:#2b2a2a"/>
        <path d="M141 297.19c-.03-.26-.05-.48-.06-.68-.01.21 0 .43.06.68" class="cls-27"/>
        <path d="M141 297.19a2.4 2.4 0 0 1-.06-.68c-.1-1.55.3-1.68 2.06-1.32-1.9-4.43-6.56.18-2 2" class="cls-27"/>
        <path d="M140.94 296.51c.01.2.03.43.06.68 3.23-1.31 1.62-1.73 2-2-1.34-.01-2.02.43-2.06 1.32" class="cls-27"/>
        <path d="M140.94 296.51c.05-.88.73-1.33 2.06-1.32-1.76-.36-2.16-.23-2.06 1.32" class="cls-27"/>
        <path d="M83.48 177.19c2.36-.52 1.48-4.53-.97-3.99-2.36.52-1.48 4.53.97 3.99" class="cls-4"/>
        <path d="M77.48 248.19c2.36-.52 1.48-4.53-.97-3.99-2.36.52-1.48 4.53.97 3.99" style="fill:#4b4b4c"/>
        <path d="M70.48 177.19c2.36-.52 1.48-4.53-.97-3.99-2.36.52-1.48 4.53.97 3.99" class="cls-4"/>
        <path d="M103.48 297.19c2.36-.52 1.48-4.53-.97-3.99-2.36.52-1.48 4.53.97 3.99" style="fill:#373535"/>
        <path d="M75.01 195.68c.58 1.62 3.49 1.13 3.98.5 1.78-2.24-5.71-5.35-3.98-.5" class="cls-100"/>
        <path d="M90.49 196.18c2.77-.72-.33-3.97-.99-3.97-1.95 0-3.62 5.17.99 3.97" style="fill:#262525"/>
        <path d="M140.01 193.7c-1.72 4.85 5.76 1.74 3.98-.5-.49-.62-3.41-1.12-3.98.5" class="cls-54"/>
        <path d="M91.99 234.19v-2.99H88v1.48c1.06 1.57 2.15 1.74 3.99 1.51" class="cls-42"/>
        <path d="M63.5 179.21c-1.03 0-2.11 3.36-1.49 3.97 2.59 2.59 5.37-3.97 1.49-3.97" style="fill:#0b0a0a"/>
        <path d="M135.99 291.19v-3.99h-1.48c-1.57 1.05-1.74 2.14-1.51 3.98h2.99Z" class="cls-147"/>
        <path d="M109.5 292.17c1.03 0 2.11-3.36 1.49-3.97-2.59-2.59-5.37 3.97-1.49 3.97" style="fill:#242323"/>
        <path d="M62 157.19c1.84.23 2.93.06 3.98-1.51v-1.48h-3.99v2.99Z" style="fill:#191819"/>
        <path d="M128.5 192.21c-1.03 0-2.11 3.36-1.49 3.97 2.59 2.59 5.37-3.97 1.49-3.97" style="fill:#212021"/>
        <path d="M82 151.19c3.93 0 3.98-3.97 0-3.99z" class="cls-8"/>
        <path d="M64.99 141.2c-.75-.75-4.05-.46-2.98 2.48 1.24 3.45 4.3-1.17 2.98-2.48" class="cls-66"/>
        <path d="M71.99 135.2H68c.02 3.98 3.99 3.93 3.99 0" style="fill:#363636"/>
        <path d="M102.5 286.17c1.75-.02 3.43-4.75.01-3.97-2.17.49-1.41 3.99-.01 3.97" style="fill:#2f2e2d"/>
        <path d="M114.51 285.18c2.95 1.06 3.23-2.23 2.48-2.98-1.31-1.32-5.93 1.74-2.48 2.98" style="fill:#131312"/>
        <path d="M64.49 167.2c-2.95-1.06-3.23 2.23-2.48 2.98 1.31 1.32 5.93-1.74 2.48-2.98" class="cls-173"/>
        <path d="M95.01 290.68c1.24 3.45 4.3-1.17 2.98-2.48-.75-.75-4.05-.46-2.98 2.48" class="cls-147"/>
        <path d="M77.49 180.2c-2.95-1.06-3.23 2.23-2.48 2.98 1.31 1.32 5.93-1.74 2.48-2.98" style="fill:#171616"/>
        <path d="M220 183.19c1.59 1.59 4.58-1.4 2.99-2.99s-4.58 1.4-2.99 2.99" style="fill:#535353"/>
        <path d="M235.99 180.2c-1.59-1.59-4.58 1.4-2.99 2.99s4.58-1.4 2.99-2.99" style="fill:#494848"/>
        <path d="M273 183.19c1.59 1.59 4.58-1.4 2.99-2.99s-4.58 1.4-2.99 2.99" class="cls-196"/>
        <path d="M69 254.19c1.59 1.59 4.58-1.4 2.99-2.99s-4.58 1.4-2.99 2.99" class="cls-243"/>
        <path d="M78.98 168.69c.03-2.98-5.88-.28-3.98 1.49.67.62 3.96-.47 3.98-1.49" style="fill:#3a3a3a"/>
        <path d="M103.99 193.2c-1.59-1.59-4.58 1.4-2.99 2.99s4.58-1.4 2.99-2.99" style="fill:#2b2b2a"/>
        <path d="M116.99 193.2c-1.59-1.59-4.58 1.4-2.99 2.99s4.58-1.4 2.99-2.99" class="cls-237"/>
        <path d="M141.99 282.2c-.15-.16-.94.11-1.48 0l-2.51 2.98h4c-.11-.81.21-2.76 0-2.99Z" style="fill:#41413f"/>
        <path d="M233 193.2c-1.91 1.77 4 4.48 3.98 1.49-.01-1.03-3.31-2.11-3.98-1.49" style="fill:#3a3939"/>
        <path d="M157.5 264.21c-1.03.01-2.11 3.31-1.49 3.98 1.77 1.91 4.48-4 1.49-3.98" style="fill:#302f2f"/>
        <path d="M89 273.19c1.59 1.59 4.58-1.4 2.99-2.99s-4.58 1.4-2.99 2.99" class="cls-8"/>
        <path d="M63.5 115.21c-1.03.01-2.11 3.31-1.49 3.98 1.77 1.91 4.48-4 1.49-3.98" class="cls-51"/>
        <path d="M43 225.2c-1.91 1.77 4 4.48 3.98 1.49-.01-1.03-3.31-2.11-3.98-1.49" style="fill:#393736"/>
        <path d="M76 270.2c-1.51 1.71 1.3 4.49 2.99 2.99 1.07-.96-2.05-4.06-2.99-2.99" style="fill:#282526"/>
        <path d="M96.5 280.17c1.7.02 1.77-3.94 0-3.96-1.7-.02-1.77 3.94 0 3.96" style="fill:#393939"/>
        <path d="M77.99 141.2c-.94-1.07-4.06 2.03-2.99 2.99 1.69 1.5 4.5-1.28 2.99-2.99" class="cls-142"/>
        <path d="M32.99 151.19c1.07-.96-2.05-4.06-2.99-2.99-1.51 1.71 1.3 4.49 2.99 2.99" style="fill:#4b4c4c"/>
        <path d="M116.99 57.19c1.07-.96-2.05-4.06-2.99-2.99-1.51 1.71 1.3 4.49 2.99 2.99" style="fill:#333"/>
        <path d="M76.51 154.2c-2.14.48-1.15 3.47.97 2.99 2.14-.48 1.15-3.47-.97-2.99" class="cls-92"/>
        <path d="M259 193.2c-1.51 1.71 1.3 4.49 2.99 2.99 1.07-.96-2.05-4.06-2.99-2.99" style="fill:#808281"/>
        <path d="M247.51 196.18c2.12.81 1.77-2.69 1.48-2.99-1.74-1.74-5.1 1.6-1.48 2.99" class="cls-176"/>
        <path d="M267.51 190.18c2.12.81 1.77-2.69 1.48-2.99-1.74-1.74-5.1 1.6-1.48 2.99" class="cls-235"/>
        <path d="M253 190.19c.94 1.07 4.06-2.03 2.99-2.99-1.69-1.5-4.5 1.28-2.99 2.99" style="fill:#1d1c1d"/>
        <path d="M213 177.19c.94 1.07 4.06-2.03 2.99-2.99-1.69-1.5-4.5 1.28-2.99 2.99" style="fill:#30302f"/>
        <path d="M82 190.19c.94 1.07 4.06-2.03 2.99-2.99-1.69-1.5-4.5 1.28-2.99 2.99" class="cls-8"/>
        <path d="M135.5 186.21c-1.7-.02-1.77 3.94 0 3.96 1.7.02 1.77-3.94 0-3.96" style="fill:#1b1b1c"/>
        <path d="M103.99 180.2c-1.69-1.5-4.5 1.28-2.99 2.99.94 1.07 4.06-2.03 2.99-2.99" style="fill:#575757"/>
        <path d="M163.51 261.18c2.12.81 1.77-2.69 1.48-2.99-1.74-1.74-5.1 1.6-1.48 2.99" class="cls-208"/>
        <path d="M76 260.19c.97 1.05 4.57-1.88 1.48-2.99-2.11-.76-1.82 2.62-1.48 2.99" class="cls-144"/>
        <path d="M64.99 103.2c-.37-.34-3.74-.63-2.99 1.48 1.11 3.09 4.03-.51 2.99-1.48" style="fill:#474748"/>
        <path d="M82.51 125.18c2.11.76 1.82-2.62 1.48-2.99-.97-1.05-4.57 1.88-1.48 2.99" class="cls-222"/>
        <path d="M89.48 128.2c-2.11-.76-1.82 2.62-1.48 2.99.97 1.05 4.57-1.88 1.48-2.99" style="fill:#505051"/>
        <path d="M32.99 135.2c-.37-.34-3.74-.63-2.99 1.48 1.11 3.09 4.03-.51 2.99-1.48" style="fill:#535252"/>
        <path d="M209.99 180.2c-.37-.34-3.74-.63-2.99 1.48 1.11 3.09 4.03-.51 2.99-1.48" style="fill:#424242"/>
        <path d="M247.51 183.18c2.11.76 1.82-2.62 1.48-2.99-.97-1.05-4.57 1.88-1.48 2.99" class="cls-2"/>
        <path d="M147.01 188.68c1.11 3.09 4.03-.51 2.99-1.48-.37-.34-3.74-.63-2.99 1.48" class="cls-169"/>
        <path d="M227.01 188.68c1.11 3.09 4.03-.51 2.99-1.48-.37-.34-3.74-.63-2.99 1.48" class="cls-107"/>
        <path d="M240.01 188.68c1.11 3.09 4.03-.51 2.99-1.48-.37-.34-3.74-.63-2.99 1.48" style="fill:#424244"/>
        <path d="M279.01 188.68c1.11 3.09 4.03-.51 2.99-1.48-.37-.34-3.74-.63-2.99 1.48" style="fill:#393a3a"/>
        <path d="M84.99 264.2c-.37-.34-3.74-.63-2.99 1.48 1.11 3.09 4.03-.51 2.99-1.48" style="fill:#525153"/>
        <path d="M69 109.2h1.99v2.99H69z" class="cls-102"/>
        <path d="M75 129.2h2.99v1.99H75z" style="fill:#8b8a8b"/>
        <path d="M121 187.2h2.99v1.99H121z" style="fill:#464545"/>
        <path d="M260 180.2h1.99v2.99H260z" style="fill:#080707"/>
        <path d="M115 180.2h1.99v2.99H115z" style="fill:#898889"/>
        <path d="M253 174.2h2.99v1.99H253z" style="fill:#403f3f"/>
        <path d="M286 183.19h1.99l-.49-2.99c-1.06.91-1.82 1.52-1.5 2.99" class="cls-129"/>
        <path d="M281.99 163.19v-1.99l-2.99.49c.91 1.06 1.52 1.82 2.99 1.5" style="fill:#2e2e2e"/>
        <path d="M214 187.2v2.99c1.45-.34 2.3-1.61 1.99-2.99z" class="cls-57"/>
        <path d="M122.99 276.2c-1.38-.31-2.66.54-2.99 1.98h2.99z" style="fill:#2f2d2c"/>
        <path d="M96.99 137.19v-1.99l-2.99.49c.91 1.06 1.52 1.82 2.99 1.5" style="fill:#141313"/>
        <path d="M276 195.19c-.69-.89-.92-2.31-2.49-2.01-.88-.03-.51 1.24-.51 2.01.03-1.72 1.93-1.06 3 0" class="cls-20"/>
        <path d="M273 195.19h3q-1.68-1.065-3 0" class="cls-20"/>
        <path d="M276 195.19c-1.07-1.06-2.97-1.72-3 0q1.32-1.065 3 0" class="cls-20"/>
        <path d="M31.5 125.17c1.5 0 1.5-2.96 0-2.96s-1.5 2.96 0 2.96"/>
        <path d="m131.25 222.91-.1.07.04.04c.02-.04.04-.07.06-.11" class="cls-68"/>
        <path d="M131.15 222.98c-.38.23-.76.31-1.15.21.53.21.81.46.94.79.03-.38.11-.69.25-.96-.01-.01-.02-.03-.04-.04m.1-.07s-.04.07-.06.11c.25.28.2.99-.19 2.17.13-.64.8-1.41 1-3-.25.32-.5.54-.75.71Z" class="cls-68"/>
        <path d="M131.19 223.02c-.13.27-.22.58-.25.96.13.31.12.7.06 1.21.39-1.18.44-1.9.19-2.17m-1.19.17c.56-.33.94-.39 1.15-.21l.1-.07c.18-.31.41-.57.75-.71-.27-.28-.48-.53-.65-.77L130 223.2Z" class="cls-68"/>
        <path d="M131.15 222.98c-.21-.17-.59-.11-1.15.21.39.1.77.01 1.15-.21m.1-.07c.25-.17.5-.4.75-.71-.34.15-.57.4-.75.71m.1-1.49c.18.24.38.49.65.77l-.5-.98-.16.21Z" class="cls-68"/>
        <path d="M210.02 219.39c.3-.07.63-.13.98-.19 8.35-2.85 5.94.34 10.01 3.49 6.19 4.78 10.61.93 16.49.52 9.59-.66 21.87-2.59 30.49 0 2.66-.03 5.34.05 8 0 1.25-.77 2.35-1.34 2-3-3-1.62-7.35-4.47-8-8-.7 1.63-2.08 2.07-4.15 1.33-3.56 4.66-9.15 6.54-16.76 5.66l-15.32-.66c-8.07 3.52-12.17.19-16.9-6.23-6.34 4.32-12.54 2.47-18.59-5.54-2.84 1.27-4.6 1.08-5.28-.56.28 1.09-.24 2.82 0 4 7.69-1.99 8.63 10.42 17.02 9.19Z" class="cls-102"/>
        <path d="M198.28 206.76c6.05 8.01 12.25 9.86 18.59 5.54 4.73 6.42 8.84 9.75 16.9 6.23l15.32.66c7.61.88 13.2-1.01 16.76-5.66 2.07.75 3.45.31 4.15-1.33-9.6-2.17-5.13 1.4-6.93 2.49-6.95 4.18-21.61 1.85-29.42 1.85-1.95 0-4.19 1.58-6.19 1.53-5.67-.13-7.36-6.96-10.18-7.73-3.92-1.07-4.69 3.71-8.63 2.89-1.64-1.3-9.62-8.76-10.29-8.88-1.45-.26-3.57 1.98-5.36 1.85.68 1.64 2.44 1.83 5.28.56M326 187.19c.07.47 1.03 1.35 1.06 1.8 1.01-2.15 2.72-4.9 3.94-3.8l-2.99-2c.1 2.2.51 3.54-2.01 3 .87.25.85.58 0 1m10.06 8.52c-2.82.55-9.71-3.02-9.85-4.47-.01-.15.29-1.01.77-2.05l-6.97 2c3.08 1.3-4.66 12.46-5.77 13.06-3.93 2.11-5.71-.01-7.83-3.17-.54 2.93-2.96 4.68-7.26 5.26l-8.39 9.27c-1.56 1.11-6.17 2.14-6.76-.41 1.47 4.39-1.16 5.71 7 5 .63-1.16 2.27-1.39 3-2 .88-9.8 9.04-12.36 18-10.92 3.61-.78 6.32-3.96 8.14-9.55 2.6-4.92 13.5-4.38 14.86.47.5-1.09.27-1.84 1.06-2.48Z" class="cls-102"/>
        <path d="M327.06 188.99c0 .08 0 .14-.06.19h-.03c-.48 1.05-.78 1.91-.77 2.06.14 1.45 7.04 5.02 9.85 4.47.22-.18.52-.35.94-.52-2.65-1.49-6.35-3.36-9-4.01-.65-.62 2.33-5.55 3-5.99-1.22-1.1-2.92 1.65-3.94 3.8Z" class="cls-102"/>
        <path d="M320.14 197.73c-1.82 5.59-4.53 8.78-8.14 9.55-8.96-1.44-17.12 1.12-18 10.92 2.67-2.25 5.72-7.89 6.99-8.51 3.79-1.84 11.25.98 15.31-1.44 2.5-1.49 4.3-9.99 7.72-11.56 2.22-1.02 8.51.59 10.98 1.5-1.35-4.85-12.26-5.39-14.86-.47Z" class="cls-102"/>
        <path d="m290.76 215.6 8.39-9.27c4.3-.58 6.72-2.33 7.26-5.26 2.12 3.16 3.9 5.28 7.83 3.17 1.11-.6 8.85-11.76 5.77-13.06-.18.65-6.4 11.17-6.98 11.53-3.92 2.46-3.86-4.68-7.52-3.52-1.41.44-1.16 3.31-1.71 3.79-.63.55-3.72.24-5.79 1.72-1.86 1.32-6.42 8.01-8.28 9.21-.48.31-4.94 1.26-5.73 1.28.58 2.55 5.2 1.52 6.76.41" class="cls-102"/>
        <path d="M320.08 190.01c-.18.35-.23.75-.08 1.19.08-.28.09-.7.08-1.19m5.92-2.82c.85-.42.87-.75 0-1 .01.33-.05.68 0 1" class="cls-102"/>
        <path d="M226 278.19c1.26 1.44.67 2-1 1 2.63 2.39 3.96 4.73 4 7 1.21-.77 1.44-1.55 2-2l-2.27-.82c0-3.01-.42-3.4-2.73-5.18" class="cls-42"/>
        <path d="M226 278.19c-.18.11-.91.84-1 1 1.67 1 2.26.44 1-1m-1 1c-1.84 3.33 1.93 5.01 4 7-.04-2.27-1.37-4.61-4-7" class="cls-42"/>
        <path d="M229.04 278.14c-.83.07-1.83.09-3.04.06 2.31 1.77 2.73 2.16 2.73 5.18l2.27.82c-1-2.97.09-5.47-1.96-6.06" class="cls-42"/>
        <path d="M229.04 278.14c-.65-.18-1.6-.18-3.04.06 1.2.03 2.21 0 3.04-.06" class="cls-42"/>
        <path d="M231 266.19c-.67-.4 1.84-1.18-3-2l.62 1.24c-2.25 5.09-1.45 5.35 2.38.76" class="cls-147"/>
        <path d="M231 266.19c-3.83 4.59-4.63 4.33-2.38-.76l-.62-1.24c-7.23 6.43 2.95 11.61 3 2" class="cls-147"/>
        <path d="M189.89 255.35c-2.77.04-3.56-2.02-1.89-4.16-1.87.52-1.66 3.51-2 5 3.78 1.03 5.08.75 3.89-.84" class="cls-156"/>
        <path d="M190.95 253.7c-1.03-.78-3.67.33-2.95-2.51-1.67 2.14-.88 4.2 1.89 4.16 1.19 1.59-.11 1.87-3.89.84 3.23 6.11 8.96.55 4.95-2.49" class="cls-156"/>
        <path d="M124.52 334.33c-.17-.04-.33-.08-.52-.13.19.07.36.11.52.13m2.89-.09-2.09-.03c-.21.11-.47.16-.8.12 2.25.58 3.06.55 5.48.87-.92-3.55-1.78-3.87-2.59-.95Z" class="cls-232"/>
        <path d="M127.51 330.2c-1.42.44-.97 3.36-2.19 4.01l2.09.03c.81-2.91 1.67-2.6 2.59.95 1.92-2.76.94-5.41-2.49-4.99" class="cls-232"/>
        <path d="M140.64 335.36c-.16.27-.37.56-.64.83.66.03 1.34-.02 2 0-.64-.09-1.15-.37-1.36-.83" class="cls-88"/>
        <path d="M144.01 332.71c-.82-5.25-7.38-1.88-4.01 3.49.27-.28.48-.56.64-.83-.09-.2-.13-.42-.09-.69.31-2.2 1.04-.92.09.69.21.46.72.74 1.36.83-.68-2.41 2.34-1.41 2.01-3.49" class="cls-88"/>
        <path d="M140.55 334.68c-.04.26 0 .49.09.69.95-1.6.21-2.89-.09-.69" class="cls-88"/>
        <path d="m237.44 205.64 5.55.55c-3.73-1.85-6.17-.62-10-1 1.35 1.83 2.83 1.98 4.45.45" class="cls-142"/>
        <path d="M234.49 209.19c4.21.37 1.79-2.14 2.56-2.89.6-.58 4.59.16 5.94-.11l-5.55-.55c-1.62 1.53-3.1 1.38-4.45-.45.44 1.61-1.42 3.74 1.49 4Z" class="cls-142"/>
        <path d="M309 253.19c-3.15-.04-3.86 1.22-6 2 3.03.43 5.03-.24 6-2" class="cls-144"/>
        <path d="M309 253.19c-.97 1.76-2.97 2.43-6 2 4.2 2.25 8.59 5.54 6-2" class="cls-144"/>
        <path d="M294 197.19c-2.36.62-2.96 1.61-4 2l2.19-.05c-.08 2.29.53 1.64 1.81-1.95" class="cls-190"/>
        <path d="M294.49 202.18c2.84-.9-.42-3.02-.49-4.99-1.28 3.59-1.89 4.24-1.81 1.95l-2.19.05c1.2 2.33 1.08 4.06 4.49 2.99" class="cls-190"/>
        <path d="M246 259.19c5.63.76 6.49 1 11.5.24-.23-.01-.45-.05-.65-.11-3.61.2-7.2.29-10.84-.13Zm13 0c-.55.09-1.04.17-1.5.24.45.03.95-.04 1.5-.24" class="cls-164"/>
        <path d="M256.84 259.32c-1.44-.4-2.36-1.71-3.35-2.13-.81-.34-.11 1.74-1.14 2.01-1.76.46-4.4-.29-6.35-.01 3.64.42 7.23.33 10.84.13" class="cls-164"/>
        <path d="M263 205.19c-2.3.31-3.76.56-6 1 2.3.61 4.3.28 6-1" class="cls-151"/>
        <path d="M263 205.19c-1.7 1.28-3.7 1.61-6 1 3.38.72 4.98 6.89 6-1" class="cls-151"/>
        <path d="M284 272.19c1.31.39 2.71.57 4 1-2.04-2.26-3.38-2.6-4-1" class="cls-100"/>
        <path d="M284 272.19c.62-1.6 1.96-1.26 4 1-.39-5.61-6.14-7.14-4-1" class="cls-100"/>
        <path d="M235 247.19c-.34-.07-1.11-.79-2-1 .86 1.89 1.53 2.22 2 1" class="cls-139"/>
        <path d="M235 247.19c-.47 1.22-1.14.89-2-1-.93 4.95 2.46 6.22 2 1" class="cls-139"/>
        <path d="M240 258.19c.64.08 1.4-.12 2 0-.66-.7-1.32-.7-2 0" class="cls-152"/>
        <path d="M240.01 254.19v4c.67-.7 1.33-.7 1.99 0 .09-1.62-.14-3.62-1.99-4" class="cls-152"/>
        <path d="M202.01 221.21v.98c1.63.35 3.66-1.03 4.99-.99-1.44-.05-2.44-.38-3-1z" class="cls-102"/>
        <path d="M204 220.19c.56.62 1.56.95 3 1-.63-1.39-2.06-.75-3-1" class="cls-102"/>
        <path d="M189 201.19h-1c.66.59 2.33 2.28 3 3v-1z" style="fill:#737473"/>
        <path d="m133 312.19 3-1c-.87-.28-.86-.62 0-1-.99.31-2.6.6-4 1 1.11-.06 1.53-.07 1 1" class="cls-1"/>
        <path d="M133 312.19c.53-1.07.11-1.06-1-1 .35.27.84.6 1 1m3-1v-1c-.86.38-.87.72 0 1" class="cls-1"/>
        <path d="M101.61 317.29c-3.88 1.2-.49 7.18 3.43 4.44 2.61-1.83.29-5.58-3.43-4.44" class="cls-143"/>
        <path d="M91.67 307.15c-.7.25-1.49.26-2.27.1.18.33.33.73.47 1.19z" class="cls-66"/>
        <path d="M89.88 308.44c-.14-.46-.29-.86-.47-1.19-.88-.18-1.73-.56-2.4-1.06.4 1.05.98 3.89 1.53 4.04 2.91.8 5.03-1.02 4.47-4.04-.36.47-.82.77-1.33.96z" class="cls-66"/>
        <path d="M87 306.19c1.34-.12 1.98.29 2.4 1.06.78.16 1.57.15 2.27-.1l1.33-.96c-1.91-1.31-4.11-1.3-6 0" class="cls-66"/>
        <path d="M87 306.19c.67.5 1.53.88 2.4 1.06-.43-.77-1.06-1.17-2.4-1.06m6 0-1.33.96c.51-.18.96-.49 1.33-.96" class="cls-66"/>
        <path d="M184.01 368.2c-.7 2.18.71 7.56 3.48 6.99 3.33-.69-.91-7.49-3.48-6.99" class="cls-77"/>
        <path d="M94 311.2c-.84 6.94 5.89 6.81 5.01 0z" style="fill:#1a1918"/>
        <path d="M107.03 328.16c1.86 2.47 6.55-1.81 4.96-3.96-2.05-2.77-7.17 1.03-4.96 3.96" class="cls-230"/>
        <path d="M114.51 317.2c-2.01.56-2.01 4.42 0 4.98 4.6 1.29 4.6-6.27 0-4.98" style="fill:#0c0d0c"/>
        <path d="M135.48 323.2c-2.46-.62-3.09 4.41-2.48 4.99 2.66 2.54 7.8-3.66 2.48-4.99" style="fill:#19191a"/>
        <path d="M120 328.19c2.56 1 6.63-1.46 4.99-3.99-1.1-1.71-7.25-.17-4.99 3.99" style="fill:#121211"/>
        <path d="M129.49 317.2c-3.78-1.49-3.19 4.51-2.48 4.99 2.66 1.79 6.15-3.54 2.48-4.99" style="fill:#191717"/>
        <path d="M146 326.68c.74 3.53 7.12.35 4.99-2.48-1.13-1.5-5.5.04-4.99 2.48" class="cls-97"/>
        <path d="M140 317.2c-.52.5.11 4.97 1.49 4.97 2.32 0 3.53-3.92 2.5-4.97-.14-.14-3.85-.14-3.99 0" style="fill:#1a1b1b"/>
        <path d="M133 312.19c2.52 6.37 7.42 1.22 3-1 .91 2.72-1.43 3.05-3 1" class="cls-31"/>
        <path d="m136 311.19-3 1c2.5.98 3.5.65 3-1" class="cls-31"/>
        <path d="M133 312.19c1.57 2.05 3.91 1.72 3-1 .5 1.65-.5 1.98-3 1" class="cls-31"/>
        <path d="M168 294.19c.73.73 4.45-.37 3.99-2.48-.81-3.7-5.92.55-3.99 2.48" class="cls-85"/>
        <path d="M195.51 290.2c-2.36.52-1.48 4.53.97 3.99 2.36-.52 1.48-4.53-.97-3.99" style="fill:#333334"/>
        <path d="M169.51 303.2c-2.36.52-1.48 4.53.97 3.99 2.36-.52 1.48-4.53-.97-3.99" style="fill:#4f4e4f"/>
        <path d="M183.99 294.19v-3.99h-1.48c-1.57 1.05-1.74 2.14-1.51 3.98h2.99Z" class="cls-240"/>
        <path d="M162.51 300.18c2.95 1.06 3.23-2.23 2.48-2.98-1.31-1.32-5.93 1.74-2.48 2.98" style="fill:#292727"/>
        <path d="M175.51 300.18c2.95 1.06 3.23-2.23 2.48-2.98-1.31-1.32-5.93 1.74-2.48 2.98" style="fill:#232223"/>
        <path d="M149.49 311.2c-2.95-1.06-3.23 2.23-2.48 2.98 1.31 1.32 5.93-1.74 2.48-2.98" class="cls-69"/>
        <path d="M162 313.19c1.59 1.59 4.58-1.4 2.99-2.99s-4.58 1.4-2.99 2.99" style="fill:#4a4949"/>
        <path d="M154.02 318.69c-.03 2.98 5.88.28 3.98-1.49-.67-.62-3.96.47-3.98 1.49" style="fill:#676665"/>
        <path d="M157.99 304.2c-1.69-1.5-4.5 1.28-2.99 2.99.94 1.07 4.06-2.03 2.99-2.99" style="fill:#3b3837"/>
        <path d="M175 313.19c.94 1.07 4.06-2.03 2.99-2.99-1.69-1.5-4.5 1.28-2.99 2.99" style="fill:#5d5e5d"/>
        <path d="M189.48 297.2c-2.11-.76-1.82 2.62-1.48 2.99.97 1.05 4.57-1.88 1.48-2.99" style="fill:#323333"/>
        <path d="M203.01 381.71c-.76 2.11 2.62 1.82 2.99 1.48 1.05-.97-1.88-4.57-2.99-1.48" class="cls-92"/>
        <path d="M181 304.2h2.99v1.99H181z" style="fill:#363635"/>
        <path d="M222.99 393.19c1.51-1.51-2.97-4.26-2.97-1.49 0 .66 2.4 2.07 2.97 1.49" style="fill:#4a4a4a"/>
        <path d="M246 254.19c1.59 1.59 4.58-1.4 2.99-2.99s-4.58 1.4-2.99 2.99" style="fill:#292928"/>
        <path d="M337 195.19c.09.37.16.69.22.97.01-.3-.06-.63-.22-.97" class="cls-185"/>
        <path d="M337.22 196.17c.29 1.5 0 2-2.22 2.03.71.26 6.59 4.51 6.99 4 .27-4.39-1.85-5.23-4.99-7 .16.35.23.67.22.97" class="cls-185"/>
        <path d="M335 198.19c1.45-.48 2.18-1.16 2.22-2.03-.05-.29-.13-.61-.22-.97-.2.28-.53.44-.94.52-.79.64-.56 1.39-1.06 2.48" class="cls-185"/>
        <path d="M337.22 196.17c-.03.87-.77 1.54-2.22 2.03 2.21-.02 2.5-.52 2.22-2.03m-.22-.98c-.42.17-.72.34-.94.52.41-.08.74-.24.94-.52" class="cls-185"/>
        <path d="M275.26 212.56c-.47.09-.95.21-1.45.35l.13.05c.44-.16.88-.29 1.32-.4" class="cls-158"/>
        <path d="m272 212.19 1.81.71c.5-.14.98-.26 1.45-.35 3.29-.82 6.38-.16 8.74 2.64-2.59-7.72-6.26-3.14-12-3" class="cls-158"/>
        <path d="M275.26 212.56c-.44.11-.87.24-1.32.4l-.13-.05c-.3.08-.6.17-.92.27l-.89-.99c.17.32-.04 1.21-.05 1.69.17.13.34.26.51.4 1.03-.01 3.12-1.01 4.09-.97 2.2.09 3.82 1.96 7.45 1.88-2.9-2.62-5.42-3.28-8.74-2.64Z" class="cls-158"/>
        <path d="M275.26 212.56c3.33-.65 5.85.01 8.74 2.64-2.37-2.79-5.45-3.45-8.74-2.64m-1.45.35-1.81-.71.89.99c.31-.1.62-.19.92-.27Zm-1.81 1.28c.1.08.27.1.46.1-.17-.13-.35-.26-.51-.4 0 .15 0 .26.06.3Z" class="cls-158"/>
        <path d="M325.31 188.23c.16-.27.38-.61.69-1.03l-6-1c-.27.27.04 2.33.08 3.81.79-1.57 4.23-2.21 5.23-1.78" class="cls-16"/>
        <path d="M327.06 188.99c-.04-.45-.99-1.33-1.06-1.8l-.47 1.19c.38.52-1.12 1.51-.31.02-2.1-.07-3.84.86-5.21 2.79l6.97-2c.03-.06.06-.13.09-.2Z" class="cls-16"/>
        <path d="M325.21 188.41c-.8 1.49.69.49.31-.02v.03h-.31Zm1.79.77c.06-.05.07-.11.06-.19-.03.07-.06.13-.09.2h.03Z" class="cls-16"/>
        <path d="M325.31 188.23c-.04.07-.06.12-.1.18h.3v-.03s-.04-.07-.08-.1c-.03-.02-.08-.04-.12-.06Z" class="cls-16"/>
        <path d="M325.43 188.29s.07.06.09.1l.47-1.19c-.31.42-.53.76-.69 1.03.04.02.09.03.12.06Z" class="cls-16"/>
        <path d="M325.21 188.41c.03-.06.06-.11.1-.18-.99-.44-4.43.21-5.23 1.78.01.49 0 .91-.08 1.19 1.37-1.93 3.12-2.86 5.21-2.79" class="cls-16"/>
        <path d="M213 209.19c0-5.9-5.76-7.14-5 0z" style="fill:#2d2d2e"/>
        <path d="M225 209.19v-3.99c-3.28-.37-5.6.21-5 3.99z" style="fill:#333433"/>
        <path d="M315.98 194.69c-1.15-1.31-2.44-2.94-4.46-2.5-3.81.84 1.1 8 4.46 2.5" class="cls-135"/>
        <path d="M229.48 216.19c3.53-.74.35-7.12-2.48-4.99-1.5 1.13.04 5.5 2.48 4.99" class="cls-169"/>
        <path d="M191.16 200.41c.52.42.6 1.51-.16 2.78 1.17-1.97 1.21-2.88.16-2.78" class="cls-77"/>
        <path d="M191.16 200.41c1.05-.1 1.01.81-.16 2.78 7.52-1.88-.77-8.63-2-2 .89-1.02 1.7-1.16 2.16-.78" class="cls-77"/>
        <path d="M191.16 200.41c-.49.05-1.19.29-2.16.78l2 2c.76-1.28.68-2.36.16-2.78" class="cls-77"/>
        <path d="M189 201.19c.97-.5 1.67-.74 2.16-.78-.46-.38-1.27-.23-2.16.78" class="cls-77"/>
        <path d="M288.99 209.19c2.29-2.28-4.12-6.31-4.99-2.48-.55 2.45 4.34 3.13 4.99 2.48" class="cls-232"/>
        <path d="M241.5 216.17c1.35-.03 2.05-4.42 1.49-4.97-2.56-2.55-6.71 5.09-1.49 4.97" style="fill:#141413"/>
        <path d="M255.99 211.2c-1.62-1.62-5.61 2.39-3.99 3.99 2.11 2.08 6.06-1.91 3.99-3.99" style="fill:#353534"/>
        <path d="M184 196.19c3.45.06 4.55.9 4-3-1.07 1.49-2.4 2.49-4 3" class="cls-153"/>
        <path d="M184 196.19c.81-1.34 2.14-2.34 4-3-4.41-1.78-3.25.14-4 3" class="cls-153"/>
        <path d="M184 196.19c1.6-.51 2.93-1.51 4-3-1.86.66-3.19 1.66-4 3" class="cls-153"/>
        <path d="M275.99 209.19c1.93-1.93-3.18-6.18-3.99-2.48-.46 2.11 3.26 3.21 3.99 2.48" class="cls-16"/>
        <path d="M222 277.19c2.51-5.17-4.42-4.77-2 0 .39-2.62 1.16-2.5 2 0" class="cls-222"/>
        <path d="M222 277.19c7.99-4.39-3.58-8.57-4.69-2.52-.45 2.46 1.55 2.12 2.69 2.52-2.42-4.77 4.51-5.17 2 0" class="cls-222"/>
        <path d="M222 277.19c-.84-2.5-1.61-2.62-2 0 .51.18 1.44-.17 2 0" class="cls-222"/>
        <path d="m235 273.41.57-.34c-1.46.7-3.18.99-4.56.13 2.68 2.42 4.01 2.49 4 .22Z" class="cls-118"/>
        <path d="m235.56 273.07 1.44-.87c-1.79-1.63-4.68-.7-6 1 1.39.86 3.1.58 4.56-.13" class="cls-118"/>
        <path d="M237 277.2v-5c-.42.32-.91.62-1.43.87l-.57.34c.01 2.27-1.32 2.2-4-.22-.97 3.99 2.74 3.94 6 4Z" class="cls-118"/>
        <path d="m237 272.19-1.44.87a9 9 0 0 0 1.44-.87" class="cls-118"/>
        <path d="M206.09 277.11c1.93 1.39 7.8-1.67 4.66-4.66-3.89-3.7-7.28 2.77-4.66 4.66" class="cls-15"/>
        <path d="M212 266.2c-2.84 2.81 4.67 7.95 5.99 3.48 1.14-3.86-5.27-4.19-5.99-3.48" style="fill:#111"/>
        <path d="M194.61 260.29c-3.88 1.2-.49 7.18 3.43 4.44 2.61-1.83.29-5.58-3.43-4.44" style="fill:#1d1d1c"/>
        <path d="M204.06 266.63c-4.53-3.14-5.56 3.56-3.96 4.47.5.28 4.73.26 4.9.09.33-.32.15-3.8-.94-4.56" class="cls-185"/>
        <path d="m192 271.19-1.53-4.99c-6.62.82-4.76 6.58 1.53 4.99" style="fill:#151413"/>
        <path d="M211 260.2h-5.01c-.84 6.94 5.89 6.81 5.01 0" class="cls-55"/>
        <path d="M295 265.19c-.28-.24-4.69-2.25-5-1.99.98 1.6 1.12 4.01 2.1 5.43 1.06 1.54 2.62 1.29 2.9 1.56-.6-1.84-.6-3.51 0-5" class="cls-109"/>
        <path d="M295 265.19c-.6 1.49-.6 3.16 0 5 2.98-.88 1.87-3.39 0-5" class="cls-109"/>
        <path d="M299 264.19c6.64 1.5 5.01-5.95-1-3 2.91-.48 3.66 1.36 1 3" class="cls-143"/>
        <path d="M299 264.19c2.66-1.64 1.91-3.48-1-3 .48.84 1.1 2.06 1 3" class="cls-143"/>
        <path d="M313.51 260.2c-2.61.7-1.42 4.9 1.98 3.98 2.61-.7 1.42-4.9-1.98-3.98" class="cls-208"/>
        <path d="M306.51 270.18c3.45 1.28 2.91-3.55 2.48-3.98-1.64-1.65-6.34 2.55-2.48 3.98" style="fill:#060404"/>
        <path d="M299 275.19c2.6 2.35 5.35-.47 3-3q-.54 2.1-3 3" class="cls-166"/>
        <path d="M299 275.19q2.46-.9 3-3c-3.24-.29-3.29-.24-3 3" class="cls-166"/>
        <path d="M276 223.19c1.77-.35 2.7-1.2 2-3 .35 1.66-.75 2.23-2 3" class="cls-161"/>
        <path d="M276 223.19c.92-.02 3.86.15 4 0 2.26-2.45-1.79-2.88-2-3 2.8 1.58.61 2.67-2 3" class="cls-161"/>
        <path d="M276 223.19c2.61-.33 4.8-1.42 2-3 .7 1.8-.23 2.65-2 3" class="cls-161"/>
        <path d="M174 189.19c.73.73 4.45-.37 3.99-2.48-.81-3.7-5.92.55-3.99 2.48" class="cls-237"/>
    </g>
</svg>
