<?xml version="1.0" encoding="UTF-8"?>
<svg id="Layer_2" data-name="Layer 2" xmlns="http://www.w3.org/2000/svg" viewBox="0 0 369.25 457.76">
  <defs>
    <style>
      .cls-1 {
        fill: #2b2c2b;
      }

      .cls-2 {
        fill: #434241;
      }

      .cls-3 {
        fill: #3c3c3b;
      }

      .cls-4 {
        fill: #3f3f3f;
      }

      .cls-5 {
        fill: #4a4748;
      }

      .cls-6 {
        fill: #070707;
      }

      .cls-7 {
        fill: #828383;
      }

      .cls-8 {
        fill: #323232;
      }

      .cls-9 {
        fill: #403f40;
      }

      .cls-10 {
        fill: #111;
      }

      .cls-11 {
        fill: #2c2c2d;
      }

      .cls-12 {
        fill: #2b2b2b;
      }

      .cls-13 {
        fill: #424142;
      }

      .cls-14 {
        fill: #444445;
      }

      .cls-15 {
        fill: #1c1b1b;
      }

      .cls-16 {
        fill: #2b2b2c;
      }

      .cls-17 {
        fill: #050505;
      }

      .cls-18 {
        fill: #525253;
      }

      .cls-19 {
        fill: #292928;
      }

      .cls-20 {
        fill: #010101;
      }

      .cls-21 {
        fill: #110f0f;
      }

      .cls-22 {
        fill: #151515;
      }

      .cls-23 {
        fill: #737574;
      }

      .cls-24 {
        fill: #2f2f2f;
      }

      .cls-25 {
        fill: #292929;
      }

      .cls-26 {
        fill: #383737;
      }

      .cls-27 {
        fill: #3f3d3e;
      }

      .cls-28 {
        fill: #474747;
      }

      .cls-29 {
        fill: #363636;
      }

      .cls-30 {
        fill: #292727;
      }

      .cls-31 {
        fill: #232221;
      }

      .cls-32 {
        fill: #353435;
      }

      .cls-33 {
        fill: #302f2d;
      }

      .cls-34 {
        fill: #383839;
      }

      .cls-35 {
        fill: #474543;
      }

      .cls-36 {
        fill: #373637;
      }

      .cls-37 {
        fill: #232222;
      }

      .cls-38 {
        fill: #282728;
      }

      .cls-39 {
        fill: #434242;
      }

      .cls-40 {
        fill: #4d4c4d;
      }

      .cls-41 {
        fill: #424141;
      }

      .cls-42 {
        fill: #1c1c1c;
      }

      .cls-43 {
        fill: #030303;
      }

      .cls-44 {
        fill: #0b0b0a;
      }

      .cls-45 {
        fill: #393a39;
      }

      .cls-46 {
        fill: #454545;
      }

      .cls-47 {
        fill: #363736;
      }

      .cls-48 {
        fill: #232223;
      }

      .cls-49 {
        fill: #2d2c2d;
      }

      .cls-50 {
        fill: #2f3030;
      }

      .cls-51 {
        fill: #868686;
      }

      .cls-52 {
        fill: #050404;
      }

      .cls-53 {
        fill: #2c2c2c;
      }

      .cls-54 {
        fill: #171717;
      }

      .cls-55 {
        fill: #171616;
      }

      .cls-56 {
        fill: #191817;
      }

      .cls-57 {
        fill: #2c2a2a;
      }

      .cls-58 {
        fill: #5d5a5d;
      }

      .cls-59 {
        fill: #141313;
      }

      .cls-60 {
        fill: #090808;
      }

      .cls-61 {
        fill: #383637;
      }

      .cls-62 {
        fill: #3b3b3b;
      }

      .cls-63 {
        fill: #1e1e1e;
      }

      .cls-64 {
        fill: #313232;
      }

      .cls-65 {
        fill: #1d1d1d;
      }

      .cls-66 {
        fill: #2c2b2c;
      }

      .cls-67 {
        fill: #161414;
      }

      .cls-68 {
        fill: #212222;
      }

      .cls-69 {
        fill: #212121;
      }

      .cls-70 {
        fill: #3f3e3e;
      }

      .cls-71 {
        fill: #4d4d4d;
      }

      .cls-72 {
        fill: #373738;
      }

      .cls-73 {
        fill: #4d4d4c;
      }

      .cls-74 {
        fill: #313030;
      }

      .cls-75 {
        fill: #2a2a27;
      }

      .cls-76 {
        fill: #3a3a3a;
      }

      .cls-77 {
        fill: #606060;
      }

      .cls-78 {
        fill: #323233;
      }

      .cls-79 {
        fill: #323231;
      }

      .cls-80 {
        fill: #2e2c2a;
      }

      .cls-81 {
        fill: #373737;
      }

      .cls-82 {
        fill: #2d2c2c;
      }

      .cls-83 {
        fill: #272727;
      }

      .cls-84 {
        fill: #020101;
      }

      .cls-85 {
        fill: #181615;
      }

      .cls-86 {
        fill: #4f4e4f;
      }

      .cls-87 {
        fill: #303030;
      }

      .cls-88 {
        fill: #434444;
      }

      .cls-89 {
        fill: #343232;
      }

      .cls-90 {
        fill: #232426;
      }

      .cls-91 {
        fill: #242324;
      }

      .cls-92 {
        fill: #2a2a29;
      }

      .cls-93 {
        fill: #2f2f2e;
      }

      .cls-94 {
        fill: #4e4e4e;
      }

      .cls-95 {
        fill: #141414;
      }

      .cls-96 {
        fill: #212120;
      }

      .cls-97 {
        fill: #282727;
      }

      .cls-98 {
        fill: #1e1e1f;
      }

      .cls-99 {
        fill: #3b3939;
      }

      .cls-100 {
        fill: #353636;
      }

      .cls-101 {
        fill: #181717;
      }

      .cls-102 {
        fill: #575555;
      }

      .cls-103 {
        fill: #323130;
      }

      .cls-104 {
        fill: #292827;
      }

      .cls-105 {
        fill: #0d0a0b;
      }

      .cls-106 {
        fill: #1d1d1e;
      }

      .cls-107 {
        fill: #232224;
      }

      .cls-108 {
        fill: #141413;
      }

      .cls-109 {
        fill: #191918;
      }

      .cls-110 {
        fill: #121212;
      }

      .cls-111 {
        fill: #262626;
      }

      .cls-112 {
        fill: #404041;
      }

      .cls-113 {
        fill: #353333;
      }

      .cls-114 {
        fill: #373838;
      }

      .cls-115 {
        fill: #121211;
      }

      .cls-116 {
        fill: #414242;
      }

      .cls-117 {
        fill: #343434;
      }

      .cls-118 {
        fill: #353232;
      }

      .cls-119 {
        fill: #252626;
      }

      .cls-120 {
        fill: #1a1919;
      }

      .cls-121 {
        fill: #242424;
      }

      .cls-122 {
        fill: #292728;
      }

      .cls-123 {
        fill: #2e2d2e;
      }

      .cls-124 {
        fill: #040404;
      }

      .cls-125 {
        fill: #393838;
      }

      .cls-126 {
        fill: #2a2929;
      }

      .cls-127 {
        fill: #403f41;
      }

      .cls-128 {
        fill: #2f2e2e;
      }

      .cls-129 {
        fill: #474847;
      }

      .cls-130 {
        fill: #565656;
      }

      .cls-131 {
        fill: #343433;
      }

      .cls-132 {
        fill: #31302f;
      }

      .cls-133 {
        fill: #272626;
      }

      .cls-134 {
        fill: #535150;
      }

      .cls-135 {
        fill: #3b3b3c;
      }

      .cls-136 {
        fill: #101010;
      }

      .cls-137 {
        fill: #2e2e2e;
      }

      .cls-138 {
        fill: #353332;
      }

      .cls-139 {
        fill: #292828;
      }

      .cls-140 {
        fill: #504f4f;
      }

      .cls-141 {
        fill: #1f1e1e;
      }

      .cls-142 {
        fill: #2e2f2e;
      }

      .cls-143 {
        fill: #353537;
      }

      .cls-144 {
        fill: #3a393a;
      }

      .cls-145 {
        fill: #535152;
      }

      .cls-146 {
        fill: #1d1c1c;
      }

      .cls-147 {
        fill: #28282a;
      }

      .cls-148 {
        fill: #292829;
      }

      .cls-149 {
        fill: #383837;
      }

      .cls-150 {
        fill: #282829;
      }

      .cls-151 {
        fill: #181716;
      }

      .cls-152 {
        fill: #282828;
      }

      .cls-153 {
        fill: #161615;
      }

      .cls-154 {
        fill: #4a4a4a;
      }

      .cls-155 {
        fill: #232322;
      }

      .cls-156 {
        fill: #121110;
      }

      .cls-157 {
        fill: #0c0c0c;
      }

      .cls-158 {
        fill: #211f1f;
      }

      .cls-159 {
        fill: #1d1e1e;
      }

      .cls-160 {
        fill: #1f1f1f;
      }

      .cls-161 {
        fill: #363433;
      }

      .cls-162 {
        fill: #1f1e1f;
      }

      .cls-163 {
        fill: #626161;
      }

      .cls-164 {
        fill: #151514;
      }

      .cls-165 {
        fill: #020201;
      }

      .cls-166 {
        fill: #1c1c1b;
      }

      .cls-167 {
        fill: #2a2b2b;
      }

      .cls-168 {
        fill: #383838;
      }

      .cls-169 {
        fill: #2a2a2a;
      }

      .cls-170 {
        fill: #666566;
      }

      .cls-171 {
        fill: #4d4b4b;
      }

      .cls-172 {
        fill: #171716;
      }

      .cls-173 {
        fill: #474647;
      }

      .cls-174 {
        fill: #20201f;
      }

      .cls-175 {
        fill: #181718;
      }

      .cls-176 {
        fill: #3b3a3a;
      }

      .cls-177 {
        fill: #242221;
      }

      .cls-178 {
        fill: #0b0a0a;
      }

      .cls-179 {
        fill: #201f20;
      }

      .cls-180 {
        fill: #242423;
      }

      .cls-181 {
        fill: #131313;
      }

      .cls-182 {
        fill: #202021;
      }

      .cls-183 {
        fill: #2d2d2e;
      }

      .cls-184 {
        fill: #312f2f;
      }

      .cls-185 {
        fill: #202020;
      }

      .cls-186 {
        fill: #474748;
      }

      .cls-187 {
        fill: #0a0a0a;
      }

      .cls-188 {
        fill: #252525;
      }

      .cls-189 {
        fill: #424443;
      }

      .cls-190 {
        fill: #272728;
      }

      .cls-191 {
        fill: #201f1f;
      }

      .cls-192 {
        fill: #494949;
      }

      .cls-193 {
        fill: #464648;
      }

      .cls-194 {
        fill: #373636;
      }

      .cls-195 {
        fill: #2b2a29;
      }

      .cls-196 {
        fill: #848380;
      }

      .cls-197 {
        fill: #424342;
      }

      .cls-198 {
        fill: #0e0d0d;
      }

      .cls-199 {
        fill: #191919;
      }

      .cls-200 {
        fill: #212220;
      }

      .cls-201 {
        fill: #3d3d3e;
      }

      .cls-202 {
        fill: #535252;
      }

      .cls-203 {
        fill: #353535;
      }

      .cls-204 {
        fill: #787878;
      }

      .cls-205 {
        fill: #2f2e2f;
      }

      .cls-206 {
        fill: #2b2a2a;
      }

      .cls-207 {
        fill: #333;
      }

      .cls-208 {
        fill: #262625;
      }

      .cls-209 {
        fill: #211f1d;
      }

      .cls-210 {
        fill: #4b4b4b;
      }

      .cls-211 {
        fill: #535353;
      }

      .cls-212 {
        fill: #252524;
      }

      .cls-213 {
        fill: #212021;
      }

      .cls-214 {
        fill: #242323;
      }

      .cls-215 {
        fill: #161515;
      }

      .cls-216 {
        fill: #1c1b1a;
      }

      .cls-217 {
        fill: #090909;
      }

      .cls-218 {
        fill: #060505;
      }

      .cls-219 {
        fill: #626263;
      }

      .cls-220 {
        fill: #1e1d1d;
      }

      .cls-221 {
        fill: #1a1a1a;
      }

      .cls-222 {
        fill: #302f2f;
      }

      .cls-223 {
        fill: #4c4b4a;
      }

      .cls-224 {
        fill: #161616;
      }

      .cls-225 {
        fill: #181818;
      }

      .cls-226 {
        fill: #5b595a;
      }

      .cls-227 {
        fill: #262627;
      }

      .cls-228 {
        fill: #4c4c4c;
      }

      .cls-229 {
        fill: #3a3a38;
      }

      .cls-230 {
        fill: #1b1b1b;
      }

      .cls-231 {
        fill: #1b1a1a;
      }

      .cls-232 {
        fill: #3e3d3e;
      }

      .cls-233 {
        fill: #313130;
      }

      .cls-234 {
        fill: #434244;
      }

      .cls-235 {
        fill: #333334;
      }

      .cls-236 {
        fill: #201f1d;
      }

      .cls-237 {
        fill: #444443;
      }

      .cls-238 {
        fill: #49494a;
      }

      .cls-239 {
        fill: #191b1b;
      }
    </style>
  </defs>
  <g id="Layer_1-2" data-name="Layer 1">
    <path class="cls-20" d="M313.74,113.29c-20.38-25.37-63.89-54.72-96.97-56.53-3.73-.2-7.41-.16-11,1.01,1.37,3.51,4.77,3.18,7.99,3l-5,1.99c.33.01.67-.02,1,0,3.18.18,4.31.49,7,1,.8-.36,1.6-.69,2.44-.87,7.81-1.75,35.8,10.99,44.07,15.45,4.75,2.56,34.26,20.7,33.89,25.51-.14,1.74-.26,2.07-2.4,1.91.52,1.54,1.03,3.22,2.99,3.02v.97s-1.99,1.01-1.99,1.01c.36.06,5.92,2.42,6.69,2.82,6.93,3.59,12.34,11.47,15.23,18.58-.38,1.06-1.35,1.33-2.21,1.81-4.89,2.77-22.76,9.04-28.71,10.79,1.09,1.38,3.38.33,3,1.99-3.35-.54-4.46,1.23-1,1.01,3.26-.42,7.29,5.35,14.29,3.79,7.25-1.61,7.46-9.68,11.14-11.86,6.21-3.68,8.13,1.03,8.59,6.57.61,7.41-3.32,17.81-10.02,21.49.63,1.59,1.25,3.25,2.77,3.8.42.04.83.1,1.23.2-.23-1.72.66-3.02,2.68-3.9,5.63-9.74,9.76-11.1,12.36-4.07,7.72,26.94,5.82,56.53-5.26,82.29-3.46,8.05-8.07,18.16-15.11,23.23-.71,3.97-1.8,6.37-6.09,7.41-.38,3.11-2.56,4.94-6.52,5.49.51,4.28-2.51,5.26-6.16,5.34-.72,1.86-1.49,3.35-3.16,4.59-4.95,3.67-12.08,7.28-16.17,2.48.95,5.71-.74,6.98-6.39,5.61-4.54,3.35-9.22,6.24-13.08.36-5.33,5.65-7.15-.43-6.31-5.88-2.38-1.12-4.18-2.98-5.39-5.61,8.58,18.04,6.87,37.3-.68,55.54l-18.6,40.5c-6.99,15.99-4.94,22.43,12.85,27.61,7.75,5.64-1.08,15.76-8.56,10.02.6,8.04-5.92,8.35-11.63,4.84-3.23,11.37-26.22-.36-32.79-4.57-8.25-5.28-13.27-9.94-9.12-20.67,9.59-16.46,5.76-32.16-1.22-49.21-3.59-13.82-7.29-30.76,12.88-27.67,3.19-.17,11-3.5,5.31-2.01l-1.86-1.71c-1.27.05-4.7.04-6,0-.19.89-.52.86-1,0-1.19-.07-2.27-.91-3-1-1.28-.15-2.76.19-4,0-2.49-.39-2.05-1.68-2.33-1.87-.02,0-.05-.01-.07-.02,0,0-.02,0-.03,0-3.6.2-2.77,1.33-7.57-.11-3.63-1.09-3.13-1.83-5-3-.22-.14-1.29.19-3-1-1.48-1.03-5.71-4.67-7-6-1.59-1.65-4.45-4.88-5-7-.07-.27.02-.66,0-1-2.77.62-2.32-2.02-3-4-.38-1.1-.66-1.49-1-3-.07-.32.07-.68,0-1-4.04-2.57-3.62-10.44-3.36-15.15.44-7.85,3.63-21.23,11.36-23.85-.01-1.46-.57-2.57-2-3,.75,1.67-.23,3.48-2.96,5.45-1,3.36-2.81,5.62-5.41,6.8-1.18,5.17-2.05,10.35-2.59,15.55l-2.04,1.21c-.11,1.97-.04,4.03,0,6,2.87,1.04,2.76,4.9,0,6,.06.2.1.38.13.57.23.87.69,2.48.87,3.43,1.63,9.16,8.05,18.14,15.52,23.98,5.6,4.38,13.11,5.01,13.53,13.56.12,2.48-1.1,4.75-.85,6.74.28,2.26,4.15,7.06,2.61,9.54-.47.76-5.43,1.58-1.81,5.18,5.87-1.15,3.69,2.4,5,6,.75,2.07,2.19,3.95,3,6,.22.56.69,1.2,1,2,.68,1.72,1.71,2.52,2,5,.35,3.02.33,8.95,0,12-.2,1.85-.76,2.13-1,3-1.05,3.77-2.85,5.32-4,8-1.19,2.78-1.81,4.99-2,8-.21,3.3.14,6.69,0,10,1.11,4.28,4.62,8.63-3.51,9.11-2.93.17-4.93-2.22-5.87-2.05-2.36.43-1.23,6.55-9.37,3.18-8.07-3.34-8.41-14.41-11.05-20.94-5.23-12.96-17.66-19.77-2.2-34.3l-2-3c-3.17,1.79-4.69,1.85-7.42,5.08-13.36,15.81,1.51,25.44,6.42,39.92.87,2.56,1.28,4.79,2,7,1.91,5.83,3.08,9.35,9.33,12.17,12.99,5.87,22.64-3.61,34.1-3.11,6.08.27,13.85,6.91,19.12,7.88,8.35,1.54,16.44.53,24.45-1.95.92-.28,2.09-.67,3-1,8.17-2.93,24.42-10.51,15.85-21.35-7.75-9.8-22.77-2.09-13.7-24.01,8.47-20.49,18.7-34.82,24.39-57.61.8-3.18.81-9.73,1.96-12.04.85-1.7,19.52-6.8,23.49-8.51,73.64-31.69,84-137.42,36.99-195.96Z"/>
    <path class="cls-20" d="M167.77,414.77c-.03-.11-.06-.22-.1-.35.03.12.06.23.1.35Z"/>
    <path class="cls-20" d="M171.77,366.77c-.1.84-.12,1.45-.09,1.88.26-.31.08-1.01.09-1.88Z"/>
    <path class="cls-20" d="M133.77,366.77c.06-.03.13-.09.22-.16-.07.05-.15.09-.22.16Z"/>
    <path class="cls-20" d="M215.9,63.73c.29.01.58.03.88.03-.28-.03-.57-.04-.88-.03Z"/>
    <path class="cls-20" d="M148.77,253.77c-7.74,2.61-10.92,16-11.36,23.85-.26,4.71-.68,12.59,3.36,15.15-3.08-14.63-1.52-26.97,8-39Z"/>
    <path class="cls-20" d="M133.77,291.77c0,.07.06.28.13.57-.04-.18-.07-.37-.13-.57Z"/>
    <path class="cls-20" d="M181.77,321.77c.48.86.81.89,1,0-.33-.01-.67.02-1,0Z"/>
    <path class="cls-20" d="M328.76,160.77c11.33,33.88,5.62,75.25-15.14,104.35-1.11,1.56-2.96,1.98-3.92,3.13-.97,1.15-.07,3.94-2.39,5.63-1.24.9-3.12-.55-4.07.86-.38.57.98,2.78-.86,4.11-1.99,1.44-5.42.71-5.62.92-.4.4.56,3.8-.12,4.88-.6.95-4.86.66-5.66,1.35-.48.41-.26,2.6-2.23,4.27-.84.71-10.78,5.59-11.43,5.58-.78,0-.77-4.28-4.99-3.01-2.92.88.1,5.33-.57,5.94-.54.5-3.82-.75-5.12-.48-2.54.52-4.69,4.64-9.18,3.53-1.11-.27-.91-4-5.12-3.09-.88.19-.01,3.13-2.57,2.04-.82-1.91.33-5.52-.46-6.98-.72-1.33-2.66-1.53-3.25-2.31-1.89-2.52-3.04-7.44-7.3-7.7,1.34,8.08,5.96,15.37,6.89,23.6,3.1,27.54-14,51.82-24.07,75.72-4.73,11.22-8.91,21.62,4.94,28.41,3.77,1.84,13.52,2.31,9.29,8.82-3.6,5.55-7.37-.86-12.05-.55,4.82,9.89-3.59,9.86-9.51,4.02-2.47,1.32.12,3.22-.91,4.97-.9,1.51-4.31,2.12-6.04,2.06-4.07-.13-19.37-7.2-23.55-9.54-18.6-10.37-4.73-19.84-2.43-34.47,2.92-18.56-10.88-33.52-9.42-51.42.94-11.6,5.47-6.51,14.21-8.01.96-.16,7.36-1.87,7.7-2.09,1.93-1.23.42-8.52-3.03-6.52-.2.12,2.13,2.83-2,2.99l1.86,1.71c5.69-1.49-2.12,1.85-5.31,2.01-20.17-3.1-16.47,13.85-12.88,27.67,6.98,17.04,10.81,32.74,1.22,49.21-4.14,10.73.87,15.4,9.12,20.67,6.58,4.21,29.56,15.94,32.79,4.57,5.71,3.51,12.23,3.2,11.63-4.84,7.48,5.74,16.31-4.38,8.56-10.02-17.79-5.18-19.84-11.62-12.85-27.61l18.6-40.5c7.55-18.24,9.26-37.5.68-55.54,1.22,2.62,3.01,4.49,5.39,5.61-.84,5.45.98,11.54,6.31,5.88,3.86,5.89,8.54,3,13.08-.36,5.65,1.37,7.34.1,6.39-5.61,4.09,4.8,11.23,1.19,16.17-2.48,1.67-1.24,2.43-2.73,3.16-4.59,3.65-.08,6.66-1.06,6.16-5.34,3.96-.55,6.13-2.37,6.52-5.49,4.29-1.04,5.38-3.44,6.09-7.41,7.04-5.07,11.64-15.18,15.11-23.23,11.08-25.75,12.97-55.35,5.26-82.29-2.61-7.03-6.73-5.67-12.36,4.07-2.02.88-2.91,2.18-2.68,3.9,1.37-.84,2.74-1.2,4.04-2.45,1.23-1.18,6.43-9.97,7.95-8.55Z"/>
    <path class="cls-20" d="M294.86,103.27c1.03,1.66-.15,2.34-.09,2.5,2.14.15,2.26-.17,2.4-1.91.37-4.81-29.14-22.95-33.89-25.51-8.28-4.46-36.27-17.2-44.07-15.45-.84.19-1.64.51-2.44.87,25.22,4.82,49.4,16.19,69.46,32.04,2.13,1.68,7.45,5.54,8.63,7.46Z"/>
    <path class="cls-20" d="M133.84,293.11c-.34.13-.62.27-.84.42.44.1.74.03.84-.42Z"/>
    <path class="cls-20" d="M142.34,254.83c-2.44,3.28-1.31,7.15-6.57,5.94,2.06,5.09-.97,8-1.73,12.77-.35,2.21-.14,4.12-.26,6.22l2.04-1.21c.54-5.19,1.4-10.37,2.59-15.55,2.6-1.17,4.41-3.44,5.41-6.8,2.73-1.96,3.72-3.78,2.96-5.45-1.29,1.36-3.01,2.15-4.43,4.07Z"/>
    <path class="cls-20" d="M180.82,320.11c.03.29.37.67.65,1.05-.23-.42-.44-.78-.65-1.05Z"/>
    <path class="cls-20" d="M133.77,291.77c2.76-1.1,2.87-4.96,0-6,.04,1.97-.18,4.06,0,6Z"/>
    <path class="cls-20" d="M315.54,171.57c.36.13.75.22,1.23.2-.4-.1-.81-.16-1.23-.2Z"/>
    <path class="cls-84" d="M86.77,151.77c.17,2.69-.59,5.51,1,8l.41-2.15c7.3-4.58,13.64-10.6,19.04-18.07,2.18-1.83,3.58-.78,4.35,1.87-1.98,5.11-1.01,27.85,5.9,28.39,1.63.13,3.63-29.61.68-31.72-.27-2.2,1.15-3.02,3.29-3.23,1.28-.13,12.07,13.24,10.33,15.9l1.88-1.06c.78,1.53,17.85,9.17,17.95,7.81.36-4.66-10.68-17.9-14.64-21.21-8.72-4.93-12.15-10.92,2.07-8.14,6.35,2.29,35.71-4.03,37.76-10,1.33-3.88-42.08-2.2-44.21.16-2.31-.81-3.7-1.76-2.34-3.89,14.25-11.56,25.86-26.09,26.03-45.24.68-1.82,18.87-6.98,21.48-6.86,1.3.06,2,.6,3.02,1.43-2.78-3.78-3.27-5-9-5-10.21,0-28.99,9.68-37,16,1.26,1.42.29,2.42-.98,3.5l.98.5c3.58-1.78,7.88-3.71,11.71-4.79,1.48-.42,2.68-.78,2.28,1.28l-26.99,29.5c3.5-8.91,5.56-31.05-1.45-38.03-2-2-3.41-3.05-5.6-.5-4.06,4.73-5.69,37.09-3.96,44.54-4.3-2.4-8.64-4.89-12.46-8.03-3.68-3.03-10.89-12.62-15.03-12.87-8.58-.5-2.85,14.7.06,18.83,4.22,5.98,9.25,7.32,15.44,10.06,1.37.61,3.33.76,3,1.99-2.05.94-3.99-.84-5-.99-4.29-.64-28.49-2.21-30,.01-.46,5.08,6.73,7.59,10.79,8.7,7.35,2.01,15.64,2.37,23.2,2.3l-8.41,9.08c-1.24,2.22-2.65,4.56-3.59,6.91-.63,1.58-.35,3.77-2,5Z"/>
    <path class="cls-84" d="M121.44,134.87c-2.14.21-3.55,1.03-3.29,3.23,2.95,2.11.95,31.84-.68,31.72-6.92-.54-7.89-23.28-5.9-28.39-.78-2.66-2.17-3.7-4.35-1.87-5.39,7.47-11.74,13.49-19.04,18.07l-.41,2.15c7.34-1.26,16.9-14.86,21.99-20-1.22,9.66-3.06,23.14,4.99,30.52,4.48,4.1,5.43-1.25,5.9-5.13.47-3.86,1.13-11.07,1.17-14.85.05-4.53-.7-9.23-2.05-13.52,1.84-.44,1.95.6,2.84,1.65,2.53,2.96,6.64,9.99,9.16,12.34,1.74-2.66-9.05-16.03-10.33-15.9Z"/>
    <path class="cls-84" d="M156.27,69.19c-.17,19.15-11.79,33.68-26.03,45.24-1.36,2.13.04,3.09,2.34,3.89,2.13-2.36,45.54-4.04,44.21-.16-2.05,5.98-31.41,12.29-37.76,10-14.22-2.78-10.79,3.21-2.07,8.14,3.97,3.31,15,16.55,14.64,21.21-.11,1.37-17.18-6.27-17.95-7.81l-1.88,1.06c2.45,2.29,21.19,12.4,22.06,7.37-2.4-9.04-8.78-17.12-15.58-23.35l-8.47-6.01c12.81,2.74,24.65,2.11,36.98-2.53,2.9-1.09,13.15-5.15,11.99-8.91-1.28-4.14-24.97-3.9-29.46-3.56-6.17.46-12.26,2.93-18.51,2.49,14.68-11.34,27.55-26.75,27.13-46.37.63-1,20.15-5.74,22.87-6.13-1.02-.83-1.72-1.37-3.02-1.43-2.61-.12-20.8,5.04-21.48,6.86Z"/>
    <path class="cls-20" d="M106.12,249.34c7.66-.7,8.61-1.43,2.83-2.19-2.86-5.69-4.66-6.45-5.41-2.28-3.1,4.3-10.02.05-6.77-4.11-.71-.82-1.6-1.52-2-2-2.93.95-4.73-1.45-3-4-1.4-2.04-2.03-2.23-3-5-4.25-3-6.65-10.06-5-15-.43-.49-.58-.89-.51-1.2-.51-1.02-1.15-2.06-1.49-3.8-.61-.49-1.18-1-1.65-1.59-4.97-6.31-.81-42.45,1.89-51.25l2.77-3.15c.31-1.34.67-2.67,1-4,.5-2,.56-4.46,2-6-.09-1.15.06-2.33,0-3.49-.14-1.01-1.32-.63-2.03-.03-3.91,3.29-9.52,23.62-10.69,29.32-6.07,29.61-2.93,57.38,15.58,81.89.21,1.33-6.11,7.59-7.31,9.38-16.57,24.84-5.09,56.27,20.1,69.76,11.93,6.39,12.61,2.24,21.33,15.17,2.3-1.57,2.1-4.55,2-7-.16-.72-1.12-6.83-1.09-7.48.13-3.16,3.54-5.25.63-7.56-3.45-2.75-4.17,2.94-4.98,2.94-3.65.01-6.4-4-8.48-4.47-2.48-.56-3.32,2.39-9.79-1.22-25.38-14.16-28.38-53.82-1.29-67.21-.82-2.22.63-3.69,4.35-4.42Z"/>
    <path class="cls-20" d="M126.77,338.77c.1.45.22.89.34,1.33-.1-.42-.21-.86-.34-1.33Z"/>
    <path class="cls-20" d="M84,214.57c-.08.06-.16.12-.23.19.09-.05.17-.12.23-.19Z"/>
    <path class="cls-20" d="M83.77,214.77c-.14-.42-.31-.81-.51-1.2-.07.31.08.71.51,1.2Z"/>
    <path class="cls-20" d="M114.77,247.27c-.91-1.97-3.78-1.05-4.78-1.71-.76-.51-2.07-7.97-7.3-4.36-1.51,1.04.25,3.93-2.42,3.57-2.82-.37-2.32-2.66-3.49-4.01-3.25,4.16,3.67,8.41,6.77,4.11.75-4.17,2.55-3.4,5.41,2.28,5.78.76,4.83,1.49-2.83,2.19-3.72.73-5.17,2.2-4.35,4.42,1.34-.66,2.06-1.65,4.17-2.32,2.46-.79,10.61-.3,8.83-4.17Z"/>
    <path class="cls-20" d="M88.77,229.77c-1.81-5.17-3.38-9.93-5-15-1.65,4.94.75,12,5,15Z"/>
    <path class="cls-20" d="M80.12,208.17c.47.6,1.05,1.11,1.65,1.59-3.67-18.72-1.33-37.52,3-56l-2.77,3.15c-2.69,8.8-6.85,44.94-1.89,51.25Z"/>
    <path class="cls-20" d="M94.77,238.77c-1.11-1.36-2.01-2.55-3-4-1.73,2.55.07,4.95,3,4Z"/>
    <path class="cls-165" d="M127.5,45.59c4.4.94,8.82-3.83,11.79-6.82,7.21-7.26,17.86-21.83,12.36-32.39-1.84-3.53-8.22-6.6-12.13-6.38-5.97.34-11.06,6.24-13.43,6.6-1.33.2-5.26-3.5-7.33-4.33-14.86-5.92-26.06,9.44-15.99,22.98,2.79,3.75,20.94,19.52,24.73,20.33ZM105.78,13.34c1.73-8.24,10.08-5.49,14.98-2.04,2.34,1.65,1.03,4.39,5.44,3.46,4.73-.99,6.69-10.41,15.02-9,5,.85,6.86,7.46,4.82,11.8-.78,1.67-2.57,1.84-2.97,2.42-.27.39.34,1.72-.09,2.46-3.78,6.44-8.21,11.29-13.72,16.32-1.33-2.96-6.27-3.81-7.59-5.43-4.05-4.98-2.23-1.87-5.51-4.44-1.33-1.04-1.18-3.77-2.4-4.61-1.17-.8-3.77-.25-4.56-1.44-.72-1.09-.15-3.14-.63-4.41-.72-1.92-3.73-.66-2.8-5.09Z"/>
    <path class="cls-17" d="M30.77,198.27c-.41-1.43-7.62-2.44-9.95-4.05-3.43-2.38-4.97-10.54-8.53-9.45-2.39.73-1.23,6.46-1.59,8.41-1.43,7.69-4.44,7.11-8.84,11.16-6.73,6.2,6.77,3.6,10.67,5.18,3.17,1.29,4.6,5.13,6.55,6.93,4.6,4.25,4.54-6.9,5.49-9.4,1.27-3.37,6.92-6.3,6.21-8.77ZM19.76,207.76l-8.99-3.01,4.01-8.99,8.98,4.01-4.01,7.99Z"/>
    <path class="cls-52" d="M346.3,92.74c1.96,1.85,3.58,8.51,5.96,8.02,1.78-.37,3.23-6.13,4.96-8.05,2.14-2.38,14.6-5.86,11.56-8.94-.45-.45-7.68,0-10.77-5.74-1.66-3.08-1.22-9.8-5.73-9.33-3.76.39-3.12,8.82-5.82,11.76-2.04,2.22-6.88,2.64-9.7,3.85-.85.36-2.69.15-1.98,1.95,1,2.51,8.97,4.09,11.52,6.49ZM347.26,83.81c1.21-1.41,3.99-7.41,5.49-6.04-.43,3.22,5.03,7.64,5.03,9.48,0,.36-5.16,4.49-5.52,4.49-.42,0-6.42-4.48-6.87-4.89-2.43-2.18,1.02-2.06,1.87-3.04Z"/>
    <path class="cls-124" d="M344.74,311.03c-1.27-1.7-3.41-9.71-4.09-10.12-4.73-2.88-5.41,5.2-6.67,7.56-3.16,5.92-11.24,6.02-12.2,7.31-1.64,2.2,9.14,5.45,11.02,7.46,2.2,2.35,2.38,5.81,3.76,8.23,4.19,7.32,5.19-2.74,6.32-5.11,2.71-5.63,9.78-7.47,9.91-8.11.77-4.04-6.05-4.55-8.05-7.23ZM339.13,321.7c-1.23.21-4.95-3.63-6.36-4.46l5.02-8.46c1.25.75,5.82,7.99,5.81,8.51,0,.37-3.88,4.32-4.47,4.42Z"/>
    <path class="cls-6" d="M180.77,63.77c.43-.57.88-1.1,1.41-1.54,2.51-2.03,19.58-2.76,25.27-.28-3.19-2.12-5.66-5.05.45-5.71l8.87.53c-10.58-2.44-21.65-2.17-32.38-.88-4.03.49-8.88,1.31-12.62,2.88,4.54-1.26,10.82-.9,9,5Z"/>
    <path class="cls-6" d="M182.19,62.23c-.53.43-.99.97-1.41,1.54,8.81-1.26,19.08-1.38,28-1-.44-.25-.88-.52-1.32-.81-5.69-2.48-22.76-1.76-25.27.28Z"/>
    <path class="cls-6" d="M207.46,61.95c.55.24,1,.51,1.32.81l5-1.99c-3.22.19-6.62.51-7.99-3,3.59-1.18,7.27-1.22,11-1.01l-8.87-.53c-6.11.67-3.64,3.59-.45,5.71Z"/>
    <path class="cls-6" d="M208.77,62.77c-.31-.3-.76-.57-1.32-.81.43.29.88.56,1.32.81Z"/>
    <path class="cls-6" d="M180.77,63.77c1.82-5.9-4.46-6.26-9-5,5.73,0,6.22,1.22,9,5Z"/>
    <path class="cls-217" d="M263.84,37.19c1.67,2.08,1.64,8.22,1.94,8.57,2.2,2.59,3.27-7.96,4.23-8.78,1.78-1.52,7.69-.08,8.76-3.22-2.21-.86-6.61-.6-8.1-2.41-2.04-2.48.4-12.57-2.4-12.58-2.14,0-1.29,9.8-3.49,11.49-1.93,1.48-8.41,1.49-11,1.5-.07,4.23,7.6,2.35,10.07,5.42Z"/>
    <path class="cls-178" d="M40.69,254.35c-1.42-1.7-1.61-7.26-1.93-7.58-2.28-2.35-2.77,6.82-4.38,8.11-1.82,1.45-7.59.84-8.6,1.91-1.47,1.55.3,1.71,1.38,2.1,2.13.76,7.13.86,8.39,2.11,1.69,1.68.3,6.09,2.73,7.75,2.57-1.97.68-5.1,2.42-7.56,1.46-2.08,5.43-1.9,7.08-3.92-1.85-1.64-5.41-.92-7.08-2.91Z"/>
    <path class="cls-187" d="M359.69,268.41c-.6.64-3.95,5.3-3.95,5.86,0,5.62,10.06,5.63,10.07,0,0-.38-3.76-6.24-4.05-6.49-.66-.55-1.4-.07-2.06.63Z"/>
    <path class="cls-115" d="M124.77,345.77c2.54,3.77,4.07,10.55,8.99,13-.28-7.12-4.7-11.95-6.65-18.67,1.16,4.83.39,6.73-2.34,5.67Z"/>
    <path class="cls-115" d="M124.77,345.77c2.73,1.06,3.51-.84,2.34-5.67-.13-.43-.24-.88-.34-1.33.1,2.45.3,5.43-2,7Z"/>
    <path class="cls-106" d="M273.04,330.03c-2.94,2.94.66,7.19,4.72,5.25,4.74-2.28-1.37-8.6-4.72-5.25Z"/>
    <path class="cls-54" d="M121.33,417.82c3.16-4.51-3.93-6.38-5.45-3.96-2.11,3.38,3.25,7.1,5.45,3.96Z"/>
    <path class="cls-221" d="M90.4,413.83c-3.41.54-3.85,7.59,1.77,5.84,3.37-1.05.68-6.24-1.77-5.84Z"/>
    <path class="cls-185" d="M132.77,411.77c-7.28,3.25-3.78,6.33,2,7-2.93-1.07-4.59-4.84-2-7Z"/>
    <path class="cls-185" d="M134.77,418.77c-.72-2.21-1.13-4.44-2-7-2.59,2.16-.93,5.93,2,7Z"/>
    <path class="cls-156" d="M135.77,369.77c.61-.58,7.5-3.57,4.99-5.99-1.96-1.9-5.59,1.92-6.77,2.84,2.16-1.5,3.7,1.16,1.78,3.16Z"/>
    <path class="cls-156" d="M133.99,366.61c-.09.07-.16.12-.22.16l2,3c1.92-1.99.38-4.66-1.78-3.16Z"/>
    <path class="cls-220" d="M282.38,23.56c.54.12,9.44.22,9.37-1.3-.11-2.36-9.09-1.32-10.97-1.49-.27,1.24.35,2.52,1.6,2.79Z"/>
    <path class="cls-175" d="M120.68,321.67c2.32-1.46-.15-6.68-2.92-5.45-4.43,1.97-.6,7.67,2.92,5.45Z"/>
    <polygon class="cls-63" points="154.78 332.28 160.77 334.76 159.25 329.77 154.78 332.28"/>
    <path class="cls-221" d="M83.26,423c-2.13.18-3.69,5.05-.97,5.77,4.63,1.23,5.83-6.18.97-5.77Z"/>
    <path class="cls-157" d="M108.75,416.27c-.84-1.7-4.68-3.48-5.95-2.47-2.86,2.25,2.81,8.18,5.95,2.47Z"/>
    <path class="cls-141" d="M148.8,323.79c-.59.86.06,4.53,1.49,4.97,3.08.95,4.49-3.43,3.47-4.97-.39-.58-4.55-.58-4.95,0Z"/>
    <path class="cls-63" d="M266.29,423.76c-2.63.54-1.27,5.58.96,5.77,5,.42,3.41-6.66-.96-5.77Z"/>
    <path class="cls-190" d="M136.34,310.82c-2.17.68-1.06,4.58-.56,4.94,3.57,2.55,8.03-7.27.56-4.94Z"/>
    <path class="cls-185" d="M121.78,312.28c-.58,2.9,4.87,4.06,5.99,2.48,2.36-3.34-5.31-5.88-5.99-2.48Z"/>
    <path class="cls-166" d="M137.41,328.68c3.19.55,4.4-5.35.88-5.66-3.52-.31-4.62,5.02-.88,5.66Z"/>
    <path class="cls-68" d="M109.83,314.2c.68,2.17,4.58,1.06,4.94.56,2.55-3.57-7.27-8.03-4.94-.56Z"/>
    <path class="cls-25" d="M157.02,347.52c3.52,3.52,6.82-3.91,2.12-4.68-2.03-.33-4.09,2.72-2.12,4.68Z"/>
    <path class="cls-97" d="M137.45,335.92c-1.1.3-1.84,1.6-2.66,2.34,6.13,7.24,8.26-3.9,2.66-2.34Z"/>
    <path class="cls-176" d="M164.3,379.7c3.49-1.46.34-1.13-1.52.07l1,2c-.11-.8-.08-1.82.52-2.07Z"/>
    <path class="cls-176" d="M164.3,376.8c-1.48.42-1.18,2.43-1.53,2.97,1.87-1.2,5.01-1.53,1.52-.07-.61.25-.64,1.27-.52,2.07.26-.2,2.75.18,3.55-.94,1.55-2.16-.51-4.73-3.02-4.03Z"/>
    <path class="cls-215" d="M133.77,321.76c.17-1.47.16-4.48-1.51-4.98-4.55-1.39-5.1,6.64,1.51,4.98Z"/>
    <path class="cls-110" d="M134.77,74.77c-1.48,1.17-4.37.86-5.02,4.49-.71,3.98,4.42-.19,5.02-.49-3.03.95-3.03-.38,0-4Z"/>
    <path class="cls-110" d="M134.77,74.77c-3.03,3.62-3.03,4.95,0,4l-.98-.5c1.27-1.09,2.24-2.08.98-3.5Z"/>
    <path class="cls-111" d="M144.28,342.78c-2.01.56-2.01,4.42,0,4.98,4.6,1.29,4.6-6.27,0-4.98Z"/>
    <path class="cls-121" d="M132.64,295.01c-1.26.3-3.07-.51-3.87-2.24-.35,4.71,2.43,4.39,6,3-1-.12-1.74-.4-2.13-.76Z"/>
    <path class="cls-121" d="M133.84,293.11s.08-.03.12-.05l-.19-1.3c.12.65.13,1.07.06,1.35Z"/>
    <path class="cls-121" d="M132.64,295.01c-.47-.43-.41-.97.36-1.48-.98-.23-2.63-1.29-4.23-.77.8,1.73,2.61,2.55,3.87,2.24Z"/>
    <path class="cls-121" d="M132.64,295.01c.39.35,1.13.64,2.13.76-.17-.96-.63-2.57-.87-3.43.31,1.58-.32,2.45-1.26,2.67Z"/>
    <path class="cls-121" d="M133.84,293.11c-.1.45-.4.52-.84.42-.77.5-.83,1.04-.36,1.48.95-.23,1.58-1.09,1.26-2.67-.08-.29-.13-.49-.13-.57l.19,1.3s-.08.03-.12.05Z"/>
    <path class="cls-20" d="M141.78,317.78c-1.51,3.21,3.75,5.21,4.99,3.98,1.68-1.66-1.26-6.96-4.99-3.98Z"/>
    <path class="cls-29" d="M108.77,320.76l-2.62-4.93c-5.68,1.84-2.35,5.43,2.62,4.93Z"/>
    <path class="cls-63" d="M67.78,424.77c-1.98,2.81,3.99,6.04,4.99,2.48,1.12-4-4.18-3.63-4.99-2.48Z"/>
    <path class="cls-216" d="M129.78,334.76c2.81,1.98,6.04-3.99,2.48-4.99-4-1.12-3.63,4.18-2.48,4.99Z"/>
    <path class="cls-205" d="M160.77,385.77c-4.08-6.34-7.99,3.82-1.62,2.81,1.16-.18,1.51-1.76,1.62-1.81-.87-.28-.86-.62,0-1Z"/>
    <path class="cls-205" d="M160.77,386.77v-1c-.86.38-.87.72,0,1Z"/>
    <path class="cls-182" d="M131.78,430.76h5s0-3.99,0-3.99c-3.27-.37-5.59.21-4.99,3.99Z"/>
    <path class="cls-180" d="M152.26,341.76c2.55-.58,1.92-6.03-1.97-4.98-3.13.84-.14,5.47,1.97,4.98Z"/>
    <path class="cls-87" d="M98.26,421.77c-2.71-.67-2.78,4.52-2.48,5.99,3.33.6,5.59-5.22,2.48-5.99Z"/>
    <path class="cls-194" d="M186.78,440.78c-1.56,2.12,4.35,4.84,5.99,1.47.47-3.39-5.4-2.28-5.99-1.47Z"/>
    <path class="cls-206" d="M253.77,424.77c.06.65-.09,1.36,0,2,.62,4.45,4.05,3.79,4.02-.49-.02-2.79-1.64-1.05-4.02-1.51Z"/>
    <path class="cls-163" d="M180.33,432.82c-1.99.61-1.99,2.86-.04,3.94,2.08.34,3.24-1.08,4.46-2.5-1.01-1.53-2.64-1.99-4.42-1.44Z"/>
    <path class="cls-231" d="M120.77,304.77c-1.13-1.5-5.5.04-4.99,2.48.74,3.53,7.12.35,4.99-2.48Z"/>
    <path class="cls-41" d="M162.77,363.77c1.57.62,3.24,1.29,5,2-1.12-2.36-.96-3.74-5-2Z"/>
    <path class="cls-41" d="M167.77,365.77c-1.76-.71-3.43-1.38-5-2,1.03,1.58-.65,6.78,5,2Z"/>
    <path class="cls-12" d="M117.77,296.77c.28-.27,2.36-.32,3-1-3.22-1.15-4.22-.82-3,1Z"/>
    <path class="cls-12" d="M118.27,291.78c-2.37,1.68-4.32,5.58-.5,4.98-1.22-1.82-.22-2.15,3-1-.6-.84-.6-3.22-2.5-3.98Z"/>
    <path class="cls-146" d="M123.77,297.77c-1.49.91-2.22,4.6-.37,5.05,4.76,1.15,4.63-3.47,1.37-5.05-.29.86-.63.85-1,0Z"/>
    <path class="cls-146" d="M123.77,297.77c.37.85.71.86,1,0-.28-.13-.76.14-1,0Z"/>
    <path class="cls-174" d="M165.26,420.76c2.45-.56,1.74-5.6-.97-4.99-3.57.8-1.63,5.58.97,4.99Z"/>
    <path class="cls-221" d="M114.77,421.77c-1.83-2.65-6.68,2.04-3.99,3.99,1.89,1.37,5.37-2.01,3.99-3.99Z"/>
    <path class="cls-111" d="M151.29,349.77c-2.45.56-1.74,5.6.97,4.99,3.57-.8,1.63-5.58-.97-4.99Z"/>
    <path class="cls-63" d="M127.76,425.76l1-3.99h-4.49c-1.81.21.18,5.46,3.49,3.99Z"/>
    <path class="cls-97" d="M145.26,334.76c2.45-.56,1.74-5.6-.97-4.99-3.57.8-1.63,5.58.97,4.99Z"/>
    <path class="cls-12" d="M145.78,443.25c1.27,3.22,5.34.19,4.98-2.48-2-.8-6.33-.94-4.98,2.48Z"/>
    <path class="cls-31" d="M132.26,308.76c2.61-.7,1.42-4.9-1.98-3.98-2.61.7-1.42,4.9,1.98,3.98Z"/>
    <path class="cls-216" d="M96.77,311.77c.49.81.9,2.88,1.04,2.96,3.11,1.94,7.48-5.56-.04-3.96,1.26,1.46.7,2.01-1,1Z"/>
    <path class="cls-216" d="M96.77,311.77c1.7,1.01,2.26.46,1-1-.33.19-.62.75-1,1Z"/>
    <path class="cls-1" d="M243.26,430.76c2.45-.55,1.74-5.6-.97-4.99-2.45.55-1.74,5.6.97,4.99Z"/>
    <path class="cls-225" d="M159.77,361.77c.25-.38.81-.67,1-1l-1-4c-6.42.62-1.1,4.63-1,5,.28-.87.62-.86,1,0Z"/>
    <path class="cls-225" d="M158.77,361.77h1c-.38-.86-.72-.87-1,0Z"/>
    <path class="cls-11" d="M151.29,389.77c-2.45.55-1.74,5.6.97,4.99,2.45-.55,1.74-5.6-.97-4.99Z"/>
    <path class="cls-63" d="M103.77,304.77c-.89,4.29,3.98,5.41,4.04,1.48.03-1.83-1.81-2.1-2.04-2.48.67,2.64-.06,2.83-2,1Z"/>
    <path class="cls-63" d="M105.77,303.77c-.51.41-1.68.63-2,1,1.94,1.83,2.67,1.64,2-1Z"/>
    <path class="cls-141" d="M165.77,407.77c-.03-.47,1.11-2.09,1-3-5.01-3.97-6.27,4.2-1,3Z"/>
    <path class="cls-120" d="M162.77,390.77c-.31.9.21,2.83,0,4l4-1c-1.61-.28-2.95-1.28-4-3Z"/>
    <path class="cls-120" d="M162.77,390.77c1.05,1.72,2.39,2.72,4,3-.8-2.33,1.88-3.62-4-3Z"/>
    <path class="cls-119" d="M55.78,425.77c-1.67,1.67,2.27,6.63,4.97,1.49-.47-1.49-4.41-2.06-4.97-1.49Z"/>
    <path class="cls-24" d="M158.78,443.26c1.43,3.85,5.63-.84,3.98-2.48-.43-.43-5.27-.96-3.98,2.48Z"/>
    <path class="cls-69" d="M153.77,419.76c1.65-1.64-2.55-6.34-3.98-2.48-1.28,3.45,3.55,2.91,3.98,2.48Z"/>
    <path class="cls-108" d="M166.28,436.76c2.14.56,4.45-1.78,3.48-2.98-1.89-2.36-7.12,2.04-3.48,2.98Z"/>
    <path class="cls-161" d="M172.78,441.28c-1.58,4.44,6.44,2.95,3.99-.5-.45-.64-3.42-1.1-3.99.5Z"/>
    <path class="cls-95" d="M122.77,430.76v-2.99c-2.09-.12-3.75-.38-4.97,1.49,1.23,1.88,2.89,1.62,4.97,1.49Z"/>
    <path class="cls-153" d="M146.26,356.77c-2.11-.46-3.21,3.26-2.48,3.99,1.93,1.93,6.18-3.18,2.48-3.99Z"/>
    <path class="cls-35" d="M157.77,369.77c-.07.88-1.51,2.62-1,4,1.37-1.39,1.7-2.72,1-4Z"/>
    <path class="cls-35" d="M157.77,369.77c.7,1.28.37,2.61-1,4,4.4.43,5.8-3.42,1-4Z"/>
    <path class="cls-28" d="M151.29,403.77c-2.36.52-1.48,4.53.97,3.99,2.36-.52,1.48-4.53-.97-3.99Z"/>
    <path class="cls-219" d="M40.26,227.76c2.36-.52,1.48-4.53-.97-3.99-2.36.52-1.48,4.53.97,3.99Z"/>
    <path class="cls-74" d="M137.78,349.77c-2.33,1.84,1.25,5.73,2.99,3.99,1.14-1.14-1.39-5.25-2.99-3.99Z"/>
    <path class="cls-38" d="M153.77,377.77c-.49-.62-3.41-1.12-3.98.5-1.72,4.85,5.76,1.74,3.98-.5Z"/>
    <path class="cls-192" d="M243.29,440.77c-2.36.52-1.48,4.53.97,3.99,2.36-.52,1.48-4.53-.97-3.99Z"/>
    <path class="cls-192" d="M125.79,435.27c0,1.35,3.6,1.84,4.97,1.49.84-3.66-4.97-3.58-4.97-1.49Z"/>
    <path class="cls-222" d="M158.27,409.79c-1.95,0-3.62,5.17.99,3.97,2.77-.72-.33-3.97-.99-3.97Z"/>
    <path class="cls-116" d="M214.78,441.28c-1.72,4.85,5.76,1.74,3.98-.5-.49-.62-3.41-1.12-3.98.5Z"/>
    <path class="cls-152" d="M110.77,298.77c-1.83,2.24.25,3.69,2.98,2.49.61-.27.76-1.32,1.02-1.49-1.27,1.12-3.39.37-4-1Z"/>
    <path class="cls-152" d="M110.77,298.77c.61,1.37,2.73,2.12,4,1-1.94-2.15-2.47-1.11-4-1Z"/>
    <path class="cls-82" d="M233.78,433.77c-.84,3.66,4.97,3.58,4.97,1.49,0-1.35-3.6-1.84-4.97-1.49Z"/>
    <path class="cls-206" d="M201.78,442.25c.68,3.09,5.42.33,3.99-1.48-.67-.84-4.56-1.14-3.99,1.48Z"/>
    <path class="cls-82" d="M139.78,433.77v2.99s3.99,0,3.99,0v-1.48c-1.06-1.57-2.15-1.74-3.99-1.51Z"/>
    <path class="cls-76" d="M228.78,439.77c-.84.67-1.14,4.56,1.48,3.99,3.09-.68.33-5.42-1.48-3.99Z"/>
    <path class="cls-75" d="M221.77,433.77c1.03,4.96,5.03,3.26,3-1,.37,2.5-1.28,2.82-3,1Z"/>
    <path class="cls-75" d="M224.77,432.77c-.91.33-2.08.72-3,1,1.72,1.82,3.37,1.5,3-1Z"/>
    <path class="cls-188" d="M154.75,365.27c0-1.03-3.36-2.11-3.97-1.49-2.59,2.59,3.97,5.37,3.97,1.49Z"/>
    <path class="cls-234" d="M284.26,364.77c-2.62-.57-2.32,3.32-1.48,3.99,1.81,1.44,4.57-3.31,1.48-3.99Z"/>
    <path class="cls-23" d="M167.77,404.77h-1c.9.68.44,3.27-1,3,.09,1.25,1.39,4.87,1.9,6.65-1.04-3.54-1.01-6.76.1-9.65Z"/>
    <path class="cls-23" d="M167.77,404.77c-1.11,2.89-1.13,6.11-.1,9.65.04.13.07.24.1.35.14-3.31-.21-6.7,0-10Z"/>
    <path class="cls-23" d="M166.77,404.77c.11.91-1.03,2.53-1,3,1.44.27,1.9-2.32,1-3Z"/>
    <path class="cls-232" d="M107.27,426.79c-1.96-.02-1.8,4.61.99,3.97,2.75-.62-.24-3.97-.99-3.97Z"/>
    <path class="cls-168" d="M57.77,221.77c-1.31-1.32-5.93,1.74-2.48,2.98,2.95,1.06,3.23-2.23,2.48-2.98Z"/>
    <path class="cls-128" d="M146.77,384.77h-3.99c.02,3.98,3.99,3.93,3.99,0Z"/>
    <path class="cls-82" d="M38.77,145.76c.62-.66-.22-3.5-1.51-3.99-3.47-1.32-.38,6.02,1.51,3.99Z"/>
    <path class="cls-83" d="M251.77,433.77h-3.99c.02,3.98,3.99,3.93,3.99,0Z"/>
    <path class="cls-73" d="M122.29,440.77c-2.75.62.24,3.97.99,3.97,1.96.02,1.8-4.61-.99-3.97Z"/>
    <path class="cls-135" d="M356.77,341.77h-3.99c.02,3.98,3.99,3.93,3.99,0Z"/>
    <path class="cls-56" d="M157.28,400.76c2.95,1.06,3.23-2.23,2.48-2.98-1.31-1.32-5.93,1.74-2.48,2.98Z"/>
    <path class="cls-149" d="M221.78,449.76c.67.62,3.96-.47,3.98-1.49.03-2.98-5.88-.28-3.98,1.49Z"/>
    <path class="cls-210" d="M146.77,370.77c-1.59-1.59-4.58,1.4-2.99,2.99,1.59,1.59,4.58-1.4,2.99-2.99Z"/>
    <path class="cls-184" d="M260.78,436.76c1.59,1.59,4.58-1.4,2.99-2.99-1.59-1.59-4.58,1.4-2.99,2.99Z"/>
    <path class="cls-171" d="M272.79,433.27c.01,1.03,3.31,2.11,3.98,1.49,1.91-1.77-4-4.48-3.98-1.49Z"/>
    <path class="cls-197" d="M154.29,433.77c-2.14.48-1.15,3.47.97,2.99,2.14-.48,1.15-3.47-.97-2.99Z"/>
    <path class="cls-139" d="M100.78,436.76c.94,1.07,4.06-2.03,2.99-2.99-1.69-1.5-4.5,1.28-2.99,2.99Z"/>
    <path class="cls-24" d="M87.78,432.77c-1.5,1.69,1.28,4.5,2.99,2.99,1.07-.94-2.03-4.06-2.99-2.99Z"/>
    <path class="cls-228" d="M297.29,366.77c-2.14.48-1.15,3.47.97,2.99,2.14-.48,1.15-3.47-.97-2.99Z"/>
    <path class="cls-4" d="M94.77,304.77c-7.34.29-.94,2.35-.08,2.94-1.7-1.37-2.34-2.29.08-2.94Z"/>
    <path class="cls-4" d="M94.77,304.77c-2.42.65-1.78,1.57-.08,2.94.04.02.06.05.08.06-.18-.86.26-2.38,0-3Z"/>
    <path class="cls-14" d="M285.78,53.77c-1.5,1.69,1.28,4.5,2.99,2.99,1.07-.94-2.03-4.06-2.99-2.99Z"/>
    <path class="cls-170" d="M317.78,340.77c-1.5,1.69,1.28,4.5,2.99,2.99,1.07-.94-2.03-4.06-2.99-2.99Z"/>
    <path class="cls-118" d="M133.77,345.76c1.07-.94-2.03-4.06-2.99-2.99-1.5,1.69,1.28,4.5,2.99,2.99Z"/>
    <path class="cls-106" d="M95.29,443.76c2.11.76,1.82-2.62,1.48-2.99-.97-1.05-4.57,1.88-1.48,2.99Z"/>
    <path class="cls-27" d="M116.77,434.78l-2.5-.99c-3.14,2.23,1.2,4.71,2.5.99Z"/>
    <path class="cls-72" d="M253.77,424.77c-6.65-1.28-5.39.43,0,2-1.71-.82-1.96-1.58,0-2Z"/>
    <path class="cls-72" d="M253.77,424.77c-1.96.42-1.71,1.18,0,2-.09-.64.06-1.35,0-2Z"/>
    <path class="cls-109" d="M139.77,377.77c-.97-1.05-4.57,1.88-1.48,2.99,2.11.76,1.82-2.62,1.48-2.99Z"/>
    <path class="cls-130" d="M329.78,352.28c-.76,2.11,2.62,1.82,2.99,1.48,1.05-.97-1.88-4.57-2.99-1.48Z"/>
    <path class="cls-202" d="M53.29,239.76c2.11.76,1.82-2.62,1.48-2.99-.97-1.05-4.57,1.88-1.48,2.99Z"/>
    <path class="cls-18" d="M338.29,369.76c2.11.76,1.82-2.62,1.48-2.99-.97-1.05-4.57,1.88-1.48,2.99Z"/>
    <rect class="cls-7" x="122.78" y="455.77" width="2.99" height="1.99"/>
    <rect class="cls-37" x="107.78" y="455.77" width="2.99" height="1.99"/>
    <rect class="cls-103" x="301.78" y="355.77" width="2.99" height="1.99"/>
    <path class="cls-51" d="M98.77,118.77l-2,1c2.28.16,2.95-.18,2-1Z"/>
    <path class="cls-51" d="M101.77,120.75c.33-1.23-1.63-1.38-3-1.99.95.82.28,1.16-2,1,1.01.15,2.95,1.93,5,.99Z"/>
    <path class="cls-211" d="M346.27,126.75c.66,0,2.07-2.4,1.49-2.97-1.51-1.51-4.26,2.97-1.49,2.97Z"/>
    <rect class="cls-140" x="66.78" y="247.77" width="2.99" height="1.99"/>
    <rect class="cls-94" x="310.78" y="365.77" width="1.99" height="2.99"/>
    <rect class="cls-162" x="7.78" y="241.77" width="1.99" height="2.99"/>
    <rect class="cls-239" x="53.78" y="207.77" width="2.99" height="1.99"/>
    <rect class="cls-115" x="137.78" y="390.77" width="1.99" height="2.99"/>
    <path class="cls-9" d="M143.78,397.77v1.99s2.99,0,2.99,0c-.34-1.45-1.61-2.29-2.99-1.98Z"/>
    <path class="cls-126" d="M286.78,431.77v1.99s2.99,0,2.99,0c-.34-1.45-1.61-2.29-2.99-1.98Z"/>
    <path class="cls-186" d="M76.27,432.79c-1.5,0-1.5,2.96,0,2.96s1.5-2.96,0-2.96Z"/>
    <path class="cls-43" d="M202.27,163.74c5.71-2.1,2.96-8.42,3.52-13.46,3.79-33.93,43.07-39.48,54.04-6.08,2.76,8.42-1.88,7.98-9.04,10.08-13.72,4.03-33.39,6.97-46.03,11.97-1.17.46-3.33,1.33-2.97,2.97,1.17,5.39,11.08-.82,14.47-.47,3.2.33,7.19,6.86,14.75,5.81,11.5-1.6,9.36-10.67,13.36-13.71,1.86-1.41,17.18-5.32,18.41-4.1,3.94,24.48-20.28,41.33-42.06,29.56-3.07-1.66-11.41-12.08-13.94-9.55-3.86,3.86,12.14,14.81,15.3,16.19,27.47,11.96,49.92-12.17,45.7-39.7-6.83-44.52-58.56-49.86-66.75-5.74-.45,2.4-2.11,16.03,1.24,16.22Z"/>
    <path class="cls-218" d="M293.6,106.92l-.84.82c-37.82,1.41-14.92,72.59,15.85,65.31,1.35-.66,2.64-1.09,3.89-1.33-1.09-.82-1.3-2.35.28-3.95-10.57,5.81-22.48-1.17-27.82-10.68-1.44-2.56-3.65-5.11-.57-7.22.34-.23,4.15-2.07,4.39-2.1-3.63,1.18-4.62.19-2-3-7.75,2.28-7.9.52-9.56-6.95-3.13-14.16.5-30.27,18.56-27.05-1.74-1.64-2.45-2.92-2.18-3.85Z"/>
    <path class="cls-218" d="M284.8,166.23c8.76,9.58,20.6,12.48,31.97,5.53-1.7.84-3.32.67-4.28-.05-1.24.24-2.54.67-3.89,1.33-30.78,7.28-53.67-63.9-15.85-65.31l.84-.82c.14-.47.52-.86,1.18-1.15-34.32-1.36-25.27,43.72-9.97,60.47Z"/>
    <path class="cls-218" d="M288.77,147.77c-3.46.22-2.36-1.55,1-1.01.39-1.66-1.9-.61-3-1.99-2.62,3.19-1.63,4.18,2,3Z"/>
    <path class="cls-218" d="M295.77,110.77l1.99-1.01v-.97c-1.97.2-2.47-1.48-2.99-3.02l-1.18,1.15c-.27.93.44,2.21,2.18,3.85Z"/>
    <path class="cls-218" d="M312.5,171.72c1.05-.2,2.07-.25,3.05-.15-1.52-.55-2.14-2.21-2.77-3.8-1.57,1.6-1.36,3.13-.28,3.95Z"/>
    <path class="cls-218" d="M293.6,106.92l1.18-1.15c-.66.29-1.04.68-1.18,1.15Z"/>
    <path class="cls-218" d="M312.5,171.72c.95.72,2.57.89,4.28.05-.47.02-.87-.07-1.23-.2-.98-.1-1.99-.05-3.05.15Z"/>
    <path class="cls-6" d="M267.65,204.9c-4.25-2.46-3.7,3.55-1.9,6.39,9.24,14.61,36.68,6.53,34.07-10.02-1.18-7.5-5.53,6.64-7.52,8.5-4.74,4.42-13.28,5.09-18.87,1.83-2.81-1.64-5.38-6.49-5.77-6.71Z"/>
    <path class="cls-44" d="M196.77,241.77l2-1c-2.94-1.03-5.71-1.84-8.35-2.46,2.51.76,4.72,1.87,6.35,3.46Z"/>
    <path class="cls-44" d="M149.82,250.83c.29-.55.64-1.09,1.03-1.62-.39.33-.79.66-1.19,1.01.09.16.14.37.15.61Z"/>
    <path class="cls-44" d="M171.8,237.8c3.27-.59,7-.89,10.66-.73-3.73-.27-7.24-.03-10.66.73Z"/>
    <path class="cls-44" d="M190.42,238.31c-2.45-.74-5.18-1.13-7.97-1.24,2.54.18,5.18.6,7.97,1.24Z"/>
    <path class="cls-44" d="M150.85,249.21c7.29-6.08,13.91-9.85,20.94-11.42-1.34.24-2.61.52-3.76.85-5.58,1.57-13.41,5.43-17.18,10.57Z"/>
    <path class="cls-44" d="M196.77,241.77c-1.63-1.58-3.84-2.7-6.35-3.46-2.79-.65-5.43-1.06-7.97-1.24-3.65-.16-7.38.15-10.66.73-7.03,1.57-13.65,5.33-20.94,11.42-.39.53-.74,1.07-1.03,1.62.03.73-.3,1.78-1.05,2.93,11.03-13.95,31.53-18.83,48-12Z"/>
    <path class="cls-44" d="M149.67,250.22c.4-.34.79-.68,1.19-1.01,3.77-5.14,11.6-9,17.18-10.57,1.15-.32,2.42-.61,3.76-.85,3.41-.76,6.92-1,10.66-.73,2.79.12,5.52.51,7.97,1.24,2.64.61,5.41,1.43,8.35,2.46-6.92-5.42-16.01-5.51-24.48-4.99-12.91.8-18.97,5.94-27.52,14.99,1.54-1.19,2.53-1.2,2.9-.55Z"/>
    <path class="cls-44" d="M149.67,250.22c-.08.07-.16.13-.24.2-.75.65-1.69.67-2.65.34,1.43.43,1.99,1.54,2,3,.18-1.01.55-1.99,1.05-2.93-.01-.24-.06-.45-.15-.61Z"/>
    <path class="cls-44" d="M149.43,250.42c.08-.07.16-.14.24-.2-.36-.65-1.35-.64-2.9.55.96.33,1.9.31,2.65-.34Z"/>
    <path class="cls-44" d="M149.82,250.83c-.5.94-.87,1.92-1.05,2.93.75-1.15,1.09-2.2,1.05-2.93Z"/>
    <path class="cls-181" d="M185.55,84.06c3.02-.73,19.97-5.06,21.24-5.77,4.61-2.59-6.79-2.4-8.24-2.23-3.46.42-7.61,1.73-10.76,3.24-3.53,1.69-9.59,6.55-2.24,4.77Z"/>
    <path class="cls-49" d="M185.77,199.77c.39,1.77-1.22,2.51-1.99,3.99.58.04,1.01.32,1,1,1.82.71,2.09-2.11,2.48-2,1.22.36,2.23,1.91,4.52,2-.18-2.99-4.65-3.25-3-4.99.28-.3,7.07-1.92,8-2.01-.68-.95-2.4-.77-2.75-1.24-.77-1.02.6-3.07-1.24-2.76,1.3,4.63-6.35,3.06-10.05,4.48-2.07.79-2.03,1.8-2.96,2.52h1l4.99-.99Z"/>
    <path class="cls-48" d="M194.77,207.77c.67-1.87,3.2-3.07,4-5-.09-.05-.93-.89-1-1-2.36,1.5-2.81,3.13-6,3,.21,3.42-2.44,6.22-6,6,2.67,1.31,1.5,3.52-1,4h3c2.05-1.99,3.62-5.74,7-6,0-.34-.08-.78,0-1Z"/>
    <path class="cls-48" d="M185.77,210.77c.13,1-.9,2.83-1,4,2.5-.48,3.67-2.69,1-4Z"/>
    <path class="cls-230" d="M97.88,238.66c4.3-2.27,2.48-3.88-.86-1.02-.17.15-.36.28-.55.39.65-.06.93.35.82,1.14.16-.2.34-.39.59-.52Z"/>
    <path class="cls-230" d="M97.02,237.64c3.34-2.86,5.16-1.25.86,1.02-.25.13-.43.32-.59.52-.06.42-.23.96-.52,1.59,12.66-.62-.58-13.64-2-2,.71-.46,1.28-.69,1.7-.73.19-.12.37-.25.55-.39Z"/>
    <path class="cls-230" d="M96.77,240.77c.02-.59.18-1.15.52-1.59.11-.8-.17-1.21-.82-1.14-.53.32-1.11.54-1.7.73.4.48,1.29,1.18,2,2Z"/>
    <path class="cls-230" d="M94.77,238.77c.59-.19,1.17-.41,1.7-.73-.42.04-.98.27-1.7.73Z"/>
    <path class="cls-230" d="M96.77,240.77c.29-.63.46-1.16.52-1.59-.34.44-.49,1-.52,1.59Z"/>
    <path class="cls-50" d="M198.77,202.77c1.21.66,4.46.63,6,3,0-.58.34-1.11,1-1-3.71-2.39-1.16-7.79-9-7,.5.69.46,3.09,1,4,1.39-1.32,1.93-.74,1,1Z"/>
    <path class="cls-50" d="M198.77,202.77c.93-1.74.39-2.32-1-1,.07.11.91.95,1,1Z"/>
    <path class="cls-121" d="M184.26,404.77c-2.27-1.18-3.25,5.49-1.25,7.74,4.19,4.71,4.17-5.76,1.25-7.74Z"/>
    <path class="cls-160" d="M120.76,241.78c-1.23-1.72-7.62-1.41-5.53,2.95,2.28,4.78,6.96-.96,5.53-2.95Z"/>
    <path class="cls-69" d="M104.41,227.84c-4.18.73-2.17,6.99,1.85,5.92,3.05-.81.81-6.39-1.85-5.92Z"/>
    <path class="cls-225" d="M92.44,232.84c.55-2.44-.67-3.47-3.67-3.08,1.92-.06,3.59,1.41,3.67,3.08Z"/>
    <path class="cls-225" d="M92.44,232.84c.03.63-.16,1.3-.67,1.92,5.62-2.96,2.06-9.58-3-5,2.99-.39,4.22.64,3.67,3.08Z"/>
    <path class="cls-225" d="M92.44,232.84c-.08-1.67-1.74-3.14-3.67-3.08.97,2.77,1.6,2.96,3,5,.32-.72.54-1.36.67-1.92Z"/>
    <path class="cls-225" d="M92.44,232.84c-.13.56-.35,1.2-.67,1.92.5-.62.69-1.29.67-1.92Z"/>
    <path class="cls-53" d="M192.77,95.76c2.9,0,8.85.08,9-3.98-3.58-.39-7.29.51-9,3.98Z"/>
    <path class="cls-83" d="M241.69,103.86c-.63-1.03-7.96-1.86-7.9.4.05,1.75,11.02,4.67,7.9-.4Z"/>
    <path class="cls-153" d="M90.29,214.77c-2.82.74-1.84,6.41,2.91,4.94,3.45-1.06.04-5.72-2.91-4.94Z"/>
    <path class="cls-157" d="M96.02,222.01c-2.3,2.34.64,5.42,3.24,4.75,3.56-.91.12-8.17-3.24-4.75Z"/>
    <path class="cls-134" d="M178.77,316.77h1c0-.88.07-1.75.19-2.61-.33.96-.72,1.84-1.19,2.61Z"/>
    <path class="cls-134" d="M179.77,316.77c5.74-4.25,2-3.76,1-6-.19,1.24-.46,2.36-.81,3.39-.12.86-.19,1.73-.19,2.61Z"/>
    <path class="cls-134" d="M178.77,316.77c.47-.78.86-1.65,1.19-2.61.16-1.14.42-2.27.81-3.39-5.57-.87-2.24,3.04-2,6Z"/>
    <path class="cls-134" d="M180.77,310.77c-.39,1.11-.65,2.24-.81,3.39.35-1.02.62-2.15.81-3.39Z"/>
    <path class="cls-188" d="M106.21,219.71c3.09-.96.44-5.25-1.8-4.86-3.51.61-3.37,6.47,1.8,4.86Z"/>
    <path class="cls-69" d="M99.76,200.76c2.77-2.05-1.03-7.17-3.96-4.96-2.47,1.86,1.81,6.55,3.96,4.96Z"/>
    <path class="cls-199" d="M93.76,192.25c1.39-4.55-6.64-5.1-4.98,1.51,1.47.17,4.48.16,4.98-1.51Z"/>
    <path class="cls-83" d="M110.28,195.78c-2.01.56-2.01,4.42,0,4.98,4.6,1.29,4.6-6.27,0-4.98Z"/>
    <path class="cls-98" d="M103.28,188.78c-2.01.56-2.01,4.42,0,4.98,4.6,1.29,4.6-6.27,0-4.98Z"/>
    <path class="cls-172" d="M204.77,205.77c0,.34-.07.74,0,1,.03.11.91,1.94,1,2,.65.45,5.56,1.32,6,.99-.94-.93-2.7-4.38-3.29-4.75-1-.63-2.44-.07-2.71-.24.78,1.22.29,1.69-1,1Z"/>
    <path class="cls-172" d="M204.77,205.77c1.29.69,1.78.22,1-1-.66-.11-1.01.42-1,1Z"/>
    <path class="cls-137" d="M172.77,218.77c-1.44-.96-2.57-2.3-3-4-7.03,1.36.02,5.91,3,4Z"/>
    <path class="cls-137" d="M172.77,218.77c.74-5.98-1.05-3.17-3-4,.43,1.7,1.56,3.04,3,4Z"/>
    <path class="cls-10" d="M279.28,285.78c-2.01.56-2.01,4.42,0,4.98,4.6,1.29,4.6-6.27,0-4.98Z"/>
    <path class="cls-59" d="M90.28,201.78c-2.01.56-2.01,4.42,0,4.98,4.6,1.29,4.6-6.27,0-4.98Z"/>
    <path class="cls-151" d="M110.28,234.78c-2.01.56-2.01,4.42,0,4.98,4.6,1.29,4.6-6.27,0-4.98Z"/>
    <path class="cls-188" d="M103.28,175.78c-2.01.56-2.01,4.42,0,4.98,4.6,1.29,4.6-6.27,0-4.98Z"/>
    <path class="cls-230" d="M110.28,221.78c-2.01.56-2.01,4.42,0,4.98,4.6,1.29,4.6-6.27,0-4.98Z"/>
    <path class="cls-69" d="M111.26,168.77c-2.46-.62-3.09,4.41-2.48,4.99,2.66,2.54,7.8-3.66,2.48-4.99Z"/>
    <path class="cls-83" d="M93.77,176.77c-.81-1.14-6.1-1.51-4.99,2.48.99,3.56,6.97.32,4.99-2.48Z"/>
    <path class="cls-100" d="M126.77,225.76c1.98-2.81-3.99-6.04-4.99-2.48-1.12,4,4.18,3.63,4.99,2.48Z"/>
    <path class="cls-150" d="M95.78,208.77c-.61.58.02,5.6,2.48,4.99,5.32-1.33.18-7.53-2.48-4.99Z"/>
    <path class="cls-114" d="M134.78,223.28c-1.12,4,4.18,3.63,4.99,2.48,1.98-2.81-3.99-6.04-4.99-2.48Z"/>
    <path class="cls-159" d="M148.77,226.76c2.04,1.61,6.46-3.05,4-4.99-2.04-1.61-6.46,3.05-4,4.99Z"/>
    <path class="cls-117" d="M139.76,210.28c-.99-3.56-6.97-.32-4.99,2.48.81,1.14,6.1,1.51,4.99-2.48Z"/>
    <path class="cls-214" d="M283.78,281.28c-.62,2.46,4.41,3.09,4.99,2.48,2.54-2.66-3.66-7.8-4.99-2.48Z"/>
    <path class="cls-137" d="M126.76,236.28c-.99-3.56-6.97-.32-4.99,2.48.81,1.14,6.1,1.51,4.99-2.48Z"/>
    <path class="cls-185" d="M95.78,182.77c-.61.58.02,5.6,2.48,4.99,5.32-1.33.18-7.53-2.48-4.99Z"/>
    <path class="cls-235" d="M134.78,236.28c-1.12,4,4.18,3.63,4.99,2.48,1.98-2.81-3.99-6.04-4.99-2.48Z"/>
    <path class="cls-111" d="M119.77,219.76c.61-.58-.02-5.6-2.48-4.99-5.32,1.33-.18,7.53,2.48,4.99Z"/>
    <path class="cls-185" d="M141.78,228.77c-.61.58.02,5.6,2.48,4.99,5.32-1.33.18-7.53-2.48-4.99Z"/>
    <path class="cls-126" d="M84.28,195.78c-3.13.84-.14,5.47,1.97,4.98,2.55-.58,1.92-6.03-1.97-4.98Z"/>
    <path class="cls-195" d="M186.77,101.28c-.7-3.43-6.91,2.02-6.99,3.48,1.74.47,7.52-.89,6.99-3.48Z"/>
    <path class="cls-188" d="M111.26,213.76c2.98-.65,3.31-6.19-.98-4.99-2.52.71-1.66,5.56.98,4.99Z"/>
    <path class="cls-198" d="M115.78,232.76c1.78,1.78,7.97-2.43,3.37-3.87-4.25-1.34-4.29,2.96-3.37,3.87Z"/>
    <path class="cls-102" d="M200.29,325.76c3.82.7,1.2-5.72,1.48-7-1.9-2.4-4.06,6.53-1.48,7Z"/>
    <path class="cls-126" d="M133.77,285.77c-2.45-2.95-2.45-4.95,0-6l-4.99,1.52,4.99,4.48Z"/>
    <path class="cls-126" d="M133.77,285.77c-.04-1.97-.11-4.03,0-6-1.29,2.33-1.19,3.57,0,6Z"/>
    <path class="cls-126" d="M133.77,285.77c-1.19-2.43-1.29-3.67,0-6-2.45,1.05-2.45,3.05,0,6Z"/>
    <path class="cls-224" d="M128.78,219.76c1.78,1.78,7.97-2.43,3.37-3.87-4.25-1.34-4.29,2.96-3.37,3.87Z"/>
    <path class="cls-63" d="M258.89,293.39c-1.34,4.25,2.96,4.29,3.87,3.37,1.78-1.78-2.43-7.97-3.87-3.37Z"/>
    <path class="cls-109" d="M123.39,251.64c4.25,1.34,4.29-2.96,3.37-3.87-1.78-1.78-7.97,2.43-3.37,3.87Z"/>
    <path class="cls-209" d="M290.77,277.76c1.89,1.37,5.37-2.01,3.99-3.99-1.83-2.65-6.68,2.04-3.99,3.99Z"/>
    <path class="cls-152" d="M125.77,208.77c-1.99-1.37-5.36,2.1-3.99,3.99,1.95,2.69,6.64-2.16,3.99-3.99Z"/>
    <path class="cls-89" d="M119.77,176.77c-.65-.65-5.54.03-4.99,2.48.87,3.83,7.28-.2,4.99-2.48Z"/>
    <path class="cls-200" d="M186.26,333.76c3.83-.87-.2-7.28-2.48-4.99-.65.65.03,5.54,2.48,4.99Z"/>
    <path class="cls-36" d="M159.77,192.25c.55-2.45-4.34-3.13-4.99-2.48-2.29,2.28,4.12,6.31,4.99,2.48Z"/>
    <path class="cls-122" d="M298.29,266.77c-2.45.56-1.74,5.6.97,4.99,3.57-.8,1.63-5.58-.97-4.99Z"/>
    <path class="cls-42" d="M106.77,202.77c-.65-.65-5.54.03-4.99,2.48.87,3.83,7.28-.2,4.99-2.48Z"/>
    <path class="cls-111" d="M146.77,243.28c-.87-3.83-7.28.2-4.99,2.48.65.65,5.54-.03,4.99-2.48Z"/>
    <path class="cls-164" d="M154.78,218.25c.87,3.83,7.28-.2,4.99-2.48-.65-.65-5.54.03-4.99,2.48Z"/>
    <path class="cls-42" d="M146.77,218.25c.55-2.45-4.34-3.13-4.99-2.48-2.29,2.28,4.12,6.31,4.99,2.48Z"/>
    <path class="cls-67" d="M186.09,319.7c-.29-.1-.52-.1-.69,0,.23-.03.46-.03.69,0Z"/>
    <path class="cls-67" d="M182.77,321.77c.45-1.25,1.51-1.93,2.62-2.06.18-.1.41-.1.69,0,1.13.11,2.21.79,2.68,2.06-.38-5.75-5.31-5.88-6,0Z"/>
    <path class="cls-67" d="M185.4,319.71c-.28.16-.44.55-.44,1.21l-2.19.85c1.3.04,4.73.05,6,0-1.17-1.18-2.05-1.85-2.68-2.06-.23-.02-.46-.02-.69,0Z"/>
    <path class="cls-67" d="M185.4,319.71c-1.12.12-2.18.81-2.62,2.06l2.19-.85c0-.66.16-1.05.44-1.21Z"/>
    <path class="cls-67" d="M186.09,319.7c.63.21,1.52.89,2.68,2.06-.47-1.27-1.55-1.95-2.68-2.06Z"/>
    <path class="cls-16" d="M266.29,285.77c-2.45.56-1.74,5.6.97,4.99,3.57-.8,1.63-5.58-.97-4.99Z"/>
    <path class="cls-37" d="M148.77,239.76c1.96,1.38,5.36-2.08,3.99-3.99-1.91-2.68-6.66,2.12-3.99,3.99Z"/>
    <path class="cls-104" d="M190.78,311.77c-1.37,1.89,2.01,5.37,3.99,3.99,2.65-1.83-2.04-6.68-3.99-3.99Z"/>
    <path class="cls-101" d="M149.77,301.77l3-1c-3.15.4-4.82-.27-5-2-.75.64-1.26.82-1.47.66-.33.53-.84.98-1.53,1.34.88.2.85.54,0,1,1.91-.4,3.1-.53,5,0Z"/>
    <path class="cls-101" d="M147.77,298.77c-.34-.21-.81-.66-1-1,0,.62-.17,1.17-.47,1.66.21.17.72-.02,1.47-.66Z"/>
    <path class="cls-101" d="M144.77,300.77c.02.34-.07.73,0,1,.85-.46.88-.8,0-1Z"/>
    <path class="cls-101" d="M152.77,300.77c-1.68-1.26-3.12-.83-5-2,.18,1.73,1.85,2.4,5,2Z"/>
    <path class="cls-101" d="M146.3,299.42c-.22-.18-.1-.76.47-1.66-.18-.02-.34-.05-.5-.07-2.03-.23-1.62.89-1.5,3.07.69-.36,1.2-.81,1.53-1.34Z"/>
    <path class="cls-101" d="M146.77,297.77c-.18-.03-.35-.06-.5-.07.16.03.33.05.5.07Z"/>
    <path class="cls-101" d="M146.3,299.42c.3-.48.46-1.03.47-1.66-.57.9-.69,1.48-.47,1.66Z"/>
    <path class="cls-69" d="M307.77,264.76c2.29-2.28-4.12-6.31-4.99-2.48-.55,2.45,4.34,3.13,4.99,2.48Z"/>
    <path class="cls-78" d="M136.28,195.78c-2.61.7-1.42,4.9,1.98,3.98,2.61-.7,1.42-4.9-1.98-3.98Z"/>
    <path class="cls-22" d="M99.77,169.77c-2.08-2.08-6.07,1.91-3.99,3.99,2.08,2.08,6.07-1.91,3.99-3.99Z"/>
    <path class="cls-65" d="M112.81,186.29c1.15-.67.13-3.4-.03-3.52-3.73-2.73-6.68,7.43.03,3.52Z"/>
    <path class="cls-169" d="M311.29,253.77c-2.45.55-1.74,5.6.97,4.99,2.45-.55,1.74-5.6-.97-4.99Z"/>
    <path class="cls-136" d="M272.28,279.78c-2.61.7-1.42,4.9,1.98,3.98,2.61-.7,1.42-4.9-1.98-3.98Z"/>
    <path class="cls-70" d="M185.28,311.78c-2.61.7-1.42,4.9,1.98,3.98,2.61-.7,1.42-4.9-1.98-3.98Z"/>
    <path class="cls-222" d="M180.58,307.01c-.81-.08-.76.5.2,1.76-.25-.8-.3-1.39-.2-1.76Z"/>
    <path class="cls-222" d="M180.77,308.77c.19-.01,1.05-.98,2-1-1.01-.47-1.74-.71-2.2-.76-.1.37-.06.96.2,1.76Z"/>
    <path class="cls-222" d="M176.79,307.27c1.12,1.65,2.12,1.62,3.98,1.5-.95-1.26-1.01-1.84-.2-1.76.21-.75,1.07-.56,2.2.76.24-3.63-4.3-3.53-5.98-.5Z"/>
    <path class="cls-222" d="M180.58,307.01c.46.04,1.18.29,2.2.76-1.12-1.32-1.98-1.51-2.2-.76Z"/>
    <path class="cls-221" d="M132.77,228.77c-2.08-2.08-6.07,1.91-3.99,3.99,2.08,2.08,6.07-1.91,3.99-3.99Z"/>
    <path class="cls-223" d="M287.26,270.76c2.61-.7,1.42-4.9-1.98-3.98-2.61.7-1.42,4.9,1.98,3.98Z"/>
    <path class="cls-142" d="M201.77,210.77c-1.66,1.52-2.67.28-4,0,1.23,3.02-1.3,5.74,5,4.99-2.2-2.34-1.1-2.4-1-3.99.02-.35-.08-.76,0-1Z"/>
    <path class="cls-101" d="M115.78,206.76c2.08,2.08,6.07-1.91,3.99-3.99-2.08-2.08-6.07,1.91-3.99,3.99Z"/>
    <path class="cls-224" d="M144.26,193.76c2.45-.55,1.74-5.6-.97-4.99-2.45.55-1.74,5.6.97,4.99Z"/>
    <path class="cls-166" d="M136.28,247.78c-2.61.7-1.42,4.9,1.98,3.98,2.61-.7,1.42-4.9-1.98-3.98Z"/>
    <path class="cls-63" d="M119.77,189.76c-.12-.16-2.85-1.18-3.52-.03-3.91,6.71,6.25,3.76,3.52.03Z"/>
    <path class="cls-177" d="M179.62,317.24c.05-.16.08-.31.15-.48-.06.19-.13.33-.2.44.02.01.03.02.05.04Z"/>
    <path class="cls-177" d="M181.77,321.77c-.03-.19-.16-.39-.31-.6.1.19.2.38.31.6Z"/>
    <path class="cls-177" d="M179.93,319.37c.27.06.57.31.9.75,0-.09,0-.18.07-.25.36-.37,2.02.37,1.88-.6l-3-2.51c-.06.16-.1.32-.15.48.8.61.75,1.35.3,2.12Z"/>
    <path class="cls-177" d="M179.65,319.78c-.25.33-.55.66-.88.99.73.09,1.81.93,3,1-1.07-.48-1.78-1.16-2.12-1.99Z"/>
    <path class="cls-177" d="M180.82,320.11c-.33-.44-.62-.69-.9-.75-.08.14-.17.27-.28.41.35.83,1.06,1.51,2.12,1.99-.1-.22-.21-.41-.31-.6-.27-.38-.61-.76-.65-1.05Z"/>
    <path class="cls-177" d="M179.54,319.42c-.18-.65-.16-1.38.08-2.18-.02-.01-.03-.03-.05-.04-.24.38-.51.23-.8-.44.04.45-.86,1.64-.7,2.79.24.31.48.71.7,1.21.21-.74.47-1.19.77-1.35Z"/>
    <path class="cls-177" d="M179.62,317.24c-.24.8-.26,1.53-.08,2.18.12-.07.25-.08.39-.05.45-.77.49-1.51-.3-2.12Z"/>
    <path class="cls-177" d="M179.54,319.42c-.3.16-.56.61-.77,1.35.33-.33.63-.66.88-.99-.05-.11-.07-.24-.11-.36Z"/>
    <path class="cls-177" d="M178.77,320.77c-.22-.5-.46-.9-.7-1.21.06.42.26.84.7,1.21Z"/>
    <path class="cls-177" d="M179.54,319.42c.03.12.06.24.11.36.1-.14.2-.28.28-.41-.14-.03-.26-.01-.39.05Z"/>
    <path class="cls-177" d="M179.58,317.21c.07-.11.13-.25.2-.44h-1c.33.14.59.29.8.44Z"/>
    <path class="cls-177" d="M179.58,317.21c-.21-.16-.47-.3-.8-.44.3.67.57.82.8.44Z"/>
    <path class="cls-148" d="M84.53,212.84c.57-.09,1.3-.12,2.24-.07-.32-1.62-1.61-2.37-3-3,0,.37-.03.66-.08.9-.11,1.49,0,2.04.83,2.17Z"/>
    <path class="cls-148" d="M84.53,212.84c.48.08,1.19.02,2.24-.07-.94-.05-1.68-.01-2.24.07Z"/>
    <path class="cls-148" d="M86.77,212.77c1.22-1.38,1.82-1.94.01-3.51-1.72-1.32-2.22.24-3.01.51,1.39.63,2.68,1.38,3,3Z"/>
    <path class="cls-148" d="M83.77,209.77c-.03.34-.06.63-.08.9.04-.24.07-.53.08-.9Z"/>
    <path class="cls-48" d="M128.78,193.76c1.6,1.62,5.61-2.37,3.99-3.99-2.08-2.07-6.07,1.88-3.99,3.99Z"/>
    <path class="cls-120" d="M152.77,212.76c1.62-1.62-2.39-5.61-3.99-3.99-2.08,2.11,1.91,6.06,3.99,3.99Z"/>
    <path class="cls-132" d="M166.75,211.27c-2.7-5.14-6.65-.18-4.97,1.49.56.56,4.5,0,4.97-1.49Z"/>
    <path class="cls-79" d="M106.77,165.25c.67-2.97-4.34-2.38-4.99-1.48-1.59,2.22,4.28,4.6,4.99,1.48Z"/>
    <path class="cls-93" d="M235.26,278.77c-4.98,1.49-1.64,4.85,2.51,3.99.38-1.88-1.27-2.73-2.51-3.99Z"/>
    <path class="cls-173" d="M183.77,307.77c1.16-.09,2.52,1.46,4.01.51,2.93-1.86-.76-3.02-1.01-3.51-.27,1.9-1.13,2.74-3,3Z"/>
    <path class="cls-173" d="M183.77,307.77c1.78-.88,2.78-1.88,3-3-1.98-.08-3.08.98-3,3Z"/>
    <path class="cls-173" d="M183.77,307.77c1.87-.26,2.73-1.1,3-3-.22,1.12-1.22,2.12-3,3Z"/>
    <path class="cls-215" d="M132.77,253.77c-1.62-1.62-5.61,2.39-3.99,3.99,2.11,2.08,6.06-1.91,3.99-3.99Z"/>
    <path class="cls-230" d="M130.28,245.76c3.44,1.29,2.91-3.56,2.49-3.99-2.3-2.3-6.76,2.39-2.49,3.99Z"/>
    <path class="cls-205" d="M126.75,198.27c-2.7-5.14-6.65-.18-4.97,1.49.56.56,4.5,0,4.97-1.49Z"/>
    <path class="cls-179" d="M152.77,169.78c-.85-1.22-4.37-.36-4.98,1.49,1.43,3.81,7.03,1.43,4.98-1.49Z"/>
    <path class="cls-139" d="M84.28,173.76c3.45,1.28,2.91-3.55,2.48-3.98-1.64-1.65-6.34,2.55-2.48,3.98Z"/>
    <path class="cls-233" d="M86.26,186.76c2.8-.73-.23-4.37-1.97-3.98-2.51.56-1.57,4.91,1.97,3.98Z"/>
    <path class="cls-133" d="M122.78,287.28c-1.28,3.45,3.55,2.91,3.98,2.48,1.65-1.64-2.55-6.34-3.98-2.48Z"/>
    <path class="cls-203" d="M119.26,253.78c-3.45-1.28-2.91,3.55-2.48,3.98,1.64,1.65,6.34-2.55,2.48-3.98Z"/>
    <path class="cls-92" d="M198.78,314.26c1.43,3.85,5.63-.84,3.98-2.48-.43-.43-5.27-.96-3.98,2.48Z"/>
    <path class="cls-155" d="M136.28,173.76c3.45,1.28,2.91-3.55,2.48-3.98-1.64-1.65-6.34,2.55-2.48,3.98Z"/>
    <path class="cls-63" d="M132.77,202.77c-.43-.43-5.27-.96-3.98,2.48,1.43,3.85,5.63-.84,3.98-2.48Z"/>
    <path class="cls-25" d="M145.77,176.77c-.43-.43-5.27-.96-3.98,2.48,1.43,3.85,5.63-.84,3.98-2.48Z"/>
    <path class="cls-203" d="M131.26,180.76c2.51-.56,1.57-4.91-1.97-3.98-2.8.73.23,4.37,1.97,3.98Z"/>
    <path class="cls-133" d="M99.77,156.77c-.43-.43-5.27-.96-3.98,2.48,1.43,3.85,5.63-.84,3.98-2.48Z"/>
    <path class="cls-15" d="M161.78,225.25c1.1,3.1,5.92-.54,3.99-2.48-.41-.42-5.23-1-3.99,2.48Z"/>
    <path class="cls-155" d="M183.78,338.28c-.46,2.11,3.26,3.21,3.99,2.48,1.93-1.93-3.18-6.18-3.99-2.48Z"/>
    <path class="cls-37" d="M281.77,276.76c1.82-1.82-2.35-5.29-3.99-2.98-2.04,2.87,2.96,4.01,3.99,2.98Z"/>
    <path class="cls-62" d="M317.29,251.76c2.11.46,3.21-3.26,2.48-3.99-1.93-1.93-6.18,3.18-2.48,3.99Z"/>
    <path class="cls-83" d="M171.77,203.77c-2.5-1.72-5.56-.03-3,3,.38-1.38,1.38-2.38,3-3Z"/>
    <path class="cls-83" d="M171.77,203.77c-1.62.62-2.62,1.62-3,3,3.24.29,3.29.24,3-3Z"/>
    <path class="cls-123" d="M143.29,206.76c2.11.46,3.21-3.26,2.48-3.99-1.93-1.93-6.18,3.18-2.48,3.99Z"/>
    <path class="cls-96" d="M176.78,330.28c-1.58,4.44,6.44,2.95,3.99-.5-.45-.64-3.42-1.1-3.99.5Z"/>
    <path class="cls-111" d="M158.26,228.77c-2.11-.46-3.21,3.26-2.48,3.99,1.93,1.93,6.18-3.18,2.48-3.99Z"/>
    <path class="cls-229" d="M191.78,328.77c-1.25.99-.96,4.88,2.48,3.98,3.23-.84-1.18-5.01-2.48-3.98Z"/>
    <path class="cls-112" d="M261.26,279.77c-2.11-.46-3.21,3.26-2.48,3.99,1.93,1.93,6.18-3.18,2.48-3.99Z"/>
    <path class="cls-25" d="M151.26,182.77c-2.11-.46-3.21,3.26-2.48,3.99,1.93,1.93,6.18-3.18,2.48-3.99Z"/>
    <path class="cls-2" d="M123.29,173.76c2.11.46,3.21-3.26,2.48-3.99-1.93-1.93-6.18,3.18-2.48,3.99Z"/>
    <path class="cls-168" d="M138.77,186.76c.73-.73-.37-4.45-2.48-3.99-3.7.81.55,5.92,2.48,3.99Z"/>
    <path class="cls-212" d="M186.26,347.76c2.36-.52,1.48-4.53-.97-3.99-2.36.52-1.48,4.53.97,3.99Z"/>
    <path class="cls-180" d="M116.78,282.25c.58,1.62,3.49,1.13,3.98.5,1.78-2.24-5.71-5.35-3.98-.5Z"/>
    <path class="cls-233" d="M125.77,186.76c1.74-1.74-2.15-5.31-3.99-2.99-1.26,1.6,2.85,4.13,3.99,2.99Z"/>
    <path class="cls-193" d="M178.29,336.77c-2.36.52-1.48,4.53.97,3.99,2.36-.52,1.48-4.53-.97-3.99Z"/>
    <path class="cls-88" d="M164.29,292.77c-2.36.52-1.48,4.53.97,3.99,2.36-.52,1.48-4.53-.97-3.99Z"/>
    <path class="cls-113" d="M172.77,298.77c-1.1.04-2.04.54-3,1,1.45,1.01,2.45.68,3-1Z"/>
    <path class="cls-113" d="M172.77,298.77c.19,2.42-1.41,2.73-3,1,.22.65.33,1.18.37,1.6,1.26,2.88,4.98.8,2.63-2.6Z"/>
    <path class="cls-113" d="M169.77,299.77c.05.65.18,1.17.37,1.6-.03-.42-.15-.94-.37-1.6Z"/>
    <path class="cls-113" d="M172.77,298.77c-.55,1.68-1.55,2.01-3,1,1.59,1.73,3.19,1.42,3-1Z"/>
    <path class="cls-225" d="M152.77,196.77c-.49-.62-3.41-1.12-3.98.5-1.72,4.85,5.76,1.74,3.98-.5Z"/>
    <path class="cls-104" d="M126.76,262.28c-1.05-1.57-2.14-1.74-3.98-1.51v2.99s3.99,0,3.99,0v-1.48Z"/>
    <path class="cls-18" d="M169.78,295.25c.68,3.09,5.42.33,3.99-1.48-.67-.84-4.56-1.14-3.99,1.48Z"/>
    <path class="cls-5" d="M162.77,299.77c1.52.99,3.19,1.66,5,2-.67-2.84-3.68-1.53-5-2Z"/>
    <path class="cls-5" d="M167.77,301.77c-2.12.06-3.78-.61-5-2,0,3.5,2.52,3.21,5,2Z"/>
    <path class="cls-5" d="M167.77,301.77c-1.81-.34-3.48-1.01-5-2,1.22,1.39,2.88,2.06,5,2Z"/>
    <path class="cls-137" d="M122.78,276.76c1.84.23,2.93.06,3.98-1.51v-1.48s-3.99,0-3.99,0v2.99Z"/>
    <path class="cls-141" d="M91.27,162.79c-1.03,0-2.11,3.36-1.49,3.97,2.59,2.59,5.37-3.97,1.49-3.97Z"/>
    <path class="cls-191" d="M145.77,165.25c.57-2.62-3.32-2.32-3.99-1.48-1.44,1.81,3.31,4.57,3.99,1.48Z"/>
    <path class="cls-207" d="M132.76,165.25v-1.48s-3.99,0-3.99,0v2.99c1.84.23,2.94.06,3.99-1.51Z"/>
    <path class="cls-206" d="M194.77,304.77c-.75-.75-4.05-.46-2.98,2.48,1.24,3.45,4.3-1.17,2.98-2.48Z"/>
    <path class="cls-33" d="M202.77,329.77h-3.99c.02,3.98,3.99,3.93,3.99,0Z"/>
    <path class="cls-213" d="M130.29,266.77c-2.75.62.24,3.97.99,3.97,1.96.02,1.8-4.61-.99-3.97Z"/>
    <path class="cls-29" d="M232.78,295.76h3.99c0-3.93-3.97-3.98-3.99,0Z"/>
    <path class="cls-179" d="M179.77,204.77c.33-1.2-.04-2.81,1-4-.31.48-.64.47-1,0-2.01,1.55-2.45,2.28-4,4,2.73-2.45,4.06-2.45,4,0Z"/>
    <path class="cls-179" d="M180.77,200.77h-1c.36.47.69.48,1,0Z"/>
    <path class="cls-179" d="M179.77,204.77c.06-2.45-1.27-2.45-4,0,1.36-1.1,3.28.05,4,0Z"/>
    <path class="cls-201" d="M177.78,292.77v3.99c3.93,0,3.98-3.97,0-3.99Z"/>
    <path class="cls-133" d="M142.77,279.77l-1,2c2.53,2.7,4.82-1.06,3.99-1.99-.24-.27-2.33.26-2.99,0Z"/>
    <path class="cls-55" d="M253.28,289.76c2.95,1.06,3.23-2.23,2.48-2.98-1.31-1.32-5.93,1.74-2.48,2.98Z"/>
    <path class="cls-208" d="M156.77,286.77l1,3c.59,0,1.68.14,2,0l-1-4c-1.19.13-1.26.47-2,1Z"/>
    <path class="cls-237" d="M193.27,347.75c2.98.03.28-5.88-1.49-3.98-.62.67.47,3.96,1.49,3.98Z"/>
    <path class="cls-58" d="M184.77,214.77c-1.6.4-.93.73,2,1,.34-.33.66-.67,1-1-1.05.55-2.39,1.11-3,0Z"/>
    <path class="cls-58" d="M184.77,214.77c-1,0-2-.01-2.99,0v1.99s4.99-1,4.99-1c-2.93-.27-3.6-.6-2-1Z"/>
    <path class="cls-58" d="M187.77,214.77h-3c.61,1.11,1.95.55,3,0Z"/>
    <path class="cls-46" d="M260.78,225.76c.67.62,3.96-.47,3.98-1.49.03-2.98-5.88-.28-3.98,1.49Z"/>
    <path class="cls-3" d="M191.78,339.76c1.59,1.59,4.58-1.4,2.99-2.99-1.59-1.59-4.58,1.4-2.99,2.99Z"/>
    <path class="cls-154" d="M178.77,179.76h3.99c-.62-4.23-3.09-4.04-3.99,0Z"/>
    <path class="cls-25" d="M103.79,294.27c-.03,2.98,5.88.28,3.98-1.49-.67-.62-3.96.47-3.98,1.49Z"/>
    <path class="cls-95" d="M153.77,292.77c-.25-.11-2.73-.11-3,0,1.14,1.05,2.14,1.05,3,0Z"/>
    <path class="cls-95" d="M153.77,292.77c.07,2.3-2.35,2.23-3,0-1.05,4.4,3.99,4.58,3,0Z"/>
    <path class="cls-95" d="M153.77,292.77c-.86,1.05-1.86,1.05-3,0,.65,2.23,3.07,2.3,3,0Z"/>
    <path class="cls-93" d="M196.77,241.77c.62.26,4.58,3.51,4.99,3,.45-2.21-1.53-2.86-2.99-4,1.05,1.6.38,1.93-2,1Z"/>
    <path class="cls-93" d="M198.77,240.77l-2,1c1.23.11,1.89-.22,2-1Z"/>
    <path class="cls-93" d="M196.77,241.77c2.38.93,3.05.6,2-1-.11.78-.77,1.11-2,1Z"/>
    <path class="cls-143" d="M204.77,206.77c-1.99,2.1-2.13,1.47-3,4,.85.24.82.57,0,1h1l3-3c-2.49,1.31-2.44.06-1-2Z"/>
    <path class="cls-143" d="M205.77,208.77c-.09-.06-.97-1.89-1-2-1.44,2.06-1.49,3.31,1,2Z"/>
    <path class="cls-143" d="M201.77,210.77c-.08.24.02.65,0,1,.82-.43.85-.76,0-1Z"/>
    <path class="cls-238" d="M293.77,264.76c.62-.67-.47-3.96-1.49-3.98-2.98-.03-.28,5.88,1.49,3.98Z"/>
    <path class="cls-158" d="M125.77,156.77c-.67-.62-3.96.47-3.98,1.49-.03,2.98,5.88.28,3.98-1.49Z"/>
    <path class="cls-53" d="M305.27,247.79c-1.03.01-2.11,3.31-1.49,3.98,1.77,1.91,4.48-4,1.49-3.98Z"/>
    <path class="cls-71" d="M106.77,152.76c1.91-1.77-4-4.48-3.98-1.49.01,1.03,3.31,2.11,3.98,1.49Z"/>
    <path class="cls-40" d="M185.34,301.18c-.42-.29-.62-.11-.57.58.19-.26.38-.44.57-.58Z"/>
    <path class="cls-40" d="M185.34,301.18c.98-.75,1.87-.04,1.43,1.58.06-.6,1.4-1.8,1-2.99-2.13.15-4.57-.93-3.99,1.48l.99.51c-.05-.69.15-.87.57-.58Z"/>
    <path class="cls-40" d="M185.34,301.18c-.19.14-.38.32-.57.58.37-.05,1.43.83,2,1-.63-.84-1.1-1.35-1.43-1.58Z"/>
    <path class="cls-40" d="M185.34,301.18c.33.23.8.74,1.43,1.58.44-1.62-.45-2.33-1.43-1.58Z"/>
    <path class="cls-230" d="M97.79,300.27c.01,1.03,3.31,2.11,3.98,1.49,1.91-1.77-4-4.48-3.98-1.49Z"/>
    <path class="cls-183" d="M242.77,301.76c1.91-1.77-4-4.48-3.98-1.49.01,1.03,3.31,2.11,3.98,1.49Z"/>
    <path class="cls-132" d="M184.78,350.77c-1.5,1.69,1.28,4.5,2.99,2.99,1.07-.94-2.03-4.06-2.99-2.99Z"/>
    <path class="cls-138" d="M191.78,350.77c-1.5,1.69,1.28,4.5,2.99,2.99,1.07-.94-2.03-4.06-2.99-2.99Z"/>
    <path class="cls-1" d="M159.77,296.77c-.49-1.21,1.12-4.62-3-3,1.32.46,2.59,1.6,3,3Z"/>
    <path class="cls-1" d="M156.85,294.76c.27,1.34,1.27,2.07,2.92,2.01-1-.87-2-1.87-3-3,.05.36.07.68.08.99Z"/>
    <path class="cls-1" d="M159.77,296.77c-.41-1.4-1.68-2.54-3-3,1,1.13,2,2.13,3,3Z"/>
    <path class="cls-1" d="M156.77,293.77c-.02.36.02.69.08.99,0-.31-.03-.63-.08-.99Z"/>
    <path class="cls-47" d="M201.77,304.77c-.94-1.07-4.06,2.03-2.99,2.99,1.69,1.5,4.5-1.28,2.99-2.99Z"/>
    <path class="cls-45" d="M201.77,336.77c-.94-1.07-4.06,2.03-2.99,2.99,1.69,1.5,4.5-1.28,2.99-2.99Z"/>
    <path class="cls-154" d="M315.29,186.76c2.12.81,1.77-2.69,1.48-2.99-1.74-1.74-5.1,1.6-1.48,2.99Z"/>
    <rect class="cls-196" x="226.78" y="273.77" width="3.99" height="1.99"/>
    <path class="cls-127" d="M179.77,223.77h1c-.95-3.05-1.29-3.05-1,0Z"/>
    <path class="cls-127" d="M178.78,219.77c-.7,1.98.53,2.82.99,4-.29-3.05.05-3.05,1,0-.17-2.25,1.1-4.67-1.99-4Z"/>
    <path class="cls-86" d="M177.78,289.76c.94,1.07,4.06-2.03,2.99-2.99-1.69-1.5-4.5,1.28-2.99,2.99Z"/>
    <path class="cls-203" d="M150.78,282.76c.94,1.07,4.06-2.03,2.99-2.99-1.69-1.5-4.5,1.28-2.99,2.99Z"/>
    <path class="cls-81" d="M110.78,289.76c.94,1.07,4.06-2.03,2.99-2.99-1.69-1.5-4.5,1.28-2.99,2.99Z"/>
    <path class="cls-6" d="M215.9,63.73c-2.09-.08-4.13-.39-6.12-.97,1.96.58,3.99.9,6.08.97.01,0,.03,0,.04,0Z"/>
    <path class="cls-6" d="M215.85,63.73c-2.09-.07-4.11-.39-6.08-.97,1.23,1.65,3.95,1.01,6.08.97Z"/>
    <path class="cls-6" d="M216.77,63.77c-2.69-.51-3.82-.82-7-1,1.99.58,4.03.89,6.12.97.31,0,.6,0,.88.03Z"/>
    <path class="cls-227" d="M311.26,192.78c-2.11-.76-1.82,2.62-1.48,2.99.97,1.05,4.57-1.88,1.48-2.99Z"/>
    <path class="cls-189" d="M208.26,329.78c-2.11-.76-1.82,2.62-1.48,2.99.97,1.05,4.57-1.88,1.48-2.99Z"/>
    <path class="cls-18" d="M247.78,208.28c-.76,2.11,2.62,1.82,2.99,1.48,1.05-.97-1.88-4.57-2.99-1.48Z"/>
    <path class="cls-145" d="M212.78,214.28c-.76,2.11,2.62,1.82,2.99,1.48,1.05-.97-1.88-4.57-2.99-1.48Z"/>
    <path class="cls-168" d="M193.29,222.76c2.11.76,1.82-2.62,1.48-2.99-.97-1.05-4.57,1.88-1.48,2.99Z"/>
    <path class="cls-32" d="M316.78,238.76c.97,1.05,4.57-1.88,1.48-2.99-2.11-.76-1.82,2.62-1.48,2.99Z"/>
    <path class="cls-185" d="M184.78,295.25c1.11,3.09,4.03-.51,2.99-1.48-.37-.34-3.74-.63-2.99,1.48Z"/>
    <path class="cls-129" d="M311.29,244.76c2.11.76,1.82-2.62,1.48-2.99-.97-1.05-4.57,1.88-1.48,2.99Z"/>
    <path class="cls-8" d="M208.77,248.76c1.02-1-1.95-4.01-2.99-2.99-1.02,1,1.95,4.01,2.99,2.99Z"/>
    <path class="cls-64" d="M171.29,289.76c2.11.76,1.82-2.62,1.48-2.99-.97-1.05-4.57,1.88-1.48,2.99Z"/>
    <path class="cls-125" d="M146.06,289.09c-.04.09-.08.19-.12.27.05-.09.11-.17.17-.21-.02-.02-.03-.04-.05-.07Z"/>
    <path class="cls-125" d="M146.11,289.16c-.06.04-.11.11-.17.21-.06.13-.1.27-.17.4h1c-.31-.19-.51-.4-.66-.61Z"/>
    <path class="cls-125" d="M147.77,287.77c-.37-.29-.65-.7-1-1-.05.32-.15.62-.23.93.32-.08.73-.07,1.23.07Z"/>
    <path class="cls-125" d="M144.64,287.23c.16.54.3,1.04.41,1.51.19.32.44.66.72,1.03.06-.17.11-.3.17-.4.04-.09.08-.18.12-.27-.35-.53-.24-1.05.24-1.29.07-.27.22-.62.47-1.03-1.31-.15-1.95.03-2.13.46Z"/>
    <path class="cls-125" d="M145.77,289.77c.07-.13.11-.27.17-.4-.06.1-.12.23-.17.4Z"/>
    <path class="cls-125" d="M146.55,287.69c.08-.31.17-.6.23-.93-.24.42-.39.76-.47,1.03.08-.04.14-.08.24-.11Z"/>
    <path class="cls-125" d="M145.05,288.74c-.11-.47-.25-.98-.41-1.51-.15.36.02.88.41,1.51Z"/>
    <path class="cls-125" d="M146.36,288.4c-.08.24-.2.46-.3.69.01.02.03.04.05.07.2-.14.42.07.66.61.39-.56.59-1.56,1-2-.72.64-1.21.82-1.41.64Z"/>
    <path class="cls-125" d="M146.11,289.16c.15.21.36.42.66.61-.24-.54-.46-.75-.66-.61Z"/>
    <path class="cls-125" d="M146.55,287.69c-.06.24-.11.49-.19.71.2.18.69,0,1.41-.64-.5-.14-.91-.15-1.23-.07Z"/>
    <path class="cls-125" d="M146.31,287.8c-.48.25-.59.76-.24,1.29.1-.23.21-.45.3-.69-.11-.1-.13-.3-.05-.61Z"/>
    <path class="cls-125" d="M146.36,288.4c.08-.23.12-.48.19-.71-.09.02-.16.07-.24.11-.08.3-.06.51.05.61Z"/>
    <path class="cls-14" d="M226.78,287.28c-.76,2.11,2.62,1.82,2.99,1.48,1.05-.97-1.88-4.57-2.99-1.48Z"/>
    <path class="cls-169" d="M297.78,257.76c.97,1.05,4.57-1.88,1.48-2.99-2.11-.76-1.82,2.62-1.48,2.99Z"/>
    <path class="cls-53" d="M179.77,279.77c-.37-.34-3.74-.63-2.99,1.48,1.11,3.09,4.03-.51,2.99-1.48Z"/>
    <path class="cls-77" d="M186.26,357.78c-2.11-.76-1.82,2.62-1.48,2.99.97,1.05,4.57-1.88,1.48-2.99Z"/>
    <path class="cls-90" d="M215.78,262.77v1.99s3.99,0,3.99,0c-.53-1.99-2.13-2.24-3.99-1.98Z"/>
    <path class="cls-147" d="M267.26,273.78c-2.11-.76-1.82,2.62-1.48,2.99.97,1.05,4.57-1.88,1.48-2.99Z"/>
    <rect class="cls-144" x="163.78" y="279.77" width="2.99" height="1.99"/>
    <path class="cls-167" d="M128.78,152.76h2.99v-1.99c-.93.88-1.4,1.31-1.4,1.31,0,0,.47-.44,1.4-1.31h-2.99v1.99Z"/>
    <path class="cls-188" d="M187.75,288.27c0-.66-2.4-2.07-2.97-1.49-1.51,1.51,2.97,4.26,2.97,1.49Z"/>
    <rect class="cls-105" x="172.78" y="170.77" width="2.99" height="1.99"/>
    <path class="cls-79" d="M202.77,344.78l-3.99.49c1.55,2.18,3.08,1.94,3.99-.49Z"/>
    <path class="cls-26" d="M194.77,207.77c.45.28.43.62,0,1-.02,3.33.63,1.51,3,2-.57-1.39-1.67-2.36-3-3Z"/>
    <path class="cls-26" d="M194.77,207.77c-.08.22,0,.66,0,1,.43-.38.45-.72,0-1Z"/>
    <path class="cls-13" d="M169.77,177.78h-2.99s0,1.98,0,1.98c1.38.31,2.66-.54,2.99-1.98Z"/>
    <path class="cls-20" d="M193.27,301.75c1.5,0,1.5-2.96,0-2.96s-1.5,2.96,0,2.96Z"/>
    <path class="cls-187" d="M165.28,289.76l.49-2.99h-1.99c-.32,1.47.44,2.08,1.5,2.99Z"/>
    <path class="cls-60" d="M274.77,267.77h-1.99s0,2.99,0,2.99c1.45-.34,2.29-1.61,1.98-2.99Z"/>
    <path class="cls-80" d="M165.77,315.77c-2.31-3.04-4.27-3.04-6.73-2.05.36.25.59.92.73,2.05,1.63-1.77,3.86,0,6,0Z"/>
    <path class="cls-80" d="M159.04,313.72c-.71.29-1.46.65-2.27,1.05,1.71,1.19,2.78.86,3,1-.14-1.13-.37-1.8-.73-2.05Z"/>
    <path class="cls-80" d="M159.04,313.72c2.46-.99,4.43-.99,6.73,2.05.3-1.33,1.01-2.59,1-3.99-5.05.6-7.84-3.29-10,2.99,1.06-1,1.79-1.39,2.27-1.05Z"/>
    <path class="cls-80" d="M156.77,314.77c.81-.4,1.56-.76,2.27-1.05-.48-.34-1.2.05-2.27,1.05Z"/>
    <path class="cls-34" d="M172.33,386.66l.08.11c.3-.53,1.15-.93,2.36-1.01-4.14.41-4.96.71-2.44.9Z"/>
    <path class="cls-34" d="M172.41,386.77l1.36,1.99c.24-.87.8-1.15,1-3-1.22.08-2.06.48-2.36,1.01Z"/>
    <path class="cls-34" d="M173.77,388.77c-1.34-.65-1.7-1.4-1.36-1.99l-.08-.11c-2.52-.19-1.7-.49,2.44-.9-6.29-5.25-9.57,3.01-1,3Z"/>
    <path class="cls-34" d="M173.77,388.77l-1.36-1.99c-.34.59.02,1.34,1.36,1.99Z"/>
    <path class="cls-19" d="M168.77,318.37c1.42-.01,2.63.15,3.6.5.03,0,.05,0,.07.02,1.06.4,1.84,1.02,2.33,1.87-.84-1.71-2.85-2.5-6-2.39Z"/>
    <path class="cls-19" d="M165.77,317.77c-.09.46-.54.86-1,1,.5-.09.96-.15,1.43-.2l-.43-.8Z"/>
    <path class="cls-19" d="M172.44,318.9c.29.19-.16,1.48,2.33,1.87-.5-.85-1.28-1.47-2.33-1.87Z"/>
    <path class="cls-19" d="M166.23,318.61l-.03-.05c-.46.06-.93.12-1.43.2,4.8,1.44,3.97.31,7.57.11.01,0,.02,0,.03,0-.97-.35-2.18-.51-3.6-.5-.78.03-1.62.09-2.55.23Z"/>
    <path class="cls-19" d="M165.77,317.77l.43.8c.93-.12,1.79-.18,2.57-.19,3.15-.11,5.16.68,6,2.39,2.49-5.7-6.12-.85-9-3Z"/>
    <path class="cls-19" d="M168.77,318.37c-.79,0-1.65.07-2.57.19l.03.05c.93-.14,1.76-.21,2.55-.23Z"/>
    <path class="cls-204" d="M172.77,374.77c.31-1.37.69-2,1.15-1.9-.63-.93-1.01-2.29-1.15-4.1v6Z"/>
    <path class="cls-204" d="M174.77,373.77c-.29-2.48-1.32-3.28-2-5,.13,1.81.52,3.18,1.15,4.1.26.06.55.35.85.9Z"/>
    <path class="cls-204" d="M173.92,372.87c-.45-.1-.84.53-1.15,1.9.47,0,1.4-.81,2-1-.32-.23-.61-.53-.85-.9Z"/>
    <path class="cls-204" d="M173.92,372.87c.25.37.53.67.85.9-.31-.54-.59-.84-.85-.9Z"/>
    <path class="cls-236" d="M141.77,296.77l-1-3c.34,1.51.62,1.9,1,3Z"/>
    <path class="cls-236" d="M142.21,294.77c.49.03,1.34.59,2.55.99v-1.99s-2.87,0-2.87,0c.23.17.34.5.32,1.01Z"/>
    <path class="cls-236" d="M142.21,294.77c.02-.5-.08-.84-.32-1.01h-1.13s1,3,1,3c-.17-1.56-.03-2.02.44-1.99Z"/>
    <path class="cls-91" d="M172.77,369.77c-4.14.06-4.21,4.97,0,5-2.17-.81-2.12-4.12,0-5Z"/>
    <path class="cls-91" d="M172.77,374.77v-5c-1.54,1.68-1.54,3.35,0,5Z"/>
    <path class="cls-91" d="M172.77,369.77c-2.12.88-2.17,4.19,0,5-1.54-1.65-1.54-3.32,0-5Z"/>
    <path class="cls-151" d="M153.77,304.77c-.17.55-.35,1.12-.59,1.65.48-.65.68-1.2.59-1.65Z"/>
    <path class="cls-151" d="M153.19,306.41c-.36.82-.85,1.55-1.59,1.99,2.61-.55,9.25.83,9.15-1.14-.05-.91-5.99-2.46-6.98-2.5.09.45-.11,1-.59,1.65Z"/>
    <path class="cls-151" d="M150.77,308.77c1.11-.89,1.91-1.68,2.41-2.35.23-.53.42-1.1.59-1.65-.36.02-.67.04-.95.05-1.86.31-2.22,1.89-2.05,3.95Z"/>
    <path class="cls-151" d="M153.77,304.77c-.35-.02-.67,0-.95.05.27-.01.59-.03.95-.05Z"/>
    <path class="cls-151" d="M153.19,306.41c-.5.67-1.3,1.46-2.41,2.35.18-.17.46-.28.83-.36.74-.45,1.23-1.17,1.59-1.99Z"/>
    <path class="cls-57" d="M175.77,311.78c-2.47-.63-5.43-2.32-5.99,1.47,2.54,3.62,6.42,3.57,5.99-1.47Z"/>
    <path class="cls-226" d="M174.77,305.77c-1.79-.36-4.08-1.88-4.98.5-1.83,4.84,6.85,1.97,4.98-.5Z"/>
    <path class="cls-85" d="M165.29,304.77c-2.29.51-1.59,4.99-.01,4.97,2.12-.03,3.62-5.77.01-4.97Z"/>
    <path class="cls-30" d="M158.64,298.82c-1.09.41-2.12,1.26-1.87,2.43.56,2.54,3.14,1.33,4.08-.3-.17-.36-.2-1.08-.09-2.18-1.18,1.22-1.76,1.83-1.76,1.83,0,0,.59-.61,1.76-1.83-1.15.12-1.84.17-2.13.06Z"/>
    <path class="cls-30" d="M158.64,298.82c.29.12.98.06,2.13-.06-.32-.32-1.24-.28-2.13.06Z"/>
    <path class="cls-30" d="M160.86,300.95c.43-.74.52-1.58-.09-2.18-.11,1.1-.08,1.82.09,2.18Z"/>
    <path class="cls-99" d="M177.78,301.25c.68,1.9,2.04,1.27,2.75.27,0-.53.07-1.11.24-1.76-1.09.85-1.64,1.27-1.64,1.27,0,0,.55-.42,1.64-1.27l-.89-.22c-1.07-.08-2.64.19-2.1,1.7Z"/>
    <path class="cls-99" d="M180.77,299.77c-.1-.09-.46-.18-.89-.22l.89.22Z"/>
    <path class="cls-99" d="M180.77,299.77c-.17.65-.24,1.23-.24,1.76.44-.62.64-1.39.24-1.76Z"/>
    <path class="cls-21" d="M152.2,301.87c.33.19.52.48.58.89-.05-.63,1.39-.96,0-2,.1.57-.1.93-.58,1.11Z"/>
    <path class="cls-21" d="M151.88,301.73c.13-.32.45-.66.89-.97l-3,1c.91-.18,1.61-.18,2.11-.03Z"/>
    <path class="cls-21" d="M151.88,301.73c.12.04.22.08.32.14.48-.17.67-.54.58-1.11-.44.31-.77.65-.89.97Z"/>
    <path class="cls-21" d="M151.83,301.95c-.5.07-1.17,0-2.05-.19.92.26,1.88,1.03,3,1-.71-.18-.97-.48-.95-.81Z"/>
    <path class="cls-21" d="M152.2,301.87c-.11.04-.23.06-.37.08-.02.34.24.63.95.81-.05-.41-.25-.71-.58-.89Z"/>
    <path class="cls-21" d="M151.83,301.95c0-.07.03-.15.06-.22-.5-.15-1.2-.14-2.11.03.88.2,1.56.25,2.05.19Z"/>
    <path class="cls-21" d="M151.83,301.95c.14-.02.26-.04.37-.08-.09-.05-.2-.1-.32-.14-.03.07-.05.15-.06.22Z"/>
    <path class="cls-107" d="M178.08,210.76c.53-.19,1.13-.22,1.69,0,.01-.85.07-1.53.17-2.08-.47.76-1.12,1.49-1.86,2.08Z"/>
    <path class="cls-107" d="M180.65,206.97c.44-.41.98-.3,1.51.05-.42-.96,0-1.8,1.28-2.11-.04-.25.07-.64.34-1.14-1.08-.07-2.75.91-4,1,.81.5,1.04,1.31.88,2.21Z"/>
    <path class="cls-107" d="M176.9,211.61c.04-.06.09-.11.14-.16-.06.03-.13.07-.19.1.02.02.03.04.05.06Z"/>
    <path class="cls-107" d="M184.77,204.77c.01-.68-.42-.96-1-1-.27.5-.37.89-.34,1.14.37-.09.81-.15,1.34-.14Z"/>
    <path class="cls-107" d="M182.16,207.02c-.53-.35-1.07-.45-1.51-.05-.1.55-.36,1.14-.71,1.71-.1.55-.16,1.24-.17,2.08.86-.98,1.62-2.03,2.5-3l.69,1.82c.47.17.76-.84.81-.82-.83-.57-1.37-1.18-1.61-1.75Z"/>
    <path class="cls-107" d="M176.85,211.55c.06-.03.13-.06.19-.1.28-.3.64-.55,1.05-.69.74-.59,1.39-1.32,1.86-2.08.15-.89.41-1.42.71-1.71.16-.9-.07-1.71-.88-2.21-1.06,3.89-2.21,5.07-6,7,1.58-.54,2.6-.6,3.07-.21Z"/>
    <path class="cls-107" d="M179.94,208.68c.35-.57.61-1.16.71-1.71-.3.28-.56.81-.71,1.71Z"/>
    <path class="cls-107" d="M176.9,211.61s-.03-.04-.05-.06c-1.06.53-2.16.7-3.07.21.56.63,2.79,1.63,3,2-.48-.76-.34-1.55.12-2.15Z"/>
    <path class="cls-107" d="M176.85,211.55c-.47-.39-1.49-.33-3.07.21.91.49,2.01.32,3.07-.21Z"/>
    <path class="cls-107" d="M179.77,210.77c-.56-.22-1.16-.2-1.69,0-.34.27-.69.5-1.05.69-.05.05-.1.1-.14.16.37.37.34,1.08-.12,2.15,1.3-.7,2.06-1.94,3-3Z"/>
    <path class="cls-107" d="M177.04,211.45c.36-.2.71-.43,1.05-.69-.4.15-.77.39-1.05.69Z"/>
    <path class="cls-107" d="M176.9,211.61c-.46.6-.61,1.39-.12,2.15.46-1.07.49-1.78.12-2.15Z"/>
    <path class="cls-107" d="M183.44,204.91c-1.27.32-1.69,1.16-1.28,2.11.64.42,1.25,1.17,1.61,1.75-.54-1.37.99-3.35,1-4-.8.58-1.27.57-1.34.14Z"/>
    <path class="cls-107" d="M184.77,204.77c-.52,0-.96.05-1.34.14.06.43.54.44,1.34-.14Z"/>
    <path class="cls-107" d="M182.16,207.02c.25.57.79,1.18,1.61,1.75-.36-.57-.97-1.32-1.61-1.75Z"/>
    <path class="cls-74" d="M152.58,289.53c.82-1.04.45-3.38-1.29-2.75-.87.31-1.26,1.13-1.21,1.85.26.24.5.61.69,1.14.52-.88.78-1.32.78-1.32,0,0-.26.44-.78,1.32.79.12,1.38,0,1.8-.24Z"/>
    <path class="cls-74" d="M152.58,289.53c-.42.24-1.01.36-1.8.24.83.44,1.44.23,1.8-.24Z"/>
    <path class="cls-74" d="M150.08,288.63c.04.48.26.91.69,1.14-.19-.53-.43-.9-.69-1.14Z"/>
    <path class="cls-141" d="M126.77,27.76c.73-.73-.37-4.45-2.48-3.99-3.7.81.55,5.92,2.48,3.99Z"/>
    <path class="cls-39" d="M119.26,17.77c-2.11-.46-3.21,3.26-2.48,3.99,1.93,1.93,6.18-3.18,2.48-3.99Z"/>
    <rect class="cls-131" x="110.78" y="11.77" width="2.99" height="3.99"/>
    <path class="cls-61" d="M130.27,29.79c-1.03,0-2.11,3.36-1.49,3.97,2.59,2.59,5.37-3.97,1.49-3.97Z"/>
    <path class="cls-53" d="M137.26,27.76c2.14-.48,1.15-3.47-.97-2.99-2.14.48-1.15,3.47.97,2.99Z"/>
    <path class="cls-66" d="M130.29,21.76c2.11.76,1.82-2.62,1.48-2.99-.97-1.05-4.57,1.88-1.48,2.99Z"/>
  </g>
</svg>