<?xml version="1.0" encoding="UTF-8"?>
<svg id="Layer_2" data-name="Layer 2" xmlns="http://www.w3.org/2000/svg" viewBox="0 0 713.05 175.03">
  <defs>
    <style>
      .cls-1 {
        fill: #404040;
      }

      .cls-2 {
        fill: #3f3f3f;
      }

      .cls-3 {
        fill: #070707;
      }

      .cls-4 {
        fill: #1b1b1c;
      }

      .cls-5 {
        fill: #323232;
      }

      .cls-6 {
        fill: #403f40;
      }

      .cls-7 {
        fill: #2c2c2d;
      }

      .cls-8 {
        fill: #454646;
      }

      .cls-9 {
        fill: #2b2b2b;
      }

      .cls-10 {
        fill: #2c292a;
      }

      .cls-11 {
        fill: #030202;
      }

      .cls-12 {
        fill: #444;
      }

      .cls-13 {
        fill: #4b4b4c;
      }

      .cls-14 {
        fill: #303031;
      }

      .cls-15 {
        fill: #292928;
      }

      .cls-16 {
        fill: #010101;
      }

      .cls-17 {
        fill: #010000;
      }

      .cls-18 {
        fill: #131211;
      }

      .cls-19 {
        fill: #080708;
      }

      .cls-20 {
        fill: #363635;
      }

      .cls-21 {
        fill: #a9a9a9;
      }

      .cls-22 {
        fill: #2f2f2f;
      }

      .cls-23 {
        fill: #3f4040;
      }

      .cls-24 {
        fill: #020203;
      }

      .cls-25 {
        fill: #292929;
      }

      .cls-26 {
        fill: #414141;
      }

      .cls-27 {
        fill: #2c2d2d;
      }

      .cls-28 {
        fill: #282928;
      }

      .cls-29 {
        fill: #282726;
      }

      .cls-30 {
        fill: #474747;
      }

      .cls-31 {
        fill: #363636;
      }

      .cls-32 {
        fill: #3f3f40;
      }

      .cls-33 {
        fill: #2a2a2b;
      }

      .cls-34 {
        fill: #5b5b5b;
      }

      .cls-35 {
        fill: #444343;
      }

      .cls-36 {
        fill: #353435;
      }

      .cls-37 {
        fill: #060405;
      }

      .cls-38 {
        fill: #777;
      }

      .cls-39 {
        fill: #3e3d3f;
      }

      .cls-40 {
        fill: #3a3939;
      }

      .cls-41 {
        fill: #1c1c1d;
      }

      .cls-42 {
        fill: #1f1d1f;
      }

      .cls-43 {
        fill: #383839;
      }

      .cls-44 {
        fill: #4d4d4e;
      }

      .cls-45 {
        fill: #515051;
      }

      .cls-46 {
        fill: #333336;
      }

      .cls-47 {
        fill: #282728;
      }

      .cls-48 {
        fill: #232424;
      }

      .cls-49 {
        fill: #3b3a3c;
      }

      .cls-50 {
        fill: #161514;
      }

      .cls-51 {
        fill: #0c090c;
      }

      .cls-52 {
        fill: #1c1c1c;
      }

      .cls-53 {
        fill: #030303;
      }

      .cls-54 {
        fill: #020103;
      }

      .cls-55 {
        fill: #050304;
      }

      .cls-56 {
        fill: #313132;
      }

      .cls-57 {
        fill: #454545;
      }

      .cls-58 {
        fill: #323230;
      }

      .cls-59 {
        fill: #2f302f;
      }

      .cls-60 {
        fill: #29292a;
      }

      .cls-61 {
        fill: #7e7c7e;
      }

      .cls-62 {
        fill: #050404;
      }

      .cls-63 {
        fill: #2c2c2c;
      }

      .cls-64 {
        fill: #1a1a19;
      }

      .cls-65 {
        fill: #3e3f40;
      }

      .cls-66 {
        fill: #373837;
      }

      .cls-67 {
        fill: #262526;
      }

      .cls-68 {
        fill: #3a3a3b;
      }

      .cls-69 {
        fill: #4f4f4e;
      }

      .cls-70 {
        fill: #787576;
      }

      .cls-71 {
        fill: #222323;
      }

      .cls-72 {
        fill: #2b2b2a;
      }

      .cls-73 {
        fill: #3d3e3d;
      }

      .cls-74 {
        fill: #1e1e1e;
      }

      .cls-75 {
        fill: #060506;
      }

      .cls-76 {
        fill: #434243;
      }

      .cls-77 {
        fill: #898a8b;
      }

      .cls-78 {
        fill: #2c2b2c;
      }

      .cls-79 {
        fill: #424243;
      }

      .cls-80 {
        fill: #010102;
      }

      .cls-81 {
        fill: #070706;
      }

      .cls-82 {
        fill: #343234;
      }

      .cls-83 {
        fill: #212121;
      }

      .cls-84 {
        fill: #3f3e3e;
      }

      .cls-85 {
        fill: #373738;
      }

      .cls-86 {
        fill: #0f0d0f;
      }

      .cls-87 {
        fill: #5c5c5c;
      }

      .cls-88 {
        fill: #444344;
      }

      .cls-89 {
        fill: #313031;
      }

      .cls-90 {
        fill: #525252;
      }

      .cls-91 {
        fill: #343534;
      }

      .cls-92 {
        fill: #3a3a3a;
      }

      .cls-93 {
        fill: #212122;
      }

      .cls-94 {
        fill: #323233;
      }

      .cls-95 {
        fill: #272627;
      }

      .cls-96 {
        fill: #121111;
      }

      .cls-97 {
        fill: #2d2e2e;
      }

      .cls-98 {
        fill: #373737;
      }

      .cls-99 {
        fill: #2d2c2c;
      }

      .cls-100 {
        fill: #3d3d3d;
      }

      .cls-101 {
        fill: #272727;
      }

      .cls-102 {
        fill: #484747;
      }

      .cls-103 {
        fill: #2e2e2d;
      }

      .cls-104 {
        fill: #5d5d5d;
      }

      .cls-105 {
        fill: #303030;
      }

      .cls-106 {
        fill: #434444;
      }

      .cls-107 {
        fill: #222122;
      }

      .cls-108 {
        fill: #010001;
      }

      .cls-109 {
        fill: #424343;
      }

      .cls-110 {
        fill: #505050;
      }

      .cls-111 {
        fill: #282727;
      }

      .cls-112 {
        fill: #020202;
      }

      .cls-113 {
        fill: #1e1e1f;
      }

      .cls-114 {
        fill: #181717;
      }

      .cls-115 {
        fill: #5b5b5c;
      }

      .cls-116 {
        fill: #333233;
      }

      .cls-117 {
        fill: #434443;
      }

      .cls-118 {
        fill: #020102;
      }

      .cls-119 {
        fill: #19191a;
      }

      .cls-120 {
        fill: #6f6f6f;
      }

      .cls-121 {
        fill: #1d1d1e;
      }

      .cls-122 {
        fill: #2e2e2f;
      }

      .cls-123 {
        fill: #8c888b;
      }

      .cls-124 {
        fill: #262626;
      }

      .cls-125 {
        fill: #404041;
      }

      .cls-126 {
        fill: #363535;
      }

      .cls-127 {
        fill: #808081;
      }

      .cls-128 {
        fill: #414242;
      }

      .cls-129 {
        fill: #343434;
      }

      .cls-130 {
        fill: #262727;
      }

      .cls-131 {
        fill: #242424;
      }

      .cls-132 {
        fill: #302f30;
      }

      .cls-133 {
        fill: #4a4b4b;
      }

      .cls-134 {
        fill: #040404;
      }

      .cls-135 {
        fill: #706f6d;
      }

      .cls-136 {
        fill: #2b2a2b;
      }

      .cls-137 {
        fill: #505051;
      }

      .cls-138 {
        fill: #272726;
      }

      .cls-139 {
        fill: #1e1f1f;
      }

      .cls-140 {
        fill: #2f2e2e;
      }

      .cls-141 {
        fill: #565657;
      }

      .cls-142 {
        fill: #0c0c0b;
      }

      .cls-143 {
        fill: #080808;
      }

      .cls-144 {
        fill: #3c3d3d;
      }

      .cls-145 {
        fill: #3b3b3c;
      }

      .cls-146 {
        fill: #2e2e2e;
      }

      .cls-147 {
        fill: #1f1e1e;
      }

      .cls-148 {
        fill: #6d6c6d;
      }

      .cls-149 {
        fill: #aba9ab;
      }

      .cls-150 {
        fill: #1d1c1c;
      }

      .cls-151 {
        fill: #292829;
      }

      .cls-152 {
        fill: #383837;
      }

      .cls-153 {
        fill: #282829;
      }

      .cls-154 {
        fill: #040303;
      }

      .cls-155 {
        fill: #282828;
      }

      .cls-156 {
        fill: #242425;
      }

      .cls-157 {
        fill: #353536;
      }

      .cls-158 {
        fill: #100f0f;
      }

      .cls-159 {
        fill: #4a494a;
      }

      .cls-160 {
        fill: #959395;
      }

      .cls-161 {
        fill: #1f1f1f;
      }

      .cls-162 {
        fill: #2e2d2d;
      }

      .cls-163 {
        fill: #494a49;
      }

      .cls-164 {
        fill: #1f1e1f;
      }

      .cls-165 {
        fill: #8a898a;
      }

      .cls-166 {
        fill: #383838;
      }

      .cls-167 {
        fill: #3a3a39;
      }

      .cls-168 {
        fill: #424242;
      }

      .cls-169 {
        fill: #373736;
      }

      .cls-170 {
        fill: #20201f;
      }

      .cls-171 {
        fill: #3b3a3a;
      }

      .cls-172 {
        fill: #252526;
      }

      .cls-173 {
        fill: #484849;
      }

      .cls-174 {
        fill: #494849;
      }

      .cls-175 {
        fill: #2d2d2e;
      }

      .cls-176 {
        fill: #636162;
      }

      .cls-177 {
        fill: #040304;
      }

      .cls-178 {
        fill: #474748;
      }

      .cls-179 {
        fill: #676768;
      }

      .cls-180 {
        fill: #3c3b3c;
      }

      .cls-181 {
        fill: #4b4a4b;
      }

      .cls-182 {
        fill: #767578;
      }

      .cls-183 {
        fill: #4c4b4b;
      }

      .cls-184 {
        fill: #1a191a;
      }

      .cls-185 {
        fill: #201f1f;
      }

      .cls-186 {
        fill: #515252;
      }

      .cls-187 {
        fill: #191a1a;
      }

      .cls-188 {
        fill: #040305;
      }

      .cls-189 {
        fill: #363334;
      }

      .cls-190 {
        fill: #2d2d2d;
      }

      .cls-191 {
        fill: #0a090a;
      }

      .cls-192 {
        fill: #474646;
      }

      .cls-193 {
        fill: #131314;
      }

      .cls-194 {
        fill: #191919;
      }

      .cls-195 {
        fill: #343535;
      }

      .cls-196 {
        fill: #313131;
      }

      .cls-197 {
        fill: #353535;
      }

      .cls-198 {
        fill: #4b4b4d;
      }

      .cls-199 {
        fill: #2b2c2c;
      }

      .cls-200 {
        fill: #413f41;
      }

      .cls-201 {
        fill: #333;
      }

      .cls-202 {
        fill: #181817;
      }

      .cls-203 {
        fill: #4a4647;
      }

      .cls-204 {
        fill: #171919;
      }

      .cls-205 {
        fill: #535353;
      }

      .cls-206 {
        fill: #252524;
      }

      .cls-207 {
        fill: #8f9090;
      }

      .cls-208 {
        fill: #272828;
      }

      .cls-209 {
        fill: #393938;
      }

      .cls-210 {
        fill: #090909;
      }

      .cls-211 {
        fill: #1e1d1d;
      }

      .cls-212 {
        fill: #1a1a1a;
      }

      .cls-213 {
        fill: #9c9a9c;
      }

      .cls-214 {
        fill: #302f2f;
      }

      .cls-215 {
        fill: #2f2e30;
      }

      .cls-216 {
        fill: #161616;
      }

      .cls-217 {
        fill: #262627;
      }

      .cls-218 {
        fill: #171617;
      }

      .cls-219 {
        fill: #262425;
      }

      .cls-220 {
        fill: #222;
      }

      .cls-221 {
        fill: #151314;
      }

      .cls-222 {
        fill: #414142;
      }

      .cls-223 {
        fill: #333433;
      }

      .cls-224 {
        fill: #3e3d3e;
      }

      .cls-225 {
        fill: #313130;
      }

      .cls-226 {
        fill: #434244;
      }

      .cls-227 {
        fill: #7b7b7c;
      }

      .cls-228 {
        fill: #5e5d5f;
      }

      .cls-229 {
        fill: #242525;
      }

      .cls-230 {
        fill: #49494b;
      }
    </style>
  </defs>
  <g id="Layer_1-2" data-name="Layer 1">
    <path d="M324.63,134.98h1.17c-.36-.01-.74-.02-1.17,0Z"/>
    <path d="M70.14,139.89c1.91,0,3.92.87,5.2.82,1.9-.08,3.2-2.19,6.8-1.83,4.73.47,1.4,1.38,7.24.37,5.17-.89,9.24,1.86,9.73,1.74.91-.22,1.15-2.45,1.72-2.79,1.33-.8,6.03-.23,7.61.45,1.51.65,1.1,2.24,1.21,2.31,2.09,1.41,1.86-1.78,2.63-1.99,1.18-.32,4.49-.19,5.88-.02,13.38,1.62,25.87,2.75,39.47,3.03,5.32.11,10.68-.04,16,0,1.67.01,3.33,0,5,0,.67,0,1.33,0,2,0,3.33,0,6.67.02,10,0,.67,0,1.33,0,2,0,39.16-.25,78.13-1.72,117.51-.01,9.82.43,19.68.75,29.49,1.01-2.34,5.17,3.47,4.89.99,0,4.26.38,10.44-2.05,10.02,3.99,2.53-.28.85-2.92.99-2.99.55-.26,9.16-.17,9.8.21.56.34.92,2.74,1.69,2.77.33.01,2.09-2.28,6.03-2.1,5.01.23,11.73,1.63,17.1,1.99,33.88,2.31,67.43.13,100.89-.96,1.78-.06,3.64,1.06,5.04.98,1.62-.09,2.93-2,5.94-2.03,3.25-.02,4.48,2.13,5.99,2.17.6.02.35-1.82,1.16-2.03,4.65-1.2,9.05,2.08,9.79,1.96.85-.14,1.23-1.78,1.55-1.97,2.27-1.34,5.55-3.36,8-3.01l-4.99-1.98h10.49s-2.5-1.01-2.5-1.01c-2,.03-4-.06-6,0-3.68.11-9.09.75-12-1-15.88-.06-31.91-.24-47.39.1-2.26.05-5.34,1.72-7.32,1.65-1.54-.06-2.48-1.72-3.79-1.75-1.27-.02-2.96,2.11-6,2.13-3.19.01-4.69-2.28-6.99-2.14-.83-.06-.62,1.45-.51,2.01.03.16,1.26.2,1,.99-9.23-.62-19.49.86-28.59.07-1.91-.17-1.8.04-3.41-1.06-.61-.42-.77-2.03-1.64-2.09-1.88-.13-2.98,1.75-4.64,1.83-2.03.1-5.64-1.6-8.23-1.73-21.06-1-42.51-.48-63.48-2.02-2.2-.16-2.99-.84-4-1-1.58-.26-3.5.38-5.28-.19-1.44-.46-2.5-2.57-3.2-2.58-.3,0-2.33,1.77-5,1.88-2.91.13-8.96-.91-13.04-1.03-22.64-.7-50.95-2.16-73.04-.98-1.62.09-2.94,2.03-5.94,2.03-2.77,0-4.83-2.11-5.8-1.95-1.2.19-2.16,1.93-5.2,1.95-2.78.02-5.29-2.31-5.98-2.14-.96.24-1.07,2.75-2.22,3.03-1.77.43-5.13-.09-7.3-.02-.66.02-1.33,0-2,0-1.9,0-9.3.35-10,0-.17-.09,1.76-3.23-1.49-3-1.17.08.23,2.84-1.05,3.08-2.11.39-5.95-.12-8.46-.07-.66.01-1.34.01-2,0-3.65-.08-10.4,1.72-9-3-.44-.48-10.39,5.93-11.01-.99h-.97c1.1,3.21-7.76,2.34-9.07,1.5-.89-.57-.46-2.15-1.46-2.52-2.66-.98-.14,1.91-.99,2.01-7.91.93-18.74-1.98-27-2.07-28.2-.31-83.82,13.88-96.98-18.96-4.95-12.35-7.32-60.82-4.52-73.98-.12-1.53.65-3.35-.99-3,.31,3.3-1.85,2.63-3.01,0C-2.16,54.93-.64,98.26,9.13,117.98c10.49,21.17,40.83,21.99,61.01,21.91Z"/>
    <path d="M518.31,144.46c-.57.06-1.14.21-1.68.51.55-.2,1.12-.36,1.68-.51Z"/>
    <path d="M409.25,140.15c-.87-.06-1.75-.1-2.62-.17.89.24,1.76.26,2.62.17Z"/>
    <path class="cls-112" d="M89.18,3.96c7.6.21,16.62,2.13,23.95,2.11,5.21,0,11.69-1.92,16.96-2.14,15.71-.65,34.42,1.02,51,.99,67.5-.11,134.57.37,202.08,2.01,40.62.99,81.3,1,121.91,1.09,20.99.05,45.94-2.73,66.08-1.08,2.7.22,15.88,3.64,16.46,3.03,3.75-3.97-13.11-6.86-15.45-7.04-22.32-1.69-47.35,1.05-70.08,1.08-105.96.17-211.94-2.95-318.02-3.07-23.51-.03-47.47,1.27-70.96,1.11-20.99-.15-41.63-3.96-62.73-.82-3.23.48-8.97,1.84-10.76,4.73,16.61-1.63,32.82-2.47,49.55-2.01Z"/>
    <path class="cls-16" d="M532.63,140.98h7c-1.23-2.76-5.37-.22-7,0Z"/>
    <path class="cls-16" d="M539.63,140.98c-.23.04-.51.12-.82.22.27-.06.55-.13.82-.22Z"/>
    <path class="cls-16" d="M541.63,145.9c.33.03.66.05.99.08-.34-.11-.67-.12-.99-.08Z"/>
    <path class="cls-16" d="M538.74,141.22c-1.94.64-5.04,2.09-6.11-.24-1.87.25-6.28-.52-6.99,1.99,5.11-.98,10.12.32,15.03,1.51,1.01.25,1.69,1.42,1.96,1.5,9.31,2.71,21.89,1.17,31.33,1.38,22.22.48,45.85,2.21,67.21-.33,28.05-3.34,42.39-13.08,44.46-43.05.18-2.63-.06-5.35,0-8,.06-2.38-.5-6.51-.02-8.36.3-1.13,2.52.17,2.03-2.14-.2-.94-1.43-.23-1.74-.72-.62-.96-.15-19.5-.27-22.79-.01-.33.01-.67,0-1-.79-19.8-1.7-27.2-15.03-42.47-13.08-14.99-35.61-17.18-54.45-15.51-4.44.39-11.11,1.71-14.51,4.49,9.03.05,18.1-2.12,27.48-1.49,18.51,1.25,34.75,7.1,43.93,24.07,2.68,4.96,1.26,5.13,2.09,8.4,3.41,13.49,4.22,25.9,4.53,39.97.77,34.65-2.03,59.78-42.65,62.45-6.85.45-13.33-.86-19.94.05-4.36.6-6.46-1.89-7.79-1.77-1.9.17-3.39,2.47-7.12,1.83-2.19-.37-3.71-3-4.05-3-.49,0-2.79,4.44-8.82,2.96-.86-.21-.34-2.18-2.14-2.09-3.51.16-4.03,3.32-9.76,1.02-1.07-.43-.59-2.72-3.25-1.94-.66.19-1.05,4.55-6.82,3.05-1.27-.33-.6-2.57-3.2-3.04-1.34-.24-1.49,3.15-6.95,1.97-5.82-1.26-5.94-1.13-12.55.05-1.68.3-3.29.73-5,1-.3.09-.6.17-.89.24Z"/>
    <path class="cls-16" d="M538.74,141.22c.29-.07.59-.15.89-.24-.28.08-.55.15-.82.22-.02,0-.05.02-.07.02Z"/>
    <path class="cls-16" d="M573.38,126.09c-.13-.08-.29-.12-.48-.15.16.05.32.1.48.15Z"/>
    <path class="cls-16" d="M584.56,125.98c.33.22.62.46.85.75l.22-.74c-.35,0-.71,0-1.07,0Z"/>
    <path class="cls-16" d="M632.63,61.98c.06,4.55-2.86,5.95-4,9,5.22-1.91,6.88,5.44,2.7,8.64,1.52,3.35,1.7,7.87-2.7,6.36.78.53,1.5,1.43,1.12,2.21-4.08,8.5-16.44,21.53-24.78,25.81-4.68,2.41-13.92,6.33-18.34,3.98-1.81.49-4.9,1.98-6,0-.39,2.98-3.73,3.85-5,1-2.89.13-3.57-.78-5-1-1.44,3.28-6.72,2.64-6.77-1.39-3.33,2.92-7.81.97-9.35-2.9-2.36,2.5-6.97,1.88-6.88-1.72-1.67-.64-3.78-.8-5-2-1.34-1.32-1.15-2.28-1-4-.19.04-.95-.69-1.65-.65-.98.06-3.14.84-3.34.65-.26-.26,2.37-4.51-2-6-.95.46-1.89,1.04-2.99,1,.84-4.92-2.45-2.75-6-1.99-2.1,3.13,13.38,16.83,16.74,18.75,1.16.66,4.13,1.08,4.26,1.25.23.29-3.47,5.74,2.33,3.97.74-.22.65-1.97,1.24-2.01,2.05-.13,9.55,3.55,13.43,4.02.33.04.67-.03,1,0,1.31.12,2.68-.06,4,0,3.94.19,8.06.1,12,0,2.33-.06,4.68.11,7,0,1.79-.09,3.55.06,5.36-.11,2.98-.28,8.91-3.93,8.7.04,2.88.9,2.29-2.76,3.2-3.66.59-.59,3.86-1.01,5.45-2.06,18.35-12.03,33.98-33.37,28.25-56.66-.65-2.63-1.48-2.69-3.96-2.54-.71.56-1.27,1.48-2,2Z"/>
    <path class="cls-16" d="M571.83,117.98c-.39-.02-.79-.02-1.21,0,.56.19.94.16,1.21,0Z"/>
    <path class="cls-16" d="M576.74,126.39c.19-.18.4-.35.63-.5-.36,0-.64.03-.75.1-.03.02.03.18.12.4Z"/>
    <path class="cls-16" d="M572.36,117.05c-.52.18-1.1.49-1.74.93.42-.02.82-.02,1.21,0,.3-.17.46-.5.53-.93Z"/>
    <path class="cls-16" d="M612.57,106.42c-7.24,6.86-16.62,9.01-25.94,11.56,4.43,2.35,13.66-1.57,18.34-3.98,8.34-4.28,20.7-17.32,24.78-25.81.37-.78-.34-1.67-1.12-2.21-2.37,5.29-12.26,16.85-16.06,20.44Z"/>
    <path class="cls-16" d="M580.63,117.98c-1.52.26-3.79.95-5,1,1.27,2.85,4.61,1.98,5-1Z"/>
    <path class="cls-16" d="M565.63,117.97c-.42-.37,2.24-3.94-.52-4.98-4.04-1.53-.95,3.01-3.99,3.01-6.48,0-2.91-5.56-7.87-4.02-2.33.72,1.92,2.88-5.63,0-.09,3.59,4.52,4.22,6.88,1.72,1.54,3.86,6.02,5.82,9.35,2.9.05,4.03,5.32,4.66,6.77,1.39-2.1-.32-4.8.17-5,0Z"/>
    <path class="cls-16" d="M631.11,76.95c-.47.95-2.26,1.76-2.4,2.65-.2,1.22,1.85,2.29,1.8,3.75-.04,1.06-1.17,1.76-1.67,2.33-.06.1-.12.2-.2.29,4.4,1.52,4.22-3.01,2.7-6.36,4.18-3.2,2.52-10.56-2.7-8.64,1.84,2.34,4.46,1.97,2.48,5.98Z"/>
    <path d="M364.11,57c-1.81-3.98-7.38-3.45-8.99-.03-1.32,2.8-1.1,13.84-1.94,18.06-.49,2.45-2.57,10.44-5.17,10.89-9.59-2.87-1.12-29.15-13.72-24.79-4.48,1.55-1.05,18.45-9.14,23.9-4.08,2.75-5.34-4.79-5.53-7.58-.36-5.31,2.27-11.78.79-16.77-1.15-3.9-8.22-3.64-9.35.22-2.15,7.4-2.68,25.97,2.89,31.74,7.15,7.41,16.11,2.2,21.16-4.64,12.31,16.6,25.56,3.92,28.05-11.97.45-2.87,1.7-17.33.93-19.03Z"/>
    <path d="M144.94,67.16c-3.77-12.65-13.71-11.75-22.32-4.18v-15.5c0-.37-1.47-6.75-1.72-7.28-2.34-5.11-9.21-2.33-10.1,2.49,1.11,11.57,2.16,23.18,1.86,34.83-.12,4.56-4.83,21.13,4.3,20.25,8.59-.82,4.49-14.38,6.11-19.84,2.05-6.92,10.92-13.45,12.43-1.34.72,5.82-2.59,18.26,2.36,20.65,11.97,5.76,8.9-23.95,7.07-30.08Z"/>
    <path d="M205.02,56.04c-2.97-.32-4.96.88-6.95.82-2.61-.08-6.59-4.22-9.54-.47-2.7,3.43.16,16.24.16,21.09,0,12.44-2.73,26.46-.97,38.94.53,3.74,3.22,5.67,6.87,4.07,5.7-2.5,1.88-18.88,3.14-24.42,3.14-.98,6.48-.66,9.62-1.88,16.9-6.58,13.89-36.43-2.33-38.16ZM204.18,85.03c-1.9,1.1-6.55,1.55-6.55-.55,0-3.64-.75-14.57,0-17,.21-.67,2.86-2.25,3.74-2.37,7.91-1.07,10.15,15.69,2.82,19.91Z"/>
    <path d="M76.39,94.72c18.83,8.43,37.38-12.2,21.71-26.71-4.02-3.72-19.53-9.93-9.19-16.25,4.84-2.96,6.59.54,10,.05,4.12-.59,6.15-6.29,3.41-9.54-9.82-11.69-44.88,8.11-22.18,26.69,3.64,2.98,16.52,8.25,9.95,15.01-6.48,6.66-12.64-5.56-18.56-.56-4.93,4.16.45,9.36,4.84,11.32Z"/>
    <path class="cls-16" d="M167.09,98.03c21.63-.68,21.43-47.73-2.74-42.82-15.83,3.22-19.06,43.5,2.74,42.82ZM166.33,66.11c8.87-2.53,8.39,21.18.74,21.91-7.88.75-6.63-20.23-.74-21.91Z"/>
    <path class="cls-16" d="M270.62,76.49c-1.15-14.71-7.71-24.25-21.97-13.51-.69-5.47-8.81-7.54-9.85-1.25,3.31,7.38-2.33,29.71.76,34.58,1.43,2.26,7.23,2.42,8.58-.33,2.71-5.53-2.3-15.65,2.96-23.04,7.41-10.4,9.23,1.66,9.58,8.49.24,4.72-2.22,13.04,1.68,15.35,10.31,6.13,8.69-14.96,8.27-20.3Z"/>
    <path class="cls-53" d="M548.1,19.95c-13.55,7.92-28.02,27.74-29.45,43.55-.37,4.04-.46,24.47,4.5,25.48,5.24,1.06-.4-11.26-.55-12.57-.27-2.33,2.03-3.24,2.08-4.91.02-.73-2.21.41-2.08-2.91.99-26.39,26.83-52.25,53.58-51.65,18.6.41,33.59,4.52,44.86,20.17,1.28,1.77,8.07,12.7,1.61,10.89,2.32,3.56,9.21,8.99,10.9,2.28.96-3.8-12.47-20.67-15.88-23.8-16.39-15.04-50.78-17.49-69.54-6.52Z"/>
    <path class="cls-16" d="M289.1,98.02c21.3-.72,21.07-45.94-2.73-39.8-14.72,3.8-16.35,40.44,2.73,39.8ZM294.07,70.04c5,7.25-1.94,22.84-7.18,17.69-6.61-6.49.94-26.76,7.18-17.69Z"/>
    <path class="cls-134" d="M555.67,90.16c.17.07.38-.01.56-.17-.23,0-.44.04-.56.17Z"/>
    <path class="cls-134" d="M650.97,20.13c-6.71-5.94-26.02-7.25-32.75-2.24-1.16.87-.48,1.94-.59,3.08,15.92-7.15,43.77-.85,27.99,20.5-17.24,23.33-62.19,40.87-90,46.5l2.01,1.5c-.19.61-.88.49-1.41.51-.17.16-.39.25-.56.17-.12.14-.16.38-.04.81.99.04,2-.02,2.99.01l1.29-1.96c21.65-3.1,42.16-13.15,61.47-23.06l2.23,1.02c2.3-1.34,7.35-3.82,9-5-1.64-2.27-.5-3.21,2-2,9.84-7.72,30.35-27.44,16.35-39.85Z"/>
    <path class="cls-134" d="M621.39,65.95c-19.31,9.91-39.82,19.96-61.47,23.06l-1.29,1.96c14.57.4,51.72-16.24,65-24l-2.23-1.02Z"/>
    <path class="cls-134" d="M626.04,67.15c-.54-.35-1.26-.46-2.42-.17.86.14,1.67.2,2.42.17Z"/>
    <path class="cls-134" d="M632.63,61.98c.73-.52,1.29-1.44,2-2-2.5-1.21-3.64-.27-2,2Z"/>
    <path class="cls-134" d="M538.62,93.97l4-2.98c-1.99-.05-4,.03-6-.01-.33,0-.67,0-1,0-1.36,1.73-4.81.98-7,1-9.12.07-18.24,1.36-27.25-.25-13.11-2.35-15.57-8.34-9.64-20.13,5.26-10.43,16.3-16.38,25.9-22.13,1.27-.76,2.53.2,1.97-2.48-16.27.2-45.75,26.52-34.86,43.36,7.53,11.65,37.94,7.21,49.87,5.63.85-1.62,3.4-.94,5-1,.82-.21,2.07.14,3,0-.21,0-2.43-1.8-4.01-1.01ZM531.62,94.97h-4.99v-.98h4.99v.98Z"/>
    <path class="cls-75" d="M444.61,71.98c1.04-.79,4.15-8.45,1.01-9.98,3.51-1.49,9.64-1.49,6.9-6.23-.81-1.41-3.03-.14-.91-3.78l-4.99,2.99c-.15-2.18.84-6.87-1.52-7.99-2.15-1.02-1.59,4.25-4.22,4.24.09,6.43-2.39,3.2-6.74,1.74-2.93,1.59-.48,3.77-.52,4,5.22-.46,3.95,2.93-1,2-.2.88-.78,3.61-1,4,5.42,2.19,4.14,3.97,10.99,1.01-.63,1.24-1.43,10.59,1.99,7.99Z"/>
    <path class="cls-143" d="M588.54,61.28c3.07,4.63,11.01-1.08,14.53-2.36,2.19-.79,4.61-.69,6.57-1.43,2.23-.85,9.06-4.6,3.99-6.51l-22,7.99c2.71-9.91,9.51-11.88,19-10.99v-1c-.34-.92-1.91-2.25-2-3-2.09.04-4.2-.24-6.27.23-5.38,1.21-17.61,11.36-13.82,17.08Z"/>
    <path class="cls-143" d="M610.63,46.98c.11.08.22.15.33.21-.08-.07-.19-.14-.33-.21Z"/>
    <path class="cls-3" d="M6.63,36.98c.9-4.25,5.91-17.81,8.6-20.9,5.22-5.99,12.01-6.31,18.9-8.1,1.38-.36,3.11.03,3.5-1.99C15.04,4.17,7.28,13.6,2.63,33.98c4.37-2.14,4.98-1.6,4,3Z"/>
    <path class="cls-3" d="M5.64,33.98c1.64-.35.87,1.46.99,3,.98-4.6.37-5.14-4-3,1.16,2.63,3.32,3.3,3.01,0Z"/>
    <path class="cls-210" d="M545.36,58.75c-1.28-.18-7.62-3.55-6.73.71.72,3.46,9.09,2.26,12.02,2.99,4.68,1.16,7.73,7.05,13.37,3.42,6.5-4.19-.5-11.56-5.4-13.89-1.46.01-2.57.57-3,2,2.01,1,7.99,6.78,5.99,9-5.89-3.1-9.99-3.33-16.26-4.22Z"/>
    <path class="cls-191" d="M457.51,121.87l.11-12.88c-9.4.9-13.2,2.87-13,12.99,4.6.12,8.35,1.8,12.89-.11ZM448.63,117.97c-1.59-1.59,1.4-4.58,2.99-2.99,1.59,1.59-1.4,4.58-2.99,2.99Z"/>
    <path class="cls-81" d="M524.7,143.33l-.26.42c-2.13-.05-4.17.19-6.13.71,3.51-.35,7.35,3.28,7.79,3.28.32,0,2.02-1.61,3.98-1.84,4.43-.53,5.34,1.59,7.24,1.89,1.12.18,2.66-1.66,4.31-1.89-3.29-.26-6.41-.66-9.75-1.61-4.41.59-6.56-.04-7.18-.97Z"/>
    <path class="cls-81" d="M529.86,140.3c.87.08,1.8.29,2.77.68.37-2.11,7.69-2.8,7.23-.55.86-1.46,3.42-1.6,4.77-.45-.87-2.66-2.17-1.64-3.97-1.58-4.31.15-9.09.52-13.03.58,3.45.48,3.54.91,2.23,1.32Z"/>
    <path class="cls-81" d="M519.63,139.99l4.99,1.98c-2.45-.35-5.73,1.67-8,3.01.54-.3,1.11-.46,1.68-.51,1.96-.52,4.01-.76,6.13-.71l.26-.42c-.91-1.37,1.54-3.37,5.16-3.03,1.3-.41,1.22-.84-2.23-1.32l2.5,1h-10.49Z"/>
    <path class="cls-81" d="M539.63,140.98c.05-.2.13-.38.23-.55.45-2.25-6.86-1.56-7.23.55,1.63-.22,5.77-2.76,7,0Z"/>
    <path class="cls-81" d="M539.86,140.43c-.03.17-.11.35-.23.55,1.71-.27,3.32-.7,5-1-1.35-1.14-3.91-1.01-4.77.45Z"/>
    <path class="cls-81" d="M540.67,144.48c-4.91-1.19-9.92-2.49-15.03-1.51.71-2.51,5.13-1.74,6.99-1.99-.97-.39-1.9-.6-2.77-.68-.86.27-2.31.53-3.81.8l-1.35,2.24c.62.93,2.78,1.56,7.18.97,3.34.95,6.46,1.34,9.75,1.61.33-.05.66-.03.99.08-.27-.08-.95-1.26-1.96-1.5Z"/>
    <path class="cls-81" d="M529.86,140.3c-3.62-.34-6.07,1.67-5.16,3.03l1.35-2.24c1.51-.26,2.96-.53,3.81-.8Z"/>
    <path class="cls-81" d="M539.86,140.43c-.1.17-.18.35-.23.55.13-.2.2-.38.23-.55Z"/>
    <path class="cls-81" d="M538.81,141.2c.31-.1.59-.18.82-.22h-7c1.91.67,3.97.74,6.18.22Z"/>
    <path class="cls-81" d="M538.74,141.22c-2.19.52-4.23.44-6.11-.24,1.07,2.33,4.17.88,6.11.24Z"/>
    <path class="cls-81" d="M538.74,141.22s.05-.02.07-.02c-2.21.52-4.27.45-6.18-.22,1.88.68,3.92.76,6.11.24Z"/>
    <path class="cls-142" d="M557.48,91.55c-3.2,1.18-4.96-1.98-2.06-2.48.03-.3.09-.64.21-1.09-5.81,1.18-13.28.65-19,3,6.13-1.94,8.13-.6,6,4,1.55.06,6.11-.7,8-1,.56-.18,1.04-.28,1.46-.34,1.79-.47,4.37-1.27,5.54-1.66-.14-.16-.18-.3-.15-.43Z"/>
    <path class="cls-142" d="M558.63,90.98c-.4.26-.78.44-1.15.57-.04.13,0,.27.15.43.4-.13.74-.65,1-1Z"/>
    <path class="cls-142" d="M555.63,89.03c-.08,0-.14.03-.21.04-.07.69.05,1,.25,1.09.12-.13.32-.17.56-.17.4-.37.58-1.09-.59-.96Z"/>
    <path class="cls-142" d="M555.63,89.03c1.17-.14,1,.59.59.96.53-.02,1.22.1,1.41-.51l-2.01-1.5c-.12.45-.18.79-.21,1.09.07-.01.13-.03.21-.04Z"/>
    <path class="cls-142" d="M555.42,89.07c-2.9.51-1.14,3.66,2.06,2.48.07-.25.45-.44,1.15-.57-1-.03-2,.03-2.99-.01-.12-.43-.09-.67.04-.81-.2-.09-.32-.4-.25-1.09Z"/>
    <path class="cls-142" d="M557.48,91.55c.37-.14.75-.31,1.15-.57-.7.14-1.08.33-1.15.57Z"/>
    <path class="cls-142" d="M536.63,90.98c1.99.04,4-.04,6,.01l-4,2.98c1.58-.79,3.8,1,4.01,1.01,2.13-4.6.13-5.94-6-4Z"/>
    <path class="cls-216" d="M584.28,28.33c-6.34-6.17-18.5-3.76-21.65,4.64,4.33.88,6.21-3.5,9.97-4.52,7.96-2.15,10.21,4.54,12.53,4.51,2.7-.04-.28-4.06-.85-4.62Z"/>
    <path class="cls-218" d="M558.63,51.98c-6.36-3.03-14.01-3.81-18,2.99,5.62-.27,9.12-3.91,15-.99-2.85-2.67.13-2.76,3-2Z"/>
    <path class="cls-218" d="M558.63,51.98c-2.87-.76-5.85-.67-3,2,.43-1.43,1.54-1.99,3-2Z"/>
    <path class="cls-22" d="M437.91,140.69l-.28-.72c-2.3-.28-5.19.47-7.33-.02-.8-.18-.78-1.9-1.17-2-2.92-.76-2.22,1.79-3.17,2-2.8.63-7.8.75-9.33-1.98.12,3.82-1.81.98-2,1-1.63.2-3.45.97-5.38,1.17,4.01.27,8.05.48,12.11.58,5.72-1.07,10.62-.63,16.55-.03Z"/>
    <path class="cls-22" d="M438.63,140.97c.26-.79-.97-.83-1-.99l.28.72c-5.93-.59-10.83-1.03-16.55.03-4.07-.1-8.1-.31-12.11-.58-.86.09-1.73.08-2.62-.17,1.61,1.1,1.5.89,3.41,1.06,9.09.79,19.36-.69,28.59-.07Z"/>
    <path class="cls-111" d="M466.16,73.04c-4.35-.38-4.05,4.73-4.53,7.93,4.25.1,11.83-7.3,4.53-7.93Z"/>
    <path class="cls-194" d="M389.63,82.98c-8.51.7-6.27,8.96-1.52,8,3.19-.64-.11-4.46.52-6,.28-.68.71-1.32,1-2Z"/>
    <path class="cls-181" d="M546.78,109.62l.66,1.83c-.47-2.04,2.2-4.37,4.19-2.47-.45-.49-.08-4.06-3.49-2.99-2.18,3.03-.66,4.89-5.51,3.99,1.46.67,3.14,1.25,4.15-.36Z"/>
    <path class="cls-181" d="M547.44,111.45l.19.53,4-3c-1.99-1.9-4.66.43-4.19,2.47Z"/>
    <path class="cls-181" d="M547.44,111.45l-.66-1.83c-1.01,1.6-2.7,1.03-4.15.36,1.22,1.2,3.33,1.36,5,2-.09-.17-.15-.35-.19-.53Z"/>
    <path class="cls-181" d="M547.63,111.98l-.19-.53c.04.18.1.36.19.53Z"/>
    <path class="cls-193" d="M576.16,127.07c-.89-.37-1.83-.69-2.78-.99.03.02.07.03.1.06.3.25,1.84,7.86,3.52,1.87.15-.53-.09-1.2-.25-1.62-.22.21-.42.43-.58.68Z"/>
    <path class="cls-193" d="M577.37,125.89c.96-.02,2.51.11,3.26.09v-1c-1.34.08-2.42.38-3.26.91Z"/>
    <path class="cls-193" d="M572.9,125.94c-1.36-.4-2.78-.72-4.27-.96.6,1.51,3,.79,4.27.96Z"/>
    <path class="cls-193" d="M568.63,124.98c1.49.24,2.91.56,4.27.96.19.03.35.07.48.15.96.29,1.89.61,2.78.99.17-.25.37-.47.58-.68-.09-.23-.15-.38-.12-.4.11-.06.39-.09.75-.1.83-.53,1.92-.83,3.26-.91-3.94.1-8.06.19-12,0Z"/>
    <path class="cls-217" d="M549.39,39.27c1.08-1.13,1.76-.66,1.24-3.29-6.99-.47-7.62,9.96-1.24,3.29Z"/>
    <path class="cls-140" d="M427.63,105.98c1.76-1.76,1.5-3.45-.52-5-1.63-.09-2.43,1.08-3.48,2v2c1.23.01,2.72.81,4,1Z"/>
    <path class="cls-153" d="M580.63,125.98c1.31-.03,2.62,0,3.93,0-.93-.6-2.23-.94-3.93-1,.87.28.86.62,0,1Z"/>
    <path class="cls-153" d="M585.41,126.73l-.8,2.73c3.65,1.82,4.66-1.34,3.02-4.48l-1.99,2.04c-.07-.1-.15-.19-.22-.29Z"/>
    <path class="cls-153" d="M580.63,124.98c1.7.07,3,.41,3.93,1,.36,0,.71,0,1.07,0l-.22.74c.08.09.16.19.22.29l1.99-2.04c-2.32.11-4.67-.06-7,0Z"/>
    <path class="cls-153" d="M580.63,124.98v1c.86-.38.87-.72,0-1Z"/>
    <path class="cls-114" d="M416.16,129.02c1.73.02,1.98-1.69,2.47-2.04v-1c-2.78-5.27-7.69,2.97-2.47,3.04Z"/>
    <path class="cls-123" d="M685.63,103.98c.89-1.49,2.38-3.48,3-5-.71-.8-1.05-1.8-1-3-.3.11-.47,1.46-2,0,2.04,1.5,2.04,4.16,0,8Z"/>
    <path class="cls-123" d="M685.63,103.98c2.04-3.84,2.04-6.5,0-8-.06,2.65.18,5.37,0,8Z"/>
    <path class="cls-123" d="M689.62,94.98c-.74.02-1.23.72-1.99,1-.05,1.2.29,2.2,1,3,.33-.8,1.33-3.54.99-4Z"/>
    <path class="cls-70" d="M423.9,107.25c.97-.62,2.39.06,3.73-1.27-2.4.7-3.73.37-4-1-.17,0-1.28,1.11-2,1-.31.49-2,1.08-1.96,1.48.61,5.9,3.72.12,4.23-.21Z"/>
    <path class="cls-70" d="M427.63,105.98c-1.28-.19-2.77-.99-4-1,.27,1.37,1.6,1.7,4,1Z"/>
    <path class="cls-34" d="M157.63,141.98c4.26,1.69,11.95,1.66,16,0-5.3.85-10.71.89-16,0Z"/>
    <path class="cls-34" d="M157.63,141.98c5.29.89,10.7.85,16,0-5.32-.04-10.68.11-16,0Z"/>
    <path class="cls-74" d="M546.63,104.97c.21-1.48-.02-3.43-1.51-3.99-3.76-1.4-1.99,2.09-2.49,3.99.9.31,2.85-.18,4,0Z"/>
    <path class="cls-124" d="M608.14,130.97c3.51.96,3.68-3.13,2.49-3.98-2.34-1.69-6,3.03-2.49,3.98Z"/>
    <path class="cls-7" d="M545.64,134.47c1.43,3.85,5.63-.84,3.98-2.48-.43-.43-5.27-.96-3.98,2.48Z"/>
    <path class="cls-197" d="M650.62,122.98c-.43-.43-5.27-.96-3.98,2.48,1.43,3.85,5.63-.84,3.98-2.48Z"/>
    <path class="cls-172" d="M563.63,124.98l1.49,5.01-.49-5.01c-.25.88-.58.86-1,0Z"/>
    <path class="cls-172" d="M563.63,124.98c.42.86.75.88,1,0-.33-.03-.67.04-1,0Z"/>
    <path class="cls-124" d="M628.62,136.97c1.76-2.51-4.88-4.3-4.98-1.49-.11,3.1,4.22,2.56,4.98,1.49Z"/>
    <path class="cls-14" d="M538.62,134.46c.46-2.11-3.26-3.21-3.99-2.48-1.93,1.93,3.18,6.18,3.99,2.48Z"/>
    <path class="cls-203" d="M694.62,91.98c-1.37-.63-2.8.99-2.99,1,.34.81.68,1.81,1,3,.47-.77,2.95-1.21,1.99-4Z"/>
    <path class="cls-203" d="M692.63,95.98c-.32-1.19-.66-2.19-1-3-1.46,2.08-1.77,3.46,1,3Z"/>
    <path class="cls-220" d="M578.63,134.46c.81,3.7,5.92-.55,3.99-2.48-.73-.73-4.45.37-3.99,2.48Z"/>
    <path class="cls-151" d="M645.62,129.49c-.81-3.7-5.92.55-3.99,2.48.73.73,4.45-.37,3.99-2.48Z"/>
    <path class="cls-225" d="M616.62,136.97c1.93-1.93-3.18-6.18-3.99-2.48-.46,2.11,3.26,3.21,3.99,2.48Z"/>
    <path class="cls-33" d="M635.63,121.98c-1.93,1.93,3.18,6.18,3.99,2.48.46-2.11-3.26-3.21-3.99-2.48Z"/>
    <path class="cls-197" d="M623.63,124.97c1.89,2.36,7.12-2.04,3.48-2.98-2.14-.56-4.45,1.78-3.48,2.98Z"/>
    <path class="cls-230" d="M163.11,148.98c-2.11-.46-3.21,3.26-2.48,3.99,1.93,1.93,6.18-3.18,2.48-3.99Z"/>
    <path class="cls-95" d="M622.62,130.97c1.03-1.3-3.15-5.71-3.98-2.48-.9,3.45,2.99,3.74,3.98,2.48Z"/>
    <path class="cls-31" d="M510.62,27.97c1.93-1.93-3.18-6.18-3.99-2.48-.46,2.11,3.26,3.21,3.99,2.48Z"/>
    <path class="cls-121" d="M554.61,129.98c.64-.45,1.1-3.42-.5-3.99-4.44-1.58-2.95,6.44.5,3.99Z"/>
    <path class="cls-131" d="M541.14,125.98c-2.36.52-1.48,4.53.97,3.99,2.36-.52,1.48-4.53-.97-3.99Z"/>
    <path class="cls-68" d="M226.11,146.97c2.36-.52,1.48-4.53-.97-3.99-2.36.52-1.48,4.53.97,3.99Z"/>
    <path class="cls-110" d="M237.11,146.97c2.36-.52,1.48-4.53-.97-3.99-2.36.52-1.48,4.53.97,3.99Z"/>
    <path class="cls-156" d="M260.11,146.97c2.36-.52,1.48-4.53-.97-3.99-2.36.52-1.48,4.53.97,3.99Z"/>
    <path class="cls-44" d="M271.11,146.97c2.36-.52,1.48-4.53-.97-3.99-2.36.52-1.48,4.53.97,3.99Z"/>
    <path class="cls-13" d="M105.11,147.97c2.36-.52,1.48-4.53-.97-3.99-2.36.52-1.48,4.53.97,3.99Z"/>
    <path class="cls-183" d="M118.11,147.97c2.36-.52,1.48-4.53-.97-3.99-2.36.52-1.48,4.53.97,3.99Z"/>
    <path class="cls-81" d="M509.63,137.98l12,1c-2.98-1.84-8.22-.98-12-1Z"/>
    <path class="cls-81" d="M521.63,138.98l-12-1c2.91,1.75,8.32,1.11,12,1Z"/>
    <path class="cls-185" d="M637.14,133.98c-2.36.52-1.48,4.53.97,3.99,2.36-.52,1.48-4.53-.97-3.99Z"/>
    <path class="cls-32" d="M209.11,152.97c2.36-.52,1.48-4.53-.97-3.99-2.36.52-1.48,4.53.97,3.99Z"/>
    <path class="cls-116" d="M646.11,104.97c2.36-.52,1.48-4.53-.97-3.99-2.36.52-1.48,4.53.97,3.99Z"/>
    <path class="cls-166" d="M657.14,100.98c-2.36.52-1.48,4.53.97,3.99,2.36-.52,1.48-4.53-.97-3.99Z"/>
    <path class="cls-67" d="M632.11,131.97c2.36-.52,1.48-4.53-.97-3.99-2.36.52-1.48,4.53.97,3.99Z"/>
    <path class="cls-98" d="M632.62,119.97c.62-.49,1.12-3.41-.5-3.98-4.85-1.72-1.74,5.76.5,3.98Z"/>
    <path class="cls-25" d="M571.62,131.98c-2-2-6.71,3.21,0,3.99-.14-.97.25-3.74,0-3.99Z"/>
    <path class="cls-175" d="M643.13,120.96c1.88.02,1.88-4.98,0-4.96-2.47.03-2.47,4.93,0,4.96Z"/>
    <path class="cls-98" d="M579.12,78.97c2.77-.72-.33-3.97-.99-3.97-1.95,0-3.62,5.17.99,3.97Z"/>
    <path class="cls-180" d="M533.64,53.46c1.22,3.96,5.33-3.14,4.99-3.48-.39-.38-5.53,1.74-4.99,3.48Z"/>
    <path class="cls-137" d="M650.14,59.98c-2.36.52-1.48,4.53.97,3.99,2.36-.52,1.48-4.53-.97-3.99Z"/>
    <path class="cls-105" d="M150.62,153.97c1.44-1.81-3.31-4.57-3.99-1.48-.57,2.62,3.32,2.32,3.99,1.48Z"/>
    <path class="cls-95" d="M649.64,97.46c1.05,1.57,2.14,1.74,3.98,1.51v-2.99s-3.99,0-3.99,0v1.48Z"/>
    <path class="cls-149" d="M638.63,110.98c-.05.05-.1.17-.14.34.05-.09.09-.2.14-.34Z"/>
    <path class="cls-149" d="M642.12,106.97c-2,.22-3.57,2.43-4.49,4.01h1c.6-.54,5.62-1.38,3.49-4.01Z"/>
    <path class="cls-22" d="M592.11,131.99h-1.48s0,3.99,0,3.99h2.99c.23-1.84.06-2.94-1.51-3.99Z"/>
    <path class="cls-147" d="M601.63,132.98c-2.59,2.59,3.97,5.37,3.97,1.49,0-1.03-3.36-2.11-3.97-1.49Z"/>
    <path class="cls-125" d="M43.63,121.46c.68,3.09,5.42.33,3.99-1.48-.67-.84-4.56-1.14-3.99,1.48Z"/>
    <path class="cls-228" d="M552.63,101.98c.09.15-1.35,2.59-1.01,2.99.69.83,4.49,1.18,3.98-1.47-.15-.75-1.87-1.29-1.97-1.53-.28.87-.62.86-1,0Z"/>
    <path class="cls-228" d="M553.63,101.98h-1c.38.86.72.87,1,0Z"/>
    <path class="cls-161" d="M595.63,128.46c.68,3.09,5.42.33,3.99-1.48-.67-.84-4.56-1.14-3.99,1.48Z"/>
    <path class="cls-36" d="M244.62,151.97c1.44-1.81-3.31-4.57-3.99-1.48-.57,2.62,3.32,2.32,3.99,1.48Z"/>
    <path class="cls-164" d="M616.62,123.49c-1.05-1.57-2.14-1.74-3.98-1.51v2.99s3.99,0,3.99,0v-1.48Z"/>
    <path class="cls-199" d="M175.62,152.97v-3.99s-2.99,0-2.99,0c-.23,1.84-.06,2.93,1.51,3.98h1.48Z"/>
    <path class="cls-122" d="M517.63,128.97c.67.84,4.56,1.14,3.99-1.48-.68-3.09-5.42-.33-3.99,1.48Z"/>
    <path class="cls-64" d="M560.63,107.98c-1.55-.33-2.81.71-4,1,2.01.79,3.35.46,4-1Z"/>
    <path class="cls-64" d="M560.63,107.98c-.65,1.46-1.99,1.79-4,1,1.27,3.3,5.5,2.73,4-1Z"/>
    <path class="cls-212" d="M131.12,144.99c-2.95-1.06-3.23,2.23-2.48,2.98,1.31,1.32,5.93-1.74,2.48-2.98Z"/>
    <path class="cls-155" d="M602.62,34.97c1.32-1.31-1.74-5.93-2.98-2.48-1.06,2.95,2.23,3.23,2.98,2.48Z"/>
    <path class="cls-95" d="M506.63,128.97c1.31,1.32,5.93-1.74,2.48-2.98-2.95-1.06-3.23,2.23-2.48,2.98Z"/>
    <path class="cls-187" d="M537.62,119.98c-3.93,0-3.98,3.97,0,3.99v-3.99Z"/>
    <path class="cls-83" d="M530.14,128.97c2.95,1.06,3.23-2.23,2.48-2.98-1.31-1.32-5.93,1.74-2.48,2.98Z"/>
    <path class="cls-31" d="M190.63,141.98l-1,3.99c4.01.65,3.01-.78,3-3.99-.56,1.91-1.44,1.91-2,0Z"/>
    <path class="cls-31" d="M192.63,141.98c-.67,0-1.33,0-2,0,.56,1.91,1.44,1.91,2,0Z"/>
    <path class="cls-138" d="M178.63,141.98c-.1,6.67,4.19,6.12,2,0-.56,1.91-1.44,1.91-2,0Z"/>
    <path class="cls-138" d="M180.63,141.98c-.67,0-1.33,0-2,0,.56,1.91,1.44,1.91,2,0Z"/>
    <path class="cls-90" d="M504.11,174.97c2.75-.62-.24-3.97-.99-3.97-1.96-.02-1.8,4.61.99,3.97Z"/>
    <path class="cls-56" d="M712.62,86.98c-.75-.75-4.05-.46-2.98,2.48,1.24,3.45,4.3-1.17,2.98-2.48Z"/>
    <path class="cls-109" d="M274.63,151.97h3.99c0-3.93-3.97-3.98-3.99,0Z"/>
    <path class="cls-22" d="M703.63,95.98c1-.06,2.01.07,3,0,.5-4.38-.79-3.22-4-2,2.47-.83,2.94.25,1,2Z"/>
    <path class="cls-22" d="M702.63,93.98l1,2c1.94-1.75,1.47-2.83-1-2Z"/>
    <path class="cls-2" d="M550.63,97.98c-3-2.38-5.46.84-2,2.37.91.4,1.92-.43,2-.37-2.33-.16-2.27-1.42,0-2Z"/>
    <path class="cls-2" d="M550.63,99.98v-2c-2.27.58-2.33,1.84,0,2Z"/>
    <path class="cls-170" d="M541.63,99.98c-.03-1,.03-2,0-3-1.64-.35-2.67.46-3.99,1,1.5-.21,3.68.35,4,2Z"/>
    <path class="cls-170" d="M541.63,99.98c-.32-1.65-2.5-2.21-4-2,.52,1.84,2.26,2.17,4,2Z"/>
    <path class="cls-78" d="M561.63,104.98c.77-.76,1.77-1.43,3-2-3.88-.97-2.72,1.73-3,2Z"/>
    <path class="cls-78" d="M564.63,102.98c-1.23.57-2.23,1.24-3,2l2.99,2c.58-1.8.43-2.34.01-4Z"/>
    <path class="cls-63" d="M382.62,149.98c-1.31-1.32-5.93,1.74-2.48,2.98,2.95,1.06,3.23-2.23,2.48-2.98Z"/>
    <path class="cls-198" d="M651.14,83.98c-2.75.62.24,3.97.99,3.97,1.96.02,1.8-4.61-.99-3.97Z"/>
    <path class="cls-99" d="M655.63,65.98v3.99c3.93,0,3.98-3.97,0-3.99Z"/>
    <path class="cls-47" d="M523.64,133.46c.49,1.29,3.32,2.13,3.99,1.51,2.03-1.89-5.3-4.98-3.99-1.51Z"/>
    <path class="cls-22" d="M502.14,134.97c2.95,1.06,3.23-2.23,2.48-2.98-1.31-1.32-5.93,1.74-2.48,2.98Z"/>
    <path class="cls-63" d="M539.62,17.98c-3.93,0-3.98,3.97,0,3.99v-3.99Z"/>
    <path class="cls-174" d="M458.62,131.98h-3.99c.02,3.98,3.99,3.93,3.99,0Z"/>
    <path class="cls-35" d="M409.14,134.97c2.95,1.06,3.23-2.23,2.48-2.98-1.31-1.32-5.93,1.74-2.48,2.98Z"/>
    <path class="cls-9" d="M328.63,135.98c2.35-4.38-3.89-6.26-1-1.01h-1.83c1.65.05,2.6.39,2.83,1.01Z"/>
    <path class="cls-9" d="M325.8,134.98h-1.17c1.01.17,1.8.84,4,1-.23-.62-1.18-.95-2.83-1Z"/>
    <path class="cls-171" d="M422.11,134.97c2.75-.62-.24-3.97-.99-3.97-1.96-.02-1.8,4.61.99,3.97Z"/>
    <path class="cls-196" d="M610.63,47.98c2.13.69,3.8.35,5-1-1.5-.17-3.15,1.03-4.67.21.26.24.14.5-.33.79Z"/>
    <path class="cls-196" d="M610.96,47.19c-.11-.06-.22-.13-.33-.21v1c.48-.28.59-.55.33-.79Z"/>
    <path class="cls-196" d="M610.63,47.98c.36.03,4.6,4.3,5-1-1.2,1.35-2.87,1.69-5,1Z"/>
    <path class="cls-79" d="M364.62,131.98c-1.59-1.59-4.58,1.4-2.99,2.99,1.59,1.59,4.58-1.4,2.99-2.99Z"/>
    <path class="cls-197" d="M396.63,134.97c1.59,1.59,4.58-1.4,2.99-2.99-1.59-1.59-4.58,1.4-2.99,2.99Z"/>
    <path class="cls-162" d="M469.62,18.98c-1.59-1.59-4.58,1.4-2.99,2.99,1.59,1.59,4.58-1.4,2.99-2.99Z"/>
    <path class="cls-131" d="M493.61,133.48c-.01-1.03-3.31-2.11-3.98-1.49-1.91,1.77,4,4.48,3.98,1.49Z"/>
    <path class="cls-129" d="M512.63,134.97c1.59,1.59,4.58-1.4,2.99-2.99-1.59-1.59-4.58,1.4-2.99,2.99Z"/>
    <path class="cls-18" d="M556.65,133.48c.01,1.03,3.31,2.11,3.98,1.49,1.91-1.77-4-4.48-3.98-1.49Z"/>
    <path class="cls-99" d="M649.13,134c-2.98-.03-.28,5.88,1.49,3.98.62-.67-.47-3.96-1.49-3.98Z"/>
    <path class="cls-42" d="M699.62,85.98c-2.1-.54-2.07.99-2.99,1.99l2,2c2.79-1.48,1.43-1.26.99-3.99Z"/>
    <path class="cls-88" d="M317.13,143c-1.03.01-2.11,3.31-1.49,3.98,1.77,1.91,4.48-4,1.49-3.98Z"/>
    <path class="cls-144" d="M90.65,145.48c.01,1.03,3.31,2.11,3.98,1.49,1.91-1.77-4-4.48-3.98-1.49Z"/>
    <path class="cls-158" d="M495.63,128.97c1.59,1.59,4.58-1.4,2.99-2.99-1.59-1.59-4.58,1.4-2.99,2.99Z"/>
    <path class="cls-93" d="M144.62,147.97c1.91-1.77-4-4.48-3.98-1.49.01,1.03,3.31,2.11,3.98,1.49Z"/>
    <path class="cls-23" d="M156.62,144.98c-.67-.62-3.96.47-3.98,1.49-.03,2.98,5.88.28,3.98-1.49Z"/>
    <path class="cls-147" d="M472.63,128.97c1.59,1.59,4.58-1.4,2.99-2.99-1.59-1.59-4.58,1.4-2.99,2.99Z"/>
    <path class="cls-136" d="M405.62,128.97c1.91-1.77-4-4.48-3.98-1.49.01,1.03,3.31,2.11,3.98,1.49Z"/>
    <path class="cls-136" d="M393.62,125.98c-1.59-1.59-4.58,1.4-2.99,2.99,1.59,1.59,4.58-1.4,2.99-2.99Z"/>
    <path class="cls-138" d="M198.62,148.98c-1.59-1.59-4.58,1.4-2.99,2.99,1.59,1.59,4.58-1.4,2.99-2.99Z"/>
    <path class="cls-135" d="M692.63,107.97c1.21,1.18,3.96-1.99,2.99-3.99-1.89-1.49-3.53,3.46-2.99,3.99Z"/>
    <path class="cls-85" d="M252.63,148.98c-.62.67.47,3.96,1.49,3.98,2.98.03.28-5.88-1.49-3.98Z"/>
    <path class="cls-85" d="M266.62,148.98c-1.77-1.91-4.48,4-1.49,3.98,1.03-.01,2.11-3.31,1.49-3.98Z"/>
    <path class="cls-8" d="M620.62,44.98v-3.99c-4.23.62-4.04,3.09,0,3.99Z"/>
    <path class="cls-190" d="M334.13,149c-1.03.01-2.11,3.31-1.49,3.98,1.77,1.91,4.48-4,1.49-3.98Z"/>
    <path class="cls-155" d="M429.62,152.97c.62-.67-.47-3.96-1.49-3.98-2.98-.03-.28,5.88,1.49,3.98Z"/>
    <path class="cls-68" d="M113.61,151.48c.03-2.98-5.88-.28-3.98,1.49.67.62,3.96-.47,3.98-1.49Z"/>
    <path class="cls-222" d="M135.63,150.98c-.62.67.47,3.96,1.49,3.98,2.98.03.28-5.88-1.49-3.98Z"/>
    <path class="cls-169" d="M600.62,150.98c-1.59-1.59-4.58,1.4-2.99,2.99,1.59,1.59,4.58-1.4,2.99-2.99Z"/>
    <path class="cls-128" d="M703.62,164.98c-1.59-1.59-4.58,1.4-2.99,2.99,1.59,1.59,4.58-1.4,2.99-2.99Z"/>
    <path class="cls-197" d="M49.63,116.97c1.59,1.59,4.58-1.4,2.99-2.99-1.59-1.59-4.58,1.4-2.99,2.99Z"/>
    <path class="cls-211" d="M620.13,119.96c2.98.03.28-5.88-1.49-3.98-.62.67.47,3.96,1.49,3.98Z"/>
    <path class="cls-22" d="M492.62,119.98c-1.59-1.59-4.58,1.4-2.99,2.99,1.59,1.59,4.58-1.4,2.99-2.99Z"/>
    <path class="cls-44" d="M654.13,117c-1.03.01-2.11,3.31-1.49,3.98,1.77,1.91,4.48-4,1.49-3.98Z"/>
    <path class="cls-145" d="M55.63,122.97c1.59,1.59,4.58-1.4,2.99-2.99-1.59-1.59-4.58,1.4-2.99,2.99Z"/>
    <path class="cls-172" d="M225.13,122.96c1.7.02,1.77-3.94,0-3.96-1.7-.02-1.77,3.94,0,3.96Z"/>
    <path class="cls-21" d="M530.39,87.28c.69.52-.37,2.18,1.23,1.69.4-2.46-.36-2.82-1.99-4l-3,1c.8,1.49,2.71.51,3.76,1.31Z"/>
    <path class="cls-10" d="M703.63,118.98l1,1c2.09-1.35,5.35-1.02.54-2.97-.9.31-1.1,1.56-1.54,1.97Z"/>
    <path class="cls-10" d="M704.45,120.13c.06-.05.11-.09.17-.15-.05.04-.11.09-.17.15Z"/>
    <path class="cls-163" d="M68.14,122.97c2.12.81,1.77-2.69,1.48-2.99-1.74-1.74-5.1,1.6-1.48,2.99Z"/>
    <path class="cls-160" d="M692.63,118.97c3.13.6,2.95-.46,4-2.98-3.13-.6-2.95.46-4,2.98Z"/>
    <path class="cls-5" d="M503.62,119.98c-1.74-1.74-5.1,1.6-1.48,2.99,2.12.81,1.77-2.69,1.48-2.99Z"/>
    <path class="cls-126" d="M515.62,122.97c1.07-.96-2.05-4.06-2.99-2.99-1.51,1.71,1.3,4.49,2.99,2.99Z"/>
    <path class="cls-28" d="M654.14,131.97c2.12.81,1.77-2.69,1.48-2.99-1.74-1.74-5.1,1.6-1.48,2.99Z"/>
    <path class="cls-171" d="M531.63,79.98c-1.51,1.71,1.3,4.49,2.99,2.99,1.07-.96-2.05-4.06-2.99-2.99Z"/>
    <path class="cls-15" d="M532.62,114.98c-.94-1.07-4.06,2.03-2.99,2.99,1.69,1.5,4.5-1.28,2.99-2.99Z"/>
    <path class="cls-101" d="M658.63,123.98c-1.51,1.71,1.3,4.49,2.99,2.99,1.07-.96-2.05-4.06-2.99-2.99Z"/>
    <path class="cls-1" d="M657.63,115.97c.94,1.07,4.06-2.03,2.99-2.99-1.69-1.5-4.5,1.28-2.99,2.99Z"/>
    <path class="cls-214" d="M712.62,110.98c-.94-1.07-4.06,2.03-2.99,2.99,1.69,1.5,4.5-1.28,2.99-2.99Z"/>
    <path class="cls-56" d="M694.62,65.98c-.94-1.07-4.06,2.03-2.99,2.99,1.69,1.5,4.5-1.28,2.99-2.99Z"/>
    <path class="cls-90" d="M657.14,92.97c2.12.81,1.77-2.69,1.48-2.99-1.74-1.74-5.1,1.6-1.48,2.99Z"/>
    <path class="cls-168" d="M596.63,68.97c.71.62,3.98-.49,3.97-1.49,0-2.48-5.99-.27-3.97,1.49Z"/>
    <path class="cls-89" d="M669.11,92.97c2.14-.48,1.15-3.47-.97-2.99-2.14.48-1.15,3.47.97,2.99Z"/>
    <path class="cls-60" d="M699.13,63.96c1.7.02,1.77-3.94,0-3.96-1.7-.02-1.77,3.94,0,3.96Z"/>
    <path class="cls-76" d="M457.62,57.98c-1.74-1.74-5.1,1.6-1.48,2.99,2.12.81,1.77-2.69,1.48-2.99Z"/>
    <path class="cls-1" d="M706.63,127.97c.94,1.07,4.06-2.03,2.99-2.99-1.69-1.5-4.5,1.28-2.99,2.99Z"/>
    <path class="cls-4" d="M577.62,152.97c1.07-.96-2.05-4.06-2.99-2.99-1.51,1.71,1.3,4.49,2.99,2.99Z"/>
    <path class="cls-208" d="M521.62,149.98c-1.74-1.74-5.1,1.6-1.48,2.99,2.12.81,1.77-2.69,1.48-2.99Z"/>
    <path class="cls-195" d="M162.14,125.98c-2.14.48-1.15,3.47.97,2.99,2.14-.48,1.15-3.47-.97-2.99Z"/>
    <path class="cls-153" d="M219.14,128.97c2.12.81,1.77-2.69,1.48-2.99-1.74-1.74-5.1,1.6-1.48,2.99Z"/>
    <path class="cls-72" d="M417.11,152.97c2.14-.48,1.15-3.47-.97-2.99-2.14.48-1.15,3.47.97,2.99Z"/>
    <path class="cls-49" d="M229.63,128.97c.94,1.07,4.06-2.03,2.99-2.99-1.69-1.5-4.5,1.28-2.99,2.99Z"/>
    <path class="cls-216" d="M370.62,149.98c-1.69-1.5-4.5,1.28-2.99,2.99.94,1.07,4.06-2.03,2.99-2.99Z"/>
    <path class="cls-226" d="M347.62,149.98c-1.69-1.5-4.5,1.28-2.99,2.99.94,1.07,4.06-2.03,2.99-2.99Z"/>
    <path class="cls-178" d="M323.11,152.97c2.14-.48,1.15-3.47-.97-2.99-2.14.48-1.15,3.47.97,2.99Z"/>
    <path class="cls-155" d="M240.63,128.97c.94,1.07,4.06-2.03,2.99-2.99-1.69-1.5-4.5,1.28-2.99,2.99Z"/>
    <path class="cls-224" d="M357.14,128.97c2.12.81,1.77-2.69,1.48-2.99-1.74-1.74-5.1,1.6-1.48,2.99Z"/>
    <path class="cls-122" d="M32.63,107.98c-1.51,1.71,1.3,4.49,2.99,2.99,1.07-.96-2.05-4.06-2.99-2.99Z"/>
    <path class="cls-33" d="M509.13,149c-1.7-.02-1.77,3.94,0,3.96,1.7.02,1.77-3.94,0-3.96Z"/>
    <path class="cls-106" d="M475.13,148.98c-2.69,2.07-3.36,3.7.49,3.99l-.49-3.99Z"/>
    <path class="cls-117" d="M452.11,151.97c2.14-.48,1.15-3.47-.97-2.99-2.14.48-1.15,3.47.97,2.99Z"/>
    <path class="cls-175" d="M299.13,149c-1.7-.02-1.77,3.94,0,3.96,1.7.02,1.77-3.94,0-3.96Z"/>
    <path class="cls-202" d="M288.13,149c-1.7-.02-1.77,3.94,0,3.96,1.7.02,1.77-3.94,0-3.96Z"/>
    <path class="cls-63" d="M232.62,148.98c-.94-1.07-4.06,2.03-2.99,2.99,1.69,1.5,4.5-1.28,2.99-2.99Z"/>
    <path class="cls-104" d="M611.62,43.97c2.57-2.57-3.57-4.97-2.99,0,.82-.02,2.85.14,2.99,0Z"/>
    <path class="cls-130" d="M221.62,151.97c1.07-.96-2.05-4.06-2.99-2.99-1.51,1.71,1.3,4.49,2.99,2.99Z"/>
    <path class="cls-71" d="M187.62,151.97c1.07-.96-2.05-4.06-2.99-2.99-1.51,1.71,1.3,4.49,2.99,2.99Z"/>
    <path class="cls-92" d="M54.62,38.98c-1.71-1.51-4.49,1.3-2.99,2.99.96,1.07,4.06-2.05,2.99-2.99Z"/>
    <path class="cls-99" d="M427.14,128.97c2.12.81,1.77-2.69,1.48-2.99-1.74-1.74-5.1,1.6-1.48,2.99Z"/>
    <path class="cls-29" d="M486.11,128.97c2.14-.48,1.15-3.47-.97-2.99-2.14.48-1.15,3.47.97,2.99Z"/>
    <path class="cls-184" d="M515.13,30c-1.7-.02-1.77,3.94,0,3.96,1.7.02,1.77-3.94,0-3.96Z"/>
    <path class="cls-181" d="M329.62,143.98c-1.74-1.74-5.1,1.6-1.48,2.99,2.12.81,1.77-2.69,1.48-2.99Z"/>
    <path class="cls-192" d="M294.11,146.97c2.14-.48,1.15-3.47-.97-2.99-2.14.48-1.15,3.47.97,2.99Z"/>
    <path class="cls-223" d="M71.62,146.97c1.07-.96-2.05-4.06-2.99-2.99-1.51,1.71,1.3,4.49,2.99,2.99Z"/>
    <path class="cls-229" d="M282.13,146.96c1.7.02,1.77-3.94,0-3.96-1.7-.02-1.77,3.94,0,3.96Z"/>
    <path class="cls-151" d="M248.13,143c-1.7-.02-1.77,3.94,0,3.96,1.7.02,1.77-3.94,0-3.96Z"/>
    <path class="cls-113" d="M201.63,142.98c-1.51,1.71,1.3,4.49,2.99,2.99,1.07-.96-2.05-4.06-2.99-2.99Z"/>
    <path class="cls-132" d="M522.62,24.98c-1.69-1.5-4.5,1.28-2.99,2.99.94,1.07,4.06-2.03,2.99-2.99Z"/>
    <path class="cls-39" d="M697.62,125.98c-1.69-1.5-4.5,1.28-2.99,2.99.94,1.07,4.06-2.03,2.99-2.99Z"/>
    <path class="cls-168" d="M478.63,18.98c-1.51,1.71,1.3,4.49,2.99,2.99,1.07-.96-2.05-4.06-2.99-2.99Z"/>
    <path class="cls-146" d="M481.62,134.97c1.07-.96-2.05-4.06-2.99-2.99-1.51,1.71,1.3,4.49,2.99,2.99Z"/>
    <path class="cls-52" d="M468.14,134.97c2.12.81,1.77-2.69,1.48-2.99-1.74-1.74-5.1,1.6-1.48,2.99Z"/>
    <path class="cls-45" d="M477.63,98.97c1.69,1.5,4.5-1.28,2.99-2.99-.94-1.07-4.06,2.03-2.99,2.99Z"/>
    <path class="cls-100" d="M433.14,131.98c-2.14.48-1.15,3.47.97,2.99,2.14-.48,1.15-3.47-.97-2.99Z"/>
    <path class="cls-133" d="M351.14,134.97c2.12.81,1.77-2.69,1.48-2.99-1.74-1.74-5.1,1.6-1.48,2.99Z"/>
    <path class="cls-57" d="M169.63,134.98c2.54-3.88-4.53-3.91-2,0,.56-1.9,1.44-1.9,2,0Z"/>
    <path class="cls-57" d="M167.63,134.98c.66.01,1.34.01,2,0-.56-1.9-1.44-1.9-2,0Z"/>
    <path class="cls-73" d="M90.11,22.99c-2.11-.76-1.82,2.62-1.48,2.99.97,1.05,4.57-1.88,1.48-2.99Z"/>
    <path class="cls-82" d="M463.11,24.99c-2.11-.76-1.82,2.62-1.48,2.99.97,1.05,4.57-1.88,1.48-2.99Z"/>
    <path class="cls-129" d="M65.62,25.98c-.97-1.05-4.57,1.88-1.48,2.99,2.11.76,1.82-2.62,1.48-2.99Z"/>
    <path class="cls-137" d="M94.62,31.98c-.37-.34-3.74-.63-2.99,1.48,1.11,3.09,4.03-.51,2.99-1.48Z"/>
    <path class="cls-127" d="M620.13,53.97l.49-3.99h-1.99c-.24,1.84-.04,2.91,1.5,3.99Z"/>
    <path class="cls-209" d="M694.62,56.97c1.02-1.04-1.98-4.01-2.99-2.99-1.02,1.04,1.98,4.01,2.99,2.99Z"/>
    <path class="cls-38" d="M433.63,56.98c-.12.67-.87,1.41-1,2,1.9-.84,2.23-1.51,1-2Z"/>
    <path class="cls-38" d="M433.63,56.98c1.23.49.9,1.16-1,2,4.95.93,6.22-2.46,1-2Z"/>
    <path class="cls-51" d="M428.63,61.98c-.59,3.83,1.13,4.29,2.99,1-.95-.38-1.7-1.29-2.99-1Z"/>
    <path class="cls-142" d="M528.63,91.98l7-1c-2.19.03-5.63-.74-7,1Z"/>
    <path class="cls-142" d="M535.63,90.98l-7,1c2.19-.02,5.64.73,7-1Z"/>
    <path class="cls-26" d="M711.14,101.97c2.11.76,1.82-2.62,1.48-2.99-.97-1.05-4.57,1.88-1.48,2.99Z"/>
    <path class="cls-12" d="M28.11,101.99c-2.11-.76-1.82,2.62-1.48,2.99.97,1.05,4.57-1.88,1.48-2.99Z"/>
    <path class="cls-2" d="M40.62,101.98c-.97-1.05-4.57,1.88-1.48,2.99,2.11.76,1.82-2.62,1.48-2.99Z"/>
    <path class="cls-41" d="M51.11,101.99c-2.11-.76-1.82,2.62-1.48,2.99.97,1.05,4.57-1.88,1.48-2.99Z"/>
    <path class="cls-151" d="M474.11,101.99c-2.11-.76-1.82,2.62-1.48,2.99.97,1.05,4.57-1.88,1.48-2.99Z"/>
    <path class="cls-102" d="M706.62,104.98c-2.44-.65-1.96,1.06-2.99,2.98h2.99s0-2.98,0-2.98Z"/>
    <path class="cls-53" d="M63.62,113.98c-.97-1.05-4.57,1.88-1.48,2.99,2.11.76,1.82-2.62,1.48-2.99Z"/>
    <path class="cls-20" d="M234.64,121.46c1.11,3.09,4.03-.51,2.99-1.48-.37-.34-3.74-.63-2.99,1.48Z"/>
    <path class="cls-22" d="M386.11,119.99c-2.11-.76-1.82,2.62-1.48,2.99.97,1.05,4.57-1.88,1.48-2.99Z"/>
    <path class="cls-157" d="M398.11,119.99c-2.11-.76-1.82,2.62-1.48,2.99.97,1.05,4.57-1.88,1.48-2.99Z"/>
    <path class="cls-105" d="M478.63,122.97c.97,1.05,4.57-1.88,1.48-2.99-2.11-.76-1.82,2.62-1.48,2.99Z"/>
    <path class="cls-150" d="M523.64,121.49c-.76,2.11,2.62,1.82,2.99,1.48,1.05-.97-1.88-4.57-2.99-1.48Z"/>
    <path class="cls-173" d="M141.14,126.97c2.11.76,1.82-2.62,1.48-2.99-.97-1.05-4.57,1.88-1.48,2.99Z"/>
    <path class="cls-27" d="M251.64,127.46c1.11,3.09,4.03-.51,2.99-1.48-.37-.34-3.74-.63-2.99,1.48Z"/>
    <path class="cls-6" d="M263.63,128.97c.97,1.05,4.57-1.88,1.48-2.99-2.11-.76-1.82,2.62-1.48,2.99Z"/>
    <path class="cls-186" d="M274.64,127.46c1.11,3.09,4.03-.51,2.99-1.48-.37-.34-3.74-.63-2.99,1.48Z"/>
    <path class="cls-74" d="M345.14,128.97c2.11.76,1.82-2.62,1.48-2.99-.97-1.05-4.57,1.88-1.48,2.99Z"/>
    <path class="cls-48" d="M380.14,128.97c2.11.76,1.82-2.62,1.48-2.99-.97-1.05-4.57,1.88-1.48,2.99Z"/>
    <path class="cls-152" d="M437.64,127.46c1.11,3.09,4.03-.51,2.99-1.48-.37-.34-3.74-.63-2.99,1.48Z"/>
    <path class="cls-91" d="M462.14,128.97c2.11.76,1.82-2.62,1.48-2.99-.97-1.05-4.57,1.88-1.48,2.99Z"/>
    <path class="cls-69" d="M192.63,134.98c-.37-4.18-4.94-4.18-2,0,.43-1.85,1.16-1.64,2,0Z"/>
    <path class="cls-69" d="M192.63,134.98c-.84-1.64-1.57-1.85-2,0,.67,0,1.34.02,2,0Z"/>
    <path class="cls-128" d="M373.63,134.97c.97,1.05,4.57-1.88,1.48-2.99-2.11-.76-1.82,2.62-1.48,2.99Z"/>
    <path class="cls-141" d="M386.14,134.97c2.11.76,1.82-2.62,1.48-2.99-.97-1.05-4.57,1.88-1.48,2.99Z"/>
    <path class="cls-107" d="M446.62,131.98c-.37-.34-3.74-.63-2.99,1.48,1.11,3.09,4.03-.51,2.99-1.48Z"/>
    <path class="cls-215" d="M688.64,133.46c1.11,3.09,4.03-.51,2.99-1.48-.37-.34-3.74-.63-2.99,1.48Z"/>
    <path class="cls-40" d="M685.62,139.97c1.05-.97-1.88-4.57-2.99-1.48-.76,2.11,2.62,1.82,2.99,1.48Z"/>
    <path class="cls-47" d="M215.62,145.97c1.05-.97-1.88-4.57-2.99-1.48-.76,2.11,2.62,1.82,2.99,1.48Z"/>
    <path class="cls-9" d="M306.62,143.98c-.37-.34-3.74-.63-2.99,1.48,1.11,3.09,4.03-.51,2.99-1.48Z"/>
    <path class="cls-131" d="M441.62,151.97c1.05-.97-1.88-4.57-2.99-1.48-.76,2.11,2.62,1.82,2.99,1.48Z"/>
    <path class="cls-170" d="M464.62,151.97c1.05-.97-1.88-4.57-2.99-1.48-.76,2.11,2.62,1.82,2.99,1.48Z"/>
    <path class="cls-219" d="M312.62,149.98c-.37-.34-3.74-.63-2.99,1.48,1.11,3.09,4.03-.51,2.99-1.48Z"/>
    <path class="cls-36" d="M358.62,149.98c-.37-.34-3.74-.63-2.99,1.48,1.11,3.09,4.03-.51,2.99-1.48Z"/>
    <path class="cls-101" d="M393.11,149.99c-2.11-.76-1.82,2.62-1.48,2.99.97,1.05,4.57-1.88,1.48-2.99Z"/>
    <path class="cls-201" d="M405.62,149.98c-.97-1.05-4.57,1.88-1.48,2.99,2.11.76,1.82-2.62,1.48-2.99Z"/>
    <path class="cls-66" d="M487.62,149.98c-.37-.34-3.74-.63-2.99,1.48,1.11,3.09,4.03-.51,2.99-1.48Z"/>
    <path class="cls-97" d="M565.11,149.99c-2.11-.76-1.82,2.62-1.48,2.99.97,1.05,4.57-1.88,1.48-2.99Z"/>
    <path class="cls-190" d="M588.62,152.97c1.05-.97-1.88-4.57-2.99-1.48-.76,2.11,2.62,1.82,2.99,1.48Z"/>
    <path class="cls-129" d="M611.62,151.98c-.37-.34-3.74-.63-2.99,1.48,1.11,3.09,4.03-.51,2.99-1.48Z"/>
    <path class="cls-139" d="M411.62,155.98c-.97-1.05-4.57,1.88-1.48,2.99,2.11.76,1.82-2.62,1.48-2.99Z"/>
    <rect class="cls-154" x="624.63" y="22.98" width="1.99" height="2.99"/>
    <path class="cls-94" d="M53.13,26c-.66,0-2.07,2.4-1.49,2.97,1.51,1.51,4.26-2.97,1.49-2.97Z"/>
    <path class="cls-54" d="M59.13,32c-.66,0-2.07,2.4-1.49,2.97,1.51,1.51,4.26-2.97,1.49-2.97Z"/>
    <path class="cls-5" d="M402.62,36.98c-.57-.57-2.98.83-2.97,1.49,0,2.77,4.49.02,2.97-1.49Z"/>
    <path class="cls-204" d="M538.12,48.97c.69-.14.4-.8.51-.99l-2-2c-1.72,1.63-.84,2.52,1.49,2.99Z"/>
    <rect class="cls-22" x="661.63" y="60.98" width="1.99" height="2.99"/>
    <rect class="cls-119" x="557.63" y="155.98" width="2.99" height="1.99"/>
    <path class="cls-167" d="M435.62,154.98c-1.51-1.51-4.26,2.97-1.49,2.97.66,0,2.07-2.4,1.49-2.97Z"/>
    <rect class="cls-165" x="246.63" y="154.98" width="2.99" height="1.99"/>
    <path class="cls-221" d="M388.63,84.98c2.38,2.14,5.17-2.34,1-2,1.56,1.08.92,1.9-1,2Z"/>
    <path class="cls-221" d="M389.63,82.98c-.29.68-.72,1.32-1,2,1.92-.1,2.56-.92,1-2Z"/>
    <path class="cls-192" d="M526.63,85.98c.15-1.63,1.61-1.57,3-1-1-.72-1.24-1.5-3-.99.08.62-.17,1.69,0,1.99Z"/>
    <path class="cls-192" d="M526.63,85.98l3-1c-1.39-.57-2.85-.63-3,1Z"/>
    <rect class="cls-92" x="31.63" y="84.98" width="2.99" height="1.99"/>
    <path class="cls-84" d="M532.13,150c-.66,0-2.07,2.4-1.49,2.97,1.51,1.51,4.26-2.97,1.49-2.97Z"/>
    <path class="cls-14" d="M498.62,149.98c-1.51-1.51-4.26,2.97-1.49,2.97.66,0,2.07-2.4,1.49-2.97Z"/>
    <path class="cls-35" d="M99.13,150c-.66,0-2.07,2.4-1.49,2.97,1.51,1.51,4.26-2.97,1.49-2.97Z"/>
    <rect x="37.63" y="90.98" width="2.99" height="1.99"/>
    <rect class="cls-80" x="32.63" y="95.98" width="1.99" height="2.99"/>
    <rect class="cls-34" x="166.63" y="143.98" width="2.99" height="1.99"/>
    <path class="cls-179" d="M81.13,144c-.66,0-2.07,2.4-1.49,2.97,1.51,1.51,4.26-2.97,1.49-2.97Z"/>
    <rect class="cls-58" x="682.63" y="125.98" width="2.99" height="1.99"/>
    <rect class="cls-112" x="449.63" y="125.98" width="1.99" height="2.99"/>
    <rect class="cls-118" x="367.63" y="125.98" width="1.99" height="2.99"/>
    <path class="cls-87" d="M310.13,128.96c.66,0,2.07-2.4,1.49-2.97-1.51-1.51-4.26,2.97-1.49,2.97Z"/>
    <path class="cls-115" d="M20.65,109.48c0,.66,2.4,2.07,2.97,1.49,1.51-1.51-2.97-4.26-2.97-1.49Z"/>
    <rect class="cls-24" x="55.63" y="107.98" width="1.99" height="2.99"/>
    <path class="cls-148" d="M653.63,108.99l-2.99-1.01v2.99c1.23.65,3.47-1.58,2.99-1.98Z"/>
    <rect class="cls-77" x="524.63" y="108.98" width="2.99" height="1.99"/>
    <path class="cls-83" d="M626.62,112.97c1.51-1.51-2.97-4.26-2.97-1.49,0,.66,2.4,2.07,2.97,1.49Z"/>
    <rect class="cls-227" x="688.63" y="120.98" width="2.99" height="1.99"/>
    <rect class="cls-55" x="38.63" y="113.98" width="1.99" height="2.99"/>
    <rect class="cls-207" x="349.63" y="119.98" width="2.99" height="1.99"/>
    <path class="cls-176" d="M703.63,118.98c-.52.49-1.58.71-1.99,1.51.42,3.89,1.93.54,2.82-.36-1.27,1.11-1.71.54-.83-1.15Z"/>
    <path class="cls-176" d="M704.45,120.13c.06-.06.12-.11.17-.15l-1-1c-.88,1.69-.44,2.25.83,1.15Z"/>
    <rect class="cls-19" x="663.63" y="118.98" width="2.99" height="1.99"/>
    <path class="cls-120" d="M134.63,118.98v1.99s2.99,0,2.99,0c-.34-1.45-1.61-2.29-2.99-1.98Z"/>
    <path class="cls-206" d="M32.63,119.98v1.99s2.99,0,2.99,0c-.34-1.45-1.61-2.29-2.99-1.98Z"/>
    <path class="cls-177" d="M495.64,113.98v2.99s1.98,0,1.98,0c.31-1.38-.54-2.66-1.98-2.99Z"/>
    <path class="cls-11" d="M485.13,116.96c1.5,0,1.5-2.96,0-2.96s-1.5,2.96,0,2.96Z"/>
    <path class="cls-188" d="M28.13,116.96c1.5,0,1.5-2.96,0-2.96s-1.5,2.96,0,2.96Z"/>
    <path class="cls-159" d="M646.63,114.97h1.99s-.49-2.99-.49-2.99c-1.06.91-1.82,1.52-1.5,2.99Z"/>
    <path class="cls-61" d="M690.63,111.99l-2.99-1.01c-.11,2.79,1.97,4.01,2.99,1.01Z"/>
    <path class="cls-213" d="M637.63,110.98c-.55.94-1.52,1.3-.99,3,1.45.03,1.65-1.86,1.85-2.66-.25.5-.54.39-.86-.34Z"/>
    <path class="cls-213" d="M638.49,111.32c.04-.17.08-.29.14-.34h-1c.32.73.61.84.86.34Z"/>
    <path class="cls-37" d="M61.63,125.98v1.99s2.99,0,2.99,0c-.34-1.45-1.61-2.29-2.99-1.98Z"/>
    <path class="cls-19" d="M206.63,125.98v1.99s2.99,0,2.99,0c-.34-1.45-1.61-2.29-2.99-1.98Z"/>
    <path class="cls-62" d="M338.64,134.98c1.45-.34,2.29-1.61,1.98-2.99h-1.99s0,2.99,0,2.99Z"/>
    <path class="cls-50" d="M679.62,131.98c-1.38-.31-2.66.54-2.99,1.98h2.99s0-1.98,0-1.98Z"/>
    <path d="M416.13,137l-1.5,1.98c.53-.4,1.2-.73,2-1l-.5-.98Z"/>
    <path d="M416.63,137.98c-.8.27-1.47.6-2,1,.19-.02,2.12,2.82,2-1Z"/>
    <path class="cls-9" d="M694.63,139.97c1.38.31,2.66-.54,2.99-1.98h-2.99s0,1.98,0,1.98Z"/>
    <path class="cls-37" d="M663.13,96c-1.5,0-1.5,2.96,0,2.96s1.5-2.96,0-2.96Z"/>
    <path class="cls-142" d="M539.63,94.98l-5,1c2.33-.31,3-.49,5-1Z"/>
    <path class="cls-142" d="M534.63,95.98l5-1c-1.6.06-4.15-.62-5,1Z"/>
    <path class="cls-118" d="M554.62,149.98h-1.99s0,2.99,0,2.99c1.45-.34,2.29-1.61,1.98-2.99Z"/>
    <path class="cls-46" d="M125.63,150.99h-2.99s0,1.98,0,1.98c1.38.31,2.66-.54,2.99-1.98Z"/>
    <path class="cls-205" d="M621.13,151.98c-1.06.91-1.82,1.52-1.5,2.99h1.99s-.49-2.99-.49-2.99Z"/>
    <path class="cls-185" d="M201.63,156.97c1.38.31,2.66-.54,2.99-1.98h-2.99s0,1.98,0,1.98Z"/>
    <path class="cls-86" d="M421.64,155.98v2.99s1.98,0,1.98,0c.31-1.38-.54-2.66-1.98-2.99Z"/>
    <path class="cls-59" d="M568.63,157.97h2.99s0-1.98,0-1.98c-1.38-.31-2.66.54-2.99,1.98Z"/>
    <path class="cls-189" d="M691.63,81.97h1.99s-.49-2.99-.49-2.99c-1.06.91-1.82,1.52-1.5,2.99Z"/>
    <path class="cls-191" d="M14.63,80.97h2.99s0-1.98,0-1.98c-1.38-.31-2.66.54-2.99,1.98Z"/>
    <path class="cls-17" d="M529.63,75.99h-2.99s0,1.98,0,1.98c1.38.31,2.66-.54,2.99-1.98Z"/>
    <path class="cls-126" d="M685.63,61.98c3.88,2.83,4.89-1.88,0-1,.9.18.86.52,0,1Z"/>
    <path class="cls-126" d="M685.63,61.98c.86-.48.9-.82,0-1,.01.33-.01.67,0,1Z"/>
    <path class="cls-180" d="M655.63,54.98v1.99s2.99,0,2.99,0c-.34-1.45-1.61-2.29-2.99-1.98Z"/>
    <path class="cls-40" d="M621.63,53.98v1.99s2.99,0,2.99,0c-.34-1.45-1.61-2.29-2.99-1.98Z"/>
    <path class="cls-208" d="M536.63,45.98c1.56-1.13,2.15.23,2,2,.41-.76.34-2.19,1-2.99-2.02-.4-2.1.14-3,.99Z"/>
    <path class="cls-208" d="M536.63,45.98l2,2c.15-1.77-.44-3.13-2-2Z"/>
    <path class="cls-25" d="M115.13,21.98c-1.06.91-1.82,1.52-1.5,2.99h1.99s-.49-2.99-.49-2.99Z"/>
    <path class="cls-108" d="M70.13,20c-1.5,0-1.5,2.96,0,2.96s1.5-2.96,0-2.96Z"/>
    <path class="cls-129" d="M574.11,112.99c-2.42-.9-1.45,2.31-1.75,4.06,1.61-.57,2.7.08,3.26,1.93.48-2.04,1.21-4.98-1.52-5.99Z"/>
    <path class="cls-129" d="M571.83,117.98c-.27.16-.64.19-1.21,0,1.43.22,2.11,1.13,5,1-1.05-.62-2.32-.94-3.79-1Z"/>
    <path class="cls-129" d="M572.36,117.05c-.07.43-.24.76-.53.93,1.47.06,2.74.38,3.79,1-.56-1.86-1.65-2.5-3.26-1.93Z"/>
    <path class="cls-30" d="M583.68,118.33c-.22,0-.43-.01-.65-.02l.65.09s0-.04,0-.07Z"/>
    <path class="cls-30" d="M581.64,115.49c-1,2.3,2.42.7,1.98,2.47-.96.13-2.08-.15-2.99.01l2.4.33c.22,0,.43.02.65.02-.21-2.56,1.62-2.16,2.95-.35.93-3.81-3.62-5.65-4.99-2.48Z"/>
    <path class="cls-30" d="M583.68,118.4l-.65-.09c-.82-.03-1.63-.13-2.4-.33,1.1,1.98,4.19.49,6,0-1.01.23-1.99.34-2.95.35,0,.02,0,.04,0,.07Z"/>
    <path class="cls-30" d="M583.68,118.33c.96-.01,1.94-.12,2.95-.35-1.33-1.81-3.16-2.21-2.95.35Z"/>
    <path class="cls-30" d="M580.63,117.98c.78.2,1.58.3,2.4.33l-2.4-.33Z"/>
    <path class="cls-190" d="M623.62,90.97c2.29-2.28-4.12-6.31-4.99-2.48-.55,2.45,4.34,3.13,4.99,2.48Z"/>
    <path class="cls-65" d="M624.64,83.49c-1.28,3.46,3.58,2.9,3.99,2.49-1.27-1.07-1.91-1.6-1.91-1.6,0,0,.64.53,1.91,1.6.04-.09.12-.19.2-.29.99-1.83-2.84-5.86-4.19-2.2Z"/>
    <path class="cls-65" d="M628.63,85.98c.09-.09.15-.19.2-.29-.09.1-.16.2-.2.29Z"/>
    <path class="cls-56" d="M627.11,76.97c3-.66.2-4.97-.99-4.97-2.05,0-2.05,5.64.99,4.97Z"/>
    <path class="cls-43" d="M617.62,95.43c.16-.89-1.27-2.26-1-3.44-6.66,3.35.36,6.95,1,3.44Z"/>
    <path class="cls-79" d="M622.62,80.98v-3.99s-1.48,0-1.48,0c-1.57,1.05-1.74,2.14-1.51,3.98h2.99Z"/>
    <path class="cls-107" d="M570.62,111.97c1.32-1.31-1.74-5.93-2.98-2.48-1.06,2.95,2.23,3.23,2.98,2.48Z"/>
    <path class="cls-47" d="M612.62,100.97c1.91-1.77-4-4.48-3.98-1.49.01,1.03,3.31,2.11,3.98,1.49Z"/>
    <path class="cls-92" d="M606.13,102c-1.03.01-2.11,3.31-1.49,3.98,1.77,1.91,4.48-4,1.49-3.98Z"/>
    <path class="cls-103" d="M580.62,108.98c-1.69-1.5-4.5,1.28-2.99,2.99.94,1.07,4.06-2.03,2.99-2.99Z"/>
    <path class="cls-96" d="M617.62,81.98c-2.44-.65-1.96,1.06-2.99,2.98h2.99s0-2.98,0-2.98Z"/>
    <path class="cls-182" d="M574.62,106.97l-.49-2.99c-1.06.91-1.82,1.52-1.5,2.99h1.99Z"/>
    <rect class="cls-142" x="526.63" y="93.99" width="4.99" height=".98"/>
    <path class="cls-200" d="M700.62,101.98v-4c-4.05.91-4.76,4.83,0,4Z"/>
  </g>
</svg>