<svg xmlns="http://www.w3.org/2000/svg" id="Layer_2" data-name="Layer 2" viewBox="0 0 281.83 242.02">
    <defs>
        <style>
            .cls-2{fill:#323232}.cls-3{fill:#2b2b2b}.cls-4{fill:#424143}.cls-6{fill:#191719}.cls-7{fill:#010101}.cls-9{fill:#403f3f}.cls-10{fill:#151515}.cls-12{fill:#2f2f2f}.cls-13{fill:#232323}.cls-14{fill:#292929}.cls-15{fill:#3c3c3c}.cls-17{fill:#363636}.cls-20{fill:#353435}.cls-21{fill:#3e3d3f}.cls-25{fill:#4d4c4d}.cls-26{fill:#343335}.cls-28{fill:#363736}.cls-29{fill:#454546}.cls-32{fill:#444342}.cls-33{fill:#191818}.cls-34{fill:#1c1b1c}.cls-36{fill:#3b3b3b}.cls-37{fill:#1e1e1e}.cls-38{fill:#141415}.cls-42{fill:#3e3e3e}.cls-43{fill:#212121}.cls-47{fill:#3a3a3a}.cls-49{fill:#606060}.cls-51{fill:#0a0909}.cls-52{fill:#323231}.cls-53{fill:#969597}.cls-54{fill:#373737}.cls-59{fill:#222122}.cls-60{fill:#191718}.cls-61{fill:#282727}.cls-62{fill:#020202}.cls-64{fill:#262525}.cls-65{fill:#181717}.cls-66{fill:#5b5b5c}.cls-67{fill:#333233}.cls-69{fill:#6f6f70}.cls-71{fill:#252425}.cls-73{fill:#121212}.cls-75{fill:#262626}.cls-77{fill:#333335}.cls-81{fill:#343434}.cls-84{fill:#1a1919}.cls-91{fill:#505151}.cls-96{fill:#4a4a49}.cls-97{fill:#1d1c1c}.cls-98{fill:#292829}.cls-101{fill:#282828}.cls-105{fill:#434344}.cls-106{fill:#1f1f1f}.cls-108{fill:#10100f}.cls-113{fill:#2a2a2a}.cls-115{fill:#3b3a3a}.cls-119{fill:#131313}.cls-120{fill:#484849}.cls-121{fill:#202021}.cls-122{fill:#202020}.cls-124{fill:#0a0a0a}.cls-129{fill:#191919}.cls-130{fill:#0b090a}.cls-131{fill:#616162}.cls-133{fill:#323132}.cls-134{fill:#2f2e2f}.cls-136{fill:#333}.cls-143{fill:#2f2e30}.cls-146{fill:#4a4a4b}.cls-147{fill:#070606}.cls-148{fill:#1b1b1b}.cls-149{fill:#222}.cls-150{fill:#4d4b4e}.cls-152{fill:#333334}
        </style>
    </defs>
    <g id="Layer_1-2" data-name="Layer 1">
        <path d="M15.12 191.35c.07.8.15 1.51.22 2.07.04-.6-.05-1.31-.22-2.07m14.42-65.71c-.47.08-1.02.22-1.7.41.72.08 1.28-.08 1.7-.41m78.3 49.41s.03.07.04.1c.09-.04.18-.07.27-.1h-.32Zm-92.23 6.71c-.06.06-.12.14-.18.23.14.01.27.03.4.05-.08-.09-.15-.19-.22-.28" class="cls-7"/>
        <path d="M99.16 219.04h.68c1.33-.03 2.67-.02 4 0 2.95.05 5.95-.19 8.89.12 2.36 11.22 8.09 14.49 17.05 19.49.57.32.78 1.43 1.24 2.03 1.15.22 2.3.3 3.45.22.67-.75.08-2.26.49-2.68.42-.43 3.23-.25 4.66-.93 1.39-.66 1.64-1.81 2.22-2.25-.75-1.22-2.67-2.08-4-2-3.95.25-7.16 4.67-9.01-4-2.56-.86-1.74 1.53-2.12 1.82-1.63 1.23-6.04-4.66-6.89-6.29-4.12-7.88-1.71-14.37-.98-22.53-2.61 1.13-3.75 3.7-4.99 6-.56 1.04-.25 3.43-2 4-1.12.36-3.54-.22-5 0-.62.1-1.35-.05-2 0-15.59 1.19-46.33-4.17-62.2-8.3-10.91-2.84-22.73-9.49-19.32-22.74 2.41-9.36 6.17-6.05 12.91-7.09 6.14-.94 15.56-2.18 19.98-5 2.55-1.62 4.63-4.12 7.64-5.88 1.13-.66 1.45-1.91 3.61-2.03 1.6-.09 2.04.95 2.39 1.03 7.01 1.71 11.53 6.45 17.15 8.35 4.79 1.61 13.72 3.31 18.85 3.65 4.79.32 10.13 0 15 0h5c1 0 2 .01 3 0 1.42-1.9 4.81-.76 7-1h1c-4.32-.11-11.05-2.21-15.62-2.88-3.48-.51-6.42.82-9.38-1.12-4.39-2.88-2.07-.66-7.45-.96-3.09-.17-8.43-2-11.55-3.04-1.03-.34-1.98-.59-3-1-6.42-2.54-12.02-6.71-18-10.02 2.73-5.99 5.55-.67 8.38-.93.16-.02 2.39-2.05 2.45-2.2.32-.83-2.26-5.28-2.83-5.85l-5 .99 1-2.99c-1.81-.8-3.86-2.69-5.73-.76-3.12 3.21.19 3.69 1.73 5.75-2.83 0-7.85-.86-8.69 2.66-.51 2.12 1.02 1.86-1.31 5.35-1.15 1.73-1.63 1.83-3 3-6.86 5.87-25.81 10.84-34.72 8.22-11.11-3.27-13.32-19.56-7.78-28.2 8.31 4.51-.96 15.32 7.82 19.26 2.44 1.09 1.98-.05 2.68-.28.13-.57-.19-1.75 0-2-5.51-2.49-1.15-7.58-2.04-12.45-.65-3.54-9.15-11.18-1.24-13.4 7.75-2.18 5.28 12.69 7.77 12.83 3.24-5.41 16.86-.33 17.5-.98 1.93-1.96-2.6-3.09-1.99-4.48 1.35-3.03 7.12-7.14 8.51-12.49 1.28-4.9-.17-11.72-4.02-6.03-6.08-7.91-10.28 3.09-1.49 2.52-.9 1.34-.72 5.81-1.19 6.32-.41.45-2.29.11-3.28 1.11-.22.22-.6 4.42-3.05 5.06-.2-3.19-1.53-5.82-2.5-9-1.21-3.98-4.22-11.37-4.06-15.56.09-2.31 1.98-3.74 1.97-3.96-.02-.61-2.34-1.66-2.91-2.48-2.47-3.56-.72-18.28 0-23 .86-5.66 2.32-11.53 4-17 .33-1.08.65-1.97 1-3 1.49-4.42 3.46-10.15 6-14 .5-.76.82-1.99 1.99-2 .75 1.64-.9 3.28-.99 4-.23 1.75-1.62 9.54-.99 10 2.68 1.96 4.57-2.94 4.99-5 .07-.32-.06-.68 0-1 .8-4.03 1.18-8.87 2.01-13 2.9 2.42 3.32 6.78 5.55 9.94 9.19 13.01 8.67-3.35 3.44-9.93 6.21.57 11.44 4.15 18 2.98-.33-8.05-10.87-10.06-16.99-12.49 5.79-3.99 11.21-7.79 16-13 2.06-2.25.34-3.37 5-5.5-.4-.93-1.82-2.18-2-3-1.36.6-2.66 1.35-4 2-1.49.72-13.48 8.63-13.99 8 1.76-5.07 2.47-9.57 1.99-15-5.24-2.5-4.9 1.62-6 2l-6.99 12.99-5.01-13.99c-1.42-.69-1.41-1.5-2-2-7.47.9.73 18.29 0 18.99-4.29-.43-8.21-2.07-12-3.99-9.03 0-4.06 6.55 1 8l10.99 4.99c-6.99 1.25-13.74 3.71-19.99 7.01-.07.12-1.88 1.92-2 2 3.6 4.23 12.03 1.03 17 2.01 1.28 1.24-7.91 17.3-9 19.99-1.7 4.2-2.21 6.59-3 11-1.94 10.9-2.13 20.01-1 31 .03.33-.04.67 0 1 1.62.85.94 3.4 1 5 .62 3.34.81 4.71 2 8 2.26 6.26 5.64 12.27 9 17.99-9.16 4.78-5.32-6.76-12-8.99-.26-.09-.65.04-1 0-8.48-.96-8.05 4.83-13 9-1.15.97-11.32 8.68-12 9-3.25 6.32-1.72 9.14 1 15 .65 1.41 1.33 1.96 2 3 1.73.76 2.93 2.03 3 4 3.13 3.04 3.97 3.5 8 5 .65.24 2.03-.26 3.01.46 2.77 2.03-1.25 5.8-1.79 8.26-.52 2.38-1.4 10.3-.7 12.23.6 1.67 6.45 9.67 7.98 11.05 3.35 3.02 8.28 3.63 10.54 5.52.96.8-.09 2.92 1.46 3.48.86.31.14-1.83 1.08-2.06 1.85-.47 2.99 1.02 3.42 1.07.33.03.67-.04 1 0 4.32.55 11.5.83 15.36 1.98 1.33.39.42 1.67.64 2.02.86 1.31 1.21.71 2 1 1.61-2.57 6.73-1.42 9 0 .33.02.67-.03 1 0 4.75.4 11.93 1.18 16.54 2.01 1.12.2.97.48 1.46.99.68.71.88 2.91 1.01 3 .75.53 2.31-.85 2.99-1-.92-3.04 4.17-2.09 7.32-2ZM9.82 159.05c-3.89-1.73-7.43-12.95-2.48-13.99 4.09-.86 2.04 11.57 2.48 13.99" class="cls-7"/>
        <path d="M34.82 82.69c-.03.2-.05.44-.07.71 0-.01 0-.03.01-.04.04-.26.08-.51.13-.74-.04.03-.06.05-.07.06Z" class="cls-7"/>
        <path d="M211.82 101.53c1.25-13.73-1.25-26.73-5.98-39.48-.37-1-.64-2.02-1-3-1.33-3.59-5.18-8.67-6-12-.08-.32.09-.7 0-1-3.93-5.14-7.19-10.76-11-16-1.22-1.68-2.69-3.35-4-5l-14-11c-2.89-1.07-3.71-1.83-6-3-2.38-1.21-5.03-2.11-7-4-3.97-.45-7.47-2.33-11-4l-9-2c-.33 0-.67-.02-1 0-2.1.11-5.71.64-7-1-1.99-.03-4.02-.09-6 0-8.76.39-17.33 2.01-26 3-.33.04-.67-.04-1 0-4.42 2.14-9.51 3.01-14 5 2.65-1 3.73.75 2 3 37.68-17.26 89.65-1.56 109.52 34.98 14.93 27.45 17.42 59.11.48 86.02-.99 1.57-1.73 4.51-4 5.57-1.35.63-2.42-2.99-4.5-.58-2.03 2.36 3.91 2.36.52 3.52-2.25.77-4.7.58-7.02.48-.34 1-1.26.77-2 1l2 2c.14.05.57 1.62 1.68 1.87 1.57.36 3.33-1.65 4.32-.37-5.22 5.28-6.86 9.31-14 12.5-.67.3-1.31.74-2 1-1.75.65-5.85 1.45-8 2 3.94 3.33 7.21 3.42 12 2 6.35-1.88 10.28-9.03 16.31-11.82 10.7 1.77 20.45 6.19 30.69 9.33 5.41 1.65 11.63 1.64 17.01 3.99 5.46 2.39 12.4 8.67 14 14.5.38-.21.73-.91 1-1-.65-1.39.49-4.73 2-3-.33-.74-1.28-3.72-1-3.99 1.24-.2 2.9.26 4 0 .32-.08.7.09 1 0 1.13-.34 8.01-3.4 9-4 2.61-1.58 6.43-5.7 9-8 3.32-7.07 5.06-12.32 3.91-20.41-.75-5.27-3.42-6.33-6.91-9.59-.82-.77-2.19-1.26-3-2-4.68-.33-4.23-1.49-6-4-.25-.36-.72-.63-1-1l-8-2c-.09.23-3.38 2.57-4 3-2.04 2.62-3.15 5.64-3.01 9-3.92-.98-8.99-1.59-12.99-1-.71.1-1.91.78-3 1-.51.1-1.61 1.38-2.9 1.59-4.88.81-9.99-4.7-13.1-7.59-1.65-1.53-2.48-1.89-4-4-5.86-8.12-.83-11.54-.02-20.52Zm2.67 29.37c2.11 1.77 7.38 3.53 8.37 4.63 1.49 1.67.79 4.32.98 4.52 2.01 2.11 22.92-13.25 23.01.99 7.69-1.15 3.74-17 10.49-17.03 6.54-.02.75 10.05.84 13.37.2 7.48 9.44 10.55.66 17.65 4.96.83 7.22-1.77 9-5.99-.13-1.3-.17-2.41-.14-3.34-1.3-4.11-6.45-6-4.67-11.94.66-2.19 3.78-3.95 5.34-1.72 1.06 1.52-3.25 10.26 1.47 10.01.82-2.36 1.17-4.93 3.99-6 7.54 14.98-8.77 31.77-24 29.62-3.02-.43-7.51-4.59-11.01-6.11-8.81-3.82-18.97-4.9-28.35-8.66-1.01-.4-1.8-1.99-2.6-2.29-1.31-.49-5.02.9-7.38-.55-1.02-.62-.29-3.46-3.16-4.02l-.99 2.99c-4.24-3.2 3.01-6.37 4.06-8.03.96-1.52-.67-2.88-.09-3.97.99-1.84 3.07.44 3.52 0 2.03-1.98-2.39-1.48-1.92-3.38.62-2.49 3.86-5.56 3.94-8.61 1.88-1.37 7.13 6.58 8.64 7.85Z" class="cls-62"/>
        <path d="M211.9 106.75c.09-.18.2-.36.3-.54l-.35-.18c.02.24.04.48.05.72m.95-12.36v-1.9c-.04.71-.04 1.34 0 1.9M105.15 1.07c.08-.02.26-.23.54-.54-.74.15-1.48.29-2.23.47.57.12 1.13.17 1.68.07Zm103.83 67.78c.1.16.21.3.34.42-.12-.33-.26-.66-.39-.98-.02.25-.02.45.05.56M81.83 8.05c.18.82 1.6 2.07 2 3 1.73-2.25.65-4-2-3" class="cls-62"/>
        <path d="M255.83 188.05c.34-.37.63-.72.88-1.05-.3.26-.59.59-.88 1.05m-101-4c-.56.01-1.09.06-1.6.14.42.06.94.02 1.6-.14" class="cls-7"/>
        <path d="M255.83 179.05c-.53-1.38-.99-2.17-1.37-2.83.16 1.25-1.89 1.59-2.63 1.83 1.4 1.35.79 1.95-1 1 2.93 10.67-6.93 20.72-16.46 24.04-2.82.98-17.89 4.31-19.96 3.96-1.77-.3-2.98-2.25-4.98-2.05-.27.03-.74 2.37-4.35 2.82-2.8.35-4.7-.58-6.6-.43-3.66.3-9.75 4.51-8.65-1.34-6.25 2.59-3.82-1.58-5.5-3.99-.4-.57-10.03-7.69-10.95-8.04-12.28-4.71 3.47 9.18 5.42 11.57 3.02 3.69 9.41 12.01 7.87 16.79-.37 1.15-1.96 2.32-2.82 1.67-.51-.38-1.56-7.86-5.01-6.99-.61 2.7 4.11 9.57.36 10.87-6.06 2.1-2.55-6.85-7.36-6.87-.46 4.88 2.32 10.19-4.38 9.93-2.44-.7-1.27-9.8-4.12-9.92-2.38-.09-.62 7.27-2.43 8.54-2.43 1.7-6.07.14-8.07-1.56-1.22-1.04-1.87-.77-2-3-.16-2.75 1.81-4.37 1.76-6.32-.07-2.64-3.63-9.93-4.48-13.45-.42-1.75-2.05-8.84-2.06-9.94 0-6.4 24.27-9.08 29.79-10.78 7.06-2.17 18.28-8.51 25.49-8.51h16.5c-1.79-3.64-8.73-4.73-12.51-4.98-6.53-.44-18.42 2.08-24.76 4.2-1.87.63-2.66 2.79-4.36 3.64-6.29 3.11-14.15 3.25-21.36 5.14-1.77.47-4.11 1.43-6 2-1.98.6-3.97.62-5.27 1.05-1.05.35-.41 2.27-2.16 1.99-1.38-.23-5.61-2.57-7.77-3.34-1.8-.64-4.54-.33-5.57-.94-.56-.33-1.72-3.76-2.73-3.74-.55 0-1.56 2.68-3.76 2.74-2.93.08-5.91-2.31-7.5-2.52-12.53-1.68-28.22-3.01-40.71-4.19-2.35-.22-4.62-1.73-6.19-1.79-1.25-.05-6.78 2.26-7.32 3.27-.95 1.79 2.74 2.02 3.77 2.2 8.1 1.38 17.94 3 25.99 4.02 10.88 1.38 42.23 1.45 49.18 7.82 4.26 3.9 4.19 16.64 5.05 22.45.14.95 2.15 4.84 1.01 6-.52.52-4.23-1.11-4 .99l6.99 2.51c-3.16 3.12-3.96-.16-4.22-.25-.49-.17-.73.78-.78.76v2c.32.77.52 1.39.59 1.88 1.17.44 3.5-.25 4.41 2.12.25.64-.09 1.82.51 2.95 1.76 3.34 3.82.82 5.93 1.09.91.11 1.39.93 1.56.96.33.05.67-.04 1 0 4.58.59 9.35 1.54 14 1 1.77-.21 9.26-2.27 11-3 .7-.29 2.78-2.25 4-3 .65-.4 1.2-.91 2-1 .13-1 1.83-1.67 2-2 .22-.41.86-.71 1-1 1.52-3.17.88-7.59 1-11.01.66-.05 1.34.05 2 0 .33-.02.67 0 1 0 3.04-1.96 8.15-.83 12-1 .33-.01.67.01 1 0 .16-.03.3-.04.44-.06 2.19-.43 6.9-2.94 8.56 1.06.34-1.56 5.66-2.6 7-3 .51-.32.99-.42 1.46-.39 3.49-.83 6.53-.85 9.54-1.61.32-.08.7.09 1 0 4.13-1.25 14.77-9.08 17-13 1.26-2.2 2.71-7.36 3-10 .31-2.84-.22-6.09 0-9Z" class="cls-7"/>
        <path d="M223.83 213.05c1.21.3 2.35.47 3.44.52-.62-.5-1.28-.85-1.98-.9-.48.11-.97.24-1.46.39Zm-15.55 1.94c-.16.03-.31.05-.44.06.95.22 1.95.39 2.98.54-.11-.55-.67-.84-2.54-.6m-17.16 12.21c-.1-.05-.2-.11-.29-.16.06.16.16.19.29.16m61.81-27.55c.05-.52.04-1.05-.09-1.6-.17.62-.1 1.15.09 1.6m-19.8 12.6c.6-.34 1.17-.73 1.7-1.2-.75.17-1.29.63-1.7 1.2m18.7-34.2c-.27.09-.62.79-1 1 1.79.95 2.4.35 1-1" class="cls-7"/>
        <path d="M279.83 169.05c-.85-.19-2.06.13-3 0-.14.14-1.4-.17-2.01.5-.87.95-.85 2.37-.99 2.5.28 4.03.56 5.82 5 5 .71-.38 2.61-1.54 3-2v-5c-.08-.08-1.89-.98-2-1" class="cls-129"/>
        <path d="M256.86 182.97c.4-1.7-.54-2.66-1.02-3.92l.53 3.74c.18.05.34.11.49.18m-.14 4.02c1.97-1.72 3.88.13 3.12-4.95l-2.88.97c1.36.67 1.28 1.99-.24 3.98" class="cls-77"/>
        <path d="m256.96 183.02-.12.04s0-.06.01-.09c-.15-.07-.31-.13-.49-.18l-.53-3.74c-.22 2.91.31 6.16 0 9 .29-.46.59-.79.88-1.05 1.52-1.99 1.6-3.31.24-3.98Z" class="cls-77"/>
        <path d="M269.83 207.05c-1.47 1.61-1.82 4.95 1 4 .36-1.39.02-2.72-1-4" class="cls-122"/>
        <path d="M269.83 207.05c1.02 1.28 1.36 2.61 1 4 .27-.25 1.91-.11 2.53-.94 1.59-2.12-1.52-3.47-3.53-3.06" class="cls-122"/>
        <path d="M46.34 224.06c-2.61.7-1.42 4.9 1.98 3.98 2.61-.7 1.42-4.9-1.98-3.98" style="fill:#383838"/>
        <path d="M265.83 217.05c.05-.1 1.56-.82 2-1-2.65-.39-2.53-1.17 0-2-4.38-2.05-4.22-.05-4.63 1.28 1.01-1.33 2.87-.47 2.63 1.72" class="cls-12"/>
        <path d="M267.83 216.05c.13-.58-.2-1.67 0-2-2.53.83-2.65 1.61 0 2" class="cls-12"/>
        <path d="M263.21 215.33c-.08.28-.19.54-.37.72l3 1c.25-2.18-1.62-3.04-2.63-1.72" class="cls-12"/>
        <path d="M214.84 226.53c.6 2.74 6.71.58 4.99-1.47-.87-1.04-5.62-1.39-4.99 1.47" style="fill:#535354"/>
        <path d="M224.32 218.06c-3.45-1.28-2.91 3.55-2.48 3.98 1.64 1.65 6.34-2.55 2.48-3.98" class="cls-15"/>
        <path d="m8.84 208.55.99 2.49c8.13-.01 1.5-7.17-.99-2.49" class="cls-47"/>
        <path d="M12.83 195.05c-.52.18-1.52-.15-2.34.15-2.91 1.07-1.74 3.89 1.34 3.85-1.38-1.25-1.04-2.58 1-4" class="cls-149"/>
        <path d="M12.83 195.05c-2.04 1.42-2.38 2.75-1 4 1-1.39 2.38-2.45 1-4" class="cls-149"/>
        <path d="M273.81 196.55c-1.23-1.88-2.89-1.62-4.97-1.49v2.99c2.09.12 3.75.38 4.97-1.49Z" style="fill:#232222"/>
        <path d="M256.84 209.53c.81 3.7 5.92-.55 3.99-2.48-.73-.73-4.45.37-3.99 2.48" style="fill:#30302f"/>
        <path d="M266.83 189.56c-.81-3.7-5.92.55-3.99 2.48.73.73 4.45-.37 3.99-2.48" style="fill:#3d3c3d"/>
        <path d="M75.83 220.05c.18.14-.75 3.56 3 1.5.61-.33.81-1.42 1-1.5-1.3.24-2.63.24-4 0" class="cls-120"/>
        <path d="M75.83 220.05c1.37.24 2.7.24 4 0-1.16-2.78-2.93-2.65-4 0" class="cls-120"/>
        <path d="M237.83 219.56c-.81-3.7-5.92.55-3.99 2.48.73.73 4.45-.37 3.99-2.48" style="fill:#323233"/>
        <path d="M56.83 225.57c-.4 1.67 1.89 2.18 2 2.48h2c-.67-3.3-3.06-6.44-4-2.48" class="cls-12"/>
        <path d="M203.88 225.71c-.46 1.38.82 1.93.95 2.34.47-1.31 1.14-2.64 2-4-1.04.4-2.38-.03-2.95 1.66" class="cls-66"/>
        <path d="M206.83 224.05c-.86 1.36-1.53 2.69-2 4 2.89-.09 3.76-1.78 2-4" class="cls-66"/>
        <path d="M226.85 226.55c0 2.08 5.81 2.16 4.97-1.49-1.38-.35-4.98.15-4.97 1.49" style="fill:#383837"/>
        <path d="M101.92 220.47c-.71.04-1.43-.43-2.08-1.43v1l1.49 2.97c.63-.87 1.9-.67 2.51-.97-1.4-.05-2.06-.82-1.92-1.57" class="cls-28"/>
        <path d="M99.83 219.05c.66 1 1.37 1.47 2.08 1.43.12-.6.74-1.2 1.92-1.43-1.33-.02-2.67-.03-4 0" class="cls-28"/>
        <path d="M101.92 220.47c-.15.76.52 1.52 1.92 1.57v-3c-.61.92-1.26 1.39-1.92 1.43" class="cls-28"/>
        <path d="M101.92 220.47c.66-.04 1.31-.5 1.92-1.43-1.18.23-1.8.82-1.92 1.43" class="cls-28"/>
        <path d="M51.83 219.05c-.02.09-1.36.29-1 1.47.6 1.99 3.95 2.13 4.97.03-.34-.45-.81-.96-.97-1.5.19 2.16-2.66 2.14-3 0" class="cls-101"/>
        <path d="M54.83 219.05h-3c.34 2.14 3.19 2.16 3 0" class="cls-101"/>
        <path d="M210.83 218.05c-3.73 1.11-1.21 5.19 1.04 3.52.87-.56.66-2.09.96-2.52-1.74 1.79-2.41 1.48-2-1" class="cls-26"/>
        <path d="M210.83 218.05c-.41 2.48.26 2.79 2 1-.44-.36-1.9-.76-2-1" class="cls-26"/>
        <path d="M40.35 218.05c-2.36.52-1.48 4.53.97 3.99 2.36-.52 1.48-4.53-.97-3.99" style="fill:#252525"/>
        <path d="M29.65 219.1c.39-.42.79-.79 1.19-1.06-1.2-.21-1.14-2.08-1-3-.35.08-.69.86-1 1 .53.68.9 1.96.81 3.06m-1.82 1.95v1c.11-.34.27-.7.46-1.05-.14.03-.29.05-.46.05" class="cls-53"/>
        <path d="M29.65 219.1c-.07.91-.47 1.7-1.35 1.89-.19.35-.35.71-.46 1.05.77-.03 2.86.16 3 0 .26-.29-.16-3.01 0-4.01-.39.27-.8.64-1.19 1.06Z" class="cls-53"/>
        <path d="M29.65 219.1a9.3 9.3 0 0 0-1.35 1.89c.88-.2 1.28-.98 1.35-1.89" class="cls-53"/>
        <path d="M28.29 221c.36-.67.84-1.33 1.35-1.89.09-1.09-.28-2.37-.81-3.06l-1 5c.17 0 .32-.02.46-.05" class="cls-53"/>
        <path d="M16.83 214.05c-1.3 3.29.1 1.57 1 3 .31-1.04-.02-2.04-1-3" class="cls-65"/>
        <path d="M16.83 214.05c.98.96 1.31 1.96 1 3 4.57-.55 2.95-3.34-1-3" class="cls-65"/>
        <path d="M18.83 201.05c-2.77-.51-4.17 3.26-1.46 3.99.76.21 1.98-.97 2.46-.99-2.4-.41-2.67-1.25-1-3" class="cls-42"/>
        <path d="M19.83 204.05c-.17-1.04-.42-2.1-1-3-1.67 1.75-1.4 2.59 1 3" class="cls-42"/>
        <path d="M262.84 202.56v1.48h3.99v-2.99c-1.84-.23-2.94-.06-3.99 1.51" style="fill:#242422"/>
        <path d="M62.84 219.56c-.57 2.62 3.32 2.32 3.99 1.48 1.44-1.81-3.31-4.57-3.99-1.48" style="fill:#272727"/>
        <path d="M142.83 241.05c.11.01.52.91 1.48.97 1.14.07 2.02-.91 2.52-.97-1.42-.91-2.58-.71-4 0" class="cls-61"/>
        <path d="M142.83 241.05c1.42-.71 2.58-.91 4 0 1.09-2.97-4.91-3.23-4 0" class="cls-61"/>
        <path d="M70.34 225.06c-2.39.62-1.02 3.76 1.98 2.98 2.39-.62 1.02-3.76-1.98-2.98" class="cls-2"/>
        <path d="M113.83 231.05c-.16 1.91-3 5.24 3 2-1.92.99-2.84-.15-3-2" class="cls-21"/>
        <path d="M113.83 231.05c.16 1.85 1.08 2.99 3 2-.85-.82-1.01-2.24-3-2" class="cls-21"/>
        <path d="M243.83 225.05h-3.99c.02 3.98 3.99 3.93 3.99 0" style="fill:#090908"/>
        <path d="M107.83 225.05c-.44.39-2 .96-1.98 1.5.03 1.07 2.76 1.89 3.98 1.5-1.27-.69-1.94-1.69-2-3" class="cls-10"/>
        <path d="M107.83 225.05c.06 1.31.73 2.31 2 3 .04-2.37.67-3.47-2-3" class="cls-10"/>
        <path d="M82.34 225.04c-1.66.21.46 2.78.49 3.01h2c0-1.05 1.96-3.57-2.49-3.01" style="fill:#212021"/>
        <path d="M258.83 219.05c-.97.92-2.55.88-2 2.99 1.29-.11 2.74.19 4 0-2.21.06-2.28-1.03-2-3Z" class="cls-71"/>
        <path d="M258.83 219.05c-.28 1.97-.21 3.06 2 3-.01-1.46-.57-2.57-2-3" class="cls-71"/>
        <path d="M249.83 221.05c-.6-1.66-2.94-2.92-4-1.99-.82.72 1 2.84 1 2.99-.93-2.3 1.58-2.34 3-1" class="cls-75"/>
        <path d="m246.83 222.05 3-1c-1.42-1.34-3.93-1.3-3 1" class="cls-75"/>
        <path d="M198.83 218.05c-2.76.91-1.24 1.83-.99 4.01.79-.68 2.46-.69 2.99-1.01-1.69.18-2.83-1.33-2-3" class="cls-67"/>
        <path d="M198.83 218.05c-.83 1.67.31 3.18 2 3 .5-1.71-1.96-2.83-2-3" class="cls-67"/>
        <path d="M259.32 195.06c-2.95-1.06-3.23 2.23-2.48 2.98 1.31 1.32 5.93-1.74 2.48-2.98" style="fill:#29282a"/>
        <path d="M250.84 216.04h3.99c0-3.93-3.97-3.98-3.99 0" style="fill:#151414"/>
        <path d="M45.83 213.05c-2.29 3.13.51 2.74 3 2-1.23-.37-2.23-1.04-3-2" class="cls-61"/>
        <path d="M48.72 213.26c-.26-.09-.52-.17-.78-.25-.57 0-1.31.17-2.1.04.77.96 1.77 1.63 3 2 .18-1 .11-1.52-.12-1.78Z" class="cls-61"/>
        <path d="M47.93 213.01c.26.09.52.17.78.25-.17-.2-.45-.26-.78-.25" class="cls-61"/>
        <path d="M25.83 211.05c.36-.3.64-.7 1-1-2.71-.36-3.04-.03-1 1" class="cls-133"/>
        <path d="M25.2 208.21c-3.73-1.34-3.64 4.07.64 2.83-2.04-1.03-1.71-1.36 1-1-.12-.04-.54-1.44-1.64-1.83" class="cls-133"/>
        <path d="M94.84 228.04c1.59 1.59 4.58-1.4 2.99-2.99s-4.58 1.4-2.99 2.99" style="fill:#5e5f5e"/>
        <path d="M105.84 238.05h3.99v1.99h-3.99z" style="fill:#2e2e2e"/>
        <path d="M119.83 238.05v1c1.4 1.43 1.4 1.1 0-1m-.22 1.67.22-.67c-.13.25-.19.47-.22.67" class="cls-148"/>
        <path d="M122.84 240.54c-.06-2.66-2.88-2.32-3.01-2.49 1.4 2.1 1.4 2.43 0 1l-.22.67c-.27 1.85 3.26 1.81 3.23.82" class="cls-148"/>
        <path d="M34.83 226.05c.39.21.06 1.8 2.01.51 1.38-.92.79-1.27 0-2.51.03 1.29-.84 1.72-2 2Z" class="cls-150"/>
        <path d="M34.83 226.05c1.16-.28 2.03-.71 2-2-2.12-.24-2.24-.13-2 2" class="cls-150"/>
        <path d="m243.83 214.05-3 2c2.12.4 2.1-.89 3-2" class="cls-98"/>
        <path d="m240.83 216.05 3-2c-2.89-2.02-3.36-1.26-3 2" class="cls-98"/>
        <path d="M12.83 185.05h-3c.93.34 1.29 1.54 3 0m-3 0h3c-.77-1.78.14-4.46-3 0" style="fill:#525153"/>
        <path d="M195.83 227.05c.1-.22.09-1.81 0-2-1.07.73-1.07 1.4 0 2" class="cls-3"/>
        <path d="M195.83 227.05c-1.07-.6-1.07-1.27 0-2-4.38-.73-4.52 2.69 0 2" class="cls-3"/>
        <path d="M144.83 171.05c.19-.1.37-.18.54-.26 1.01-.61 1.43-1.61 4.46-1.74.83-.04 1.75.08 2 1-.51-3.17 6.76-5.12 10.44-5.81-.87-.41-1.46-1.02-1.59-1.84-.99 2.12-5.65 2.65-7.92 2.41-7.34 4.25-16.94 5.23-25.39 4.82 2.76.6 5.56 1.06 8.41 1.35l1.05 2.07c.84-2.58 5.88-3.96 8-2m-27.04-1.4c-2 .03-4-.12-5.96-.6 2.09.63 4.07.82 5.96.6m51.62-5.07c.14-.03.28-.06.42-.1-.14.04-.28.07-.42.1" class="cls-51"/>
        <path d="M127.38 169.63c-1.57-.08-3.1-.19-4.56-.35-1.66.2-3.34.35-5.02.38-1.88.22-3.87.03-5.96-.6 2.96 1.94 5.9.61 9.38 1.12 4.57.67 11.3 2.77 15.62 2.88l-1.05-2.07c-2.85-.28-5.65-.75-8.41-1.35Zm33.31-7.23c.13.82.72 1.43 1.59 1.84.34-.06.65-.12.92-.16 2.28.74 4.35.9 6.21.5.14-.03.28-.07.42-.1 1.07-.29 2.08-.76 3.01-1.43-4.79 1.42-8.06 1.33-12-2 .11.51.04.96-.15 1.35" class="cls-51"/>
        <path d="M153.43 163.12c-.89-.16-.52-1.99-.61-2.06-2.35-1.81-1.77 2.58-2.95 3.5-2.01 1.55-20.46 3.95-23.59 3.54-2.11-.27-4.23-2.21-4.42-2.06-.14.12 0 2.32-1.63 2.87-2.23.76-5.9-.21-8.39.13 1.96.48 3.96.63 5.96.6 1.52-.18 2.98-.61 4.37-1.34 1.72.51 3.46.94 5.22 1.32 8.44.41 18.05-.57 25.39-4.82 2.27.23 6.93-.3 7.92-2.41-.06-.4-.03-.85.15-1.35-1.85.47-6.22 2.29-7.4 2.08Z" class="cls-51"/>
        <path d="M127.38 169.63c-1.75-.38-3.5-.81-5.22-1.32a12.3 12.3 0 0 1-4.37 1.34c1.68-.02 3.36-.17 5.02-.38 1.46.16 3 .28 4.56.35Zm33.31-7.23c.19-.4.26-.84.15-1.35-.17.51-.21.95-.15 1.35m-15.86 8.65c.2-.07.38-.16.54-.26-.17.07-.35.16-.54.26m-8 2c3.47.09 5.04-.96 8-2-2.12-1.96-7.16-.58-8 2m32.58-8.47c-2.41.53-5.35.5-7.13-.34-3.68.69-10.95 2.64-10.44 5.81.52-.51 12.7-4.68 13.72-4.81 3.58-.43 4.1 2.61 7.28-2.19-.63.62-1.73 1.11-3.01 1.43-.14.04-.28.07-.42.1" class="cls-51"/>
        <path d="M172.83 163.05c-.93.68-1.93 1.15-3.01 1.43 1.28-.33 2.37-.82 3.01-1.43m-3.42 1.53c-1.86.4-3.93.24-6.21-.5-.27.04-.59.1-.92.16 1.79.85 4.72.88 7.13.34" class="cls-51"/>
        <path d="M27.23 156.05h.03zm.03 0h-.03c-.12-.01-.25-.02-.4 0-.19.25.13 1.43 0 2 1.11-1.23 1.25-1.89.43-1.99Z" class="cls-73"/>
        <path d="M42.83 151.56c-.45-2.12-6.5-1.71-8.29-1.3-3.47.8-4.16 3.24-6.08 5.44-.42.48-1.55.25-1.62.34h.43c1.6.1 1.11 1.04-.43 1.99 2.57-.86 4.99-2.7 7.94-3.56 1.98-.58 8.74.3 8.06-2.92Z" class="cls-73"/>
        <path d="M27.26 156.05c.82.1.68.76-.43 1.99 1.53-.95 2.02-1.9.43-1.99m-.43 0h.4z" class="cls-73"/>
        <path d="M138.38 232.7c1.4-.78 3.06-.9 3.69-.1.35-.72.93-1.32 1.64-1.72-.41-.16-.73-.39-.96-.68-.6.03-1.57-.35-2.92-1.16.63.39 1.14 1.11 1.99 1.01v.98c-1.27-.41-3.37 1.04-3.99 1.01.6.2.77.42.55.66" class="cls-124"/>
        <path d="M142.07 232.6c-.63-.8-2.29-.68-3.69.1-.1.11-.28.22-.55.34 1.33-.08 3.25.78 4 2-.23-.88-.11-1.72.24-2.44m.68-2.39c.22.29.54.51.96.68 1.21-.68 2.78-.77 4.13.16-.9-2.37-3.24-1.68-4.41-2.12.13.82-.1 1.25-.67 1.28Z" class="cls-124"/>
        <path d="M143.71 230.88c-.71.4-1.29 1-1.64 1.72.38.47.39 1.26-.24 2.44 1.98-1.48 3.49-3.67 6-4-1.85.25-3.22.2-4.13-.16Z" class="cls-124"/>
        <path d="M142.07 232.6c-.35.72-.47 1.56-.24 2.44.63-1.18.61-1.97.24-2.44m1.64-1.72c.91.36 2.28.41 4.13.16-1.35-.93-2.92-.84-4.13-.16m-3.88-1.83c1.35.81 2.32 1.2 2.92 1.16-.53-.69-.5-1.74.08-3.16-.77 1.25-1.34 2.35-3 2m-2 3v1c.17-.13.36-.24.55-.34.23-.24.05-.46-.55-.66" class="cls-124"/>
        <path d="M138.38 232.7c-.19.1-.37.22-.55.34.27-.12.44-.23.55-.34m4.37-2.49c.58-.03.8-.46.67-1.28-.57-.21-.86-.68-.59-1.88-.59 1.42-.61 2.47-.08 3.16" class="cls-124"/>
        <path d="M34.26 89.43c.09-2.23.25-4.33.48-5.9 0-.04 0-.08.01-.12-.59 1.87-.72 3.99-.49 6.02m.31 12.63c-.17-1.02-.29-2.67-.35-4.62-.16 1.47-.04 3.01.35 4.62" class="cls-38"/>
        <path d="M34.22 97.44c-.08-2.43-.07-5.32.04-8.01-.23-2.03-.1-4.15.49-6.02.02-.27.05-.51.07-.71 0-.01.03-.03.07-.06.12-.63.26-1.12.41-1.45-.24-.16-.44-.5-.46-1.14-.72 4.72-2.47 19.44 0 23-.1-.17-.19-.52-.27-.99-.4-1.6-.51-3.14-.35-4.62" class="cls-38"/>
        <path d="M34.85 95.71c.18-.8 1.9-.78 2-1.17.76-2.92-1.79-2.22-2-3.17-.33-1.43-.29-5.6-.12-7.84-.23 1.58-.39 3.67-.48 5.9.17 1.5.52 2.96 1.03 4.23-.58 1.21-.93 2.47-1.07 3.79.06 1.94.18 3.59.35 4.62.08.33.16.65.27.99.28-2.3-.47-5.19.02-7.33Zm1.1-14.93c.33.22.08.51-.25.53q-.36.585-.63 1.23c.99-.54 4.42-2.15-.23-2.48l.85.69a.28.28 0 0 1 .26.04Z" class="cls-38"/>
        <path d="M35.69 81.3c.34-.01.58-.3.25-.53a.28.28 0 0 0-.26-.04l.24.2c-.08.12-.15.25-.23.37" class="cls-38"/>
        <path d="M35.69 81.3c.08-.12.15-.25.23-.37l-.24-.2c-.14.04-.27.19-.38.45.13.09.27.12.39.12" class="cls-38"/>
        <path d="M35.3 81.18c.12-.25.25-.4.38-.45l-.85-.69c.02.64.23.98.46 1.14Zm-1.08 16.26c.14-1.31.49-2.58 1.07-3.79-.51-1.27-.86-2.72-1.03-4.23-.11 2.69-.12 5.58-.04 8.01Zm1.08-16.26c-.15.33-.29.83-.41 1.45.04-.03.1-.06.18-.11q.27-.645.63-1.23a.66.66 0 0 1-.39-.12Zm-.47 21.87q-.15-.495-.27-.99c.08.47.17.81.27.99" class="cls-38"/>
        <path d="M117.83 175.05c.67-.02 1.33 0 2 0 .21-.68.55-.64 1 0v-1q-3.495.165-6.9.51c1.31.11 2.63.29 3.9.49m-10.42.34-.42.06-1.16-1.4c.61.73.94 1.22 1.13 1.56.14-.09.3-.15.45-.22" class="cls-108"/>
        <path d="M107.41 175.39c.16-.08.3-.17.47-.23-.02-.04-.02-.06-.04-.1h.32c1.69-.61 3.71-.66 5.78-.49q3.39-.345 6.9-.51c-4.87 0-10.21.32-15 0l1.16 1.4.42-.06Z" class="cls-108"/>
        <path d="M107.95 175.31c-.18.03-.36.05-.53.08-.15.07-.31.14-.45.22.63 1.16-.64.39-.09.05.03-.02.06-.03.09-.05-.18-.34-.52-.83-1.13-1.56-1.54 4.84 4.4 6.33 2.11 1.26m11.88-.26h1c-.45-.64-.79-.68-1 0" class="cls-108"/>
        <path d="M106.96 175.61s-.06.03-.09.05c-.55.35.73 1.12.09-.05m2.89-.57c2.66 0 5.33.07 7.98 0-1.27-.2-2.59-.38-3.9-.49-1.38.14-2.74.3-4.09.48Z" class="cls-108"/>
        <path d="M108.15 175.05c.57 0 1.13-.01 1.7-.01 1.35-.18 2.71-.34 4.09-.48-2.07-.17-4.1-.11-5.78.49Zm-.74.34c.18-.03.36-.05.53-.08-.02-.05-.04-.1-.07-.16-.16.07-.31.15-.47.23Z" class="cls-108"/>
        <path d="M92.78 163.93c-.23-2.9-1.22-2.87-2.95.11 1.37-1.98 2.66-1.92 2.95-.11" class="cls-136"/>
        <path d="M89.83 164.05c1.02.41 1.97.66 3 1 0-.41-.03-.78-.05-1.11-.28-1.81-1.57-1.86-2.95.11" class="cls-136"/>
        <path d="M89.83 164.05c1.73-2.99 2.71-3.02 2.95-.11.05.32.07.69.05 1.11 5.87-5.77-5.9-7.64-3-1" class="cls-136"/>
        <path d="M92.78 163.93c.03.34.05.7.05 1.11.02-.43 0-.8-.05-1.11" class="cls-136"/>
        <path d="m65.22 163.65.86.38c0-.15.02-.29.03-.43-.29.07-.59.09-.89.05" class="cls-29"/>
        <path d="M66.12 163.6c.16-1.89 2-2.71 3.72-1.55-.35-.08-.78-1.12-2.39-1.03-2.17.12-2.49 1.37-3.61 2.03l1.39.6c.3.03.6.02.89-.05" class="cls-29"/>
        <path d="M63.86 163.98c.39 1.76 2.66 2.92 3.96 2.07 1.02-.67-.79-4.53 1.31-4.2l-.67-.19c-.47.95-1.35 1.72-2.35 1.95-.01.14-.04.27-.03.43l-.86-.38c-.47-.05-.94-.24-1.39-.6.07.31.07.62.03.93Z" class="cls-29"/>
        <path d="M66.12 163.6c.99-.23 1.88-.99 2.35-1.95l.67.19c.2.03.42.09.7.2-1.72-1.15-3.56-.34-3.72 1.55Zm-2.26.38c.05-.31.05-.62-.03-.93-.06.32-.04.63.03.93" class="cls-29"/>
        <path d="M63.83 163.05c.44.36.92.55 1.39.6z" class="cls-29"/>
        <path d="M111.83 212.05c1.75-.57 1.44-2.96 2-4-1.55.75-2.22 2.08-2 4" class="cls-14"/>
        <path d="M111.83 212.05c-.9-2.18-.84-4.08 2-4-6.23-2.54-6.98.4-2 4" class="cls-14"/>
        <path d="M111.83 212.05c-.22-1.92.45-3.25 2-4-2.84-.08-2.9 1.82-2 4" class="cls-14"/>
        <path d="M39.83 60.05c-.35 1.03-.67 1.92-1 3 1.34-.75 1.67-1.75 1-3" class="cls-15"/>
        <path d="M39.83 60.05c2.12 1.29 1.48 3.22-1 3 3.85 2.49 6.11-2.1 1-3" class="cls-15"/>
        <path d="M39.83 60.05c.67 1.25.34 2.25-1 3 2.48.22 3.12-1.71 1-3" class="cls-15"/>
        <path d="M58.83 159.05c1.37-1.17 1.85-1.27 3-3q-2.4.615-3 3" class="cls-115"/>
        <path d="M58.83 159.05c-.66-1.9 1.14-3.26 3-3-3-1.53-5.15-.25-3 3" class="cls-115"/>
        <path d="M58.83 159.05q.6-2.385 3-3c-1.86-.26-3.66 1.1-3 3" class="cls-115"/>
        <path d="M51.46 52.48c1.75-1.61 1.55-1.77-.63-.43.37.14.57.29.63.43" class="cls-36"/>
        <path d="M50.83 52.05c-.06.32.07.68 0 1 .24-.21.44-.39.63-.57-.05-.14-.26-.29-.63-.43" class="cls-36"/>
        <path d="M52.21 50.3c-.4.6-.85 1.19-1.38 1.75 2.18-1.34 2.38-1.18.63.43.07.19-.13.38-.63.57 5.22-1.05 4.12-5.35 1.38-2.75" class="cls-36"/>
        <path d="M51.46 52.48c-.19.18-.39.36-.63.57q.735-.285.63-.57m-.63-.43c.53-.56.98-1.14 1.38-1.75-.43.4-.89.97-1.38 1.75" class="cls-36"/>
        <path d="m128.83 174.05 7-1c-2.19.24-5.58-.9-7 1m7-1-7 1c2.19-.03 5.64.74 7-1" class="cls-146"/>
        <path d="M121.21 174.2c.46.25.33.53-.37.84.67-.15 1.38-.3 2.1-.44-.58-.04-1.16-.17-1.73-.4m1.73.4c.93-.19 1.89-.38 2.9-.56h-5c.16.05.27.1.37.16.57.23 1.15.36 1.73.4" class="cls-52"/>
        <path d="M122.94 174.6c-.72.15-1.43.29-2.1.44 1.6-.04 4.16.6 5-1-.96.43-1.93.62-2.9.56" class="cls-52"/>
        <path d="M125.83 174.05c-1.01.18-1.97.37-2.9.56.96.06 1.94-.13 2.9-.56m-4.62.15c-.12-.05-.25-.1-.37-.16v1c.71-.31.83-.6.37-.84" class="cls-52"/>
        <path d="M120.83 174.05c.12.06.25.11.37.16-.1-.05-.22-.11-.37-.16" class="cls-52"/>
        <path d="M169.68 157.27c.32.09.7.33 1.16.78-.3-1.15-.69-1.4-1.16-.78" class="cls-113"/>
        <path d="M168.83 159.05c.69-.26 1.33-.7 2-1-.45-.45-.84-.69-1.16-.78-.26.34-.54.92-.84 1.78" class="cls-113"/>
        <path d="M168.83 159.05c-.18-1.36.16-1.96.84-1.78.47-.62.86-.37 1.16.78.27-.61.54-1.13.83-1.61.81-3.11-5.7-1.35-2.83 2.61" class="cls-113"/>
        <path d="M170.83 158.05c.45-.64.71-1.17.83-1.61-.28.48-.55 1-.83 1.61m-2 1c.31-.86.59-1.44.84-1.78-.68-.19-1.03.42-.84 1.78" class="cls-113"/>
        <path d="M253.83 175.05c-1.51-1.73-2.65 1.61-2 3 .28-1.09.94-2.09 2-3m.63 1.17c-.24-.41-.45-.76-.63-1.17-.57 1.2-1.23 2.2-2 3 .74-.24 2.79-.58 2.63-1.83" class="cls-119"/>
        <path d="M251.83 178.05c.77-.8 1.43-1.8 2-3-1.06.91-1.72 1.91-2 3m2-3c.18.41.39.76.63 1.17-.04-.33-.22-.71-.63-1.17" class="cls-119"/>
        <path d="M176.69 142.58q-.12.24-.36.36c.16.02.33.05.49.09a.8.8 0 0 1-.13-.45" class="cls-32"/>
        <path d="M176.82 143.03c.68.16 1.35.5 2.01 1.01l-2-2c-.01.21-.06.38-.14.53 0 .16.04.31.13.45Z" class="cls-32"/>
        <path d="M176.82 143.03a4 4 0 0 0-.49-.09c-.33.19-.83.22-1.5.1 2.15 1.35 2.83.6 4 1-1.08-.25-1.75-.59-2.01-1.01" class="cls-32"/>
        <path d="M178.83 144.05c-.66-.51-1.34-.85-2.01-1.01.27.42.93.76 2.01 1.01m-4-1c.5-.13 1-.16 1.5-.1q.24-.135.36-.36c0-.17.04-.34.14-.53-.74.23-1.66 0-2 1Z" class="cls-32"/>
        <path d="M176.83 142.05c-.1.19-.14.36-.14.53.08-.15.13-.32.14-.53m-.5.89c-.5-.06-1-.02-1.5.1.67.12 1.16.08 1.5-.1" class="cls-32"/>
        <path d="m143.83 215.05.22 4.74c.32-.85.25-2.43-.22-4.74m-.51 5.44c-.33-.02-.62-.01-.89 0 .22.01.44.03.68.05.08 0 .14-.03.21-.05" class="cls-124"/>
        <path d="m144.05 219.78.03.77c-.27-.03-.52-.05-.76-.06-.07.02-.13.05-.21.05-.24-.02-.47-.04-.68-.05-2.71.12-2.59 1.64.4 4.55.05.02.29-.92.78-.76.26.09 1.06 3.37 4.22.25l-6.99-2.51c-.23-2.09 3.49-.46 4-.99 1.14-1.16-.87-5.05-1.01-6 .46 2.31.53 3.88.22 4.74Z" class="cls-124"/>
        <path d="M136.84 220.56c-.3 1.69 4.69 3.88 5.99 4.49-4-3.23-4.13-4.75-.4-4.55.27-.01.56-.02.89 0 .33-.08.58-.3.73-.71l-.22-4.74-.51 5.01z" class="cls-124"/>
        <path d="M144.05 219.78c-.15.41-.4.63-.73.71.24.01.49.03.76.06zm-1.62.71c-3.73-.19-3.6 1.32.4 4.55-2.99-2.92-3.12-4.43-.4-4.55" class="cls-124"/>
        <path d="M153.23 184.19c-1.69.26-3.16.88-4.4 1.86 1.89-.57 4.23-1.53 6-2-.67.16-1.18.2-1.6.14" class="cls-143"/>
        <path d="M152.07 183.63c-.6-.58-.98-1.54-1.74-2.56-1.76 1.21-1.67 3.01-1.5 4.98.03-1.68 1.12-2.48 3.24-2.42" class="cls-143"/>
        <path d="M152.07 183.63c-2.12-.06-3.21.74-3.24 2.42 1.24-.98 2.71-1.6 4.4-1.86-.49-.07-.86-.26-1.16-.56" class="cls-143"/>
        <path d="M187.83 230.05c-.8.09-1.35.6-2 1 1.04.65 1.69.27 2-1" class="cls-106"/>
        <path d="M185.8 232.59c.55 1.09 2.7.25 3-1.05.04-.17-.72-.84-.92-1.29.37 1.4-1.06 2.09-2.05.79.04.56.03 1.08-.03 1.55" class="cls-106"/>
        <path d="M187.88 230.26c-.03-.08-.06-.15-.05-.21-.31 1.27-.96 1.65-2 1 .98 1.3 2.42.61 2.05-.79" class="cls-106"/>
        <path d="M185.8 232.59c.06-.47.07-.99.03-1.55-.22.72-.2 1.22-.03 1.55" class="cls-106"/>
        <path d="M150.83 225.05c.13 2.23.78 1.96 2 3-.47-1.28-1.13-2.28-2-3" class="cls-131"/>
        <path d="M150.83 225.05c1.03.39 1.7 1.39 2 3 .04-2.37.67-3.47-2-3" class="cls-131"/>
        <path d="M150.83 225.05c.87.72 1.53 1.72 2 3-.3-1.61-.97-2.61-2-3" class="cls-131"/>
        <path d="M30.83 218.05c.11-.73 1.32-1.83 1-2.99-.64.05-1.43-.13-2 0 .9.39 1.24 1.39 1 3Z" class="cls-6"/>
        <path d="m30.83 218.05-1-3c-.14.92-.2 2.79 1 3" class="cls-6"/>
        <path d="m29.83 215.05 1 3c.24-1.61-.1-2.61-1-3" class="cls-6"/>
        <path d="M245.84 208.56c-.76 2.12 2.64 1.81 2.99 1.48l-1.72-1.24 1.72 1.24c1.04-.96-1.88-4.58-2.99-1.48" class="cls-3"/>
        <path d="M27.26 221.41c.1-.12.28-.24.57-.37-.33.11-.52.23-.57.37" class="cls-59"/>
        <path d="M27.26 221.41c.05-.13.24-.26.57-.37-4.05-2.87-7.41 1.3 0 1-.58-.19-.76-.4-.57-.63" class="cls-59"/>
        <path d="M27.26 221.41c-.07.19.11.4.57.63v-1c-.29.13-.47.25-.57.37" class="cls-59"/>
        <path d="M27.26 221.41q-.285.345.57.63c-.46-.23-.64-.44-.57-.63" class="cls-59"/>
        <path d="M134.73 104.45c21.58-11.06 14.21-50.5-9.39-50.85-9.31-.14-20.49 7.71-24.39 16.07-10.4 22.28 11.37 46.26 33.78 34.78m3.1-40.9c8.1 10.83 3.41 13.14-7.02 16.98-8.95 3.3-18.43 5.19-27.99 4.52-3.29-17.93 21.49-39.58 35-21.5Zm-31.49 26.53c9.13-2.35 6.35 1.92 11.44 3.52 4.71 1.48 10.24.09 13.6-3.5 4.19-4.47 2.03-10.44 11.45-10.04 1.71 18.24-19.75 30.08-33.54 17.04-.9-.86-4.12-4.71-4.45-5.56-.76-1.94.74-1.26 1.49-1.45Z" class="cls-62"/>
        <path d="M173.15 91.23c16.3 6.02 27.21-6.26 24.45-22.45-.39-2.3-5.52-15.7-8.76-12.73-1.36 1.25 5.67 8.06 3.01 10.48-3.47 3.16-26.44 8.59-29.88 6.38-6.18-18.68 5.55-28.45 23.36-19.86 1.06-.07-.63-2.5-.83-2.68-6.59-6.42-21.17-5.4-25.87 2.97-7.68 13.67.11 32.57 14.52 37.89m-2.83-14.16c3.45.68 4.59 5.78 10.55 4.6 7.47-1.49 6.3-10.39 12.96-10.61 2.49 15.59-12.01 23.65-24.49 13.99-4.88-3.78-9.55-10.04.98-7.98" style="fill:#030303"/>
        <path d="M168.69 106.72c-1.73-5.36-4.03 1.98-5.17 3.02-5.73 5.22-10.61-.31-13.09.35-1.27.34-1.96 2.14-1.55 3.41 1.59 4.94 23.08 3.34 19.81-6.78" style="fill:#0b0b0b"/>
        <path d="M103.86 165.98c.94-.42 2.36-1.42 4.63-3.31.47-.39.22-1.49.35-1.62-1.24 1.05-4.05-1.85-5.45-1.91-1.01-.05-3.19 1.3-3.55.91-.43-.48 2.5-10.61-6.99-3.5 1.46 4.17 6.13 4.17 7.51 5.46 1.2 1.13 1.33 2.7 1.74 3.57l1.57.43.18-.03Z" class="cls-147"/>
        <path d="m103.86 165.98-.18.03-1.57-.43c.29.6.72.86 1.75.4" class="cls-147"/>
        <path d="M110.02 17.73c4.19-1.08 8.63-.51 12.82-1.69-1.7-3.21-9.07-2.28-12.03-1.52-1.66.43-14.29 7.29-11.97 9.53 4.8-.73 6.24-5.03 11.18-6.31Z" style="fill:#131212"/>
        <path d="m86.83 151.05 5 3c4.02-4.62.84-10.41-5-3" style="fill:#0f0f0f"/>
        <path d="M106.8 157.55c-.31 1.91 4.12 1.73 2.04 3.5.11-.12 1.27.11 1.62-.35 5.43-7.01-2.77-8.6-3.66-3.15" class="cls-84"/>
        <path d="M112.85 162.08c-1.5 1.99 4.99 6.2 5.98 2.45 1.07-4.01-4.13-4.91-5.98-2.45" class="cls-33"/>
        <path d="M88.83 156.05c-.43-1.43-1.54-1.99-3-2-.74.57-3.76-1.61-3.03 2.52.2 1.1.49 1.78.86 2.16.22.12.44.25.66.37 1.42.24 3.35-2.2 4.51-3.04Z" class="cls-34"/>
        <path d="M84.32 159.09c-.22-.12-.43-.24-.66-.37.2.21.42.33.66.37" class="cls-34"/>
        <path d="M83.61 146.96c2.15.28 4.82-2.46 3.2-4.89-.96-1.43-6.82-.48-5.12 3.24.83.32 1.47.91 1.92 1.65" class="cls-84"/>
        <path d="M83.61 146.96c-.45-.74-1.1-1.32-1.92-1.65.09.19.17.37.3.58.42.67 1 .99 1.62 1.07" class="cls-84"/>
        <path d="M117.84 40.56c.56 3.79 3.53 2.1 5.99 1.47.43-5.04-3.45-5.09-5.99-1.47" style="fill:#1b1b1c"/>
        <path d="M127.35 161.05c-3.89 1.03.06 8.92 4.46 2.5-1.09-1.27-2.53-3.01-4.46-2.5" style="fill:#212122"/>
        <path d="M40.34 110.06c-2.01.56-2.01 4.42 0 4.98 4.6 1.29 4.6-6.27 0-4.98" style="fill:#202120"/>
        <path d="M77.34 135.06c-2.01.56-2.01 4.42 0 4.98 4.6 1.29 4.6-6.27 0-4.98" class="cls-98"/>
        <path d="M38.84 86.56c-1.12 4 4.18 3.63 4.99 2.48 1.98-2.81-3.99-6.04-4.99-2.48m6.07 7.88c.71 3.65 6.92.55 4.91-2.37-1.04-1.5-5.64-1.38-4.91 2.37" class="cls-43"/>
        <path d="M88.84 138.54c1.17 4.24 6.53-.45 4.99-2.49-.93-1.24-6.08-1.43-4.99 2.49" class="cls-10"/>
        <path d="M69.84 117.05c-2.13 2.83 4.25 6.01 4.99 2.48.51-2.44-3.86-3.98-4.99-2.48" class="cls-37"/>
        <path d="M166.83 37.04c.74-2.91-5.34-4.71-5.99-3.99-2.46 2.73 4.31 4.79 5.99 3.99" style="fill:#3a3a3b"/>
        <path d="M130.83 151.53c.51-2.44-3.86-3.98-4.99-2.48-2.13 2.83 4.25 6.01 4.99 2.48" class="cls-37"/>
        <path d="M47.33 103.06c-2.69-.01-2.74 5.95 0 5.96 2.69.01 2.74-5.95 0-5.96" style="fill:#191a19"/>
        <path d="M122.33 154.06c-2.69-.01-2.74 5.95 0 5.96 2.69.01 2.74-5.95 0-5.96" style="fill:#121211"/>
        <path d="M81.84 130.56c-.51 2.44 3.86 3.98 4.99 2.48 2.13-2.83-4.25-6.01-4.99-2.48" style="fill:#1d1d1d"/>
        <path d="M115.35 148.05c-2.45.56-1.74 5.6.97 4.99 3.57-.8 1.63-5.58-.97-4.99" class="cls-101"/>
        <path d="M97.33 141.07c-1.05 0-4.06 4.13-.99 4.97 4.8 1.32 3.3-4.96.99-4.97" class="cls-37"/>
        <path d="M54.26 115.05h.06c2.45-.56 1.74-5.6-.97-4.99-3.16.71-2 4.53.11 4.99.28-.04.55-.04.8 0" class="cls-65"/>
        <path d="M54.26 115.05c-.26-.04-.52-.05-.8 0 .26.06.53.06.8 0" class="cls-65"/>
        <path d="M77.34 123.06c-2.99.81-.18 4.96.99 4.97 2.26.01 3.85-6.27-.99-4.97" class="cls-148"/>
        <path d="M71.35 129.05c-2.45.56-1.74 5.6.97 4.99 3.57-.8 1.63-5.58-.97-4.99" style="fill:#272726"/>
        <path d="M63.84 127.04c2.08 2.08 6.07-1.91 3.99-3.99s-6.07 1.91-3.99 3.99" style="fill:#1f1e1f"/>
        <path d="M139.34 161.06c-2.61.7-1.42 4.9 1.98 3.98 2.61-.7 1.42-4.9-1.98-3.98" style="fill:#242322"/>
        <path d="M85.32 121.04c2.61-.7 1.42-4.9-1.98-3.98-2.61.7-1.42 4.9 1.98 3.98" style="fill:#383738"/>
        <path d="M46.34 79.06c-2.61.7-1.42 4.9 1.98 3.98 2.61-.7 1.42-4.9-1.98-3.98" class="cls-37"/>
        <path d="M50.85 87.55c-.05 3.65 7.67 2.07 4.98-1.5-.97-1.28-4.95-.06-4.98 1.5" style="fill:#2e2d2e"/>
        <path d="M122.32 147.04c2.45-.55 1.74-5.6-.97-4.99-2.45.55-1.74 5.6.97 4.99" class="cls-101"/>
        <path d="M157.34 155.06c-2.61.7-1.42 4.9 1.98 3.98 2.61-.7 1.42-4.9-1.98-3.98" style="fill:#383737"/>
        <path d="M145.34 155.06c-2.61.7-1.42 4.9 1.98 3.98 2.61-.7 1.42-4.9-1.98-3.98" style="fill:#2a2929"/>
        <path d="M133.34 155.06c-2.61.7-1.42 4.9 1.98 3.98 2.61-.7 1.42-4.9-1.98-3.98" style="fill:#201f1e"/>
        <path d="M101.84 148.05c-1.28.97-.06 4.95 1.5 4.98 3.65.05 2.07-7.67-1.5-4.98" style="fill:#181818"/>
        <path d="M42.32 102.04c2.61-.7 1.42-4.9-1.98-3.98-2.61.7-1.42 4.9 1.98 3.98" class="cls-43"/>
        <path d="M54.32 98.06c-3.51-.96-3.68 3.13-2.49 3.98 2.34 1.69 6-3.03 2.49-3.98" style="fill:#201f20"/>
        <path d="M113.83 140.04c2.34 1.69 6-3.03 2.49-3.98-3.51-.96-3.68 3.13-2.49 3.98" style="fill:#2d2c2d"/>
        <path d="M63.84 136.04c-1.69 2.34 3.03 6 3.98 2.49.96-3.51-3.13-3.68-3.98-2.49" class="cls-14"/>
        <path d="M98.82 130.56c-.95-3.51-5.68.15-3.98 2.49.86 1.19 4.94 1.02 3.98-2.49" class="cls-97"/>
        <path d="M88.84 123.05c-2.07 2.08 1.88 6.07 3.99 3.99 1.62-1.6-2.37-5.61-3.99-3.99" style="fill:#161616"/>
        <path d="M60.32 104.06c-3.45-1.28-2.91 3.55-2.48 3.98 1.64 1.65 6.34-2.55 2.48-3.98" class="cls-129"/>
        <path d="M63.84 111.56c-1.28 3.45 3.55 2.91 3.98 2.48 1.65-1.64-2.55-6.34-3.98-2.48" style="fill:#302f30"/>
        <path d="M59.33 91.07c-2.05 0-2.05 5.64.99 4.97 3-.66.2-4.97-.99-4.97" style="fill:#222223"/>
        <path d="M103.33 135.07c-.18 0-2.48 2.3-2.48 2.48.01 1.46 3.83 2.82 4.97 1.49.82-.94-2.09-3.98-2.49-3.97" style="fill:#191a1a"/>
        <path d="M141.32 153.04c2.51-.56 1.57-4.91-1.97-3.98-2.8.73.23 4.37 1.97 3.98" class="cls-12"/>
        <path d="M112.32 25.04c.82-.18 3.26-3.27 2.51-3.99-4.28-1.09-6.27 4.82-2.51 3.99" style="fill:#353536"/>
        <path d="M107.84 146.04c.73.73 4.45-.37 3.99-2.48-.81-3.7-5.92.55-3.99 2.48" class="cls-97"/>
        <path d="M48.83 67.05c-.73-.73-4.45.37-3.99 2.48.81 3.7 5.92-.55 3.99-2.48" class="cls-64"/>
        <path d="M128.32 140.04c2.36-.52 1.48-4.53-.97-3.99-2.36.52-1.48 4.53.97 3.99" class="cls-2"/>
        <path d="M51.84 77.04c1.6 1.26 4.13-2.85 2.99-3.99-1.74-1.74-5.31 2.15-2.99 3.99" class="cls-106"/>
        <path d="M135.83 143.05c-2-2-6.71 3.21 0 3.99-.14-.97.25-3.74 0-3.99" style="fill:#232223"/>
        <path d="M96.35 117.05c-2.36.52-1.48 4.53.97 3.99 2.36-.52 1.48-4.53-.97-3.99" style="fill:#343435"/>
        <path d="M71.35 92.05c-2.36.52-1.48 4.53.97 3.99 2.36-.52 1.48-4.53-.97-3.99" style="fill:#353535"/>
        <path d="M78.33 110.07c-2.47.03-2.47 4.93 0 4.96 1.88.02 1.88-4.98 0-4.96" class="cls-37"/>
        <path d="M65.35 98.05c-2.36.52-1.48 4.53.97 3.99 2.36-.52 1.48-4.53-.97-3.99" style="fill:#242324"/>
        <path d="M78.32 102.04c2.36-.52 1.48-4.53-.97-3.99-2.36.52-1.48 4.53.97 3.99" style="fill:#4b4a4c"/>
        <path d="M71.35 104.05c-2.36.52-1.48 4.53.97 3.99 2.36-.52 1.48-4.53-.97-3.99" style="fill:#232423"/>
        <path d="M85.83 108.04c1.74-1.74-2.15-5.31-3.99-2.99-1.26 1.6 2.85 4.13 3.99 2.99" class="cls-81"/>
        <path d="M61.83 120.04v-1.48c-1.06-1.57-2.15-1.74-3.99-1.51v1.48c.17.47.27.98.32 1.51z" class="cls-75"/>
        <path d="M58.16 120.04a6 6 0 0 0-.32-1.51v1.51z" class="cls-75"/>
        <path d="M175.2 138.74c.3.22.54.65.63 1.31.22-.99 0-1.41-.63-1.31" class="cls-4"/>
        <path d="M175.2 138.74c.63-.1.85.32.63 1.31 4.93-2.52-3.08-5.32-3 0 .59-1.25 1.66-1.83 2.37-1.31" class="cls-4"/>
        <path d="M175.83 140.05c-.1-.66-.33-1.09-.63-1.31-.51.08-1.29.51-2.37 1.31.94.13 2.15-.19 3 0" class="cls-4"/>
        <path d="M172.83 140.05c1.07-.8 1.85-1.23 2.37-1.31-.7-.52-1.78.05-2.37 1.31" class="cls-4"/>
        <path d="M41.32 77.04c1.57-1.05 1.74-2.14 1.51-3.98h-2.99v3.99h1.48Z" class="cls-129"/>
        <path d="M104.83 124.05h-3.99c.02 3.98 3.99 3.93 3.99 0" style="fill:#3c3b3c"/>
        <path d="M177.83 149.05c-.75-.75-4.05-.46-2.98 2.48.21.59.48.94.78 1.11l2.52-2.73c0-.34-.1-.65-.31-.87Z" class="cls-13"/>
        <path d="m178.14 149.92-2.52 2.73c1.12.66 2.55-1.34 2.52-2.73" class="cls-13"/>
        <path d="M66.32 86.06c-2.95-1.06-3.23 2.23-2.48 2.98 1.31 1.32 5.93-1.74 2.48-2.98m84.53 64.49c.01 1.03 3.31 2.11 3.98 1.49 1.91-1.77-4-4.48-3.98-1.49" class="cls-43"/>
        <path d="M142.83 29.05c-1.59-1.59-4.58 1.4-2.99 2.99s4.58-1.4 2.99-2.99" style="fill:#515151"/>
        <path d="M88.84 114.04c1.59 1.59 4.58-1.4 2.99-2.99s-4.58 1.4-2.99 2.99" style="fill:#242423"/>
        <path d="M86.84 45.04c1.59 1.59 4.58-1.4 2.99-2.99s-4.58 1.4-2.99 2.99" style="fill:#2d2d2d"/>
        <path d="M59.33 79.07c-2.98-.03-.28 5.88 1.49 3.98.62-.67-.47-3.96-1.49-3.98" style="fill:#323131"/>
        <path d="M43.82 124.56c-.94-2.53-3.88-1.09-4.02.15 0 .11.01.22.03.34l2.06-.45-2.06.45c.54.24 1.01.52 1.42.81 1.4.44 3.23.48 2.57-1.3" class="cls-20"/>
        <path d="M39.83 125.05c-.02-.12-.03-.23-.03-.34-.01.12-.01.23.03.34m1.42.81c-.41-.3-.88-.57-1.42-.81.09.25.7.59 1.42.81" class="cls-20"/>
        <path d="M190.84 130.05v4c.09.13 2.16-1.31 2.8-1.83.06-.06.13-.11.19-.17-.87-.45-1.3-.67-1.3-.67s.43.22 1.3.67v-1.67c-.53-.52-1.8-.52-2.99-.32Z" class="cls-60"/>
        <path d="M193.83 132.05c-.06.06-.13.11-.19.17.11-.09.18-.15.19-.17m.02-1.68v1.67c.4-.82.34-1.35 0-1.67" class="cls-60"/>
        <path d="M122.83 130.05c-.94-1.07-4.06 2.03-2.99 2.99 1.69 1.5 4.5-1.28 2.99-2.99" class="cls-15"/>
        <path d="M110.83 133.04c1.07-.96-2.05-4.06-2.99-2.99-1.51 1.71 1.3 4.49 2.99 2.99" class="cls-84"/>
        <path d="M185.84 128.04c.94 1.07 4.06-2.03 2.99-2.99-1.69-1.5-4.5 1.28-2.99 2.99" style="fill:#313030"/>
        <path d="M71.35 83.04c2.12.81 1.77-2.69 1.48-2.99-1.74-1.74-5.1 1.6-1.48 2.99" style="fill:#414242"/>
        <path d="M54.83 61.05c-1.69-1.5-4.5 1.28-2.99 2.99.94 1.07 4.06-2.03 2.99-2.99" class="cls-47"/>
        <path d="M85.32 29.06c-2.11-.76-1.82 2.62-1.48 2.99.97 1.05 4.57-1.88 1.48-2.99" style="fill:#242425"/>
        <path d="M66.83 76.04c1.05-.97-1.88-4.57-2.99-1.48-.76 2.11 2.62 1.82 2.99 1.48" class="cls-42"/>
        <path d="M97.83 105.05c-.37-.34-3.74-.63-2.99 1.48 1.11 3.09 4.03-.51 2.99-1.48" style="fill:#545555"/>
        <path d="M195.84 114.53c1.11 3.09 4.03-.51 2.99-1.48-.37-.34-3.74-.63-2.99 1.48" style="fill:#464646"/>
        <path d="M190.84 120.53c1.11 3.09 4.03-.51 2.99-1.48-.37-.34-3.74-.63-2.99 1.48" class="cls-59"/>
        <path d="M181.35 134.04c2.11.76 1.82-2.62 1.48-2.99-.97-1.05-4.57 1.88-1.48 2.99" style="fill:#4d4d4d"/>
        <path d="M76.84 86.05h1.99v2.99h-1.99z" style="fill:#030204"/>
        <path d="M59.33 67.07c-.66 0-2.07 2.4-1.49 2.97 1.51 1.51 4.26-2.97 1.49-2.97" class="cls-81"/>
        <path d="m115.34 127.04.49-2.99h-1.99c-.32 1.47.44 2.08 1.5 2.99" class="cls-152"/>
        <path d="M163.84 149.05v2.99c1.45-.34 2.3-1.61 1.99-2.99z" style="fill:#020101"/>
        <path d="M139.4 229.82c.04-.2.17-.45.43-.77-2.08.61-2.75 1.61-2 3-.42-1.9.35-2.39 1.57-2.23" class="cls-7"/>
        <path d="M139.83 229.05c-1.11-.68-9.07-4.69-8.98-1.5.04 1.23 5.5 4.43 6.98 4.5-.75-1.39-.08-2.39 2-3m1.47 1.34c-.68-.28-1.33-.49-1.9-.57-.22 1.04 2.02.62 1.9.57" class="cls-7"/>
        <path d="M141.83 231.03v-.98c-.85.09-1.36-.63-1.99-1.01-.26.32-.39.57-.43.77.56.08 1.22.29 1.9.57.13.05-2.12.47-1.9-.57-1.22-.16-1.99.33-1.57 2.23.62.03 2.72-1.42 3.99-1.01" class="cls-7"/>
        <path d="M39.83 193.48c-.31-.13-3.85 1.42-3.99 1.58-1.43 1.64 4.72 4.18 4.98 3.98.92-.71 1.17-4.67-.99-5.56" style="fill:#222021"/>
        <path d="M29.84 177.53c.67 2.94 5.97.53 5.44-1.69-1.76.13-3.47.23-5.09.31-.31.38-.47.83-.35 1.38" class="cls-64"/>
        <path d="M30.19 176.15c1.62-.08 3.32-.18 5.09-.31-.06-.27-.2-.53-.45-.79-.5-.5-3.55-.2-4.64 1.1" class="cls-64"/>
        <path d="M49.84 196.53c.51 2.35 7.33 2.42 4.9-1.38-.72-1.12-5.53-1.54-4.9 1.38" style="fill:#464545"/>
        <path d="M242.82 191.54c.96-3.51-3.13-3.68-3.98-2.49-1.69 2.34 3.03 6 3.98 2.49" class="cls-152"/>
        <path d="M57.81 170.24c0 .09.01.18.03.29.7 3.12 6.58.74 4.99-1.48-.26-.37-1.26-.68-2.3-.72-.94.75-1.91 1.4-2.65 1.87-.02.01-.05.03-.07.04" class="cls-105"/>
        <path d="M57.81 170.24s.05-.03.07-.04c.75-.48 1.71-1.12 2.65-1.87-1.41-.06-2.88.4-2.72 1.91" class="cls-105"/>
        <path d="M45.33 187.07c-2.05 0-2.05 5.64.99 4.97 3-.66.2-4.97-.99-4.97" class="cls-25"/>
        <path d="M48.83 201.06c-.13-.16-3.05-.65-3.49-2-1.52 1.41-1.57 2.44-.98 3.1 1.07.3 2.15.6 3.24.88 1.26-.16 2.15-.82 1.23-1.98" class="cls-134"/>
        <path d="M47.6 203.05c-1.09-.28-2.17-.58-3.24-.88.66.73 2.1 1.02 3.24.88" class="cls-134"/>
        <path d="M236.83 198.04c1.93-1.93-3.18-6.18-3.99-2.48-.46 2.11 3.26 3.21 3.99 2.48" class="cls-2"/>
        <path d="M40.83 183.53c.46-2.11-3.26-3.21-3.99-2.48-1.93 1.93 3.18 6.18 3.99 2.48" class="cls-75"/>
        <path d="M24.84 185.04c1.76.11 5.36-1.27 3.99-2.98-.1-.12-2.32-.81-3.41-.99-.24.52-.43 1.05-.58 1.57z" class="cls-54"/>
        <path d="M24.84 181.05v1.59c.15-.52.34-1.04.58-1.57-.31-.05-.54-.07-.58-.02" class="cls-54"/>
        <path d="M168.35 175.05c-2.32.51-1.5 4.37.84 4l.54-.15c1.84-.87.91-4.36-1.38-3.85" class="cls-14"/>
        <path d="m169.73 178.9-.54.15c.04 0 .08 0 .13-.01.15-.03.28-.08.41-.14" class="cls-14"/>
        <path d="m149.83 169.05-2 2 2.4-.6c-.23-.26-.37-.73-.4-1.4" class="cls-33"/>
        <path d="m150.23 170.45-2.4.6c.37.18.79 2.41 2.48 2 1.25-.3 1.27-2.76 1.52-3-.71.69-1.26.78-1.6.4" class="cls-33"/>
        <path d="M149.83 169.05c.03.67.17 1.14.4 1.4l1.6-.4c-.25-.92-1.17-1.04-2-1" class="cls-33"/>
        <path d="m151.83 170.05-1.6.4c.34.38.89.29 1.6-.4" class="cls-33"/>
        <path d="M56.84 204.04c.97-.14 3.74.25 3.99 0 2-2-3.21-6.71-3.99 0" class="cls-34"/>
        <path d="M230.83 200.05c-1.84-.23-2.93-.06-3.98 1.51v1.48h.09a58 58 0 0 0 3.9-1.06v-1.93Z" class="cls-121"/>
        <path d="M230.83 201.98c-1.28.4-2.59.75-3.9 1.06h3.9z" class="cls-121"/>
        <path d="M172.84 172.04h3.99c0-3.93-3.97-3.98-3.99 0" style="fill:#373738"/>
        <path d="M129.84 178.04h3.99c0-3.93-3.97-3.98-3.99 0" class="cls-146"/>
        <path d="M139.83 185.04c1.32-1.31-1.74-5.93-2.98-2.48-.52 1.43 0 2.23.75 2.6.06.03.12.05.19.08.76.28 1.69.17 2.05-.19Z" class="cls-120"/>
        <path d="M137.59 185.15c.06.03.12.05.19.08-.06-.03-.12-.05-.19-.08" class="cls-120"/>
        <path d="M28.83 191.04c1.33.07 2.67-.05 4 .01v-3c-3.1-.4-2.92.28-4 2.99" style="fill:#070409"/>
        <path d="M216.35 200.05c-2.75.62.24 3.97.99 3.97 1.96.02 1.8-4.61-.99-3.97" style="fill:#39393a"/>
        <path d="M68.85 203.55c.01 1.03 3.31 2.11 3.98 1.49 1.91-1.77-4-4.48-3.98-1.49" class="cls-148"/>
        <path d="M224.83 195.05c-.67-.62-3.96.47-3.98 1.49-.03 2.98 5.88.28 3.98-1.49" style="fill:#535254"/>
        <path d="M32.83 188.05c1.74.98 2.26 2.54 0 3 .23.01 2.96 2.36 3.01-1.49 0-.41-2.57-1.45-3.01-1.51" class="cls-121"/>
        <path d="M32.83 188.05v3c2.26-.46 1.74-2.02 0-3" class="cls-121"/>
        <path d="M142.84 178.04c1.59 1.59 4.58-1.4 2.99-2.99s-4.58 1.4-2.99 2.99" style="fill:#282829"/>
        <path d="m93.39 177.04 3.44.34c.52-.72.68-1.65 0-2.32 0 0-.02-.01-.03-.02-.54-.1-1.08-.21-1.61-.33-.97.32-1.84 1.36-1.8 2.34Zm1.8-2.34c.53.12 1.07.22 1.61.33-.47-.45-1.06-.51-1.61-.33" class="cls-96"/>
        <path d="M93.84 178.04c.91.91 2.28.31 2.99-.67l-3.44-.34c.01.36.15.71.45 1Z" class="cls-96"/>
        <path d="M159.85 170.55c.01 1.03 3.31 2.11 3.98 1.49 1.91-1.77-4-4.48-3.98-1.49" class="cls-152"/>
        <path d="M156.33 175.07c-1.7-.02-1.77 3.94 0 3.96 1.7.02 1.77-3.94 0-3.96" class="cls-133"/>
        <path d="M119.83 175.05c-.04.14-.09.25-.13.36.05-.1.1-.22.13-.36" class="cls-52"/>
        <path d="M117.83 175.05c-1.15 4.86 5.25 4.06 2 0-.03.14-.08.26-.13.36-.56 1.52-1.35 1.41-1.87-.36" class="cls-52"/>
        <path d="M117.83 175.05c.95.84 1.57.96 1.87.36.04-.12.09-.23.13-.36-.67 0-1.33-.02-2 0" class="cls-52"/>
        <path d="M119.7 175.41c-.3.59-.92.48-1.87-.36.52 1.77 1.31 1.88 1.87.36" class="cls-52"/>
        <path d="M42.84 178.04c.94 1.07 4.06-2.03 2.99-2.99-.24-.21-.5-.33-.77-.39-.44.08-.89.16-1.33.23-1.1.6-1.83 2.08-.89 3.15" class="cls-49"/>
        <path d="M43.73 174.89c.45-.07.89-.15 1.33-.23-.45-.09-.92 0-1.33.23" class="cls-49"/>
        <path d="M72.33 173.03c1.7.02 1.77-3.94 0-3.96-1.7-.02-1.77 3.94 0 3.96" class="cls-149"/>
        <path d="M203.84 200.05c-1.51 1.71 1.3 4.49 2.99 2.99 1.07-.96-2.05-4.06-2.99-2.99" class="cls-25"/>
        <path d="M106.35 206.04c2.12.81 1.77-2.69 1.48-2.99-1.74-1.74-5.1 1.6-1.48 2.99" style="fill:#363536"/>
        <path d="M80.83 206.05c-1.49-1.33-3.85.68-3.35 2.35.74.08 1.48.17 2.23.25.96-.77 1.74-2.04 1.12-2.59Z" class="cls-69"/>
        <path d="M79.71 208.64c-.74-.08-1.48-.16-2.23-.25.07.22.18.44.36.64.4.45 1.18.16 1.87-.4Z" class="cls-69"/>
        <path d="M101.32 207.06c-2.11-.76-1.82 2.62-1.48 2.99 0 0 .02.01.02.02.41.02.81.03 1.22.04 1.23-.53 2.45-2.25.24-3.04Z" class="cls-91"/>
        <path d="M101.08 210.1c-.41-.01-.81-.03-1.22-.04.28.27.75.24 1.22.04" class="cls-91"/>
        <path d="M181.32 163.06c-2.11-.76-1.82 2.62-1.48 2.99.97 1.05 4.57-1.88 1.48-2.99" style="fill:#444343"/>
        <path d="M185.84 170.56c-.16.45-.13.79.02 1.04.98-.3 1.98-.57 3.02-.82-.53-1.22-2.25-2.44-3.04-.23Z" class="cls-17"/>
        <path d="M188.83 172.04c.3-.28.27-.76.05-1.25-1.04.25-2.04.52-3.02.82.54.93 2.68.7 2.97.44Z" class="cls-17"/>
        <path d="M246.35 186.04c2.11.76 1.82-2.62 1.48-2.99-.97-1.05-4.57 1.88-1.48 2.99" style="fill:#1d1c1b"/>
        <path d="M147.54 170.72c-.18-.35.09-.71.83-1.09l-2.31.93c.64-.17 1.13-.11 1.48.17Z" class="cls-9"/>
        <path d="M147.54 170.72c-.35-.28-.84-.33-1.48-.17l-1.23.49c.83.18 2.45-.26 3 0a.94.94 0 0 1-.29-.32" class="cls-9"/>
        <path d="M148.38 169.63c.37-.19.85-.38 1.46-.58-3.03.13-3.45 1.13-4.46 1.74.25-.11.47-.18.69-.23z" class="cls-9"/>
        <path d="M145.38 170.79c-.16.1-.34.19-.54.26l1.23-.49c-.21.06-.44.13-.69.23m3-1.16c-.74.38-1.02.74-.83 1.09.11.09.21.19.29.32l2-2-1.46.58Z" class="cls-9"/>
        <path d="M147.54 170.72c.06.11.14.22.29.32-.08-.13-.18-.24-.29-.32m2.29-1.67c-.61.2-1.09.39-1.46.58z" class="cls-9"/>
        <path d="M90.34 207.05c-.9.78-1.59 1.34-1.57 2.4.66.05 1.32.1 1.98.14l-.42-2.54Z" class="cls-130"/>
        <path d="M88.84 210.04h1.99l-.07-.45c-.66-.04-1.32-.09-1.98-.14 0 .18.02.38.07.59Z" class="cls-130"/>
        <path d="M230.83 190.06h-2.99v1.98c1.38.31 2.66-.54 2.99-1.98" style="fill:#3a383a"/>
        <path d="M253.25 151.98c6.5-1.74-6.13-3.55-6.41-3.95l2.99-5.98c-4.05-1.04-5.57 2.11-8.07 3.46-1.35.73-3.79.41-3.93.55-.11.1-.09 2.86 0 2.98.49.61 14.54 3.19 15.41 2.95Z" style="fill:#161515"/>
        <path d="M200.84 146.04c.73.73 4.45-.37 3.99-2.48-.81-3.7-5.92.55-3.99 2.48" style="fill:#3f3f41"/>
        <path d="M205.84 140.04c1.59 1.59 4.58-1.4 2.99-2.99s-4.58 1.4-2.99 2.99" class="cls-15"/>
        <path d="M207.32 128.06c-2.11-.76-1.82 2.62-1.48 2.99.97 1.05 4.57-1.88 1.48-2.99" class="cls-2"/>
        <path d="M220.83 152.04c1.05-.97-1.88-4.57-2.99-1.48-.76 2.11 2.62 1.82 2.99 1.48" style="fill:#565757"/>
        <path d="M214.83 146.04v-1.99l-2.99.49c.91 1.06 1.52 1.82 2.99 1.5" style="fill:#333132"/>
    </g>
</svg>
